<svg width="256" height="256" viewBox="0 0 256 256" fill="none" xmlns="http://www.w3.org/2000/svg">
<g clip-path="url(#clip0_278_219)">
<path d="M179.549 79.3501C179.549 71.1001 173.349 64.3501 165.749 64.3501C158.149 64.3501 151.949 71.0501 151.949 79.3501C151.949 85.8001 156.049 91.7501 161.649 93.8001C164.099 92.3501 168.399 90.6001 175.349 90.5501C178.099 87.7001 179.549 83.5001 179.549 79.3501Z" fill="#EFF6FF"/>
<path d="M84.6005 121.85C83.9005 123.75 82.4505 126.5 79.3005 130.05C76.5005 133.25 74.0005 135.7 72.0505 137.5C69.4005 139.9 67.6005 141.1 67.1005 141.4C66.2505 140.05 65.7005 138.55 65.1505 136.8C62.9505 129.6 63.3505 121.15 63.4005 119.95C63.7505 119.9 64.1505 119.85 64.5005 119.75C64.5505 119.75 64.6005 119.7 64.6505 119.65V119.55C64.6505 119.45 64.5505 119.4 64.4505 119.4C57.8005 120.85 49.0005 119.3 41.3505 116.95H41.3005C34.7005 114.9 29.0005 112.3 26.4505 110.55C24.4505 109.2 23.6005 107.95 23.9005 106.9C24.1505 106 25.3005 105.3 27.0505 104.95C27.9005 104.75 28.9005 104.65 30.0005 104.6C33.1505 104.55 37.3005 104.7 40.4505 104.9C40.6005 104.9 40.7505 104.9 40.9005 104.95C40.9505 104.8 40.9505 104.7 41.0005 104.6C40.8505 104.6 40.6505 104.6 40.5005 104.55C40.0005 104.15 36.0005 100.95 32.8505 96.6C31.7505 95.1 30.8005 93.5 30.1005 91.8C29.1005 89.35 29.1005 87.6 30.1505 86.8C31.1505 86 33.1005 86.15 35.2005 87.05C36.0005 87.4 36.8505 87.8499 37.7005 88.4499C40.3005 90.2999 43.5005 92.95 45.7505 95C45.7505 95.05 45.8005 95.05 45.8505 95.1C46.0505 95.3 46.2505 95.45 46.4505 95.65L46.8005 95.4499C46.6005 95.2499 46.3505 95.05 46.1005 94.8C45.7005 92.55 45.8005 90.45 46.4005 88.6C46.9005 87.1 47.7505 85.75 48.9505 84.65C51.4505 82.3 55.0505 81.35 58.3505 82.15C61.0005 82.8 62.4005 84.55 62.9005 86.35C63.0505 86.9 63.1505 87.5 63.1505 88.05C63.1505 88.25 63.1505 88.45 63.1005 88.65C63.0005 89 62.9505 89.4 62.9005 89.75C62.4505 91.35 61.4005 92.5499 59.9005 92.9499C58.5005 93.3499 57.1505 93.3 55.8505 93.05L55.6505 93.25L55.5505 93.35C55.7505 93.4 55.9505 93.3999 56.1505 93.4499C56.2505 94.2499 56.8005 98.7 59.9005 101.35C61.4505 102.7 63.4505 103.35 65.8005 103.35C66.1505 103.35 66.5505 103.35 66.9005 103.3V103.85L67.0505 103.65L67.2505 103.4C67.3505 99.3 70.2005 96.6 70.5005 96.3H70.7005V96C67.8005 96.1 65.4505 95.2 64.1505 93.3C63.4505 92.25 63.1505 91 63.2505 89.75C63.3005 89.55 63.3505 89.3 63.4005 89.05C63.4005 88.95 63.4505 88.7999 63.4505 88.6999C63.6505 87.9999 63.9005 87.25 64.3505 86.6C65.7505 84.35 68.9505 83.2 72.4505 83.6C74.5005 83.85 76.4005 84.6 77.9505 85.75C79.8005 87.1 81.2005 89 82.0005 91.35C83.5005 95.75 82.1005 98.95 80.8005 102C79.9505 104 79.0505 106.05 79.0005 108.45V108.55C78.9505 110.05 79.2505 111.65 80.0505 113.5C81.0505 115.85 82.6505 117.45 84.8505 118.25H84.9005C85.1005 118.5 85.4005 119.65 84.6005 121.85ZM228.8 179.35C227.7 180.5 226.55 181.25 225.8 181.7C224.4 182.6 222.65 183.4 220.8 184.25C218.7 185.2 216.55 186.2 214.75 187.4C214.75 187.45 214.8 187.55 214.8 187.6C214.8 187.7 214.85 187.8 214.9 187.95C215.5 187.75 216.3 187.6 217.1 187.95C217.6 188.15 218 188.5 218.35 189C218.701 189.5 218.95 190.1 219.15 190.9C219.65 192.95 219.1 195 217.55 196.65C216.45 197.85 214.95 198.65 213.4 199C212.3 199.25 211.2 199.25 210.15 199.05C207.65 198.55 205.6 197.1 204.45 195.15C203.5 193.45 203.3 191.55 203.95 189.8C204.9 187.25 205.65 184.85 206.2 182.85C208.25 175.3 208.8 169.65 208.65 163.85C209.05 163.45 211.3 161.25 214.45 160.5H214.5C214.55 160.5 214.6 160.45 214.65 160.45C215.3 160.3 215.95 160.25 216.65 160.25C221.3 160.15 227.75 170.35 228.8 179.35Z" fill="#93C5FD"/>
<path d="M208.25 167.1C208.15 170.65 207.75 174.25 206.85 178.4C206.55 179.75 206.2 181.2 205.8 182.65C203.15 192.4 192.3 216.15 185.35 230.6C185.25 230.7 185.15 230.85 185 230.95C182.8 230.2 180.25 229.6 177.6 229.25C174.6 228.8 171.5 228.6 168.55 228.55C165.5 228.5 164.7 228.5 163 228.75C162.75 228.8 162.45 228.8 162.1 228.9C162 228.85 158.9 229.2 158.85 229.2C159 224.75 159.3 217.5 159.2 212.45C159.4 212.45 159.8 212.4 160.25 212.4L159.9 212.05C159.35 212.1 159 212.1 159 212.1C152.5 212.1 146.45 211.6 140.9 210.65H140.85C140.85 210.65 140.7 210.7 140.5 210.8C140 210.75 139.45 210.65 138.95 210.55C138.85 210.55 138.8 210.5 138.7 210.5C138.2 210.4 137.75 210.35 137.25 210.25C136.75 210.15 136.25 210.05 135.8 209.95C134.75 209.7 133.7 209.45 132.7 209.2C132.3 209.1 131.85 208.95 131.45 208.85L131 208.7C130.6 208.6 130.25 208.45 129.85 208.35C129.45 208.2 129 208.1 128.6 207.95C123.55 206.2 119.5 204.05 116.55 202.3C116.4 202.2 116.25 202.1 116.1 202.05C115.35 201.6 114.65 201.15 114.1 200.75C114 200.7 113.95 200.65 113.85 200.6C113.25 200.2 112.8 199.85 112.4 199.55C112.35 199.5 112.3 199.5 112.25 199.45V199.2C108.1 195.95 104.55 192.1 101.7 187.7C97.4 181 94.8 173.2 93.5 164.8C94.65 164.45 95.7 163.95 96.65 163.35C96.9 163.2 97.15 163 97.4 162.8C102.2 159.25 104.7 152.2 105.05 141.5C123.8 149.15 140 152.45 152.8 153.6C156.95 153.95 160.8 154.1 164.2 154.1C171.65 154.1 177.35 153.4 180.9 152.75C180.25 156.1 179.7 159.7 179.35 163.45C179.35 174.75 183.35 178.35 185.7 179.5C186.5 179.9 187.35 180.1 188.2 180.15H188.75C190.6 180.15 192.5 179.45 194.2 178.1C196.45 176.3 198.65 173 199.15 168.6C199.25 167.65 199.3 166.7 199.2 165.7C199.9 167.5 201.4 170 204.05 170.25C205.2 170.35 206.15 170.05 206.85 169.4C207.65 168.65 208.05 167.9 208.25 167.1Z" fill="#3B82F6"/>
<path d="M211.35 79.3501L211.2 80.0001C210.65 82.6501 209.9 85.4001 209.05 88.3001C207.3 94.5001 205.3 101.5 204.35 111.5C204.2 113.35 204.1 115.3 204.1 117.4C201.85 118.2 198.3 120 194.55 123.7C189.45 128.75 184.05 137.4 181.1 152.15C170.9 154 143.35 156.5 105.15 140.85C105.35 134.4 104.75 127.3 104.15 121.25C103.6 115.9 102.65 112.3 101.25 110.5C101 110.15 100.7 109.9 100.45 109.7C99.8496 109.3 99.2496 109.15 98.5996 109.25C102.6 94.0001 108.05 79.3001 113.25 66.9001C114.8 63.2001 116.35 59.7001 117.8 56.5001C117.85 56.3501 117.95 56.2001 118 56.0501C123.25 44.5501 127.5 36.6501 128.5 34.8501C129.6 35.2001 130.7 35.6501 131.75 36.0501C135.35 37.5501 139.05 39.2001 142.65 40.7501C143.7 41.2001 144.8 41.7001 145.85 42.1501C157.25 47.1501 169 52.0001 181.3 53.0501C182.95 53.2001 184.65 53.2501 186.35 53.2501C189.55 53.2501 192.85 53.0001 196.25 52.5501H196.35C196.4 52.5001 196.5 52.4501 196.55 52.4001C200.9 57.0001 204.05 61.6001 206.3 65.8501C209.25 71.4001 210.7 76.2001 211.35 79.3501Z" fill="#8CB0DC"/>
<path d="M141.049 79.15C143.349 74.3 141.699 68.75 137.399 66.7C135.299 65.7 132.949 65.7 130.699 66.65C128.449 67.6 126.599 69.4 125.449 71.75C123.799 75.2 124.149 79.2 126.249 81.95C128.199 82.35 130.699 83.2 132.749 84.95C136.249 84.85 139.449 82.55 141.049 79.15Z" fill="#EFF6FF"/>
<path d="M196.9 52.2C206.95 62.75 210.5 73.5999 211.75 79.1999C221.85 61.6999 222 42.0499 212.1 20.75C210.6 19.4 209.05 18.15 207.5 16.95C207.5 20.25 207.45 43.85 196.9 52.2Z" fill="#285CB2"/>
<path d="M196.299 52.1501C196.249 52.2001 196.199 52.2001 196.149 52.2501C190.949 52.9501 185.949 53.1001 181.299 52.7501C167.849 51.6501 155.099 45.9501 142.749 40.5001C139.149 38.9001 135.449 37.2501 131.849 35.8001C130.999 35.4501 130.149 35.1501 129.299 34.8501L128.399 34.5501C120.049 31.7001 112.949 31.3501 107.199 32.1501C106.299 32.3001 105.399 32.4501 104.549 32.6001C101.899 33.2001 99.5492 34.0001 97.5992 34.9001C97.5492 34.9001 97.4992 34.9501 97.4492 34.9501C100.799 31.5001 109.949 27.3501 133.699 25.8501C134.999 26.0001 136.249 26.1501 137.499 26.3001C153.349 28.4501 166.899 32.5501 178.099 38.6001C185.199 42.3001 191.249 46.8501 196.299 52.1501Z" fill="#93C5FD"/>
<path d="M97.1003 35.05C95.4003 36.65 95.0003 39.15 95.6003 41.2C97.5503 47.5 108.75 53.6 117.85 56.45C123.05 45 127.35 36.55 128.4 34.65C114.05 29.75 101.95 31.85 97.1003 35.05Z" fill="#285CB2"/>
<path d="M206.8 168.95C206.15 169.55 205.35 169.8 204.3 169.7C202.4 169.5 201.15 168 200.35 166.55C199.55 165.1 199.25 163.65 199.25 163.65C199.2 163.25 199.1 162.85 199.05 162.45C199.2 159.8 199.1 156.85 199 153.65C198.85 148.5 198.4 143.55 199.25 138.5C199.4 137.85 199.45 136.35 200 135.1C200 134.6 200.45 133.7 200.45 133.7C201.3 130.9 202.6 128.8 204.55 126.7C204.65 128.25 204.95 129.65 205.1 131.25C205.1 131.4 205.05 131.45 205.05 131.55V131.7C205.45 136.2 205.9 140.8 206.4 144.65L206.45 145.3C206.6 146.7 206.8 148.05 206.95 149.35C207.6 154.7 208.15 159.2 208.3 163.55V163.65C208.3 164.6 208.3 167.55 206.8 168.95Z" fill="#8CB0DC"/>
<path d="M199 138.35C198.25 143.3 198.4 148.65 198.55 153.7C198.65 156.85 198.75 159.85 198.6 162.45C199.85 167.95 198.4 172.45 196.3 175.3C196.2 175.45 196.1 175.6 196 175.7C195.4 176.45 194.8 177.05 194.15 177.55L194.1 177.6C193.7 177.9 193.3 178.2 192.85 178.45C190.6 179.7 188.15 179.9 186.05 178.85C183.75 177.75 179.9 174.2 179.9 163.15C180.25 159.35 180.8 155.7 181.5 152.25C182.5 147.3 183.75 143.05 185.15 139.4C187.95 132.2 191.4 127.3 194.75 123.95C198.4 120.25 201.9 118.5 204.15 117.65C204.15 120.35 204.3 123.25 204.45 126.15C201.4 129.2 199.85 133.3 199.1 137.75C199.05 138.15 199 138.3 199 138.35Z" fill="#3B82F6"/>
<path d="M159.7 111.9C156 111.9 151.9 111.35 147.45 110.3C141.7 108.9 136.35 106.85 132.5 105.2C132.65 105.35 132.75 105.55 132.85 105.8C133.3 106.85 133.2 108.25 132.45 109.9C130.85 113.6 127.55 115.5 126.6 116C129.5 118.35 133.7 121.3 138.7 123.3C140.6 119.55 144.95 117.15 149.85 117.15C154.55 117.15 158.85 119.45 160.85 123C169.95 118.8 175.15 110.65 177.9 104.55C173.85 109.45 167.7 111.9 159.7 111.9Z" fill="black"/>
<path d="M149.9 117.5C145.2 117.5 140.95 119.8 139.1 123.4C139.25 123.45 139.4 123.5 139.5 123.55C139.75 123.65 140 123.75 140.2 123.8C140.3 123.85 140.45 123.9 140.55 123.9C140.85 124 141.15 124.1 141.4 124.2C141.45 124.2 141.45 124.2 141.5 124.25C147 125.9 152.4 125.95 157.45 124.3C158 124.15 158.5 123.95 159 123.75C159.15 123.7 159.35 123.6 159.5 123.55C159.8 123.4 160.15 123.3 160.45 123.15C158.6 119.7 154.45 117.5 149.9 117.5Z" fill="#2755A0"/>
<path d="M180.549 97.35C180.399 98.05 179.949 99.6 179.199 101.65C178.999 102.15 178.799 102.65 178.599 103.2C171.449 113.2 157.799 112.4 147.599 109.95C137.149 107.45 128.099 102.75 126.949 102.15L128.599 94.05L128.899 92.7C131.799 94.3 135.349 96 139.399 97.5C149.649 101.25 165.149 104.35 180.549 97.35Z" fill="#EFF6FF"/>
<path d="M166.35 56.55C166.6 56.55 166.95 56.5 167.3 56.4C167.35 56.4 168.3 56.2 169.65 56.2C171.85 56.2 174.9 56.65 177.1 58.75C178.95 60.5 179.85 60.9 180.25 60.9C180.4 60.9 180.5 60.85 180.55 60.75C180.65 60.6 180.85 60.15 180.55 58.9C180.2 57.2 178.75 53.25 173 53.25H172.75C168.95 53.35 165.75 55.5 165.75 56.3C165.85 56.5 166.2 56.55 166.35 56.55Z" fill="#4F5C72"/>
<path d="M104.849 141C104.549 151.15 102.349 157.95 98.0993 161.65C97.6493 162.05 97.1993 162.4 96.6993 162.7C95.7493 163.35 94.6993 163.85 93.5493 164.2C92.9493 160.2 92.6493 156.05 92.5993 151.8V151.75C92.4493 140.6 94.0993 128.8 96.6993 117.15C96.6993 117.1 96.7493 117.1 96.6993 117.05C97.2493 114.6 97.8493 112.1 98.4993 109.65C99.0993 109.55 99.6993 109.65 100.249 110.05C100.549 110.3 100.849 110.6 101.149 111C101.599 111.65 102.049 112.55 102.399 113.7C102.999 115.6 103.499 118.15 103.799 121.35C104.449 127.4 105.049 134.5 104.849 141Z" fill="#3B82F6"/>
<path d="M138.814 78.2883C139.505 75.5294 138.546 72.9118 136.671 72.4417C134.796 71.9716 132.716 73.827 132.024 76.5859C131.332 79.3448 132.291 81.9624 134.166 82.4325C136.041 82.9026 138.122 81.0471 138.814 78.2883Z" fill="black"/>
<path d="M179.549 79.3501C179.549 71.1001 173.349 64.3501 165.749 64.3501C158.149 64.3501 151.949 71.0501 151.949 79.3501C151.949 85.8001 156.049 91.7501 161.649 93.8001C164.099 92.3501 168.399 90.6001 175.349 90.5501C178.099 87.7001 179.549 83.5001 179.549 79.3501ZM167.499 87.3501C164.749 87.3501 162.499 84.4501 162.499 80.8501C162.499 77.3001 164.749 74.3501 167.499 74.3501C170.249 74.3501 172.499 77.2501 172.499 80.8501C172.549 84.4501 170.249 87.3501 167.499 87.3501Z" fill="#EFF6FF"/>
<path d="M130.65 58.9001C130.65 58.9001 131.3 58.8501 132.35 58.8501C134.8 58.8501 139.35 59.0501 142.35 60.2501C143.45 60.7001 144.1 60.6501 144.2 60.0501C144.35 58.8001 142.25 55.7501 139.1 55.0001C138.7 54.9001 138.25 54.8501 137.75 54.8501C134.1 54.8501 129.55 57.5001 129.5 58.5001C129.5 58.7501 129.9 58.9001 130.65 58.9001Z" fill="#4F5C72"/>
<path d="M96.2508 117.3C95.7508 119.5 95.3008 121.7 94.9008 123.9C93.7508 130 92.9008 136.1 92.5008 142.1C92.3008 145.3 92.1508 148.45 92.2008 151.5C76.0508 148.75 70.1508 146 67.3008 141.7C67.8008 141.4 69.6008 140.15 72.3008 137.75C74.3008 135.95 76.7508 133.55 79.5508 130.3C82.6508 126.7 84.2008 124 84.9008 122.05C85.6008 120.1 85.5508 118.9 85.4008 118.35C86.5008 118.7 87.6508 118.85 88.8008 118.85C92.1508 118.9 95.2508 117.75 96.2508 117.3Z" fill="#8CB0DC"/>
<path d="M196.6 51.9001C191.55 46.6501 185.5 42.1001 178.5 38.3001C167.6 32.4001 154.45 28.3001 139.1 26.0501C137.45 25.8001 135.8 25.6001 134.1 25.4001C135.4 23.1501 145.85 5.35006 150.6 2.05006C153.2 0.250056 162.9 -0.149944 174.55 2.30006C176.7 2.75006 179.35 3.40006 182.35 4.35006C185.7 5.40006 189.5 6.80006 193.45 8.60006C197.85 10.6501 202.5 13.2501 207 16.6001C207.1 18.3501 207.5 43.4001 196.6 51.9001Z" fill="#93C5FD"/>
<path d="M229.151 179C227.901 169.75 221.501 159.8 216.651 159.8C215.951 159.8 215.301 159.85 214.701 160C211.701 160.6 209.401 162.55 208.651 163.3C208.501 159 207.951 154.65 207.301 149.4C207.151 148.1 206.951 146.75 206.801 145.35L206.701 144.7C206.251 140.85 205.701 136.5 205.301 132C206.601 132.4 208.451 133.35 210.551 134.85C216.601 139.2 224.801 147.8 229.401 158.85C234.101 170.05 231.851 175.9 229.151 179Z" fill="#8CB0DC"/>
<path d="M200.349 7.60002C198.299 6.45002 196.799 5.75002 195.499 6.10002C194.599 6.35002 193.799 7.00002 193.199 8.10002C196.649 10 200.049 11.2 202.599 13.4C203.749 10.95 204.049 9.70002 200.349 7.60002Z" fill="#93C5FD"/>
<path d="M167.6 88.5999C170.472 88.5999 172.8 85.4211 172.8 81.4999C172.8 77.5787 170.472 74.3999 167.6 74.3999C164.729 74.3999 162.4 77.5787 162.4 81.4999C162.4 85.4211 164.729 88.5999 167.6 88.5999Z" fill="black"/>
<path d="M141.399 210.85L130.249 231.45C130.099 231.35 129.999 231.3 129.849 231.2C129.149 230.8 127.549 229.85 125.049 228.55C121.699 226.8 116.749 224.45 110.399 221.95C109.099 221.45 107.749 220.9 106.299 220.4C106.249 220.4 106.199 220.35 106.199 220.35C106.199 220.35 110.599 207.8 111.299 198.65V198.45C111.299 198.45 111.649 198.75 112.299 199.25C112.349 199.3 112.399 199.3 112.449 199.35H112.499C112.899 199.65 113.399 200 113.949 200.4C113.999 200.45 114.099 200.5 114.199 200.55C114.799 200.95 115.449 201.4 116.199 201.85C116.349 201.95 116.499 202.05 116.649 202.1C116.849 202.2 116.999 202.3 117.199 202.45C117.399 202.55 117.599 202.7 117.799 202.8C120.649 204.45 124.349 206.3 128.849 207.85C129.199 207.95 129.549 208.1 129.899 208.2C130.399 208.35 130.949 208.55 131.449 208.7C131.849 208.8 132.249 208.95 132.699 209.05C133.149 209.2 133.649 209.3 134.149 209.4C134.199 209.4 134.249 209.45 134.299 209.45C134.799 209.6 135.299 209.7 135.799 209.8C136.299 209.9 136.749 210 137.249 210.1C137.749 210.2 138.199 210.3 138.699 210.35C138.799 210.35 138.849 210.4 138.949 210.4C139.449 210.5 139.999 210.55 140.499 210.65C140.849 210.8 141.149 210.85 141.399 210.85Z" fill="#3B82F6"/>
<path d="M191.9 255.65C191.9 255.65 182.3 255.7 172.7 254.45C169 253.95 165.3 253.25 162.15 252.3C160.4 251.75 158.8 251.15 157.45 250.4L158.35 239.9L158.9 229.3C158.9 229.3 160.4 229 163.05 228.8C166.35 228.55 171.4 228.45 177.6 229.4C179.95 229.75 182.45 230.25 185.05 230.95L178.65 244.2C178.6 244.2 188.6 248.75 191.9 255.65ZM130.3 231.45L122 246.75C122 246.75 110.75 248 96.45 246.7C92.15 246.3 87.6 245.7 83 244.7C83 244.7 83.25 244.4 83.75 243.95C85.65 242.2 91.15 237.95 100.45 236.05L106.25 220.4C106.25 220.4 106.3 220.4 106.35 220.45C106.7 220.6 108.25 221.1 110.45 221.9C114.15 223.3 119.75 225.55 125.15 228.45C126.75 229.3 128.35 230.25 129.9 231.2C130.05 231.25 130.15 231.35 130.3 231.45Z" fill="#8CB0DC"/>
<path d="M202.3 13.1999C201.65 12.7999 200.95 12.4499 200.25 12.0499C201.25 10.9499 201.65 9.5999 201.75 8.3999C202.3 8.8999 202.75 9.4999 203 10.2999C203.35 11.1999 203 12.1999 202.3 13.1999Z" fill="#285CB2"/>
<path d="M180.549 97.35C180.399 98.05 179.949 99.6 179.199 101.65C156.649 112.05 130.899 97.1 128.449 95.45L128.949 92.7C131.849 94.3 135.399 96 139.449 97.5C149.649 101.25 165.149 104.35 180.549 97.35Z" fill="#BFDBFE"/>
<path d="M142.4 80.0499C140.85 83.4499 136.9 85.9499 133.55 86.0999C132.15 84.8999 130.9 83.9499 129.6 83.3999C129.05 83.1499 128.5 82.9499 127.9 82.8499C127.75 82.6499 127.65 82.4999 127.5 82.2999C128.9 82.6999 130.4 83.2999 131.85 84.2999C135.25 84.1499 138.45 81.8499 140 78.4999C141.9 74.5499 141.1 70.0499 138.4 67.4499C138.55 67.4999 138.65 67.5499 138.8 67.6499C143.05 69.6499 144.65 75.1999 142.4 80.0499ZM163.7 93.5999C163.75 93.6499 163.85 93.6499 163.9 93.6999C164.15 93.5499 164.4 93.3999 164.7 93.2499C164.4 93.3999 164.05 93.4999 163.7 93.5999ZM168.35 64.6499H168.1C173.55 66.8499 177.45 72.8999 177.45 80.0499C177.45 83.7999 175.9 87.6499 173.75 90.5999C173.7 90.6999 173.65 90.7499 173.55 90.8499C174.65 90.7499 175.8 90.6999 177.1 90.6999C179.85 87.8999 181.9 83.4999 181.9 79.4499C181.85 71.3999 175.8 64.7999 168.35 64.6499Z" fill="#6D7D90"/>
<path d="M168.35 64.65C168.2 64.6 168.05 64.6 167.9 64.55C167.95 64.55 168.05 64.6 168.1 64.6C173.55 66.8 177.45 72.85 177.45 80C177.45 83.75 175.9 87.6 173.75 90.55C174.25 90.55 174.8 90.5 175.4 90.5C178.15 87.65 179.6 83.4 179.6 79.3C179.55 72.05 174.7 65.95 168.35 64.65ZM141.05 79.15C139.45 82.55 136.2 84.8 132.8 84.95C132.5 84.7 132.2 84.45 131.85 84.25C135.25 84.1 138.45 81.8 140 78.45C141.9 74.5 141.1 70 138.4 67.4C138.25 67.3 138.15 67.15 138 67.05C138.25 67.2 138.55 67.4 138.75 67.55C142.05 70.05 143.1 74.9 141.05 79.15Z" fill="#C5C9CF"/>
<path d="M131.85 84.25H131.8C131.25 83.75 130.45 83.5 129.6 83.4C129.05 83.15 128.5 82.95 127.9 82.85C127.75 82.65 127.65 82.5 127.5 82.3C128.9 82.65 130.45 83.3 131.85 84.25Z" fill="#EFF6FF"/>
<path d="M189.451 169.15C187.601 169.15 186.051 170.65 186.051 172.55C186.051 174.45 187.551 175.95 189.451 175.95C191.301 175.95 192.851 174.45 192.851 172.55C192.851 170.65 191.351 169.15 189.451 169.15ZM188.951 173.9C188.701 174.15 188.351 174.15 188.101 173.9C187.851 173.65 187.851 173.3 188.101 173.05C188.351 172.8 188.701 172.8 188.951 173.05C189.201 173.3 189.201 173.7 188.951 173.9ZM188.951 172.05C188.701 172.3 188.351 172.3 188.101 172.05C187.851 171.8 187.851 171.45 188.101 171.2C188.351 170.95 188.701 170.95 188.951 171.2C189.201 171.45 189.201 171.8 188.951 172.05ZM190.851 173.9C190.601 174.15 190.251 174.15 190.001 173.9C189.751 173.65 189.751 173.3 190.001 173.05C190.251 172.8 190.601 172.8 190.851 173.05C191.051 173.3 191.051 173.7 190.851 173.9ZM190.851 172.05C190.601 172.3 190.251 172.3 190.001 172.05C189.751 171.8 189.751 171.45 190.001 171.2C190.251 170.95 190.601 170.95 190.851 171.2C191.051 171.45 191.051 171.8 190.851 172.05Z" fill="#0D3D8C"/>
<path d="M145.851 42.2001C142.351 41.4001 138.651 40.6001 135.051 40.8501C130.651 41.1501 128.551 44.5501 125.901 47.6001C123.401 50.5001 120.751 53.2501 118.051 55.9501C123.251 44.5501 127.501 36.6501 128.501 34.8501C129.601 35.2001 130.701 35.6501 131.751 36.0501C135.351 37.5501 139.051 39.2001 142.651 40.7501C143.701 41.2501 144.801 41.7501 145.851 42.2001ZM208.251 163.7C208.301 164.55 208.301 167.5 206.801 168.95C206.151 169.55 205.351 169.8 204.301 169.7C202.401 169.5 201.151 168 200.351 166.55C199.551 165.1 199.251 163.65 199.251 163.65C199.201 163.25 199.101 162.85 199.051 162.45C199.201 159.8 199.101 156.85 199.001 153.65C198.851 148.5 198.401 143.55 199.251 138.5C199.401 137.85 199.451 136.35 200.001 135.1C200.001 134.6 200.451 133.7 200.451 133.7C201.301 130.9 202.601 128.8 204.551 126.7C204.651 128.25 204.951 129.65 205.101 131.25C205.101 131.4 205.051 131.45 205.051 131.55V131.75V131.7C205.451 136.2 205.901 140.8 206.401 144.65L206.451 145.3C206.601 146.7 206.801 148.05 206.951 149.35C207.601 154.7 208.151 159.2 208.301 163.55L208.251 163.7ZM211.351 79.3501L211.201 80.0001C210.651 82.6501 209.901 85.4001 209.051 88.3001C207.301 94.5001 205.301 101.5 204.351 111.5C204.201 113.35 204.101 115.3 204.101 117.4C201.951 118.2 198.551 119.85 194.951 123.35C196.251 98.7001 202.851 78.8501 207.301 67.9501C209.601 72.5501 210.751 76.6001 211.351 79.3501ZM214.701 160C211.701 160.6 209.401 162.55 208.651 163.3C208.501 159 207.951 154.65 207.301 149.4C207.151 148.1 206.951 146.75 206.801 145.35L206.701 144.7C206.251 140.85 205.701 136.5 205.301 132C206.601 132.4 206.801 132.25 208.851 133.75C213.201 145.05 214.001 151.35 214.701 160ZM191.901 255.65C191.901 255.65 184.151 255.5 173.801 254.6C170.951 249.15 172.401 245.55 175.501 238.9C176.901 235.85 178.451 232.85 179.901 229.85C180.751 230.05 183.051 230.6 185.001 231.1L178.651 244.2C178.601 244.2 188.601 248.75 191.901 255.65Z" fill="#6D7D90"/>
<path d="M208.25 167.1C208.15 170.65 207.75 174.25 206.85 178.4C206.55 179.75 206.2 181.2 205.8 182.65C203.15 192.4 192.3 216.15 185.35 230.6L185.05 230.9C183.45 230.35 181.4 229.75 179.9 229.7C181.45 226.5 182.95 223.25 184.45 220.05C185.95 216.9 187.45 213.7 188.85 210.55C190.9 205.95 192.9 201.25 194.65 196.55C196.55 191.55 199.2 184 200.6 177.15C196.85 181.75 191.25 181.25 188.3 180H188.85C190.7 180 192.6 179.3 194.3 177.95C196.55 176.15 198.75 172.85 199.25 168.45C199.35 167.5 199.4 166.55 199.3 165.55C200 167.35 201.5 169.85 204.15 170.1C205.3 170.2 206.25 169.9 206.95 169.25C207.65 168.65 208.05 167.9 208.25 167.1ZM179.95 229.75C179.95 229.8 179.95 229.8 179.9 229.85C179.7 229.8 179.6 229.75 179.6 229.75H179.95Z" fill="#1851AD"/>
<path d="M125.049 228.65C126.599 229.45 128.749 230.65 130.249 231.55L121.999 246.75C121.999 246.75 110.749 248 96.4492 246.7C98.9992 246.5 103.099 245.75 103.549 245.7C107.999 245.05 113.349 243.5 116.899 240.55C119.849 238.15 121.149 235.6 122.999 232.3C123.699 231.05 124.399 229.85 125.049 228.65Z" fill="#6D7D90"/>
<path d="M141.399 210.85L130.399 231.2C128.999 230.3 126.949 229.1 125.149 228.35C126.599 225.55 127.799 222.6 127.949 219.35C128.049 217.15 127.399 214.75 126.249 212.9C124.849 210.65 122.799 208.7 120.799 207C119.299 205.75 117.749 204.5 116.299 203.15C115.549 202.45 114.849 201.7 114.249 200.9C114.199 200.85 114.099 200.65 113.949 200.45C118.199 203.4 127.499 208.85 140.549 210.75C140.849 210.8 141.149 210.85 141.399 210.85Z" fill="#1851AD"/>
<path d="M178.151 38.55C185.151 42.35 191.201 46.9 196.301 52.15C196.251 52.2 196.201 52.2 196.151 52.25C190.951 52.95 185.951 53.1 181.301 52.75C167.851 51.65 155.101 45.95 142.751 40.5C139.151 38.9 135.451 37.25 131.851 35.8C131.001 35.45 130.151 35.15 129.301 34.85C144.301 30.4 178.051 38.7 178.051 38.7C178.101 38.55 178.151 38.55 178.151 38.55Z" fill="#2C75CE"/>
<path d="M196.6 51.9001C191.55 46.6501 185.5 42.1 178.5 38.3C193 28.05 193.2 8.55005 193.2 8.55005L193.5 8.65005C197.9 10.7 202.55 13.3 207.05 16.65C207.1 18.35 207.5 43.4001 196.6 51.9001Z" fill="#2C75CE"/>
<path d="M195.999 175.8L196.199 175.6C195.849 176.45 195.399 177.1 194.799 177.45C194.249 177.75 194.049 177.8 194.099 177.7C194.199 177.5 194.899 176.8 195.999 175.8ZM198.999 138.35C198.249 143.3 198.399 148.65 198.549 153.7C198.649 156.85 198.749 159.85 198.599 162.45C199.849 167.95 198.399 172.45 196.299 175.3C198.049 172.9 197.499 167.85 197.249 165.15C196.949 161.8 196.849 153.05 196.199 149.8C194.299 139.85 193.399 133 195.549 123.2C199.199 119.5 201.899 118.55 204.149 117.7C204.149 120.4 204.299 123.3 204.449 126.2C201.399 129.25 199.849 133.35 199.099 137.8C199.049 138.15 198.999 138.3 198.999 138.35Z" fill="#1851AD"/>
<path d="M209.051 186.35C206.101 193.05 208.851 197.15 213.401 199C212.301 199.25 211.201 199.25 210.151 199.05C207.651 198.55 205.601 197.1 204.451 195.15C203.501 193.45 203.301 191.55 203.951 189.8C204.901 187.25 205.651 184.85 206.201 182.85C208.251 175.3 208.801 169.65 208.651 163.85C209.051 163.45 211.301 161.25 214.451 160.5V160.45L214.651 160C214.651 160 214.651 160.15 214.601 160.4C214.501 162.85 213.351 176.55 209.051 186.35Z" fill="#2C75CE"/>
<path d="M212.801 193.5C212.801 193.5 207.951 192.1 214.851 187.65C214.851 187.75 214.901 187.85 214.951 188C215.551 187.8 216.351 187.65 217.151 188C217.651 188.2 218.051 188.55 218.401 189.05C215.851 189.9 212.251 191.5 212.801 193.5Z" fill="#2C75CE"/>
<path d="M180.75 193.2C179.25 191.35 176.25 192.4 174.3 192.5C171.85 192.65 169.3 192.4 167.15 191.15C166.55 190.8 166.05 190.4 165.65 189.85C164.9 188.9 164.4 187.8 164.05 186.65C163.2 184.1 163.3 181.3 163.9 178.7C164.2 177.35 164.65 175.9 165.45 174.75C164.7 175.8 163.85 176.75 163.2 177.85C162.5 179.05 162.2 180.4 162 181.75C161.9 182.7 161.7 183.6 161.8 184.55C161.9 185.35 162.15 186.15 162.3 186.95C162.45 187.6 162.4 188.25 162.5 188.85C162.7 189.8 163.25 190.9 163.65 191.75C164.8 194.1 166.6 195.65 168.85 196.85C169.65 197.25 170.45 197.55 171.35 197.8C173.05 198.25 174.4 198.35 176.15 197.95C177.05 197.75 178.05 197.35 178.85 196.9C180.15 196.15 181.95 194.65 180.75 193.2ZM98.0996 161.6C104.45 150 102.9 120.2 102.45 113.6C103.05 115.5 103.55 118.05 103.85 121.25C104.45 127.35 105.05 134.5 104.85 140.95C104.5 151.1 102.3 157.9 98.0996 161.6Z" fill="#1851AD"/>
<path d="M135.651 150.55C126.901 148.75 113.051 144.45 105.201 141.25C104.851 151.95 102.351 159 97.5508 162.55V162.6C97.5508 162.6 105.951 157.75 107.601 145.15C107.551 145.15 121.101 149.6 135.651 150.55Z" fill="#1851AD"/>
<path d="M72.0497 137.5C69.3997 139.9 67.5997 141.1 67.0997 141.4C66.2497 140.05 65.6997 138.55 65.1497 136.8C62.9497 129.6 63.3497 121.15 63.3997 119.95C63.7497 119.9 64.1497 119.85 64.4997 119.75C64.5497 119.75 64.5997 119.7 64.6497 119.65C64.6997 120.85 65.1497 131.1 72.0497 137.5Z" fill="#2C75CE"/>
<path d="M92.5008 142.1C92.3008 145.3 92.1508 148.45 92.2008 151.5C76.0508 148.75 70.1508 146 67.3008 141.7C67.8008 141.4 69.6008 140.15 72.3008 137.75C76.4508 141.45 82.7508 143.75 92.5008 142.1Z" fill="#6D7D90"/>
<path d="M84.601 121.85C78.501 117.85 79.051 109.5 79.151 108.5C79.101 110 79.401 111.6 80.201 113.45C81.201 115.8 82.801 117.4 85.001 118.2H85.051C85.101 118.5 85.401 119.65 84.601 121.85Z" fill="#76B3FF"/>
<path d="M96.2504 117.3C95.7504 119.5 95.3004 121.7 94.9004 123.9C90.4504 124.25 87.2504 123.45 84.9004 122.05C85.6004 120.1 85.5504 118.9 85.4004 118.35C86.5004 118.7 87.6504 118.85 88.8004 118.85C92.1504 118.9 95.2504 117.75 96.2504 117.3Z" fill="#DBEAFE"/>
<path d="M63.0493 86.4C63.0493 86.4 52.8993 79.45 46.5493 88.65C47.0493 87.15 47.8993 85.8 49.0993 84.7C51.5993 82.35 55.1993 81.4 58.4993 82.2C61.1493 82.85 62.5493 84.6 63.0493 86.4ZM78.3493 86.1C77.9993 86 67.6493 82.35 63.5993 89.05C63.5993 88.95 63.6493 88.8 63.6493 88.7C63.8493 88 64.0993 87.25 64.5493 86.6C65.9493 84.35 69.1493 83.2 72.6493 83.6C74.6993 83.85 76.5993 84.6 78.1493 85.75C78.1993 85.85 78.2993 86 78.3493 86.1ZM32.9993 96.65C31.8993 95.15 30.9493 93.55 30.2493 91.85C29.2493 89.4 29.2493 87.65 30.2993 86.85C31.2993 86.05 33.2493 86.2 35.3493 87.1C33.2993 86.85 27.8493 87 32.9993 96.65ZM41.3493 117C34.7493 114.95 29.0493 112.35 26.4993 110.6C24.4993 109.25 23.6493 108 23.9493 106.95C24.1993 106.05 25.3493 105.35 27.0993 105C25.8993 105.95 22.0493 110.35 41.3493 117Z" fill="#76B3FF"/>
<path d="M52.3008 107.9C52.3008 107.9 62.6508 108.45 60.5508 116.2C60.6008 116.1 61.2508 115.85 61.3508 115.8C61.6508 115.6 61.9508 115.4 62.2008 115.15C63.0508 114.25 63.7508 112.8 63.5508 111.55C63.4008 110.4 62.6508 109.4 61.6508 108.85C61.1008 108.55 60.4508 108.25 59.8008 108.1C58.5008 107.8 57.1508 107.6 55.8008 107.55C55.0508 107.55 54.3508 107.55 53.6008 107.6C53.3008 107.65 53.0008 107.65 52.7008 107.75C52.6008 107.75 52.4008 107.9 52.3008 107.9ZM68.5008 108.4C68.4508 108.35 68.2008 108.3 67.9508 108.25H67.9008C55.5008 104.85 55.3008 95.85 55.5008 93.3C55.7008 93.3 55.8008 93.3 55.8508 93.25L55.7508 93.35C55.9508 93.4 56.1508 93.4 56.3508 93.45C56.4508 94.25 57.0008 98.7 60.1008 101.35C61.6508 102.7 63.6508 103.35 66.0008 103.35C66.3508 103.35 66.7508 103.35 67.1008 103.3V103.85L67.2508 103.65C67.3508 105.1 67.6508 107.15 68.5008 108.4Z" fill="#2C75CE"/>
<path d="M163.049 228.8C162.499 235.8 161.799 245.1 162.149 252.3C160.399 251.75 158.799 251.15 157.449 250.4L158.349 239.9L158.899 229.3C158.899 229.3 160.399 229 163.049 228.8Z" fill="#DBEAFE"/>
<path d="M172.05 209.75C170.7 210.75 169.2 211.65 167.75 212.55C166.55 213.3 165.25 214.05 164.4 215.25C163.3 216.9 163.55 218.95 163.5 220.8C163.45 221.6 163.45 222.35 163.4 223.15C163.35 223.7 163.2 228.7 163 228.7C162.75 228.75 162.45 228.75 162.1 228.85C162 228.8 158.9 229.15 158.85 229.15C159 224.7 159.3 217.45 159.2 212.4C159.4 212.4 159.8 212.35 160.25 212.35L160.05 212.15C163.15 211.9 168.25 211.35 172.05 209.75Z" fill="#60A5FA"/>
<path d="M108.1 221.25C106.4 227.45 104.4 233.7 102.25 238.2C98.25 239 88.1 241.2 83.75 243.95C85.65 242.2 91.15 237.95 100.45 236.05L106.1 220.8C106.3 220.85 106.45 220.8 106.5 220.65C107 220.85 107.55 221.05 108.1 221.25Z" fill="#DBEAFE"/>
<path d="M113.05 199.75C112.55 207.45 110.6 212.1 108.15 221.1C107.6 220.9 107.05 220.7 106.55 220.55C106.55 220.4 106.5 220.25 106.35 220.15C107 218.3 110.75 207.1 111.35 198.75C111.7 198.95 112.1 199.2 112.5 199.4H112.55C112.7 199.5 112.85 199.6 113.05 199.75Z" fill="#60A5FA"/>
<path d="M198.801 6.6501C195.701 6.95011 196.001 7.50011 194.901 9.10011C194.101 8.80011 194.101 8.85011 193.251 8.60011C193.701 7.25011 194.251 6.4001 195.801 6.1001C196.201 6.0001 197.151 6.20011 198.801 6.6501ZM137.601 26.2001C132.101 26.8001 113.051 29.3001 104.651 32.5001C102.001 33.1001 99.6508 33.9001 97.7008 34.8001C97.6508 34.8001 97.6008 34.8501 97.5508 34.8501C100.901 31.4001 110.051 27.2501 133.801 25.7501C135.051 25.9001 136.351 26.0501 137.601 26.2001ZM182.401 4.3501C182.401 4.3501 154.051 0.250105 150.801 6.05011C150.801 6.05011 142.051 17.0001 139.451 26.0501C139.451 26.0501 139.351 26.0501 139.101 26.1001C137.451 25.8501 135.801 25.6501 134.101 25.4501C135.401 23.2001 145.851 5.4001 150.601 2.1001C153.201 0.300105 162.901 -0.0998954 174.551 2.3501C176.751 2.8001 179.401 3.4501 182.401 4.3501Z" fill="#76B3FF"/>
<path d="M96.6993 162.65C95.7493 163.3 94.6993 163.8 93.5493 164.15C92.9493 160.15 92.6493 156 92.5993 151.75V151.7C92.4493 140.55 94.0993 128.75 96.6993 117.1C96.6993 117.05 96.7493 117.05 96.6993 117C97.2493 114.55 97.8493 112.05 98.4993 109.6C99.0993 109.5 99.6993 109.6 100.249 110C100.549 110.25 100.849 110.55 101.149 110.95C96.3493 127.65 94.4493 146.9 96.6993 162.65Z" fill="#60A5FA"/>
<path d="M98.5996 109.2C102.6 93.9501 108.05 79.2501 113.25 66.8501C112.35 70.8001 108.75 85.6001 101.55 109.55C101.45 109.85 101.35 110.2 101.3 110.5C101.05 110.15 100.75 109.9 100.5 109.7C99.8996 109.25 99.2996 109.1 98.5996 109.2Z" fill="#DBEAFE"/>
<path d="M112.35 199.25V199C108.2 195.75 104.65 191.9 101.8 187.5C97.4996 180.8 94.8996 173 93.5996 164.6C94.7496 164.25 95.7996 163.75 96.7496 163.15C97.8996 170.95 100.1 177.85 103.45 183.2C103.45 183.2 107.95 195.4 128.4 207.7C128.45 207.75 128.55 207.75 128.6 207.8C120.15 204.85 114.5 200.9 112.35 199.25Z" fill="#60A5FA"/>
<path d="M96.35 153.55C95 153.75 94 154.95 94 156.35C94 157.75 95 158.95 96.35 159.15C97.9 159.35 99.35 158.1 99.35 156.35C99.35 154.55 97.95 153.35 96.35 153.55ZM95.95 157.4C95.8 157.6 95.5 157.55 95.35 157.35C95.2 157.15 95.2 156.85 95.35 156.7C95.5 156.5 95.8 156.5 95.95 156.7C96.15 156.9 96.15 157.25 95.95 157.4ZM95.95 155.9C95.8 156.1 95.5 156.1 95.35 155.9C95.2 155.7 95.2 155.45 95.35 155.25C95.5 155.05 95.8 155.05 95.95 155.2C96.15 155.4 96.15 155.7 95.95 155.9ZM97.5 157.5C97.3 157.7 97 157.65 96.8 157.45C96.6 157.25 96.6 156.95 96.8 156.75C97 156.55 97.3 156.55 97.5 156.75C97.7 156.95 97.7 157.3 97.5 157.5ZM97.5 155.85C97.3 156.05 97 156.05 96.8 155.85C96.6 155.65 96.6 155.35 96.8 155.15C97 154.95 97.3 154.9 97.5 155.1C97.7 155.35 97.7 155.65 97.5 155.85Z" fill="#0D3D8C"/>
<path d="M192.85 178.55C190.6 179.8 188.15 180 186.05 178.95C183.75 177.85 179.9 174.3 179.9 163.25C180.25 159.45 180.8 155.8 181.5 152.35C182.5 147.4 183.75 143.15 185.15 139.5C182 152.8 177.85 178.45 192.85 178.55ZM137.4 171.85C132.8 172.3 124.4 171.75 118.4 171C111.3 170.1 114.6 186.3 115.25 189.3C110.75 182.75 110.95 176.75 112.05 172.65C113.35 165.9 114.7 166.85 114.7 166.85L137.4 171.85Z" fill="#60A5FA"/>
<path d="M192.45 256H191.9C190.8 256 165.25 255.95 157.2 250.7L157 250.55L157.05 250.3C157.05 250.15 159.1 232.75 158.7 212.55C131.1 212.35 111.8 204.05 101.35 187.75C79.0499 152.95 101.8 90.4 117.3 56.2C122.6 44.55 126.85 36.6 128.05 34.45C128.15 34.25 128.4 34.2 128.55 34.3C128.75 34.4 128.8 34.65 128.7 34.8C127.85 36.35 123.4 44.6 118 56.5C102.5 90.55 79.8499 152.85 102 187.35C112.35 203.5 131.55 211.7 159.1 211.8H159.45V212.15C159.85 231.3 158.1 248 157.85 250.15C165.25 254.75 187.5 255.15 191.35 255.2C188.75 249.75 178.55 244.55 178.45 244.5L178.1 244.35L179.2 242.1C186.5 227.5 201.7 197.15 205.6 182.6C209.15 169.4 208.25 161.9 206.7 149.4C206.55 148.1 206.35 146.75 206.2 145.35L206.1 144.7C204.9 134.7 203.25 121 204.15 111.45C205.1 101.45 207.1 94.45 208.85 88.25C209.65 85.35 210.45 82.65 211 80V79.95L211.15 79.3C211.2 79.1 211.35 79 211.5 79C211.7 79 211.85 79.15 211.85 79.35V79.45L211.7 80.1C211.15 82.75 210.4 85.5 209.55 88.45C207.8 94.65 205.8 101.65 204.85 111.55C203.95 121.05 205.6 134.7 206.8 144.65L206.9 145.3C207.05 146.7 207.25 148.05 207.4 149.35C208.9 161.5 209.9 169.5 206.3 182.8C202.35 197.4 187.15 227.8 179.85 242.45L179.05 244.05C180.95 245.05 190.1 250.15 192.2 255.5L192.45 256Z" fill="black"/>
<path d="M211.449 80.4C211.399 80.4 211.299 80.4 211.249 80.35C211.049 80.25 210.999 80 211.099 79.85C221.599 62.25 221.899 42.4 211.899 20.8C188.349 -0.250029 155.299 -0.950028 150.749 2.19997C145.699 5.69997 134.249 25.55 134.149 25.75C134.049 25.95 133.799 26 133.649 25.9C133.449 25.8 133.399 25.55 133.499 25.4C133.949 24.6 145.149 5.19997 150.299 1.59997C155.949 -2.30003 189.699 -0.0500278 212.449 20.35L212.499 20.4L212.549 20.45C222.699 42.3 222.399 62.4 211.749 80.25C211.699 80.35 211.549 80.4 211.449 80.4Z" fill="black"/>
<path d="M196.25 52.7999C196.15 52.7999 196 52.75 195.95 52.65C195.85 52.5 195.85 52.25 196.05 52.15C207.7 43.8 206.85 16.85 206.85 16.6C206.85 16.4 207 16.2 207.2 16.2C207.4 16.2 207.6 16.3499 207.6 16.5499C207.65 17.6499 208.45 44.2 196.5 52.75C196.4 52.75 196.35 52.7999 196.25 52.7999Z" fill="black"/>
<path d="M211.25 79.7499L211.15 79.3999C209.95 73.8499 206.4 62.9499 196.3 52.3999C182.5 37.9999 161.45 29.0999 133.8 25.9499C108.5 27.5499 99.8997 32.0999 97.0997 35.6499C95.7997 37.2999 95.4497 39.1499 96.0497 41.0999C97.9997 47.3499 108.7 53.1999 117.8 55.9999C118 56.0499 118.1 56.2499 118.05 56.4499C118 56.6499 117.8 56.7499 117.6 56.6999C108.3 53.8499 97.3997 47.7999 95.3497 41.2999C94.6497 39.0999 95.0497 37.0499 96.5497 35.1499C100.75 29.8499 113.3 26.4999 133.85 25.1499H133.95C161.85 28.2999 183.05 37.2999 197 51.8499C207.25 62.5499 210.85 73.5999 212.05 79.2499L212.1 79.5499L211.25 79.7499Z" fill="black"/>
<path d="M186.35 53.5C184.6 53.5 182.95 53.45 181.3 53.3C167.75 52.2 154.95 46.5 142.55 41C138.95 39.4 135.3 37.75 131.65 36.3C130.5 35.85 129.4 35.4 128.25 35.05C114.7 30.4 102.05 31.95 96.9998 35.75C96.8498 35.85 96.5998 35.85 96.4498 35.7C96.3498 35.55 96.3498 35.3 96.4998 35.2C101.7 31.25 114.7 29.65 128.45 34.35C129.6 34.75 130.75 35.15 131.9 35.65C135.5 37.15 139.2 38.8 142.8 40.35C155.15 45.85 167.9 51.5 181.3 52.6C185.95 53 190.9 52.8 196.15 52.1C196.35 52.05 196.55 52.2 196.55 52.4C196.6 52.6 196.45 52.8 196.25 52.8C192.9 53.25 189.55 53.5 186.35 53.5ZM93.3998 164.8C93.2498 164.8 93.0999 164.7 93.0499 164.55C92.9999 164.35 93.0999 164.15 93.2999 164.1C100.55 161.9 104.25 154.35 104.65 141C104.85 134.55 104.25 127.4 103.65 121.3C102.9 113.6 101.35 111 100.15 110.15C99.6498 109.8 99.0498 109.65 98.4498 109.8C98.2498 109.85 98.0498 109.7 97.9998 109.5C97.9498 109.3 98.0999 109.1 98.2999 109.05C99.1499 108.85 99.8998 109 100.6 109.5C102.5 110.85 103.75 114.8 104.4 121.2C105 127.35 105.6 134.45 105.4 141C105 154.7 101.1 162.5 93.4998 164.8H93.3998ZM188.8 180.25C187.1 180.25 185.55 179.65 184.2 178.55C177.75 173.1 179.05 161.6 180.95 152.25C186.15 126.2 198.95 119 204.2 117.15C204.4 117.1 204.6 117.2 204.7 117.4C204.75 117.6 204.65 117.8 204.45 117.9C199.3 119.75 186.8 126.75 181.7 152.45C180.65 157.85 177.8 172.15 184.7 178.05C186.7 179.75 188.85 179.75 190.35 179.45C193.15 178.85 195.9 176.65 197.2 173.9C198.65 170.85 199.2 165.9 198.5 162.65V162.55C198.65 159.9 198.55 156.95 198.45 153.8C198.15 143.95 197.8 132.75 204.45 126.15C204.6 126 204.85 126 205 126.15C205.15 126.3 205.15 126.55 205 126.7C198.55 133.1 198.9 144.1 199.2 153.8C199.3 156.95 199.4 159.9 199.25 162.55C200 166 199.45 171.05 197.9 174.25C196.5 177.2 193.6 179.55 190.55 180.2C189.95 180.2 189.35 180.25 188.8 180.25Z" fill="black"/>
<path d="M164.351 154.1C150.251 154.1 129.801 151.6 104.851 141.35C104.651 141.25 104.551 141.05 104.651 140.85C104.751 140.65 104.951 140.55 105.151 140.65C143.501 156.4 171.151 153.8 181.251 151.95C181.451 151.9 181.651 152.05 181.701 152.25C181.751 152.45 181.601 152.65 181.401 152.7C177.801 153.35 172.051 154.1 164.351 154.1ZM118.501 193.95C117.201 192.8 116.151 191.45 115.151 190C114.201 188.55 113.351 187.05 112.751 185.45C112.101 183.85 111.651 182.2 111.351 180.5C111.101 178.8 111.001 177.05 111.151 175.35C111.301 173.65 111.601 171.95 112.101 170.3L112.501 169.05L112.951 167.85C113.051 167.65 113.101 167.45 113.201 167.25C113.301 167.05 113.551 166.8 113.801 166.7C114.301 166.5 114.851 166.65 115.251 166.75C118.551 167.55 121.901 168.3 125.201 169C128.551 169.7 131.901 170.35 135.251 170.9C136.951 171.2 138.601 171.45 140.301 171.7C142.001 171.95 143.651 172.2 145.351 172.4C147.051 172.65 148.701 172.85 150.401 173C152.101 173.2 153.801 173.35 155.501 173.5C157.201 173.6 158.901 173.75 160.601 173.8C162.301 173.85 164.001 173.85 165.701 173.85H165.801C165.901 173.9 165.951 173.9 166.001 173.95C166.051 174 166.101 174.1 166.101 174.15C166.151 174.3 166.101 174.45 166.051 174.5C165.951 174.65 165.901 174.75 165.801 174.8L165.351 175.2C165.101 175.45 164.801 175.75 164.551 176.05C164.051 176.65 163.651 177.3 163.301 178C162.951 178.7 162.701 179.4 162.501 180.15C162.301 180.9 162.201 181.65 162.151 182.45C162.101 183.25 162.101 184 162.151 184.8C162.201 185.6 162.251 186.35 162.401 187.15C162.501 187.95 162.651 188.7 162.901 189.45C163.151 190.2 163.451 190.9 163.801 191.6C165.251 194.35 167.751 196.6 170.701 197.55C172.201 198.05 173.751 198.2 175.301 197.95C176.051 197.85 176.851 197.65 177.551 197.35C178.301 197.05 178.951 196.7 179.651 196.25C179.701 196.2 179.801 196.25 179.801 196.3C179.851 196.35 179.801 196.45 179.751 196.45C179.101 196.9 178.401 197.25 177.651 197.6C176.901 197.9 176.151 198.1 175.351 198.25C173.751 198.5 172.101 198.35 170.601 197.85C167.551 196.85 164.951 194.6 163.401 191.75C163.001 191.05 162.701 190.3 162.451 189.55C162.201 188.75 162.051 188 161.901 187.2C161.751 186.4 161.701 185.6 161.651 184.8C161.601 184 161.601 183.2 161.651 182.4C161.701 181.6 161.801 180.8 162.001 180C162.201 179.2 162.451 178.45 162.801 177.7C163.151 176.95 163.601 176.25 164.101 175.65C164.351 175.35 164.651 175.05 164.901 174.75L165.301 174.35C165.351 174.3 165.401 174.25 165.401 174.2V174.25C165.401 174.3 165.451 174.3 165.451 174.35C165.501 174.35 165.451 174.35 165.501 174.4H165.601C163.901 174.45 162.201 174.45 160.451 174.4C158.751 174.35 157.051 174.25 155.351 174.15C153.651 174 151.951 173.9 150.251 173.7C148.551 173.55 146.851 173.3 145.151 173.1C141.751 172.65 138.401 172.1 135.051 171.5C131.701 170.9 128.351 170.25 125.001 169.55C121.651 168.85 118.351 168.05 115.051 167.25C114.651 167.15 114.251 167.05 113.951 167.2C113.801 167.25 113.701 167.35 113.601 167.5C113.501 167.65 113.451 167.85 113.351 168.05L112.901 169.25L112.501 170.45C112.001 172.05 111.701 173.75 111.551 175.4C111.401 177.1 111.451 178.8 111.701 180.45C111.951 182.1 112.401 183.75 113.051 185.3C113.651 186.85 114.451 188.35 115.401 189.8C116.351 191.2 117.401 192.55 118.651 193.65C118.751 193.7 118.751 193.85 118.651 193.9C118.701 194 118.601 194 118.501 193.95ZM109.901 247.65C102.751 247.65 93.0509 247.15 82.6009 245.1C82.4509 245.05 82.3509 244.95 82.3009 244.85C82.2509 244.7 82.3009 244.55 82.4009 244.45C82.4509 244.4 89.7509 237.6 100.201 235.7C101.151 233.45 109.951 211.9 111.001 198.4C111.001 198.2 111.201 198.05 111.401 198.05C111.601 198.05 111.751 198.25 111.751 198.45C110.651 212.75 100.951 235.95 100.851 236.15C100.801 236.25 100.701 236.35 100.551 236.35C91.8509 237.9 85.4009 242.85 83.5009 244.45C103.051 248.1 119.851 246.5 121.801 246.3L141.101 210.6C141.201 210.4 141.451 210.35 141.601 210.45C141.801 210.55 141.851 210.8 141.751 210.95L122.351 246.8C122.301 246.9 122.201 247 122.051 247C121.951 247.1 117.251 247.65 109.901 247.65ZM159.051 211.85H159.701C160.101 211.85 160.701 211.8 161.451 211.75C162.151 211.7 163.001 211.6 163.901 211.5C164.351 211.45 164.801 211.35 165.251 211.3C165.701 211.2 166.201 211.15 166.651 211.05C167.101 210.95 167.601 210.85 168.051 210.75C168.301 210.7 168.501 210.65 168.751 210.6C168.951 210.55 169.201 210.5 169.401 210.4C169.851 210.3 170.251 210.15 170.651 210.05C171.051 209.95 171.451 209.85 171.751 209.7C173.101 209.2 174.001 208.9 174.001 208.9C174.051 208.9 174.101 208.9 174.101 208.95C174.101 209 174.101 209.05 174.051 209.05C174.051 209.05 173.151 209.4 171.801 209.95C171.451 210.1 171.101 210.2 170.701 210.35C170.301 210.45 169.901 210.6 169.451 210.75C169.251 210.8 169.001 210.9 168.801 210.95C168.551 211 168.351 211.05 168.101 211.1C167.651 211.2 167.151 211.35 166.701 211.45C166.251 211.6 165.751 211.65 165.301 211.75C164.851 211.85 164.351 211.95 163.951 212C163.051 212.15 162.201 212.3 161.501 212.35C160.801 212.45 160.151 212.5 159.751 212.55C159.301 212.6 159.101 212.6 159.101 212.6C158.901 212.6 158.701 212.45 158.701 212.25C158.651 212 158.851 211.85 159.051 211.85ZM229.001 179.8C228.801 179.8 228.651 179.65 228.651 179.45C227.601 170.5 221.251 160.35 216.701 160.35C212.601 160.35 209.451 163.25 208.851 163.85C208.901 165.15 208.751 167.9 207.201 169.35C206.451 170.05 205.451 170.35 204.251 170.25C200.051 169.85 198.701 164 198.651 163.75C198.601 163.55 198.751 163.35 198.951 163.3C199.151 163.25 199.351 163.4 199.401 163.6C199.401 163.65 200.651 169.15 204.301 169.5C205.301 169.6 206.051 169.35 206.651 168.8C208.101 167.45 208.101 164.55 208.051 163.7V163.55L208.151 163.45C208.301 163.3 211.751 159.6 216.651 159.6C221.601 159.6 228.251 169.95 229.351 179.4C229.401 179.55 229.251 179.75 229.001 179.8Z" fill="black"/>
<path d="M205.15 131.6C205.55 131.7 205.9 131.8 206.3 131.95L207.4 132.45C208.1 132.85 208.85 133.2 209.5 133.65C210.85 134.5 212.15 135.5 213.4 136.5L215.2 138.1L216.95 139.75L218.6 141.5L220.2 143.3C221.25 144.55 222.25 145.75 223.2 147.05L223.9 148L224.55 149C225 149.65 225.45 150.3 225.85 151L227.1 153.05L228.2 155.2C228.6 155.9 228.9 156.65 229.25 157.35L229.75 158.45C229.9 158.85 230.05 159.2 230.2 159.55L230.65 160.65L231.05 161.8C231.35 162.55 231.55 163.35 231.75 164.1C232.15 165.65 232.5 167.25 232.6 168.85C232.7 170.45 232.65 172.1 232.3 173.7C231.95 175.3 231.3 176.85 230.35 178.2C229.4 179.55 228.2 180.65 226.85 181.6L226.35 181.95L226.1 182.15L225.85 182.3L224.8 182.9C224.1 183.25 223.35 183.65 222.65 184C221.2 184.7 219.75 185.35 218.35 186.05C216.9 186.75 215.55 187.55 214.3 188.45L214.25 188.5C214.3 188.5 214.3 188.45 214.35 188.45L214.3 188.5L213.6 189.05L212.95 189.65L212.65 189.95C212.55 190.05 212.45 190.15 212.35 190.3L212.1 190.65C212 190.75 211.95 190.9 211.9 191L211.8 191.2L211.75 191.4L211.7 191.6V191.8C211.65 191.9 211.7 192.05 211.7 192.15C211.7 192.2 211.75 192.25 211.75 192.3C211.75 192.35 211.8 192.4 211.8 192.45C211.85 192.55 211.95 192.65 212 192.7C212.1 192.8 212.2 192.85 212.3 192.95C212.4 193 212.55 193.1 212.65 193.15C212.75 193.2 212.9 193.25 213 193.3C213.2 193.35 213.3 193.55 213.25 193.75C213.2 193.95 213 194.05 212.8 194C212.6 193.95 212.45 193.9 212.3 193.85C212.15 193.8 212 193.7 211.85 193.6C211.7 193.5 211.55 193.4 211.45 193.3C211.3 193.15 211.2 193.05 211.1 192.85C211.05 192.75 211 192.7 211 192.6C210.95 192.5 210.95 192.4 210.9 192.3C210.9 192.1 210.85 191.9 210.9 191.75L210.95 191.5L211.05 191.25L211.15 191L211.25 190.8C211.35 190.65 211.4 190.5 211.5 190.4L211.8 190C211.9 189.85 212 189.75 212.1 189.65L212.45 189.3L213.15 188.7L213.9 188.1L213.85 188.15C213.9 188.1 213.95 188.1 213.95 188.05L213.9 188.1C215.25 187.15 216.65 186.35 218.1 185.65C219.55 184.95 221 184.3 222.45 183.6C223.2 183.25 223.85 182.9 224.55 182.55L225.6 181.95L225.85 181.8L226.1 181.65L226.6 181.3C227.85 180.4 229.05 179.35 229.95 178.05C230.85 176.8 231.45 175.35 231.8 173.8C232.15 172.3 232.2 170.7 232.1 169.15C232 167.6 231.7 166.05 231.3 164.5C231.1 163.75 230.9 162.95 230.6 162.25L230.2 161.15L229.75 160.05C229.6 159.7 229.45 159.3 229.3 158.95L228.8 157.85C228.45 157.15 228.15 156.4 227.8 155.7L226.7 153.6L225.5 151.55C225.1 150.85 224.65 150.2 224.2 149.55L223.55 148.55L222.85 147.6C221.95 146.3 220.9 145.05 219.9 143.85L218.3 142.05L216.65 140.35L214.95 138.7L213.15 137.1C212.55 136.6 211.95 136.1 211.3 135.6C210.65 135.15 210.05 134.65 209.35 134.2C208.7 133.75 208 133.35 207.35 132.95L206.3 132.4C205.95 132.25 205.55 132.1 205.2 131.95C205.15 131.95 205.15 131.9 205.15 131.85C205.05 131.6 205.1 131.6 205.15 131.6ZM199.2 138.75H199.15C198.95 138.7 198.8 138.55 198.85 138.35C198.85 138.35 198.85 138.2 198.95 137.9C199 137.7 199.2 137.55 199.4 137.6C199.6 137.65 199.75 137.85 199.7 138.05C199.65 138.3 199.65 138.5 199.65 138.5C199.55 138.6 199.4 138.75 199.2 138.75Z" fill="black"/>
<path d="M213.949 188.05C213.949 188.05 213.999 188.05 214.049 188C214.099 187.95 214.199 187.9 214.299 187.85C214.549 187.75 214.899 187.6 215.399 187.5C215.899 187.4 216.499 187.35 217.199 187.6C217.899 187.85 218.499 188.4 218.949 189.15C219.149 189.55 219.349 189.95 219.449 190.35C219.499 190.45 219.499 190.55 219.549 190.7C219.549 190.75 219.599 190.8 219.599 190.9L219.649 191.05C219.699 191.25 219.749 191.5 219.749 191.75C219.849 192.75 219.749 193.8 219.349 194.75C218.949 195.75 218.299 196.65 217.449 197.4C216.649 198.15 215.649 198.75 214.599 199.15C213.549 199.55 212.399 199.75 211.299 199.7C210.999 199.7 210.749 199.65 210.449 199.6L210.049 199.55C209.899 199.5 209.799 199.5 209.649 199.45C209.149 199.35 208.599 199.15 208.099 198.95C206.149 198.15 204.649 196.65 203.849 195.15C203.449 194.4 203.199 193.65 203.099 192.95C203.049 192.6 203.049 192.25 202.999 191.95C202.999 191.65 202.999 191.35 203.049 191.1C203.099 190.85 203.099 190.65 203.149 190.45C203.199 190.25 203.249 190.1 203.249 189.95C203.299 189.7 203.349 189.55 203.349 189.55C203.399 189.35 203.599 189.25 203.799 189.3C203.999 189.35 204.099 189.55 204.049 189.75V189.8C204.049 189.8 203.999 189.9 203.949 190.15C203.899 190.25 203.849 190.4 203.849 190.6C203.799 190.75 203.799 190.95 203.749 191.2C203.699 191.4 203.749 191.65 203.699 191.95C203.699 192.2 203.749 192.5 203.749 192.85C203.849 193.45 204.049 194.15 204.399 194.85C205.099 196.25 206.499 197.6 208.299 198.4C208.749 198.6 209.199 198.75 209.749 198.9L210.099 199L210.499 199.05C210.749 199.1 210.999 199.15 211.249 199.15C212.299 199.2 213.349 199.05 214.349 198.7C215.349 198.35 216.249 197.8 217.049 197.1C217.849 196.4 218.449 195.6 218.799 194.65C219.199 193.75 219.299 192.8 219.199 191.9C219.149 191.65 219.099 191.45 219.099 191.2L219.049 191.05C219.049 191.05 218.999 190.95 218.999 190.9C218.949 190.8 218.949 190.7 218.899 190.6C218.799 190.2 218.599 189.8 218.449 189.45C218.099 188.75 217.549 188.25 216.949 188.05C216.349 187.85 215.799 187.85 215.349 187.95C214.899 188.05 214.549 188.15 214.349 188.25C214.249 188.3 214.149 188.35 214.099 188.35C214.049 188.4 213.999 188.4 213.999 188.4C213.899 188.45 213.799 188.4 213.749 188.35C213.799 188.2 213.849 188.1 213.949 188.05ZM96.6992 117.35C96.6992 117.35 96.3992 117.5 95.8492 117.7C95.2992 117.9 94.4492 118.2 93.3492 118.5C92.2492 118.75 90.8992 119.05 89.2992 119.1C87.7492 119.15 85.8992 118.95 84.0992 118.05C83.1992 117.6 82.3492 116.95 81.6492 116.15C80.9492 115.35 80.3992 114.4 79.9492 113.35L79.6492 112.6C79.5492 112.35 79.4492 112.05 79.3992 111.8C79.2492 111.25 79.1492 110.65 79.0492 110.1C78.8992 108.95 78.9492 107.7 79.2492 106.5C79.7492 104.1 80.9992 101.9 81.8492 99.6001C82.2992 98.4501 82.5992 97.2501 82.6992 96.0001C82.7992 94.8001 82.6492 93.5501 82.3492 92.3501C82.2492 92.0501 82.1492 91.7501 82.0992 91.4501L81.7492 90.5501C81.5992 90.2501 81.4992 90.0001 81.3492 89.7001C81.1992 89.4501 81.0492 89.1501 80.8992 88.9001C80.2492 87.8501 79.4492 86.9001 78.4992 86.1501C77.5492 85.4001 76.4992 84.8001 75.3492 84.3501C74.2492 83.9501 73.0492 83.7001 71.8992 83.6001C69.5992 83.4501 67.2492 84.0501 65.6492 85.4001C65.2492 85.7501 64.8992 86.1501 64.6492 86.5501C64.5492 86.7501 64.3992 87.0001 64.2992 87.2001L64.0992 87.5501L63.9992 87.9001C63.6492 88.8001 63.4992 89.8001 63.5992 90.6501C63.6492 90.8501 63.5992 91.1001 63.6992 91.3001C63.7492 91.5001 63.7992 91.7001 63.8492 91.9501C63.8992 92.1501 63.9992 92.3501 64.0992 92.5501L64.2492 92.8501L64.3992 93.1001C64.4992 93.2501 64.5992 93.4501 64.7492 93.6001C64.8992 93.7501 64.9992 93.9001 65.1492 94.0501C65.2492 94.2001 65.3992 94.3001 65.5492 94.4501C65.6992 94.5501 65.8492 94.7001 65.9992 94.8001C67.2492 95.6501 68.5492 95.9001 69.6492 96.0001C70.1992 96.1001 70.6992 96.0501 71.0992 96.0501C71.5492 96.0501 71.8992 96.0001 72.1992 96.0001C72.7992 95.9501 73.0992 95.9001 73.0992 95.9001C73.1492 95.9001 73.1992 95.9501 73.1992 96.0001C73.1992 96.0501 73.1492 96.1001 73.0992 96.1001C73.0992 96.1001 72.7992 96.1501 72.1992 96.3001C71.8992 96.3501 71.5492 96.4501 71.0992 96.4501C70.6492 96.5001 70.1492 96.5501 69.5992 96.5001C69.2992 96.4501 68.9992 96.5001 68.6992 96.4501C68.3992 96.4001 68.0492 96.3501 67.7492 96.2501C67.3992 96.1501 67.0992 96.0001 66.7492 95.9001C66.3992 95.7501 66.0492 95.5501 65.6992 95.3501C65.0492 94.9001 64.3492 94.3501 63.8992 93.5501L63.6992 93.2501L63.5492 92.9501C63.4492 92.7501 63.3492 92.5001 63.2492 92.3001C63.1992 92.0501 63.1492 91.8501 63.0492 91.6001C62.9992 91.3501 62.9992 91.1001 62.9492 90.8501C62.8992 89.8501 62.9992 88.8001 63.4492 87.8001L63.5992 87.4001L63.7992 87.0501C63.9492 86.8001 64.0492 86.6001 64.1992 86.3501C64.4992 85.9001 64.8992 85.4501 65.2992 85.1001C67.0492 83.6001 69.4992 83.0501 71.8992 83.1501C73.0992 83.2001 74.3492 83.4501 75.4992 83.9001C76.6492 84.3501 77.7992 84.9501 78.7992 85.7501C79.7992 86.5501 80.6492 87.5501 81.3492 88.6501C81.5492 88.9001 81.6492 89.2001 81.8492 89.5001C81.9992 89.8001 82.1492 90.1001 82.2492 90.4001L82.5992 91.3001C82.6992 91.6001 82.7992 91.9001 82.8992 92.2501C83.2492 93.5001 83.3492 94.8001 83.2492 96.1001C83.1492 97.4001 82.7992 98.6501 82.3992 99.8501C81.5492 102.25 80.2992 104.4 79.8492 106.65C79.3492 108.9 79.6992 111.2 80.5492 113.15C80.9492 114.1 81.4992 115 82.1492 115.75C82.7992 116.5 83.5492 117.05 84.3992 117.45C86.0492 118.25 87.7492 118.45 89.2492 118.4C90.7492 118.35 92.0492 118.1 93.0992 117.85C94.1492 117.6 94.9492 117.3 95.4992 117.1C96.0492 116.9 96.2992 116.75 96.2992 116.75C96.4992 116.65 96.6992 116.75 96.7992 116.95C96.9992 117 96.8992 117.25 96.6992 117.35Z" fill="black"/>
<path d="M51.1506 91.25C51.1506 91.25 51.7506 91.65 52.9006 92.15C53.4506 92.4 54.2006 92.65 55.0006 92.85C55.8506 93.05 56.8006 93.2 57.8506 93.2C58.4006 93.2 58.9006 93.15 59.4506 93.05C60.0006 92.95 60.5506 92.75 61.0506 92.45C62.0506 91.85 62.7006 90.7 63.0006 89.45C63.2506 88.2 63.1506 86.8 62.5506 85.6C62.0006 84.4 60.9506 83.4 59.7006 82.85C59.5506 82.75 59.4006 82.7 59.2506 82.65C59.1006 82.6 58.9506 82.55 58.7506 82.5L58.5006 82.45C58.4506 82.45 58.4006 82.4 58.4006 82.4H58.2506L57.7006 82.3L57.1506 82.2L56.6506 82.15C56.3006 82.15 56.0006 82.1 55.6506 82.15C54.3006 82.15 52.9506 82.5 51.7506 83.05C50.5506 83.6 49.5006 84.3 48.7006 85.2L48.4006 85.5C48.3006 85.6 48.2006 85.75 48.1506 85.85C48.0006 86.1 47.8006 86.3 47.6506 86.55C47.5006 86.8 47.3506 87.05 47.2506 87.25C47.2006 87.35 47.1006 87.5 47.0506 87.6C47.0006 87.7 46.9506 87.85 46.9006 87.95C46.8006 88.2 46.7006 88.45 46.6006 88.65C46.5006 88.9 46.4506 89.15 46.4006 89.35C46.3506 89.6 46.3006 89.8 46.2006 90C46.1506 90.2 46.1506 90.45 46.1006 90.65C45.9506 91.5 46.0006 92.25 46.0006 92.85C46.0006 93.45 46.1006 93.95 46.1506 94.3C46.2006 94.65 46.2006 94.8 46.2006 94.8C46.2006 94.9 46.1506 95 46.0006 95.05C45.9006 95.05 45.8006 95 45.7506 94.85C45.7506 94.85 45.7006 94.65 45.6506 94.35C45.6006 94 45.5006 93.5 45.4506 92.9C45.4506 92.25 45.3506 91.5 45.5006 90.6C45.5506 90.4 45.5506 90.15 45.6006 89.9C45.6506 89.65 45.7006 89.45 45.7506 89.2C45.8006 88.95 45.8506 88.7 45.9506 88.45L46.2506 87.7C46.3006 87.55 46.3506 87.45 46.4006 87.3C46.4506 87.15 46.5506 87.05 46.6006 86.9L47.0506 86.15C47.2006 85.9 47.4006 85.65 47.6006 85.4C47.7006 85.3 47.8006 85.15 47.9006 85.05C48.0006 84.95 48.1006 84.8 48.2506 84.7C49.1006 83.75 50.2506 82.95 51.5006 82.4C52.7506 81.8 54.2006 81.45 55.6506 81.45C56.0006 81.4 56.4006 81.45 56.7506 81.45L57.3006 81.5L57.8506 81.6L58.4006 81.7H58.5506C58.6506 81.7 58.6506 81.75 58.7006 81.75L58.9506 81.85C59.1506 81.9 59.3006 81.95 59.5006 82.05C59.7006 82.1 59.8506 82.2 60.0006 82.25C61.3506 82.9 62.5506 84 63.1506 85.4C63.7506 86.75 63.9006 88.3 63.6006 89.65C63.3006 91 62.5006 92.3 61.3506 92.95C60.8006 93.3 60.1506 93.45 59.5506 93.6C58.9506 93.7 58.4006 93.75 57.8506 93.75C56.7506 93.75 55.7506 93.55 54.9006 93.3C54.0506 93.05 53.3506 92.75 52.7506 92.5C51.6006 91.95 51.0006 91.55 51.0006 91.55C50.9506 91.5 50.9506 91.45 51.0006 91.4C51.0506 91.25 51.1506 91.2 51.1506 91.25Z" fill="black"/>
<path d="M49.0498 97.7999C49.0498 97.7999 48.5498 97.2999 47.5998 96.4999C47.1498 96.0999 46.5498 95.5999 45.8998 95.0499C45.2498 94.4999 44.4998 93.8999 43.6998 93.1999C43.2998 92.8499 42.8498 92.4999 42.4498 92.1499C41.9998 91.7999 41.5498 91.3999 41.0498 91.0499C40.0998 90.2999 39.0498 89.5499 37.9998 88.7499C36.9498 87.9999 35.7498 87.3499 34.4998 86.8999C33.8498 86.6999 33.1998 86.4999 32.5498 86.4999C31.8998 86.4499 31.1998 86.5499 30.6998 86.8499C30.1498 87.1499 29.8998 87.6999 29.7998 88.2999C29.6998 88.9499 29.7998 89.5999 29.9998 90.2499C30.1498 90.8999 30.3998 91.5499 30.6498 92.1499C30.7998 92.4499 30.9498 92.7499 31.0498 93.0999C31.1998 93.3999 31.3498 93.6999 31.4998 93.9499C31.7998 94.5499 32.1498 95.0499 32.4998 95.5999C32.8498 96.0999 33.1998 96.6499 33.5498 97.0999C34.2498 98.0999 34.9998 98.9499 35.6998 99.7499C36.3998 100.55 37.0498 101.25 37.6998 101.85C38.2998 102.45 38.8498 102.95 39.2998 103.4C40.1998 104.25 40.7498 104.65 40.7498 104.65C40.8498 104.7 40.8498 104.85 40.7998 104.9C40.7498 105 40.5998 105 40.5498 104.95C40.5498 104.95 39.9498 104.55 38.9998 103.7C38.4998 103.3 37.9498 102.8 37.2998 102.2C36.6498 101.6 35.9498 100.9 35.2498 100.15C34.5498 99.3499 33.7498 98.4999 32.9998 97.4999C32.5998 96.9999 32.2498 96.4999 31.8998 95.9499C31.6998 95.6999 31.5498 95.3999 31.3998 95.0999C31.1998 94.7999 31.0498 94.5499 30.8998 94.2499C30.7498 93.9499 30.5998 93.6499 30.3998 93.3499C30.2498 93.0499 30.0998 92.7499 29.9998 92.3999C29.6998 91.7499 29.4498 91.0999 29.2998 90.3999C29.0998 89.6999 28.9998 88.9499 29.0998 88.1999C29.1498 87.7999 29.2498 87.3999 29.4998 87.0499C29.6998 86.6999 30.0498 86.3999 30.3998 86.1999C31.0998 85.7999 31.9498 85.7499 32.6498 85.7999C33.3998 85.8499 34.0998 86.0499 34.7998 86.2499C36.1498 86.6999 37.3998 87.3999 38.4998 88.1999C39.5498 88.9999 40.5498 89.7999 41.5498 90.5499C42.0498 90.8999 42.4998 91.2999 42.8998 91.6999C43.3498 92.0999 43.7498 92.4499 44.1498 92.7999C44.9498 93.4999 45.6998 94.1499 46.2998 94.7499C46.9498 95.3499 47.4998 95.8499 47.9498 96.2499C48.8498 97.0999 49.3498 97.5999 49.3498 97.5999C49.3998 97.6499 49.3998 97.7499 49.3498 97.7999C49.1498 97.8499 49.0998 97.8499 49.0498 97.7999Z" fill="black"/>
<path d="M45.2504 105.15C45.2504 105.15 44.2004 105.1 42.3504 105.05C41.4504 105.05 40.3004 104.95 39.0504 104.95C37.7504 104.9 36.3504 104.9 34.7504 104.85H29.7004C28.8004 104.9 27.9004 105 27.0004 105.2C26.1004 105.4 25.2004 105.7 24.5504 106.3C24.2504 106.6 24.0504 106.95 24.0504 107.35C24.0504 107.75 24.2004 108.15 24.4504 108.55C24.9504 109.3 25.7504 109.95 26.5504 110.5C27.0004 110.75 27.4004 111.05 27.8504 111.3L29.2004 112.05C30.1504 112.5 31.0504 112.95 32.0004 113.4C32.9504 113.85 33.9004 114.2 34.9004 114.6C35.8504 114.95 36.8504 115.35 37.8004 115.7C39.7504 116.4 41.6504 117 43.5504 117.5C44.5004 117.75 45.4004 118 46.3504 118.2C47.2504 118.4 48.1504 118.65 49.0504 118.8C50.8004 119.15 52.5004 119.4 54.0504 119.6C54.8504 119.65 55.5504 119.75 56.3004 119.8C57.0004 119.85 57.7004 119.85 58.3004 119.85H59.2004C59.5004 119.85 59.8004 119.8 60.0504 119.8C60.6004 119.75 61.1004 119.75 61.5504 119.7C62.0004 119.7 62.4004 119.6 62.7504 119.55C63.1004 119.5 63.4004 119.45 63.6504 119.4C64.1504 119.35 64.4004 119.3 64.4004 119.3H64.4504C64.6504 119.25 64.8504 119.4 64.9004 119.6C64.9504 119.8 64.8004 120 64.6004 120.05C64.6004 120.05 64.3504 120.1 63.8504 120.15C63.6004 120.2 63.3004 120.25 62.9504 120.3C62.6004 120.35 62.2004 120.45 61.7004 120.45C61.2504 120.5 60.7004 120.5 60.1504 120.55C59.8504 120.55 59.6004 120.6 59.3004 120.6H58.3504C57.7004 120.6 57.0004 120.6 56.3004 120.55C55.6004 120.5 54.8004 120.45 54.0504 120.35C53.2504 120.25 52.4504 120.15 51.6004 120.05C50.7504 119.95 49.9004 119.75 49.0004 119.6C48.1004 119.45 47.2004 119.2 46.3004 119C45.3504 118.8 44.4504 118.55 43.5004 118.25C41.6004 117.75 39.6504 117.1 37.7004 116.4C36.7004 116.05 35.7504 115.65 34.7504 115.3C33.8004 114.9 32.8004 114.5 31.8504 114.05C30.9004 113.65 29.9504 113.15 29.0004 112.7C28.5504 112.45 28.0504 112.2 27.6004 111.95C27.1504 111.7 26.7004 111.4 26.3004 111.15C25.4004 110.55 24.6004 109.85 23.9504 108.95C23.6504 108.5 23.4004 107.95 23.4004 107.3C23.4004 106.7 23.7504 106.1 24.1504 105.75C24.5504 105.35 25.0504 105.1 25.5004 104.9C25.9504 104.7 26.4504 104.55 26.9504 104.45C27.9004 104.25 28.8504 104.15 29.7504 104.1C31.5504 104.1 33.2504 104.15 34.8504 104.2C36.4004 104.25 37.8504 104.4 39.1504 104.45C40.4504 104.5 41.5504 104.65 42.4504 104.7C43.3504 104.8 44.1004 104.85 44.5504 104.9C45.0504 104.95 45.3004 105 45.3004 105C45.3504 105 45.4004 105.05 45.4004 105.1C45.3004 105.15 45.3004 105.15 45.2504 105.15Z" fill="black"/>
<path d="M92.3998 152.1H92.3498C71.4498 148.55 67.0998 145.2 64.5998 137C62.2498 129.15 62.8498 119.95 62.8498 119.85C62.8498 119.65 63.0498 119.5 63.2498 119.5C63.4498 119.5 63.5998 119.7 63.5998 119.9C63.5998 120 62.9998 129.1 65.2998 136.8C67.5498 144.25 70.6498 147.7 92.4498 151.4C92.6498 151.45 92.7998 151.65 92.7498 151.85C92.7498 152 92.5998 152.1 92.3998 152.1Z" fill="black"/>
<path d="M67.0492 142.05C66.8992 142.05 66.7992 142 66.7492 141.85C66.6492 141.65 66.6992 141.45 66.8992 141.35C66.9492 141.3 71.8992 138.25 79.1992 129.95C86.2992 121.85 84.8992 118.25 84.8992 118.25C84.7992 118.05 84.8992 117.85 85.0992 117.75C85.2992 117.65 85.4992 117.75 85.5992 117.95C85.6492 118.1 87.2492 121.9 79.7992 130.45C72.4492 138.9 67.5492 141.9 67.3492 142C67.1992 142.05 67.0992 142.05 67.0492 142.05ZM71.0992 96.3999L70.9992 96.4999L70.6992 96.7999C70.5992 96.9499 70.4492 97.0999 70.2992 97.2999C70.1492 97.4999 69.9492 97.6999 69.7992 97.9499C69.5992 98.1999 69.4492 98.4499 69.2492 98.7999C69.0492 99.0999 68.8992 99.3999 68.6992 99.7499C68.5492 100.1 68.3492 100.45 68.2492 100.85C68.1992 101.05 68.0992 101.25 68.0492 101.4L67.8992 102C67.7992 102.4 67.7492 102.8 67.6992 103.2C67.6492 103.6 67.6992 104 67.6492 104.35C67.6492 104.55 67.6492 104.75 67.6992 104.9C67.6992 105.1 67.7492 105.25 67.7492 105.45C67.7492 105.8 67.8992 106.1 67.9492 106.4C68.0492 106.7 68.0492 107 68.1492 107.2C68.2492 107.45 68.2992 107.65 68.3992 107.8C68.5492 108.15 68.5992 108.35 68.5992 108.35C68.6492 108.45 68.5992 108.5 68.4992 108.55C68.3992 108.6 68.3492 108.55 68.2992 108.45L68.0492 107.95C67.9492 107.8 67.8492 107.6 67.7492 107.35C67.5992 107.1 67.5492 106.85 67.4492 106.55C67.3492 106.25 67.1992 105.9 67.1992 105.55C67.1492 105.35 67.1492 105.2 67.0992 105C67.0492 104.8 67.0492 104.6 67.0492 104.4C67.0492 104.2 67.0492 104 66.9992 103.8V103.15C67.0492 102.7 67.0492 102.3 67.1492 101.85C67.1992 101.65 67.2492 101.4 67.2992 101.2C67.3492 101 67.4492 100.8 67.4992 100.6C67.6492 100.2 67.8492 99.7999 67.9992 99.4499C68.1992 99.0999 68.3492 98.7499 68.5992 98.4499C68.7992 98.1499 68.9992 97.8499 69.1992 97.5999C69.5992 97.0999 69.9992 96.6999 70.2492 96.4499C70.3992 96.2999 70.4992 96.2499 70.5992 96.1499C70.6992 96.0999 70.6992 96.0499 70.6992 96.0499C70.7992 95.9999 70.9492 95.9999 70.9992 96.0999C71.1992 96.1999 71.1492 96.2999 71.0992 96.3999Z" fill="black"/>
<path d="M65.9996 103.6C63.5996 103.6 61.5996 102.9 59.9496 101.55C56.5496 98.6501 56.1996 93.7501 56.1996 93.5501C56.1996 93.3501 56.3496 93.1501 56.5496 93.1501C56.7496 93.1501 56.9496 93.3001 56.9496 93.5001C56.9496 93.5501 57.2996 98.2501 60.4496 100.95C62.1996 102.45 64.4996 103.05 67.2996 102.75C67.4996 102.7 67.6996 102.9 67.6996 103.1C67.6996 103.3 67.5496 103.5 67.3496 103.5C66.8996 103.55 66.4496 103.6 65.9996 103.6ZM52.0996 107.85C52.0996 107.85 52.9996 107.75 54.2996 107.9C54.9496 108 55.7496 108.15 56.4996 108.4C57.2996 108.65 58.0996 109.05 58.8496 109.6C59.1996 109.9 59.5496 110.2 59.8496 110.55C60.1496 110.9 60.3996 111.3 60.5496 111.7C60.6496 111.9 60.6996 112.1 60.7996 112.3L60.9496 112.9C60.9496 113.1 60.9996 113.3 60.9996 113.45V114C60.9996 114.35 60.9496 114.65 60.8996 114.9C60.8496 115.15 60.7996 115.4 60.6996 115.6C60.5496 115.95 60.4996 116.15 60.4996 116.15C60.4996 116.15 60.4996 115.95 60.5496 115.55C60.5996 115.35 60.5496 115.15 60.5996 114.85C60.5996 114.6 60.5996 114.3 60.5496 114C60.5496 113.85 60.4996 113.7 60.4996 113.5C60.4496 113.35 60.4496 113.15 60.3996 113C60.3496 112.85 60.2996 112.65 60.1996 112.5C60.0996 112.35 60.0496 112.15 59.9496 112C59.7496 111.65 59.5496 111.35 59.2996 111.05C59.0496 110.75 58.7496 110.45 58.3996 110.25C58.0996 110 57.6996 109.8 57.3496 109.6C56.9996 109.4 56.5996 109.2 56.2496 109.1C55.4996 108.8 54.7996 108.55 54.1496 108.4C52.9996 108 52.0996 107.85 52.0996 107.85ZM122.45 112.2C123.55 113.3 124.75 114.4 126 115.35C127.25 116.35 128.5 117.3 129.8 118.2C131.1 119.1 132.45 119.9 133.85 120.7C135.25 121.45 136.65 122.15 138.15 122.75L138.7 123L138.95 123.1L139.25 123.2L140.35 123.65C141.1 123.95 141.85 124.15 142.6 124.4C144.1 124.9 145.7 125.15 147.25 125.3C147.65 125.35 148.05 125.35 148.45 125.4L149.65 125.45C150.05 125.5 150.45 125.45 150.85 125.4L152.05 125.35C153.6 125.2 155.2 124.95 156.7 124.45C157.45 124.25 158.2 124 158.95 123.7C159.35 123.55 159.7 123.4 160.05 123.25C160.4 123.1 160.75 122.95 161.15 122.75C162.6 122.05 163.95 121.25 165.25 120.35C166.55 119.45 167.8 118.45 168.95 117.35C170.1 116.25 171.2 115.1 172.15 113.85C174.15 111.35 175.8 108.65 177.2 105.8C177.9 104.35 178.5 102.9 179.05 101.4C179.6 99.9001 180.05 98.3501 180.35 96.8501L181.05 97.4001L179.2 98.2001L178.25 98.6001L177.3 98.9501L175.4 99.6001L173.45 100.15C173.1 100.25 172.8 100.35 172.45 100.4L171.45 100.6C170.8 100.75 170.15 100.9 169.45 101C168.1 101.2 166.8 101.45 165.45 101.5C164.1 101.65 162.75 101.65 161.4 101.7C160.05 101.65 158.7 101.7 157.35 101.55C156 101.5 154.65 101.3 153.35 101.15L151.35 100.85C150.7 100.75 150.05 100.6 149.35 100.45C148.7 100.35 148.05 100.15 147.4 100C146.75 99.8501 146.1 99.7001 145.45 99.5001C144.8 99.3001 144.15 99.1501 143.5 98.9501L141.6 98.3001C140.35 97.8501 139.05 97.4001 137.85 96.9001C137.2 96.6501 136.6 96.4001 136 96.1001C135.4 95.8501 134.75 95.5501 134.15 95.3001C133.55 95.0001 132.95 94.7501 132.35 94.4501L130.55 93.5501C129.35 92.9501 128.2 92.2501 127.05 91.6001C125.9 90.9001 124.75 90.2001 123.65 89.4501C122.55 88.7001 121.45 87.9501 120.4 87.1001C120.35 87.0501 120.35 87.0001 120.4 86.9501C120.45 86.9001 120.5 86.9001 120.55 86.9501C121.6 87.7501 122.75 88.4501 123.85 89.1501C125 89.8501 126.15 90.5001 127.3 91.2001C128.45 91.8501 129.65 92.5001 130.85 93.0501C131.45 93.3501 132.05 93.6501 132.65 93.9001C133.25 94.2001 133.85 94.4501 134.45 94.7501C135.05 95.0001 135.65 95.3001 136.3 95.5501C136.9 95.8001 137.55 96.0501 138.15 96.3001C139.4 96.8001 140.65 97.2001 141.9 97.6501L143.8 98.2501C144.45 98.4501 145.1 98.6001 145.7 98.7501C146.35 98.9501 147 99.0501 147.65 99.2001C148.3 99.3501 148.95 99.5001 149.6 99.6001C150.25 99.7001 150.9 99.8501 151.55 99.9501L153.5 100.25C154.8 100.4 156.15 100.55 157.45 100.6C158.75 100.7 160.1 100.7 161.4 100.7C162.7 100.65 164.05 100.65 165.35 100.45C166.65 100.35 167.95 100.1 169.3 99.9001C169.95 99.8001 170.6 99.6501 171.25 99.5001L172.2 99.3001C172.5 99.2001 172.85 99.1501 173.15 99.0501L175.05 98.5001L176.9 97.8501L177.85 97.5001L178.75 97.1001L180.6 96.3501L181.5 96.0001L181.3 96.9001C180.85 98.5001 180.35 100 179.75 101.5C179.15 103 178.55 104.5 177.8 105.95C176.35 108.85 174.65 111.6 172.6 114.1C171.6 115.35 170.45 116.55 169.3 117.65C168.1 118.75 166.85 119.75 165.55 120.7C164.25 121.6 162.8 122.45 161.35 123.1C161 123.3 160.6 123.45 160.25 123.6C159.9 123.75 159.5 123.95 159.15 124.05C158.4 124.3 157.65 124.6 156.85 124.8C155.3 125.25 153.7 125.55 152.1 125.7L150.9 125.75C150.5 125.8 150.1 125.8 149.7 125.8L148.5 125.75C148.1 125.75 147.7 125.75 147.3 125.65C145.7 125.5 144.1 125.2 142.5 124.85C141.7 124.65 140.9 124.5 140.15 124.25L139 123.85L138.7 123.75L138.4 123.65L137.85 123.4C136.35 122.8 134.9 122.05 133.5 121.25C132.1 120.45 130.75 119.6 129.45 118.65C128.15 117.7 126.9 116.7 125.65 115.65C124.45 114.6 123.3 113.45 122.2 112.25C122.15 112.15 122.15 112.05 122.2 112C122.3 112.1 122.4 112.1 122.45 112.2Z" fill="black"/>
<path d="M159.7 112.1C156 112.1 151.85 111.55 147.4 110.5C136.2 107.8 126.6 102.65 126.5 102.6L126.25 102.45L128.3 92.5001C128.35 92.3001 128.55 92.1501 128.75 92.2001C128.95 92.2501 129.1 92.4501 129.05 92.6501L127.1 102.05C130.4 103.75 165.4 121.4 178.4 103C178.5 102.85 178.75 102.8 178.9 102.9C179.05 103 179.1 103.25 179 103.4C175 109.15 168.4 112.1 159.7 112.1Z" fill="black"/>
<path d="M126.401 116.3C126.251 116.3 126.101 116.2 126.051 116.1C125.951 115.9 126.051 115.7 126.251 115.6C126.301 115.6 130.201 113.8 132.001 109.7C132.651 108.2 132.801 106.95 132.401 106.05C132.001 105.15 131.251 104.85 131.251 104.85C131.051 104.8 130.951 104.55 131.001 104.35C131.051 104.15 131.301 104.05 131.501 104.1C131.551 104.1 132.551 104.5 133.101 105.7C133.601 106.8 133.451 108.25 132.701 109.95C130.801 114.35 126.751 116.15 126.551 116.25C126.501 116.3 126.451 116.3 126.401 116.3ZM149.801 126.1C146.201 126.1 142.451 125.35 138.701 123.9L138.301 123.75L138.501 123.4C140.401 119.5 144.851 117 149.901 117C154.751 117 159.151 119.4 161.151 123.15L161.351 123.5L161.001 123.65C159.951 124.15 158.851 124.55 157.751 124.9C155.151 125.7 152.501 126.1 149.801 126.1ZM139.351 123.3C145.651 125.65 151.751 125.95 157.451 124.1C158.401 123.8 159.351 123.45 160.251 123.05C158.301 119.75 154.301 117.65 149.851 117.65C145.301 117.7 141.251 119.9 139.351 123.3ZM175.101 90.1C175.101 90.1 175.301 89.9 175.701 89.45C176.051 89.05 176.551 88.4 177.101 87.55C177.651 86.7 178.201 85.55 178.651 84.2C179.101 82.85 179.401 81.25 179.401 79.5C179.401 77.75 179.151 75.85 178.451 73.95C177.751 72.05 176.651 70.2 175.151 68.6C173.651 67 171.651 65.75 169.451 65.05C167.251 64.35 164.851 64.3 162.551 64.9C160.301 65.45 158.201 66.7 156.551 68.3C154.901 69.9 153.651 71.9 152.951 74C152.201 76.1 151.951 78.25 152.051 80.25C152.151 82.25 152.651 84.15 153.401 85.75C154.151 87.35 155.051 88.7 156.001 89.8C156.951 90.85 157.951 91.65 158.801 92.25C159.651 92.8 160.401 93.2 160.901 93.4C161.151 93.5 161.351 93.6 161.501 93.65C161.651 93.7 161.701 93.75 161.701 93.75C161.801 93.8 161.901 93.95 161.851 94.05C161.801 94.15 161.651 94.25 161.551 94.2C161.551 94.2 161.501 94.15 161.351 94.1C161.201 94.05 161.001 93.95 160.751 93.85C160.251 93.6 159.451 93.25 158.601 92.65C157.701 92.05 156.701 91.25 155.701 90.15C154.701 89.05 153.751 87.65 153.001 86C152.251 84.35 151.701 82.4 151.601 80.3C151.501 78.2 151.751 76 152.501 73.85C153.251 71.7 154.501 69.65 156.251 67.95C157.951 66.25 160.151 64.95 162.501 64.35C164.851 63.75 167.401 63.8 169.701 64.5C172.001 65.2 174.101 66.55 175.651 68.15C177.251 69.8 178.401 71.75 179.151 73.7C179.851 75.65 180.151 77.7 180.151 79.5C180.151 81.35 179.851 83 179.351 84.45C178.901 85.9 178.301 87.05 177.751 87.95C177.201 88.85 176.651 89.55 176.301 89.95C175.901 90.4 175.701 90.6 175.701 90.6C175.551 90.75 175.301 90.75 175.151 90.6C175.001 90.5 174.951 90.25 175.101 90.1ZM133.001 85.55C132.801 85.55 132.651 85.4 132.651 85.2C132.651 85 132.801 84.8 133.001 84.8C136.351 84.7 139.301 82.55 140.901 79.1C143.151 74.35 141.551 68.9 137.351 66.9C135.301 65.95 133.001 65.9 130.801 66.85C128.601 67.8 126.751 69.55 125.651 71.9C124.001 75.35 124.301 79.15 126.351 81.75C126.501 81.9 126.451 82.15 126.301 82.3C126.151 82.45 125.901 82.4 125.751 82.25C123.501 79.4 123.201 75.3 124.951 71.6C126.101 69.15 128.101 67.2 130.451 66.2C132.851 65.2 135.401 65.2 137.651 66.25C142.251 68.4 144.001 74.35 141.551 79.45C139.851 83.05 136.551 85.4 133.001 85.55Z" fill="black"/>
<path d="M122.749 81.7499C122.749 81.7499 123.649 81.5999 125.049 81.6999C125.399 81.7499 125.799 81.7499 126.149 81.8499C126.549 81.8999 126.949 81.9999 127.399 82.0999C127.849 82.1999 128.249 82.3499 128.699 82.4999C129.149 82.6999 129.599 82.7999 129.999 83.0499C130.399 83.2499 130.849 83.4499 131.249 83.7499C131.449 83.8499 131.649 83.9999 131.849 84.0999C132.049 84.2499 132.199 84.3999 132.399 84.4999C132.549 84.6499 132.749 84.7499 132.899 84.8999L133.349 85.3499C133.499 85.4999 133.649 85.6499 133.749 85.7999C133.899 85.9499 133.999 86.0999 134.099 86.2499C134.299 86.5499 134.499 86.7999 134.649 87.0499C134.799 87.2999 134.899 87.4999 134.999 87.6999C135.199 88.0499 135.299 88.2499 135.299 88.2499C135.299 88.2499 135.149 88.0499 134.899 87.7499C134.799 87.5999 134.599 87.3999 134.449 87.1999L133.799 86.5499C133.599 86.2999 133.299 86.0499 132.999 85.7999C132.849 85.6499 132.699 85.5499 132.549 85.3999C132.399 85.2999 132.199 85.1499 132.049 85.0499C131.899 84.9499 131.699 84.7999 131.549 84.6999C131.349 84.5999 131.149 84.4999 130.999 84.3499C130.649 84.0999 130.199 83.8999 129.799 83.7499C129.399 83.5499 128.999 83.3999 128.549 83.1999C128.149 83.0499 127.749 82.8999 127.299 82.7999C126.899 82.6999 126.499 82.5499 126.099 82.4499C125.699 82.3499 125.349 82.2499 125.049 82.1999C124.399 82.0499 123.799 81.9499 123.399 81.8999C122.999 81.7999 122.749 81.7499 122.749 81.7499ZM159.499 95.5999C159.499 95.5999 159.699 95.2999 160.149 94.8999C160.349 94.6999 160.649 94.4499 160.949 94.1999C161.249 93.9499 161.649 93.6499 162.099 93.3499C162.549 93.0999 162.999 92.7999 163.549 92.5499C164.049 92.2499 164.649 91.9999 165.249 91.7999C165.549 91.6499 165.849 91.5999 166.199 91.4499C166.499 91.3499 166.849 91.2499 167.149 91.1499C167.799 90.9999 168.449 90.7999 169.149 90.6499C169.849 90.5499 170.499 90.3999 171.199 90.3499C171.549 90.2999 171.849 90.2999 172.199 90.2499C172.549 90.1999 172.849 90.1999 173.199 90.1999H175.049C175.649 90.2499 176.199 90.2999 176.699 90.3499C176.949 90.3499 177.199 90.3999 177.449 90.3999C177.699 90.4499 177.899 90.4999 178.099 90.4999C178.499 90.5499 178.849 90.6499 179.149 90.6999C179.749 90.7999 180.049 90.8999 180.049 90.8999L180.099 90.9499C180.099 90.9499 180.099 90.9999 180.049 90.9999C180.049 90.9999 179.699 90.9999 179.149 90.9499C178.849 90.9499 178.499 90.8999 178.099 90.8999C177.899 90.8999 177.699 90.8499 177.449 90.8499H175.099C174.499 90.8999 173.899 90.8999 173.299 90.9499C172.649 90.9499 172.049 91.0999 171.349 91.1499C170.699 91.1999 170.049 91.3499 169.349 91.4499C168.699 91.5499 168.049 91.7499 167.399 91.8999C166.749 92.0999 166.149 92.2499 165.549 92.4499C164.949 92.6499 164.399 92.8499 163.849 93.0999C163.299 93.2999 162.849 93.5999 162.399 93.7999C161.949 94.0499 161.549 94.2499 161.199 94.4999C160.849 94.6999 160.549 94.9499 160.299 95.0999C159.849 95.4499 159.599 95.6999 159.599 95.6999H159.549L159.499 95.5999ZM143.499 61.1499C143.099 61.1499 142.649 61.0499 142.099 60.7999C137.949 59.0999 130.649 59.4499 130.599 59.4499C129.149 59.4499 128.849 58.8999 128.849 58.4999C128.849 56.9999 133.949 54.2999 137.649 54.2999C138.199 54.2999 138.699 54.3499 139.149 54.4499C142.399 55.2499 144.849 58.4999 144.649 60.0999C144.649 60.7999 144.199 61.1499 143.499 61.1499ZM132.349 58.6999C134.799 58.6999 139.399 58.8999 142.399 60.1499C142.849 60.3499 143.199 60.4499 143.499 60.4499C143.899 60.4499 143.949 60.2499 143.949 60.0999C144.099 58.8999 141.949 55.9499 138.999 55.2499C138.599 55.1499 138.149 55.0999 137.649 55.0999C133.999 55.0999 129.599 57.7499 129.599 58.5499C129.599 58.5999 129.799 58.7499 130.549 58.7499C130.649 58.6999 131.299 58.6999 132.349 58.6999ZM180.299 61.4999C179.549 61.4999 178.399 60.7499 176.749 59.1999C174.649 57.2499 171.749 56.7999 169.699 56.7999C168.399 56.7999 167.499 56.9499 167.449 56.9499C167.049 57.0499 166.699 57.0999 166.399 57.0999C165.399 57.0999 165.299 56.4999 165.299 56.3499C165.299 55.0499 168.949 52.8499 172.849 52.7499H173.099C179.449 52.7499 180.899 57.3999 181.199 58.8499C181.449 59.9999 181.399 60.7499 181.049 61.1499C180.849 61.3499 180.599 61.4999 180.299 61.4999ZM169.649 56.0499C171.849 56.0499 174.949 56.4999 177.249 58.6499C179.149 60.4499 179.949 60.7499 180.299 60.7499C180.399 60.7499 180.449 60.6999 180.449 60.6999C180.499 60.5999 180.699 60.2499 180.449 58.9999C180.099 57.3499 178.699 53.4999 173.049 53.4999H172.799C169.599 53.5499 167.099 54.9999 166.299 55.8999C166.049 56.1499 165.999 56.2999 165.999 56.3499C165.999 56.3499 166.099 56.3999 166.349 56.3999C166.599 56.3999 166.899 56.3499 167.249 56.2999C167.349 56.1999 168.299 56.0499 169.649 56.0499ZM167.599 88.9499C164.549 88.9499 162.049 85.5499 162.049 81.3499C162.049 77.1499 164.549 73.7499 167.599 73.7499C170.649 73.7499 173.149 77.1499 173.149 81.3499C173.149 85.5499 170.649 88.9499 167.599 88.9499ZM167.599 74.4499C164.949 74.4499 162.799 77.5499 162.799 81.2999C162.799 85.0999 164.949 88.1499 167.599 88.1499C170.249 88.1499 172.399 85.0499 172.399 81.2999C172.399 77.5499 170.249 74.4499 167.599 74.4499ZM202.649 13.7499C202.599 13.7499 202.549 13.7499 202.499 13.6999C202.299 13.5999 202.249 13.3999 202.299 13.1999C203.349 10.9499 203.649 9.8999 200.199 7.8999C198.149 6.7499 196.749 6.1499 195.599 6.4499C194.799 6.6499 194.099 7.2499 193.549 8.2499C193.449 8.4499 193.199 8.4999 193.049 8.3999C192.849 8.2999 192.799 8.0499 192.899 7.8999C193.549 6.6999 194.399 5.9999 195.399 5.7499C196.799 5.3999 198.349 6.0499 200.549 7.2999C204.349 9.4499 204.199 10.9499 202.949 13.5499C202.899 13.6499 202.749 13.7499 202.649 13.7499ZM134.849 82.5499C134.549 82.5499 134.299 82.4999 134.049 82.3999C132.049 81.7499 131.049 78.9499 131.849 76.0999C132.499 73.6499 134.249 71.9499 136.049 71.9499C136.349 71.9499 136.599 71.9999 136.849 72.0999C138.849 72.7499 139.849 75.5499 139.049 78.3999C138.399 80.8499 136.649 82.5499 134.849 82.5499ZM135.999 72.5999C134.499 72.5999 132.949 74.1499 132.399 76.2999C131.699 78.8499 132.549 81.2999 134.199 81.8499C134.399 81.8999 134.599 81.9499 134.849 81.9499C136.349 81.9499 137.899 80.3999 138.449 78.2499C139.149 75.6999 138.299 73.2499 136.649 72.6999C136.449 72.6499 136.199 72.5999 135.999 72.5999ZM185.199 231.3H185.099C173.949 228.3 163.149 228.6 158.999 229.5C158.799 229.55 158.599 229.4 158.549 229.2C158.499 229 158.649 228.8 158.849 228.75C163.099 227.85 174.049 227.55 185.299 230.6C185.499 230.65 185.599 230.85 185.549 231.05C185.549 231.2 185.399 231.3 185.199 231.3ZM130.299 231.8C130.249 231.8 130.149 231.8 130.099 231.75C126.749 229.4 117.999 225.1 106.149 220.7C105.949 220.65 105.849 220.4 105.949 220.2C105.999 220 106.249 219.9 106.449 220C118.349 224.4 127.149 228.75 130.549 231.1C130.699 231.2 130.749 231.45 130.649 231.6C130.499 231.75 130.399 231.8 130.299 231.8Z" fill="black"/>
</g>
<defs>
<clipPath id="clip0_278_219">
<rect width="256" height="256" fill="white"/>
</clipPath>
</defs>
</svg>
