<svg width="256" height="256" viewBox="0 0 256 256" fill="none" xmlns="http://www.w3.org/2000/svg">
<g clip-path="url(#clip0_278_70)">
<g clip-path="url(#clip1_278_70)">
<path d="M79.7004 120.5C78.2004 124.95 77.1504 128.4 76.1504 131.7L77.7004 131.85L113.75 135.1V135.15L119.8 151.75H119.85V151.85C120.4 152.8 123.2 155.7 137.8 155.25C137.15 154.75 136.85 154.1 136.9 153.4C137 152.05 138.3 150.65 140.55 149.5C144.8 147.35 151.35 146 152.7 145.7L162.8 134.25H162.85C162.9 134.25 164.1 133.9 165.15 134.5C165.85 134.9 166.3 135.6 166.55 136.55V136.6L164.9 138.5L171.65 141.7V148.65C171.95 149.9 172.25 151.1 172.6 152.2C177.45 145.35 183.3 140.9 190.9 138.55C194.4 137.45 198.25 136.8 202.5 136.55C204.35 108.5 202.75 83.2499 198.2 69.0499L198.05 68.8499C197.95 68.6999 197.8 68.5999 197.7 68.4499C193.3 63.1999 188.15 58.3499 182.5 54.0499C180.35 55.6999 177.4 56.2499 174.35 56.6499C171.6 57.0499 168.65 57.2499 165.05 57.2499H164.9C163 57.2499 161.15 57.0499 159.15 56.6999C158.65 56.5999 158.1 56.4999 157.55 56.3999L158.15 56.8499C158.6 57.2499 158.95 57.7499 159.2 58.1499C159.25 58.1999 159.3 58.2499 159.3 58.2999C159.4 58.4499 159.5 58.5999 159.55 58.7499C159.65 58.9999 159.75 59.1999 159.8 59.3499C159.9 59.6499 159.95 59.9499 160.05 60.1999C160.05 60.2499 160.1 60.3499 160.1 60.3999C160.15 60.5999 160.15 60.8499 160.2 60.9999V61.4499L159.8 61.7999L159.75 61.7499C159.75 61.7499 159.5 61.5999 159.1 61.2999C159 61.1999 158.85 61.1499 158.7 61.0499L158.35 60.7999C158.1 60.6499 157.85 60.4499 157.55 60.2999L157.4 60.1999C157.25 60.0999 157.15 60.0499 157 59.9499C156.75 59.7999 156.5 59.6499 156.25 59.5499C155.8 59.3999 155.3 59.1999 154.85 58.9999C154.3 58.8499 153.8 58.6999 153.25 58.5499C153.05 58.5499 152.85 58.4999 152.65 58.4499C152.3 58.3999 151.95 58.3499 151.55 58.3499H151.45C150.95 58.2999 150.4 58.2999 149.85 58.3499C149.4 58.3499 149 58.4499 148.6 58.4999C148.5 58.4999 148.35 58.5499 148.25 58.5499C147.7 58.6999 147.2 58.7999 146.75 58.9499C146.35 59.0999 145.9 59.2499 145.45 59.4499L144.85 59.7499C144.7 59.8499 144.55 59.8999 144.4 59.9499L144.1 60.0999C143.95 60.1999 143.75 60.2999 143.65 60.3499C143.25 60.5999 143.05 60.7499 143.05 60.7499L143 60.7999L142.6 60.4499V60.4999V60.0499C142.6 59.8999 142.65 59.6999 142.7 59.4499C142.85 58.8999 143.15 58.0999 143.95 57.1999L144.55 56.5999L145.15 56.1499L145.3 56.0499C145.8 55.6999 146.4 55.3499 147.15 55.0499C147.6 54.8999 148.1 54.6999 148.65 54.5999C141.15 53.1499 134.15 51.8499 127.75 50.7499C117.1 48.8999 108.05 47.5499 100.5 46.6499C98.4504 48.7499 96.4504 51.1499 94.4504 57.6499C94.3004 58.1499 94.1004 58.6999 93.9504 59.2499C93.4504 61.0999 93.0004 63.2999 92.6004 65.8499C92.3004 67.7499 92.0004 69.8999 91.6504 72.1999C90.8504 77.8499 89.8004 84.8499 88.0504 93.4499C86.8004 99.5999 84.2504 107.15 81.6004 115.1C81.0504 116.8 80.4504 118.5 79.9004 120.2L79.7004 120.5ZM112.4 94.4999C113.2 94.5999 103.8 94.0999 108.1 94.1999C104.4 92.7999 101.85 88.7499 101.85 84.0499C101.85 78.1499 105.85 73.3999 110.75 73.3999C115.65 73.3999 119.65 78.1999 119.65 84.0499C119.7 89.1999 116.6 93.5999 112.4 94.4999ZM120.25 62.9999V63.0999C120.25 63.1999 120.2 63.3499 120.15 63.4999V63.5499C120.1 63.7499 120 63.9499 119.9 64.1999C119.85 64.3499 119.75 64.4999 119.65 64.5999C119.55 64.6999 119.5 64.7999 119.35 64.8999L119.25 64.9999C118.95 65.2999 118.6 65.5999 118.15 65.8999C117.6 66.1999 117.05 66.4999 116.55 66.6999C116.25 66.7999 115.95 66.8999 115.6 66.9999L115.45 67.0499C115.1 67.1499 114.8 67.2499 114.4 67.2999C113.55 67.4499 112.75 67.5499 111.95 67.5999H111.1C110.4 67.5999 109.9 67.5999 109.45 67.4999C108.65 67.4499 107.9 67.2499 107.2 67.0999C106.45 66.8999 105.85 66.6499 105.35 66.3999L105.15 66.2999C104.95 66.1999 104.8 66.0999 104.6 65.9999C104.35 65.8499 104.2 65.6999 104 65.5999C103.25 64.9999 102.9 64.4499 102.75 64.0499C102.65 63.8999 102.65 63.7499 102.6 63.6499V63.2999L103 63.0499H103.05L103.65 63.3499C103.8 63.3999 103.95 63.4499 104.15 63.5499C104.25 63.5999 104.35 63.5999 104.45 63.6499C104.55 63.6999 104.7 63.7499 104.85 63.7999C105.05 63.8499 105.25 63.9499 105.5 63.9999C105.85 64.0999 106.3 64.2499 106.8 64.3499C107.25 64.4499 107.7 64.5499 108.2 64.5999H108.3C108.4 64.5999 108.55 64.5999 108.65 64.6499C109.05 64.6999 109.5 64.7499 109.95 64.7499H111.7C112.05 64.7499 112.45 64.6999 112.8 64.6499C113 64.6499 113.2 64.5999 113.4 64.5999C113.9 64.4999 114.35 64.4499 114.85 64.3499H115L116.4 63.9499C116.65 63.8499 116.95 63.7499 117.2 63.6499C117.35 63.5999 117.45 63.5499 117.6 63.4999L117.7 63.4499C118.05 63.3499 118.35 63.1999 118.6 63.0999L120 62.4499L120.4 62.6999V62.7499C120.25 62.8499 120.25 62.8999 120.25 62.9999Z" fill="#8CB0DC"/>
<path d="M184.55 209.1C184.6 209.5 184.5 209.9 184.1 210.3C183.55 210.85 183.2 211.55 182.8 212.25L181.9 213.75C181.95 213.95 181.95 214.2 181.85 214.4C181.65 215 181.35 215.55 180.95 216.05C180.6 216.55 180.5 217 180.35 217.55C180.15 218.15 179.75 218.45 179.3 218.6C176.35 224.3 173.15 229.75 170.35 234.2C167.75 234.5 165 234.7 162.2 234.8C158.95 234.95 155.65 234.95 152.55 234.95C144.15 234.85 137.05 234.35 135.6 234.25H135.45L136.5 228.8C136.55 228.8 136.6 228.8 136.65 228.85C136.6 228.7 136.5 228.65 136.45 228.6C128.35 227.05 120.95 225.1 114.35 222.75C112.65 222.15 111 221.55 109.4 220.9L109.2 220.8C97.5496 216.1 88.3496 209.9 81.9496 202.45C81.9996 202.25 81.8496 202.15 81.7996 202.25C77.0996 196.7 73.7496 190.3 71.8496 183.2C72.5996 183.05 73.3496 182.85 74.0496 182.55L78.7496 193.8V193.85L94.2496 195L133.2 188.7L122.3 158.75L120 152.45C121.15 153.65 124.5 155.45 134.55 155.45C135.6 155.45 136.75 155.45 138 155.4C138.15 155.5 138.25 155.6 138.45 155.65C139.5 156.2 141.05 156.55 143 156.65L131.5 169.4L131.05 170.45L129.4 174.7L134.9 172.85L142.95 163.7C142.95 167.6 145.75 177.95 158.75 178.95C155.2 186.7 151.55 196.95 154.2 201.85C155.05 203.4 156.45 204.35 158.45 204.65C158.8 204.7 159.15 204.75 159.5 204.75C165.05 204.75 170.4 198.15 171.65 193.35C171.7 193.25 171.95 192.9 172.35 192.2C172.4 192.25 172.45 192.25 172.5 192.3H172.55C172.85 193.05 173.2 193.7 173.5 194.35C173.75 194.85 174 195.35 174.3 195.8C177 200.55 179.9 202.8 182 203.8C183.75 204.65 185.2 204.8 186.1 204.8C186.45 204.8 186.7 204.8 186.85 204.75C186 206.4 185.25 207.85 184.55 209.1Z" fill="#3B82F6"/>
<path d="M109.15 220.9L104.15 230.1C102.75 229.9 101.3 229.65 99.8996 229.3C99.1996 229.15 98.4996 228.95 97.7496 228.8C91.6496 227.15 85.8996 224.65 82.0496 222.75C80.2996 221.9 78.9496 221.15 78.0996 220.65C78.8496 216.35 80.0996 209.8 81.9496 202.55C82.2496 202.9 82.5996 203.3 82.9496 203.65C83.5996 204.4 84.2996 205.1 85.0496 205.8C85.4996 206.25 85.9496 206.65 86.4496 207.1C92.2996 212.45 99.7496 217 108.7 220.65C108.8 220.8 108.95 220.85 109.15 220.9Z" fill="#3B82F6"/>
<path d="M111.8 94.4501C116.2 93.8501 119.5 89.3501 119.5 84.0501C119.5 78.3001 115.6 73.6001 110.8 73.6001C106 73.6001 102.1 78.3001 102.1 84.0501C102.1 88.9001 104.85 93.1001 108.75 94.2501C109.65 94.2501 110.65 94.3001 111.8 94.4501Z" fill="#EFF6FF"/>
<path d="M145.35 56.2002L145.2 56.3002C145 56.4502 144.8 56.6002 144.65 56.7502C144.4 57.0002 144.2 57.1502 144.05 57.3502C143.3 58.2002 143 59.0002 142.85 59.5002C142.8 59.7002 142.75 59.9002 142.75 60.0502V60.4002L143 60.6002C143.1 60.5502 143.3 60.4002 143.6 60.2002C143.75 60.1002 143.9 60.0002 144.1 59.9502L144.4 59.8002C144.55 59.7502 144.7 59.6502 144.85 59.6002L145.45 59.3002C145.85 59.1002 146.35 58.9502 146.75 58.8002C147.2 58.6502 147.7 58.5002 148.25 58.4002C148.4 58.4002 148.5 58.3502 148.65 58.3502C149.05 58.3002 149.5 58.2002 149.95 58.2002C150.5 58.1502 151.05 58.1502 151.55 58.2002H151.65C152 58.2002 152.4 58.2502 152.75 58.3002C152.95 58.3502 153.15 58.3502 153.35 58.4002C153.85 58.5502 154.4 58.7002 154.95 58.8502C155.45 59.0502 155.95 59.2502 156.4 59.4502C156.7 59.6002 156.95 59.7502 157.2 59.8502C157.35 59.9502 157.5 60.0002 157.6 60.1002L157.75 60.2002C158.05 60.3502 158.35 60.5502 158.6 60.7002L158.95 60.9002C159.1 61.0002 159.25 61.1002 159.35 61.1502C159.65 61.3502 159.85 61.5002 159.95 61.5502L160.2 61.3502V61.0002C160.2 60.8502 160.2 60.6502 160.15 60.4502C160.15 60.4002 160.1 60.3002 160.1 60.2502C160.05 60.0002 160 59.7502 159.9 59.4502C159.85 59.3002 159.75 59.0502 159.65 58.8502C159.55 58.7002 159.5 58.5502 159.4 58.4002C159.35 58.3502 159.35 58.3002 159.3 58.2502C159 57.8502 158.7 57.4002 158.25 57.0002C158 56.7502 157.7 56.5502 157.35 56.3002C154.5 55.7002 151.75 55.2002 149.2 54.7002C148.55 54.8002 147.95 55.0502 147.35 55.2502C146.45 55.5502 145.85 55.9002 145.35 56.2002Z" fill="#4F5C72"/>
<path d="M202.6 136.7C202.45 138.8 202.3 141.05 202.05 143.4C198.1 144.1 194.7 145.95 191.65 148.9C190.5 150 189.45 151.25 188.45 152.7C186.7 155.2 185.1 158.2 183.7 161.7C183.7 161.7 183.65 161.7 183.65 161.65L183.6 161.6L183.4 161.5C181 160.2 178.55 159.15 176.2 158.45C176.2 158.45 174.4 157.45 172.75 152.5C177.4 145.9 182.95 141.55 190.1 139.1C190.3 139.05 190.5 138.95 190.7 138.9C194.25 137.7 198.2 137 202.6 136.7Z" fill="#3B82F6"/>
<path d="M206.4 175C204.15 183.35 199.65 188.8 192.55 191.7C187.65 193.7 181.45 194.55 173.75 194.3C173.4 193.65 173.1 192.95 172.75 192.2C174.6 190.55 176.15 188.85 177.4 187.05C181.15 181.85 182.75 176.25 183.4 172.05V172C184.05 167.7 183.85 164.1 183.7 162.3L183.6 161.75C183.65 161.7 183.65 161.7 183.85 161.9C185.8 163 185.85 162.85 183.95 161.75C184.05 161.45 184.2 161.15 184.35 160.85C186.5 155.75 189 151.8 191.95 148.95C194.9 146.1 198.25 144.3 202.1 143.6L201.95 145.2H202.05L201.95 145.25C202 145.4 210.15 161 206.4 175Z" fill="#8CB0DC"/>
<path d="M192.401 192C191.101 195.65 189.701 199.05 188.201 202.05L188.001 202.45C187.651 203.2 187.301 203.9 186.951 204.6C186.651 204.65 184.651 204.9 182.101 203.65C179.851 202.55 176.701 200.1 173.801 194.5C174.751 194.55 175.651 194.55 176.551 194.55C182.901 194.55 188.101 193.7 192.401 192Z" fill="#8CB0DC"/>
<path d="M100.2 46.6502C98.0005 48.9002 95.8505 51.6002 93.7005 59.2002C93.3005 59.3502 90.0005 60.6002 86.0005 60.2502C82.1505 59.9502 76.8505 58.0502 73.6505 50.7502C73.6005 50.6002 73.5505 50.4502 73.5005 50.2502C73.2005 49.2002 72.7505 47.7002 74.9005 46.6502C74.9505 46.6502 75.0005 46.6002 75.1505 46.5502C75.3505 46.4502 75.6505 46.3502 76.1005 46.2002C77.4505 45.8002 79.2505 45.6002 81.5505 45.5002C86.0005 45.3502 92.2005 45.7002 100.2 46.6502Z" fill="#93C5FD"/>
<path d="M182.4 53.9C180.3 55.5 177.4 56 174.35 56.45C171.6 56.85 168.65 57 165.1 57.05H164.95C162.45 57.05 160.05 56.7 157.25 56.15C154.4 55.55 151.65 55 149.05 54.55C129.6 50.75 113.85 48.15 101.85 46.7C93.3504 45.65 86.7004 45.2 82.0004 45.35C80.2004 45.4 78.6504 45.55 77.4004 45.75C81.4504 44.25 92.1004 40.3 102 37.1H102.05V37.05C111.3 34.05 117.6 32.45 120.75 32.25C121.55 32.05 123.05 31.95 125.1 32C129.05 32.15 135.1 32.95 142.35 34.8C144.05 35.25 145.9 35.75 147.85 36.35C156.75 39.1 168.15 43.8 179.3 51.6C180.35 52.4 181.35 53.1 182.4 53.9Z" fill="#93C5FD"/>
<path d="M152.601 95.4999C156.251 92.6499 158.401 87.9499 158.401 82.9999C158.401 74.5499 152.201 67.6499 144.601 67.6499C137.001 67.6499 130.801 74.5499 130.801 82.9999C130.801 91.4499 137.001 98.3499 144.551 98.3499C146.551 97.4499 149.351 96.2999 152.601 95.4999Z" fill="#EFF6FF"/>
<path d="M102.7 63.7C102.7 63.8 102.75 63.95 102.8 64.1C102.9 64.4 103.2 64.95 104 65.55C104.15 65.7 104.35 65.8 104.6 65.95C104.75 66.05 104.95 66.15 105.1 66.25L105.3 66.35C105.75 66.6 106.4 66.8 107.1 67C107.8 67.2 108.55 67.35 109.35 67.4C109.8 67.45 110.3 67.5 111 67.5H111.85C112.65 67.45 113.45 67.35 114.3 67.2C114.65 67.15 115 67.05 115.3 66.95L115.45 66.9C115.8 66.8 116.1 66.7 116.35 66.6C116.9 66.35 117.4 66.1 117.95 65.8C118.4 65.55 118.7 65.2 119 64.95L119.1 64.8C119.2 64.7 119.3 64.6 119.35 64.5C119.45 64.4 119.5 64.25 119.6 64.1C119.7 63.9 119.8 63.65 119.85 63.5V63.45C119.9 63.3 119.9 63.2 119.9 63.1V62.9L119.65 62.75L118.35 63.35C118.1 63.5 117.75 63.6 117.45 63.7L117.4 63.75C117.25 63.8 117.15 63.85 117 63.9C116.75 64 116.5 64.1 116.2 64.2L114.8 64.6L114.65 64.65C114.2 64.75 113.7 64.85 113.2 64.9C113 64.9 112.8 64.95 112.6 64.95C112.25 65 111.85 65.05 111.5 65.05H111.35C110.8 65.05 110.2 65.1 109.75 65.05C109.3 65.05 108.85 65 108.45 64.95C108.35 64.95 108.2 64.9 108.1 64.9H108C107.5 64.8 107.05 64.75 106.6 64.65C106.1 64.55 105.65 64.4 105.3 64.3C105.05 64.25 104.85 64.15 104.65 64.1C104.5 64.05 104.4 64 104.25 63.95C104.15 63.9 104.05 63.85 103.95 63.85C103.75 63.8 103.6 63.7 103.45 63.65C103.15 63.55 102.95 63.45 102.85 63.4L102.6 63.55V63.65C102.7 63.65 102.7 63.65 102.7 63.7Z" fill="#4F5C72"/>
<path d="M178.799 11.6001C178.149 11.0001 177.449 10.3501 176.799 9.75015C174.949 8.10015 173.049 6.55015 171.299 5.30015C170.999 5.10015 170.749 4.90015 170.449 4.70015C170.499 4.30015 170.849 2.10015 172.449 1.00015C173.299 0.450147 174.399 0.300147 175.699 0.600147C175.849 0.650147 176.049 0.700147 176.199 0.750147C177.249 1.05015 178.099 1.45015 178.749 1.95015C179.649 2.55015 180.299 3.35015 180.599 4.25015C181.399 6.20015 180.749 8.65015 178.799 11.6001Z" fill="#93C5FD"/>
<path d="M59.9492 148.7L55.3992 137.8L54.3992 135.45C54.0992 135.75 53.7992 136.1 53.4992 136.45C51.9992 139.1 50.4492 141.65 49.1992 144.4V144.45C49.0992 144.9 48.9492 145.3 48.7992 145.75C48.7992 145.9 48.7492 146.1 48.6992 146.25C47.8492 149.3 48.6992 153.2 49.6492 156.55C50.2992 157.55 50.7992 158.6 51.1492 159.75C53.0992 162.85 55.2992 164.9 55.9992 165.5C53.9992 156.5 59.6492 149.15 59.9492 148.7Z" fill="#8CB0DC"/>
<path d="M82.5996 165.8C82.5996 165.85 82.5996 165.95 82.6496 166C82.6996 165.95 82.7496 165.95 82.8496 165.9C82.8496 165.85 82.8496 165.75 82.7996 165.7L82.5996 165.8Z" fill="#EFF6FF"/>
<path d="M86.3995 163.5C82.6495 166.2 76.8495 168.35 76.7995 168.35L76.8495 168.55C76.8995 168.55 79.6495 167.55 82.5995 166C83.9495 174.2 79.3995 180.2 74.0995 182.3C73.3495 182.6 72.5495 182.85 71.7495 183C71.2495 183.1 70.7995 183.15 70.2995 183.15C68.6995 183.05 67.1495 182.6 65.6995 181.8C60.9995 179.25 57.4495 173.4 56.3495 165.75C54.1495 157.05 59.3495 149.8 60.0495 148.9L61.8995 153.25C61.9495 153.95 61.9495 154.5 61.9495 154.5V154.55C62.0495 154.75 62.3495 154.95 62.6995 155.1C66.5495 156.85 82.8495 155.7 83.5495 155.65C85.7995 155.3 87.5495 155.25 88.7495 155.5C89.7995 155.7 90.4495 156.15 90.6995 156.75C91.4995 158.7 88.5995 161.9 86.3995 163.5Z" fill="#93C5FD"/>
<path d="M133.35 188.85L136.75 198.15H136.6L94.5 195L133.35 188.85Z" fill="#3B82F6"/>
<path d="M165.05 134.7C164.15 134.15 163.1 134.4 162.9 134.45L153.1 145.5C154.85 144.55 157.95 144.25 159.75 144.15L166.35 136.55C166.1 135.7 165.7 135.05 165.05 134.7Z" fill="#13161A"/>
<path d="M62.5496 154.85L62.0996 153.8C62.0996 154.15 62.0996 154.4 62.1496 154.5C62.1996 154.65 62.3496 154.75 62.5496 154.85ZM183.65 161.85C183.6 161.85 183.6 161.9 183.6 161.9C183.65 161.9 183.65 161.85 183.65 161.85Z" fill="#EFF6FF"/>
<path d="M158.9 179.1C153.85 190.1 152.301 197.9 154.351 201.75C155.151 203.25 156.55 204.15 158.45 204.45C164.3 205.35 170.15 198.3 171.45 193.25V193.2C171.45 193.2 171.75 192.8 172.15 192.05C162.65 185.75 159.45 180.2 158.9 179.1Z" fill="#3B82F6"/>
<path d="M179.35 51.4499C171.9 46.2499 164.35 42.4499 157.5 39.6499C151.85 37.3499 146.65 35.7499 142.45 34.6499C131.4 31.7999 123.1 31.3999 120.75 32.0499C117.95 32.1999 112.65 33.5499 105 35.8999C104.1 36.1999 103.15 36.4999 102.15 36.7999C103.35 33.9499 113.8 8.84991 119.15 4.54991C122.9 1.54991 135.95 0.599909 147.85 0.699909C153.95 0.749909 159.7 1.04991 163.85 1.54991C164.25 1.59991 164.7 1.69991 165.15 1.89991C167.8 2.84991 171.7 5.49991 176.2 9.44991C176.3 9.69991 184.05 30.8499 179.35 51.4499Z" fill="#93C5FD"/>
<path d="M179.551 51.5998C180.551 52.2998 181.551 53.0498 182.651 53.8498C188.351 58.1498 193.501 63.0498 197.951 68.2998C198.051 68.4498 198.201 68.5498 198.301 68.6998C199.001 65.4498 199.651 62.7498 200.201 60.3498C201.951 52.7998 202.951 48.5998 202.501 42.9998C202.201 38.8498 195.901 29.5998 186.401 19.4498C182.951 15.7498 179.601 12.4998 176.551 9.7998C177.451 12.4998 183.951 32.2498 179.551 51.5998Z" fill="#93C5FD"/>
<path d="M79.45 120.55C79.2 121.35 78.95 122.1 78.7 122.8C77.6 126.15 76.7 128.95 75.95 131.65L62.85 130.45L59.3 130.15C65.7 124.35 76.15 121.35 79.45 120.55ZM104 230.3L103.85 230.6L96.35 244.35C95.6 244.35 87.7 244.6 78.55 243.65C76.2 243.4 73.8 243.05 71.4 242.65C66 241.7 60.7 240.2 56.65 237.95C56.6 237.95 56.55 237.9 56.5 237.85C58.1 237.05 71.3 230.75 76.7 229.3H76.75V229.25C76.75 229.2 77.15 225.95 78.05 220.9C78.9 221.4 80.25 222.1 81.95 222.95C85.85 224.85 91.6 227.4 97.75 229.05C98.45 229.25 99.1 229.4 99.8 229.55C101.2 229.85 102.6 230.1 104 230.3Z" fill="#8CB0DC"/>
<path d="M183.201 172.05C182.351 177.7 179.801 185.7 172.651 192.05C172.601 192 172.601 191.9 172.551 191.85L172.451 191.9L172.351 191.85L172.301 191.95C170.651 190.85 169.201 189.8 167.901 188.75C161.551 183.7 159.401 179.65 159.051 178.95H160.001C160.851 178.95 160.151 178.8 158.951 178.75C145.701 177.8 143.101 167.15 143.201 163.45V163.4C143.301 159.75 144.501 156.65 144.501 156.6L144.551 156.5H144.401C143.951 156.5 143.551 156.5 143.201 156.45C140.901 156.35 139.151 155.9 138.101 155.2C137.401 154.7 137.051 154.05 137.051 153.35C137.151 152.1 138.451 150.7 140.601 149.6C144.851 147.45 151.451 146.1 152.751 145.85H152.901C154.051 145.1 156.051 144.7 157.751 144.55C158.501 144.45 159.201 144.4 159.751 144.4V144.3L159.801 144.35L163.351 140.3L164.751 138.7L171.451 141.85V148.7C171.751 150.05 172.101 151.35 172.501 152.45C174.201 157.55 176.001 158.55 176.101 158.6C178.501 159.35 180.951 160.4 183.401 161.75C183.601 163.1 183.951 167.1 183.201 172.05Z" fill="#93C5FD"/>
<path d="M129.35 175.1L134.95 172.8L143 163.4C143.1 160.15 144.05 157.3 144.25 156.7C143.85 156.7 143.55 156.7 143.25 156.65L131.25 169.65L129.35 175.1Z" fill="#13161A"/>
<path d="M136.45 197.95L91.2 194.55L78.95 193.65L75.4 185.2L74.25 182.45C79.55 180.3 84.15 174.15 82.75 165.9C84.05 165.25 85.35 164.45 86.5 163.65C88.55 162.15 91.2 159.25 91 157.25C91 157.1 90.95 156.9 90.9 156.75C90.3 155.25 87.8 154.85 83.55 155.5C83.4 155.5 66.65 156.7 62.8 155L54.55 135.35C54.55 135.3 54.6 135.3 54.65 135.25L54.5 135.1L52.25 129.7L89.2 133L113.65 135.2L119.5 151.5C119.5 151.55 119.5 151.65 119.65 151.9L133.1 188.8L136.45 197.95Z" fill="#EFF6FF"/>
<path d="M173.6 255.5C171.1 255.55 166.9 255.1 162.15 254.4C159.85 254.05 157.4 253.65 154.95 253.25C152.5 252.8 150 252.35 147.6 251.95C139.85 250.5 133.35 249.15 132.5 248.95L135.4 234.35C136.2 234.4 143.6 235 152.45 235.1H154.8C157.2 235.1 159.65 235.05 162.1 234.95C164.9 234.85 167.65 234.65 170.2 234.35C166.45 240.3 163.55 244.35 163.5 244.45L163.45 244.55L163.55 244.6C169.8 247.85 173.1 254.5 173.6 255.5Z" fill="#8CB0DC"/>
<path d="M159.7 194.9C157.8 194.9 156.25 196.45 156.25 198.35C156.25 200.25 157.8 201.8 159.7 201.8C161.6 201.8 163.15 200.25 163.15 198.35C163.15 196.45 161.6 194.9 159.7 194.9ZM159.2 199.7C158.95 199.95 158.6 199.95 158.35 199.7C158.1 199.45 158.1 199.1 158.35 198.85C158.6 198.6 158.95 198.6 159.2 198.85C159.45 199.1 159.45 199.45 159.2 199.7ZM159.2 197.8C158.95 198.05 158.6 198.05 158.35 197.8C158.1 197.55 158.1 197.2 158.35 196.95C158.6 196.7 158.95 196.7 159.2 196.95C159.45 197.2 159.45 197.6 159.2 197.8ZM161.1 199.7C160.85 199.95 160.5 199.95 160.25 199.7C160 199.45 160 199.1 160.25 198.85C160.5 198.6 160.85 198.6 161.1 198.85C161.35 199.1 161.35 199.45 161.1 199.7ZM161.1 197.8C160.85 198.05 160.5 198.05 160.25 197.8C160 197.55 160 197.2 160.25 196.95C160.5 196.7 160.85 196.7 161.1 196.95C161.35 197.2 161.35 197.6 161.1 197.8Z" fill="#0D3D8C"/>
<path d="M127.651 50.7499C126.451 50.8999 124.601 50.6999 121.951 50.0999C104.751 46.0999 94.3008 57.6499 94.3008 57.6499C96.3008 51.1499 98.3008 48.7499 100.351 46.6499C107.951 47.5499 117.051 48.8999 127.651 50.7499ZM202.601 136.5C198.301 136.75 194.451 137.45 191.001 138.5H190.601C190.751 130.3 191.051 122.15 191.301 113.95C191.451 107.85 191.301 101.75 191.301 95.6499C191.301 90.7499 191.351 85.8499 190.601 80.9499C189.851 76.1499 189.501 70.9999 187.101 66.6499C183.901 60.8999 176.901 60.5999 171.201 59.4499C167.201 58.6499 163.301 57.4499 159.301 56.5999C164.101 57.6499 169.551 57.1999 174.401 56.5499C177.451 56.0999 180.401 55.5999 182.551 53.9499C188.251 58.2499 193.351 63.0999 197.751 68.3499C197.851 68.4999 198.001 68.5999 198.101 68.7499L198.251 68.9499C202.851 83.1999 204.451 108.45 202.601 136.5ZM176.551 194.55C182.901 194.55 188.151 193.7 192.401 192C191.101 195.65 189.701 199.05 188.201 202.05L188.001 202.45C187.651 203.2 187.301 203.9 186.951 204.6C186.651 204.65 184.651 204.9 182.101 203.65C179.851 202.55 176.701 200.1 173.801 194.5C174.751 194.55 175.651 194.55 176.551 194.55ZM173.601 255.5C171.101 255.55 166.901 255.1 162.151 254.4C159.751 254.05 157.401 253.7 155.051 253.25C154.751 249.45 156.101 245.75 157.851 242.45C158.301 241.6 161.301 234.95 162.101 234.9C164.901 234.8 167.651 234.6 170.201 234.3C166.451 240.25 163.551 244.3 163.501 244.4L163.451 244.5L163.551 244.55C169.801 247.85 173.101 254.5 173.601 255.5Z" fill="#6D7D90"/>
<path d="M99.8004 229.5C101.2 229.85 102.6 230.1 104 230.3L103.85 230.6C102.45 230.35 101.1 230.05 99.7504 229.65C99.8004 229.65 99.8004 229.55 99.8004 229.5ZM108.65 220.7C104.95 219.1 101.55 217.3 98.4004 215.4C97.3004 214.95 96.2504 214.4 95.2004 213.75C94.2504 213.15 93.1504 212.8 92.3004 212.05C91.8504 211.65 91.5004 211.15 91.2004 210.65C90.7004 210.3 90.2004 209.95 89.7004 209.5C88.7504 208.7 87.6504 208.1 86.6504 207.4C89.1504 211.2 92.5004 213.95 95.9004 216.9C99.7004 220.15 101.55 224.35 99.9504 229.3C101.35 229.65 102.8 229.9 104.2 230.1L109.2 220.9C108.95 220.85 108.8 220.8 108.65 220.7Z" fill="#1851AD"/>
<path d="M104.001 230.3L103.851 230.6L96.3508 244.35C95.6008 244.35 87.7008 244.6 78.5508 243.65C96.5008 243.2 98.8008 232.1 99.8008 229.55C101.201 229.85 102.601 230.1 104.001 230.3Z" fill="#6D7D90"/>
<path d="M202.599 136.7C202.449 138.8 202.299 141.05 202.049 143.4C198.099 144.1 194.699 145.95 191.649 148.9C192.349 143.15 191.149 139.8 190.699 138.85C194.249 137.7 198.199 137 202.599 136.7Z" fill="#1851AD"/>
<path d="M206.4 175C204.15 183.35 199.65 188.8 192.55 191.7C187.65 193.7 181.45 194.55 173.75 194.3C173.4 193.65 173.1 192.95 172.75 192.2C174.6 190.55 176.15 188.85 177.4 187.05C177.6 187.2 177.7 187.35 177.7 187.35C188.2 186.05 194.55 183.75 196.65 176.9C199.65 167.05 195.15 152 192.7 152.9C188.55 154.4 184.3 160.85 184.3 160.85C186.45 155.75 188.95 151.8 191.9 148.95C194.85 146.1 198.2 144.3 202.05 143.6L201.9 145.2H202L201.9 145.25C202 145.4 210.15 161 206.4 175Z" fill="#6D7D90"/>
<path d="M186.85 204.75C186.7 204.75 186.45 204.8 186.1 204.8C185.2 204.8 183.75 204.65 182 203.8C179.95 202.8 177.15 200.7 174.5 196.15L174.25 195.35C174.15 195.1 174 194.85 173.9 194.65C173.5 193.7 172.95 192.8 172.65 191.8C171.7 191.8 171.35 193.05 171 194.05C170.55 195.4 169.7 196.75 168.9 197.95C167 200.6 164.85 202.4 162.2 204.3C161.7 204.7 161.15 204.75 160.7 204.7C160.45 204.8 160.2 204.8 159.85 204.85H159.55C159.35 204.9 159.2 204.95 159 204.95C158.95 204.95 158.9 205 158.85 205C159.1 204.95 159.5 205.15 159.75 205.2C160.5 205.3 161.35 205.3 162.1 205.25C164.3 205.15 166.2 204.15 167.85 202.75C169 201.8 171.15 198.75 172.85 199.15C174.15 199.45 174.8 201.15 175.05 202.3C175.4 203.85 175.15 205.45 174.85 206.95C174.55 208.55 174.15 210.1 173.7 211.6C172.75 214.7 171.45 217.65 170.05 220.55C167.95 224.85 165.55 228.95 163.1 233.05C162.8 233.6 162.45 234.15 162.15 234.65C164.95 234.55 167.7 234.35 170.3 234.05C173 229.75 175.5 225.75 178.1 220.8C178.3 220.65 178.45 220.5 178.55 220.25C179.3 218.7 180.2 217.2 181 215.7L181.3 215.4C182.05 214.35 182.7 213.25 183.2 212.05C183.5 211.3 183.6 210.1 184.25 209.55C184.6 209.25 184.75 208.85 184.75 208.5C185.45 207.45 186.1 206.2 186.85 204.75ZM147.2 191.85C145.45 196.8 143 201.3 142.9 206.75C142.85 210.5 144.55 213.8 146.7 216.75C147.8 218.3 148.95 220.1 148.5 222.1C148.35 222.8 147.65 224.2 146.65 223.6C144.65 222.35 142.7 218.7 141.95 216.6C140.5 212.55 140.5 209.25 141.3 205.15C142.15 201 144.15 194.8 147.2 191.85Z" fill="#1851AD"/>
<path d="M157.8 144.5C158.55 144.4 159.25 144.35 159.8 144.35C158.75 144.9 158.05 144.95 157.8 144.5ZM183.2 172.05C182.35 177.7 179.8 185.7 172.65 192.05C172.6 192 172.6 191.9 172.55 191.85L172.45 191.9L172.35 191.85L172.3 191.95C170.65 190.85 169.2 189.8 167.9 188.75C161.55 183.7 159.4 179.65 159.05 178.95H160C160.85 178.95 161.75 178.9 162.7 178.85H162.9C169.3 178.15 174.9 173.4 175.25 166.75C175.45 163.25 173.5 160.85 171.65 158.1C169.35 154.7 168.6 150.7 168.8 146.5C169 142.45 166.6 141.55 163.5 140.25C163.9 139.75 164.4 139.2 164.85 138.65L171.55 141.8V148.65C171.85 150 172.2 151.3 172.6 152.4C174.3 157.5 176.1 158.5 176.2 158.55C178.6 159.3 181.05 160.35 183.5 161.7C183.6 163.1 183.95 167.1 183.2 172.05ZM86.4 163.5C82.65 166.2 79.65 167.5 82.6 166C83.95 174.2 79.4 180.2 74.1 182.3C73.35 182.6 72.55 182.85 71.75 183C71.25 183.1 70.8 183.15 70.3 183.15C68.7 183.05 64.8 182.05 63 180C67.65 181.7 79.85 175.65 75.6 167.6C75.6 167.6 81.35 164.1 81.8 163.8C84.15 162.25 86.55 160.55 88.3 158.3C88.7 157.75 89.7 156.15 88.9 155.6C89.6 155.7 90.4 156.1 90.7 156.8C91.5 158.7 88.6 161.9 86.4 163.5ZM182.4 53.9C180.3 55.5 177.4 56 174.35 56.45C171.6 56.85 168.65 57 165.1 57.05H164.95C162.45 57.05 160.05 56.7 157.25 56.15C154.4 55.55 151.65 55 149.05 54.55C129.6 50.75 113.85 48.15 101.85 46.7C113.45 40.4 132.15 37.2 147.9 36.5C156.8 39.25 168.2 43.95 179.35 51.75C180.35 52.4 181.35 53.1 182.4 53.9Z" fill="#2C75CE"/>
<path d="M179.35 51.4499C171.9 46.2499 164.35 42.4499 157.5 39.6499C164.1 20.2999 165.2 8.1499 165.15 1.8999C167.8 2.8499 171.7 5.4999 176.2 9.4499C176.3 9.6999 184.05 30.8499 179.35 51.4499Z" fill="#2C75CE"/>
<path d="M178.801 11.5999C178.151 10.9999 177.451 10.3499 176.801 9.7499C179.001 7.5499 179.001 3.7999 178.801 1.8999C179.701 2.4999 180.351 3.2999 180.651 4.1999C181.401 6.1999 180.751 8.6499 178.801 11.5999ZM179.551 51.5999C180.551 52.2999 181.551 53.0499 182.651 53.8499C188.351 58.1499 193.501 63.0499 197.951 68.2999C198.051 68.4499 198.201 68.5499 198.301 68.6999C199.001 65.4499 199.651 62.7499 200.201 60.3499C201.951 52.7999 202.951 48.5999 202.501 42.9999C202.201 38.8499 195.901 29.5999 186.401 19.4499C182.951 15.7499 179.601 12.4999 176.551 9.7999C177.451 12.4999 183.951 32.2499 179.551 51.5999Z" fill="#285CB2"/>
<path d="M110.799 73.5499C110.499 73.5499 110.249 73.5499 109.949 73.5999C114.349 74.0999 117.799 78.5999 117.799 83.9999C117.799 89.0999 114.749 93.3999 110.649 94.2999C110.999 94.3499 111.399 94.3499 111.799 94.3999C116.199 93.7999 119.499 89.2999 119.499 83.9999C119.499 78.2499 115.599 73.5499 110.799 73.5499ZM144.599 67.6499H144.249C150.849 68.8499 155.899 75.5499 155.899 83.5499C155.899 88.3499 154.049 92.8999 150.899 95.9499L152.549 95.4999C156.199 92.6499 158.349 87.9499 158.349 82.9999C158.349 74.5499 152.199 67.6499 144.599 67.6499Z" fill="#BFDBFE"/>
<path d="M112.551 73.5498C112.301 73.5498 112.051 73.5498 111.801 73.5998C116.251 74.0498 119.751 78.5498 119.751 83.9998C119.751 89.0998 116.701 93.4498 112.601 94.2998C112.901 94.3498 113.251 94.3498 113.601 94.3998C118.001 93.7998 121.301 89.2998 121.301 83.9998C121.251 78.2498 117.351 73.5498 112.551 73.5498Z" fill="#6D7D90"/>
<path d="M144.45 221.1C144.45 221.1 141.75 222 136.35 222.3C134.15 222.25 131.95 222.15 129.75 221.85C125.95 221.35 122.15 220.6 118.45 219.75C110.25 217.85 102.5 214.95 94.7004 211.85C93.2004 211.25 91.6504 210.7 90.1504 210.05C96.0004 214.95 104 219 111.85 221.9C117 223.8 122.05 225.2 126.6 226.35C127.95 226.7 129.35 227.05 130.75 227.35C132.6 227.8 134.35 228.15 135.9 228.5L135.95 228.45C136.1 228.5 136.25 228.5 136.4 228.55C136.5 228.55 136.55 228.65 136.6 228.8C136.55 228.8 136.5 228.8 136.45 228.75L135.4 234.2H135.55C136.5 233.4 140.4 229.9 147 224.1L144.45 221.1Z" fill="#1851AD"/>
<path d="M86.5508 167.2C88.1508 181.9 75.8508 185.1 75.4508 185.2L74.3008 182.45C79.6008 180.3 84.2008 174.15 82.8008 165.9C84.1008 165.25 85.4008 164.45 86.5508 163.65C88.6008 162.15 91.2508 159.25 91.0508 157.25C92.6008 161.65 86.5508 167.2 86.5508 167.2Z" fill="#DBEAFE"/>
<path d="M71.75 183.25L73.3 188C73.3 188 74.85 187.75 76.1 187.15L74.1 182.4L71.85 183.05L71.75 183.25Z" fill="#1851AD"/>
<path d="M94.4992 133.35L113.549 135.25L119.499 151.5C119.499 151.55 119.499 151.65 119.649 151.9L133.099 188.8L136.449 197.95L91.1992 194.55C91.2492 194.5 91.2492 194.45 91.2492 194.45C91.2492 194.45 135.999 191.3 94.4992 133.35Z" fill="#DBEAFE"/>
<path d="M161.2 94.0502C160.1 93.3502 158.4 93.2002 157.25 93.2002C159.6 90.4002 160.95 86.6502 160.95 82.8002C160.95 74.3502 154.75 67.4502 147.15 67.4502C146.75 67.4502 146.4 67.4502 146 67.5002C153.05 68.1502 158.65 74.7502 158.65 82.8002C158.65 87.7002 156.5 92.3502 152.95 95.2002C153.5 95.2502 154 95.3002 154.45 95.2002C154.75 95.1002 155.05 95.1002 155.3 95.1502C155.5 94.9502 155.75 94.8002 155.95 94.6002C158.15 94.2502 161.2 94.0502 161.2 94.0502Z" fill="#6D7D90"/>
<path d="M100.2 46.6502C98.0005 48.9002 95.8505 51.6002 93.7005 59.2002C93.3005 59.3502 90.0005 60.6002 86.0005 60.2502C82.1505 59.9502 76.8505 58.0502 73.6505 50.7502C73.6005 50.6002 73.5505 50.4502 73.5005 50.2502C73.2005 49.2002 72.7505 47.7002 74.9005 46.6502C74.9505 46.6502 75.0005 46.6002 75.1505 46.5502C75.3505 46.4502 75.6505 46.3502 76.1005 46.2002C77.4505 45.8002 79.2505 45.6002 81.5505 45.5002C86.0005 45.3502 92.2005 45.7002 100.2 46.6502Z" fill="#285CB2"/>
<path d="M126.499 32.1999C116.349 33.5999 89.3492 45.4999 89.3492 45.4999L83.2992 45.3498C81.4992 45.3998 79.9492 45.5499 78.6992 45.7499C82.7492 44.2499 93.3992 40.2999 103.299 37.0998H103.349V37.0499C112.599 34.0499 118.899 32.4499 122.049 32.2499C122.849 32.0499 124.349 31.9499 126.399 31.9999L126.499 32.1999ZM175.749 0.849851L176.599 0.999851C174.449 0.949851 172.749 2.19985 171.799 5.69985C171.499 5.49985 170.799 5.14985 170.499 4.94985C170.549 4.54985 170.899 2.34985 172.499 1.24985C173.349 0.649851 174.449 0.549851 175.749 0.849851ZM119.149 5.19985C114.099 9.24985 104.449 31.9499 102.449 36.7999C103.249 36.6498 104.049 36.4499 104.899 36.2999C104.999 36.2499 105.149 36.2499 105.249 36.1999C105.449 35.7499 105.649 35.0499 105.699 34.8999C105.999 34.0999 106.349 33.2999 106.649 32.5499C108.299 28.4999 109.949 24.4499 111.849 20.4499C113.299 17.3999 114.799 14.3499 116.599 11.4999C117.499 10.0999 118.349 8.59985 119.549 7.39985C120.749 6.19985 122.299 5.49985 123.849 4.84985C128.399 2.89985 134.449 2.49985 139.349 2.04985C142.199 1.79985 145.049 1.49985 147.849 1.34985C135.949 1.24985 122.899 2.19985 119.149 5.19985Z" fill="#76B3FF"/>
<path d="M79.7492 120.3C82.7992 111.15 86.1992 102.05 88.0992 92.55C89.5492 85.45 90.5992 78.25 91.6992 71.05C92.1492 68 92.5992 65 93.0992 62C93.3992 66.85 92.7492 71.65 92.2492 76.45C91.5492 83.35 90.5992 90.25 89.0492 97C87.7492 102.7 84.5492 113.4 82.7492 118.95C81.7992 121.85 80.8492 124.75 79.9492 127.65C79.4992 129.15 78.9992 130.6 78.4992 132.05L77.6992 131.8L76.1492 131.65L79.7492 120.3ZM55.3992 137.8L54.3992 135.45C54.0992 135.75 53.7992 136.1 53.4992 136.45C51.9992 139.1 50.4492 141.65 49.1992 144.4V144.45C49.0992 144.9 48.9492 145.3 48.7992 145.75C48.7992 145.9 48.7492 146.1 48.6992 146.25C47.8492 149.3 48.6992 153.2 49.6492 156.55L49.9492 157C49.4492 148.95 51.7992 142.65 55.3992 137.8Z" fill="#AACEFD"/>
<path d="M79.4508 120.55C79.2008 121.35 78.9508 122.1 78.7008 122.8L78.5008 123.1C78.5008 123.1 70.4008 124.95 62.8508 130.45L59.3008 130.15C65.7008 124.35 76.1508 121.35 79.4508 120.55Z" fill="#AACEFD"/>
<path d="M61.6004 152.4C61.6004 152.4 56.7004 157.2 59.0504 174.8C59.0504 174.8 51.3504 160.8 60.0504 148.9L61.6004 152.4ZM152.7 146.3C152.7 146.3 137.45 151.1 138.55 155.35C138.55 155.35 134.8 153.25 139.75 149.65C139.75 149.65 148.15 146.85 153.1 146.2L152.7 146.3Z" fill="#76B3FF"/>
<path d="M173.8 154.85C173.8 154.85 180.55 143.7 186.8 140.35C186.8 140.35 176.5 144.7 172.5 152.45L173.8 154.85ZM160.35 181.05C160.35 181.05 151.85 196.1 155.9 203.8C155.9 203.8 148.9 201.1 158.9 178.75L160.35 181.05ZM84.9996 205.85C84.9996 205.85 82.2996 217.05 82.0496 222.8C80.2996 221.95 78.9496 221.2 78.0996 220.7C78.8496 216.4 80.0996 209.85 81.9496 202.6C82.2496 202.95 82.5996 203.35 82.9496 203.7C83.5496 204.4 84.2496 205.15 84.9996 205.85Z" fill="#60A5FA"/>
<path d="M81.9492 222.95C81.6992 225 81.1992 228.25 80.6992 231C80.6992 231 78.6992 230.65 56.5992 237.95C56.5492 237.95 56.4992 237.9 56.4492 237.85C58.0492 237.05 71.2492 230.75 76.6492 229.3H76.6992V229.25C76.6992 229.2 77.0992 225.95 77.9992 220.9C78.8992 221.35 80.2492 222.1 81.9492 222.95Z" fill="#AACEFD"/>
<path d="M138.851 155.95C138.851 155.95 133.301 159.15 121.601 157.25L120.051 152.45C121.201 153.65 124.551 155.45 134.601 155.45C135.651 155.45 136.801 155.45 138.051 155.4C138.201 155.5 138.301 155.6 138.501 155.65C138.851 155.95 138.351 155.65 138.851 155.95Z" fill="#60A5FA"/>
<path d="M75.9995 132.15H75.8995C75.6995 132.1 75.5995 131.9 75.6495 131.7C76.6495 128.35 77.7495 124.85 79.2495 120.35C79.8495 118.55 80.4495 116.8 80.9995 115.05C83.6995 107.1 86.1995 99.5498 87.4495 93.4498C89.1995 84.8498 90.1995 77.8498 91.0495 72.1998C91.8495 66.7998 92.4495 62.4998 93.3995 59.1998C95.3995 52.0998 97.3995 49.0998 100.099 46.3498C100.249 46.1998 100.499 46.1998 100.649 46.3498C100.799 46.4998 100.799 46.7498 100.649 46.8998C98.4495 49.0998 96.2995 51.7498 94.1495 59.3998C93.2495 62.6498 92.5995 66.8998 91.8495 72.2998C91.0495 77.9498 89.9995 84.9498 88.2495 93.5998C86.9995 99.7498 84.4495 107.3 81.7995 115.3C81.1995 117.05 80.6495 118.8 80.0495 120.6C78.5495 125.1 77.4495 128.6 76.4495 131.95C76.3495 132.05 76.1995 132.15 75.9995 132.15Z" fill="black"/>
<path d="M87.3494 60.7998C82.6994 60.7998 76.6994 58.9998 73.1994 50.9498V50.8998C73.1494 50.7498 73.0994 50.5998 73.0994 50.4498C72.7994 49.3498 72.2494 47.4998 74.7494 46.2998L74.8494 46.2498H74.8994C75.1494 46.0998 75.4994 45.9998 75.9494 45.8498L75.9994 45.7998H76.0994C84.0494 43.5498 108.599 46.3998 149.199 54.2498C151.749 54.7498 154.499 55.2998 157.399 55.8498C160.249 56.3998 162.699 56.7498 165.199 56.7498C168.799 56.6998 171.749 56.5498 174.449 56.1498C176.899 55.7998 180.199 55.3498 182.449 53.5998C182.599 53.4498 182.849 53.4998 182.999 53.6498C183.149 53.7998 183.099 54.0498 182.949 54.1998C180.549 56.0498 177.099 56.5498 174.599 56.8998C171.849 57.2998 168.899 57.4998 165.249 57.4998C162.649 57.4998 160.199 57.1498 157.299 56.5998C154.499 56.0498 151.749 55.4998 149.099 54.9998C108.699 47.1498 84.1994 44.2998 76.3994 46.4998H76.2994C75.8494 46.6498 75.4994 46.7498 75.2494 46.8998L75.0994 46.9498C73.2494 47.8498 73.5994 49.0998 73.8994 50.1498L74.0494 50.5998C80.0994 64.2998 93.1994 59.0998 93.7494 58.8498C93.9494 58.7498 94.1494 58.8498 94.2494 59.0498C94.3494 59.2498 94.2494 59.4498 94.0494 59.5498C93.8494 59.6498 91.0494 60.7998 87.3494 60.7998Z" fill="black"/>
<path d="M198.3 69.2999H198.2C198 69.2498 197.85 69.0498 197.9 68.8498C198.6 65.5498 199.25 62.7498 199.85 60.2998C201.6 52.7498 202.55 48.5998 202.15 42.9998C201.5 33.9998 172.8 3.24985 163.75 1.89985C151.6 0.549849 124.9 0.349849 119.3 4.84985C113.75 9.29985 102.4 36.9498 102.3 37.2498C102.2 37.4498 102 37.5498 101.8 37.4498C101.6 37.3498 101.5 37.1498 101.6 36.9498C102.05 35.7998 113.15 8.84985 118.85 4.24985C124.6 -0.350151 151.65 -0.250151 163.9 1.14985C169.1 1.94985 179.45 11.2998 186.7 19.0998C193.95 26.8998 202.55 37.7998 202.95 42.9498C203.35 48.6498 202.4 52.8498 200.6 60.4498C200.05 62.8998 199.4 65.6998 198.65 68.9998C198.65 69.1998 198.5 69.2999 198.3 69.2999Z" fill="black"/>
<path d="M179.45 51.9999H179.35C179.15 51.9499 179 51.7499 179.05 51.5499C183.8 30.9499 176 9.79992 175.9 9.59992C175.85 9.39992 175.95 9.19992 176.1 9.09992C176.3 9.04992 176.5 9.14992 176.6 9.29992C176.7 9.49992 184.55 30.8499 179.75 51.6999C179.75 51.8999 179.6 51.9999 179.45 51.9999Z" fill="black"/>
<path d="M178.85 12.1502C178.8 12.1502 178.7 12.1502 178.65 12.1002C178.45 12.0002 178.45 11.7502 178.55 11.5502C180.45 8.60019 181.1 6.20018 180.45 4.35018C179.9 2.85018 178.5 1.75019 176.2 1.00019C174.8 0.550185 173.6 0.650185 172.7 1.25019C171.05 2.35019 170.8 4.75019 170.8 4.80019C170.8 5.00019 170.6 5.15019 170.4 5.15019C170.2 5.15019 170.05 4.95018 170.05 4.75019C170.05 4.65019 170.35 1.95019 172.3 0.650185C173.4 -0.099815 174.8 -0.199815 176.45 0.300185C178.95 1.10019 180.55 2.35018 181.2 4.10018C181.95 6.20018 181.3 8.80018 179.2 11.9502C179.1 12.1002 178.95 12.1502 178.85 12.1502ZM59.05 130.65C58.95 130.65 58.85 130.6 58.75 130.55C58.6 130.4 58.6 130.15 58.75 130C65.35 123.9 76.25 120.85 79.45 120.1C79.65 120.05 79.85 120.15 79.9 120.4C79.95 120.6 79.85 120.8 79.6 120.85C76.45 121.6 65.7 124.6 59.2 130.6C59.25 130.6 59.15 130.65 59.05 130.65ZM70.3 183.65C63.1 183.2 57.35 176.05 55.9 165.9C53.55 156.4 59.7 148.65 59.8 148.55L59.9 148.4H60.1C60.3 148.4 60.5 148.55 60.5 148.8C60.5 148.95 60.45 149.05 60.35 149.1C59.9 149.65 54.45 156.95 56.65 165.75C58.05 175.6 63.55 182.45 70.35 182.9C70.8 182.9 71.3 182.8 71.75 182.75C72.55 182.6 73.35 182.4 74.05 182.1C79.25 180 83.85 174.25 82.4 166.15C82.35 165.95 82.5 165.75 82.7 165.7C82.9 165.65 83.1 165.8 83.15 166C84.65 174.55 79.8 180.6 74.35 182.8C73.55 183.1 72.7 183.35 71.9 183.5C71.35 183.55 70.8 183.6 70.3 183.65Z" fill="black"/>
<path d="M62.3491 153.25L62.3991 154.55L62.3491 154.35C62.3991 154.45 62.5491 154.55 62.6991 154.65L62.8491 154.7H62.8991L62.9991 154.75L63.2991 154.85C63.7491 155 64.1491 155.05 64.5491 155.15C64.9491 155.25 65.4491 155.25 65.8491 155.3C66.2991 155.35 66.7491 155.35 67.1991 155.4C67.6491 155.45 68.0991 155.45 68.5491 155.45C68.9991 155.45 69.4491 155.5 69.8991 155.5H72.5991C76.1991 155.5 79.8491 155.3 83.4491 155.1H83.3991C83.9491 155.05 84.5491 154.95 85.0991 154.9C85.3991 154.85 85.6491 154.85 85.9491 154.85H86.7991C87.3991 154.85 87.9491 154.9 88.5491 155C89.1491 155.1 89.7491 155.3 90.2991 155.65C90.5991 155.85 90.7991 156.1 90.9991 156.4C91.1491 156.7 91.2491 157.05 91.2491 157.4C91.2491 158.1 91.0491 158.65 90.7991 159.2C90.2491 160.3 89.4991 161.2 88.7491 162C88.3491 162.4 87.9491 162.8 87.4991 163.2C87.2991 163.4 87.0491 163.55 86.7991 163.75C86.5491 163.95 86.2991 164.05 86.0991 164.25C85.5991 164.55 85.1491 164.9 84.6491 165.15C84.1491 165.4 83.6491 165.7 83.1491 165.95C82.1491 166.45 81.0991 166.9 80.0491 167.35C78.9991 167.75 77.9491 168.15 76.8491 168.45L78.3991 167.75L79.8991 167L81.3991 166.25C81.8991 166 82.3991 165.7 82.8991 165.45C83.3991 165.2 83.8491 164.9 84.3491 164.6C84.8491 164.35 85.2991 164 85.7491 163.7C85.9491 163.55 86.2491 163.4 86.4491 163.25C86.6491 163.1 86.8991 162.9 87.0991 162.75C87.4991 162.4 87.8991 162 88.2991 161.6C89.0491 160.8 89.7491 159.95 90.1991 158.95C90.3991 158.5 90.5991 157.95 90.5491 157.5C90.5491 157.05 90.3491 156.65 89.9491 156.4C89.5491 156.15 89.0491 156 88.5491 155.9C88.0491 155.85 87.4991 155.8 86.9491 155.8C86.6991 155.8 86.3991 155.8 86.1491 155.85C85.8991 155.85 85.5991 155.9 85.2991 155.9C84.7491 155.95 84.1991 156.05 83.6491 156.1C81.8491 156.25 79.9991 156.3 78.1991 156.4C76.3991 156.45 74.5491 156.5 72.7491 156.5C71.8491 156.5 70.9491 156.5 69.9991 156.45C69.5491 156.45 69.0991 156.4 68.6491 156.4C68.1991 156.35 67.7491 156.35 67.2991 156.3C66.8491 156.25 66.3991 156.25 65.9491 156.15C65.4991 156.1 65.0491 156.05 64.5491 155.95C64.0991 155.85 63.5991 155.75 63.1991 155.6L62.8991 155.5L62.7991 155.45H62.6991L62.4991 155.35C62.2491 155.2 61.9991 155.05 61.8491 154.75L61.7991 154.65V154.55L61.7491 153.3C61.7491 153.1 61.8991 152.9 62.1491 152.9C62.1991 152.85 62.3491 153.05 62.3491 153.25ZM56.2491 166.2C56.1491 166.2 56.0991 166.15 55.9991 166.1C55.9491 166.05 49.0991 160.35 48.2491 151.65C47.6991 146 49.6991 140.4 54.2491 134.9C54.3991 134.75 54.5991 134.7 54.7991 134.85C54.9491 135 54.9991 135.2 54.8491 135.4C50.4491 140.75 48.4491 146.2 48.9991 151.6C49.7991 160 56.4491 165.45 56.4991 165.5C56.6491 165.65 56.6991 165.85 56.5491 166.05C56.4991 166.15 56.3491 166.2 56.2491 166.2Z" fill="black"/>
<path d="M137.149 198.45L78.6492 194.1L73.7992 182.55C73.6992 182.35 73.7992 182.15 73.9992 182.05C74.1992 181.95 74.3992 182.05 74.4992 182.25L79.1492 193.4L136.049 197.65L113.349 135.5L52.6492 130.05L63.0492 154.9C63.1492 155.1 63.0492 155.3 62.8492 155.4C62.6492 155.5 62.4492 155.4 62.3492 155.2L51.4492 129.2L113.899 134.8L119.999 151.45H120.099V151.75L137.149 198.45ZM93.4492 244.85C86.0492 244.85 66.6992 244.25 56.0992 238.15L55.4992 237.8L56.1492 237.5C56.7492 237.2 70.4492 230.55 76.3492 228.9C76.4492 228.05 76.8992 225 77.6492 220.65C78.3992 216.35 79.6992 209.7 81.5492 202.3C81.5992 202.1 81.7992 201.95 81.9992 202.05C82.1992 202.1 82.3492 202.3 82.2492 202.5C80.3492 209.9 79.0992 216.55 78.3492 220.8C77.4492 225.95 77.0492 229.25 77.0492 229.3L76.9992 229.55L76.7492 229.6C71.7492 230.9 59.9992 236.5 57.0992 237.85C69.6992 244.6 93.6492 244.1 96.1992 244.05L108.949 220.65C109.049 220.45 109.299 220.4 109.449 220.5C109.649 220.6 109.699 220.85 109.599 221L96.5992 244.75H96.3992C96.3492 244.85 95.2492 244.85 93.4492 244.85Z" fill="black"/>
<path d="M104.149 230.6H104.099C93.0495 229.1 81.9995 223.45 77.7495 221.05C77.5495 220.95 77.4995 220.7 77.5995 220.55C77.6995 220.35 77.9495 220.3 78.0995 220.4C81.3995 222.25 92.9495 228.35 104.149 229.85C104.349 229.9 104.499 230.05 104.499 230.3C104.499 230.45 104.349 230.6 104.149 230.6ZM173.249 256C163.549 256 133.649 249.65 132.349 249.4L131.999 249.3L135.999 228.9C125.899 226.95 116.849 224.35 109.149 221.25C97.3495 216.5 88.0995 210.25 81.5995 202.65C76.7495 197 73.3495 190.45 71.3995 183.2C71.3495 183 71.4495 182.8 71.6495 182.75C71.8495 182.7 72.0495 182.8 72.0995 183C73.9995 190.15 77.3495 196.6 82.1495 202.15C88.5495 209.6 97.6995 215.8 109.399 220.5C117.149 223.65 126.299 226.25 136.499 228.2L136.849 228.25L132.849 248.7C136.349 249.45 163.999 255.2 173.149 255.2C172.249 253.45 169.049 247.75 163.449 244.8L163.049 244.6L163.299 244.25C163.949 243.25 164.649 242.3 165.299 241.3C169.249 235.5 173.099 229.2 177.049 222.15C180.799 215.4 183.899 209.75 186.699 204.4L187.799 202.2L187.999 201.85C189.499 198.8 190.949 195.35 192.249 191.65C192.299 191.45 192.549 191.35 192.749 191.4C192.949 191.45 193.049 191.7 192.999 191.9C191.649 195.65 190.249 199.1 188.699 202.2L188.499 202.55L187.399 204.75C184.599 210.1 181.499 215.75 177.749 222.5C173.799 229.55 169.949 235.85 165.999 241.7C165.399 242.55 164.799 243.45 164.249 244.3C170.899 248 174.049 255.1 174.199 255.4L174.449 255.9H173.899C173.599 256 173.399 256 173.249 256Z" fill="black"/>
<path d="M154.8 235.35C144.45 235.35 135.4 234.6 135.3 234.6C135.1 234.6 134.95 234.4 134.95 234.2C134.95 234 135.15 233.85 135.35 233.85C135.55 233.85 155.85 235.5 170.35 233.85C170.55 233.8 170.75 234 170.75 234.2C170.75 234.4 170.6 234.6 170.4 234.6C165.55 235.15 160 235.35 154.8 235.35ZM114.9 94.95C114.9 94.95 114.05 94.95 112.85 94.9C112.55 94.9 112.2 94.85 111.85 94.85C111.5 94.85 111.15 94.85 110.75 94.8C110.35 94.8 109.95 94.75 109.55 94.75C109.35 94.75 109.15 94.75 108.95 94.7H108.6H108.65H106C105.6 94.7 105.25 94.7 104.9 94.75C104.55 94.75 104.25 94.8 103.95 94.8H103.5C103.35 94.8 103.25 94.85 103.1 94.85C102.85 94.9 102.65 94.9 102.45 94.9C102.25 94.9 102.15 94.95 102.05 94.95C101.95 94.95 101.9 95 101.9 95C101.9 95 101.95 95 102.05 94.95C102.15 94.9 102.25 94.85 102.45 94.8C102.6 94.75 102.85 94.65 103.05 94.6C103.15 94.55 103.3 94.5 103.45 94.5C103.6 94.45 103.75 94.45 103.9 94.4C104.2 94.35 104.55 94.3 104.9 94.2C105.25 94.15 105.65 94.05 106 94.05C106.75 94 107.6 94 108.4 94H108.75L109.05 94.05C109.25 94.05 109.45 94.1 109.65 94.1C110.05 94.15 110.45 94.2 110.8 94.2C111.2 94.25 111.55 94.3 111.9 94.35C112.25 94.4 112.55 94.5 112.85 94.55C114.1 94.7 114.9 94.95 114.9 94.95ZM160.95 94.65C160.25 94.75 159.55 94.75 158.85 94.85L156.75 95.15C156.05 95.3 155.4 95.4 154.7 95.55L152.65 96.05C151.95 96.25 151.3 96.45 150.6 96.65C150.25 96.75 149.95 96.85 149.6 96.95L148.6 97.3C147.95 97.5 147.3 97.8 146.6 98C146.25 98.1 145.95 98.25 145.6 98.4L144.6 98.8C144.1 99 143.6 99.2 143.15 99.4L142.4 99.7C142.15 99.8 141.9 99.9 141.65 100.05C141.85 99.9 142.1 99.75 142.3 99.6C142.55 99.45 142.75 99.35 143 99.2C143.45 98.95 143.9 98.65 144.4 98.4C145.05 98.1 145.65 97.75 146.3 97.45C146.95 97.15 147.6 96.9 148.25 96.65L149.25 96.3C149.6 96.2 149.9 96.05 150.25 95.95C150.95 95.75 151.6 95.55 152.3 95.4C152.65 95.3 153 95.25 153.35 95.2L154.4 95C155.1 94.9 155.8 94.8 156.5 94.75C157.2 94.7 157.95 94.7 158.65 94.7C159.55 94.55 160.25 94.55 160.95 94.65ZM122.15 113.4C122.15 113.4 122.9 113.75 124.3 114.15C125 114.35 125.85 114.55 126.85 114.8C127.85 115 128.95 115.2 130.2 115.3C130.8 115.4 131.45 115.4 132.15 115.45C132.8 115.45 133.5 115.5 134.25 115.45C135.7 115.45 137.15 115.25 138.7 115C141.75 114.5 144.95 113.55 148.05 112.3C151.1 111.05 154.05 109.45 156.6 107.7C159.15 105.95 161.25 103.95 162.8 102.05C163.55 101.1 164.2 100.15 164.7 99.3C165.2 98.45 165.55 97.65 165.8 96.95C166.05 96.3 166.2 95.75 166.3 95.4C166.4 95.05 166.45 94.85 166.45 94.85V94.8C166.5 94.6 166.7 94.45 166.9 94.5C167.1 94.55 167.25 94.75 167.2 94.95L167.05 95.55C166.95 95.95 166.8 96.5 166.5 97.2C166.25 97.9 165.85 98.7 165.35 99.6C164.85 100.5 164.2 101.45 163.35 102.45C161.75 104.4 159.55 106.4 156.95 108.15C154.35 109.9 151.35 111.45 148.25 112.7C145.15 113.9 141.9 114.8 138.8 115.3C137.25 115.5 135.75 115.65 134.3 115.65C133.6 115.7 132.9 115.65 132.2 115.6L130.25 115.45C129 115.35 127.9 115.1 126.9 114.9C125.9 114.7 125.05 114.45 124.35 114.25C122.9 113.75 122.15 113.4 122.15 113.4Z" fill="black"/>
<path d="M164.199 93.2C164.199 93.2 164.649 93.25 165.149 93.5C165.399 93.6 165.749 93.8 166.049 93.95L166.499 94.25C166.649 94.35 166.799 94.5 166.949 94.6C167.099 94.75 167.249 94.85 167.349 95C167.499 95.15 167.599 95.3 167.749 95.4C167.999 95.65 168.199 95.95 168.349 96.25C168.649 96.75 168.749 97.2 168.749 97.2C168.749 97.2 168.749 97.25 168.699 97.25H168.649C168.649 97.25 168.349 97 167.949 96.6C167.749 96.4 167.499 96.15 167.249 95.95C166.999 95.7 166.699 95.45 166.399 95.25C165.849 94.75 165.249 94.25 164.799 93.9C164.349 93.55 164.099 93.3 164.099 93.3V93.25C164.149 93.2 164.149 93.2 164.199 93.2ZM109.399 90.75C109.399 90.75 109.399 90.7 109.349 90.65C109.349 90.6 109.299 90.5 109.249 90.35C109.199 90.05 109.149 89.7 109.249 89.2C109.299 88.95 109.349 88.7 109.499 88.45C109.649 88.2 109.799 87.9 110.049 87.65C110.299 87.4 110.599 87.15 110.949 87C111.299 86.85 111.699 86.75 112.099 86.75H112.399L112.599 86.8C112.749 86.85 113.099 86.9 113.249 87C113.649 87.15 113.949 87.4 114.199 87.65C114.699 88.2 114.849 88.75 114.949 89.2C115.049 89.65 114.999 90.05 114.949 90.3C114.899 90.55 114.849 90.75 114.849 90.75C114.849 90.75 114.699 90.65 114.499 90.5C114.299 90.35 114.049 90.1 113.749 89.85C113.599 89.75 113.449 89.6 113.299 89.5C113.149 89.4 112.999 89.3 112.849 89.25C112.699 89.2 112.599 89.15 112.449 89.15C112.349 89.1 112.399 89.15 112.299 89.15H112.099H112.149H112.049C111.899 89.15 111.749 89.15 111.649 89.2C111.499 89.2 111.399 89.25 111.249 89.35C110.949 89.5 110.649 89.7 110.349 89.95C110.049 90.2 109.799 90.45 109.599 90.6C109.549 90.6 109.399 90.75 109.399 90.75ZM138.499 91.35V91.2C138.499 91.1 138.499 90.95 138.549 90.8C138.599 90.45 138.749 90 139.099 89.45C139.249 89.2 139.449 88.9 139.699 88.65C139.949 88.4 140.249 88.15 140.649 87.95C141.049 87.75 141.499 87.6 141.949 87.55C142.449 87.5 142.949 87.55 143.399 87.7L143.549 87.75L143.649 87.8L143.749 87.85H143.799L144.049 87.95C144.249 88.05 144.549 88.25 144.699 88.4C145.099 88.7 145.399 89.1 145.599 89.5C145.999 90.3 146.049 91.05 145.999 91.65C145.949 92.25 145.849 92.7 145.749 93.05C145.649 93.35 145.549 93.55 145.549 93.55C145.549 93.55 145.449 93.4 145.299 93.1L144.699 91.9C144.599 91.65 144.449 91.45 144.299 91.2C144.149 91 143.999 90.75 143.849 90.6C143.699 90.45 143.549 90.3 143.349 90.2C143.249 90.1 143.249 90.15 143.099 90.05L142.849 89.95H142.799C142.749 89.95 142.899 90 142.849 89.95H142.699C142.449 89.85 142.249 89.85 142.049 89.85C141.849 89.85 141.599 89.85 141.349 89.9C140.899 90 140.399 90.25 139.949 90.45C139.499 90.7 139.149 90.95 138.849 91.1C138.649 91.25 138.499 91.35 138.499 91.35Z" fill="black"/>
<path d="M111.8 94.9001C111.6 94.9001 111.45 94.7501 111.4 94.5501C111.35 94.3501 111.5 94.1501 111.7 94.1001C115.95 93.5001 119.15 89.1501 119.15 84.0001C119.15 78.4001 115.35 73.8001 110.7 73.8001C106.05 73.8001 102.25 78.3501 102.25 84.0001C102.25 88.7001 104.9 92.8001 108.7 93.9001C108.9 93.9501 109 94.1501 108.95 94.3501C108.9 94.5501 108.7 94.6501 108.5 94.6001C104.4 93.4001 101.5 89.0001 101.5 83.9501C101.5 77.9001 105.65 73.0001 110.7 73.0001C115.75 73.0001 120 78.0001 120 84.0501C120 89.6001 116.5 94.3001 111.9 94.9501C111.85 94.9001 111.85 94.9001 111.8 94.9001ZM144.6 98.8501C136.75 98.8501 130.35 91.7501 130.35 83.0501C130.35 74.3501 136.75 67.2501 144.6 67.2501C152.45 67.2501 158.85 74.3501 158.85 83.0501C158.85 88.1501 156.6 92.9501 152.85 95.9001C152.7 96.0501 152.45 96.0001 152.3 95.8501C152.15 95.7001 152.2 95.4501 152.35 95.3001C155.9 92.5001 158.05 87.9001 158.05 83.0001C158.05 74.7001 152 67.9501 144.55 67.9501C137.1 67.9501 131.05 74.7001 131.05 83.0001C131.05 91.3001 137.1 98.0501 144.55 98.0501C144.75 98.0501 144.95 98.2001 144.95 98.4501C144.95 98.6501 144.8 98.8501 144.6 98.8501ZM159.9 62.1501L159.65 62.0001C159.65 62.0001 159.4 61.8501 159 61.5501L158.25 61.0501C158 60.9001 157.75 60.7001 157.45 60.5501L157.3 60.4501C157.15 60.4001 157.05 60.3001 156.9 60.2001C156.65 60.0501 156.4 59.9001 156.15 59.8001C155.7 59.6501 155.25 59.4501 154.75 59.2501C154.3 59.1001 153.75 59.0001 153.25 58.8501C153.05 58.8501 152.85 58.8001 152.65 58.7501C152.3 58.7001 151.95 58.6501 151.6 58.6501H151.45C150.95 58.6001 150.4 58.6001 149.9 58.6501C149.45 58.6501 149.05 58.7501 148.65 58.8001C148.5 58.8001 148.4 58.8501 148.25 58.8501C147.75 58.9501 147.25 59.1001 146.8 59.2501C146.4 59.4001 145.95 59.5501 145.55 59.7501C145.35 59.8501 145.15 59.9501 144.95 60.0001C144.8 60.1001 144.65 60.1501 144.45 60.2501L144.2 60.4001C144.05 60.5001 143.9 60.6001 143.75 60.6501C143.35 60.9001 143.15 61.0501 143.15 61.0501L142.9 61.2501L142.25 60.7001V60.2001L142.3 60.0501C142.3 59.9001 142.35 59.6501 142.45 59.4001C142.6 58.8501 142.95 58.0001 143.75 57.0501C143.95 56.8001 144.15 56.6001 144.35 56.4501C144.55 56.3001 144.75 56.1501 144.95 55.9501L145.1 55.8501C145.6 55.5001 146.2 55.1501 147 54.8001C147.6 54.6001 148.25 54.3501 148.95 54.2001C149.15 54.1501 149.35 54.3001 149.4 54.5001C149.45 54.7001 149.3 54.9001 149.1 54.9501C148.45 55.0501 147.85 55.3001 147.25 55.5001C146.55 55.8001 145.95 56.1001 145.5 56.4501L145.35 56.5501C145.15 56.7001 144.95 56.8501 144.8 57.0001C144.6 57.2001 144.4 57.3501 144.25 57.5501C143.5 58.4001 143.2 59.2001 143.1 59.6001C143.05 59.8001 143 60.0001 143 60.1501V60.3001C143.1 60.2501 143.25 60.1501 143.4 60.0501C143.55 59.9501 143.7 59.9001 143.9 59.7501L144.2 59.6001L144.7 59.3501L145.3 59.0501C145.7 58.8501 146.2 58.7001 146.6 58.5501C147.1 58.4001 147.6 58.2501 148.15 58.1501C148.3 58.1501 148.4 58.1001 148.55 58.1001C149 58.0501 149.4 57.9501 149.9 57.9501C150.45 57.9001 151 57.9001 151.55 57.9501H151.65C152.05 57.9501 152.4 58.0001 152.8 58.0501C153 58.1001 153.2 58.1001 153.4 58.1501H153.45C154 58.3001 154.55 58.4501 155.05 58.6001C155.6 58.8001 156.05 59.0001 156.5 59.2001C156.8 59.3501 157.05 59.5001 157.3 59.6501C157.45 59.7501 157.55 59.8001 157.7 59.9001L157.85 60.0001C158.15 60.2001 158.45 60.3501 158.7 60.5501L159.4 61.0501C159.55 61.1501 159.65 61.2501 159.75 61.3001V61.1501C159.75 61.0001 159.75 60.8501 159.7 60.6501L159.65 60.4501C159.6 60.2001 159.55 59.9501 159.45 59.6501C159.4 59.5001 159.3 59.3001 159.2 59.1001C159.15 58.9501 159.05 58.8501 158.95 58.7001L158.85 58.5501C158.55 58.1501 158.25 57.7001 157.85 57.3501C157.6 57.1501 157.3 56.9001 157 56.7001C156.85 56.6001 156.8 56.3501 156.9 56.1501C157 56.0001 157.25 55.9501 157.45 56.0501C157.8 56.3001 158.1 56.5501 158.4 56.7501C158.9 57.2001 159.2 57.6501 159.5 58.1001L159.65 58.3001C159.75 58.4501 159.85 58.6001 159.95 58.8001C160.1 59.0501 160.15 59.2501 160.2 59.4501C160.3 59.7501 160.4 60.0501 160.45 60.3001L160.5 60.5001C160.55 60.7501 160.55 60.9501 160.6 61.1501V61.7501L159.9 62.1501ZM111.1 67.9501C110.4 67.9501 109.85 67.9001 109.35 67.8501C108.55 67.8001 107.8 67.6001 107 67.4001C106.25 67.2001 105.6 66.9501 105.1 66.7001C104.85 66.5501 104.6 66.4501 104.35 66.3001L104.2 66.2001C104 66.1001 103.85 65.9501 103.7 65.8501C102.85 65.2001 102.5 64.6001 102.35 64.2001C102.25 64.0501 102.25 63.8501 102.2 63.7501V63.6501C102.15 63.4501 102.2 63.3001 102.2 63.3001L102.25 63.1501L102.9 62.7501L103.1 62.8501C103.1 62.8501 103.3 62.9501 103.7 63.1001C103.8 63.1501 103.95 63.2001 104.1 63.2501C104.2 63.3001 104.35 63.3501 104.45 63.4001C104.55 63.4501 104.65 63.4501 104.8 63.5001C105 63.5501 105.2 63.6501 105.45 63.7001C105.85 63.8501 106.3 63.9501 106.7 64.0501C107.1 64.1501 107.55 64.2001 108 64.3001L108.4 64.3501C108.85 64.4001 109.3 64.4501 109.75 64.4501C110.25 64.5001 110.7 64.4501 111.15 64.4501H111.45C111.8 64.4501 112.15 64.4001 112.5 64.3501C112.7 64.3501 112.95 64.3001 113.15 64.3001C113.65 64.2001 114.2 64.1001 114.7 64.0001L115.1 63.9001C115.45 63.8001 115.8 63.7001 116.1 63.6001C116.35 63.5001 116.6 63.4501 116.8 63.3501L117.25 63.2001L117.5 63.1001C117.75 63.0001 118 62.9001 118.2 62.8001L118.95 62.4501C119.35 62.2501 119.6 62.1501 119.6 62.1501L119.75 62.0501L120.45 62.4501V63.0501C120.45 63.1501 120.4 63.3501 120.35 63.5001V63.5501C120.3 63.7501 120.2 64.0001 120.05 64.2501C120 64.3501 119.9 64.5501 119.8 64.7001C119.7 64.8001 119.6 64.9001 119.5 65.0501L119.4 65.1501C119.05 65.4501 118.75 65.8001 118.25 66.1001C117.7 66.4001 117.15 66.7001 116.6 66.9501C116.25 67.1001 115.9 67.2001 115.55 67.3001H115.45C115.1 67.4001 114.8 67.5001 114.4 67.5501C113.5 67.7001 112.75 67.8001 111.9 67.8501C111.65 67.9501 111.4 67.9501 111.1 67.9501ZM103 63.7501C103 63.8001 103.05 63.9001 103.05 63.9501C103.15 64.2501 103.45 64.7501 104.15 65.3001L104.6 65.6001L104.7 65.7001C104.9 65.8001 105.15 65.9501 105.4 66.0501C105.85 66.3001 106.45 66.5001 107.15 66.7001C107.9 66.9001 108.6 67.0501 109.35 67.1001C109.85 67.1501 110.35 67.2001 111.05 67.2001H111.85C112.65 67.1501 113.4 67.0501 114.25 66.9001C114.55 66.8501 114.9 66.7501 115.2 66.6501H115.3C115.65 66.5501 116 66.4501 116.3 66.3501C116.8 66.1501 117.35 65.8501 117.85 65.5501C118.25 65.3001 118.55 65.0001 118.85 64.7501L118.95 64.6001L119.2 64.3501C119.3 64.2501 119.35 64.1001 119.4 64.0001C119.5 63.8001 119.6 63.6001 119.65 63.4501L119.7 63.3501C119.75 63.2501 119.75 63.1501 119.75 63.1001C119.65 63.1501 119.5 63.2001 119.35 63.3001L118.65 63.6501C118.45 63.7501 118.15 63.8501 117.9 63.9501L117.65 64.0501L117.2 64.2001L116.45 64.5001C116.1 64.6001 115.8 64.7001 115.45 64.8001L115.05 64.9001L113.4 65.2001C113.15 65.2001 112.95 65.2501 112.75 65.2501C112.4 65.3001 112.05 65.3001 111.65 65.3501H111.35C110.85 65.3501 110.35 65.4001 109.85 65.3501C109.4 65.3501 108.9 65.3001 108.45 65.2501L108 65.2001C107.5 65.1001 107.05 65.0501 106.65 64.9501C106.2 64.8501 105.75 64.7501 105.35 64.6001C105.1 64.5501 104.9 64.4501 104.65 64.4001C104.55 64.3501 104.4 64.3001 104.3 64.3001C104.15 64.2501 104.05 64.2001 103.9 64.1501L103.45 64.0001C103.25 63.8501 103.15 63.7501 103 63.7501ZM133.3 188.35L147.3 191.05L147.7 191.15L147.45 191.5C147.05 192.1 146.65 192.75 146.25 193.35C145.85 194 145.5 194.65 145.15 195.3C144.45 196.6 143.85 197.95 143.3 199.35C143.05 200.05 142.75 200.75 142.55 201.45C142.45 201.8 142.3 202.15 142.2 202.5C142.1 202.85 142 203.2 141.9 203.6C141.7 204.3 141.55 205.05 141.4 205.8L141.2 206.9L141.05 208C141 208.35 141 208.75 140.95 209.1C140.9 209.45 140.9 209.85 140.9 210.2C140.9 210.95 140.95 211.7 141 212.45L141.15 213.55C141.2 213.9 141.3 214.3 141.4 214.65C141.45 215 141.6 215.35 141.7 215.75C141.8 216.1 141.9 216.45 142.05 216.8C142.2 217.15 142.3 217.5 142.45 217.85L142.95 218.85C143.1 219.2 143.35 219.5 143.5 219.8C143.7 220.1 143.9 220.45 144.1 220.75L144.75 221.65L145.5 222.5C145.6 222.65 145.75 222.8 145.85 222.9L146.25 223.3L147.05 224.1L146.25 223.35L145.85 222.95C145.7 222.8 145.6 222.65 145.45 222.55L144.7 221.7L144 220.8C143.75 220.5 143.55 220.2 143.35 219.85C143.15 219.55 142.95 219.25 142.75 218.9L142.25 217.9L141.8 216.85C141.65 216.5 141.55 216.15 141.45 215.8C141.35 215.45 141.2 215.1 141.15 214.7C141.05 214.35 140.95 213.95 140.9 213.6L140.75 212.5C140.7 211.75 140.6 211 140.6 210.25V209.1C140.6 208.7 140.6 208.35 140.65 207.95L140.75 206.85L140.9 205.75C141.05 205 141.15 204.25 141.35 203.55C141.45 203.2 141.55 202.8 141.65 202.45C141.75 202.1 141.85 201.7 141.95 201.35C142.15 200.65 142.4 199.9 142.7 199.2C143.25 197.8 143.85 196.4 144.55 195.05C144.9 194.4 145.25 193.7 145.6 193.05C146 192.4 146.35 191.75 146.8 191.1L146.95 191.5L132.9 189C132.7 188.95 132.55 188.75 132.6 188.55C132.65 188.35 133.05 188.35 133.3 188.35ZM97.6504 208.65C97.6504 208.65 96.9504 208.05 96.1504 206.9C95.9504 206.6 95.7504 206.3 95.5504 205.95C95.3504 205.6 95.1503 205.25 94.9503 204.85C94.7503 204.45 94.6003 204.05 94.4503 203.6C94.3003 203.15 94.1504 202.7 94.0504 202.25C93.9004 201.8 93.8503 201.35 93.7503 200.9C93.6503 200.45 93.6503 200 93.6003 199.55C93.5503 199.1 93.6003 198.7 93.6003 198.3C93.6003 197.9 93.6503 197.5 93.7003 197.15C93.7503 196.8 93.7504 196.45 93.8004 196.2C93.8504 195.9 93.9003 195.65 93.9503 195.45C94.0503 195.05 94.1003 194.8 94.1003 194.8C94.1503 194.6 94.3504 194.45 94.5504 194.5C94.7504 194.55 94.9003 194.75 94.8503 194.95V195L94.7003 195.6C94.6503 195.8 94.6003 196.05 94.5003 196.3C94.4003 196.55 94.4003 196.9 94.3503 197.2C94.3003 197.55 94.2003 197.9 94.2003 198.3C94.2003 198.7 94.1504 199.1 94.1504 199.5C94.2004 199.9 94.1503 200.35 94.2003 200.8C94.2503 201.25 94.3004 201.7 94.4004 202.15C94.5004 202.6 94.6003 203.05 94.7503 203.45C94.8503 203.9 95.0503 204.3 95.2003 204.7C95.3503 205.1 95.5503 205.45 95.7003 205.85C95.9003 206.2 96.0503 206.55 96.2503 206.8C97.0003 208 97.6504 208.65 97.6504 208.65ZM159.6 205.05C159.2 205.05 158.85 205 158.45 204.95C156.35 204.65 154.85 203.65 154 202C151.3 196.95 155 186.55 158.6 178.75L158.65 178.65L158.7 178.6C158.85 178.45 159.1 178.45 159.25 178.6C159.4 178.75 159.4 178.95 159.3 179.05C154.25 190.05 152.65 197.85 154.7 201.6C155.5 203.05 156.75 203.9 158.6 204.15C163.1 204.85 167.45 200.95 169.75 196.75C170.15 196 170.5 195.25 170.8 194.45C171.15 193.55 171.55 192.65 172.05 191.8C172.1 191.75 172.1 191.7 172.15 191.6C172.25 191.4 172.5 191.35 172.65 191.45C172.85 191.55 172.9 191.8 172.8 191.95C172.75 192 172.7 192.1 172.7 192.15C172.25 192.95 171.85 193.85 171.5 194.7C171.15 195.5 170.85 196.3 170.4 197.05C168.1 201.2 164 205.05 159.6 205.05ZM183.8 162.2C183.75 162.2 183.7 162.2 183.65 162.15C183.45 162.05 183.35 161.85 183.45 161.65C187.85 150.6 193.95 144.55 202.1 143.1C202.3 143.05 202.5 143.2 202.55 143.4C202.6 143.6 202.45 143.8 202.25 143.85C194.4 145.25 188.5 151.2 184.2 161.95C184.05 162.1 183.95 162.2 183.8 162.2ZM172.65 152.8C172.55 152.8 172.5 152.8 172.45 152.75C172.3 152.65 172.25 152.4 172.35 152.2C179.5 142 188.85 137.05 202.7 136.25C202.9 136.25 203.1 136.4 203.1 136.6C203.1 136.8 202.95 137 202.75 137C189.2 137.85 180 142.65 173 152.65C172.85 152.75 172.75 152.8 172.65 152.8Z" fill="black"/>
<path d="M176.549 194.85C175.599 194.85 174.649 194.85 173.649 194.8C173.449 194.8 173.299 194.6 173.299 194.4C173.299 194.2 173.449 194 173.699 194.05C181.449 194.35 187.599 193.5 192.449 191.5C199.449 188.65 203.899 183.25 206.149 174.95C209.899 161.05 201.799 145.55 201.699 145.4L201.649 145.3L201.799 143.45C201.999 141.1 202.199 138.75 202.349 136.6C204.199 108.55 202.599 83.3498 198.049 69.1498C197.899 68.9498 197.749 68.7998 197.599 68.5998C193.199 63.3498 188.049 58.4998 182.399 54.1998C181.349 53.3998 180.299 52.6498 179.299 51.9498C174.699 48.7498 170.149 45.9998 165.749 43.8998C161.149 41.6498 156.649 39.7498 152.499 38.2498C148.449 36.7998 144.149 35.6498 140.349 34.6998C134.949 33.2998 129.749 32.4998 124.849 32.3998C122.299 32.3498 119.599 32.6498 116.099 33.3998C114.599 33.6998 112.949 34.1498 111.099 34.6498C109.749 35.0498 108.399 35.4498 107.099 35.8498L106.699 35.9498C105.199 36.3998 103.699 36.8998 102.099 37.3998C90.8492 40.9998 78.5492 45.5998 76.1992 46.4998H76.1492C75.8992 46.5998 75.6492 46.6998 75.4992 46.7498C75.2992 46.8498 75.1492 46.8998 75.0492 46.8998L74.9492 46.9498H74.8492C74.6492 46.9498 74.4492 46.7998 74.4492 46.5498C74.4492 46.3998 74.5492 46.2498 74.6992 46.1998C74.6992 46.1998 74.7492 46.1998 74.7992 46.1498C74.8992 46.0998 74.9992 46.0498 75.1992 45.9998C75.3492 45.9498 75.5992 45.8498 75.8492 45.7498L75.8992 45.6998H75.9992C79.3492 44.4498 90.8992 40.0998 101.899 36.5998C103.499 36.0998 105.049 35.5998 106.499 35.1498L106.899 35.0498C108.199 34.6498 109.549 34.2498 110.899 33.8498C112.749 33.2998 114.399 32.8998 115.949 32.5498C119.499 31.7998 122.249 31.4498 124.849 31.4998C129.799 31.5998 135.049 32.3998 140.499 33.7998C144.299 34.7998 148.599 35.8998 152.699 37.3998C156.899 38.8998 161.399 40.7998 166.049 43.0998C170.499 45.2498 175.049 47.9998 179.699 51.2498C180.699 51.9498 181.749 52.6998 182.849 53.5498C188.549 57.8998 193.749 62.7498 198.199 68.0498C198.349 68.2498 198.549 68.4498 198.699 68.5998L198.799 68.6998V68.7498C203.399 82.9998 205.049 108.35 203.149 136.55C202.999 138.75 202.799 141.05 202.599 143.4L202.449 145C203.149 146.4 210.599 161.45 206.899 175C204.599 183.5 199.999 189.1 192.799 192.05C188.349 193.95 183.049 194.85 176.549 194.85Z" fill="black"/>
<path d="M186.05 205.1C183.55 205.1 177.15 203.85 172.1 192C172 191.8 172.1 191.6 172.3 191.5C172.5 191.4 172.7 191.5 172.8 191.7C178.8 205.8 186.85 204.25 186.9 204.25C187.1 204.2 187.3 204.35 187.35 204.55C187.4 204.75 187.25 204.95 187.05 205C187 205.05 186.65 205.1 186.05 205.1ZM187 163.85L186.35 163.45C186.15 163.3 185.9 163.2 185.7 163.1L184.35 162.35L183.7 161.95L183.35 161.75L183 161.6L182.3 161.25C182.05 161.15 181.85 161 181.6 160.9L180.25 160.25C180 160.15 179.8 160.05 179.55 159.95L178.85 159.65L178.15 159.35L177.45 159.1L176 158.65H175.95C175.7 158.5 175.55 158.35 175.35 158.15C175.15 158 175.05 157.8 174.85 157.6C174.7 157.4 174.55 157.2 174.45 157.05C174.3 156.85 174.15 156.65 174.05 156.45L173.7 155.85C173.6 155.65 173.45 155.45 173.4 155.25C173.2 154.85 173 154.4 172.8 154L172.3 152.7C172.2 152.5 172.15 152.25 172.1 152.05L171.9 151.4L171.7 150.75L171.5 150.05L171.15 148.7V141.7L171.35 142.05L164.55 138.85C164.35 138.75 164.3 138.55 164.35 138.35C164.45 138.15 164.65 138.1 164.85 138.15L171.65 141.35L171.85 141.45V148.6V148.5L172.15 149.8L172.3 150.45L172.5 151.1L172.7 151.75C172.75 152 172.8 152.2 172.9 152.4L173.35 153.7C173.5 154.15 173.7 154.55 173.9 154.95L174.2 155.55L174.5 156.15C174.6 156.35 174.75 156.55 174.85 156.7C175 156.9 175.1 157.1 175.25 157.25C175.4 157.4 175.5 157.6 175.7 157.75C175.85 157.9 176 158.05 176.15 158.15H176.1L177.55 158.65L178.25 158.9L178.95 159.2L179.65 159.5C179.9 159.6 180.1 159.7 180.35 159.8L181.75 160.45C182 160.55 182.2 160.7 182.4 160.8L183.05 161.15L183.4 161.35L183.75 161.55L184.4 161.95L185.65 162.8C186.25 163.2 186.6 163.5 187 163.85Z" fill="black"/>
<path d="M172.651 192.7L172.301 192.5C172.251 192.45 172.201 192.45 172.151 192.4C161.401 185.35 158.701 179.3 158.601 179.05C158.501 178.85 158.601 178.65 158.801 178.55C159.001 178.45 159.201 178.55 159.301 178.75C159.351 178.8 162.051 184.85 172.601 191.75C184.201 181.4 183.701 166.65 183.251 162.35C183.251 162.2 183.201 162.05 183.201 161.95C183.201 161.85 183.201 161.75 183.151 161.7C183.151 161.5 183.301 161.3 183.501 161.3C183.701 161.3 183.901 161.45 183.901 161.65C183.901 161.7 183.901 161.8 183.951 161.9C183.951 162 184.001 162.15 184.001 162.3C184.451 166.7 185.001 181.9 172.901 192.5L172.651 192.7ZM134.651 155.7C123.401 155.7 120.351 153.4 119.551 152.2L119.451 152C119.451 152 119.451 151.95 119.401 151.95C119.351 151.85 119.301 151.75 119.301 151.65V151.5C119.301 151.3 119.451 151.1 119.701 151.1C119.851 151.1 120.001 151.2 120.051 151.35V151.45H120.151V151.75C120.751 152.7 123.701 155.45 138.051 154.9C138.251 154.9 138.451 155.05 138.451 155.25C138.451 155.45 138.301 155.65 138.101 155.65C136.851 155.7 135.701 155.7 134.651 155.7ZM128.701 175.5L131.001 169.65L142.951 156.3C143.101 156.15 143.351 156.15 143.501 156.25C143.651 156.4 143.651 156.65 143.551 156.8L131.651 170.05L130.051 174.2L134.301 172.75L142.851 163.1C142.901 163 143.051 162.95 143.151 162.95C143.351 162.95 143.551 163.1 143.551 163.35V163.5L134.751 173.4L128.701 175.5Z" fill="black"/>
<path d="M162.849 178.75C162.099 178.85 161.399 178.95 160.649 179L159.549 179.05H158.999C158.799 179.05 158.599 179 158.449 179C158.099 178.95 157.699 178.95 157.349 178.9C156.999 178.85 156.599 178.85 156.249 178.75L155.149 178.5C154.799 178.4 154.399 178.35 154.049 178.2L152.999 177.85L152.449 177.65L151.949 177.4L150.949 176.9C150.599 176.75 150.299 176.5 149.999 176.3C149.699 176.1 149.349 175.9 149.049 175.65L148.149 174.95C147.849 174.75 147.599 174.45 147.299 174.2C147.049 173.9 146.749 173.7 146.499 173.4L145.799 172.5C145.549 172.2 145.399 171.85 145.149 171.55L144.849 171.05L144.599 170.55C144.449 170.2 144.249 169.9 144.099 169.55L143.649 168.5L143.299 167.4C143.199 167.05 143.099 166.65 142.999 166.3C142.899 165.95 142.849 165.55 142.799 165.2C142.749 164.8 142.699 164.45 142.699 164.05V162.85C142.749 162.5 142.749 162.1 142.799 161.75L142.949 160.6C143.099 159.85 143.199 159.15 143.399 158.4C143.599 157.65 143.799 156.95 144.049 156.25L144.399 156.75C143.849 156.75 143.249 156.75 142.699 156.7C142.149 156.65 141.549 156.6 140.949 156.5C140.399 156.4 139.799 156.25 139.249 156.05C138.699 155.85 138.149 155.6 137.649 155.2L137.499 155.05L137.299 154.85L137.149 154.65L136.999 154.45C136.799 154.2 136.699 153.85 136.649 153.5C136.549 152.8 136.799 152.15 137.149 151.65C137.499 151.1 137.899 150.7 138.349 150.3C138.799 149.9 139.299 149.6 139.799 149.3C140.049 149.15 140.299 149 140.599 148.9L141.349 148.55L142.099 148.2C142.349 148.1 142.649 148 142.899 147.9C143.449 147.7 143.999 147.45 144.499 147.3C145.049 147.15 145.599 146.95 146.149 146.75L147.799 146.3L149.449 145.85C150.549 145.6 151.649 145.3 152.799 145.1L152.649 145.15L153.049 144.95C153.199 144.9 153.349 144.8 153.499 144.75L153.949 144.6L154.399 144.45L155.299 144.2L156.199 144C157.399 143.8 158.599 143.7 159.799 143.6L159.499 144L166.149 136.35L166.049 136.65L165.899 136.1C165.849 135.95 165.799 135.75 165.699 135.6L165.549 135.35C165.499 135.25 165.449 135.2 165.399 135.15C165.349 135.1 165.299 135 165.199 134.95C165.149 134.9 165.099 134.85 164.999 134.8C164.899 134.75 164.849 134.7 164.799 134.7C164.699 134.65 164.649 134.65 164.549 134.6C164.399 134.55 164.199 134.5 164.049 134.5C163.849 134.5 163.699 134.5 163.499 134.55C163.399 134.55 163.299 134.6 163.249 134.6C163.149 134.6 163.049 134.65 162.999 134.65L163.149 134.55L153.049 146C152.899 146.15 152.649 146.15 152.499 146.05C152.349 145.9 152.349 145.65 152.449 145.5L162.549 134.05L162.599 134L162.699 133.95C162.849 133.9 162.949 133.9 163.049 133.85C163.149 133.8 163.249 133.8 163.399 133.8C163.649 133.75 163.849 133.75 164.099 133.75C164.349 133.75 164.549 133.8 164.799 133.85C164.899 133.9 165.049 133.95 165.149 134C165.249 134.05 165.349 134.1 165.449 134.2C165.549 134.25 165.649 134.35 165.749 134.4C165.849 134.5 165.949 134.55 165.999 134.65C166.049 134.75 166.149 134.85 166.199 134.95L166.399 135.25C166.499 135.45 166.599 135.65 166.649 135.9C166.699 136.1 166.749 136.35 166.799 136.55L166.849 136.7L166.699 136.85L160.099 144.5L159.999 144.6H159.849C159.249 144.65 158.649 144.7 158.099 144.75C157.799 144.8 157.499 144.8 157.249 144.85C156.949 144.9 156.649 144.95 156.399 145L155.549 145.15L154.699 145.35C154.549 145.4 154.449 145.45 154.299 145.5L153.899 145.65C153.749 145.7 153.649 145.75 153.549 145.85L153.199 146.05L153.099 146.1H153.049C151.949 146.3 150.849 146.55 149.749 146.85L148.099 147.25L146.499 147.7C145.949 147.85 145.449 148.05 144.899 148.2C144.349 148.35 143.849 148.6 143.349 148.75C143.099 148.85 142.849 148.95 142.549 149.05L141.799 149.4L141.049 149.75C140.799 149.85 140.549 150 140.349 150.15C139.899 150.45 139.399 150.75 138.999 151.1C138.599 151.45 138.199 151.85 137.949 152.25C137.699 152.7 137.499 153.15 137.549 153.6C137.599 153.8 137.649 154.05 137.799 154.25L137.899 154.4L137.999 154.5L138.099 154.65L138.249 154.8C138.649 155.1 139.149 155.35 139.649 155.5C140.149 155.65 140.699 155.8 141.249 155.9C141.499 155.95 141.799 156 142.049 156C142.299 156.05 142.599 156.05 142.899 156.1C143.449 156.15 143.999 156.15 144.549 156.15H145.099L144.899 156.65C144.649 157.3 144.449 158.05 144.299 158.75C144.149 159.45 143.999 160.15 143.899 160.9L143.749 161.95C143.699 162.3 143.699 162.7 143.699 163.05V164.15C143.749 164.5 143.749 164.85 143.799 165.2C143.849 165.55 143.899 165.9 143.999 166.25C144.099 166.6 144.149 166.95 144.249 167.3L144.599 168.3L144.999 169.3C145.099 169.65 145.299 169.95 145.499 170.25L145.749 170.75L146.049 171.2C146.249 171.5 146.399 171.8 146.649 172.1L147.299 172.95C147.499 173.25 147.799 173.45 148.049 173.75C148.299 174 148.549 174.3 148.799 174.5L149.649 175.2C149.899 175.45 150.249 175.6 150.549 175.8C150.849 176 151.149 176.2 151.449 176.35L152.399 176.85L152.899 177.1L153.399 177.3L154.399 177.65C154.749 177.8 155.099 177.85 155.449 177.95L156.499 178.2C157.199 178.4 157.949 178.45 158.649 178.55C158.799 178.6 159.049 178.6 159.199 178.65L159.749 178.7L160.849 178.75C161.399 178.75 162.149 178.7 162.849 178.75Z" fill="black"/>
</g>
</g>
<defs>
<clipPath id="clip0_278_70">
<rect width="256" height="256" fill="white"/>
</clipPath>
<clipPath id="clip1_278_70">
<rect width="256" height="256" fill="white"/>
</clipPath>
</defs>
</svg>
