<svg width="256" height="256" viewBox="0 0 256 256" fill="none" xmlns="http://www.w3.org/2000/svg">
<g clip-path="url(#clip0_278_297)">
<path d="M166.25 93.85C166.4 93.85 169 93.55 172.05 93.55C173.5 93.55 174.8 93.6 175.95 93.75C176.1 93.5 176.75 92 176.15 91.05C175.8 90.5 175.15 90.25 174.1 90.25C173.8 90.25 173.5 90.25 173.2 90.3C173.15 90.3 166.9 91.35 166.2 93.35C166.15 93.55 166.1 93.8 166.15 93.9C166.2 93.8 166.2 93.85 166.25 93.85Z" fill="#4F5C72"/>
<path d="M164.55 105.35C164.85 105.55 165.25 105.65 165.6 105.65C166.45 105.65 167.25 105.15 167.75 104.4C168.1 103.85 168.25 103.15 168.15 102.55C168.05 101.95 167.75 101.4 167.25 101.1C166.95 100.9 166.55 100.8 166.2 100.8C165.35 100.8 164.55 101.3 164.05 102.05C163.7 102.6 163.55 103.3 163.65 103.9C163.7 104.5 164.05 105.05 164.55 105.35Z" fill="black"/>
<path d="M205.449 118.4C204.449 123.45 200.749 127.45 196.249 128.4C196.149 128.45 196.049 128.45 195.949 128.45C193.749 127.75 191.699 127.55 189.899 127.65C185.249 125.4 182.799 119.8 183.949 114.05C184.299 112.4 184.899 110.9 185.749 109.5C185.899 109.9 186.199 110.25 186.549 110.45C186.899 110.65 187.299 110.75 187.699 110.75C188.599 110.75 189.449 110.25 189.949 109.4C190.349 108.8 190.499 108.1 190.399 107.45C190.299 106.8 189.949 106.25 189.399 105.9C189.299 105.85 189.249 105.8 189.149 105.75C191.599 104 194.399 103.35 197.149 103.9C198.099 104.1 198.999 104.45 199.849 104.9C201.549 105.8 202.999 107.2 203.999 109.05C205.599 111.85 206.099 115.1 205.449 118.4Z" fill="#EFF6FF"/>
<path d="M186.6 110.35C186.9 110.55 187.3 110.65 187.65 110.65C188.5 110.65 189.3 110.15 189.8 109.4C190.15 108.85 190.3 108.15 190.2 107.55C190.1 106.95 189.8 106.4 189.3 106.1L189 105.95C188.75 106.1 188.55 106.3 188.35 106.5C188.3 106.55 188.2 106.6 188.1 106.7C187.8 106.95 187.55 107.2 187.3 107.5L187.25 107.55C187 107.85 186.7 108.15 186.5 108.45C186.4 108.55 186.35 108.7 186.25 108.8C186.1 109 185.95 109.2 185.85 109.4C186 109.8 186.25 110.15 186.6 110.35ZM183.15 143.5C184.4 144.2 185.8 144.6 187.25 144.6C188.85 144.6 190.4 144.15 191.75 143.3C193.05 142.45 194.2 141.2 194.8 139.85C195.2 139 195.85 137.15 195.4 136.5C195.3 136.35 195.15 136.25 194.9 136.25H194.65C194.55 136.3 185.55 140.1 180.85 140.25C180.6 140.25 180.55 140.35 180.55 140.4C180.4 141.05 182.75 143.25 183.15 143.5Z" fill="black"/>
<path d="M170.05 99.35C169.65 99.3 169.25 99.25 168.85 99.25H168.55C164.9 99.45 161.65 102.8 160.7 107.45C159.75 112.15 161.6 116.6 164.95 118.1C165.35 118.25 165.75 118.4 166.2 118.5C166.6 118.6 167 118.6 167.35 118.6C171.1 118.6 174.55 115.15 175.5 110.4C176.6 105.1 174.15 100.15 170.05 99.35ZM167.85 104.45C167.35 105.25 166.45 105.8 165.6 105.8C165.2 105.8 164.8 105.7 164.45 105.45C163.9 105.1 163.55 104.55 163.45 103.9C163.35 103.3 163.5 102.65 163.8 102.05C163.8 102 163.85 101.95 163.85 101.9C164.1 101.45 164.5 101.1 164.9 100.9C165.25 100.7 165.7 100.6 166.1 100.6C166.5 100.6 166.9 100.7 167.25 100.95C167.8 101.3 168.15 101.85 168.25 102.5C168.4 103.15 168.25 103.85 167.85 104.45Z" fill="#EFF6FF"/>
<path d="M197.099 98.3499C197.199 98.3499 197.299 98.3999 197.299 98.3999C197.599 98.4999 197.949 98.5999 198.299 98.7499C198.899 98.9999 199.549 99.2499 200.199 99.5499C201.499 100.15 202.749 100.75 203.849 101.4L204.199 101.6C204.449 101.75 204.649 101.85 204.899 102C204.999 102.05 205.049 102.05 205.149 102.05C205.249 102.05 205.299 102 205.399 101.95C205.499 101.85 205.599 101.6 205.599 101.4C205.549 98.8499 201.249 94.1499 198.299 94.1499H198.049C196.999 94.2499 196.249 94.9999 196.149 95.9999C196.099 96.6999 196.199 97.5999 196.449 98.2499C196.449 98.1999 196.899 98.2999 197.099 98.3499Z" fill="#4F5C72"/>
<path d="M197.75 220.2C197.25 219.9 196.8 219.6 196.35 219.25C195.6 218.65 194.65 217.85 194.1 216.8V216.75C193.5 215.55 193.95 214.7 194.8 213.85C196.15 212.45 197.25 210.5 198.15 207.9C198.25 207.65 198.45 207.05 198.15 206.8C197.95 206.65 197.6 206.75 197.1 207.05L196.2 207.65C195.05 208.4 193.85 209.2 192.5 209.5C191.25 209.75 189.7 209.55 189.3 208.35C189.05 207.6 189.5 206.95 190 206.3C190.1 206.2 190.15 206.1 190.2 206C189.1 200.4 189.2 194.95 190.55 189.85C172.9 188.25 160.75 184.25 153.65 181.1C146.25 177.85 142.7 174.95 142.35 174.7C142.35 178.15 142.35 181.2 142.45 182.2C142.45 182.25 140.9 186.1 138.2 186.55C138.05 186.6 137.85 186.6 137.7 186.6C136.35 186.6 134.9 185.7 133.5 184C133.65 186.9 133.9 189.8 134.25 192.65C135.1 198.7 137.1 204.25 140.15 209.1C141.9 211.9 144.05 214.45 146.45 216.7C151.1 221.05 156.9 224.35 163.55 226.4H163.6C165.9 227.1 168.35 227.7 170.85 228.1C173.7 228.55 176.55 228.75 179.35 228.65C187.1 228.45 194.9 226.25 201.95 222.2C200.65 221.75 199.35 221.1 197.75 220.2Z" fill="#3B82F6"/>
<path d="M232.7 111.3C232.7 111.3 231.15 108.3 228.2 104.8C227.25 103.65 226.2 102.6 225.05 101.55C215.15 92.4 194.55 82.55 178.5 82.55C173.7 82.55 169.5 83.4 165.95 85.1L164.75 85.7C163.7 86.25 162.75 86.95 161.85 87.65C161.65 88.05 149.3 108.2 141 134.55C141.45 134.4 141.9 134.3 142.35 134.2C145.5 133.4 148.45 133.3 150.95 133.85H151C151 133.85 152.6 135.1 152.3 136.75C151.95 138.6 149.65 140.2 145.35 141.55C149.75 149.6 150.3 152.2 148.55 157.15C148.45 157.35 146.45 161.55 144.15 162.15C143.55 162.3 143 162.2 142.5 161.9C142.5 162.85 142.45 169.2 142.4 174.65L142.45 174.6C142.5 174.65 146.05 177.65 153.75 181.05C160.85 184.15 173 188.2 190.65 189.75C193.2 180 200.25 171.25 209.65 166.4C212.55 164.9 215.85 164.1 219.1 164.05C221.2 164 223.35 164.3 225.4 164.9C226.2 165.15 226.9 165.5 227.55 165.95C227.55 165.15 227.5 164.3 227.45 163.55C227 153.3 227.25 145.25 229.8 136.8C232.1 128.8 234.8 119.7 232.7 111.3ZM175.7 110.45C174.75 115.25 171.25 118.75 167.4 118.75C167 118.75 166.6 118.7 166.2 118.65C162.05 117.8 159.55 112.75 160.6 107.45C161.55 102.65 165.05 99.15 168.9 99.15C169.3 99.15 169.7 99.2 170.1 99.25C174.25 100.05 176.75 105.1 175.7 110.45ZM176.05 93.8L176 93.85C174.85 93.7 173.5 93.65 172.05 93.65C168.95 93.65 166.25 93.95 166.25 93.95C166.15 93.95 166.1 93.9 166.05 93.85C165.95 93.7 166 93.35 166.05 93.2C166.8 91.1 172.9 90.1 173.15 90.05C174.75 89.85 175.8 90.15 176.25 90.85C176.95 92 176.1 93.75 176.05 93.8ZM196 95.9C196.1 94.85 196.9 94.05 198 93.9H198.25C201.25 93.9 205.65 98.7 205.7 101.3C205.7 101.55 205.6 101.85 205.45 101.95C205.35 102.05 205.25 102.1 205.1 102.1C205 102.1 204.9 102.1 204.8 102C204.55 101.9 204.35 101.75 204.1 101.6L203.75 101.4C202.6 100.8 201.4 100.15 200.1 99.6C199.45 99.3 198.8 99.05 198.2 98.8C197.85 98.7 197.55 98.55 197.2 98.45C197.15 98.45 197.1 98.4 197 98.4C196.4 98.25 196.25 98.2 196.2 98.1C196.05 97.55 195.9 96.65 196 95.9ZM194.95 139.9C194.3 141.25 193.2 142.55 191.85 143.4C190.5 144.25 188.9 144.75 187.3 144.75C185.8 144.75 184.4 144.35 183.1 143.65C182.8 143.45 180.25 141.2 180.45 140.45C180.5 140.3 180.65 140.2 180.9 140.2C185.6 140.1 194.6 136.25 194.7 136.2C194.8 136.2 194.9 136.15 194.95 136.15C195.25 136.15 195.45 136.25 195.6 136.45C196.15 137.3 195 139.8 194.95 139.9ZM205.55 118.4C204.5 123.55 200.75 127.6 196.15 128.55C197.4 129 198.7 129.6 199.95 130.45L199.85 130.55C192.5 125.65 184.8 128.75 184.7 128.75L184.65 128.6C184.7 128.6 186.65 127.8 189.55 127.65C187.4 126.55 185.65 124.65 184.55 122.25C183.45 119.75 183.15 116.8 183.7 114C184.05 112.3 184.65 110.75 185.55 109.3C186.4 107.9 187.55 106.7 188.8 105.8H188.85C190.75 104.4 192.9 103.7 195.1 103.7C195.75 103.7 196.4 103.75 197.05 103.9C199.95 104.5 202.45 106.3 204 109.1C205.75 111.8 206.25 115.1 205.55 118.4Z" fill="#8CB0DC"/>
<path d="M227.001 61.2V61.4999C223.351 59.6999 219.501 58.25 215.701 56.95C215.301 56.8 214.951 56.6999 214.551 56.5499H214.501C214.501 56.3499 214.551 55.4999 215.201 54.8499C215.601 54.4499 216.151 54.25 216.851 54.15C217.401 54.05 218.101 54.05 218.901 54.15L219.951 54.2999C221.051 54.4499 222.151 54.5499 223.051 54.7999C225.551 55.4999 227.251 56.9 227.001 61.2ZM227.551 103.9C226.801 103.05 225.951 102.25 225.101 101.45C220.301 96.9999 212.651 92.2499 204.601 88.6999C198.051 85.7999 188.201 82.4 178.451 82.4C172.101 82.4 166.801 83.8999 162.701 86.8499C162.351 87.0999 162.051 87.3499 161.751 87.5999L161.651 87.55C159.901 86.4 158.101 85.2 156.351 84.05C155.951 83.8 155.501 83.5 155.101 83.25C153.751 82.4 152.301 81.45 150.901 80.4C147.101 77.6 143.701 73.9499 144.501 68.9999C144.751 67.2999 146.051 65.4499 147.751 64.2499C148.551 63.6999 149.451 63.1999 150.551 62.7999C151.501 62.3999 152.501 62.0999 153.651 61.7999C158.651 60.4999 166.051 59.9499 177.151 59.8499H184.501C194.901 59.9499 203.201 64.7499 207.901 73.3499C208.051 73.5999 222.601 96.4 227.551 103.9Z" fill="#3B8EEC"/>
<path d="M149.999 97.7H150.049C150.249 97.9 150.449 98 150.649 98.05C150.749 98.05 150.849 98.1 150.949 98.1C151.699 98.1 152.399 97.45 152.649 96.55C152.849 95.8 152.649 95.05 152.199 94.6V94.55C152.199 93.3 151.499 92.3 150.499 92.05C150.349 92 150.199 92 150.049 92C148.899 92 147.849 92.95 147.499 94.3C147.099 95.85 147.849 97.4 149.099 97.7C149.399 97.75 149.699 97.75 149.999 97.7ZM126.949 93.05C127.799 94 129.049 94.5 130.449 94.5C131.949 94.5 133.449 93.9 134.599 92.8L134.949 92.45L134.999 92.4L135.049 92.45C135.699 93.3 136.549 93.75 137.399 93.75C137.549 93.75 137.699 93.75 137.849 93.7C138.599 93.55 139.249 93 139.649 92.2C140.049 91.35 140.149 90.35 139.949 89.35C139.549 87.5 138.199 86.1 136.749 86.1C136.599 86.1 136.449 86.1 136.299 86.15H136.199V86.1C135.999 85.75 135.799 85.45 135.549 85.2C134.699 84.25 133.449 83.75 132.049 83.75C130.549 83.75 129.049 84.35 127.899 85.45C125.449 87.65 125.049 91.05 126.949 93.05Z" fill="#BFDBFE"/>
<path d="M156.901 234.7L146.051 248.4C144.651 247.7 143.301 247 142.051 246.35C126.051 237.95 120.251 232.15 118.701 230.35L118.651 230.3C118.501 230.1 118.401 230 118.301 229.9H118.351L133.251 231.75H133.301V231.7C135.301 228.25 136.751 225.05 137.751 222.2C138.551 222.8 139.451 223.4 140.351 224C144.051 226.55 148.351 229.45 152.401 232C154.001 232.95 155.501 233.9 156.901 234.7Z" fill="#8CB0DC"/>
<path d="M163.401 226.5L157.001 234.6C155.601 233.8 154.101 232.9 152.551 231.9C148.501 229.35 144.151 226.45 140.451 223.9C139.551 223.25 138.651 222.65 137.801 222.05C140.051 215.65 140.151 211.05 140.151 209.65V209.45C140.651 210.2 141.151 211 141.751 211.7C141.901 211.95 142.101 212.15 142.301 212.4L142.401 212.5C143.401 213.75 144.501 214.95 145.651 216.1C150.401 220.75 156.401 224.3 163.401 226.5Z" fill="#3B82F6"/>
<path d="M27.2 52.8499H26.95C21.85 53.1499 17.85 55.2 15.7 58.5499C13.95 61.2999 13.6 64.65 14.7 67.6C16.2 71.45 20.35 73.85 25.45 73.85C27.55 73.85 29.65 73.45 31.7 72.65C32.2 72.45 32.7 72.25 33.3 71.95L33.4 71.9V72C33 80.35 38.65 88.1 47.05 90.9C49.2 91.6 51.4 91.95 53.6 91.95C58.5 91.95 63.15 90.2 66.65 87L66.7 86.95L66.75 87.05C68.95 91.55 73 94.8 77.85 95.9C79.05 96.2 80.3 96.35 81.55 96.35C87.45 96.35 93 93.1 96.1 87.9L96.15 87.8L96.2 87.9C97.6 90.95 99.95 92.8 102.45 92.8H102.55C105.05 92.75 107.35 90.85 108.6 87.75L108.65 87.7H108.7C110.1 88.25 111.55 88.5 113 88.5C115.95 88.5 118.65 87.35 120.55 85.3C124.15 81.35 123.95 75.05 120.1 70.55L119.95 70.4L120.15 70.45C120.85 70.6 121.5 70.65 122.15 70.65C124.45 70.65 126.5 69.8 127.9 68.3C131.15 64.75 130.1 58.5499 125.6 54.45C125.1 54 124.55 53.55 123.95 53.15L123.9 53.0999L123.95 53.0499C127.65 48.5499 128.15 42.4 125.3 37.5C122.9 33.2999 118.3 30.7 113.4 30.7C111.55 30.7 109.7 31.0499 107.95 31.7999L107.85 31.85V31.75C109.35 19.85 103.9 8.64995 93.9 3.19995C90.6 1.39995 86.9 0.449951 82.9 0.449951C73.45 0.449951 63.1 5.84995 56.55 14.2L56.5 14.3L56.45 14.2C53.45 9.69995 48 4.29995 39.25 4.29995C24.55 4.19995 12.5 15.75 12.5 29.9C12.5 39.5 18.05 48.25 26.95 52.7L27.2 52.8499Z" fill="#BFDBFE"/>
<path d="M226.6 201.05C225.35 204.2 223.8 207.3 221.9 210.3C220.6 212.35 219.25 214.25 217.7 216.15L217.65 216.25C216.4 217.75 215.15 219.3 213.75 220.65C212.15 222.25 210.35 223.1 208.25 223.3C207.6 223.35 206.9 223.35 206.2 223.25H206.15C205.55 223.2 205 223.05 204.35 222.9C203.95 222.8 203.55 222.7 203.1 222.5C202.75 222.4 202.4 222.25 202.05 222.1C200.75 221.6 199.45 220.9 197.8 220C197.3 219.75 196.85 219.4 196.4 219.1C195.65 218.5 194.7 217.7 194.15 216.65C193.6 215.5 194 214.7 194.8 213.9C196.2 212.45 197.3 210.5 198.2 207.9C198.3 207.6 198.55 206.95 198.2 206.65C198.1 206.6 198 206.55 197.9 206.55C197.55 206.55 197.15 206.8 197 206.9L196.1 207.5C194.95 208.25 193.8 209.05 192.45 209.3C191.65 209.45 190.05 209.5 189.55 208.45C189.5 208.4 189.5 208.3 189.45 208.25C189.4 208.1 189.4 207.9 189.4 207.75C189.45 207.25 189.75 206.8 190.15 206.35C190.65 205.75 191.1 205.15 191.55 204.55L192.45 203.35C193.25 202.2 194.15 201.05 195.35 200.35C196.1 199.95 196.95 199.6 197.75 199.3C198.1 199.15 198.45 199.05 198.8 198.9C199.4 198.65 199.95 198.45 200.55 198.2L201.2 197.95C202.85 194.75 204.3 191.75 205.4 188.9L205.95 189.45L206.1 189.6C206.15 189.65 206.25 189.7 206.3 189.8C209.1 192.35 214.3 196.65 219.9 199.15C220.9 199.6 221.9 200 222.9 200.3C224.2 200.65 225.45 200.95 226.6 201.05Z" fill="#3B8EEC"/>
<path d="M205.649 255.45C203.049 256 197.449 255.35 191.799 254.4C184.299 253.15 176.699 251.4 175.949 251.2L178.249 236.2C181.249 237.1 187.499 238.75 194.899 239.65C197.949 240 201.249 240.25 204.549 240.25H205.599C203.099 243.55 200.949 246.45 199.899 248.4L199.849 248.45L199.899 248.5C202.599 250.85 205.249 254.8 205.649 255.45ZM229.949 185.6C229.849 188.05 229.499 190.6 228.999 193.05C228.449 195.7 227.649 198.3 226.649 200.9C225.499 200.8 224.249 200.55 222.949 200.15C221.949 199.85 220.949 199.45 219.949 199C213.649 196.2 207.849 191.1 205.449 188.8C207.749 183.05 208.349 179.55 208.549 178.25V178.2C210.149 177.25 211.749 176.5 213.299 175.95C215.899 175.05 219.249 174.5 222.299 174.85C224.149 175.05 225.949 175.6 227.349 176.65C228.699 177.65 229.349 178.9 229.699 180.3C230.149 182 230.049 183.85 229.949 185.6Z" fill="#8CB0DC"/>
<path d="M227.551 205.7L227.451 206.05C223.451 217.5 215.601 227.5 209.301 235.5C208.001 237.15 206.801 238.65 205.701 240.15C202.001 240.2 198.351 239.95 195.001 239.55C187.551 238.65 181.251 236.95 178.301 236.1L179.301 229.65L179.401 228.85C187.201 228.65 195.051 226.4 202.101 222.35C204.051 223.15 205.851 223.55 207.451 223.55C209.901 223.55 212.001 222.65 213.901 220.8C215.301 219.4 216.551 217.85 217.801 216.35L217.901 216.25C219.451 214.35 220.851 212.4 222.151 210.4C224.051 207.4 225.651 204.25 226.901 201.05C227.901 198.45 228.701 195.75 229.251 193.1C229.751 190.65 230.051 188.2 230.201 185.75C230.551 186.05 230.951 186.25 231.351 186.3C231.401 194.75 229.451 200.3 227.551 205.7Z" fill="#3B82F6"/>
<path d="M233.301 184.4C233.301 185.2 232.901 185.85 232.301 186.1C231.601 186.4 230.751 186.2 230.051 185.6C230.201 182.55 230.351 178.8 227.351 176.6C223.951 174.05 218.451 174.35 214.301 175.5C213.901 175.6 213.551 175.75 213.151 175.85C211.551 176.4 209.901 177.15 208.301 178.1L207.101 178.85L207.201 178.95C207.551 178.7 207.901 178.5 208.251 178.3C208.051 179.65 207.451 183.15 205.151 188.8C204.001 191.65 202.601 194.7 200.901 197.9L200.301 198.15C199.701 198.4 199.151 198.6 198.551 198.85C198.201 199 197.851 199.1 197.501 199.25C196.701 199.55 195.851 199.85 195.101 200.3C193.851 201 192.951 202.2 192.151 203.35C192.101 203.45 192.001 203.55 191.951 203.65C191.701 203.95 191.501 204.25 191.251 204.55C190.901 205 190.551 205.5 190.201 205.95C189.151 200.4 189.251 195 190.551 189.9C193.051 180.15 200.151 171.45 209.501 166.6C211.151 165.75 212.851 165.15 214.651 164.75C216.101 164.45 217.551 164.25 219.001 164.25C221.051 164.25 223.101 164.5 225.101 165.1C225.901 165.35 226.651 165.7 227.301 166.2C228.751 167.15 229.901 168.6 230.951 170.85C232.451 174.2 232.851 178.1 233.051 181.45C233.301 182.35 233.351 183.45 233.301 184.4Z" fill="#3B82F6"/>
<path d="M232.75 111.15C232.45 110.6 230.95 107.85 228.25 104.7C225.8 101.05 219.6 91.4501 214.7 83.8001C211 78.0501 208.05 73.4001 208 73.2501C203.25 64.6001 194.9 59.7501 184.5 59.6501H181C181.25 59.1501 182.2 57.3001 183.65 54.2501C186.1 49.0501 193.35 48.8501 205.75 53.6001C206.25 53.8001 206.75 54.0001 207.3 54.2001C208.7 54.7001 210.3 55.2501 211.9 55.8001C212.7 56.0501 213.55 56.3501 214.4 56.6501C219.85 58.5001 228.35 61.3501 234.75 66.5501C234.15 85.0001 224.7 99.0001 224.6 99.1501L224.7 99.2501C224.8 99.1001 234.25 85.1001 234.9 66.6501C238.25 69.4001 241 72.7501 242.4 76.9501C245.4 85.7501 242.15 97.2501 232.75 111.15Z" fill="#3B8EEC"/>
<path d="M177.301 59.6501H180.851C181.001 59.3501 181.951 57.5501 183.451 54.3501C179.751 55.8501 177.651 59.1001 177.301 59.6501Z" fill="#76B3FF"/>
<path d="M132.7 181.3C132.5 181.3 131.7 181.3 130.6 181.2C129.2 181.1 127.25 180.75 125.25 180.05C121.65 178.8 117.05 175.95 115.35 169.55C117.2 170.55 120.5 172 124.2 172.05H124.25C127.2 172.05 130.35 171.15 133.25 168.35C132.4 172.2 132.55 178.1 132.7 181.3Z" fill="#8CB0DC"/>
<path d="M142.301 182.25C142.201 182.5 140.701 186.1 138.151 186.5C136.651 186.75 135.051 185.85 133.451 183.8C133.301 183.65 133.151 183.4 133.001 183.2C133.001 183.1 132.951 182.4 132.901 181.35C132.901 181.05 132.851 180.75 132.851 180.4C132.701 177.05 132.651 171.85 133.401 168.4C133.401 168.4 133.451 168.3 133.501 168.15C133.601 167.9 133.801 167.45 134.051 167.05C134.551 166.1 135.351 164.6 136.251 163.65C136.301 163.65 136.401 163.65 136.451 163.7H137.201C139.351 163.7 140.801 162.6 141.801 161.3L141.901 161.4C142.051 161.55 142.201 161.7 142.401 161.8C142.401 162 142.401 163.3 142.351 165.15C142.201 170.45 142.151 180.25 142.301 182.25Z" fill="#3B82F6"/>
<path d="M152.1 136.8C151.8 138.6 149.45 140.15 145.15 141.5L145.05 141.55L145.1 141.6C149.5 149.65 150.05 152.25 148.35 157.15C148.35 157.2 146.3 161.5 144.05 162.1C143.5 162.25 142.95 162.15 142.45 161.85L142.4 161.8C142.25 161.7 142.1 161.6 141.95 161.4L141.8 161.25C141.3 161.75 139.5 163.95 136.45 163.6L136.35 163.55C136.65 163.25 134.75 165.3 133.9 167C133.7 167.45 133.5 167.85 133.35 168.1C130.45 171.05 127.2 172 124.2 171.95C120.55 171.95 117.25 170.5 115.4 169.5C115.35 169.5 115.3 169.45 115.25 169.45C114.95 168.25 114.75 166.9 114.65 165.55C114.3 159.55 117.15 152.85 122.65 146.75C127.65 141.2 134.45 136.75 140.85 134.8C143.55 133.95 146.2 133.6 148.5 133.75C149.3 133.8 150.1 133.9 150.85 134.05C150.95 134.1 151.5 134.6 151.85 135.3C152.05 135.7 152.2 136.25 152.1 136.8Z" fill="#3B8EEC"/>
<path d="M227 61.1501C224.8 60.2501 223.3 59.8 223.3 59.8C223.75 57.95 223.5 56.25 223 54.8C225.55 55.4 227.25 56.8001 227 61.1501Z" fill="#285CB2"/>
<path d="M224.7 99.3999C224.7 99.3999 224.7 99.3499 224.75 99.3499C224.7 99.2999 224.65 99.1999 224.6 99.1499L224.7 99.3999Z" fill="black"/>
<path d="M234.75 66.5C228.35 61.35 219.85 58.45 214.4 56.6C213.55 56.3 212.7 56.05 211.9 55.75C218.05 63.25 216.15 77.05 214.7 83.75C217.9 88.75 221.7 94.6 224.6 99.1C224.7 98.95 234.15 84.95 234.75 66.5Z" fill="#2C75CE"/>
<path d="M242.451 76.9001C241.051 72.7001 238.301 69.3501 234.951 66.6001C234.351 84.4001 225.501 98.3001 224.801 99.3501C226.251 101.6 227.501 103.5 228.301 104.7C231.001 107.85 232.501 110.6 232.801 111.15C242.151 97.2501 245.401 85.7501 242.451 76.9001Z" fill="#285CB2"/>
<path d="M207.9 73.3501C203.2 64.7001 194.9 59.9501 184.5 59.8501H180.85C177 59.8501 173.15 60.3001 169.25 60.2001C173.6 60.8501 177.7 62.1001 181.8 63.5501C185.6 64.8501 189.75 66.3501 192.65 69.2501C195.1 71.7001 196.85 75.9501 192.9 77.9001C188.9 79.8501 183.6 79.4001 179.3 79.4001C176.65 79.4001 173.95 79.9001 171.4 80.7001C167.9 81.8001 165.05 83.8001 162.9 86.8001C163.75 85.6001 167.4 84.6001 168.8 84.1001C170.65 83.4501 172.55 82.9501 174.5 82.7001C179 82.0501 183.55 82.4501 188 83.4001C197.05 85.4001 206 88.8001 213.95 93.5501C218.9 96.5001 223.25 100.1 227.45 104C221.05 93.7001 213.65 83.9001 207.9 73.3501Z" fill="#2C75CE"/>
<path d="M220.801 105.4C222.101 107.1 223.101 108.8 223.851 110.6C230.801 127.2 215.051 146.75 219.051 164.1C221.151 164.05 223.301 164.35 225.351 164.95C226.151 165.2 226.851 165.55 227.501 166C227.501 165.2 227.451 164.35 227.401 163.6C226.951 153.35 227.201 145.3 229.751 136.85C232.151 128.85 234.851 119.75 232.751 111.35C232.751 111.35 231.201 108.35 228.251 104.85C227.301 103.7 226.251 102.65 225.101 101.6C215.201 92.4501 194.601 82.6001 178.551 82.6001C173.151 82.6001 168.551 83.6501 164.801 85.8001C169.201 83.3501 178.651 84.7501 183.251 85.4001C196.351 87.3501 212.551 94.7501 220.801 105.4ZM229.701 180.3C229.651 180.15 229.651 180.05 229.601 179.95C229.601 179.9 229.551 179.8 229.551 179.75C229.501 179.65 229.501 179.55 229.451 179.45C229.401 179.35 229.401 179.3 229.351 179.2C229.301 179.1 229.301 179.05 229.251 178.95L229.101 178.65C229.051 178.6 229.001 178.5 229.001 178.45C228.951 178.35 228.901 178.25 228.801 178.15C228.751 178.1 228.701 178.05 228.651 177.95C228.551 177.85 228.501 177.75 228.401 177.65L228.251 177.5L227.951 177.2L227.851 177.1C227.701 176.95 227.551 176.8 227.351 176.7C225.951 175.65 224.201 175.1 222.301 174.9C219.251 174.55 215.851 175.15 213.301 176C211.701 176.55 210.101 177.3 208.551 178.25V178.3C209.651 178 216.901 176.05 222.801 177.8C223.451 183.25 223.251 190.65 220.001 199.05C221.001 199.5 222.001 199.85 223.001 200.2C224.301 200.6 225.551 200.85 226.701 200.95C227.701 198.35 228.501 195.7 229.051 193.1C229.551 190.65 229.901 188.1 230.001 185.65C230.051 183.85 230.101 182 229.701 180.3Z" fill="#6D7D90"/>
<path d="M206.85 118.2C206.3 123.7 202 127.35 198.35 128.55C198.35 128.55 200 129.65 200.15 130.55C198.3 129.5 196.4 128.55 196.4 128.55C196.4 128.55 196.4 128.5 196.45 128.4C200.95 127.45 204.65 123.45 205.65 118.4C206.3 115.15 205.8 111.85 204.25 109.1C203.2 107.3 201.8 105.9 200.1 104.95C200.05 104.85 200 104.8 199.95 104.7C200 104.75 208.1 106.4 206.85 118.2Z" fill="#6D7D90"/>
<path d="M165.601 105.8C165.201 105.8 164.801 105.7 164.451 105.45C163.901 105.1 163.551 104.55 163.451 103.9C163.351 103.3 163.501 102.65 163.801 102.05C164.151 101.65 164.551 101.25 164.951 100.9C165.301 100.7 165.751 100.6 166.151 100.6C166.551 100.6 166.951 100.7 167.301 100.95C167.851 101.3 168.201 101.85 168.301 102.5C168.401 103.15 168.251 103.85 167.851 104.45C167.351 105.3 166.451 105.8 165.601 105.8Z" fill="black"/>
<path d="M177.001 110.45C176.051 115.9 171.801 119.7 167.551 118.95C166.751 118.8 166.001 118.5 165.301 118.1C165.701 118.25 166.101 118.4 166.551 118.5C166.951 118.6 167.351 118.6 167.701 118.6C171.451 118.6 174.901 115.15 175.851 110.4C176.901 105.15 174.451 100.15 170.401 99.35C170.001 99.3 169.601 99.25 169.201 99.25H168.901C169.601 99.15 170.301 99.15 171.051 99.25C175.301 100 178.001 105 177.001 110.45ZM199.901 248.55V248.45C200.951 246.5 203.101 243.6 205.601 240.3H204.551C201.201 240.3 197.951 240.05 194.901 239.7C192.801 243.75 190.001 249.75 191.801 254.4C197.451 255.35 203.101 256 205.651 255.45C205.251 254.8 202.601 250.85 199.901 248.55Z" fill="#6D7D90"/>
<path d="M231.249 186.3C230.849 186.2 230.449 186.05 230.099 185.75C229.949 188.2 229.649 190.65 229.149 193.1C228.599 195.75 227.799 198.4 226.799 201.05C225.549 204.25 223.949 207.4 222.049 210.4C220.749 212.45 219.399 214.35 217.799 216.25L217.699 216.35C216.449 217.85 215.199 219.4 213.799 220.8C211.949 222.65 209.849 223.55 207.349 223.55C205.749 223.55 203.949 223.15 201.999 222.35C194.949 226.4 187.099 228.65 179.299 228.85L179.199 231.15C179.699 231.45 186.499 231.35 196.799 228.95C201.899 227.6 198.199 233.3 194.899 239.55C198.299 239.95 201.949 240.2 205.599 240.15C206.749 238.65 207.949 237.1 209.199 235.5C215.499 227.5 223.299 217.5 227.349 206.05L227.449 205.7C229.449 200.3 231.399 194.75 231.249 186.3Z" fill="#1851AD"/>
<path d="M133.449 241.6C134.699 242.25 144.649 247.65 146.049 248.35L156.899 234.65C155.499 233.85 153.999 232.95 152.449 231.95C149.899 234.85 144.349 242.3 133.449 241.6Z" fill="#6D7D90"/>
<path d="M145.65 216.15V216.65C145.7 216.95 145.85 217.2 146 217.45C147.05 219.35 148.6 220.95 150.2 222.4C151.55 223.65 153.1 224.8 154 226.4C154.65 227.6 154.5 228.9 153.9 230.05C153.55 230.7 153.05 231.3 152.65 231.9C152.9 232.2 156.95 234.65 157 234.6L163.4 226.5C158.25 224.9 153.4 222.45 149.1 219.15C147.9 218.2 146.75 217.2 145.65 216.15ZM180.35 201.35C173.8 215.1 181.6 214 183.4 220.15C183.4 220.15 178.45 219.1 176.35 215.6C174.6 212.75 176 206.6 180.35 201.35Z" fill="#1851AD"/>
<path d="M110.349 196.1C110.57 196.1 110.749 195.921 110.749 195.7C110.749 195.479 110.57 195.3 110.349 195.3C110.128 195.3 109.949 195.479 109.949 195.7C109.949 195.921 110.128 196.1 110.349 196.1Z" fill="#EFF6FF"/>
<path d="M137.499 178.3C136.099 178.3 134.949 179.45 134.949 180.85C134.949 182.25 136.099 183.4 137.499 183.4C138.899 183.4 140.049 182.25 140.049 180.85C140.049 179.4 138.899 178.3 137.499 178.3ZM137.099 181.85C136.949 182 136.649 182 136.449 181.85C136.299 181.7 136.299 181.4 136.449 181.2C136.599 181.05 136.899 181.05 137.099 181.2C137.299 181.35 137.299 181.65 137.099 181.85ZM137.099 180.45C136.949 180.6 136.649 180.6 136.449 180.45C136.299 180.3 136.299 180 136.449 179.8C136.599 179.65 136.899 179.65 137.099 179.8C137.299 179.95 137.299 180.25 137.099 180.45ZM138.499 181.85C138.349 182 138.049 182 137.849 181.85C137.699 181.7 137.699 181.4 137.849 181.2C137.999 181.05 138.299 181.05 138.499 181.2C138.699 181.35 138.699 181.65 138.499 181.85ZM138.499 180.45C138.349 180.6 138.049 180.6 137.849 180.45C137.699 180.3 137.699 180 137.849 179.8C137.999 179.65 138.299 179.65 138.499 179.8C138.699 179.95 138.699 180.25 138.499 180.45ZM195.199 200.35C195.299 200.3 195.349 200.25 195.449 200.2C195.449 200.1 195.499 199.95 195.549 199.9C195.699 199.75 195.949 199.75 196.099 199.85C196.449 199.7 196.799 199.55 197.149 199.35C196.699 198.75 195.949 198.35 195.149 198.35C193.749 198.35 192.599 199.5 192.599 200.9C192.599 201.35 192.749 201.75 192.949 202.15C193.349 201.5 194.049 201.05 194.699 200.7C194.899 200.6 195.049 200.45 195.199 200.35ZM194.199 199.9C194.349 199.75 194.649 199.75 194.849 199.9C194.999 200.05 194.999 200.35 194.849 200.55C194.699 200.7 194.399 200.7 194.199 200.55C193.999 200.35 193.999 200.05 194.199 199.9Z" fill="#0D3D8C"/>
<path d="M201.9 222.25C194.9 226.25 187.1 228.5 179.3 228.7C176.5 228.8 173.65 228.6 170.8 228.15C168.3 227.75 165.85 227.15 163.55 226.45H163.5C156.85 224.4 151.05 221.1 146.4 216.75C150.1 218.3 180.85 230.8 194.05 216.85C194.6 217.95 195.55 218.75 196.3 219.3C196.75 219.65 197.25 219.95 197.7 220.25C199.35 221.1 200.65 221.75 201.9 222.25ZM233.3 184.4C233.3 185.2 232.9 185.85 232.3 186.1C231.6 186.4 230.75 186.2 230.05 185.6C230.2 182.55 230.35 178.8 227.35 176.6C223.95 174.05 218.45 174.35 214.3 175.5C224.9 170.35 220.05 165.15 219.1 164.25C221.15 164.25 223.2 164.5 225.2 165.1C226 165.35 226.75 165.7 227.4 166.2C228.85 167.15 230 168.6 231.05 170.85C232.55 174.2 232.95 178.1 233.15 181.45C233.3 182.35 233.35 183.45 233.3 184.4Z" fill="#1851AD"/>
<path d="M123.949 172.05C123.999 172.45 124.049 172.9 124.199 173.35C124.899 175.7 126.199 177.95 128.099 179.55C128.799 180.15 129.549 180.6 130.349 181.1C130.399 181.15 130.549 181.25 130.649 181.3C131.749 181.4 132.549 181.4 132.749 181.4C132.599 178.2 132.449 172.3 133.249 168.5L133.149 168.6L133.299 168.3C131.649 169.8 128.499 172.15 123.949 172.05Z" fill="#6D7D90"/>
<path d="M151.851 135.3C151.601 137.3 149.001 140.05 143.401 141.1C142.501 141.25 143.151 144.1 143.151 144.7C143.451 152.1 136.701 157.1 131.501 161.2C128.201 163.8 123.501 167.5 123.901 172.1C128.451 172.2 131.601 169.85 133.201 168.3C133.201 168.25 133.251 168.2 133.251 168.2C133.351 167.95 133.551 167.5 133.801 167.1C134.651 165.45 135.951 163.75 136.251 163.65L136.351 163.7C138.751 164.1 140.151 163 140.901 162.2C141.301 161.8 141.451 161.4 141.701 161.4L141.851 161.55C142.001 161.7 142.151 161.85 142.301 161.95L142.351 162C142.851 162.35 143.401 162.45 143.951 162.25C146.201 161.65 148.251 157.35 148.251 157.3C149.951 152.45 149.401 149.8 145.001 141.75L144.951 141.7L145.051 141.65C149.351 140.3 151.701 138.7 152.001 136.95C152.201 136.25 152.051 135.7 151.851 135.3Z" fill="#2C75CE"/>
<path d="M142.3 161.9C142.3 162.1 142.3 163.4 142.25 165.25C142.2 168.35 138.65 169.2 136.45 170.45C132.65 172.55 133.2 176.7 132.8 180.5C132.65 177.15 132.6 171.95 133.35 168.5C133.35 168.5 133.4 168.4 133.45 168.25C133.55 168 133.75 167.55 134 167.15C134.5 166.2 135.3 164.7 136.2 163.75C136.25 163.75 136.35 163.75 136.4 163.8H137.1C139.25 163.8 140.7 162.7 141.7 161.4L141.8 161.5C141.95 161.65 142.15 161.8 142.3 161.9ZM143.35 175.45C142.95 175.2 143.55 179.15 143.35 182.3C143.4 183.35 140.2 188.95 135.35 185.9C135.35 185.9 139.1 189.05 142.3 182.65L142.35 174.8C142.35 174.8 142.25 174.85 143.35 175.45Z" fill="#1851AD"/>
<path d="M222.9 200.25C221.9 199.95 220.9 199.55 219.9 199.1C220.45 199.35 214.75 209 214.25 209.8C210.15 215.9 203.3 219.85 196.45 215.2C195.9 214.85 195.35 214.4 194.9 213.95C194.1 214.8 193.7 215.55 194.25 216.7C194.75 217.75 195.7 218.55 196.5 219.15C196.95 219.5 197.4 219.8 197.9 220.05C199.5 220.95 200.85 221.65 202.15 222.15C202.5 222.3 202.85 222.4 203.2 222.55C203.15 222.6 203.1 222.6 203.1 222.65L204.45 222.9C205.05 223.05 205.65 223.2 206.25 223.25H206.3C206.65 223.3 207 223.3 207.35 223.3H208.35C210.4 223.1 212.2 222.25 213.85 220.65C215.25 219.3 216.5 217.75 217.75 216.25L217.8 216.15C219.35 214.25 220.75 212.35 222 210.3C223.9 207.3 225.45 204.2 226.7 201.05C225.45 200.95 224.2 200.65 222.9 200.25Z" fill="#2C75CE"/>
<path d="M205.449 118.4C204.449 123.45 200.749 127.45 196.249 128.4C196.149 128.45 196.049 128.45 195.949 128.45C195.499 128.3 195.049 128.2 194.599 128.05C198.599 126.6 201.799 122.55 202.699 117.45C203.349 113.9 202.849 110.3 201.299 107.35C200.749 106.3 200.099 105.4 199.349 104.6C199.549 104.7 199.699 104.75 199.899 104.85C201.599 105.75 203.049 107.15 204.049 109C205.599 111.85 206.099 115.1 205.449 118.4ZM170.049 99.35C169.799 99.3 169.499 99.25 169.249 99.25C172.449 100.85 174.199 105.2 173.249 109.8C172.299 114.55 168.849 118 165.099 118H164.699C164.749 118.05 164.849 118.05 164.949 118.1C165.349 118.25 165.749 118.4 166.199 118.5C166.599 118.6 166.999 118.6 167.349 118.6C171.099 118.6 174.549 115.15 175.499 110.4C176.599 105.1 174.149 100.15 170.049 99.35Z" fill="#C5C9CF"/>
<path d="M148.75 96.65C148.9 96.75 149.1 96.8 149.3 96.85C149.6 96.9 149.9 96.9 150.15 96.8H150.25C150.45 96.95 150.65 97.05 150.85 97.1H151.15C151.85 97.05 152.5 96.4 152.65 95.6C152.7 95.25 152.7 94.95 152.6 94.65C152.85 95.1 152.9 95.65 152.75 96.2C152.55 97.1 151.8 97.75 151.05 97.75C150.95 97.75 150.85 97.75 150.75 97.7C150.55 97.65 150.3 97.5 150.15 97.35L150.1 97.3H150.05C149.75 97.35 149.45 97.35 149.15 97.3C147.95 97 147.25 95.6 147.5 94.15C147.45 95.25 147.95 96.25 148.75 96.65ZM139.95 92.15C139.55 92.95 138.9 93.5 138.1 93.65C137.95 93.7 137.8 93.7 137.65 93.7C136.8 93.7 135.8 93.45 135.15 92.6L135.1 92.55L135.05 92.6C134.95 92.7 135 92.55 134.9 92.65C133.7 93.7 132.2 94.25 130.7 94.25C129.3 94.2 127.9 93.8 127.05 92.85C126.65 92.4 126.15 91.4 126.2 90.8C126.55 91.45 126.75 91.7 126.95 91.95C127.85 92.9 129.1 93.35 130.45 93.35C131.95 93.3 133.45 92.6 134.6 91.45C134.7 91.35 134.8 91.25 134.9 91.1L134.95 91.05L135 91.1C135.65 91.9 136.5 92.5 137.35 92.45C137.5 92.45 137.65 92.45 137.8 92.4C138.55 92.25 139.2 91.65 139.55 90.85C139.95 90 140 89 139.8 88V87.95C140.05 88.4 140.2 88.85 140.3 89.35C140.5 90.3 140.35 91.3 139.95 92.15ZM120.2 70.4L120 70.35L120.15 70.5C124 74.95 124.2 81.3 120.6 85.25C118.7 87.35 116 88.45 113.05 88.45C111.6 88.45 110.15 88.2 108.7 87.65H108.65L108.6 87.7C107.3 90.8 105.05 92.7 102.55 92.75H102.45C99.95 92.75 97.6 90.95 96.2 87.85L96.15 87.75L96.1 87.85C93.05 93.05 87.45 96.3 81.55 96.3C80.3 96.3 79.05 96.15 77.85 95.85C73.05 94.7 69 91.5 66.75 87L66.7 86.9L66.65 86.95C63.15 90.15 58.55 91.9 53.6 91.9C51.4 91.9 49.2 91.55 47.05 90.85C42.75 89.4 39.15 86.7 36.75 83.25C42.35 86.4 49.4 87.5 55.45 86.3C58.85 85.6 63.5 84.05 66.2 81.8L66.25 81.75L66.3 81.85C68.65 87.05 74.05 90.6 79.7 90.9C86.7 91.25 92.2 85.4 96.5 80.7C97.3 83.3 99.65 86.3 100.55 86.65C104.5 88.15 105.9 84 106.6 81C108.35 82.1 111.05 82.95 113.15 82.9C122.35 82.65 119.15 72.9 115.35 68.2L115.25 68.05C116.2 69.2 119.7 67.95 120.65 67.45C122.45 66.5 124.05 64.8 124.75 62.9C125.45 60.95 125.3 58.65 124.55 56.75C124.3 56.15 120.5 50.9 119.95 51.6C125.8 44.45 123 34.1 115.25 30.75C119.5 31.3 123.3 33.75 125.4 37.45C128.25 42.4 127.7 48.5 124.05 53L124 53.05L124.05 53.1C124.65 53.5 125.2 53.95 125.7 54.4C130.2 58.5 131.25 64.75 128 68.3C126.6 69.8 124.55 70.65 122.25 70.65C121.55 70.6 120.9 70.55 120.2 70.4Z" fill="#93C5FD"/>
<path d="M165.95 85.1001C156.4 96.6001 146 124.1 142.35 134.25C141.9 134.35 141.45 134.5 141 134.6C149.3 108.25 161.65 88.0501 161.85 87.7001C162.75 86.9501 163.75 86.3001 164.75 85.7501C165.15 85.5001 165.55 85.3001 165.95 85.1001Z" fill="#DBEAFE"/>
<path d="M157.9 85.1001C146.8 78.1001 143.7 73.6001 144.5 68.7001C144.75 67.0001 146.05 65.1501 147.75 63.9501C148.55 63.4001 150.05 62.9001 151.15 62.4501C144.1 68.9001 150.1 79.1001 157.9 85.1001ZM207.3 54.2001C203.6 53.5501 199.95 52.6001 196.25 52.0001C191.25 51.1501 187.05 52.6001 183.8 56.5501C183.55 56.8501 181.9 59.6501 181.6 59.6501H181C181.25 59.1501 182.2 57.3001 183.65 54.2501C186.1 49.0501 193.35 48.8501 205.75 53.6001C206.25 53.8001 206.75 54.0001 207.3 54.2001ZM215.95 57.0001C215.5 56.8501 215.15 56.7501 214.8 56.6001H214.75C214.75 56.4001 214.8 55.5501 215.45 54.9001C215.85 54.5001 216.4 54.3001 217.1 54.2001C215.6 55.6001 215.95 57.0001 215.95 57.0001ZM148.85 134.1C148.15 134.1 139.65 134.55 128.15 143.7C120.4 149.85 114.05 158.75 115.4 169.8V169.9C115.35 169.9 115.3 169.85 115.25 169.85C114.95 168.65 114.75 167.3 114.65 165.95C114.3 159.95 117.15 153.25 122.65 147.15C127.65 141.6 134.45 137.15 140.85 135.2C143.6 134.35 146.5 134 148.85 134.1ZM206.5 189.8L202.25 199.05C195.15 201.05 195.85 200.9 191.95 205.85C191.6 206.3 190.7 207.05 189.6 207.9C189.65 207.4 189.95 206.95 190.35 206.5C190.85 205.9 191.3 205.3 191.75 204.7L192.65 203.5C193.45 202.35 194.35 201.2 195.55 200.5C196.3 200.1 197.15 199.75 197.95 199.45C198.3 199.3 198.65 199.2 199 199.05C199.6 198.8 200.15 198.6 200.75 198.35L201.4 198.1C203.05 194.9 204.5 191.9 205.6 189.05L206.15 189.6C206.15 189.65 206.2 189.7 206.3 189.75C206.4 189.65 206.5 189.7 206.5 189.8Z" fill="#76B3FF"/>
<path d="M206.499 189.8C206.499 189.8 210.149 181.4 208.649 178.1C208.649 178.1 207.299 185 205.599 188.95L206.499 189.8ZM140.399 224C140.199 225.45 139.249 226.9 138.549 228.15C137.699 229.7 136.699 231.15 135.699 232.6C134.349 234.55 131.899 233.7 130.049 233.25C126.849 232.55 124.099 231.95 120.999 231C120.249 230.8 119.499 230.6 118.749 230.3L118.699 230.25C118.599 230.15 118.499 230 118.449 229.85L133.349 231.7H133.399V231.65C135.399 228.2 136.849 225 137.849 222.15C138.599 222.75 139.449 223.35 140.399 224Z" fill="#DBEAFE"/>
<path d="M192.049 203.65C192.049 203.8 192.099 203.95 192.099 204.1L190.299 205.95C189.249 200.4 189.349 195 190.649 189.9C193.149 180.15 200.249 171.45 209.599 166.6C211.249 165.75 212.949 165.15 214.749 164.75C214.049 165 189.199 175.25 192.049 203.65ZM148.149 210.75C148.149 210.75 146.149 197.9 152.349 196.7C157.849 195.65 164.899 201.45 180.199 201.3C180.199 201.3 168.149 199.6 149.999 192.2C149.999 192.25 143.299 202.7 148.149 210.75ZM143.899 176.3C143.899 176.3 148.749 186.35 183.449 189.3C183.449 189.3 160.299 187.1 143.899 176.3ZM134.949 185.75C134.949 185.75 135.249 198.55 139.199 207.1C139.199 207.1 133.499 199.7 133.449 184.25L134.949 185.75ZM132.999 181.45C132.999 181.45 132.999 181.5 133.049 181.55C133.399 182.2 135.399 185.7 139.049 185.8C139.049 185.8 136.499 187.85 132.949 182.8L132.999 181.45ZM140.449 223.85C139.499 223.2 138.649 222.6 137.799 222.05C140.049 215.65 140.149 211.05 140.149 209.65L141.749 211.7L142.299 212.4L142.399 212.5C142.849 218.35 140.849 223 140.449 223.85Z" fill="#60A5FA"/>
<path d="M81.5504 96.7C80.3004 96.7 79.0004 96.55 77.7504 96.25C72.9504 95.15 68.9004 91.95 66.6004 87.5C63.1004 90.6 58.5004 92.3 53.6004 92.3C51.3504 92.3 49.1004 91.95 46.9504 91.2C38.5504 88.4 32.9004 80.75 33.0504 72.45C32.6504 72.65 32.2504 72.8 31.8504 72.95C29.7504 73.75 27.6004 74.2 25.4504 74.2C20.1504 74.2 15.9004 71.7 14.3504 67.7C13.2004 64.7 13.5504 61.2 15.3504 58.35C17.4004 55.1 21.1504 53.1 25.9004 52.55C17.4004 47.9 12.1504 39.3 12.1504 29.85C12.1504 15.45 24.3504 3.8 39.3504 3.8C48.0504 3.8 53.5004 9 56.6004 13.55C63.3004 5.2 73.3504 0 83.0004 0C87.0504 0 90.8004 0.95 94.2004 2.75C104.2 8.2 109.7 19.35 108.4 31.2C110.05 30.6 111.75 30.25 113.5 30.25C118.55 30.25 123.25 32.9 125.7 37.2C128.6 42.2 128.1 48.3 124.5 52.95C125 53.3 125.5 53.7 125.95 54.1C130.6 58.35 131.65 64.8 128.25 68.45C126.8 70.05 124.65 70.9 122.25 70.9C121.8 70.9 121.35 70.85 120.9 70.8C124.4 75.35 124.45 81.55 120.9 85.45C118.95 87.6 116.15 88.8 113.1 88.8C111.7 88.8 110.25 88.55 108.9 88.05C107.55 91.15 105.2 93 102.65 93.05H102.5C100 93.05 97.6504 91.35 96.1504 88.45C92.9004 93.6 87.4004 96.7 81.5504 96.7ZM66.7504 86.65L66.9004 87C69.1004 91.45 73.1004 94.65 77.8504 95.75C79.0504 96.05 80.3004 96.15 81.5004 96.15C87.3504 96.15 92.8504 92.95 95.8504 87.8L96.1004 87.35L96.3004 87.85C97.6504 90.85 99.9004 92.6 102.35 92.6H102.45C104.9 92.55 107.05 90.7 108.35 87.65L108.45 87.4L108.7 87.5C110.1 88.05 111.5 88.3 112.95 88.3C115.85 88.3 118.5 87.2 120.35 85.15C123.9 81.3 123.7 75.1 119.9 70.7L119.35 70.1L120.15 70.25C120.8 70.4 121.5 70.45 122.15 70.45C124.4 70.45 126.4 69.65 127.75 68.15C130.9 64.7 129.85 58.6 125.45 54.55C124.95 54.1 124.4 53.65 123.85 53.3L123.6 53.15L123.8 52.9C127.4 48.45 127.95 42.45 125.15 37.55C122.75 33.4 118.3 30.85 113.4 30.85C111.55 30.85 109.75 31.2 108.05 31.9L107.6 32.1L107.65 31.6C109.15 19.8 103.7 8.7 93.8004 3.25C90.5004 1.45 86.8504 0.55 82.9004 0.55C73.5004 0.55 63.2004 5.9 56.7004 14.2L56.4504 14.5L56.2504 14.2C53.2504 9.75 47.9004 4.4 39.2504 4.4C24.5504 4.4 12.6504 15.85 12.6504 29.9C12.6504 39.45 18.1504 48.1 26.9504 52.5L27.9004 52.95L26.8504 53C21.8004 53.3 17.9004 55.3 15.8004 58.6C14.1004 61.3 13.7004 64.6 14.8504 67.45C16.3004 71.25 20.3504 73.6 25.4504 73.6C27.5504 73.6 29.6004 73.2 31.6504 72.4C32.1504 72.2 32.6504 72 33.2004 71.7L33.6504 71.5V72C33.2504 80.25 38.8004 87.9 47.1504 90.7C49.2504 91.4 51.4504 91.75 53.6004 91.75C58.4504 91.75 63.0504 90 66.5004 86.85L66.7504 86.65ZM151 98.45C150.85 98.45 150.75 98.45 150.6 98.4C150.35 98.35 150.15 98.2 149.95 98.05C149.65 98.1 149.35 98.1 149.05 98C147.6 97.65 146.75 95.9 147.2 94.2C147.55 92.7 148.8 91.6 150.05 91.6C150.25 91.6 150.4 91.6 150.6 91.65C151.75 91.95 152.5 93.05 152.6 94.4C153.1 94.95 153.3 95.75 153.05 96.6C152.8 97.7 151.95 98.45 151 98.45ZM150.15 97.45L150.25 97.55C150.4 97.7 150.6 97.8 150.75 97.85C151.45 98.05 152.25 97.4 152.5 96.45C152.65 95.8 152.5 95.1 152.1 94.7L152 94.6V94.5C152 93.35 151.35 92.4 150.45 92.2C150.3 92.15 150.15 92.15 150.05 92.15C149 92.15 148.05 93.05 147.7 94.3C147.35 95.75 148 97.15 149.15 97.45C149.3 97.5 149.4 97.5 149.55 97.5C149.7 97.5 149.8 97.5 149.95 97.45H150.15ZM130.4 94.9C128.9 94.9 127.6 94.35 126.65 93.3C124.65 91.15 125.05 87.5 127.55 85.2C128.8 84.05 130.35 83.4 131.95 83.4C133.45 83.4 134.75 83.95 135.7 85C135.9 85.25 136.1 85.5 136.3 85.8C136.4 85.8 136.55 85.75 136.65 85.75C138.3 85.75 139.75 87.25 140.2 89.3C140.4 90.4 140.3 91.5 139.9 92.4C139.45 93.3 138.75 93.95 137.85 94.1C137.7 94.15 137.5 94.15 137.35 94.15C136.5 94.15 135.6 93.7 134.95 92.95L134.85 93.05C133.55 94.25 132 94.9 130.4 94.9ZM132 84C130.55 84 129.15 84.6 128 85.65C125.75 87.75 125.35 91 127.1 92.95C127.9 93.85 129.1 94.35 130.4 94.35C131.85 94.35 133.25 93.75 134.4 92.7L134.7 92.4L134.95 92.15L135.15 92.4C135.75 93.2 136.55 93.65 137.3 93.65C137.45 93.65 137.6 93.65 137.7 93.6C138.4 93.45 139 92.95 139.35 92.2C139.75 91.4 139.85 90.45 139.65 89.45C139.3 87.7 138 86.35 136.65 86.35C136.5 86.35 136.35 86.35 136.25 86.4L136.05 86.45L135.9 86.25C135.75 85.9 135.5 85.65 135.3 85.35C134.5 84.5 133.3 84 132 84ZM167.4 118.95C167 118.95 166.55 118.9 166.15 118.85C164.05 118.45 162.3 117 161.25 114.8C160.2 112.65 159.9 110 160.4 107.35C161.4 102.45 164.95 98.9 168.9 98.9C169.3 98.9 169.75 98.95 170.15 99C172.25 99.4 174 100.85 175.05 103.05C176.1 105.2 176.4 107.85 175.9 110.5C174.9 115.35 171.3 118.95 167.4 118.95ZM168.9 99.45C165.3 99.45 161.85 102.9 160.95 107.45C160.45 109.95 160.7 112.45 161.75 114.5C162.75 116.5 164.35 117.85 166.25 118.25C166.6 118.35 167 118.35 167.4 118.35C171 118.35 174.45 114.9 175.35 110.35C175.85 107.85 175.6 105.35 174.55 103.3C173.55 101.3 171.95 99.95 170.05 99.55C169.65 99.45 169.25 99.45 168.9 99.45ZM195.9 128.85C195.75 128.85 195.65 128.75 195.6 128.6C195.55 128.45 195.65 128.3 195.85 128.25C200.4 127.4 204.15 123.45 205.2 118.35C205.85 115.15 205.35 111.9 203.8 109.2C202.25 106.55 199.9 104.75 197.05 104.2C194.3 103.65 191.5 104.3 189.1 106.05C187.85 106.95 186.75 108.15 185.95 109.45C185.05 110.85 184.45 112.4 184.1 114.05C182.95 119.7 185.35 125.2 189.95 127.45C190.1 127.5 190.15 127.7 190.1 127.8C190.05 127.95 189.85 128 189.7 127.95C184.9 125.6 182.4 119.85 183.55 113.95C183.9 112.25 184.55 110.6 185.45 109.15C186.35 107.75 187.5 106.5 188.75 105.55C191.3 103.7 194.25 103 197.15 103.6C200.1 104.2 202.65 106.1 204.25 108.9C205.85 111.7 206.35 115.1 205.7 118.45C204.65 123.8 200.7 127.95 195.9 128.8C195.95 128.85 195.95 128.85 195.9 128.85Z" fill="black"/>
<path d="M184.75 128.7C184.75 128.7 184.95 128.6 185.4 128.45C185.6 128.35 185.85 128.3 186.15 128.2C186.45 128.1 186.75 128 187.15 127.9C187.5 127.8 187.9 127.75 188.35 127.65L189.7 127.5C190.15 127.5 190.65 127.45 191.15 127.45H191.9L192.65 127.5C193.15 127.55 193.65 127.65 194.15 127.75C194.65 127.8 195.1 128 195.55 128.1C196 128.2 196.4 128.4 196.8 128.55C197 128.65 197.2 128.7 197.4 128.8C197.6 128.9 197.75 129 197.9 129.1C198.25 129.3 198.55 129.45 198.8 129.6C199.05 129.75 199.25 129.9 199.45 130.05C199.8 130.3 200 130.45 200 130.45C200 130.45 199.75 130.35 199.4 130.15C199.2 130.05 198.95 129.95 198.7 129.8C198.45 129.65 198.1 129.55 197.75 129.4C197.4 129.25 197.05 129.1 196.65 129C196.25 128.9 195.85 128.7 195.4 128.6C194.95 128.5 194.5 128.35 194.05 128.3C193.6 128.2 193.1 128.1 192.6 128.1L191.85 128C191.6 128 191.35 128 191.15 127.95C190.65 127.9 190.2 127.95 189.75 127.95C189.3 128 188.85 128 188.45 128.05L187.25 128.2C186.5 128.3 185.9 128.4 185.5 128.55L184.75 128.7ZM227.5 166.4C227.35 166.4 227.2 166.3 227.2 166.1C227.2 165.25 227.15 164.4 227.1 163.6C226.65 153.3 226.9 145.2 229.45 136.75C231.85 128.8 234.55 119.75 232.45 111.4C232.3 111.1 230.8 108.25 227.95 104.95C227.85 104.85 227.85 104.65 228 104.55C228.1 104.45 228.3 104.45 228.4 104.6C231.4 108.1 232.95 111.15 232.95 111.2V111.25C235.1 119.8 232.35 128.9 229.95 136.95C227.45 145.35 227.2 153.35 227.65 163.6C227.7 164.5 227.7 165.3 227.75 166.15C227.8 166.25 227.65 166.4 227.5 166.4Z" fill="black"/>
<path d="M228.25 105.05V104.8L228.05 104.95C227.1 103.85 226.05 102.75 224.95 101.75C215.1 92.65 194.55 82.8 178.55 82.8C171.75 82.8 166.15 84.5 162 87.9L161.85 88.05L161.7 87.95C159.9 86.75 158.1 85.55 156.25 84.35C155.85 84.1 155.4 83.8 155 83.55C150 80.35 143.15 75.95 144.25 68.95C144.55 67.15 145.9 65.2 147.65 64C152.25 60.9 160.55 59.65 177.25 59.5H184.6C195.1 59.6 203.55 64.45 208.3 73.2C208.45 73.45 224.25 98.25 228.55 104.6L228.35 104.75L228.25 105.05ZM178.5 82.2C194.65 82.2 215.35 92.1 225.3 101.3C225.6 101.55 225.85 101.85 226.15 102.1C220.35 93.25 207.9 73.65 207.75 73.45C203.1 64.9 194.85 60.1 184.55 60.05H177.2C160.6 60.2 152.4 61.4 147.9 64.45C146.25 65.6 145 67.4 144.75 69.05C143.7 75.65 150.1 79.75 155.25 83.05C155.7 83.35 156.1 83.6 156.55 83.85C158.3 85 160.05 86.15 161.85 87.3C166 83.95 171.6 82.2 178.5 82.2Z" fill="black"/>
<path d="M140.851 135H140.751C140.601 134.95 140.501 134.8 140.551 134.65C148.901 108.1 161.351 87.75 161.501 87.55C161.601 87.4 161.751 87.4 161.901 87.45C162.051 87.55 162.051 87.7 162.001 87.85C161.901 88.05 149.451 108.35 141.101 134.85C141.101 134.9 141.001 135 140.851 135ZM178.151 229.05C175.701 229.05 173.251 228.85 170.751 228.45C168.201 228.05 165.751 227.45 163.401 226.75L163.201 226.7C153.101 223.5 145.001 217.5 139.801 209.35C136.701 204.45 134.701 198.9 133.851 192.8C133.451 189.9 133.201 186.95 133.051 183.95C133.051 183.8 133.151 183.65 133.301 183.65C133.451 183.65 133.601 183.75 133.601 183.9C133.701 186.9 134.001 189.85 134.401 192.7C135.251 198.75 137.201 204.2 140.251 209.05C145.401 217.15 153.451 223.1 163.551 226.25L163.751 226.3C166.001 227 168.351 227.55 170.801 227.95C173.601 228.4 176.451 228.6 179.251 228.5C187.001 228.3 194.851 226.05 201.851 222C202.001 221.9 202.151 221.95 202.251 222.1C202.351 222.25 202.301 222.4 202.151 222.5C195.051 226.6 187.151 228.85 179.301 229.05H178.151ZM224.651 99.45C224.601 99.45 224.551 99.45 224.501 99.4C224.351 99.3 224.351 99.15 224.451 99C224.551 98.85 234.001 84.85 234.601 66.45C234.601 66.3 234.751 66.15 234.901 66.2C235.051 66.2 235.201 66.35 235.151 66.5C234.551 85.1 225.001 99.25 224.901 99.35C224.851 99.4 224.751 99.45 224.651 99.45Z" fill="black"/>
<path d="M232.751 111.55C232.701 111.55 232.651 111.55 232.601 111.5C232.451 111.4 232.451 111.25 232.551 111.1C241.951 97.2499 245.201 85.7499 242.251 76.9499C238.201 64.8499 222.701 59.5999 214.401 56.7999C213.551 56.4999 212.701 56.2499 211.901 55.9499C209.651 55.1999 207.501 54.4999 205.701 53.7999C193.401 49.0499 186.251 49.2499 183.851 54.2999C182.151 57.8499 181.151 59.7999 181.101 59.7999C181.051 59.9499 180.851 59.9999 180.701 59.8999C180.551 59.8499 180.501 59.6499 180.601 59.4999C180.601 59.4999 181.651 57.5499 183.301 53.9999C185.851 48.5999 193.251 48.3499 205.851 53.1999C207.651 53.8999 209.751 54.5999 212.001 55.3499C212.801 55.5999 213.651 55.8999 214.501 56.1999C222.901 59.0499 238.551 64.3499 242.701 76.6999C245.701 85.6499 242.401 97.2999 232.901 111.3C232.951 111.5 232.851 111.55 232.751 111.55Z" fill="black"/>
<path d="M177.151 60C177.101 60 177.051 60 177.001 59.95C176.851 59.85 176.801 59.7 176.901 59.55C177.001 59.4 179.201 55.55 183.501 53.9C183.651 53.85 183.801 53.9 183.851 54.05C183.901 54.2 183.851 54.35 183.701 54.4C179.601 55.95 177.451 59.75 177.401 59.8C177.351 59.95 177.251 60 177.151 60ZM227.051 61.85C226.851 61.85 226.751 61.7 226.751 61.55C227.201 55.4 224.151 55 219.851 54.45L218.801 54.3C217.151 54.1 216.001 54.3 215.301 54.95C214.601 55.6 214.651 56.5 214.651 56.5C214.651 56.65 214.551 56.8 214.401 56.8C214.251 56.8 214.101 56.7 214.101 56.55C214.101 56.5 214.001 55.4 214.901 54.55C215.701 53.8 217.051 53.5 218.851 53.75L219.901 53.9C224.101 54.45 227.751 54.9 227.301 61.6C227.351 61.75 227.201 61.85 227.051 61.85ZM165.601 106C165.151 106 164.701 105.9 164.351 105.65C163.151 104.9 162.901 103.2 163.751 101.85C164.301 100.95 165.251 100.4 166.201 100.4C166.651 100.4 167.101 100.5 167.451 100.75C168.651 101.5 168.901 103.2 168.051 104.55C167.451 105.45 166.551 106 165.601 106ZM166.151 101C165.401 101 164.651 101.45 164.201 102.15C163.501 103.25 163.701 104.6 164.651 105.15C164.951 105.35 165.251 105.4 165.601 105.4C166.351 105.4 167.101 104.95 167.551 104.25C168.251 103.15 168.051 101.8 167.101 101.25C166.851 101.1 166.501 101 166.151 101ZM187.701 111C187.251 111 186.801 110.9 186.451 110.65C186.001 110.35 185.701 109.95 185.501 109.45L185.451 109.3L185.501 109.2C186.401 107.8 187.551 106.55 188.801 105.6L188.901 105.5L189.051 105.55C189.201 105.6 189.301 105.65 189.451 105.75C190.051 106.1 190.401 106.7 190.551 107.45C190.651 108.15 190.501 108.9 190.101 109.55C189.551 110.45 188.651 111 187.701 111ZM186.051 109.4C186.201 109.75 186.401 110 186.701 110.2C187.001 110.4 187.301 110.45 187.651 110.45C188.401 110.45 189.151 110 189.601 109.3C189.951 108.75 190.051 108.15 190.001 107.6C189.901 107.05 189.601 106.6 189.201 106.3C189.151 106.25 189.101 106.25 189.001 106.2C187.901 107.05 186.851 108.15 186.051 109.4ZM150.101 212.85C149.351 212.3 148.701 211.55 148.151 210.8C147.851 210.4 147.651 210 147.401 209.6C147.201 209.2 146.951 208.75 146.801 208.3L146.351 206.95C146.251 206.5 146.151 206 146.051 205.55C146.001 205.1 145.951 204.6 145.901 204.15C145.901 203.65 145.901 203.2 145.951 202.7C145.951 202.45 146.001 202.25 146.001 202C146.051 201.75 146.051 201.55 146.101 201.3C146.201 200.85 146.251 200.35 146.401 199.9C146.501 199.45 146.651 199 146.801 198.55L147.251 197.2C147.451 196.75 147.601 196.3 147.801 195.9C148.001 195.45 148.201 195.05 148.401 194.6C148.651 194.2 148.851 193.75 149.101 193.35L149.851 192.15L149.951 192L150.151 192.1C151.351 192.6 152.601 193.1 153.851 193.55L155.701 194.25C156.301 194.5 156.951 194.7 157.551 194.9L159.401 195.55C160.001 195.75 160.651 196 161.251 196.2L165.001 197.4L168.801 198.5C169.451 198.7 170.051 198.9 170.701 199.05L172.601 199.55L174.501 200.05C175.151 200.25 175.801 200.35 176.451 200.45L180.351 201.2L180.751 201.3L180.501 201.6C179.901 202.35 179.301 203.2 178.751 204.05C178.201 204.9 177.701 205.75 177.251 206.65L176.651 208L176.401 208.7L176.151 209.4C176.001 209.9 175.901 210.35 175.801 210.85C175.701 211.35 175.651 211.85 175.651 212.35V213.1C175.651 213.35 175.701 213.6 175.751 213.85L175.801 214.2L175.901 214.55L176.001 214.9C176.051 215 176.101 215.15 176.151 215.25C176.251 215.5 176.351 215.7 176.501 215.9C176.651 216.1 176.751 216.35 176.901 216.55L177.351 217.15L177.901 217.7C178.301 218 178.651 218.35 179.101 218.6C179.301 218.75 179.501 218.85 179.751 219L180.451 219.35C180.901 219.6 181.401 219.7 181.851 219.9C182.351 220.05 182.801 220.2 183.301 220.35C182.801 220.2 182.301 220.1 181.851 219.95C181.401 219.75 180.901 219.65 180.451 219.45L179.751 219.15C179.501 219.05 179.301 218.9 179.101 218.8C178.651 218.55 178.251 218.25 177.851 217.95L177.301 217.45C177.101 217.25 176.951 217.05 176.801 216.85C176.601 216.65 176.501 216.45 176.351 216.2C176.201 216 176.101 215.75 176.001 215.5C175.951 215.4 175.901 215.25 175.851 215.15L175.751 214.8L175.651 214.45L175.601 214.05C175.551 213.8 175.501 213.55 175.501 213.3C175.501 213.05 175.451 212.8 175.451 212.55C175.451 212.05 175.501 211.5 175.551 211L175.851 209.5L176.051 208.75L176.301 208.05C176.501 207.6 176.701 207.1 176.901 206.65C177.351 205.75 177.851 204.85 178.351 203.95C178.901 203.1 179.451 202.25 180.101 201.45L180.251 201.85L176.351 201.15C175.701 201.05 175.051 200.9 174.401 200.75L172.451 200.3L170.501 199.85C169.851 199.7 169.201 199.5 168.601 199.3L164.801 198.2L161.051 196.95C160.401 196.75 159.801 196.55 159.201 196.3L157.351 195.65C156.751 195.4 156.101 195.2 155.501 194.95L153.651 194.25C152.401 193.8 151.201 193.3 149.951 192.8L150.251 192.7L149.501 193.9C149.251 194.3 149.051 194.7 148.801 195.1C148.601 195.5 148.401 195.95 148.151 196.35C147.951 196.8 147.751 197.2 147.601 197.65C147.451 198.1 147.251 198.5 147.101 198.95C146.951 199.4 146.801 199.85 146.701 200.3C146.551 200.75 146.501 201.2 146.401 201.65C146.351 201.9 146.351 202.1 146.301 202.35C146.251 202.6 146.251 202.8 146.201 203.05C146.151 203.5 146.151 204 146.151 204.45C146.151 204.9 146.201 205.4 146.251 205.85C146.301 206.3 146.401 206.8 146.501 207.25C146.601 207.7 146.751 208.15 146.901 208.6C147.051 209.05 147.251 209.45 147.451 209.9C147.651 210.3 147.901 210.75 148.151 211.1C148.751 211.55 149.351 212.25 150.101 212.85ZM146.151 248.85L145.951 248.75C123.051 237.35 118.101 230.25 117.901 229.95L117.551 229.45L133.101 231.35C140.401 218.75 139.801 209.3 139.801 209.2C139.801 209.05 139.901 208.9 140.051 208.9C140.201 208.9 140.351 209 140.351 209.15C140.351 209.25 141.001 218.95 133.501 231.8L133.401 231.95L118.751 230.15C120.351 232 126.851 238.6 145.951 248.15L163.251 226.3C163.351 226.2 163.501 226.15 163.651 226.25C163.751 226.35 163.801 226.5 163.701 226.65L146.151 248.85Z" fill="black"/>
<path d="M156.999 234.95C156.949 234.95 156.899 234.95 156.849 234.9C150.799 231.4 142.999 226.1 137.549 222.3C137.399 222.2 137.399 222.05 137.499 221.9C137.599 221.75 137.749 221.75 137.899 221.85C143.349 225.65 151.099 230.95 157.149 234.45C157.299 234.55 157.349 234.7 157.249 234.85C157.199 234.9 157.099 234.95 156.999 234.95ZM203.149 256C194.799 256 176.649 251.75 175.799 251.55L175.549 251.5L179.049 228.7C179.049 228.55 179.199 228.45 179.349 228.45C179.499 228.45 179.599 228.6 179.599 228.75L176.199 251C178.699 251.6 199.199 256.25 205.349 255.25C204.599 254.15 202.199 250.7 199.799 248.65L199.649 248.5L199.749 248.3C200.799 246.3 202.999 243.35 205.549 240C206.699 238.5 207.899 236.95 209.199 235.3C215.499 227.3 223.299 217.35 227.299 205.9L227.399 205.55C229.299 200.15 231.249 194.6 231.049 186.15C231.049 186 231.149 185.85 231.349 185.85C231.499 185.85 231.649 185.95 231.649 186.15C231.799 194.7 229.849 200.3 227.949 205.75L227.849 206.1C223.799 217.6 215.949 227.6 209.649 235.65C208.349 237.3 207.149 238.85 205.999 240.35C203.549 243.6 201.449 246.4 200.349 248.4C203.249 250.95 205.949 255.15 206.049 255.35L206.249 255.7L205.849 255.8C205.149 255.95 204.249 256 203.149 256Z" fill="black"/>
<path d="M205.25 180.4C205.75 180 206.2 179.5 206.7 179.1C206.95 178.9 207.2 178.65 207.45 178.45C207.7 178.25 208 178.05 208.3 177.9L208.75 177.7L208.7 178.2C208.65 178.65 208.55 179.1 208.5 179.55C208.4 180 208.35 180.45 208.2 180.85C208.1 181.3 208 181.7 207.85 182.15C207.75 182.6 207.6 183 207.5 183.45L207.1 184.7C206.95 185.1 206.8 185.55 206.65 185.95C206.5 186.35 206.35 186.8 206.2 187.2L205.7 188.45C205.4 189.3 205.05 190.1 204.7 190.9C204.35 191.7 204 192.55 203.6 193.35C203.2 194.15 202.85 194.95 202.45 195.75L201.25 198.1L201.2 198.2L201.1 198.25L197.35 199.75C196.7 200 196.1 200.25 195.55 200.55L195.35 200.65L195.15 200.8L194.95 200.95L194.75 201.1C194.65 201.2 194.5 201.3 194.4 201.4C194.3 201.5 194.15 201.6 194.05 201.75C193.6 202.2 193.2 202.75 192.8 203.3L191.6 204.95L190.35 206.55C189.95 207.05 189.5 207.6 189.6 208.15C189.65 208.7 190.1 209.1 190.7 209.25C191.3 209.4 191.95 209.4 192.55 209.2C193.8 208.9 194.95 208.15 196.05 207.4L196.9 206.85C197.05 206.75 197.2 206.65 197.4 206.6C197.6 206.55 197.8 206.45 198.05 206.5C198.1 206.5 198.2 206.55 198.25 206.55C198.3 206.6 198.3 206.55 198.35 206.65L198.4 206.7C198.55 206.85 198.55 206.95 198.6 207.1C198.65 207.35 198.6 207.55 198.55 207.7C198.45 208.05 198.35 208.35 198.2 208.7C197.75 210 197.15 211.25 196.4 212.4C196.05 213 195.6 213.55 195.15 214.05C194.9 214.3 194.7 214.55 194.5 214.8C194.3 215.05 194.2 215.3 194.15 215.6C194.05 216.15 194.3 216.75 194.7 217.3C195.05 217.8 195.5 218.3 196 218.7C196.15 218.8 196.25 218.9 196.4 219L196.5 219.1L196.55 219.15L196.6 219.2L196.8 219.35L197.2 219.65L197.6 219.9C197.85 220.05 198.15 220.25 198.45 220.4C198.75 220.55 199.05 220.75 199.35 220.9C200.55 221.5 201.75 222.1 203 222.55C204.25 223 205.55 223.3 206.85 223.35C208.15 223.4 209.5 223.2 210.7 222.7C211.9 222.2 212.95 221.35 213.85 220.4L214.55 219.65L215.2 218.9C215.65 218.4 216.05 217.9 216.5 217.35C218.2 215.3 219.85 213.15 221.3 210.9C222.75 208.65 224.05 206.3 225.15 203.85C226.25 201.4 227.2 198.85 227.9 196.3C228.6 193.7 229.1 191.05 229.4 188.4C229.5 187.75 229.5 187.05 229.55 186.4C229.6 185.75 229.65 185.05 229.65 184.4C229.7 183.05 229.65 181.7 229.3 180.45C228.95 179.2 228.3 178.05 227.25 177.25C226.25 176.45 225 175.9 223.75 175.6C221.15 175 218.45 175.15 215.85 175.7C215.2 175.85 214.55 176 213.9 176.2L213.4 176.35L213.15 176.45L212.9 176.55L211.95 176.9C210.75 177.4 209.55 178 208.4 178.7C208.25 178.8 208.1 178.75 208 178.6C207.9 178.45 207.95 178.3 208.1 178.2C209.25 177.5 210.5 176.9 211.75 176.35L212.7 176L212.95 175.9L213.2 175.8L213.7 175.65C214.35 175.45 215 175.3 215.7 175.15C218.35 174.6 221.15 174.4 223.85 175.05C225.2 175.35 226.5 175.95 227.6 176.8C228.7 177.65 229.5 178.95 229.8 180.3C230.15 181.65 230.2 183.05 230.15 184.4C230.15 185.1 230.1 185.75 230.05 186.45C230 187.15 229.95 187.8 229.9 188.5C229.6 191.2 229.1 193.85 228.4 196.5L228.15 197.5L227.85 198.45L227.55 199.4L227.2 200.35C226.75 201.6 226.2 202.9 225.65 204.1C224.55 206.55 223.2 208.95 221.75 211.25C220.3 213.55 218.65 215.7 216.9 217.75C216.45 218.25 216.05 218.8 215.6 219.3L214.9 220.05L214.2 220.8C213.25 221.8 212.15 222.65 210.85 223.2C209.55 223.75 208.15 224 206.75 223.9C205.35 223.85 204 223.5 202.7 223.05C201.4 222.6 200.15 222 198.95 221.4C197.75 220.75 196.55 220.1 195.5 219.2C194.95 218.75 194.45 218.25 194.05 217.65C193.7 217.1 193.3 216.35 193.45 215.55C193.6 214.75 194.15 214.2 194.6 213.7C195.05 213.2 195.45 212.7 195.8 212.15C196.5 211.05 197.1 209.85 197.55 208.6C197.65 208.3 197.8 207.95 197.85 207.65C197.9 207.5 197.9 207.35 197.9 207.25C197.9 207.2 197.85 207.15 197.9 207.15L198 207H197.95C197.9 207 197.75 207 197.6 207.05C197.45 207.1 197.35 207.2 197.2 207.25L196.35 207.8C195.25 208.55 194.05 209.35 192.7 209.65C192 209.8 191.3 209.85 190.55 209.65C190.2 209.55 189.85 209.4 189.55 209.1C189.25 208.8 189.05 208.45 189 208.05C188.95 207.65 189.1 207.25 189.3 206.9C189.5 206.6 189.7 206.3 189.9 206.05L191.15 204.45C191.55 203.9 191.95 203.35 192.35 202.85C192.75 202.3 193.15 201.75 193.65 201.25C193.75 201.1 193.9 201 194.05 200.9C194.15 200.8 194.3 200.65 194.45 200.55L194.65 200.4L194.85 200.25L195.05 200.1C195.15 200.05 195.2 200 195.3 199.95C195.9 199.6 196.55 199.35 197.2 199.15C198.45 198.7 199.7 198.15 200.95 197.65L200.8 197.8L202 195.45C202.4 194.65 202.75 193.85 203.15 193.05C203.5 192.25 203.85 191.45 204.25 190.65C204.6 189.85 204.95 189 205.25 188.2L205.7 186.95C205.85 186.55 206 186.1 206.15 185.7C206.3 185.3 206.45 184.85 206.6 184.45L207 183.2C207.15 182.8 207.25 182.35 207.35 181.95C207.45 181.55 207.55 181.1 207.65 180.65C207.75 180.2 207.85 179.8 207.95 179.35C208.05 178.9 208.1 178.5 208.15 178.05L208.55 178.35C208.3 178.45 208 178.6 207.7 178.75C207.4 178.9 207.15 179.1 206.85 179.25C206.35 179.65 205.8 180.05 205.25 180.4Z" fill="black"/>
<path d="M226.7 201.25C225.45 201.15 224.2 200.85 222.85 200.45C215.3 198.1 207.95 191.65 205.15 189C205.05 188.9 205.05 188.7 205.15 188.6C205.25 188.5 205.45 188.5 205.55 188.6C208.35 191.25 215.6 197.6 223 199.9C224.3 200.3 225.55 200.55 226.75 200.65C226.9 200.65 227 200.8 227 200.95C226.95 201.15 226.85 201.25 226.7 201.25ZM190.65 190.15C190.6 190.15 190.6 190.15 190.65 190.15C156.7 187.1 142.35 175.05 142.2 174.9C142.1 174.8 142.05 174.6 142.15 174.5C142.25 174.4 142.45 174.35 142.55 174.45C142.7 174.55 156.95 186.55 190.65 189.55C190.8 189.55 190.9 189.7 190.9 189.85C190.9 190.05 190.8 190.15 190.65 190.15ZM204.55 240.5C193.05 240.5 182.25 237.65 178.1 236.4C177.95 236.35 177.85 236.2 177.9 236.05C177.95 235.9 178.1 235.8 178.25 235.85C182.55 237.15 193.85 240.15 205.7 239.9C205.85 239.9 206 240 206 240.2C206 240.35 205.9 240.5 205.7 240.5H204.55Z" fill="black"/>
<path d="M190.3 206.35C190.15 206.35 190.05 206.25 190 206.1C188.9 200.45 189 194.95 190.35 189.8C192.9 179.95 200.05 171.15 209.45 166.25C214.35 163.7 220.1 163.15 225.35 164.7C226.2 164.95 227 165.35 227.65 165.85C229.15 166.8 230.35 168.35 231.4 170.65C232.95 174.05 233.35 178 233.55 181.4C233.6 182.35 233.65 183.4 233.65 184.4C233.6 185.35 233.2 186.1 232.45 186.4C231.65 186.75 230.6 186.5 229.8 185.8C229.7 185.7 229.7 185.5 229.8 185.4C229.9 185.3 230.1 185.3 230.2 185.4C230.8 185.95 231.6 186.15 232.25 185.9C232.8 185.65 233.1 185.15 233.1 184.4C233.15 183.45 233.05 182.35 233 181.45C232.8 178.1 232.4 174.25 230.9 170.9C229.9 168.7 228.8 167.25 227.35 166.35C226.7 165.85 226 165.5 225.2 165.25C220.15 163.75 214.5 164.3 209.75 166.75C200.45 171.55 193.4 180.25 190.9 189.95C189.6 195.05 189.45 200.45 190.55 206.05V206.1C190.55 206.25 190.45 206.35 190.3 206.35ZM187.3 144.95C185.8 144.95 184.3 144.55 183 143.8C182.75 143.65 180 141.3 180.25 140.35C180.3 140.2 180.4 139.95 180.9 139.95C185.55 139.85 194.5 136 194.6 136H194.65C195.3 135.9 195.6 136.15 195.75 136.4C196.35 137.35 195.35 139.65 195.15 140.1C194.5 141.5 193.35 142.8 191.95 143.7C190.55 144.5 188.95 144.95 187.3 144.95ZM194.75 136.5C194.05 136.8 185.55 140.4 180.85 140.5H180.7C180.65 140.95 182.75 143 183.2 143.3C184.4 144 185.8 144.35 187.2 144.35C188.75 144.35 190.25 143.9 191.55 143.1C192.85 142.3 193.9 141.05 194.5 139.75C194.95 138.8 195.5 137.15 195.15 136.6C195.2 136.55 195.05 136.45 194.75 136.5ZM137.25 162.8C137.15 162.85 137 162.95 136.9 163.05C136.8 163.15 136.7 163.25 136.6 163.3L136.3 163.6C136.2 163.7 136.15 163.8 136.05 163.9C135.7 164.35 135.4 164.8 135.15 165.3C134.85 165.8 134.6 166.25 134.35 166.75L134.15 167.1L134 167.5L133.65 168.25V168.3L133.6 168.35L133.65 168.25L133.55 168.5V168.45L133.4 169.35L133.25 170.25C133.2 170.85 133.1 171.45 133.1 172.1C133.05 172.7 133 173.35 133 173.95C133 174.55 132.95 175.2 132.95 175.8V177.65C132.95 178.25 132.95 178.9 133 179.5C133 180.1 133.05 180.75 133.05 181.35L133.15 183.2L133.1 183.05L133.6 183.65L134.1 184.25L134.65 184.8C134.85 184.95 135.05 185.15 135.25 185.3L135.55 185.55L135.85 185.75C135.95 185.8 136.05 185.85 136.2 185.95C136.3 186 136.4 186.05 136.55 186.1C136.8 186.2 137 186.25 137.25 186.3C137.5 186.35 137.75 186.35 138 186.3C138.25 186.25 138.5 186.2 138.7 186.15C138.95 186.05 139.15 185.95 139.35 185.8L139.95 185.35C140.15 185.2 140.3 185 140.5 184.8C140.85 184.4 141.15 184 141.4 183.55C141.65 183.1 141.9 182.65 142.1 182.15V182.25L142.05 179.7C142.05 178.85 142 178 142 177.15V172.05L142.05 161.85C142.05 161.7 142.2 161.55 142.35 161.55C142.5 161.55 142.65 161.7 142.65 161.85L142.6 172.05V177.15C142.6 178 142.6 178.85 142.65 179.7L142.7 182.25V182.35C142.5 182.85 142.25 183.35 141.95 183.8C141.65 184.25 141.35 184.7 141 185.15L140.4 185.75C140.2 185.95 139.95 186.1 139.75 186.25C139.5 186.4 139.25 186.55 139 186.65C138.75 186.75 138.45 186.8 138.15 186.85C137.85 186.9 137.55 186.85 137.3 186.85C137 186.8 136.75 186.75 136.45 186.65C136.3 186.6 136.2 186.55 136.05 186.5C135.9 186.45 135.8 186.4 135.7 186.3L135.35 186.1L135 185.85C134.75 185.7 134.6 185.5 134.35 185.3L133.75 184.7L133.25 184.1L132.75 183.45L132.7 183.4V183.3L132.55 181.45C132.5 180.8 132.5 180.2 132.45 179.6C132.4 179 132.4 178.35 132.4 177.75V175.9C132.4 175.3 132.4 174.65 132.45 174.05C132.45 173.45 132.55 172.8 132.55 172.2C132.6 171.6 132.7 170.95 132.75 170.35C132.8 170.05 132.85 169.75 132.9 169.4L133.05 168.45V168.35L133.15 168.1V168.05L133.2 168L133.15 168.1L133.5 167.35L133.7 166.95L133.9 166.6C134.15 166.1 134.45 165.65 134.8 165.15C135.1 164.7 135.5 164.25 135.9 163.85L136.2 163.55C136.3 163.45 136.4 163.35 136.55 163.3C136.65 163.2 136.8 163.15 136.9 163.05C137 162.9 137.1 162.85 137.25 162.8Z" fill="black"/>
<path d="M132.451 181.65C130.201 181.65 117.901 181.1 114.951 169.55C114.651 168.3 114.401 166.95 114.351 165.55C113.601 152.65 127.701 138.5 140.801 134.45C141.851 134.1 142.851 133.85 143.801 133.7C145.401 133.4 147.051 133.3 148.801 133.35C151.101 133.45 152.451 134.5 152.501 136.3C152.501 136.95 152.251 137.75 151.801 138.3C151.001 139.35 149.701 140.05 148.801 140.5C148.651 140.55 148.301 140.7 147.701 140.9C147.151 141.1 146.451 141.35 145.601 141.7C146.151 142.65 146.751 143.9 147.401 145.15C148.951 148.3 150.251 151.7 149.251 155.55C148.751 157.5 148.001 159.1 146.951 160.35C145.251 162.35 143.601 163 142.251 162.1C142.101 162 141.651 161.65 141.501 161.45C141.401 161.35 141.401 161.15 141.501 161.05C141.601 160.95 141.801 160.95 141.901 161.05C142.051 161.2 142.401 161.5 142.551 161.6C144.001 162.6 145.651 161 146.501 160C147.451 158.85 148.251 157.25 148.701 155.45C149.651 151.8 148.401 148.45 146.901 145.45C146.201 144.1 145.501 142.75 144.951 141.75L144.801 141.45L145.101 141.35C146.101 140.95 146.951 140.65 147.551 140.45C148.101 140.25 148.451 140.1 148.601 140.05C149.451 139.65 150.651 138.95 151.401 138C151.751 137.55 152.001 136.9 152.001 136.35C151.951 134.5 150.251 134 148.851 133.95C147.151 133.85 145.551 134 144.001 134.3C143.101 134.45 142.101 134.7 141.051 135.05C128.151 139 114.251 152.9 115.001 165.6C115.101 167 115.301 168.3 115.601 169.5C118.751 181.75 132.751 181.2 132.901 181.2C133.051 181.2 133.201 181.3 133.201 181.45C133.201 181.6 133.101 181.75 132.951 181.75C132.801 181.65 132.651 181.65 132.451 181.65Z" fill="black"/>
<path d="M143.65 156.45C143.65 156.45 143.65 156.65 143.6 156.95C143.55 157.25 143.45 157.7 143.3 158.25C143.15 158.8 142.95 159.4 142.65 160C142.35 160.6 141.95 161.25 141.5 161.85C141.25 162.15 141 162.4 140.7 162.65C140.4 162.9 140.1 163.1 139.8 163.25C139.5 163.4 139.15 163.55 138.85 163.65C138.55 163.75 138.25 163.8 137.95 163.85C137.65 163.9 137.4 163.9 137.2 163.9C136.95 163.9 136.8 163.9 136.6 163.85C136.3 163.8 136.1 163.8 136.1 163.8C136.05 163.8 136 163.75 136 163.65C136 163.6 136.05 163.55 136.1 163.55C136.1 163.55 136.3 163.55 136.6 163.6H137.15C137.35 163.6 137.6 163.55 137.85 163.55C138.1 163.5 138.4 163.45 138.7 163.35C139 163.25 139.3 163.15 139.55 163C139.85 162.85 140.15 162.65 140.4 162.45C140.65 162.25 140.9 162 141.15 161.7C141.6 161.15 142 160.55 142.3 159.95C142.6 159.35 142.85 158.75 143.05 158.25C143.55 157.15 143.65 156.45 143.65 156.45ZM124.2 172.3C120.35 172.3 116.9 170.75 115.05 169.7C114.9 169.6 114.85 169.45 114.95 169.3C115.05 169.15 115.2 169.1 115.35 169.2C118.55 171 126.7 174.45 133.2 167.9L133.6 168.3C130.6 171.35 127.3 172.3 124.2 172.3ZM205.15 102.35C205 102.35 204.9 102.3 204.75 102.25C204.5 102.15 204.3 102 204.05 101.9L203.7 101.7C202.55 101.1 201.35 100.45 200.05 99.9001C199.4 99.6001 198.75 99.3501 198.15 99.1001C197.85 99.0001 197.5 98.8501 197.2 98.7501C197.15 98.7501 197.1 98.7501 197 98.7001C196.3 98.5501 196.1 98.4501 196.05 98.3001C195.8 97.6001 195.7 96.6501 195.75 95.9001C195.85 94.7501 196.75 93.8501 197.95 93.7501H198.25C201.4 93.7501 205.85 98.6001 205.9 101.35C205.9 101.7 205.8 102 205.6 102.2C205.5 102.3 205.35 102.35 205.15 102.35ZM196.55 98.0001C196.7 98.0501 197 98.1001 197.15 98.1501C197.25 98.2001 197.35 98.2001 197.4 98.2001C197.75 98.3001 198.05 98.4501 198.4 98.5501C199 98.8001 199.65 99.0501 200.3 99.3501C201.6 99.9501 202.85 100.6 204 101.2L204.35 101.4C204.6 101.5 204.8 101.65 205.05 101.75C205.1 101.8 205.15 101.8 205.2 101.8C205.2 101.8 205.25 101.8 205.3 101.75C205.4 101.65 205.45 101.5 205.45 101.35C205.4 98.8501 200.9 94.0001 198.1 94.3001C197.15 94.4001 196.5 95.0501 196.4 95.9501C196.25 96.6001 196.35 97.4001 196.55 98.0001ZM166.25 94.2001C166.1 94.2001 165.95 94.1501 165.9 94.0001C165.7 93.7001 165.85 93.2501 165.9 93.1501C166.7 91.0001 172.5 90.0001 173.2 89.9001C173.55 89.8501 173.9 89.8501 174.2 89.8501C175.35 89.8501 176.15 90.2001 176.55 90.8501C177.3 92.0501 176.35 93.9001 176.35 93.9501L176.25 94.1001H176.05C174.9 93.9501 173.6 93.9001 172.15 93.9001C168.95 93.8501 166.3 94.2001 166.25 94.2001ZM174.15 90.4001C173.9 90.4001 173.6 90.4001 173.25 90.4501C171.55 90.7001 167 91.8001 166.4 93.3501C166.35 93.4501 166.35 93.5501 166.35 93.6501C166.9 93.6001 169.3 93.3501 172.1 93.3501C173.45 93.3501 174.75 93.4001 175.85 93.5501C176.05 93.1001 176.45 91.9001 176 91.1501C175.7 90.6001 175.05 90.4001 174.15 90.4001Z" fill="black"/>
</g>
<defs>
<clipPath id="clip0_278_297">
<rect width="256" height="256" fill="white"/>
</clipPath>
</defs>
</svg>
