<svg width="256" height="256" viewBox="0 0 256 256" fill="none" xmlns="http://www.w3.org/2000/svg">
<g clip-path="url(#clip0_278_359)">
<g clip-path="url(#clip1_278_359)">
<path d="M107.5 146.7C106.95 145.3 106.3 143.75 105.55 141.7C103.8 136.85 104.25 133.9 105.1 132.2C105.8 130.85 106.75 130.3 107 130.15C104.9 125.9 103.3 121.5 103.1 117C102.9 112.2 102.8 107.35 102.7 102.65C102.55 94.1499 102.4 85.8499 101.5 78.3999H101.45L101.4 78.2499H101.45C101.25 76.5499 101 74.8999 100.7 73.2999C100.45 71.9999 100.2 70.6999 99.8502 69.4499C98.3502 63.3999 95.9502 58.2499 92.0502 54.4999C84.7502 53.5999 77.5002 53.8499 70.4502 55.2499C66.2002 56.0999 62.0002 57.3499 57.9002 58.9999C50.3502 62.0499 43.5002 63.5999 37.4502 63.5999H37.5002C33.3002 63.5999 29.4502 62.8499 26.1502 61.3499C25.7002 61.1499 25.2502 60.9499 24.8502 60.6999C21.2002 58.7999 19.0002 56.2999 17.7502 54.5499C17.2002 55.4999 14.9502 59.6499 12.2502 66.6499C6.75022 80.8999 -1.94978 110.75 1.75022 150.6C3.15022 147.8 5.40022 145.15 8.20022 143.05C9.60022 142 11.0502 141.15 12.7002 140.45C15.8502 139.05 19.4502 138.4 23.4502 138.4C25.8502 138.4 28.4502 138.65 31.1002 139.15C35.2002 139.95 39.4002 141.6 43.5502 144.1C49.2002 147.5 53.4502 151.45 56.2502 155.85C57.1002 157.15 57.8002 158.55 58.4502 159.95C80.7002 163.95 92.5002 158.55 100.3 154.95C104.15 153.2 106.9 151.9 109.55 152.3C108.95 150.3 108.35 148.75 107.5 146.7ZM72.7502 71.4499C73.9502 71.7999 75.3502 71.9499 76.8502 71.9499C77.7502 71.9499 78.6502 71.8999 79.5502 71.7499C80.0002 71.6999 80.4502 71.5999 80.8502 71.5499C81.1502 71.4999 81.4002 71.4499 81.7002 71.3999H81.8502C82.2002 71.3499 82.5502 71.2999 82.9002 71.2999C83.4502 71.2999 83.8502 71.3999 84.2002 71.6499C84.6502 71.9999 84.9002 72.4999 84.8502 73.0999C84.8002 73.6999 84.5002 74.2999 84.0002 74.5999C83.1002 75.1499 82.1002 75.1999 81.2502 75.1999H81.0502C80.5002 75.1999 80.0002 75.1499 79.5502 75.0499C79.5002 75.0499 74.4502 74.2999 72.6002 71.4999L72.5002 71.2999L72.7502 71.4499ZM54.5002 65.0499H54.5502C55.4502 65.0499 56.0502 65.3499 56.4502 65.8999C57.3002 67.1999 56.3502 69.4999 56.3002 69.5999L56.2502 69.6499H56.2002C55.7502 69.5499 55.2002 69.4999 54.5002 69.4999C50.1002 69.3999 54.4502 65.0499 54.5002 65.0499ZM41.9502 82.8999C43.4502 80.2999 45.7002 78.6499 48.3002 78.2499C48.7002 78.1999 49.1002 78.1499 49.5002 78.1499C54.5002 78.1499 58.9502 82.7999 59.9002 88.9999C60.9502 95.7499 57.4502 101.95 52.0502 102.75C51.6502 102.8 51.2502 102.85 50.8502 102.85C45.8502 102.85 41.4002 98.1999 40.4502 91.9999C39.9502 88.7499 40.5002 85.4999 41.9502 82.8999ZM60.5502 121.05C59.1502 124.3 56.2002 125.95 51.8002 125.95C50.6002 125.95 49.3002 125.85 47.8502 125.6C41.8002 124.6 39.2502 118.35 39.9502 113C40.0002 112.8 40.0002 112.55 40.0502 112.4C40.3502 111.1 41.0002 110.45 42.0502 110.45C42.6502 110.45 43.3502 110.65 44.3002 111.05C47.7002 112.55 50.4502 112.85 52.1502 112.85C53.4502 112.85 54.1502 112.65 54.1502 112.65C54.7002 112.5 55.2502 112.45 55.8002 112.45C57.6502 112.45 59.1502 113.25 60.1502 114.75C61.3502 116.5 61.5002 118.9 60.5502 121.05ZM82.5502 99.7499C80.6502 99.7499 73.9502 102.3 76.3502 101.15C72.5502 99.6999 69.6502 95.6999 68.9502 90.8499C68.4502 87.5999 69.0002 84.3499 70.4502 81.7499C71.9502 79.1499 74.2002 77.4999 76.8002 77.0999C77.2002 77.0499 77.6002 76.9999 78.0002 76.9999C83.0002 76.9999 87.4502 81.6499 88.4002 87.8499C89.1502 92.5499 87.6502 97.1999 84.6002 99.7499C82.4502 99.5999 83.1502 99.7499 82.5502 99.7499Z" fill="#8CB0DC"/>
<path d="M54.5008 69.25C55.2008 69.25 55.7508 69.3 56.2008 69.4C56.3508 69 57.0508 67.05 56.3508 65.95C56.0008 65.45 55.4508 65.2 54.6008 65.2H54.5508C54.5008 65.2 49.2508 65.75 41.8008 71.1L41.9508 71.45C42.7508 71.25 50.3008 69.25 54.5008 69.25Z" fill="#4F5C72"/>
<path d="M83.901 99.7C84.051 99.7 84.151 99.75 84.301 99.75C87.351 97.25 88.901 92.6 88.151 87.9C87.201 81.8 82.801 77.2 77.901 77.2C77.501 77.2 77.101 77.25 76.701 77.3C74.151 77.7 71.951 79.3 70.501 81.9C69.051 84.45 68.501 87.65 69.001 90.9C69.751 95.7 72.651 99.7 76.451 101.1C76.601 101.05 76.701 101 76.851 100.95C79.301 99.8 81.701 99.4 83.901 99.7ZM80.701 92.35C80.451 95.25 78.601 97.55 76.451 97.55H76.201C74.001 97.35 72.401 94.7 72.701 91.7C72.951 88.7 74.951 86.35 77.201 86.55C79.401 86.7 81.001 89.3 80.701 92.35Z" fill="#EFF6FF"/>
<path d="M55.8496 112.6H55.5496C55.1996 113 50.3496 118.7 45.4496 118.7H45.1996C43.1996 118.6 41.4996 117.55 40.0996 115.6C40.3996 120.1 42.9496 124.55 47.9496 125.4C49.3496 125.65 50.6996 125.75 51.8496 125.75C56.1496 125.75 59.0496 124.15 60.4496 120.95C61.3496 118.85 61.1996 116.5 60.0996 114.8C59.1496 113.4 57.6496 112.6 55.8496 112.6Z" fill="black"/>
<path d="M45.2008 118.55H45.4508C50.0008 118.55 54.5508 113.55 55.3508 112.65C55.0008 112.7 54.6008 112.75 54.2508 112.8C54.2508 112.8 53.5508 113 52.2008 113C50.5008 113 47.7008 112.7 44.2508 111.2C43.3008 110.8 42.6008 110.6 42.0508 110.6C41.1008 110.6 40.5008 111.15 40.2508 112.4C40.2008 112.6 40.1508 112.8 40.1508 113C40.0508 113.75 40.0508 114.55 40.0508 115.35C41.4508 117.4 43.2008 118.45 45.2008 118.55Z" fill="#EFF6FF"/>
<path d="M49.8004 98.65H50.1004C51.2004 98.55 52.1504 97.85 52.8004 96.7C53.4504 95.55 53.7004 94.05 53.5504 92.55C53.2504 89.6 51.3004 87.3 49.2004 87.3H48.9004C47.8004 87.4 46.8504 88.1 46.2004 89.25C45.5504 90.4 45.3004 91.9 45.4504 93.4C45.7504 96.35 47.6504 98.65 49.8004 98.65Z" fill="black"/>
<path d="M50.8506 102.7C51.2506 102.7 51.6506 102.65 52.0506 102.6C57.3006 101.8 60.8006 95.7001 59.7506 89.0501C58.8006 82.9501 54.4006 78.3501 49.5006 78.3501C49.1006 78.3501 48.7006 78.4001 48.3006 78.4501C45.7506 78.8501 43.5506 80.4501 42.1006 83.0501C40.6506 85.6001 40.1006 88.8001 40.6006 92.0501C41.5506 98.1001 45.9506 102.7 50.8506 102.7ZM46.0506 89.2001C46.7506 88.0001 47.7006 87.3001 48.8506 87.1501H49.2006C51.4006 87.1501 53.4006 89.5001 53.7006 92.5001C53.8506 94.0501 53.6006 95.5501 52.9006 96.7501C52.2006 97.9501 51.2506 98.6501 50.1006 98.8001H49.7506C47.5506 98.8001 45.5506 96.4501 45.2506 93.4501C45.1006 91.9001 45.4006 90.4001 46.0506 89.2001Z" fill="#EFF6FF"/>
<path d="M77.1495 86.6499H76.8995C74.8495 86.6499 73.0995 88.8499 72.8495 91.6999C72.5995 94.6499 74.0995 97.1999 76.1995 97.3999C78.3495 97.5999 80.2495 95.2999 80.4995 92.3999C80.7995 89.3999 79.2995 86.8499 77.1495 86.6499Z" fill="black"/>
<path d="M255.45 38.3001C254.35 7.6001 242.5 1.6001 222.45 1.6001C213.25 1.6001 201.8 3.0001 188.5 4.6001C183.35 5.2501 178 5.9001 172.3 6.5001C158.95 8.0001 151.55 12.2501 148.25 20.3001C145.15 27.9001 145.8 38.5501 146.6 52.0001C146.7 53.8501 146.85 55.8001 146.95 57.8001V57.8501L146.9 57.9001L127.35 73.1501L152.85 66.6001L152.9 66.6501C157.1 76.9001 160.85 80.5001 186.6 80.5001H202.65C226.15 80.5001 241 79.9501 248.55 72.1001C254.15 66.3501 256.15 56.5501 255.45 38.3001Z" fill="#BFDBFE"/>
<path d="M126.849 243.6C124.199 244.3 121.499 244.8 118.749 245.1C104.249 246.7 89.8992 243.3 88.9492 243.05C87.8992 238.05 87.3992 236.6 87.3492 236.55C86.4992 235.25 85.5492 233.85 84.6992 232.5C85.5992 231.95 87.8492 230.65 90.7492 228.95C94.4992 226.75 99.3492 223.95 103.849 221.4C104.849 220.85 105.849 220.3 106.799 219.75C108.449 227.3 110.399 233.35 110.449 233.4V233.45H110.499C119.849 238.45 125.849 242.8 126.849 243.6Z" fill="#8CB0DC"/>
<path d="M106.75 219.65C106.1 220 105.45 220.35 104.8 220.75C104.45 220.95 104.15 221.1 103.8 221.3C99.3 223.85 94.4 226.65 90.65 228.85C87.75 230.55 85.55 231.85 84.6 232.35C83.15 230.15 81.6 227.7 80.2 225.5C77.95 221.95 76.1 219 75.75 218.45C84.35 217.25 91.95 214.8 98.5 211.1C99.35 210.65 100.15 210.1 100.95 209.6C101.2 209.4 101.45 209.25 101.7 209.05L102.9 208.15L103.65 207.55C104 207.3 104.35 207 104.65 206.7V206.95C104.95 210.55 105.6 214.7 106.6 219.3C106.7 219.4 106.75 219.55 106.75 219.65Z" fill="#3B82F6"/>
<path d="M163.599 120.05C163.399 120.1 163.199 120.15 163.049 120.25C162.349 120.55 161.699 121 161.099 121.4C160.899 121.55 160.699 121.7 160.449 121.85C159.349 122.55 158.249 123.3 156.899 124.2C155.949 124.85 155.049 125.5 154.099 126.1C152.749 127.05 151.349 128 149.999 128.9C149.799 128.45 149.549 128 149.249 127.6C148.399 126.55 147.149 125.8 145.449 125.35L145.899 125.05C146.099 124.95 146.249 124.8 146.449 124.7L146.499 124.65L148.049 123.65C149.599 122.65 151.149 121.65 152.699 120.6C152.749 120.55 152.849 120.5 152.899 120.45C152.949 120.45 152.999 120.4 153.049 120.35C154.299 119.5 155.599 118.65 156.849 117.85C157.049 117.75 157.199 117.6 157.399 117.5C158.749 116.6 160.349 115.45 161.949 116.2C163.049 116.75 163.599 118.05 163.599 120.05Z" fill="#93C5FD"/>
<path d="M119.599 178.1C117.399 178.25 114.399 177.6 112.499 175.35C111.249 173.8 109.649 171.05 111.049 166.2L111.349 165L111.199 165.6C110.299 153.25 109.649 151.55 107.649 146.7C107.099 145.3 106.449 143.75 105.699 141.7C104.899 139.5 104.549 137.7 104.499 136.25C104.349 131.95 106.649 130.55 107.049 130.35C108.399 133 109.899 135.65 111.399 138.25C113.499 141.85 115.499 145.25 116.899 148.7C117.249 149.45 117.499 150.25 117.799 151.1C120.699 159.15 121.249 168.8 119.599 178.1Z" fill="#3B82F6"/>
<path d="M109.4 59.7501C104.5 55.8501 98.5504 55.1001 92.3004 54.3501H92.2504L92.1504 54.2501L92.1004 54.3001C88.0004 53.8001 83.9004 53.6501 79.9004 53.9001C72.4504 54.3001 65.1004 55.9501 58.0004 58.8501C41.0004 65.7001 30.2004 64.2501 24.5504 61.3001C20.9504 59.4001 19.1504 56.2501 17.9004 54.5001C18.9004 53.5501 19.9504 52.6501 21.2004 51.9001C24.2504 50.0501 27.0004 47.9001 30.1504 46.3001C30.2004 46.2501 30.2504 46.2501 30.3004 46.2001C38.3004 43.3001 46.1004 41.8501 53.7504 41.8501C56.0504 41.8501 58.3504 42.0001 60.6504 42.2501C74.0004 43.8001 85.4004 46.6001 94.6504 50.6001C94.6504 50.8001 94.7004 50.9501 94.7504 51.1501L94.9004 51.1001C94.8504 50.9501 94.8504 50.8501 94.8504 50.7001C96.5004 51.4001 98.0504 52.1501 99.5504 52.9001C104.8 55.7001 107.9 58.3001 109.4 59.7501Z" fill="#93C5FD"/>
<path d="M95.3008 45.9499C94.9008 47.7999 94.5508 49.3499 94.6008 50.4499C93.4508 49.9499 92.3008 49.4999 91.1508 49.0499C82.5508 45.7999 72.3508 43.4499 60.6508 42.0999C52.3508 41.1499 43.9508 41.8999 35.3008 44.3999C35.3508 26.3999 42.5508 16.4999 43.0508 15.7999C52.3508 13.8499 62.9508 14.1999 72.9508 16.7999C73.9008 17.0499 74.8008 17.2999 75.7008 17.5999C81.3508 19.3499 87.7008 22.9499 91.9008 26.7999C98.2508 32.5499 96.4508 40.5999 95.3008 45.9499ZM168.451 127C168.001 126.45 167.451 126.4 167.301 126.35L166.301 127.1L154.251 136.2L154.151 136.05L166.151 127L167.201 126.2C167.951 123.7 167.801 121.95 166.651 120.9C165.801 120.15 164.801 119.9 163.751 120.15V120.25H163.601V120.2C163.501 120.25 163.351 120.3 163.251 120.3C162.501 120.6 161.851 121.05 161.201 121.5C161.001 121.65 160.801 121.8 160.551 121.95C159.501 122.65 158.351 123.4 157.001 124.3L150.001 129.15L149.251 127.6L148.951 126.95C148.951 126.95 146.901 125.2 146.501 124.65C146.451 124.55 146.401 124.5 146.451 124.5C146.701 123.3 146.851 121.8 146.901 120.25C146.951 116.4 145.951 112.2 141.651 110.9C141.051 110.7 140.501 110.75 140.051 111.05C139.451 111.4 139.001 112.1 138.651 113.15C138.601 113.25 138.601 113.3 138.551 113.4C138.451 113.7 138.351 114 138.301 114.35L137.851 116.15C137.651 116.85 137.451 117.5 137.301 118.2C136.951 119.8 136.601 121.65 136.701 123.5C136.751 124.4 136.851 125.25 136.901 126.1C137.151 128.6 137.401 130.95 136.551 133.55C136.051 135.2 134.951 136.7 133.451 137.95C132.551 138.7 131.501 139.25 130.401 139.7C130.101 144.9 130.301 153.8 134.251 160.9C134.951 162.2 135.801 163.4 136.751 164.55C137.651 164.4 138.551 164.2 139.451 163.95C147.801 161.7 158.801 155.35 166.201 138.1C166.401 137.6 166.651 137.05 166.851 136.55C167.501 134.9 168.151 133.15 168.701 131.35C169.301 128.8 168.901 127.55 168.451 127Z" fill="#93C5FD"/>
<path d="M136.501 164.7C128.051 166.2 121.301 164.35 120.651 164.15C120.301 158.65 119.101 153.35 117.151 148.6C115.751 145.15 113.751 141.75 111.651 138.15C110.401 135.95 109.101 133.75 107.951 131.5C106.601 128.9 105.401 126.25 104.551 123.6C105.951 126.35 110.651 134.55 117.501 138.35C119.351 139.4 121.501 140.15 123.551 140.45C124.301 140.55 125.051 140.65 125.801 140.65C127.351 140.65 128.801 140.4 130.151 139.9C130.101 140.4 130.101 140.9 130.101 141.45C129.901 147.75 130.651 157.85 136.501 164.7Z" fill="#8CB0DC"/>
<path d="M79.6504 74.95C80.1004 75.05 80.5504 75.1 81.1004 75.1H81.3004C82.1504 75.1 83.1004 75.05 83.9504 74.5C84.4004 74.2 84.7004 73.7 84.7004 73.15C84.7004 72.6 84.5004 72.15 84.1004 71.85C83.8004 71.6 83.4004 71.5 82.9004 71.5C82.5504 71.5 82.2004 71.55 81.8504 71.6H81.7004C81.4004 71.65 81.1504 71.7 80.8504 71.75C80.4004 71.8 80.0004 71.9 79.5504 71.95C78.6004 72.05 77.7004 72.15 76.8004 72.15C75.3504 72.15 74.0504 72 72.9004 71.7C74.8504 74.25 79.6004 74.95 79.6504 74.95Z" fill="#4F5C72"/>
<path d="M113.6 69.45C114.45 66.95 113.8 64.45 111.6 62.05C111.25 61.65 110.85 61.25 110.5 60.9L110.45 60.85C105.4 56.1 99.1004 55.3 92.4004 54.5C97.9504 59.95 100.45 68.35 101.65 78.2C105.2 77.55 111.95 74.15 113.6 69.45Z" fill="#93C5FD"/>
<path d="M109.6 152.5L109.65 152.35H109.55C109.55 152.4 109.6 152.45 109.6 152.5C109.55 152.5 109.55 152.5 109.6 152.5ZM1.80039 150.9V150.8C1.75039 150.85 1.70039 150.9 1.65039 150.9H1.80039Z" fill="#3B82F6"/>
<path d="M50.3492 249C49.0492 249.45 26.7492 257.2 14.4492 253.3L24.7492 241.95C27.6492 239.35 26.4492 236.35 26.4492 236.3C25.5992 234 24.7992 232.35 23.8492 230.25C23.7492 230.05 23.6492 229.85 23.5992 229.7C25.4492 229.75 30.8992 229.8 36.9992 229.85H42.9992C45.8492 229.85 48.6492 229.85 51.1492 229.8C50.3992 236.7 50.1492 243.15 50.3492 249Z" fill="#8CB0DC"/>
<path d="M54.15 197.05C54.15 197.15 54.1 197.25 54.05 197.35C53.9 197.65 53.65 197.9 53.25 198.15C50.75 199.55 47.65 198 45.9 195.7C45.65 195.35 45.35 195.35 45.2 195.4C44.75 195.5 44.35 196.15 44.25 196.55C44.05 197.45 44 198.5 44.15 199.55C44.35 201.1 44.85 202.7 45.45 203.85C45.7 204.3 45.7 204.75 45.55 205.15C45.15 206.05 43.75 206.75 41.45 207.3C40.35 207.55 39.35 207.4 38.5 206.85C36.55 205.6 35.55 202.55 35.05 200.2C34.85 199.1 34.7 198.05 34.55 197.05H34.4C34.5 198.05 34.65 199.1 34.9 200.2C35.35 202.35 36.25 205.1 37.9 206.55C30.85 209.15 28.6 205.05 26.4 199.45L26.25 199.5C27.4 202.35 28.55 204.85 30.3 206.25C28.75 207 27.25 207.1 25.85 206.4C23 205.05 20.3 200.8 17.85 193.8C16.3 189.4 14.9 183.95 13.5 177.25C14 177.25 14.5 177.3 15 177.3C17.65 177.3 20.1 177.05 22.4 176.65C31 175.15 36.65 171.45 37.4 170.95C38.5 175.55 39.85 180.5 41.35 184.5V184.55H42.1C47.25 184.5 47.75 185.6 48.85 188.1C49.7 190.05 50.9 191.75 51.95 193.25C52.15 193.5 52.4 193.8 52.7 194.1C53.3 195 54.3 196.1 54.15 197.05Z" fill="#93C5FD"/>
<path d="M45.4492 167.9C45.1992 168.15 44.1992 169.25 42.0992 170.5C42.0492 170.5 42.0492 170.55 41.9992 170.55C41.9492 170.6 41.8492 170.65 41.7492 170.7C40.6992 171.3 39.3992 171.9 37.7492 172.45C35.7492 164.3 35.3992 163.3 37.1492 170.7C36.6492 171.05 30.9992 174.9 22.1492 176.45C19.8992 176.85 17.3992 177.1 14.7492 177.1C14.2492 177.1 13.7492 177.1 13.1992 177.05C13.0492 176.4 12.9492 175.7 12.7992 175C10.9992 166 9.89922 159.6 9.84922 159.5L9.69922 159.55C9.69922 159.6 10.7992 165.8 12.5492 174.6C10.2492 174.4 7.64922 174.1 5.09922 173.75C4.34922 170.15 3.74922 166.55 3.19922 162.95C3.59922 163.1 3.99922 163.2 4.39922 163.2C5.04922 163.2 5.64922 163 6.19922 162.6C7.39922 161.7 7.74922 160.35 8.09922 159C8.44922 157.75 8.79922 156.45 9.79922 155.55C12.2992 153.4 15.3492 151.6 18.7492 150.25C21.3492 149.2 24.0492 148.7 26.5992 148.7C30.2992 148.7 33.6492 149.85 36.2992 152.05C37.5992 153.15 38.6992 154.35 39.6992 155.7C42.4992 159.35 44.1492 163.65 45.4492 167.9Z" fill="#8CB0DC"/>
<path d="M118.899 178.3C116.999 178.3 115.199 177.75 113.749 176.7C113.249 176.35 112.749 175.9 112.349 175.45C111.049 173.9 109.599 171.1 110.999 166.2C111.299 160.05 110.199 155.3 109.449 152.5C106.849 152.05 104.049 153.35 100.249 155.1C96.3992 156.9 91.5491 159.1 84.9492 160.4C81.5491 161.1 77.6492 161.5 73.1492 161.5C70.2492 161.5 67.0491 161.3 63.5992 160.9C62.0492 160.7 60.4492 160.45 58.7992 160.2C57.6492 158.7 56.5492 157.3 55.6992 155.95C52.9492 151.6 48.6992 147.65 43.0992 144.25C42.3492 143.8 41.5492 143.35 40.7992 142.95H40.7492C37.3992 141.2 34.0492 140 30.7492 139.35C28.0992 138.85 25.5492 138.6 23.1492 138.6C17.1492 138.6 12.0492 140.15 7.99915 143.25C2.64915 147.3 -1.65085 154.25 0.849154 160.65C1.44915 162.15 2.79915 163.15 4.19915 163.15C4.79915 163.15 5.39915 162.95 5.89915 162.55C7.04915 161.7 7.39915 160.4 7.74915 159.05C8.09915 157.8 8.44915 156.45 9.49915 155.55C11.9992 153.4 15.0992 151.6 18.4992 150.25C21.0992 149.2 23.8492 148.65 26.3992 148.65C30.1492 148.65 33.5492 149.85 36.1992 152.05C41.1492 156.25 43.5992 162.25 45.3992 168.25C44.7492 169 42.5492 171.1 37.7992 172.65C38.7992 176.7 39.9992 180.9 41.2992 184.4C47.1492 184.25 47.6492 185.35 48.7992 188.05C49.6492 189.95 50.8492 191.7 51.8992 193.15C52.0992 193.4 52.3492 193.7 52.5992 194C53.3992 194.95 54.4492 196.1 54.2492 197.1C54.1492 197.55 53.8492 198 53.2492 198.3C50.6492 199.75 47.4992 198.15 45.6992 195.85C45.5492 195.65 45.3492 195.55 45.1492 195.6C44.7492 195.7 44.3992 196.25 44.2992 196.6C43.7492 198.75 44.4992 201.85 45.4492 203.75C45.6992 204.25 45.7492 204.75 45.5492 205.2C45.0992 206.15 43.6992 206.9 41.2992 207.45C40.9492 207.55 40.5992 207.55 40.2492 207.55C39.4992 207.55 38.8492 207.35 38.1992 206.95L37.7492 206.65C36.2492 207.2 34.8492 207.5 33.7492 207.5C32.2992 207.5 31.1492 207.1 30.1992 206.35C29.3492 206.8 28.4992 207.05 27.6492 207.05C27.4992 207.05 27.2992 207.05 27.1492 207C26.5992 206.95 26.0492 206.8 25.4992 206.55C20.5492 204.2 16.3492 193.9 12.6492 175.1C12.6492 175 12.5992 174.9 12.5992 174.85C10.2992 174.65 7.69915 174.35 5.14915 174C8.74915 191.5 14.4992 209.25 22.2992 226.85C22.7492 227.85 23.1492 228.7 23.4992 229.5C25.3992 229.55 31.6492 229.65 38.4492 229.65C42.7992 229.7 47.3492 229.65 51.1492 229.6C51.3492 227.55 51.5992 225.7 51.8492 224.1C52.2492 221.2 52.6492 219.2 52.6992 218.85C50.8492 218.7 85.3992 218.4 98.4992 211C100.249 210 101.899 208.85 103.499 207.6C112.199 200.55 117.549 189.65 119.599 178.25C119.349 178.25 119.149 178.3 118.899 178.3Z" fill="#3B82F6"/>
<path d="M53.6507 14.4999C53.6507 14.4999 54.6007 11.9499 49.0007 10.4499C43.3507 8.94988 41.9007 10.8499 41.7007 13.4499C41.7007 13.4499 41.5507 14.7499 41.9507 15.9499C41.9507 15.9499 44.6007 15.2999 47.5007 14.8999C49.9007 14.5999 52.5007 14.3999 53.6507 14.4999ZM42.8007 15.8499C41.7507 16.0499 40.7507 16.2999 39.7507 16.5999C37.3007 17.2999 33.6007 18.3999 30.1007 19.8499C23.9507 22.4999 19.4507 25.7999 16.7007 29.7999C13.3507 34.6499 12.5507 40.5999 11.7007 46.2999C10.7507 52.8999 10.2007 59.8999 12.1507 66.3999C14.9007 59.3499 17.1507 55.2999 17.6007 54.4499C17.5507 54.3999 17.5507 54.3999 17.5507 54.3499C17.6007 54.2999 17.6507 54.2999 17.7507 54.2499C17.9007 53.8999 18.2007 53.5499 18.5507 53.2999C19.1507 52.8999 19.6507 52.3499 20.3007 51.9499C20.3007 51.9499 20.3007 51.8999 20.3507 51.8999C22.4007 49.7999 25.2507 49.2499 27.7507 47.8499C28.8007 47.2499 29.8007 46.4499 30.9507 46.0499C31.4007 45.8999 32.4507 45.7499 32.7507 45.3499C32.8007 45.2499 32.9007 45.1999 32.9507 45.1499C33.7007 44.8999 34.4007 44.6999 35.1507 44.4499C35.2007 27.1499 41.7507 17.2999 42.8007 15.8499Z" fill="#93C5FD"/>
<path d="M76.0493 101.65C76.5493 101.45 76.0993 101.3 76.5493 101.15V101.05C76.4993 101.05 76.4993 101.05 76.4493 101.1C74.8993 100.5 73.4493 99.35 72.3493 97.9C71.3993 97.25 70.7493 96 70.4493 94.55C69.9993 93.4 69.6493 92.2 69.4493 90.9C68.9993 87.65 69.4993 84.45 70.8493 81.9C72.0493 79.7 73.7493 78.2 75.7493 77.55C75.8493 77.45 75.9493 77.4 76.0493 77.3H75.4993C75.0993 77.3 74.6993 77.35 74.3493 77.4C71.8493 77.8 69.6493 79.5 68.1993 82.15C66.7493 84.8 66.2493 88.15 66.7493 91.5C67.3993 96.1 70.5993 100.3 73.8993 102.05C73.3493 102.7 72.2993 104.1 72.2993 104.1L76.0493 101.65ZM41.1993 92C40.7493 88.75 41.1993 85.55 42.5993 83C43.9493 80.45 46.0493 78.8 48.4493 78.4C48.5993 78.4 48.7493 78.35 48.8493 78.35C48.3493 78.25 47.8993 78.25 47.3993 78.25C46.9993 78.25 46.5993 78.3 46.1993 78.35C43.5993 78.75 41.3493 80.4 39.8493 82.95C38.3493 85.55 37.7993 88.75 38.3493 92C39.2993 98.15 43.7993 102.8 48.8493 102.8C49.2493 102.8 49.6493 102.75 50.0493 102.7C50.0993 102.7 50.1493 102.7 50.2493 102.65C45.8493 102.25 42.0493 97.8 41.1993 92Z" fill="#6D7D90"/>
<path d="M71.0994 90.85C70.5994 87.6 71.1494 84.4 72.5994 81.85C74.0494 79.3 76.2494 77.65 78.7994 77.25H78.9994C78.6494 77.2 78.2994 77.2 77.9494 77.2C77.5494 77.2 77.1494 77.25 76.7494 77.3C74.1994 77.7 71.9994 79.3 70.5494 81.9C69.0994 84.45 68.5494 87.65 69.0494 90.9C69.7994 95.7 72.6994 99.75 76.4994 101.1C76.6494 101.05 76.7494 101 76.8994 100.95C77.1494 100.85 77.3494 100.75 77.5994 100.65C74.2494 98.95 71.7494 95.2 71.0994 90.85ZM42.7494 92C42.2494 88.75 42.7994 85.55 44.2494 83C45.6994 80.45 47.8994 78.8 50.4494 78.4H50.5994C50.2494 78.35 49.8994 78.3 49.5494 78.3C49.1494 78.3 48.7494 78.35 48.3494 78.4C45.7994 78.8 43.5994 80.4 42.1494 83C40.6994 85.55 40.1494 88.75 40.6494 92C41.5994 98.1 45.9994 102.7 50.8994 102.7C51.2494 102.7 51.5994 102.7 51.9494 102.65C47.4494 102 43.5994 97.65 42.7494 92Z" fill="#C5C9CF"/>
<path d="M40.8007 112.6C40.8007 112.6 46.5507 116.75 53.0007 114.55L55.2007 112.75C55.2007 112.75 52.7507 113.2 50.2507 112.85C46.8507 112.35 43.0007 110.95 42.0007 110.55C40.3507 109.95 40.3507 112.05 40.8007 112.6Z" fill="#CECECE"/>
<path d="M55.7 174.55C54.1 174.55 52.75 175.85 52.75 177.5C52.75 179.1 54.05 180.45 55.7 180.45C57.35 180.45 58.65 179.15 58.65 177.5C58.65 175.85 57.35 174.55 55.7 174.55ZM55.25 178.65C55.05 178.85 54.7 178.85 54.5 178.65C54.3 178.45 54.3 178.1 54.5 177.9C54.7 177.7 55.05 177.7 55.25 177.9C55.45 178.1 55.45 178.45 55.25 178.65ZM55.25 177.05C55.05 177.25 54.7 177.25 54.5 177.05C54.3 176.85 54.3 176.5 54.5 176.3C54.7 176.1 55.05 176.1 55.25 176.3C55.45 176.5 55.45 176.85 55.25 177.05ZM56.9 178.65C56.7 178.85 56.35 178.85 56.15 178.65C55.95 178.45 55.95 178.1 56.15 177.9C56.35 177.7 56.7 177.7 56.9 177.9C57.1 178.1 57.1 178.45 56.9 178.65ZM56.9 177.05C56.7 177.25 56.35 177.25 56.15 177.05C55.95 176.85 55.95 176.5 56.15 176.3C56.35 176.1 56.7 176.1 56.9 176.3C57.1 176.5 57.1 176.85 56.9 177.05ZM117.05 170.1C115.75 169.95 114.5 171 114.5 172.45C114.5 173.9 115.7 175 117.05 174.8C118.2 174.65 119.05 173.6 119.05 172.45C119.05 171.3 118.2 170.25 117.05 170.1ZM116.7 173.4C116.55 173.6 116.25 173.6 116.1 173.45C115.95 173.3 115.95 173 116.1 172.85C116.25 172.7 116.55 172.65 116.7 172.85C116.85 173 116.85 173.25 116.7 173.4ZM116.7 172.1C116.55 172.25 116.25 172.25 116.1 172.1C115.95 171.9 115.95 171.65 116.1 171.5C116.25 171.35 116.55 171.35 116.7 171.55C116.85 171.65 116.85 171.95 116.7 172.1ZM117.9 173.35C117.75 173.5 117.55 173.55 117.4 173.4C117.25 173.25 117.25 173 117.4 172.8C117.55 172.65 117.8 172.65 117.9 172.8C118.05 172.95 118.05 173.2 117.9 173.35ZM117.9 172.1C117.75 172.25 117.55 172.25 117.4 172.1C117.25 171.95 117.25 171.65 117.4 171.5C117.55 171.35 117.8 171.35 117.9 171.55C118.05 171.7 118.05 171.95 117.9 172.1Z" fill="#0D3D8C"/>
<path d="M12.7002 140.45C11.1002 141.15 9.60022 142 8.20022 143.05C5.45022 145.15 3.15022 147.8 1.75022 150.6C-1.94978 110.75 6.75022 80.8999 12.2502 66.6499C14.9502 59.6499 17.2002 55.5499 17.7502 54.5499C19.0002 56.2999 21.2502 58.7999 24.8502 60.6999C24.4002 60.4999 25.2502 60.9499 24.8502 60.6999C24.8502 60.7499 8.90022 115.6 12.7002 140.45ZM99.9502 69.4499C98.3002 66.8999 89.2502 54.3999 70.5002 55.8499C70.5002 55.8499 70.5002 55.6499 70.5502 55.2499C77.6002 53.8499 84.8502 53.5999 92.1502 54.4999C96.0502 58.1999 98.4502 63.3499 99.9502 69.4499Z" fill="#6D7D90"/>
<path d="M37.2992 229.85C34.5492 230.2 31.4992 229.8 28.7492 229.75C28.2992 229.75 23.6492 229.95 23.4992 229.6C23.1492 228.8 22.7492 227.9 22.2992 226.95C14.4992 209.25 8.74922 191.5 5.19922 173.95C7.74922 174.3 10.3492 174.6 12.6492 174.8C12.6492 174.9 12.6992 175 12.6992 175.05C16.3992 193.85 20.6492 204.15 25.5492 206.5C26.0992 206.75 26.8492 206.8 27.2992 207.1C27.6492 207.4 28.3992 206.3 28.6492 206.7C32.7492 213.3 36.0992 222.05 37.2992 229.85Z" fill="#1851AD"/>
<path d="M35.15 241.2C32.6 244.85 27.55 247.5 24.05 249.3C21.9 250.4 19.7 251.35 17.45 252.2C16.7 252.5 15.05 252.75 14.5 253.35L24.8 242C27.7 239.4 26.5 236.4 26.5 236.35C25.65 234.05 24.85 232.4 23.9 230.3C23.8 230.1 23.7 229.9 23.65 229.75C25.5 229.8 30.95 229.85 37.05 229.9C37.7 229.9 36.7 237.75 36.55 238.35C36.2 239.35 35.75 240.3 35.15 241.2Z" fill="#6D7D90"/>
<path d="M90.6508 228.85C87.7508 230.55 85.5508 231.85 84.6008 232.35C80.8508 226.55 76.3508 219.4 75.8008 218.45C84.4008 217.25 92.0008 214.8 98.5508 211.1C99.4008 210.65 100.201 210.1 101.001 209.6C101.251 209.8 103.801 207.4 103.801 207.4C101.551 209.15 99.6508 211.25 97.6508 213.25C94.8008 216.1 90.1008 219.15 89.2008 223.4C89.0008 224.3 89.0508 225.2 89.3508 226.05C89.4008 226.4 90.5508 228.9 90.6508 228.85Z" fill="#1851AD"/>
<path d="M118.749 245.1C104.249 246.7 89.8992 243.3 88.9492 243.05C87.8992 238.05 87.3992 236.6 87.3492 236.55C86.4992 235.25 85.5492 233.85 84.6992 232.5C84.7992 232.65 90.2992 229.45 90.6992 229.35C90.8992 229.3 92.3492 231.65 92.5492 231.9C94.0492 234 95.5992 236.1 97.5492 237.85C99.9492 240.05 102.849 241.75 105.899 242.8C107.599 243.4 109.449 243.9 111.249 244.2C113.749 244.6 116.249 244.9 118.749 245.1Z" fill="#6D7D90"/>
<path d="M12.6993 140.45C12.6993 140.45 26.8493 138.55 34.7493 150.95C34.7493 150.95 27.9493 142.75 8.89926 157C7.49926 161.15 6.44927 166.25 0.799265 160.6C-2.00073 150.6 7.29926 142.75 12.6993 140.45ZM53.0993 183.8C52.9993 183.75 52.5993 183.75 52.4493 183.75C51.8493 183.6 51.2493 183.4 50.6993 183.15C48.0993 182 46.6493 179.15 45.3993 176.75C44.9993 176 44.5493 175.15 43.7493 174.75C42.5993 174.15 41.3493 174.85 40.2493 175.25C40.0493 175.3 38.2493 175.95 38.4493 176.25C38.0993 175.65 38.2493 175.55 38.1493 174.85C38.0493 174.1 37.9993 173.35 37.9493 172.6C39.9993 171.4 42.0993 170.15 44.2993 169.15C44.7493 168.95 45.1993 168.75 45.6493 168.65C45.9993 171.15 46.6993 173.6 47.5993 175.9C48.3993 177.95 49.2493 180.05 50.6493 181.75C51.2993 182.5 52.1493 183.3 53.0993 183.8ZM114.799 177.55C114.399 177.35 113.099 177.05 112.699 176.8C112.049 176.4 111.499 175.9 110.999 175.35C110.049 174.35 109.549 173.1 109.149 171.8C107.799 167.45 109.049 162.8 108.149 158.35C107.599 155.6 104.999 155.8 102.899 156.45C98.7493 157.7 94.7493 160.1 90.3493 160.6C87.3493 160.95 81.6493 161.65 81.7993 161.35C81.7993 161.35 84.7993 160.8 84.9993 160.4C91.5993 159.1 96.4493 156.85 100.299 155.1C104.149 153.35 106.899 152.05 109.499 152.5C110.199 155.3 110.699 159.05 111.249 166.1C109.849 171 111.099 173.9 112.399 175.45C112.799 175.95 113.249 176.35 113.799 176.7C113.849 176.9 114.799 177.35 114.799 177.55ZM67.5993 186.5C68.0493 187.55 67.9993 189.25 68.0493 190.4C68.0493 191.45 67.9993 192.5 67.7993 193.55C67.4993 195.1 66.8493 196.6 65.8993 197.9C63.8993 200.6 59.4993 202.9 59.9493 206.8C60.1493 208.7 62.0493 207.6 62.7993 206.7C69.3493 198.95 70.8993 194.4 67.5993 186.5Z" fill="#1851AD"/>
<path d="M38.3508 154.05C37.7508 153.4 37.1008 152.75 36.4008 152.15C33.8008 149.95 30.4508 148.8 26.7008 148.8C24.2008 148.8 21.4508 149.35 18.8508 150.35C15.4508 151.7 12.4008 153.5 9.90078 155.65C8.85078 156.55 8.55078 157.85 8.20078 159.1C7.85078 160.45 7.50078 161.8 6.30078 162.7C5.75078 163.1 5.15078 163.3 4.50078 163.3C4.10078 163.3 3.65078 163.2 3.30078 163.05C3.85078 166.65 4.50078 170.25 5.20078 173.85C7.75078 174.2 10.3508 174.5 12.6508 174.7C12.8508 175.8 13.2508 176.9 13.3008 177.15C13.8008 177.15 14.3508 177.2 14.8508 177.2C17.5008 177.2 19.9508 176.95 22.2508 176.55C22.0008 176.6 21.5508 174.7 21.5008 174.55C19.8508 168.55 16.3008 158.3 23.3508 154.25C28.1508 151.5 33.1008 153.6 36.7008 157.25C38.4008 158.95 39.1008 159.95 40.3008 162C40.7008 162.7 42.4008 166 43.2508 169.7C44.0008 169.15 44.7008 168.55 45.4508 168.05C44.3008 162.6 42.0508 158.05 38.3508 154.05ZM105.501 131.6C105.501 131.6 99.8508 133.45 107.151 152.25L109.501 152.5C109.501 152.5 107.801 147.95 106.451 143.75C105.101 139.3 104.051 134.3 105.501 131.6ZM134.151 161C134.151 161 123.451 161.4 118.651 153.75L120.651 164.15C120.651 164.15 131.251 166 136.501 164.7L134.151 161Z" fill="#6D7D90"/>
<path d="M47.2 218.2L44.25 212.2C73.65 221.45 100.2 209.2 103.5 207.6C101.95 208.85 100.3 210 98.5 211C85.4 218.4 68.2 220.9 47.2 218.2Z" fill="#1851AD"/>
<path d="M113.601 69.45C114.451 66.95 113.801 64.45 111.601 62.05C111.251 61.65 110.851 61.25 110.501 60.9L110.451 60.85C105.401 56.1 99.1007 55.3 92.4007 54.5C97.9507 59.95 100.451 68.35 101.651 78.2C105.201 77.55 111.951 74.15 113.601 69.45ZM39.7507 16.6C37.3007 17.3 33.6007 18.4 30.1007 19.85C23.9507 22.5 19.4507 25.8 16.7007 29.8C13.3507 34.65 12.5507 40.6 11.7007 46.3C10.7507 52.9 10.2007 59.9 12.1507 66.4C14.9007 59.35 17.1507 55.3 17.6007 54.45C17.6007 54.4 17.5507 54.4 17.5507 54.35C18.8007 53.25 20.1007 52.15 21.4507 51.1L22.1007 50.95C28.4507 47.45 29.0007 46.25 35.0507 44.5C35.1507 27.2 41.7007 17.35 42.7507 15.9C41.7507 16.1 40.7507 16.35 39.7507 16.6ZM46.4007 9.95001C46.4007 9.95001 43.8007 10.95 43.9507 15.1L42.3507 15.9C42.3507 15.85 39.4507 9.80001 46.4007 9.95001Z" fill="#285CB2"/>
<path d="M58.6996 14.5499C58.6996 14.5499 53.6496 30.8499 54.5996 42.3999C54.5996 42.3999 37.7496 42.9999 35.0996 44.4499C35.0996 44.4499 35.7996 28.6499 42.3496 15.8499C42.6996 15.7499 42.7996 15.7499 42.7996 15.7499C42.7996 15.7499 46.7496 14.8499 50.9496 14.5499C53.6496 14.3499 56.2496 14.7499 58.6996 14.5499Z" fill="#2C75CE"/>
<path d="M79.8492 53.9001C72.3992 54.3001 65.0492 55.9501 57.9492 58.8501C40.9492 65.7001 30.1492 64.2501 24.4992 61.3001C20.8992 59.4001 19.0992 56.2501 17.8492 54.5001C18.8492 53.5501 19.8992 52.6501 21.1492 51.9001C24.1992 50.0501 26.9492 47.9001 30.0992 46.3001C30.1492 46.2501 30.1992 46.2501 30.2492 46.2001C38.2492 43.3001 46.0492 41.8501 53.6992 41.8501C53.6992 41.9001 69.4992 45.1001 79.8492 53.9001ZM45.4992 205.1C45.0992 206 43.6992 206.7 41.3992 207.25C40.2992 207.5 39.2992 207.35 38.4492 206.8C36.4992 205.55 35.4992 202.5 34.9992 200.15C34.7992 199.05 34.5992 199.1 34.8492 200.2C35.2992 202.35 36.1992 205.1 37.8492 206.55C30.7992 209.15 31.5492 205.9 30.2492 206.25C28.6992 207 27.1992 207.1 25.7992 206.4C22.9492 205.05 20.2492 200.8 17.7992 193.8C16.2492 189.4 14.8492 183.95 13.4492 177.25C13.9492 177.25 14.4492 177.3 14.9492 177.3C17.4492 177.3 19.8492 176.85 22.2992 176.7C22.3992 176.7 24.1492 186.35 24.4992 187.15C27.4492 194.55 35.2992 192.25 40.3492 195.3C41.6992 196.1 43.1992 197.15 43.9492 198.65C44.7492 200.25 44.7492 202.2 45.5992 203.85C45.6492 204.25 45.6492 204.7 45.4992 205.1ZM166.149 138.15C158.749 155.4 147.749 161.8 139.399 164C138.499 164.25 137.549 164.45 136.699 164.6C135.699 163.45 134.899 162.25 134.199 160.95C134.499 160.9 155.549 158.1 166.149 138.15ZM152.749 137.55C151.999 137.65 151.249 137.7 150.499 137.85C148.149 138.35 146.549 140.2 145.749 142.4C145.549 143 145.349 143.6 145.249 144.25C145.049 145.3 144.799 147.55 145.999 148C146.149 148.05 146.349 148.1 146.599 148.1C147.299 148.05 148.099 147.95 148.199 147.1C148.299 146.15 148.049 145.2 148.149 144.25C148.249 142.85 148.799 141.4 149.649 140.25C150.449 139.15 151.599 138.35 152.799 137.85C152.799 137.7 152.799 137.6 152.749 137.55Z" fill="#2C75CE"/>
<path d="M146.801 120.4C146.201 122.05 145.601 123.15 145.601 123.15C145.901 110.2 138.451 113.55 138.451 113.55C138.501 113.45 138.501 113.4 138.551 113.3C138.901 112.25 139.401 111.55 139.951 111.2C140.401 110.95 140.951 110.9 141.551 111.05C145.851 112.35 146.851 116.55 146.801 120.4ZM152.701 120.7C152.751 120.65 152.851 120.6 152.901 120.55C152.851 120.55 152.851 120.6 152.851 120.6V121.1C152.801 120.95 152.751 120.85 152.701 120.7ZM163.601 120.05C163.401 120.1 163.201 120.15 163.051 120.25C162.701 120.05 162.501 120 162.501 120C161.801 115.15 154.351 119.65 153.051 120.45C154.301 119.6 155.601 118.75 156.851 117.95C157.051 117.85 157.201 117.7 157.401 117.6C158.751 116.7 160.351 115.55 161.951 116.3C163.051 116.75 163.601 118.05 163.601 120.05ZM167.251 126.2L166.201 127L166.151 126.95C167.301 123.05 164.651 121.1 163.251 120.35C163.351 120.3 163.501 120.25 163.601 120.25V120.3H163.751V120.2C164.801 119.95 165.801 120.2 166.651 120.95C167.801 121.95 168.001 123.7 167.251 126.2ZM168.701 131.4C168.101 133.25 167.501 134.95 166.851 136.6C166.601 136.7 166.451 136.8 166.451 136.8C168.351 130.05 166.851 127.7 166.351 127.1L167.351 126.35C167.451 126.35 168.051 126.4 168.501 127C168.901 127.55 169.301 128.8 168.701 131.4ZM54.0508 197.35C53.7508 197 53.2508 196.65 53.1508 196.5C51.8508 195.5 50.7008 194.35 49.8508 193C48.0508 190.3 47.7008 186.9 44.3508 185.5C43.4008 185.1 42.3508 184.9 41.3008 184.85L42.0008 184.55C47.1508 184.5 47.6508 185.6 48.7508 188.1C49.6008 190.05 50.8008 191.75 51.8508 193.25C52.0508 193.5 52.3008 193.8 52.6008 194.1C53.4008 195 54.4008 196.15 54.2508 197.05C54.1008 197.15 54.1008 197.25 54.0508 197.35ZM53.8508 197.9C54.0008 197.85 54.1008 197.75 54.2008 197.6C54.2508 197.75 54.2008 197.9 53.8508 197.9ZM35.5508 171.75C35.5508 171.75 39.2508 183.35 41.2508 184.85L36.9008 170.9L35.5508 171.75ZM47.5508 10.5C47.5508 10.5 51.5508 13.1 51.5508 14.6C51.5508 14.6 53.2008 14.65 53.5508 13.9C54.0008 13 52.8008 11.2 47.5508 10.5ZM95.3008 45.95C94.9008 47.8 94.5508 49.35 94.6008 50.45C93.4508 49.95 92.3008 49.5 91.1508 49.05C90.9508 48.95 92.3508 44.25 92.4508 43.8C93.5508 39.7 94.5508 34.95 92.5008 30.95C90.9508 27.95 88.1508 25.95 85.5008 24.05C82.5008 21.95 79.3508 20.05 76.0508 18.35C75.0508 17.8 74.0508 17.3 73.0008 16.8C73.9508 17.05 74.8508 17.3 75.7508 17.6C81.4008 19.35 87.7508 22.95 91.9508 26.8C98.2508 32.55 96.4508 40.6 95.3008 45.95Z" fill="#76B3FF"/>
<path d="M99.6004 55.5L105.2 56.5999C105.2 56.5999 97.6004 49.4 79.9004 45.7C79.9004 45.7 95.6504 52.5499 99.0504 55.2999C99.2504 55.3499 99.4504 55.4 99.6004 55.5Z" fill="#76B3FF"/>
<path d="M58.9008 181.8C59.3008 181.7 59.7508 181.7 60.1508 181.75H60.2008C60.3008 181.7 60.3508 181.65 60.4508 181.6L60.7508 181.3C60.9508 181 61.1508 180.7 61.3008 180.35C61.4508 180.1 61.6008 179.85 61.8008 179.65C62.3508 177.05 61.9008 173.05 61.8508 172.15C61.7508 170 61.2508 168.2 60.8008 166.1C60.6508 165.5 60.2008 163.05 60.1508 163C58.8008 162.2 58.3008 160.9 58.4508 159.7C57.4508 158.4 56.4508 157.1 55.7008 155.9C52.9508 151.55 48.7008 147.6 43.1008 144.2C42.3508 143.75 41.5508 143.3 40.8008 142.9C41.4508 143.3 49.7508 148.7 55.1508 157.4C59.8008 164.9 61.8008 175.4 58.9008 181.8ZM117.901 151.05C113.001 144.2 108.001 135.85 108.001 135.85C106.151 131.9 104.901 136.8 104.901 136.8C104.751 136.6 104.651 136.4 104.551 136.25C104.401 131.95 106.701 130.55 107.101 130.35C108.451 133 109.951 135.65 111.451 138.25C113.551 141.85 115.551 145.25 116.951 148.7C117.301 149.4 117.601 150.2 117.901 151.05ZM90.1008 180.3C90.1008 180.3 100.001 177.05 104.251 178.15C105.951 178.55 107.151 182.6 107.001 184.85C106.551 183.2 105.751 181.4 104.551 180.15C103.401 178.95 101.651 179.2 100.201 179.35C98.4008 179.5 96.6008 179.75 94.7508 179.9C94.0008 179.95 93.3008 180.05 92.5508 180.1C92.1508 180.15 91.7508 180.15 91.3508 180.2C91.0008 180.2 90.4508 180.15 90.1008 180.3Z" fill="#60A5FA"/>
<path d="M126.85 243.6C114.8 238.3 107.65 234.1 107.65 234.1L103.85 221.5C104.85 220.95 105.85 220.4 106.8 219.85C108.45 227.4 110.4 233.45 110.45 233.5V233.55H110.5C119.85 238.45 125.85 242.8 126.85 243.6Z" fill="#DBEAFE"/>
<path d="M106.701 219.3L104.851 220.7L103.901 221.4C103.901 221.4 103.901 221.35 103.851 221.25C103.601 220.25 102.101 214.85 101.851 210.25C101.801 209.8 101.801 209.4 101.801 209.1V209L103.001 208.15L104.801 206.95C105.051 210.6 105.701 214.75 106.701 219.3Z" fill="#60A5FA"/>
<path d="M51.1508 230.6C50.3508 234.55 49.6008 238.5 48.8008 242.5C48.5008 244.1 48.4508 246.15 47.3508 247.45C45.8508 249.3 42.1008 249.8 39.9508 250.5C36.8508 251.5 33.5008 252.85 30.3008 253.35C30.3008 253.35 42.9508 251.5 50.3008 249.05C50.7008 248.9 50.5508 242.85 50.6008 242.15C50.8008 238.25 50.9508 234.45 51.1508 230.6ZM103.101 117C103.201 119.5 103.751 121.95 104.551 124.35C105.201 126.35 106.501 128.1 106.951 130.15C106.251 130.35 105.901 130.9 105.501 131.45C101.151 124.8 100.201 116.85 100.401 109.05C100.601 101.1 100.701 93.1501 100.551 85.1501C100.501 82.8001 100.451 80.5001 100.351 78.1501C100.251 75.8001 100.151 73.4001 100.001 71.0501C100.001 70.7501 99.9508 70.4001 99.9508 70.1001C100.701 73.9501 101.501 77.7501 101.901 81.6501C102.501 87.9001 102.601 94.2001 102.701 100.5C102.801 106 102.851 111.55 103.101 117Z" fill="#DBEAFE"/>
<path d="M130.15 139.85C130.1 140.35 130.1 140.85 130.1 141.4C118.25 144.4 110.55 136.6 107.9 131.5C106.55 128.9 105.35 126.25 104.5 123.6C105.9 126.35 110.6 134.55 117.45 138.35C119.3 139.4 121.45 140.15 123.5 140.45C124.25 140.55 125 140.65 125.75 140.65C127.35 140.65 128.8 140.35 130.15 139.85Z" fill="#DBEAFE"/>
<path d="M119.599 178.1C113.999 182.1 116.049 193.15 102.949 208.2C102.949 208.2 118.649 192.65 119.599 178.1Z" fill="#60A5FA"/>
<path d="M37.2504 170.45C36.7504 168.75 36.2004 166.85 36.1504 165.05C36.0504 164.8 36.0004 164.55 35.9504 164.3V164.2C35.9504 164.15 35.9004 164.05 35.9004 164L34.4504 156.85C34.4504 156.85 33.7004 157 33.7504 159.05C33.8504 163 34.2504 167.3 35.6504 171.9C36.1004 171.35 36.7004 170.95 37.3504 170.7C37.3004 170.65 37.3004 170.55 37.2504 170.45Z" fill="#DBEAFE"/>
<path d="M92.3508 54.1001L92.8008 54.5501C93.1008 54.8501 93.5508 55.3001 94.0508 55.9501C95.1508 57.2001 96.5508 59.2001 97.8508 62.0001C99.1508 64.8001 100.251 68.4001 101.101 72.6001C101.901 76.8001 102.401 81.6001 102.701 86.8001C103.001 92.0501 103.101 97.7001 103.201 103.7C103.251 106.7 103.301 109.75 103.401 112.9C103.451 113.7 103.451 114.5 103.501 115.25C103.501 115.65 103.551 116.05 103.551 116.45C103.551 116.65 103.551 116.85 103.601 117.05L103.651 117.65C103.701 118.05 103.701 118.45 103.751 118.85C103.801 119.25 103.901 119.65 103.951 120.05C104.001 120.45 104.101 120.85 104.151 121.2L104.451 122.35C105.301 125.45 106.651 128.5 108.201 131.45C109.751 134.4 111.501 137.35 113.201 140.3C114.901 143.3 116.601 146.35 117.801 149.6C119.051 152.85 119.901 156.3 120.401 159.75C121.401 166.7 121.051 173.8 119.551 180.55C118.051 187.3 115.351 193.65 111.651 199.05C107.951 204.5 103.051 208.85 97.7008 211.65C97.0508 212 96.4008 212.35 95.7008 212.7C95.0008 213 94.3508 213.3 93.7008 213.6C93.3508 213.75 93.0508 213.9 92.7008 214.05C92.3508 214.2 92.0008 214.3 91.7008 214.45C91.0508 214.7 90.3508 214.95 89.7008 215.2C87.0008 216.1 84.4008 216.9 81.8008 217.45C76.6508 218.6 71.8508 219.05 67.6008 219.25C63.3508 219.45 59.6508 219.35 56.6008 219.15C55.1008 219.05 53.7008 218.95 52.5508 218.8C51.3508 218.65 50.3508 218.55 49.5508 218.45C47.9508 218.2 47.0508 218.05 47.0508 218.05C47.0508 218.05 47.9008 218.1 49.5508 218.25C50.3508 218.35 51.3508 218.4 52.5508 218.45C53.7508 218.55 55.1008 218.6 56.6008 218.7C59.6508 218.85 63.3508 218.95 67.6008 218.75C71.8508 218.55 76.6008 218.05 81.7008 216.95C84.2508 216.4 86.8508 215.65 89.5008 214.75C90.1508 214.5 90.8008 214.25 91.5008 214C91.8508 213.85 92.1508 213.75 92.5008 213.6C92.8508 213.45 93.1508 213.3 93.5008 213.15C94.1508 212.85 94.8008 212.55 95.5008 212.25C96.1508 211.9 96.8008 211.55 97.5008 211.2C102.751 208.45 107.551 204.1 111.201 198.75C114.851 193.4 117.551 187.1 119.001 180.4C120.451 173.75 120.801 166.7 119.801 159.8C119.301 156.35 118.451 153 117.201 149.75C115.951 146.5 114.301 143.5 112.601 140.5C110.901 137.55 109.151 134.6 107.551 131.6C105.951 128.6 104.601 125.55 103.751 122.35L103.451 121.15C103.351 120.75 103.301 120.35 103.201 119.95C103.151 119.55 103.051 119.15 103.001 118.75C102.951 118.35 102.951 117.95 102.901 117.55L102.851 116.95C102.851 116.7 102.851 116.55 102.801 116.35C102.801 115.95 102.751 115.55 102.751 115.15C102.701 114.35 102.701 113.55 102.651 112.8C102.551 109.65 102.501 106.55 102.451 103.6C102.351 97.6001 102.251 91.9501 101.951 86.7501C101.651 81.5501 101.151 76.7501 100.351 72.6001C99.5508 68.4501 98.4508 64.9001 97.2008 62.1501C95.9508 59.4001 94.5508 57.4501 93.5008 56.2501C93.2508 55.9501 93.0508 55.6501 92.8008 55.4501L92.2508 54.9001L91.8008 54.4501C91.6508 54.3001 91.7008 54.1001 91.8008 54.0001C92.0008 53.9501 92.2008 53.9501 92.3508 54.1001Z" fill="black"/>
<path d="M22.6997 254.85C19.5997 254.85 16.6997 254.5 14.1997 253.7L13.6997 253.55L24.4497 241.7C27.1497 239.25 26.0996 236.6 26.0497 236.5C25.1996 234.25 24.4497 232.55 23.4497 230.5C22.9997 229.5 22.4997 228.4 21.8997 227.1C12.4497 205.75 6.04965 184.2 2.84965 163C2.79965 162.8 2.94965 162.65 3.09965 162.65C3.24965 162.6 3.44965 162.75 3.44965 162.9C6.59965 184.05 12.9997 205.55 22.4497 226.85C23.0497 228.15 23.5497 229.25 23.9997 230.25C24.9497 232.35 25.7497 234.05 26.5997 236.3C26.5997 236.3 27.8497 239.5 24.8497 242.2L14.7997 253.3C26.6997 256.8 47.6497 249.75 49.9997 248.95C49.7997 243.1 50.0997 236.65 50.7997 229.8C51.4497 223.6 52.3497 218.9 52.3497 218.85C52.3997 218.65 52.5497 218.55 52.7497 218.6C52.9497 218.65 53.0497 218.8 52.9997 219C52.9997 219.05 52.0997 223.75 51.4497 229.9C50.6997 236.8 50.4497 243.3 50.6497 249.2V249.45L50.4497 249.55C50.3497 249.45 35.1997 254.85 22.6997 254.85ZM110.65 245.9C98.8496 245.9 88.9497 243.45 88.7997 243.4L88.5996 243.35L88.5497 243.15C87.5997 238.55 87.0996 236.95 86.9996 236.75C86.0996 235.45 85.1997 234.05 84.2997 232.7C80.3497 226.65 75.6497 219.05 75.3997 218.65C75.2997 218.5 75.3496 218.35 75.4496 218.25C75.5996 218.15 75.7997 218.15 75.8997 218.25L75.9496 218.3C76.1496 218.6 80.8997 226.25 84.8496 232.35C85.7496 233.7 86.6497 235.15 87.5497 236.45L87.5996 236.5C87.5996 236.55 88.1497 237.95 89.1497 242.85C91.2997 243.35 110.2 247.65 126.25 243.5C124.55 242.25 118.8 238.2 110.3 233.75L110.2 233.7L110.15 233.55C110.15 233.5 108.15 227.5 106.55 220L106.5 219.75C105.45 214.85 104.75 210.45 104.45 206.6C104.45 206.4 104.55 206.25 104.75 206.25C104.95 206.25 105.1 206.35 105.1 206.55C105.4 210.3 106.05 214.6 107.1 219.35L107.15 219.6C108.65 226.6 110.45 232.3 110.75 233.2C120.95 238.6 127.15 243.3 127.2 243.35L127.7 243.75L127.05 243.9C121.75 245.4 116 245.9 110.65 245.9Z" fill="black"/>
<path d="M84.6 232.8C84.5 232.8 84.4 232.75 84.3 232.65C84.2 232.5 84.25 232.3 84.4 232.2C87.55 230.35 98.45 223.95 106.65 219.4L106.7 219.35H106.8C107 219.35 107.15 219.5 107.15 219.7C107.15 219.85 107.05 219.95 106.95 220C98.75 224.6 87.9 230.95 84.75 232.8H84.6ZM42.95 230.1C34.5 230.1 25.6 229.95 23.45 229.9C23.25 229.9 23.15 229.75 23.15 229.55C23.15 229.35 23.3 229.25 23.5 229.25C26.4 229.3 41.4 229.55 51.3 229.4C51.5 229.4 51.65 229.55 51.65 229.7C51.65 229.9 51.5 230.05 51.35 230.05C48.7 230.1 45.85 230.1 42.95 230.1ZM101.5 78.6501C101.35 78.6501 101.2 78.5501 101.2 78.4001C101.15 78.2001 101.3 78.0501 101.45 78.0501C104.85 77.5001 111.75 74.1501 113.4 69.4001C114.25 67.0001 113.6 64.6001 111.45 62.2501C106.25 56.5001 99.45 55.6501 92.25 54.8001C80.55 53.3501 69.1 54.8501 58.15 59.3001C28.3 71.3501 19.1 57.4501 17.55 54.5501C17.45 54.4001 17.55 54.2001 17.7 54.1001C17.85 54.0001 18.05 54.1001 18.15 54.2501C18.8 55.5001 21.45 59.7001 27.8 62.0001C35.55 64.8001 45.7 63.6501 57.95 58.7001C69 54.2501 80.6 52.7001 92.4 54.1501C99.75 55.0501 106.65 55.9001 112 61.8501C114.3 64.4001 115 67.0501 114.1 69.6501C112.35 74.6001 105.2 78.1001 101.65 78.7001L101.5 78.6501Z" fill="black"/>
<path d="M1.69996 151.2C1.54996 151.2 1.39996 151.05 1.39996 150.9C-2.40004 110.85 6.34996 80.8 11.9 66.5C14.7 59.2 17.05 55.05 17.45 54.25L17.6 54.05C28 44.5 44.1 39.9 60.65 41.85C98.75 46.3 110.3 60.05 110.75 60.6L110.3 61.05L110.25 61C109.8 60.45 98.4 46.9 60.55 42.5C44.2 40.6 28.3 45.1 18.05 54.5L18 54.6C17.55 55.35 15.25 59.5 12.45 66.75C6.94996 81 -1.75004 110.9 2.04996 150.85C2.04996 151.05 1.89996 151.2 1.69996 151.2Z" fill="black"/>
<path d="M12.1993 66.9499C12.0493 66.9499 11.9493 66.8499 11.8993 66.6999C9.7993 60.0999 10.3993 52.9499 11.3493 46.1999C12.1493 40.4499 12.9993 34.4999 16.3493 29.5499C19.0993 25.4999 23.6993 22.1499 29.9493 19.4999C33.3993 18.0499 36.9493 16.9999 39.6493 16.1999C40.3993 15.9999 41.1493 15.7999 41.8993 15.6499C41.9993 15.5999 42.0993 15.5999 42.1993 15.5999L42.3493 15.5499H42.3993L42.6493 15.4999H42.8493C42.8993 15.4999 42.9993 15.4499 43.0493 15.4499C43.2993 15.3999 43.5993 15.3499 43.8993 15.2999C44.1993 15.2499 44.5493 15.1999 44.8493 15.0999C46.9493 14.7499 49.1993 14.4999 51.3993 14.3499C51.6493 14.3499 51.9493 14.2999 52.1993 14.2999H52.2493C52.5993 14.2999 52.9493 14.2499 53.2993 14.2499H53.3493C55.1493 14.1999 56.8993 14.1999 58.5993 14.2999C64.4493 14.5999 70.1993 15.5999 75.6993 17.2999C81.3993 19.0499 87.7993 22.6999 92.0493 26.5999C98.5493 32.4999 96.6993 40.6999 95.5493 46.1499C95.1493 47.9999 94.7993 49.5999 94.8493 50.6499C94.8493 50.8499 94.7493 50.9999 94.5493 50.9999C94.3493 50.9999 94.1993 50.8999 94.1993 50.6999C94.1493 49.5499 94.4993 47.8999 94.8993 45.9999C96.1493 40.3999 97.7993 32.6999 91.5993 27.0999C87.3993 23.2499 81.0993 19.6999 75.4993 17.9499C70.0493 16.2499 64.3493 15.2999 58.5493 14.9999C56.8993 14.8999 55.1493 14.8999 53.3493 14.9499H53.2993C52.9493 14.9499 52.6493 14.9499 52.2993 14.9999H52.1993C51.9493 14.9999 51.6493 14.9999 51.3993 15.0499C49.1993 15.1999 46.9993 15.4499 44.8993 15.7999C44.5993 15.8499 44.2493 15.8999 43.9493 15.9999C43.6493 16.0499 43.3993 16.0999 43.0993 16.1499H42.7993L42.4493 16.1999L42.3993 16.2499L42.1993 16.2999C42.0993 16.2999 41.9993 16.3499 41.8993 16.3499C41.1493 16.4999 40.3993 16.6999 39.6993 16.8999C36.9993 17.6499 33.4993 18.6999 30.0993 20.1499C24.0493 22.6999 19.5993 25.9999 16.8993 29.9499C13.5993 34.7499 12.7493 40.6499 11.9493 46.3499C10.9993 52.9999 10.3993 60.0499 12.4993 66.5499C12.5493 66.6999 12.4493 66.8999 12.2993 66.9499H12.1993Z" fill="black"/>
<path d="M35.1508 44.8501C34.9508 44.8501 34.8008 44.7001 34.8008 44.5001C34.9008 25.7001 42.6008 15.6001 42.7008 15.5001C42.8008 15.3501 43.0008 15.3501 43.1508 15.4501C43.3008 15.5501 43.3008 15.7501 43.2008 15.9001C43.1508 16.0501 35.5508 25.9501 35.5008 44.5501C35.5008 44.7001 35.3508 44.8501 35.1508 44.8501Z" fill="black"/>
<path d="M41.9495 16.3001C41.7995 16.3001 41.6495 16.2001 41.6495 16.0501C40.8495 13.0001 41.6495 11.4501 42.4995 10.6501C43.8495 9.35011 46.1995 9.15011 49.0495 10.0001C51.6495 10.8001 53.2995 11.8501 53.8995 13.1001C54.2995 13.9501 54.0495 14.5001 54.0495 14.6001C53.9995 14.7501 53.7995 14.8501 53.5995 14.7501C53.4495 14.7001 53.3495 14.5001 53.3995 14.3501C53.3995 14.3501 53.5495 13.9501 53.2495 13.3501C52.8995 12.6001 51.8495 11.5501 48.8495 10.6001C46.2495 9.80011 44.0995 9.95011 42.9495 11.1001C41.9495 12.0501 41.6995 13.7001 42.2995 15.8501C42.3495 16.0001 42.2495 16.2001 42.0495 16.2501C41.9995 16.3001 41.9995 16.3001 41.9495 16.3001ZM50.8495 103.1C45.7495 103.1 41.1995 98.3501 40.1995 92.0501C39.6995 88.7001 40.2495 85.4501 41.7495 82.8001C43.2495 80.1501 45.5995 78.4501 48.2495 78.0001C48.6495 77.9501 49.0995 77.9001 49.4995 77.9001C54.5995 77.9001 59.1495 82.6501 60.1495 88.9501C61.1995 95.8501 57.5995 102.15 52.0995 103C51.6995 103.05 51.2495 103.1 50.8495 103.1ZM49.4995 78.5501C49.0995 78.5501 48.7495 78.6001 48.3495 78.6501C45.8995 79.0501 43.7495 80.6001 42.2995 83.1001C40.8495 85.6001 40.3495 88.7501 40.8495 91.9501C41.7495 97.9501 46.0495 102.45 50.8495 102.45C51.2495 102.45 51.5995 102.4 51.9995 102.35C57.1495 101.55 60.4995 95.6001 59.4995 89.0501C58.5495 83.1001 54.2495 78.5501 49.4995 78.5501ZM76.4995 101.5L76.3495 101.45C72.3995 100 69.3495 95.9001 68.5995 90.9001C68.0995 87.6001 68.6495 84.3001 70.1495 81.6501C71.6495 79.0001 73.9995 77.3001 76.6495 76.8501C77.0495 76.8001 77.4995 76.7501 77.8995 76.7501C82.9995 76.7501 87.5995 81.5001 88.5495 87.8001C89.2995 92.6501 87.6995 97.4501 84.4995 100.05L84.3995 100.15H84.2495C81.8495 99.7501 79.2495 100.2 76.5995 101.45L76.4995 101.5ZM77.8995 77.4001C77.4995 77.4001 77.1495 77.4501 76.7495 77.5001C74.2495 77.9001 72.1495 79.4501 70.6995 81.9501C69.2495 84.4501 68.7495 87.6001 69.2495 90.8001C69.9495 95.5001 72.7995 99.4001 76.4495 100.8C79.1495 99.5501 81.7495 99.1001 84.1995 99.5001C87.1495 97.0501 88.5995 92.5501 87.8995 87.9501C86.9995 81.9501 82.6995 77.4001 77.8995 77.4001Z" fill="black"/>
<path d="M87.4491 101.15C87.4491 101.15 87.1991 101.05 86.7991 100.9C86.5991 100.8 86.3491 100.75 86.0491 100.65C85.7491 100.55 85.3991 100.5 85.0491 100.4C84.8491 100.35 84.6491 100.35 84.4491 100.3C84.2991 100.25 84.0491 100.25 83.8491 100.25C83.6491 100.25 83.3991 100.2 83.1991 100.2H82.4991C82.2491 100.2 82.0491 100.2 81.7991 100.25C81.5491 100.3 81.2991 100.3 81.0991 100.35C80.5991 100.45 80.0991 100.5 79.6491 100.65C79.3991 100.7 79.1491 100.75 78.9491 100.85C78.6991 100.95 78.4491 101 78.2491 101.05C77.9991 101.15 77.7991 101.2 77.5491 101.3C77.3491 101.4 77.0991 101.5 76.8991 101.55C76.4991 101.75 76.0491 101.95 75.6491 102.15C75.2491 102.35 74.8991 102.5 74.5491 102.7C74.2491 102.9 73.8991 103.05 73.6491 103.2C73.3991 103.35 73.1491 103.5 72.9491 103.65C72.5491 103.9 72.3491 104.05 72.3491 104.05L72.4991 103.9C72.5991 103.8 72.6991 103.7 72.8991 103.55C73.0491 103.4 73.2491 103.2 73.4991 103C73.7491 102.8 74.0491 102.6 74.3491 102.35C74.6491 102.1 74.9991 101.9 75.3991 101.7C75.7991 101.5 76.1491 101.25 76.5991 101C76.7991 100.9 77.0491 100.8 77.2491 100.7C77.4991 100.6 77.6991 100.5 77.9491 100.4C78.1991 100.3 78.4491 100.25 78.6991 100.15C78.9491 100.05 79.1991 100 79.4491 99.95C79.9491 99.8 80.4491 99.75 80.9991 99.65C81.2491 99.6 81.4991 99.6 81.7491 99.6C81.9991 99.6 82.2491 99.55 82.4991 99.6C82.7491 99.6 82.9991 99.6 83.2491 99.65C83.4991 99.65 83.6991 99.7 83.8991 99.75C84.0991 99.8 84.2991 99.8 84.5491 99.85L85.1491 100C85.4991 100.15 85.8491 100.25 86.1491 100.35C86.4491 100.5 86.6991 100.6 86.8991 100.7C87.1991 101 87.4491 101.15 87.4491 101.15ZM49.7991 99.05C47.4491 99.05 45.3991 96.65 45.0491 93.45C44.8491 91.85 45.1491 90.3 45.8491 89.05C46.5491 87.8 47.6491 87 48.8491 86.9C51.3491 86.6 53.5991 89.1 53.9991 92.45C54.1991 94.05 53.8991 95.6 53.1991 96.85C52.4991 98.1 51.3991 98.9 50.1991 99C50.0491 99.05 49.8991 99.05 49.7991 99.05ZM49.1991 87.55H48.8991C47.8991 87.65 46.9991 88.3 46.3991 89.4C45.7491 90.5 45.4991 91.95 45.6491 93.4C45.9491 96.35 47.9491 98.6 50.0491 98.4C51.0491 98.3 51.9491 97.65 52.5491 96.55C53.1991 95.45 53.4491 94 53.2991 92.55C52.9991 89.75 51.1991 87.55 49.1991 87.55ZM76.4991 97.8H76.1991C75.0491 97.7 73.9991 97 73.2991 95.8C72.5991 94.65 72.2991 93.2 72.4491 91.65C72.7491 88.5 74.8491 86.05 77.1991 86.25C79.5491 86.45 81.1991 89.2 80.9491 92.4C80.6991 95.4 78.6991 97.8 76.4991 97.8ZM76.9491 86.9C75.0491 86.9 73.3491 89 73.0991 91.7C72.9991 93.1 73.2491 94.4 73.8491 95.45C74.4491 96.45 75.2991 97.05 76.2491 97.15C78.2491 97.35 80.0491 95.15 80.2991 92.35C80.5491 89.55 79.1491 87.1 77.1491 86.9H76.9491ZM118.899 178.55C118.049 178.55 117.249 178.45 116.499 178.25C114.499 177.75 112.599 176.4 111.549 174.7C110.899 173.75 110.599 172.55 110.499 171.25C110.449 169.9 110.549 168.55 110.649 167.25C110.749 166.3 110.799 165.3 110.799 164.3C110.799 162.35 110.599 160.35 110.349 158.4V158.25C110.149 156.55 109.849 154.9 109.499 153.35C109.199 152.05 108.849 150.9 108.499 149.85C108.199 148.95 107.799 148 107.449 147.15L107.149 146.45C106.449 144.75 105.899 143.25 105.349 141.85C101.849 132.25 106.799 130.05 107.049 129.95C107.199 129.9 107.399 129.95 107.499 130.1C107.549 130.25 107.499 130.45 107.349 130.5C107.149 130.6 102.799 132.6 106.049 141.55C106.549 142.95 107.149 144.5 107.799 146.15L108.099 146.85C108.449 147.75 108.849 148.65 109.149 149.6C109.549 150.7 109.849 151.85 110.149 153.2C110.499 154.8 110.799 156.5 110.999 158.2V158.35C111.249 160.3 111.449 162.35 111.449 164.35C111.449 165.35 111.349 166.35 111.299 167.35C111.199 168.65 111.099 169.95 111.149 171.25C111.199 172.45 111.499 173.55 112.099 174.4C113.099 175.95 114.849 177.2 116.699 177.65C117.649 177.9 118.749 178 119.799 177.9C119.949 177.9 120.149 178 120.149 178.2C120.149 178.4 120.049 178.55 119.849 178.55C119.499 178.5 119.199 178.55 118.899 178.55Z" fill="black"/>
<path d="M73.2 161.75C68.8 161.75 63.85 161.35 58.25 160.3C58.05 160.25 57.95 160.1 58 159.9C58.05 159.7 58.2 159.6 58.4 159.65C80.6 163.65 92.35 158.25 100.15 154.65C104.1 152.85 106.9 151.55 109.65 152C109.85 152.05 109.95 152.2 109.9 152.4C109.85 152.6 109.7 152.7 109.5 152.65C106.95 152.2 104.2 153.45 100.35 155.25C94.5 158 86.4 161.75 73.2 161.75ZM12.75 175.05C10.4 174.85 7.65 174.5 5.05 174.1C4.85 174.05 4.75 173.9 4.75 173.75C4.8 173.55 4.95 173.45 5.1 173.45C7.7 173.8 10.4 174.2 12.75 174.35C12.95 174.35 13.05 174.5 13.05 174.7C13.05 174.95 12.9 175.05 12.75 175.05ZM37.7 172.9C37.55 172.9 37.45 172.8 37.4 172.7C37.35 172.55 37.45 172.35 37.6 172.3C43.05 170.4 45.25 167.85 45.3 167.8C45.4 167.65 45.6 167.65 45.75 167.75C45.9 167.85 45.9 168.05 45.8 168.2C45.7 168.3 43.5 170.9 37.85 172.9H37.7Z" fill="black"/>
<path d="M34.4504 156.7L35.2004 160.2C35.4504 161.35 35.7004 162.55 35.9504 163.7C36.2004 164.85 36.4504 166.05 36.7504 167.2L37.5504 170.65L38.4504 174.1C38.6004 174.65 38.7504 175.25 38.9004 175.8L39.4004 177.5L39.9004 179.2L40.1504 180.05L40.4504 180.9L41.6004 184.25L41.2004 184C42.4504 184 43.7004 184 45.0004 184.2C45.6504 184.3 46.3004 184.5 46.9004 184.85C47.5004 185.2 47.9504 185.75 48.3004 186.35C48.6504 186.9 48.8504 187.5 49.1004 188.05C49.4004 188.6 49.6504 189.2 49.9504 189.7L50.4004 190.5L50.9004 191.3C51.2504 191.8 51.6004 192.3 51.9504 192.85C52.6504 193.8 53.6504 194.65 54.2504 195.85C54.4004 196.15 54.5004 196.5 54.5004 196.9C54.5004 197.1 54.4504 197.3 54.4004 197.45C54.3004 197.6 54.2004 197.8 54.1004 197.9C53.9504 198.05 53.8504 198.15 53.7004 198.25L53.5004 198.4L53.4504 198.45C53.4004 198.5 53.4004 198.45 53.4004 198.5L53.3004 198.55C53.1504 198.6 53.0504 198.7 52.8504 198.75L52.3504 198.9C51.0504 199.25 49.6504 198.95 48.5004 198.35C47.3504 197.75 46.3504 196.9 45.5504 195.9L45.4504 195.8C45.4504 195.8 45.4004 195.8 45.4004 195.75C45.4004 195.75 45.3504 195.7 45.3004 195.7C45.2504 195.7 45.1504 195.7 45.1004 195.75C44.9004 195.85 44.7504 196.1 44.6504 196.35C44.6004 196.5 44.6004 196.55 44.5504 196.75L44.4504 197.2C44.4004 197.5 44.4004 197.8 44.4004 198.1C44.4004 199.3 44.6004 200.5 44.9504 201.7C45.1004 202.3 45.3504 202.85 45.6004 203.4L45.7004 203.65L45.8004 203.85C45.8504 203.95 45.8504 204 45.9004 204.1L45.9504 204.4V204.7C45.9504 204.8 45.9504 204.9 45.9004 205C45.8504 205.15 45.8004 205.35 45.6504 205.5C45.2504 206.1 44.6504 206.45 44.1004 206.75C43.5004 207.05 42.9004 207.25 42.3004 207.4C42.0004 207.5 41.7004 207.55 41.3504 207.65L40.9004 207.7L40.6504 207.75H39.9004L39.4004 207.65C39.2504 207.65 39.1004 207.55 38.9504 207.5C38.8004 207.45 38.6504 207.4 38.5004 207.3C37.9004 207 37.4504 206.5 37.0004 206.05C36.6004 205.55 36.2504 205 36.0004 204.4C35.4504 203.25 35.0504 202.05 34.8004 200.8C34.6504 200.2 34.6004 199.55 34.5504 198.95C34.5004 198.35 34.4504 197.7 34.4004 197.1C34.7004 198.3 34.9004 199.55 35.2004 200.75C35.5004 201.95 35.9004 203.15 36.4504 204.2C36.7004 204.75 37.0504 205.25 37.4004 205.75C37.8004 206.2 38.2504 206.6 38.7504 206.9C38.8504 207 39.0004 207 39.1504 207.1C39.3004 207.15 39.4004 207.2 39.5504 207.25L40.0004 207.35H40.6004L40.8504 207.3L41.3004 207.25C41.5504 207.2 41.9004 207.1 42.1504 207.05C42.7504 206.9 43.3004 206.7 43.8504 206.4C44.4004 206.15 44.9004 205.8 45.2004 205.35C45.5004 204.9 45.4004 204.4 45.1004 203.85C44.8004 203.25 44.6004 202.7 44.4004 202.05C44.0004 200.85 43.8004 199.6 43.8004 198.3C43.8004 198 43.8004 197.65 43.8504 197.3L43.9504 196.85C43.9504 196.7 44.0004 196.5 44.1004 196.35C44.2504 196.05 44.4504 195.7 44.7504 195.5C44.9004 195.4 45.1504 195.3 45.4004 195.35C45.5504 195.35 45.6504 195.4 45.7504 195.5C45.8004 195.55 45.8504 195.6 45.9004 195.6L46.0004 195.5C46.8004 196.5 47.7004 197.25 48.7504 197.8C49.8004 198.35 51.0504 198.6 52.1504 198.3L52.5504 198.15C52.7004 198.1 52.8504 198 52.9504 197.95L53.0504 197.9C53.0504 197.9 53.1004 197.85 53.1004 197.9L53.1504 197.85L53.3004 197.75C53.4504 197.7 53.5004 197.6 53.6004 197.5C54.0004 197.15 53.9504 196.6 53.7004 196.1C53.4504 195.6 53.0504 195.1 52.6504 194.65L52.0504 193.95L51.7504 193.6C51.6504 193.5 51.5504 193.35 51.4504 193.2C51.1004 192.7 50.7004 192.2 50.3504 191.65L49.8504 190.85L49.3504 190.05C49.0004 189.5 48.7504 188.95 48.4504 188.4C48.1504 187.8 47.9504 187.25 47.6504 186.75C47.3504 186.25 47.0004 185.8 46.5004 185.55C46.0004 185.25 45.4504 185.1 44.8504 185.05C43.6504 184.85 42.4004 184.85 41.2004 184.9H40.9004L40.8004 184.65L39.6504 181.25L39.3504 180.4L39.1004 179.55L38.6004 177.8L38.1004 176.05C37.9504 175.5 37.8004 174.9 37.6504 174.3C37.3504 173.15 37.1004 172 36.8004 170.8L36.0504 167.3C35.8004 166.15 35.6004 164.95 35.4004 163.8C35.2004 162.65 35.0004 161.45 34.8004 160.3C34.7504 159.1 34.6004 157.9 34.4504 156.7ZM60.9504 208.35C60.9504 208.35 61.2004 208.15 61.6504 207.7C62.1004 207.3 62.7504 206.65 63.5004 205.85C63.8504 205.4 64.3004 204.95 64.7004 204.4C64.9004 204.15 65.1504 203.85 65.3504 203.55C65.5504 203.25 65.7504 202.95 66.0004 202.6C66.8504 201.3 67.7504 199.75 68.3504 197.9C68.9504 196.05 69.3504 193.95 69.1004 191.8L69.0504 191.4C69.0504 191.3 69.0004 191.15 68.9504 191C68.9004 190.7 68.8504 190.45 68.7504 190.2C68.6004 189.65 68.4004 189.1 68.2504 188.55C67.9004 187.45 67.5004 186.25 67.5504 184.95L67.6004 184.45C67.6504 184.25 67.6504 184.15 67.7004 184C67.7504 183.85 67.8504 183.65 67.9004 183.5L68.2004 183.05C68.6504 182.5 69.3004 182.2 69.9504 182.05C70.6004 181.9 71.2504 181.8 71.8504 181.75C72.5004 181.7 73.1004 181.65 73.7504 181.55C75.0004 181.4 76.3004 181.3 77.6004 181.15C78.2504 181.1 78.9004 181 79.5504 180.95C79.8504 180.9 80.2004 180.9 80.5004 180.85L81.4504 180.7C84.0004 180.3 86.6004 179.9 89.1004 179.55C91.6504 179.15 94.1004 178.8 96.5004 178.4C97.7004 178.2 98.9004 178 100.05 177.85C101.2 177.65 102.4 177.4 103.55 177.7C103.7 177.75 103.85 177.75 104 177.8C104.15 177.85 104.25 177.9 104.4 177.95L105.15 178.4C105.6 178.75 105.95 179.2 106.25 179.65C106.85 180.55 107.15 181.6 107.35 182.55C107.45 183.05 107.5 183.5 107.55 184C107.6 184.25 107.6 184.45 107.65 184.7C107.65 184.95 107.65 185.15 107.7 185.4C107.7 185.85 107.7 186.3 107.75 186.7C107.7 187.1 107.7 187.55 107.65 187.95C107.6 188.35 107.6 188.75 107.5 189.1C107.45 189.3 107.45 189.45 107.4 189.65C107.35 189.85 107.3 190 107.25 190.15C107.2 190.3 107.15 190.5 107.1 190.65C107.05 190.8 107 190.95 106.9 191.1C106.8 191.4 106.7 191.65 106.55 191.95C106 192.95 105.45 193.7 105.05 194.15C104.65 194.6 104.4 194.85 104.4 194.85C104.4 194.85 104.6 194.6 105 194.15C105.4 193.7 105.9 192.95 106.4 191.95C106.5 191.7 106.6 191.4 106.7 191.1L106.85 190.65C106.9 190.5 106.95 190.35 106.95 190.15C107 190 107.05 189.8 107.05 189.65C107.1 189.5 107.1 189.3 107.15 189.1C107.2 188.75 107.25 188.35 107.25 187.95C107.3 187.55 107.25 187.15 107.3 186.75C107.3 186.35 107.25 185.9 107.25 185.45C107.25 185.25 107.25 185 107.2 184.8C107.15 184.6 107.15 184.35 107.1 184.1C107 183.65 106.95 183.15 106.85 182.7C106.65 181.75 106.3 180.8 105.75 179.95C105.2 179.1 104.4 178.4 103.3 178.2C102.25 178 101.15 178.2 100 178.45C98.8504 178.65 97.6504 178.85 96.4504 179.05C94.0504 179.45 91.5504 179.85 89.0504 180.25L81.4004 181.45L80.4504 181.6C80.1004 181.65 79.8004 181.65 79.4504 181.7C78.8004 181.75 78.1504 181.85 77.5004 181.9C76.2004 182.05 74.9504 182.15 73.6504 182.3C72.3504 182.45 71.0504 182.45 69.9004 182.75C69.3004 182.9 68.8004 183.15 68.4504 183.55C68.3504 183.65 68.3004 183.75 68.2004 183.85C68.1504 183.95 68.1004 184.1 68.0504 184.2C68.0004 184.35 67.9504 184.5 67.9504 184.6V185.05C67.9004 187.4 69.2004 189.55 69.4004 191.85C69.6504 194.15 69.2004 196.3 68.5504 198.15C67.9504 200.05 66.9504 201.6 66.0504 202.9C65.8004 203.2 65.6004 203.55 65.3504 203.85C65.1004 204.15 64.9004 204.4 64.6504 204.7C64.2004 205.25 63.7504 205.65 63.4004 206.1C62.6004 206.9 61.9504 207.5 61.5004 207.9C61.2004 208.15 60.9504 208.35 60.9504 208.35ZM9.90039 159.55C9.90039 159.55 10.1004 160.4 10.4004 161.9C10.7004 163.4 11.1504 165.5 11.6504 168.05C11.9004 169.3 12.2004 170.7 12.5004 172.15C12.8004 173.6 13.1004 175.15 13.4504 176.75C13.8004 178.35 14.1504 179.95 14.5504 181.6C14.9504 183.25 15.3504 184.95 15.8004 186.6C16.7004 189.95 17.7504 193.2 18.9004 196.2C20.1004 199.2 21.5004 201.9 23.1004 203.85C23.9004 204.85 24.7504 205.6 25.6504 206.05C26.5504 206.5 27.4004 206.65 28.1004 206.6C28.3004 206.6 28.4504 206.55 28.6004 206.55C28.7504 206.5 28.9004 206.45 29.0504 206.45C29.2004 206.4 29.3004 206.4 29.4004 206.35L29.7004 206.2C30.0504 206.05 30.2504 205.95 30.2504 205.95H30.3004C30.4504 205.9 30.6504 205.95 30.7504 206.1C30.8004 206.25 30.7504 206.45 30.6004 206.55C30.6004 206.55 30.4004 206.65 30.0004 206.8C29.9004 206.85 29.8004 206.9 29.6504 206.95C29.5004 207 29.4004 207 29.2504 207.05C29.1004 207.1 28.9504 207.15 28.7504 207.2C28.5504 207.2 28.4004 207.25 28.2004 207.25C27.4004 207.3 26.4004 207.2 25.4004 206.65C24.4004 206.15 23.4504 205.3 22.6004 204.3C21.7504 203.3 21.0004 202.05 20.3004 200.75C19.6004 199.4 18.9504 198 18.3504 196.45C17.1504 193.4 16.1504 190.1 15.2504 186.75C14.4004 183.4 13.6004 180 13.0004 176.85C12.7004 175.25 12.4004 173.7 12.1504 172.25C11.9004 170.8 11.6504 169.4 11.4004 168.15C10.9504 165.6 10.6004 163.45 10.3504 161.95C10.0004 160.4 9.90039 159.55 9.90039 159.55Z" fill="black"/>
<path d="M26.4498 198.95C26.4498 198.95 26.5498 199.2 26.6998 199.6C26.7998 199.8 26.8998 200.05 26.9998 200.35C27.0998 200.65 27.2498 200.95 27.3998 201.3C27.5498 201.65 27.6998 202 27.8998 202.4C28.0998 202.8 28.2998 203.2 28.5498 203.6C28.6498 203.8 28.7998 204 28.9498 204.2L29.1498 204.5L29.3498 204.8C29.6498 205.2 29.9998 205.55 30.3498 205.85C30.5498 206 30.7498 206.15 30.8998 206.3C31.0998 206.4 31.2998 206.5 31.4998 206.65C31.9498 206.8 32.3498 207 32.7998 207.05C32.8998 207.05 32.9998 207.1 33.1498 207.1H34.1498C34.5498 207.05 34.9498 207.05 35.2998 207C35.6498 206.95 35.9998 206.85 36.2998 206.8C36.5998 206.75 36.8498 206.65 37.0498 206.6C37.4498 206.5 37.6998 206.4 37.6998 206.4H37.7498C37.8998 206.35 38.0998 206.45 38.1498 206.6C38.1998 206.75 38.0998 206.95 37.9498 207C37.9498 207 37.6998 207.1 37.2998 207.25C37.0998 207.3 36.8498 207.4 36.4998 207.5C36.1998 207.55 35.8498 207.65 35.4498 207.75C35.0498 207.8 34.6498 207.85 34.1998 207.9C33.9498 207.9 33.7498 207.9 33.4998 207.85H33.1498C33.0498 207.85 32.8998 207.8 32.7998 207.8C32.2998 207.75 31.7998 207.55 31.2998 207.35C31.0498 207.2 30.8498 207.1 30.5998 206.95C30.3998 206.8 30.1998 206.6 29.9498 206.45C29.5498 206.1 29.1998 205.7 28.8998 205.3L28.6498 205L28.4498 204.7C28.2998 204.5 28.1998 204.3 28.0998 204.05C27.8998 203.6 27.6998 203.2 27.4998 202.8C27.2998 202.4 27.1998 202 27.0998 201.65C26.9498 201.3 26.8998 200.95 26.7998 200.65C26.6998 200.35 26.6498 200.1 26.5998 199.85C26.4998 199.2 26.4498 198.95 26.4498 198.95ZM55.0998 183.9C52.9498 183.9 51.0998 182.95 49.9998 181.35C48.0498 178.45 47.1498 175.05 46.2498 171.75C46.0498 170.9 45.7998 170.05 45.5498 169.25C43.7498 163.05 41.3498 156.7 36.2498 152.35C33.6998 150.2 30.3998 149.05 26.7498 149.05C24.2498 149.05 21.5498 149.6 18.9998 150.6C15.6498 151.9 12.5498 153.75 10.0998 155.85C9.14979 156.7 8.79979 157.9 8.44979 159.15C8.09979 160.5 7.69979 161.95 6.44979 162.9C5.84979 163.35 5.19979 163.55 4.49979 163.55C2.94979 163.55 1.39979 162.4 0.749789 160.8C-1.85021 154.2 2.54979 147.1 8.04979 142.9C12.1998 139.75 17.3498 138.2 23.4498 138.2C25.8998 138.2 28.4498 138.45 31.1498 138.95C35.2998 139.75 39.4998 141.4 43.6498 143.95C49.2998 147.35 53.5998 151.35 56.3998 155.75C57.7498 157.9 58.9498 160.3 59.8998 162.8C60.5998 164.6 61.2998 166.55 61.6998 168.75L61.7998 169.35C62.4498 172.95 63.2498 177.45 61.2998 180.65C60.0998 182.6 57.6498 183.9 55.0998 183.9ZM26.7498 148.35C30.5498 148.35 33.9998 149.55 36.6998 151.8C41.9498 156.25 44.4498 163 46.1998 169C46.4498 169.85 46.6498 170.65 46.8998 171.5C47.7498 174.75 48.6498 178.1 50.5498 180.9C51.5498 182.35 53.1998 183.2 55.1498 183.2C57.4998 183.2 59.6998 182.05 60.7998 180.2C62.6498 177.2 61.8498 172.85 61.2498 169.35L61.1498 168.75C60.7498 166.65 60.0498 164.75 59.3998 162.95C58.4498 160.45 57.2998 158.15 55.9498 156C53.1998 151.65 48.9998 147.75 43.3998 144.4C39.2998 141.95 35.1498 140.3 31.0998 139.5C28.4498 139 25.8998 138.75 23.4998 138.75C17.5498 138.75 12.4998 140.3 8.49979 143.35C3.19979 147.35 -1.05021 154.2 1.39979 160.45C1.94979 161.85 3.24979 162.8 4.54979 162.8C5.09979 162.8 5.64979 162.6 6.14979 162.25C7.24979 161.45 7.54979 160.2 7.89979 158.9C8.24979 157.6 8.59979 156.25 9.74979 155.25C12.2498 153.1 15.3998 151.25 18.7998 149.9C21.3998 148.9 24.1498 148.35 26.7498 148.35Z" fill="black"/>
<path d="M14.8004 177.5C14.2504 177.5 13.7504 177.5 13.2004 177.45C13.0004 177.45 12.9004 177.3 12.9004 177.1C12.9004 176.9 13.0504 176.8 13.2504 176.8C27.4504 177.35 37.0004 170.55 37.1004 170.5C37.2504 170.4 37.4504 170.45 37.5504 170.55C37.6504 170.7 37.6004 170.9 37.5004 171C37.3504 171.1 28.3504 177.5 14.8004 177.5ZM40.2504 72.3L41.7004 71.25C49.2504 65.8 54.2004 64.8 54.4504 64.75H54.5004C55.5004 64.75 56.2004 65.05 56.6504 65.7C57.5504 67.1 56.5504 69.5 56.5504 69.6L56.4504 69.85L56.2004 69.8C55.8004 69.7 55.2504 69.65 54.5504 69.65C50.2004 69.65 42.1504 71.8 42.0504 71.85L40.2504 72.3ZM54.5504 65.45C54.5004 65.45 50.1504 66.35 43.5504 70.8C46.2004 70.15 51.2504 69.05 54.4504 69.05C55.0504 69.05 55.5504 69.1 56.0004 69.15C56.2004 68.55 56.6504 67 56.1004 66.1C55.8004 65.65 55.3004 65.45 54.5504 65.45ZM81.3504 75.5H81.1504C80.6004 75.5 80.1004 75.45 79.6504 75.35C79.1004 75.35 75.6004 75.15 72.5504 71.75L71.8004 70.9L72.9004 71.2C74.8004 71.75 77.1504 71.85 79.6504 71.55C80.1004 71.5 80.5004 71.45 80.9504 71.35C81.2504 71.3 81.5504 71.25 81.8004 71.2H81.9504C82.3004 71.15 82.7004 71.1 83.0504 71.1C83.6504 71.1 84.1004 71.25 84.4504 71.5C84.9504 71.9 85.2504 72.5 85.2004 73.15C85.1504 73.85 84.8004 74.5 84.2504 74.85C83.2504 75.4 82.2504 75.5 81.3504 75.5ZM73.7504 72.1C76.5504 74.65 79.5004 74.7 79.6004 74.7H79.6504C80.1004 74.8 80.5504 74.85 81.0504 74.85H81.2504C82.1004 74.85 83.0004 74.8 83.8004 74.3C84.2004 74.05 84.4504 73.6 84.4504 73.15C84.4504 72.7 84.3004 72.3 83.9504 72.05C83.7004 71.85 83.3504 71.75 82.9004 71.75C82.5504 71.75 82.2004 71.8 81.9004 71.85H81.7504C81.4504 71.9 81.2004 71.95 80.9004 72C80.4504 72.05 80.0004 72.15 79.6004 72.2C77.5504 72.45 75.5004 72.45 73.7504 72.1ZM51.8004 126.2C50.6004 126.2 49.3004 126.1 47.8004 125.85C41.6004 124.8 39.0004 118.45 39.7004 113C39.7504 112.75 39.7504 112.55 39.8004 112.35C40.1004 110.95 40.8504 110.25 42.0004 110.25C42.6004 110.25 43.4004 110.45 44.3504 110.9C50.2004 113.45 54.0504 112.5 54.1004 112.5C56.7004 111.85 59.0504 112.7 60.3504 114.7C61.5504 116.5 61.7004 119 60.7504 121.2C59.3504 124.5 56.3004 126.2 51.8004 126.2ZM42.0504 110.85C41.5004 110.85 40.8004 111.05 40.4504 112.45C40.4004 112.65 40.4004 112.85 40.3504 113.05C39.7004 118.2 42.1004 124.2 47.9004 125.2C54.4504 126.3 58.4504 124.9 60.1504 120.9C61.0004 118.9 60.9004 116.6 59.8504 115C58.7004 113.25 56.6504 112.5 54.3004 113.1C54.3004 113.1 53.5504 113.3 52.2004 113.3C50.4504 113.3 47.6504 113 44.1504 111.45C43.2504 111 42.6004 110.85 42.0504 110.85Z" fill="black"/>
<path d="M45.5005 118.95H45.2005C43.0505 118.85 41.2005 117.7 39.7005 115.5C39.6005 115.35 39.6505 115.15 39.8005 115.05C39.9505 114.95 40.1505 115 40.2505 115.15C41.6005 117.15 43.3005 118.2 45.2005 118.3C50.1005 118.5 55.2505 112.4 55.3005 112.35C55.4005 112.2 55.6005 112.2 55.7505 112.3C55.9005 112.4 55.9005 112.6 55.8005 112.75C55.6005 113 50.6505 118.95 45.5005 118.95ZM154.25 137.5C154.25 137.5 154.05 137.6 153.7 137.75C153.55 137.85 153.3 137.95 153.1 138.05C152.85 138.15 152.6 138.3 152.3 138.45C152 138.6 151.7 138.8 151.4 138.95C151.1 139.15 150.75 139.35 150.45 139.55C150.3 139.65 150.15 139.8 150 139.9C149.85 140.05 149.7 140.2 149.55 140.3C149.4 140.45 149.3 140.6 149.15 140.75C149 140.9 148.95 141.1 148.85 141.25C148.65 141.6 148.5 142 148.45 142.35C148.35 142.75 148.3 143.15 148.3 143.55C148.25 144.35 148.3 145.1 148.3 145.75C148.35 146.4 148.35 146.95 148.4 147.3C148.45 147.7 148.45 147.9 148.45 147.9C148.45 147.9 148.2 147.05 147.95 145.8C147.9 145.5 147.85 145.15 147.8 144.75C147.75 144.35 147.7 144 147.75 143.55C147.75 143.35 147.75 143.15 147.8 142.9C147.85 142.7 147.85 142.45 147.9 142.25C148 141.8 148.15 141.35 148.35 140.95C148.5 140.75 148.6 140.55 148.75 140.35C148.9 140.2 149.05 140 149.2 139.85C149.35 139.7 149.55 139.55 149.7 139.4C149.9 139.3 150.05 139.15 150.25 139.05C150.6 138.8 150.95 138.65 151.3 138.45C151.65 138.3 151.95 138.15 152.3 138.05C152.9 137.8 153.45 137.65 153.8 137.55C154 137.55 154.25 137.5 154.25 137.5ZM149.75 134.9C150.05 134 150.25 133 150.3 132.05V131.35C150.3 131.1 150.25 130.85 150.25 130.65C150.15 130.2 150.05 129.7 149.85 129.3C149.75 129.1 149.65 128.85 149.55 128.65C149.45 128.45 149.35 128.25 149.2 128.05C149.05 127.85 148.95 127.65 148.75 127.5L148.5 127.25L148.25 127L148 126.75L147.7 126.55L147.4 126.35L147.1 126.2C146.9 126.1 146.7 125.95 146.45 125.9L145.8 125.6L145.55 125.5L145.6 125.25C146.05 123.55 146.3 121.85 146.3 120.1C146.3 118.4 146.1 116.65 145.5 115.05C145.2 114.25 144.8 113.5 144.25 112.9C143.7 112.3 143 111.8 142.2 111.55C141.8 111.4 141.4 111.35 141 111.35C140.65 111.35 140.25 111.45 139.95 111.7C139.3 112.15 138.95 112.9 138.7 113.7C138.55 114.1 138.5 114.55 138.35 114.95L138 116.25C137.8 117.1 137.55 117.95 137.35 118.8C137 120.5 136.75 122.25 136.85 123.95C136.95 125.7 137.2 127.45 137.25 129.2C137.3 131 137.1 132.8 136.45 134.5C135.75 136.2 134.5 137.65 133.05 138.7L132.5 139.1C132.3 139.2 132.1 139.35 131.9 139.45L131.3 139.8C131.1 139.9 130.9 140 130.65 140.05L130 140.3L129.35 140.5L128.7 140.7L128.05 140.8C126.25 141.1 124.45 141.05 122.7 140.65C122.25 140.55 121.85 140.5 121.4 140.35C120.95 140.2 120.55 140.1 120.1 139.95L118.85 139.45L117.65 138.85L117.35 138.7C117.25 138.65 117.15 138.6 117.05 138.5L116.5 138.15C116.1 137.9 115.75 137.7 115.4 137.4C115.05 137.15 114.65 136.9 114.3 136.6L113.3 135.75C111.95 134.55 110.75 133.25 109.6 131.9C108.5 130.55 107.45 129.1 106.5 127.6C105.55 126.1 104.65 124.6 103.85 123V122.95C103.75 122.8 103.85 122.6 104 122.5C104.15 122.4 104.35 122.5 104.45 122.65L104.5 122.7V122.65C105.25 124.2 106.15 125.75 107.1 127.2C108.05 128.65 109.05 130.1 110.2 131.45C111.3 132.8 112.5 134.05 113.8 135.2L114.8 136.05L115.85 136.8C116.2 137.05 116.55 137.3 116.95 137.5L117.5 137.85C117.6 137.9 117.7 138 117.75 138L118.05 138.15C118.45 138.35 118.8 138.55 119.2 138.7L120.4 139.2C120.8 139.35 121.2 139.45 121.65 139.6C122.05 139.75 122.5 139.8 122.9 139.9C124.6 140.25 126.35 140.3 128 140L128.65 139.9L129.25 139.7L129.85 139.5L130.45 139.25C130.65 139.15 130.85 139.1 131.05 139L131.6 138.7C131.8 138.6 131.95 138.5 132.15 138.4L132.7 138C134.1 137.05 135.25 135.65 135.9 134.1C136.5 132.5 136.75 130.8 136.65 129.05C136.6 127.35 136.35 125.55 136.25 123.8C136.15 122 136.4 120.2 136.8 118.5C137 117.65 137.25 116.8 137.45 115.9L137.8 114.6C137.9 114.2 138 113.75 138.15 113.3C138.45 112.45 138.85 111.55 139.65 110.95C140.05 110.65 140.55 110.5 141.1 110.5C141.6 110.5 142.05 110.6 142.5 110.7C143.4 110.95 144.2 111.5 144.85 112.2C145.45 112.9 145.9 113.7 146.25 114.55C146.9 116.25 147.1 118.05 147.05 119.85C147.05 121.65 146.8 123.4 146.3 125.15L146.1 124.75L146.75 125.1C147 125.2 147.2 125.35 147.4 125.45L147.7 125.65L148 125.9L148.3 126.15C148.4 126.25 148.5 126.3 148.6 126.4L148.85 126.65L149.1 126.95L149.55 127.55C149.7 127.75 149.8 128 149.9 128.2C150 128.45 150.1 128.65 150.15 128.9C150.3 129.35 150.4 129.85 150.45 130.35C150.45 130.6 150.5 130.85 150.5 131.1C150.5 131.35 150.5 131.6 150.45 131.85C150.35 133.05 150.1 134 149.75 134.9Z" fill="black"/>
<path d="M145.9 125.55C145.8 125.55 145.7 125.5 145.65 125.4C145.55 125.25 145.6 125.05 145.7 124.95C147.45 123.65 152.6 120.25 155.7 118.2L156.65 117.55C156.8 117.45 157 117.3 157.2 117.2C158.6 116.2 160.35 115 162.2 115.85C163.45 116.45 164.05 117.85 164.1 120.05V120.2C164.1 120.4 163.95 120.55 163.75 120.55C163.55 120.55 163.4 120.4 163.4 120.2V120.1C163.4 118.1 162.85 116.9 161.9 116.4C160.45 115.7 158.9 116.75 157.55 117.7C157.35 117.85 157.2 117.95 157 118.1L156.05 118.75C153 120.8 147.85 124.2 146.1 125.45C146.05 125.55 145.95 125.55 145.9 125.55Z" fill="black"/>
<path d="M149.95 129.4C149.85 129.4 149.75 129.35 149.7 129.25C149.6 129.1 149.65 128.9 149.8 128.8L154 125.95L156.85 124C158.25 123.05 159.35 122.3 160.4 121.6C160.6 121.45 160.8 121.3 161.05 121.15C161.9 120.6 162.75 120 163.7 119.75C164.95 119.45 166.1 119.7 167.05 120.6C168.3 121.75 168.5 123.65 167.7 126.3C167.65 126.45 167.45 126.55 167.3 126.5C167.15 126.45 167.05 126.25 167.1 126.1C167.6 124.45 167.95 122.25 166.65 121.05C165.85 120.35 164.9 120.1 163.9 120.35C163.05 120.55 162.2 121.15 161.45 121.65C161.25 121.8 161 121.95 160.8 122.1C159.75 122.8 158.65 123.55 157.25 124.45L154.4 126.4L150.2 129.25C150.05 129.4 150 129.4 149.95 129.4Z" fill="black"/>
<path d="M154.251 136.15C155.301 135.25 156.351 134.4 157.401 133.5C158.451 132.65 159.551 131.8 160.601 130.95C161.701 130.1 162.751 129.25 163.851 128.45C164.951 127.6 166.051 126.8 167.151 126L167.251 125.95H167.351C167.551 125.95 167.651 126 167.801 126.05C167.951 126.1 168.101 126.15 168.201 126.25C168.351 126.3 168.451 126.4 168.551 126.5C168.651 126.6 168.751 126.7 168.851 126.85C168.951 126.95 169.001 127.1 169.051 127.2C169.101 127.35 169.151 127.45 169.201 127.6C169.251 127.75 169.301 127.85 169.301 128L169.351 128.4C169.351 128.65 169.401 128.95 169.401 129.2C169.401 129.45 169.401 129.75 169.351 130C169.301 130.25 169.301 130.5 169.251 130.75L169.101 131.5L167.751 135.35L166.201 139.1C165.601 140.3 165.051 141.55 164.451 142.75L163.451 144.55L162.951 145.45L162.401 146.3L161.301 148.05L160.101 149.7C159.351 150.85 158.401 151.85 157.551 152.9C157.101 153.4 156.601 153.9 156.151 154.4C155.901 154.65 155.701 154.9 155.451 155.15L154.701 155.85L153.951 156.55C153.701 156.8 153.451 157 153.201 157.2L151.601 158.5L149.901 159.65C149.351 160.05 148.751 160.35 148.151 160.75C147.551 161.1 146.951 161.4 146.351 161.75L145.451 162.2L144.501 162.6L143.551 163C143.251 163.15 142.901 163.25 142.601 163.35C141.951 163.6 141.301 163.85 140.651 164C140.001 164.2 139.351 164.4 138.701 164.55C138.051 164.7 137.351 164.85 136.701 165L135.701 165.2L134.701 165.35C134.001 165.45 133.351 165.5 132.651 165.55C131.301 165.65 129.901 165.7 128.551 165.65C127.201 165.6 125.801 165.5 124.451 165.3C123.101 165.1 121.751 164.85 120.401 164.5C120.251 164.45 120.151 164.25 120.201 164.1C120.251 163.95 120.451 163.85 120.601 163.9C121.851 164.25 123.201 164.5 124.501 164.7C125.851 164.9 127.151 165 128.501 165.05C129.851 165.1 131.201 165.05 132.501 164.95C133.151 164.9 133.851 164.85 134.501 164.75L135.501 164.6L136.501 164.4C137.151 164.3 137.801 164.15 138.451 164C139.101 163.85 139.751 163.65 140.401 163.45C141.051 163.25 141.651 163.05 142.301 162.8C142.601 162.7 142.951 162.6 143.251 162.45L144.151 162.05L145.051 161.65L145.951 161.2C146.551 160.9 147.151 160.6 147.701 160.25C148.251 159.9 148.851 159.6 149.401 159.2L151.051 158.05L152.601 156.8C152.851 156.6 153.101 156.35 153.351 156.15L154.101 155.45L154.851 154.75C155.101 154.5 155.301 154.25 155.551 154C156.001 153.5 156.501 153.05 156.951 152.55C157.801 151.5 158.701 150.5 159.451 149.4C159.851 148.85 160.251 148.3 160.601 147.75L161.651 146.05L162.201 145.2L162.701 144.3L163.651 142.55C164.25 141.35 164.801 140.1 165.401 138.9L166.951 135.15L168.301 131.35L168.451 130.65C168.501 130.4 168.501 130.15 168.551 129.9C168.601 129.65 168.601 129.4 168.601 129.2V128.5L168.551 128.15C168.551 128.05 168.501 127.95 168.451 127.8C168.401 127.7 168.401 127.6 168.351 127.5L168.201 127.2C168.151 127.1 168.051 127.05 168.001 126.95C167.901 126.9 167.851 126.8 167.751 126.75L167.451 126.6C167.351 126.55 167.251 126.55 167.201 126.55L167.401 126.5C166.301 127.35 165.25 128.15 164.151 129C163.051 129.85 161.951 130.6 160.851 131.45C159.751 132.25 158.651 133.05 157.501 133.85C156.501 134.6 155.351 135.4 154.251 136.15Z" fill="black"/>
<path d="M136.65 165.05C136.55 165.05 136.45 165 136.4 164.95C129.85 157.4 129.55 145.9 129.95 139.7C129.95 139.5 130.1 139.4 130.3 139.4C130.5 139.4 130.6 139.55 130.6 139.75C130.2 145.85 130.55 157.15 136.9 164.5C137 164.65 137 164.85 136.85 164.95C136.8 165.05 136.7 165.05 136.65 165.05ZM202.7 80.9H186.65C160.85 80.85 156.9 77.3 152.7 67.05L125.6 74L146.55 57.65C146.45 55.75 146.35 53.8499 146.2 52.0499C145.4 38.5499 144.75 27.8499 147.85 20.15C151.2 11.95 158.7 7.59995 172.2 6.09995C177.9 5.44995 183.25 4.79995 188.4 4.19995C201.65 2.59995 213.15 1.19995 222.4 1.19995C234.25 1.19995 241.8 3.49995 246.9 8.69995C252.45 14.35 255.3 23.75 255.85 38.2999C256.5 56.7 254.5 66.55 248.85 72.4C241.2 80.35 226.3 80.9 202.7 80.9ZM153.05 66.25L153.15 66.5C157.3 76.65 161 80.1499 186.6 80.2H202.65C226.1 80.2 240.9 79.65 248.4 71.85C253.9 66.15 255.85 56.4 255.2 38.2C254.1 7.69995 242.35 1.74995 222.4 1.74995C213.2 1.74995 201.75 3.14995 188.5 4.74995C183.35 5.39995 178 6.04995 172.3 6.64995C144.3 9.74995 145.2 24.75 146.85 51.9C146.95 53.75 147.1 55.7 147.2 57.7V57.8499L147.05 57.95L128.4 72.5L153.05 66.25Z" fill="black"/>
</g>
</g>
<defs>
<clipPath id="clip0_278_359">
<rect width="256" height="256" fill="white"/>
</clipPath>
<clipPath id="clip1_278_359">
<rect width="256" height="256" fill="white"/>
</clipPath>
</defs>
</svg>
