<svg width="256" height="256" viewBox="0 0 256 256" fill="none" xmlns="http://www.w3.org/2000/svg">
<g clip-path="url(#clip0_278_140)">
<g clip-path="url(#clip1_278_140)">
<path d="M163.401 55.6002H163.301C163.201 55.6002 163.151 55.5002 163.151 55.4002V55.3002C160.851 53.5502 158.651 51.4502 155.801 50.4002C155.401 50.2502 154.951 50.1002 154.551 50.0502C151.251 49.2502 147.851 49.8502 144.951 51.6502C143.301 52.6502 141.401 53.5002 139.151 54.1502C136.651 54.9002 134.051 55.3502 131.501 55.5002C130.451 55.2502 129.201 55.2002 127.901 55.5502C127.651 55.5502 127.401 55.5502 127.151 55.5002C127.201 55.5502 127.251 55.6502 127.301 55.7002H127.251C126.051 56.1002 124.851 56.5002 123.651 56.9502C121.301 55.4002 119.201 54.0002 119.001 53.9002C118.101 53.6002 117.201 53.2502 116.301 52.8502C113.151 51.4502 110.301 50.3002 107.601 49.3002C99.8508 46.4502 92.3508 44.8002 85.3008 44.3502C82.4508 44.1502 79.7008 44.1502 77.0008 44.3502C75.6508 44.4502 74.3008 44.6002 73.0008 44.8002C73.1008 44.8502 73.1508 44.9502 73.1008 45.0002C73.0508 45.1502 70.6008 52.6002 67.4508 63.4002C67.0008 64.9002 66.5508 66.4502 66.1008 68.0502V68.1502C62.7008 80.1002 58.8508 94.9002 56.3508 108.4C56.3508 108.45 56.3008 108.45 56.3008 108.5L60.4008 108.8L99.2508 111.45C100.351 111.55 101.451 112.25 101.501 113.4C101.501 113.45 102.501 129 103.451 144.9H103.601C116.001 151.75 130.751 150.15 136.651 149.15C140.101 137 145.201 128.35 153.151 121.25C153.751 120.7 154.351 120.15 155.001 119.65C157.551 117.55 160.151 115.75 162.701 114.4C161.451 95.4002 162.901 65.2502 163.401 55.6002ZM94.9008 50.6502C94.4508 50.6002 94.0008 50.6002 93.5508 50.6002C88.5508 50.6002 82.9508 52.6502 82.9008 52.6502L82.5508 52.7502L82.6508 52.4002C83.2508 50.1002 91.5008 46.7002 91.8508 46.5502C92.1508 46.4502 92.4508 46.3502 92.7008 46.3502C94.9008 46.3502 95.1508 50.2502 95.1508 50.4002V50.6002L94.9008 50.6502Z" fill="#8CB0DC"/>
<path d="M167.649 173.25C167.349 175.15 167.149 177.1 166.699 179C166.499 179.95 166.349 180.9 166.099 181.85L165.349 184.65C165.099 185.6 164.799 186.5 164.499 187.4C164.199 188.3 163.949 189.25 163.599 190.15L162.599 192.85L161.499 195.55C161.149 196.45 160.749 197.35 160.349 198.2C159.949 199.1 159.549 199.95 159.149 200.85C158.299 202.6 157.449 204.35 156.549 206C155.649 207.7 154.699 209.4 153.749 211.1C152.799 212.75 151.799 214.45 150.799 216.1C148.799 219.4 146.749 222.7 144.699 225.95L142.149 230C139.349 229.55 136.549 229.15 133.899 228.8C127.549 227.95 121.649 227.4 116.899 227.05C115.849 226.95 114.849 226.9 113.899 226.8L117.449 212.3L117.499 212.05H117.249C115.599 212.15 113.949 212.3 112.299 212.4C110.649 212.45 108.999 212.55 107.299 212.55C105.649 212.6 103.999 212.5 102.299 212.45C101.449 212.45 100.649 212.35 99.7992 212.3C99.3992 212.25 98.9992 212.25 98.6492 212.2C98.1992 212.15 97.7992 212.1 97.3492 212.05L94.8992 211.75L92.4492 211.35C91.6492 211.25 90.7992 211.05 89.9992 210.9L88.7992 210.65L87.5992 210.35C85.9992 209.95 84.3992 209.5 82.7992 209C81.2492 208.5 79.6992 207.9 78.1492 207.2C77.4992 206.9 76.8492 206.6 76.2492 206.3C75.3992 205.9 74.5492 205.45 73.7492 204.95C73.0492 204.5 72.2992 204.15 71.6492 203.65C70.9492 203.2 70.2492 202.75 69.5992 202.25C68.9492 201.75 68.2492 201.25 67.6492 200.7C66.9992 200.15 66.3992 199.65 65.7992 199.05C65.1992 198.5 64.5992 197.9 64.0492 197.3L63.1992 196.4L62.3992 195.45C61.3492 194.2 60.3992 192.8 59.4992 191.4C58.6492 190 57.8492 188.55 57.1492 187.05C56.4492 185.55 55.8492 184 55.3492 182.45C54.8492 180.95 54.4992 179.45 54.1992 177.9L57.1492 178.1L59.4492 178.25L68.3992 178.8C71.3492 174.25 76.9492 171.7 82.2492 170.9C87.7992 170.1 93.3992 169.7 98.9492 169L98.9992 168.95C98.5492 168.95 99.0992 168.65 99.4492 168.55C101.149 167.05 102.749 166 104.599 165.15C104.249 159.35 103.799 152.25 103.349 145.2C104.699 145.95 106.049 146.55 107.399 147.1C113.649 149.6 120.199 150.35 125.699 150.35C130.199 150.35 133.999 149.85 136.399 149.45C136.349 149.65 136.249 149.9 136.199 150.1C134.749 155.45 133.599 162.85 136.499 168.05C136.799 168.6 137.149 169.15 137.599 169.6C139.199 171.5 141.549 172.55 143.949 172.55C144.299 172.55 144.649 172.55 144.999 172.5C148.149 172.1 150.499 169.95 151.349 166.7C151.749 165.1 151.899 163.4 151.899 161.7C153.199 163.9 158.199 171.15 167.349 173.25H167.399C167.549 173.3 167.599 173.3 167.649 173.25Z" fill="#3B82F6"/>
<path d="M59.0492 48.6498C58.6492 48.8498 58.1992 48.9998 57.7492 49.1998C56.2992 49.7998 54.8492 50.3998 53.6992 51.1998C52.1492 52.2998 50.9992 53.2998 50.2492 54.2998L50.1992 54.3498C49.1992 55.6498 48.9492 56.8498 49.4492 57.8998C51.4992 62.2998 65.5492 63.3498 67.0492 63.4498C70.2492 52.5498 72.6992 44.9998 72.7492 44.8498C72.7492 44.7998 72.7992 44.7998 72.7992 44.7998C69.9492 45.1998 67.1992 45.7998 64.6492 46.5498C62.8492 47.0998 60.9492 47.7998 59.0492 48.6498Z" fill="#285CB2"/>
<path d="M105.2 178.4C105.15 177.75 101.15 113.55 101.15 113.4C101.1 112.45 100.15 111.9 99.1996 111.8L48.2496 108.3C46.9496 108.3 45.7496 108.7 44.8496 109.1C49.6496 109.45 97.3996 112.9 97.4496 112.9C97.7996 112.9 98.5996 113.05 99.0996 113.6C99.3496 113.9 99.4496 114.3 99.4996 114.7C99.4996 114.8 99.5496 114.85 99.5496 114.95C99.5496 114.95 103.65 179.05 103.7 179.35C103.7 179.6 103.7 179.9 103.6 180.2C105.1 179.5 105.2 178.45 105.2 178.4Z" fill="#A4A7AA"/>
<path d="M163.9 124.75C162.25 125.8 160.7 127.1 159.2 128.85C154.85 133.9 153 140.5 152.2 145.2C152.1 145.7 152 146.2 151.95 146.7C151.6 148.6 151.25 150.55 151.25 152.6C151.25 154 151.35 155.4 151.45 156.8C151.7 160.1 151.9 163.5 151.1 166.6C150.5 168.85 149.15 170.55 147.3 171.45C146.6 171.8 145.85 172 145.05 172.1C144.8 172.15 144.55 172.15 144.35 172.15C141.35 172.25 138.5 170.6 137 167.85C134.2 162.8 135.3 155.45 136.75 150.2C139.4 140.45 143.1 132.9 148.35 126.65C149.9 124.8 151.6 123.1 153.4 121.4C153.8 121.05 154.15 120.75 154.55 120.4C157.25 118.1 160 116.15 162.7 114.65C163 118.7 163.4 122.15 163.9 124.75Z" fill="#3B82F6"/>
<path d="M103.299 179.4C103.299 179.1 99.1495 115 99.1495 115C99.1495 114.95 99.0995 114.85 99.0995 114.8C99.0495 114.45 98.9995 114.1 98.7995 113.9C98.4995 113.55 97.9995 113.35 97.3995 113.3C97.3995 113.3 95.7995 113.2 93.1995 113C91.0995 112.85 88.3995 112.65 85.2495 112.45C69.7495 111.35 44.8495 109.55 44.4995 109.5C44.3495 109.5 44.1995 109.5 44.0495 109.55C43.8495 109.65 43.6995 109.75 43.6495 109.8C43.4495 110 43.3495 110.25 43.3995 110.6C43.3995 110.65 44.6495 125.4 44.6995 126.05L45.2495 132.6H45.3495C46.7495 132.55 48.1495 132.5 49.0995 132.55C50.8495 132.6 51.7995 132.75 52.9495 134C54.3495 135.5 54.8495 138.5 53.3995 140.1C54.7495 141.35 55.5995 143.35 55.5995 145.2C55.5495 146.45 55.0995 148.3 53.1995 149.85C53.8995 151 54.2495 152.35 54.0495 153.55C53.8995 154.4 53.5995 155.2 53.0995 155.8C51.8495 157.35 49.8495 158.25 47.4495 158.35L48.5995 172.2L48.9495 176.2C48.9995 176.4 48.9995 176.65 49.0995 176.85C49.2495 177.25 49.6995 177.25 50.1995 177.3C50.6495 177.3 51.0995 177.35 51.5495 177.4C51.8495 177.4 52.1995 177.45 52.4995 177.45C52.8495 177.45 53.2495 177.5 53.5995 177.5L54.0995 177.55L101.949 180.65C102.499 180.65 102.849 180.6 103.049 180.4C103.299 180.15 103.299 179.7 103.299 179.4ZM49.4495 112.8C50.9495 112.65 52.2495 113.85 52.2495 115.4C52.2495 116.85 51.0995 118 49.6995 118H49.4495C48.1495 117.85 47.1495 116.75 47.1495 115.4C47.1995 114.05 48.1995 112.9 49.4495 112.8ZM54.3995 117.35H54.2495C54.0495 117.35 53.8495 117.25 53.6995 117.15C53.2495 116.9 52.9495 116.4 52.9495 115.85C52.9495 115.1 53.4995 114.45 54.2495 114.4C55.0995 114.3 55.8495 115 55.8495 115.85V116.1C55.6995 116.85 55.0995 117.35 54.3995 117.35Z" fill="#BFDBFE"/>
<path d="M126.35 6.09977C125.9 5.99977 125.4 5.89977 124.95 5.79977H124.9C122.35 5.29977 119.85 4.89977 117.55 4.64977C117 4.54977 116.45 4.49977 115.9 4.49977C115.95 3.99977 116.15 2.24977 117.25 1.29977C117.9 0.749773 118.75 0.549773 119.75 0.649773C120.1 0.699773 120.4 0.749773 120.75 0.749773C121.7 0.899773 122.55 0.999773 123.3 1.19977C124.5 1.49977 125.35 1.89977 125.85 2.59977C126.45 3.29977 126.6 4.44977 126.35 6.09977Z" fill="#3B8EEC"/>
<path d="M97.4 212.5L88.8 226.5C86.95 225.7 84.6 224.75 81.8 223.7C77.95 222.25 73.15 220.65 67.4 219.05C66.4 218.75 65.35 218.45 64.25 218.2C66.05 213.85 68.2 208.8 70.5 203.5C70.85 203.75 71.2 203.95 71.5 204.2C72.15 204.65 72.9 205.1 73.65 205.5C75.1 206.35 76.6 207.1 78.1 207.75C79.65 208.4 81.2 209 82.75 209.55C84.3 210.05 85.85 210.5 87.4 210.9C87.45 210.9 87.5 210.95 87.55 210.95L88.75 211.25L89.95 211.5C90.75 211.65 91.6 211.85 92.4 211.95L94.85 212.35L97.4 212.5Z" fill="#3B82F6"/>
<path d="M88.6 226.85L78.2 243.8C77.15 244 65.9 246 54 242.55C53.7 242.45 53.45 242.4 53.15 242.3C50.05 241.35 46.85 239.95 43.85 238.05C43.75 238 43.6 237.9 43.5 237.85C45 237.25 51.5 234.7 57.9 233.4H58L58.05 233.3C58.1 233.2 60.45 227.25 64.05 218.55C65.15 218.85 66.15 219.1 67.2 219.4C72.95 221 77.7 222.6 81.6 224.05C84.45 225.1 86.75 226.05 88.6 226.85Z" fill="#8CB0DC"/>
<path d="M101 74.2998C101 67.0998 95.85 61.2998 89.5 61.2998C83.15 61.2998 78 67.1498 78 74.2998C78 81.4998 83.15 87.2998 89.5 87.2998C95.8 87.2998 101 81.4498 101 74.2998ZM87.4 79.4998C85.7 79.4998 84.3 80.7998 84.25 82.4998C84.25 82.5998 84.2 82.6498 84.05 82.6998C83.95 82.6998 83.85 82.5998 83.85 82.4998C83.95 80.5998 85.5 79.0998 87.4 79.0998H87.6C89.55 79.1998 91.05 80.8498 90.95 82.8498C90.95 82.9498 90.85 83.0498 90.75 83.0498C90.65 83.0498 90.55 82.9498 90.55 82.8498C90.65 81.0998 89.3 79.5998 87.55 79.4998H87.4Z" fill="#EFF6FF"/>
<path d="M94.7004 50.25C94.6004 49.45 94.2004 46.75 92.6504 46.75C92.4504 46.75 92.2004 46.8 91.9504 46.9C89.7504 47.8 84.3004 50.35 83.1504 52.15C84.5504 51.65 89.2504 50.2 93.5004 50.2C93.9504 50.25 94.3004 50.25 94.7004 50.25Z" fill="#4F5C72"/>
<path d="M115.651 91.6998C122.201 91.6998 127.501 85.4498 127.501 77.7498C127.501 70.0498 122.201 63.7998 115.651 63.7998C109.101 63.7998 103.801 70.0498 103.801 77.7498C103.801 85.4498 109.101 91.6998 115.651 91.6998ZM113.051 82.6998C113.951 83.0498 114.651 83.6998 115.001 84.5998C115.401 85.4498 115.401 86.4498 115.051 87.2998C115.001 87.3998 114.951 87.3998 114.851 87.3998H114.801C114.701 87.3498 114.651 87.2498 114.701 87.1498C115.001 86.3498 115.001 85.4998 114.651 84.6998C114.301 83.8998 113.701 83.3498 112.901 82.9998C111.251 82.3498 109.451 83.1998 108.801 84.7998C108.751 84.8998 108.651 84.9498 108.551 84.8998C108.451 84.8498 108.401 84.7498 108.451 84.6498C109.151 82.8998 111.251 81.9498 113.051 82.6998Z" fill="#EFF6FF"/>
<path d="M146.5 45.5498V45.6498C146.4 45.6498 146.35 45.6998 146.3 45.7498C140.05 43.1998 132.75 40.9998 125.45 39.2498C109.35 35.3998 93.0504 33.6998 87.6004 35.4998C84.2504 36.3498 81.2004 37.1998 78.4004 38.0498C77.3504 38.3498 76.3504 38.6998 75.4004 38.9998C78.6004 27.3998 82.8504 15.8998 92.3004 9.59985C97.8504 5.89985 104.95 4.24985 113.65 4.64985C118.45 4.84985 123.8 5.69984 129.65 7.19984C130.7 7.44984 131.75 7.74985 132.8 8.04985L132.9 8.09985C136.8 9.19985 141.05 10.3998 145.2 11.9998C148 19.5998 150.45 31.5498 146.5 45.5498Z" fill="#3B8EEC"/>
<path d="M160.7 22.0502C156.95 17.5002 151.45 14.4502 145.65 12.2002C148.4 19.8502 150.8 31.7502 146.85 45.7002C146.85 45.7502 146.8 45.7502 146.8 45.7502C146.85 45.8002 146.9 45.9502 146.9 46.0502C150.1 47.4002 152.95 48.8002 155.45 50.2502C158.3 51.3002 161 53.1502 163.3 54.9002C163.35 54.6002 163.45 54.3502 163.5 54.0502C163.85 53.1002 163.85 53.1502 163.85 53.1002C163.85 53.0002 163.8 52.7502 163.9 52.7502C163.95 52.7502 164.1 52.0502 164.15 52.1002C164.7 49.6502 164.85 47.6502 165.15 45.4502C166.55 35.0002 165.1 27.3502 160.7 22.0502Z" fill="#285CB2"/>
<path d="M153.9 49.7501C150.7 49.0001 147.7 49.5001 144.8 51.3001C143.2 52.3001 141.3 53.1001 139.1 53.7501C135.05 54.9501 130.85 55.3501 126.75 55.0501C123.2 54.7501 119.75 53.9001 116.5 52.4501C113.35 51.0501 110.5 49.9001 107.8 48.9001C99.05 45.7001 90.6 44.0001 82.75 43.8001C80.8 43.7501 78.9 43.8001 77 43.9501C72.55 44.3001 68.4 45.0501 64.55 46.2001C62.85 46.7001 61.1 47.3501 59.3 48.1001C59.15 48.1501 59 48.2501 58.85 48.3001C58.45 48.5001 58 48.6501 57.6 48.8501C56.15 49.4501 54.65 50.0501 53.45 50.9001C52.8 51.3501 52.3 51.7501 51.75 52.2001C54.9 48.8001 63.85 41.8001 87.65 35.8501C88.8 35.4501 90.45 35.2501 92.5 35.2001C99.55 34.9501 111.1 36.4001 122.95 39.0501C134.4 41.6501 146 45.3501 153.9 49.7501Z" fill="#3B8EEC"/>
<path d="M126.65 55.4C124.5 55.2 122.4 54.85 120.35 54.25C122.8 55.85 128.4 59.55 130.4 60.9C130.2 60.2 129.45 58.5 126.65 55.4Z" fill="#4F5C72"/>
<path d="M189.15 148.05C188.75 148.75 188.3 149.5 187.9 150.2C187.5 150.8 187.1 151.45 186.7 152.05L186.1 152.95C185.9 153.25 185.65 153.5 185.45 153.8C185 154.35 184.55 154.95 184.1 155.5C183.65 156 183.15 156.55 182.65 157.05C181.65 158.05 180.55 158.9 179.45 159.6C178.3 160.3 177.15 160.9 175.9 161.3C173.5 162.15 170.95 162.2 168.8 161.7C167.7 161.45 166.75 161.05 165.8 160.6L165.2 160.3L164.9 160.15C164.75 160.05 164.6 160 164.45 159.9C164.15 159.7 163.85 159.5 163.55 159.35H163.5C163.4 159.3 163.3 159.25 163.25 159.15C161.75 158.1 160.6 157 159.65 156.1C158.7 155.15 158 154.4 157.55 153.9C157.5 153.85 157.45 153.75 157.4 153.7C157.3 153.6 157.2 153.5 157.15 153.4L156.85 153.1C156.85 153.05 156.8 153.05 156.75 153.1C156.7 153.1 156.7 153.15 156.75 153.2C156.75 153.2 157 153.5 157.45 154C157.9 154.55 158.6 155.3 159.55 156.25C160.5 157.2 161.65 158.3 163.15 159.4C164.5 160.35 166.15 161.3 168.05 161.85L168.1 167.55C167.95 169.4 167.85 171.2 167.65 173.05C167.65 173 167.6 173 167.55 173C157.25 170.65 152.35 161.65 152 161.05C152 159.65 151.9 158.3 151.8 156.9C151.7 155.5 151.6 154.1 151.6 152.7C151.6 150.7 151.9 148.85 152.3 146.9L152.6 145.4C153.4 140.75 155.2 134.2 159.5 129.2C160.85 127.7 162.2 126.45 163.65 125.5C163.75 125.4 163.9 125.35 164.05 125.25C164.1 125.55 164.15 125.8 164.25 126.1V126.15C164.4 126.4 167.05 130.8 170.4 132.95C171.5 133.65 172.65 134.1 173.8 134.1H173.95C175.5 134.05 176.85 133.15 178.05 131.45C178.35 132.05 178.65 132.75 179 133.5C180.75 137.1 183.6 142.05 187.55 146.4C188.05 146.95 188.6 147.5 189.15 148.05ZM44.4996 126C44.4996 126 39.8996 127.05 37.3496 134.6L44.4996 126Z" fill="#8CB0DC"/>
<path d="M52.9509 149.75C53.3509 150.35 53.6009 150.95 53.7509 151.6C53.8509 152 53.9009 152.4 53.9009 152.85V153.55C53.8009 154.35 53.4509 155.1 52.9509 155.7C52.0009 156.9 50.6509 157.6 49.2009 157.95C48.6509 158.1 48.1009 158.25 47.4509 158.35L47.4009 158.25H46.4009C46.1509 158.15 45.9009 158.1 45.6509 158.1C45.5009 158.1 45.3509 158.1 45.2009 158.15C43.6009 157.95 42.0009 157.65 40.5509 156.9C37.8009 155.4 35.5509 152.3 34.6009 149.35C33.6009 146.2 33.5509 142.7 34.6009 139.55C35.4509 137 36.7009 135.25 38.0509 134C38.2009 133.25 39.2509 128.1 44.3509 126.2C44.5009 126.15 44.6009 126.1 44.7509 126.05L45.0509 130.95V131.35L45.1509 132.9C45.8009 132.9 47.4509 132.75 49.1509 132.85C49.9009 132.85 50.6009 132.95 51.3009 133.1C52.6009 133.35 53.4009 134.45 53.8009 135.8C54.2009 137.1 54.2509 138.6 53.1509 140.1C53.1509 140.1 55.5509 142.15 55.3509 145.1C55.3509 145.05 55.5509 147.7 52.9509 149.75ZM221.751 113.3C221.701 113.65 221.701 114 221.601 114.4C221.451 115.15 221.151 115.95 220.701 116.75C219.851 118.35 218.451 119.9 216.701 121.3C214.951 122.7 212.901 124.05 210.651 125.35C209.501 126 208.351 126.65 207.151 127.3C205.951 127.95 204.751 128.6 203.501 129.25C202.851 129.55 202.201 129.9 201.601 130.2L200.651 130.75C200.351 130.9 200.001 131.1 199.701 131.35C198.501 132.2 197.551 133.4 196.751 134.7L192.251 142.5C191.501 143.8 190.751 145.1 190.051 146.45C189.801 146.9 189.551 147.35 189.251 147.8C188.701 147.25 188.151 146.65 187.601 146.1C183.651 141.75 180.851 136.8 179.101 133.2C178.701 132.4 178.401 131.7 178.101 131.1C178.251 130.85 178.401 130.55 178.551 130.25C178.601 130.2 181.851 123.5 184.601 118.45C186.151 115.65 185.051 113.2 184.051 110.8C183.651 109.9 183.251 109 183.001 108.05C182.451 106.05 183.001 104.25 183.651 102.35C183.901 101.6 184.101 100.85 184.301 100.1C184.751 98.0498 184.951 95.8498 184.901 93.1998V92.8998C185.101 92.4998 185.501 92.2998 186.101 92.3498C186.551 92.3498 187.051 92.4998 187.551 92.7498C189.401 93.5998 191.551 95.5998 192.501 98.0498C193.251 99.9498 193.551 102.75 190.851 105.5L190.651 105.7L190.951 105.8C190.951 105.8 192.451 106.3 193.851 107.5C193.901 107.5 193.901 107.45 193.951 107.45C194.051 107.4 194.101 107.35 194.201 107.3C193.851 107 193.501 106.75 193.151 106.5C193.551 106.25 194.451 105.75 195.701 105.5C196.551 105.3 197.601 105.25 198.751 105.45C198.901 105.4 199.001 105.35 199.151 105.35C199.251 105.3 199.351 105.3 199.501 105.25C199.101 105.15 198.751 105.05 198.401 105C200.051 104.35 201.751 103.65 203.501 102.85C204.401 102.45 205.301 101.95 206.151 101.5C207.801 100.6 209.501 99.6498 211.351 99.3498C212.901 99.0998 215.401 99.9498 216.101 101.25C216.401 101.8 216.351 102.4 215.901 103.05C215.801 103.25 215.651 103.4 215.451 103.6L215.251 103.8C215.301 103.8 215.301 103.85 215.351 103.9C215.401 103.95 215.501 104 215.551 104.05C215.601 104 215.701 103.95 215.751 103.85C216.051 103.55 216.251 103.3 216.351 103C217.301 103.6 219.301 104.95 219.551 106.75C219.651 107.5 219.451 108.25 218.951 109C218.801 109.2 218.651 109.4 218.501 109.55C218.351 109.7 218.201 109.85 218.051 110.05V110.25C218.051 110.4 218.001 110.55 218.001 110.7C218.151 110.55 218.251 110.4 218.401 110.3C218.551 110.15 218.701 110 218.801 109.85C219.101 109.5 219.351 109.2 219.501 108.85C219.451 108.95 219.451 109 219.551 109.05C219.551 109.05 219.851 109.3 220.301 109.8C220.751 110.3 221.351 111.15 221.551 112.4C221.801 112.6 221.751 112.95 221.751 113.3Z" fill="#3B8EEC"/>
<path d="M144.049 255.25L139.849 255.35C139.099 255.35 138.299 255.4 137.549 255.4L135.249 255.3L132.949 255.2C132.199 255.15 131.399 255.15 130.649 255.1L126.049 254.65L124.899 254.55L124.349 254.45L123.749 254.35L121.449 254L119.149 253.65L116.849 253.25L114.549 252.85L112.299 252.35C110.849 252.05 109.399 251.7 107.949 251.35L113.949 227.1C114.899 227.15 115.899 227.25 116.949 227.35C121.649 227.7 127.449 228.3 133.799 229.1C134.399 229.2 134.999 229.25 135.599 229.35C137.699 229.65 139.899 229.95 142.049 230.3L141.749 230.8C140.749 232.45 139.699 234.1 138.749 235.75L137.299 238.25L135.899 240.8L135.199 242.1C134.999 242.55 134.799 243 134.549 243.4L133.299 246.05L133.249 246.2L133.399 246.3C133.899 246.6 134.399 246.9 134.899 247.25L136.349 248.3C136.849 248.65 137.299 249.05 137.749 249.45C138.199 249.8 138.699 250.2 139.149 250.6C140.799 252.15 142.449 253.65 144.049 255.25Z" fill="#8CB0DC"/>
<path d="M103.25 72.05C102.3 65.95 97.6004 61.25 91.9004 61.25C91.5004 61.25 91.0504 61.25 90.7004 61.35C90.4504 61.4 90.1504 61.4 89.9004 61.5C95.3004 62.6 99.4004 67.9 99.4004 74.3C99.4004 80.7 95.3004 86.05 89.9004 87.1C90.1504 87.15 90.4004 87.2 90.7004 87.25C91.1004 87.3 91.5004 87.35 91.9004 87.35C96.5004 87.35 100.5 84.25 102.3 79.85C103 78.15 103.4 76.3 103.4 74.35C103.45 73.55 103.4 72.8 103.25 72.05ZM118.1 63.85C117.7 63.85 117.3 63.85 116.9 63.9C116.65 63.95 116.4 64 116.1 64.05C121.65 65.2 125.95 70.9 125.95 77.75C125.95 84.6 121.7 90.35 116.1 91.45C116.35 91.5 116.6 91.55 116.9 91.6C117.3 91.65 117.7 91.65 118.1 91.65C124.6 91.65 129.95 85.4 129.95 77.75C129.9 70.1 124.6 63.85 118.1 63.85Z" fill="#6D7D90"/>
<path d="M90.7004 61.35C90.3004 61.3 89.9004 61.25 89.4504 61.25C89.2004 61.25 88.9004 61.25 88.6504 61.3C89.0504 61.35 89.5004 61.4 89.9004 61.5C95.3004 62.6 99.4004 67.9 99.4004 74.3C99.4004 80.7 95.3004 86.05 89.9004 87.1C89.5004 87.2 89.1004 87.25 88.6504 87.3C88.9004 87.3 89.1504 87.35 89.4504 87.35C89.8504 87.35 90.3004 87.35 90.7004 87.25C96.5004 86.55 101 81 101 74.3C101 67.6 96.5004 62.05 90.7004 61.35Z" fill="#C5C9CF"/>
<path d="M85.2995 112.4C77.7495 112.25 64.1495 112.6 55.8495 116.15C55.0995 116.45 54.3995 116.8 53.7495 117.2C53.0995 117.55 52.4495 117.95 51.8995 118.4C47.9495 121.5 46.0495 126.15 45.3995 132.6H45.2995L44.6995 126C44.6495 125.35 43.3995 110.6 43.3995 110.55C43.3495 110.25 43.4495 109.95 43.6495 109.75C43.6995 109.7 43.8495 109.65 44.0495 109.5C44.1995 109.45 44.3495 109.45 44.4995 109.45C44.8495 109.5 69.7495 111.3 85.2995 112.4Z" fill="#EDEDED"/>
<path d="M116.851 63.9001C116.451 63.8501 116.051 63.8501 115.601 63.8501C115.351 63.8501 115.101 63.8501 114.801 63.9001C115.201 63.9501 115.651 64.0001 116.051 64.1001C121.601 65.2501 125.901 70.9501 125.901 77.8001C125.901 84.6501 121.651 90.4001 116.051 91.5001C115.651 91.6001 115.251 91.6501 114.801 91.7001C115.051 91.7001 115.301 91.7501 115.601 91.7501C116.001 91.7501 116.451 91.7501 116.851 91.7001C122.801 90.9501 127.451 85.0501 127.451 77.8501C127.451 70.6001 122.801 64.6501 116.851 63.9001Z" fill="#C5C9CF"/>
<path d="M49.5008 117.6C50.8008 117.75 51.8508 116.7 51.8508 115.4C51.8508 114.15 50.9008 113.2 49.7008 113.2H49.5008C48.4008 113.3 47.5508 114.3 47.5508 115.4C47.5508 116.5 48.4008 117.45 49.5008 117.6Z" fill="#0A0A0A"/>
<path d="M54.2996 116.95C54.9496 117 55.4496 116.5 55.4496 115.85C55.4496 115.25 54.9996 114.75 54.3996 114.75H54.2996C53.7496 114.8 53.3496 115.3 53.3496 115.85C53.3496 116.45 53.7496 116.9 54.2996 116.95Z" fill="#EFF6FF"/>
<path d="M126.351 6.10019C125.901 6.0002 125.401 5.9002 124.951 5.8002H124.901C125.401 3.9502 124.301 2.2502 123.301 1.2002C124.501 1.5002 125.351 1.9002 125.851 2.6002C126.451 3.3002 126.601 4.45019 126.351 6.10019Z" fill="#285CB2"/>
<path d="M53.7492 151.6C53.8492 152 53.8992 152.4 53.8992 152.85V153.55C53.7992 154.35 53.4492 155.1 52.9492 155.7C52.0492 156.8 50.7992 157.5 49.4492 157.85C54.0992 156.25 53.8492 152.45 53.4992 150.75C53.5992 151.05 53.6992 151.3 53.7492 151.6Z" fill="#BFDBFE"/>
<path d="M144.149 162.45C142.249 162.45 140.699 164 140.699 165.9C140.699 167.8 142.249 169.35 144.149 169.35C146.049 169.35 147.599 167.8 147.599 165.9C147.599 164 146.049 162.45 144.149 162.45ZM143.649 167.3C143.399 167.55 143.049 167.55 142.799 167.3C142.549 167.05 142.549 166.7 142.799 166.45C143.049 166.2 143.399 166.2 143.649 166.45C143.899 166.65 143.899 167.05 143.649 167.3ZM143.649 165.4C143.399 165.65 143.049 165.65 142.799 165.4C142.549 165.15 142.549 164.8 142.799 164.55C143.049 164.3 143.399 164.3 143.649 164.55C143.899 164.75 143.899 165.15 143.649 165.4ZM145.549 167.3C145.299 167.55 144.949 167.55 144.699 167.3C144.449 167.05 144.449 166.7 144.699 166.45C144.949 166.2 145.299 166.2 145.549 166.45C145.799 166.65 145.799 167.05 145.549 167.3ZM145.549 165.4C145.299 165.65 144.949 165.65 144.699 165.4C144.449 165.15 144.449 164.8 144.699 164.55C144.949 164.3 145.299 164.3 145.549 164.55C145.799 164.75 145.799 165.15 145.549 165.4Z" fill="#0D3D8C"/>
<path d="M146.499 45.55V45.65C146.399 45.65 146.349 45.7 146.299 45.75C140.049 43.2 132.749 41 125.449 39.25C129.899 24.55 130.349 14.6 129.649 7.25C130.699 7.5 131.749 7.8 132.799 8.1L132.899 8.15C136.799 9.25 141.049 10.45 145.199 12.05C147.999 19.6 150.449 31.55 146.499 45.55Z" fill="#2C75CE"/>
<path d="M155 119.6C149.9 97.75 152.85 65 154.6 50C155 50.1 155.45 50.2 155.85 50.35C158.7 51.4 160.9 53.5 163.2 55.25V55.35C163.2 55.45 163.25 55.55 163.35 55.55H163.45C162.9 65.2 161.5 95.4 162.7 114.3C160.1 115.75 157.55 117.5 155 119.6ZM168.1 167.5C167.95 169.35 167.85 171.15 167.65 173C167.65 172.95 167.6 172.95 167.55 172.95C157.25 170.6 152.35 161.6 152 161C152 159.6 151.9 158.25 151.8 156.85C151.7 155.45 151.6 154.05 151.6 152.65C151.6 150.65 151.9 148.8 152.3 146.85L152.6 145.35C153.4 140.7 155.2 134.15 159.5 129.15C160.85 127.65 162.2 126.4 163.65 125.45C162.05 129.05 154 141.65 157 153.2C157.05 153.25 157.1 153.35 157.15 153.4C157.25 153.5 157.35 153.6 157.4 153.7C159.45 156.15 161.25 157.75 163.3 159.15C163.4 159.2 163.5 159.25 163.55 159.35H163.6C164.05 159.65 164.45 159.9 164.9 160.15L165.2 160.3C166.1 160.8 167.05 161.3 168.05 161.8L168.1 167.5ZM85.35 44.3C75.2 48.9 73.25 57.9 67.45 63.4C70.6 52.6 73.05 45.15 73.1 45C73.15 44.9 73.1 44.8 73 44.8C74.3 44.6 75.65 44.45 77 44.35C79.75 44.1 82.5 44.1 85.35 44.3ZM81.65 224.05C84.45 225.1 86.75 226.05 88.6 226.85L78.2 243.8C77.15 244 65.9 246 54 242.55C56.15 242.65 61.75 241.9 62.35 241.85C67.1 241.35 71 239.65 74.2 236.05C76.1 234 77.6 231.6 79 229.15C79.9 227.45 80.8 225.75 81.65 224.05Z" fill="#6D7D90"/>
<path d="M98.7492 212.25C98.2992 212.2 97.8992 212.15 97.4492 212.1L94.9992 211.8L92.5492 211.4C91.7492 211.3 90.8992 211.1 90.0992 210.95L88.8992 210.7L87.6992 210.4L98.7492 212.25ZM167.649 173.25C167.349 175.15 167.149 177.1 166.699 178.95C166.499 179.9 166.349 180.85 166.099 181.8L165.349 184.6C165.099 185.55 164.799 186.45 164.499 187.35C164.199 188.25 163.949 189.2 163.599 190.1L162.599 192.8L161.499 195.5C161.149 196.4 160.749 197.3 160.349 198.15C159.949 199.05 159.549 199.9 159.149 200.8C158.299 202.55 157.449 204.3 156.549 205.95C155.649 207.65 154.699 209.35 153.749 211.05C152.799 212.7 151.799 214.4 150.799 216.05C148.799 219.35 146.749 222.65 144.699 225.9L142.149 229.95C140.049 229.6 137.999 229.3 135.949 229.05C135.899 229.05 135.799 229.05 135.749 229C142.249 218.55 148.499 207.65 153.149 196.3C154.449 193.1 155.649 189.85 156.599 186.55C157.299 184.15 158.499 181.55 158.249 179C157.949 175.9 155.099 174.75 153.349 172.35C153.349 172.35 142.499 176.75 137.599 169.6C139.199 171.5 141.549 172.55 143.949 172.55C144.299 172.55 144.649 172.55 144.999 172.5C148.149 172.1 150.499 169.95 151.349 166.7C151.749 165.1 151.899 163.4 151.899 161.7C153.199 163.9 158.199 171.15 167.349 173.25H167.399C167.549 173.3 167.599 173.3 167.649 173.25Z" fill="#1851AD"/>
<path d="M95.5504 212.3L95.7504 212.25C95.1504 212.25 94.4504 212.15 93.7004 212.05H93.6504C86.3004 210.85 73.6504 205.45 73.6504 205.45C75.5504 207.95 78.8004 210.15 81.5004 211.65C83.2504 212.65 85.4504 213.6 85.5004 215.85C85.5004 216.65 82.1504 223.85 81.8504 223.7C84.6504 224.75 87.0004 225.7 88.8504 226.5L97.4504 212.5L95.5504 212.3Z" fill="#1851AD"/>
<path d="M139.1 250.65C138.65 250.25 138.2 249.85 137.7 249.5C137.25 249.15 136.8 248.75 136.3 248.35L134.85 247.3C134.35 247 133.85 246.7 133.35 246.35L133.2 246.25L133.25 246.1L134.5 243.45C134.7 243 134.9 242.55 135.15 242.15L135.85 240.85L137.25 238.3L138.7 235.8C139.65 234.1 140.7 232.5 141.7 230.85L142 230.35C139.8 230 137.65 229.7 135.55 229.4C128.85 241 125.55 248.25 127.25 254.85C127.5 254.85 127.75 254.9 128 255C128.9 254.95 129.75 255 130.65 255.1C131.4 255.2 132.2 255.2 132.95 255.2L135.25 255.3L137.55 255.4C138.3 255.4 139.1 255.35 139.85 255.35L144.05 255.25C142.45 253.65 140.8 252.15 139.1 250.65Z" fill="#6D7D90"/>
<path d="M103.05 180.4C102.85 180.6 102.5 180.7 101.95 180.65L77.6996 179.1L75.3996 178.95L54.0996 177.55L53.5996 177.5C53.2496 177.5 52.8496 177.45 52.4996 177.45C52.1996 177.45 51.8496 177.4 51.5496 177.4C51.0996 177.35 50.6496 177.35 50.1996 177.3C49.6996 177.3 49.2996 177.25 49.0996 176.85C48.9996 176.65 48.9996 176.4 48.9496 176.2L48.5996 172.2C93.1996 166.85 93.1996 112.95 93.1996 112.95C95.7996 113.15 97.3996 113.25 97.3996 113.25C97.9996 113.3 98.5496 113.5 98.7996 113.85C98.9996 114.05 99.0496 114.4 99.0996 114.75C99.0996 114.85 99.0996 114.9 99.1496 114.95C99.1496 114.95 103.25 179.05 103.3 179.35C103.3 179.7 103.3 180.15 103.05 180.4Z" fill="#93C5FD"/>
<path d="M153.9 49.75C150.7 49 147.7 49.5 144.8 51.3C143.2 52.3 141.3 53.1 139.1 53.75C135.05 54.95 130.85 55.35 126.75 55.05C123.2 54.75 119.75 53.9 116.5 52.45C113.35 51.05 110.5 49.9 107.8 48.9C99.05 45.7 90.6 44 82.75 43.8C97.65 38.15 116.35 38.65 122.95 39.05C134.4 41.65 146 45.35 153.9 49.75Z" fill="#2C75CE"/>
<path d="M134.6 197.7C134.4 198.75 133.75 198.9 132.9 198.5C132.2 198.2 130.5 197.8 129.85 197.5C128.2 196.65 127.7 196.3 126.6 195.1C126 194.4 125.6 193.4 125.25 192.55C124.45 190.7 124.05 188.5 124.1 186.5C124.15 184.4 124.7 182.2 125.7 180.05C126.2 179 126.9 177.6 127.65 176.6V176.75C127.65 176.85 127.4 177.25 127.35 177.4C126.15 179.85 125.8 182.7 125.65 185.4C125.4 189.55 127.85 191.35 131.15 193.05C132.4 193.8 135 195.35 134.6 197.7Z" fill="#1851AD"/>
<path d="M187.499 146.35C187.999 146.95 188.549 147.5 189.149 148.05C188.749 148.75 188.299 149.5 187.899 150.2C187.499 150.8 187.099 151.45 186.699 152.05L186.099 152.95C185.899 153.25 185.649 153.5 185.449 153.8C184.999 154.35 184.549 154.95 184.099 155.5C183.649 156 183.149 156.55 182.649 157.05C181.649 158.05 180.549 158.9 179.449 159.6C178.299 160.3 177.149 160.9 175.899 161.3C173.499 162.15 170.949 162.2 168.799 161.7C167.699 161.45 166.749 161.05 165.799 160.6L165.199 160.3C165.149 160.3 179.449 163.75 187.499 146.35Z" fill="#6D7D90"/>
<path d="M187.7 92.6499C189.55 93.4999 191.7 95.4999 192.65 97.9499C193.4 99.8499 193.7 102.65 191 105.4C191.15 105 194.2 98.7999 187.7 92.6499ZM194.25 107.15C193.9 106.85 193.55 106.6 193.2 106.35C193.6 106.1 194.5 105.6 195.75 105.35C197.05 106.65 198.95 112.9 195.95 115.5C195.95 115.5 198.05 110.95 194 107.3C194.1 107.3 194.2 107.2 194.25 107.15ZM199.55 105.1C199.15 105 198.8 104.9 198.45 104.85C200.1 104.2 201.8 103.5 203.55 102.7C204.45 102.3 205.35 101.8 206.2 101.35C207.85 100.45 209.55 99.4999 211.4 99.1999C212.95 98.9499 215.45 99.7999 216.15 101.1C216.45 101.65 216.4 102.25 215.95 102.9C215.9 102.75 215.4 100.2 211.05 100.25C209.8 100.55 206.95 102.35 204.3 103.55C202.4 104.45 201.9 104.55 200 105.45C200 105.45 199.7 105.35 199.2 105.25C199.3 105.15 199.45 105.15 199.55 105.1ZM215.8 103.7C216.1 103.4 216.3 103.15 216.4 102.85C217.35 103.45 219.35 104.8 219.6 106.6C219.7 107.35 219.5 108.1 219 108.85C218.8 107.8 217.85 104.05 215.1 104.05L215.35 103.65C215.4 103.7 215.5 103.75 215.55 103.8C215.7 103.8 215.75 103.75 215.8 103.7ZM221.75 113.3C221.7 113.65 221.7 114 221.6 114.4C221.45 115.15 221.15 115.95 220.7 116.75C219.85 118.35 218.45 119.9 216.7 121.3C214.95 122.7 212.9 124.05 210.65 125.35C209.5 126 208.35 126.65 207.15 127.3C205.95 127.95 204.75 128.6 203.5 129.25C202.85 129.55 202.2 129.9 201.6 130.2L200.65 130.75C200.35 130.9 200 131.1 199.7 131.35C198.5 132.2 197.55 133.4 196.75 134.7L192.25 142.5C191.5 143.8 190.75 145.1 190.05 146.45C189.8 146.9 189.55 147.35 189.25 147.8C188.7 147.25 188.15 146.65 187.6 146.1C188.8 144.15 192.7 137.35 193.75 134.85C195.85 130 200.45 128.3 205.6 125.8C211.65 122.85 218.25 119.2 219.8 115.1C219.8 115.1 220.95 111.4 218.4 110.3C218.55 110.15 218.7 110 218.8 109.85C219.1 109.5 219.35 109.2 219.5 108.85C219.45 108.95 219.45 109 219.55 109.05C219.55 109.05 219.85 109.3 220.3 109.8C220.75 110.3 221.35 111.15 221.55 112.4C221.8 112.6 221.75 112.95 221.75 113.3Z" fill="#2C75CE"/>
<path d="M178 131.35C178.3 131.95 178.6 132.65 178.95 133.4C173.2 140.1 170.4 132.85 170.4 132.85C171.5 133.55 172.65 134 173.8 134H173.95C175.45 133.95 176.8 133.05 178 131.35Z" fill="#DBEAFE"/>
<path d="M184.75 123.3C182.7 128 180.85 131.1 179.2 133.1C178.8 132.3 178.5 131.6 178.2 131C178.35 130.75 178.5 130.45 178.65 130.15C178.7 130.1 181.95 123.4 184.7 118.35C186.25 115.55 185.15 113.1 184.15 110.7C183.75 109.8 183.35 108.9 183.1 107.95C182.55 105.95 183.1 104.15 183.75 102.25C184 101.5 184.2 100.75 184.4 100C184.85 97.9501 185.05 95.7501 185 93.1001C189.6 97.7001 184.05 104.9 185.95 108.7C187.75 112.15 189.3 114.45 184.75 123.3ZM37.3501 138C39.5001 133.4 44.1501 131.6 44.9001 131.3C44.8501 131.15 44.8001 131 44.8001 130.85C42.3501 130.85 39.0001 133.2 39.0001 133.2C39.3001 130.35 44.5001 127.75 44.5001 127.75C44.5001 127.1 44.4001 126.55 44.3001 126.05C39.2001 128 38.1501 133.2 38.0001 133.95C36.6501 135.2 35.4001 137 34.5501 139.5C33.5001 142.65 33.5501 146.15 34.5501 149.3C35.5001 152.25 37.7501 155.35 40.5001 156.85C41.9501 157.6 43.5501 157.9 45.1501 158.1C45.3001 158.1 45.4501 158.05 45.6001 158.05C36.0501 155.6 34.2001 144.7 37.3501 138Z" fill="#76B3FF"/>
<path d="M54.6508 149.75C55.0008 150.35 55.2508 150.95 55.4008 151.6C55.5008 152 55.5508 152.4 55.5508 152.85V153.55C55.4508 154.35 55.1508 155.1 54.7008 155.7C53.8508 156.9 52.6508 157.6 51.3008 157.95C50.8508 158.1 50.3008 158.25 49.7508 158.35L49.7008 158.25H48.8008C49.2008 158.15 49.6008 158.05 49.9508 157.9C54.1008 156.3 53.9008 152.5 53.5508 150.8C53.4508 150.3 53.3508 149.95 53.3508 149.95C53.3008 149.95 53.2508 150 53.2008 150C53.1508 149.95 53.1508 149.85 53.1008 149.8V149.75C55.4508 147.7 55.2508 145.05 55.2508 145.05C55.3508 143.7 54.9508 142.55 54.4508 141.65C54.2508 140.85 54.0508 140.35 54.0508 140.35C53.9508 140.4 53.8008 140.45 53.7008 140.45C53.4508 140.15 53.3008 140 53.3008 140C54.3008 138.5 54.2008 137 53.8508 135.7C53.5008 134.35 52.7508 133.2 51.6008 133H51.5008L51.3008 132.8C51.9508 132.8 52.6008 132.9 53.2508 133.05C54.4008 133.3 55.1008 134.4 55.5008 135.75C55.8508 137.05 55.9008 138.55 54.9508 140.05C54.9508 140.05 57.1008 142.1 56.9008 145.05C56.8508 145.05 57.0008 147.7 54.6508 149.75Z" fill="#999999"/>
<path d="M163.6 124.6C163.45 124.95 163.2 125.3 162.8 125.6C159.7 128 157.25 130.9 155.6 134.5C152.55 141.05 151.35 148.55 151.35 155.75C151.35 158.05 151.75 160.35 151.7 162.65C151.65 164.65 151.55 166.8 150.55 168.6C149.9 169.85 148.65 170.6 147.5 171.35C148.05 171 148.5 170.1 148.8 169.55C149.15 168.9 149.45 168.2 149.6 167.5C150 165.8 149.95 164 149.8 162.25C149.55 159.55 149.4 156.85 149.35 154.15C149.3 150 150.05 145.95 150.75 141.9C151.55 137.4 151.55 132.8 152.1 128.25C152.35 126.05 153 123.8 153.95 121.75C154.85 119.9 156.45 118.8 158.1 117.65C159.5 116.65 161.05 115.4 162.7 114.8C162.9 116.85 163.05 118.95 163.3 121C163.45 122.35 164 123.55 163.6 124.6ZM109.65 181.85C108.8 184.35 106.15 184.7 103.85 184.6C101.6 184.5 99.2996 184.35 97.0496 184.25C95.0996 184.15 93.0996 184.05 91.0996 183.95C83.4496 183.5 75.7996 183 68.1996 182.35C67.0996 182.25 66.0496 182.15 64.9496 182.05C63.6496 181.95 62.4496 182.25 61.2996 181.35C60.3996 180.6 59.8996 179.45 59.3496 178.45L59.5996 178.25L68.5496 178.8C68.5996 178.7 68.6496 178.6 68.7496 178.55L101.3 180.9C104.95 181.1 105.4 178.45 105.4 178.45L104.7 165.2C104.7 165.2 104.75 165.2 104.75 165.15C104.6 163.1 104.5 160.85 104.35 158.5V158.25C104.1 154.1 103.8 149.65 103.55 145.2C104.9 145.95 106.25 146.55 107.6 147.1C107.75 149 107.95 150.95 108.1 152.85C108.55 158.05 109.1 163.3 109.55 168.5C109.7 170.3 109.9 172.15 109.95 173.95C109.95 176.6 110.45 179.4 109.65 181.85Z" fill="#1851AD"/>
<path d="M52.9508 149.75C53.3508 150.35 53.6008 150.95 53.7508 151.6C53.8508 152 53.9008 152.4 53.9008 152.85V153.55C53.8008 154.35 53.4508 155.1 52.9508 155.7C52.0008 156.9 50.6508 157.6 49.2008 157.95C48.6508 158.1 48.1008 158.25 47.4508 158.35L47.4008 158.25H46.4008C54.0508 156.65 51.4508 150 51.4508 150C49.5508 150.55 46.2008 150.7 44.7508 150.7C56.9008 150.3 52.2008 140.45 52.2008 140.45C49.9508 141.2 42.0508 140.75 42.0508 140.75C59.2508 141.05 49.5008 133.1 49.1508 132.85C49.9008 132.85 50.6008 132.95 51.3008 133.1C52.6008 133.35 53.4008 134.45 53.8008 135.8C54.2008 137.1 54.2508 138.6 53.1508 140.1C53.1508 140.1 55.5508 142.15 55.3508 145.1C55.3508 145.05 55.5508 147.7 52.9508 149.75Z" fill="#2C75CE"/>
<path d="M66.1 68.1499C65.8 69.6499 62.3 87.4499 60.4 108.75L56.3 108.45C56.3 108.45 56.35 108.4 56.35 108.35C58.85 94.8999 62.7 80.0499 66.1 68.1499ZM64.1 218.5C65.2 218.8 66.2 219.05 67.25 219.35C64.55 225.5 61.7 232.1 60.5 235.8C60.5 235.8 53.15 236.3 43.85 238.05C43.75 238 43.6 237.9 43.5 237.85C45 237.25 51.5 234.7 57.9 233.4H58L58.05 233.3C58.1 233.2 60.45 227.25 64.1 218.5Z" fill="#DBEAFE"/>
<path d="M73.65 205.45C73.65 205.45 70.65 211.85 67.4 219.05C66.4 218.75 65.35 218.45 64.25 218.2C66.05 213.85 68.2 208.8 70.5 203.5C70.85 203.75 71.2 203.95 71.5 204.2C72.2 204.6 72.9 205 73.65 205.45Z" fill="#60A5FA"/>
<path d="M113.85 227.2C114.8 227.25 115.8 227.35 116.85 227.45C114.9 235.05 112.9 244.3 112.2 252.45C110.75 252.15 109.3 251.8 107.85 251.45L113.85 227.2Z" fill="#DBEAFE"/>
<path d="M121.451 211.75C121.451 211.75 119.251 218.3 116.951 227.05C115.901 226.95 114.901 226.9 113.951 226.8L117.501 212.3C118.651 212 120.001 211.7 121.451 211.75ZM75.5008 192.4C78.1508 185.65 75.4508 179.1 75.4508 179.1L75.3508 178.9L77.6508 179.05C79.5508 189.35 75.7008 192.3 75.5008 192.4ZM78.0008 207.2L76.3508 206.45C75.5008 206.05 74.6508 205.6 73.8508 205.1C73.1508 204.65 72.4008 204.3 71.7508 203.8C71.0508 203.35 70.3508 202.9 69.7008 202.4C69.0508 201.9 68.3508 201.4 67.7508 200.85C67.1008 200.3 66.5008 199.8 65.9008 199.2C65.3008 198.65 64.7008 198.05 64.1508 197.45L63.3008 196.55L62.5008 195.6C61.4508 194.35 60.5008 192.95 59.6008 191.55C58.7508 190.15 57.9508 188.7 57.2508 187.2C56.5508 185.7 55.9508 184.15 55.4508 182.6C54.9508 181.1 54.6008 179.6 54.3008 178.05L57.2508 178.25C57.3508 178.3 57.5008 178.4 57.6008 178.45C57.6508 178.35 57.2508 193.15 78.0008 207.2ZM144.351 172.25C141.351 172.35 138.501 170.7 137.001 167.95C134.201 162.9 135.301 155.55 136.751 150.3C139.401 140.55 143.101 133 148.351 126.75C147.851 127.55 126.401 163.9 144.351 172.25Z" fill="#60A5FA"/>
<path d="M87.6508 35.8498C88.8008 35.4498 90.4508 35.2498 92.5008 35.1998C88.2508 36.4498 66.6508 42.9998 59.3508 48.1498C59.2008 48.1998 59.0508 48.2998 58.9008 48.3498C58.5008 48.5498 58.0508 48.6998 57.6508 48.8998C56.2008 49.4998 54.7008 50.0998 53.5008 50.9498C52.8508 51.3998 52.3508 51.7998 51.8008 52.2498C54.9508 48.7498 63.9008 41.7998 87.6508 35.8498ZM113.601 4.69977C113.151 4.69977 101.651 4.59977 93.6508 11.2498C87.7008 16.1998 81.2508 25.2998 78.3508 37.9998C77.3008 38.2998 76.3008 38.6498 75.3508 38.9498C78.5508 27.3498 82.8008 15.8498 92.2508 9.54977C97.8508 5.94977 104.901 4.29977 113.601 4.69977ZM120.751 0.749773C119.851 1.09977 117.801 2.14977 117.501 4.64977C117.001 4.54977 116.451 4.49977 115.901 4.49977C115.951 3.99977 116.151 2.24977 117.251 1.29977C117.901 0.749773 118.751 0.549773 119.751 0.649773C120.101 0.649773 120.451 0.699773 120.751 0.749773Z" fill="#76B3FF"/>
<path d="M163.8 55.2C163.45 61.1 163.2 67 163.05 72.9C162.95 75.85 162.85 78.8 162.8 81.75L162.7 86.2C162.65 87.7 162.65 89.15 162.65 90.65C162.65 92.15 162.6 93.6 162.65 95.1V99.55L162.75 104C162.75 105.5 162.85 106.95 162.9 108.4C162.95 109.9 163.05 111.35 163.1 112.8C163.15 113.55 163.2 114.25 163.25 115L163.45 117.2C163.5 117.95 163.55 118.65 163.65 119.4L163.95 121.6L164.1 122.7C164.15 123.05 164.25 123.4 164.3 123.8L164.75 125.95L164.7 125.85C165.35 126.85 166.05 127.85 166.8 128.8C167.55 129.75 168.4 130.6 169.3 131.4C170.2 132.2 171.2 132.85 172.25 133.25C172.8 133.45 173.35 133.55 173.9 133.55C174.45 133.5 175 133.4 175.5 133.1C176.5 132.55 177.25 131.6 177.85 130.6L178.3 129.85L178.7 129.05L179.5 127.4C180.05 126.3 180.6 125.2 181.2 124.15L182.9 120.9L183.75 119.25L184.2 118.45L184.3 118.25L184.4 118.05L184.6 117.65C185.05 116.65 185.15 115.45 184.9 114.3C184.65 113.15 184.15 112.05 183.7 110.95C183.45 110.4 183.2 109.8 183 109.25C182.8 108.65 182.6 108.05 182.5 107.4C182.3 106.1 182.55 104.8 182.9 103.6C183.25 102.4 183.65 101.25 183.95 100.1L184.3 98.3L184.5 96.5L184.6 94.7V92.8L184.65 92.7C184.85 92.25 185.35 91.9 185.85 91.8C186.35 91.7 186.8 91.75 187.2 91.9C187.6 92 188 92.2 188.4 92.35C188.75 92.55 189.15 92.75 189.45 93C190.15 93.5 190.75 94.05 191.3 94.65C191.6 94.95 191.85 95.3 192.1 95.6C192.35 95.95 192.55 96.3 192.75 96.65C192.95 97 193.15 97.4 193.3 97.8C193.4 98 193.45 98.2 193.5 98.4C193.55 98.6 193.65 98.8 193.65 99C193.75 99.4 193.8 99.85 193.85 100.25V100.9L193.8 101.55C193.75 101.95 193.65 102.4 193.5 102.8C193.45 103 193.35 103.2 193.25 103.4C193.15 103.6 193.1 103.8 193 103.95L192.7 104.5C192.6 104.65 192.45 104.85 192.35 105C192.1 105.35 191.8 105.65 191.55 105.95L191.4 105.3C191.7 105.4 191.9 105.5 192.15 105.65C192.4 105.8 192.65 105.9 192.85 106.05C193.1 106.2 193.3 106.35 193.55 106.5C193.8 106.65 194 106.85 194.2 107C194.4 107.15 194.6 107.35 194.8 107.55C195 107.75 195.15 107.95 195.35 108.15C195.55 108.35 195.7 108.6 195.85 108.8L196.1 109.15L196.3 109.5C196.4 109.75 196.55 110 196.6 110.25C196.65 110.5 196.75 110.75 196.8 111.05L196.9 111.85C196.95 112.1 196.9 112.4 196.9 112.65C196.9 112.9 196.9 113.2 196.85 113.45L196.7 114.25C196.65 114.5 196.55 114.75 196.45 115L196.2 115.75C196.2 115.8 196.15 115.8 196.1 115.8C196.05 115.8 196.05 115.75 196.05 115.7L196.25 114.95C196.3 114.7 196.4 114.45 196.45 114.2L196.55 113.45C196.6 113.2 196.6 112.95 196.6 112.7C196.6 112.45 196.6 112.2 196.55 111.95L196.4 111.2C196.35 110.95 196.25 110.7 196.15 110.45C196.1 110.2 195.95 110 195.8 109.75L195.6 109.4L195.35 109.1C195.2 108.9 195.05 108.7 194.85 108.5C194.65 108.3 194.5 108.1 194.3 107.95C194.1 107.8 193.9 107.6 193.7 107.45C193.5 107.3 193.3 107.15 193.05 107C192.85 106.85 192.6 106.75 192.4 106.6C192.2 106.5 191.95 106.35 191.7 106.25C191.45 106.15 191.2 106.05 191 106L190.45 105.85L190.85 105.4C191.1 105.1 191.4 104.85 191.6 104.55C191.7 104.4 191.85 104.25 191.95 104.1L192.25 103.6C192.35 103.45 192.4 103.25 192.5 103.1C192.6 102.95 192.65 102.75 192.7 102.55C192.85 102.2 192.9 101.85 192.95 101.45L193 100.9V100.35C192.95 100 192.95 99.6 192.85 99.25C192.8 99.05 192.75 98.9 192.7 98.7C192.65 98.5 192.6 98.35 192.5 98.15C192.35 97.8 192.2 97.45 192 97.1C191.8 96.75 191.6 96.45 191.4 96.15C191.15 95.85 190.95 95.55 190.65 95.25C190.15 94.7 189.55 94.15 188.95 93.7C188.65 93.5 188.3 93.3 188 93.1C187.65 92.95 187.3 92.8 186.95 92.7C186.6 92.6 186.25 92.55 185.95 92.6C185.65 92.65 185.4 92.8 185.3 93.05L185.35 92.85V94.7L185.25 96.55L185.05 98.4L184.7 100.2C184.4 101.4 184 102.6 183.65 103.75C183.3 104.9 183.1 106.1 183.25 107.2C183.3 107.75 183.5 108.35 183.7 108.9C183.9 109.45 184.15 110 184.4 110.6C184.9 111.7 185.4 112.85 185.65 114.1C185.95 115.35 185.85 116.7 185.3 117.95L185.1 118.35L185 118.6L184.9 118.8L184.5 119.6L183.65 121.2L181.95 124.45C181.4 125.55 180.8 126.6 180.3 127.7L179.5 129.35L179.1 130.15C178.95 130.45 178.8 130.7 178.65 131C178 132.05 177.2 133.1 176 133.75C175.4 134.1 174.75 134.25 174.1 134.3C173.45 134.35 172.8 134.2 172.15 134C170.9 133.55 169.9 132.8 168.95 132C168 131.2 167.15 130.25 166.4 129.3C165.6 128.35 164.9 127.35 164.25 126.3L164.2 126.25V126.2L163.75 124C163.7 123.65 163.6 123.25 163.55 122.9L163.4 121.8L163.1 119.6C163 118.85 162.95 118.1 162.9 117.4L162.5 115C162.45 114.25 162.4 113.5 162.35 112.8C162.25 111.3 162.15 109.85 162.15 108.35C162.1 106.85 162.05 105.4 162 103.9L161.9 99.45V90.55C161.9 89.05 161.9 87.6 161.95 86.1L162.05 81.65C162.1 78.7 162.2 75.75 162.3 72.8C162.5 66.9 162.75 61 163.05 55.1C163.05 54.9 163.25 54.75 163.45 54.75C163.65 54.8 163.8 55 163.8 55.2Z" fill="black"/>
<path d="M192.751 106C192.751 106 193.051 105.75 193.651 105.5C193.951 105.35 194.301 105.2 194.701 105.05C195.101 104.9 195.601 104.8 196.151 104.7C196.701 104.6 197.301 104.6 197.901 104.65C198.501 104.7 199.151 104.85 199.801 105.05C200.451 105.3 201.051 105.6 201.651 106C202.251 106.4 202.801 106.85 203.301 107.35C203.551 107.6 203.801 107.85 204.001 108.15C204.251 108.4 204.451 108.7 204.651 108.95C204.851 109.25 205.051 109.5 205.251 109.8C205.451 110.1 205.651 110.35 205.801 110.65C205.951 110.95 206.101 111.2 206.301 111.5C206.451 111.8 206.601 112.05 206.701 112.35C207.001 112.9 207.201 113.4 207.401 113.9C207.601 114.4 207.751 114.85 207.951 115.25C208.101 115.65 208.201 116 208.301 116.3L208.601 117.2C208.601 117.25 208.601 117.3 208.551 117.3C208.501 117.3 208.451 117.3 208.451 117.25C208.451 117.25 208.351 116.9 208.101 116.35C208.001 116.05 207.851 115.7 207.701 115.35C207.551 114.95 207.351 114.5 207.151 114.05C206.901 113.6 206.701 113.05 206.401 112.55C206.251 112.3 206.101 112 205.951 111.75C205.801 111.5 205.601 111.2 205.451 110.95C205.301 110.65 205.101 110.4 204.901 110.15C204.701 109.85 204.501 109.6 204.301 109.35C204.101 109.1 203.901 108.8 203.651 108.55C203.451 108.3 203.201 108.05 202.951 107.8C202.451 107.3 201.901 106.9 201.351 106.55C200.801 106.2 200.201 105.95 199.601 105.7C199.001 105.5 198.401 105.4 197.801 105.4C197.251 105.35 196.701 105.4 196.201 105.5C195.201 105.7 194.451 106 193.901 106.3C193.651 106.45 193.451 106.55 193.301 106.65C193.151 106.75 193.101 106.75 193.101 106.8C192.901 106.9 192.701 106.85 192.551 106.7C192.551 106.3 192.601 106.1 192.751 106Z" fill="black"/>
<path d="M197.15 104.7C197.15 104.7 197.3 104.65 197.5 104.6C197.75 104.55 198.1 104.45 198.5 104.3C198.95 104.15 199.45 103.95 200.05 103.7C200.65 103.45 201.35 103.15 202.05 102.8C202.8 102.45 203.6 102.15 204.4 101.7C205.2 101.3 206.05 100.8 206.95 100.3C207.85 99.8 208.8 99.35 209.85 99C210.35 98.85 210.9 98.7 211.5 98.65C212.1 98.6 212.65 98.65 213.25 98.75C214.35 99 215.45 99.45 216.25 100.35C216.65 100.8 216.9 101.45 216.85 102.05C216.75 102.7 216.45 103.2 216.1 103.6C215.4 104.4 214.55 105 213.8 105.5C213.05 106.05 212.25 106.5 211.55 106.9C210.15 107.7 208.9 108.3 208.05 108.7C207.2 109.1 206.7 109.3 206.7 109.3C206.65 109.35 206.55 109.3 206.55 109.25C206.5 109.2 206.55 109.1 206.6 109.1C206.6 109.1 207.1 108.85 207.9 108.4C208.75 107.95 209.9 107.3 211.3 106.45C212 106.05 212.7 105.55 213.45 105C214.2 104.45 214.95 103.9 215.6 103.15C215.9 102.8 216.15 102.4 216.2 101.95C216.25 101.55 216.05 101.15 215.75 100.8C215.1 100.1 214.1 99.65 213.15 99.45C212.65 99.35 212.15 99.3 211.65 99.35C211.15 99.4 210.65 99.55 210.15 99.7C209.15 100 208.25 100.45 207.35 100.95C206.45 101.4 205.6 101.9 204.8 102.35C203.95 102.8 203.15 103.1 202.4 103.45C201.65 103.75 200.95 104.05 200.35 104.3C199.75 104.55 199.2 104.75 198.75 104.9C198.3 105.05 197.9 105.15 197.65 105.2C197.4 105.25 197.25 105.3 197.25 105.3C197.1 105.35 196.95 105.25 196.9 105.1C196.9 104.9 197 104.75 197.15 104.7Z" fill="black"/>
<path d="M216.599 102.3C216.599 102.3 216.849 102.45 217.299 102.75C217.749 103.05 218.349 103.55 218.999 104.25C219.299 104.6 219.599 105.05 219.849 105.55C220.099 106.05 220.199 106.65 220.199 107.3C220.149 107.9 219.899 108.5 219.599 109.05C219.449 109.3 219.199 109.55 219.049 109.8L218.449 110.45L217.799 111.1C217.599 111.3 217.349 111.5 217.149 111.7C216.949 111.9 216.699 112.1 216.449 112.25C216.199 112.45 215.999 112.6 215.749 112.8C215.299 113.1 214.849 113.45 214.399 113.7C213.949 113.95 213.549 114.25 213.099 114.4L211.999 114.95C211.649 115.1 211.349 115.2 211.099 115.3L210.349 115.6C210.299 115.6 210.249 115.6 210.199 115.55C210.199 115.5 210.199 115.45 210.249 115.4C210.249 115.4 210.499 115.3 210.999 115.05C211.249 114.95 211.549 114.8 211.849 114.65C212.199 114.5 212.549 114.3 212.949 114.1C213.349 113.9 213.749 113.65 214.199 113.35C214.649 113.1 215.049 112.75 215.499 112.4C215.749 112.25 215.949 112.05 216.149 111.85C216.349 111.65 216.599 111.5 216.799 111.25C216.999 111.05 217.199 110.85 217.449 110.65L218.049 110L218.649 109.35C218.799 109.1 218.999 108.9 219.149 108.65C219.449 108.15 219.599 107.65 219.649 107.15C219.649 106.65 219.549 106.15 219.349 105.75C219.099 105.35 218.849 104.95 218.549 104.65C217.949 104 217.349 103.6 216.949 103.3C216.549 103.05 216.249 102.9 216.249 102.9C216.049 102.8 215.999 102.55 216.099 102.4C216.149 102.25 216.349 102.15 216.599 102.3C216.549 102.3 216.549 102.3 216.599 102.3Z" fill="black"/>
<path d="M156.851 153.05C156.851 153.05 157.101 153.35 157.601 153.85C158.101 154.35 158.801 155.1 159.751 156.05C160.701 156.95 161.901 158.05 163.401 159.05C164.901 160.1 166.701 161.05 168.901 161.55C171.051 162.05 173.501 161.95 175.901 161.15C178.301 160.35 180.601 158.85 182.601 156.9C183.101 156.4 183.601 155.9 184.051 155.35C184.501 154.8 185.001 154.25 185.401 153.65C186.251 152.5 187.051 151.3 187.851 150.05C189.401 147.55 190.801 144.85 192.301 142.25C193.801 139.65 195.301 137 196.801 134.45C197.601 133.15 198.551 131.9 199.801 131.05C201.051 130.2 202.351 129.55 203.601 128.95C204.901 128.35 206.051 127.7 207.251 127C208.451 126.35 209.601 125.7 210.701 125.05C212.951 123.75 215.001 122.45 216.701 121.05C217.151 120.7 217.551 120.35 217.951 120C218.351 119.65 218.701 119.25 219.001 118.9C219.651 118.15 220.201 117.35 220.601 116.55C221.401 115 221.701 113.4 221.451 112.2C221.251 111 220.651 110.2 220.201 109.7L219.651 109.15C219.501 109.05 219.451 109 219.451 109C219.301 108.85 219.301 108.6 219.401 108.45C219.551 108.3 219.801 108.3 219.951 108.4C219.951 108.4 220.051 108.45 220.151 108.6C220.301 108.7 220.501 108.9 220.751 109.2C221.251 109.75 221.951 110.7 222.201 112.1C222.451 113.5 222.151 115.25 221.301 116.95C220.851 117.8 220.301 118.65 219.601 119.45C219.251 119.85 218.901 120.25 218.501 120.65C218.101 121.05 217.701 121.4 217.251 121.75C215.501 123.2 213.401 124.55 211.151 125.85C210.001 126.5 208.851 127.15 207.651 127.8C206.451 128.45 205.201 129.15 203.951 129.75C202.701 130.35 201.401 131 200.251 131.8C199.101 132.6 198.251 133.75 197.451 134.95C195.951 137.5 194.451 140.1 192.951 142.75C191.451 145.35 190.051 148.05 188.451 150.55C187.651 151.8 186.851 153.05 185.951 154.25C185.501 154.85 185.051 155.4 184.601 155.95C184.101 156.5 183.651 157.05 183.101 157.55C181.051 159.55 178.651 161.1 176.101 161.95C173.601 162.8 170.951 162.85 168.701 162.3C166.451 161.75 164.601 160.65 163.101 159.55C161.601 158.45 160.451 157.35 159.501 156.35C158.601 155.4 157.901 154.6 157.451 154.05C157.001 153.5 156.751 153.2 156.751 153.2C156.701 153.15 156.751 153.1 156.751 153.1C156.751 153 156.801 153 156.851 153.05Z" fill="black"/>
<path d="M189.401 148.4C189.301 148.4 189.201 148.35 189.151 148.3C183.251 142.55 179.451 135.05 177.701 131.1C177.601 130.9 177.701 130.7 177.901 130.6C178.101 130.5 178.301 130.6 178.401 130.8C180.101 134.7 183.901 142.1 189.701 147.75C189.851 147.9 189.851 148.15 189.701 148.3C189.601 148.4 189.501 148.4 189.401 148.4ZM144.101 172.8C141.001 172.8 138.051 171.05 136.501 168.2C133.601 163 134.751 155.5 136.201 150.15C139.651 137.4 144.851 128.45 153.051 121.1C156.251 118.2 159.501 115.9 162.751 114.15C162.951 114.05 163.151 114.1 163.251 114.3C163.351 114.5 163.301 114.7 163.101 114.8C159.901 116.5 156.701 118.8 153.551 121.65C145.501 128.9 140.351 137.75 136.951 150.35C135.551 155.6 134.401 162.85 137.201 167.85C138.801 170.8 141.901 172.4 145.101 172C148.001 171.65 150.201 169.6 150.951 166.6C151.751 163.5 151.501 160.1 151.301 156.85C151.201 155.45 151.101 154 151.101 152.65C151.101 150.6 151.451 148.65 151.801 146.7C151.901 146.2 152.001 145.7 152.051 145.2C152.851 140.5 154.701 133.8 159.101 128.75C160.651 126.95 162.251 125.6 164.001 124.55C164.201 124.45 164.401 124.5 164.551 124.7C164.651 124.9 164.601 125.1 164.401 125.25C162.751 126.25 161.201 127.6 159.701 129.3C155.451 134.25 153.601 140.75 152.801 145.4C152.701 145.9 152.601 146.4 152.551 146.9C152.201 148.85 151.851 150.7 151.851 152.7C151.851 154.05 151.951 155.5 152.051 156.85C152.301 160.2 152.501 163.65 151.701 166.85C150.851 170.15 148.401 172.4 145.201 172.8H144.101ZM56.1507 108.75H56.1007C55.9007 108.7 55.7507 108.5 55.8007 108.3C61.1007 79.6999 72.5007 45.1499 72.6007 44.7999C72.6507 44.5999 72.9007 44.4999 73.1007 44.5499C73.3007 44.5999 73.4007 44.8499 73.3507 45.0499C73.2507 45.3999 61.8507 79.8998 56.5507 108.45C56.5007 108.6 56.3507 108.75 56.1507 108.75Z" fill="black"/>
<path d="M54.4495 177.7C54.7495 179.35 55.1495 180.9 55.6495 182.5C56.1495 184.05 56.7495 185.6 57.4495 187.1C57.7995 187.85 58.1495 188.6 58.5495 189.3C58.9495 190 59.3495 190.75 59.7995 191.45C60.2495 192.15 60.6495 192.85 61.1495 193.5C61.6495 194.15 62.0995 194.85 62.6495 195.45L63.4495 196.4L64.2995 197.3C64.5995 197.6 64.8495 197.9 65.1495 198.2L66.0495 199.05C66.6495 199.65 67.2495 200.15 67.8995 200.7C68.4995 201.25 69.1995 201.75 69.8495 202.25C70.1995 202.5 70.4995 202.75 70.8495 203L71.8995 203.7C72.5995 204.2 73.2995 204.55 73.9995 205C74.6995 205.45 75.4495 205.8 76.1495 206.15C76.8995 206.55 77.6495 206.85 78.3995 207.2C79.1495 207.55 79.9495 207.85 80.6995 208.15C81.4495 208.45 82.2495 208.7 83.0495 209C84.5995 209.5 86.1995 210 87.7995 210.35L88.9995 210.65L90.1995 210.9C90.9995 211.05 91.7995 211.25 92.6495 211.35L95.0995 211.75L97.5495 212C98.3495 212.1 99.1995 212.15 99.9995 212.2C100.85 212.25 101.65 212.35 102.5 212.35L105 212.45C105.85 212.5 106.65 212.45 107.5 212.45C109.15 212.45 110.8 212.4 112.45 212.3C114.1 212.25 115.75 212.05 117.4 211.95L117.95 211.9L117.8 212.4L108.1 251.7L107.85 251.25C109.35 251.65 110.85 252 112.35 252.3C113.85 252.65 115.4 252.9 116.9 253.2L119.2 253.6L121.5 253.95C122.25 254.05 123.05 254.15 123.8 254.25C124.55 254.35 125.35 254.45 126.1 254.5C126.85 254.6 127.65 254.7 128.4 254.75L130.7 254.95C131.45 255 132.25 255.05 133 255.1C133.75 255.15 134.55 255.2 135.3 255.2L137.6 255.25H141.05L142.2 255.2L144.5 255.1L144.25 255.75C142.55 254.1 140.75 252.45 138.95 250.85C138.5 250.45 138.05 250.05 137.6 249.7C137.15 249.3 136.65 248.95 136.2 248.6C135.75 248.25 135.25 247.9 134.75 247.55L134 247.05L133.25 246.6L132.9 246.4L133.05 246.1L134.3 243.45C134.5 243 134.7 242.55 134.95 242.15L135.65 240.85L137.05 238.3L138.5 235.8C139.45 234.1 140.5 232.5 141.5 230.85L144.6 225.95L147.7 221.05C148.7 219.4 149.75 217.75 150.75 216.1C151.75 214.45 152.7 212.8 153.7 211.1C154.65 209.4 155.6 207.75 156.5 206L157.85 203.45L159.1 200.85C159.55 200 159.9 199.1 160.3 198.2C160.7 197.3 161.1 196.45 161.45 195.55L162.55 192.85L163.55 190.15C163.9 189.25 164.15 188.3 164.45 187.4L164.9 186C165.05 185.55 165.2 185.1 165.3 184.6L166.05 181.8C166.3 180.85 166.45 179.9 166.65 178.95C167.1 177.05 167.3 175.15 167.6 173.25C167.7 172.3 167.8 171.35 167.9 170.35L168.05 167.45L168.1 164.55L168 161.65C168 161.5 168.1 161.4 168.25 161.4C168.4 161.4 168.5 161.5 168.5 161.65L168.6 164.55L168.55 167.45L168.4 170.35C168.3 171.3 168.25 172.25 168.1 173.25C167.8 175.15 167.6 177.1 167.15 179C166.95 179.95 166.8 180.9 166.55 181.85L165.8 184.65C165.7 185.1 165.55 185.6 165.4 186.05L164.95 187.45C164.65 188.4 164.4 189.3 164.05 190.2L163.05 192.95L161.95 195.65C161.6 196.55 161.2 197.45 160.8 198.3C160.4 199.2 160 200.1 159.6 200.95L158.35 203.55C157.95 204.4 157.45 205.25 157 206.15C156.1 207.9 155.15 209.55 154.25 211.25C153.3 212.95 152.3 214.6 151.3 216.25L148.3 221.2L145.25 226.1L142.2 231.05C141.2 232.7 140.15 234.35 139.2 236L137.75 238.5L136.4 241.05L135.7 242.3C135.5 242.75 135.3 243.15 135.1 243.6L133.85 246.2L133.65 245.7C133.9 245.85 134.2 246 134.45 246.15L135.2 246.65C135.7 247 136.2 247.35 136.65 247.75C137.15 248.1 137.6 248.5 138.05 248.9C138.5 249.3 139 249.7 139.45 250.05C141.3 251.65 143.05 253.25 144.75 254.95L145.4 255.55L144.55 255.6L142.2 255.7L141.05 255.75H137.55L135.2 255.7C134.4 255.7 133.65 255.65 132.85 255.6C132.05 255.55 131.3 255.55 130.5 255.45L128.2 255.25C127.4 255.2 126.65 255.1 125.9 255C125.15 254.9 124.35 254.85 123.6 254.7C122.85 254.6 122.05 254.5 121.3 254.4L119 254.05L116.7 253.65C115.15 253.35 113.65 253.1 112.1 252.75C110.6 252.4 109.05 252.05 107.55 251.65L107.2 251.55L107.3 251.2L117 211.9L117.4 212.35C115.75 212.45 114.1 212.6 112.4 212.7C110.75 212.75 109.05 212.85 107.4 212.85H104.9L102.4 212.75C101.55 212.75 100.75 212.65 99.8995 212.6C99.0495 212.55 98.2495 212.5 97.3995 212.4L94.8995 212.1L92.3995 211.7C91.5495 211.6 90.7495 211.4 89.9495 211.25L88.6995 211L87.4995 210.7C85.8495 210.3 84.2495 209.85 82.6995 209.3C81.8995 209 81.0995 208.75 80.3495 208.45C79.5995 208.15 78.7995 207.85 78.0495 207.5C77.2995 207.15 76.4995 206.8 75.7995 206.4C75.0495 206 74.2995 205.65 73.5995 205.2C72.8995 204.75 72.1495 204.35 71.4495 203.9L70.3995 203.2C70.0495 202.95 69.6995 202.7 69.3995 202.45C68.7495 201.95 68.0495 201.45 67.4495 200.9C66.7995 200.35 66.1495 199.8 65.5995 199.2L64.6995 198.35C64.3995 198.05 64.1495 197.75 63.8495 197.45L62.9995 196.5L62.1995 195.55C61.6495 194.9 61.1495 194.25 60.6495 193.55C60.1495 192.9 59.6995 192.15 59.2495 191.45C58.7995 190.75 58.3995 190 57.9995 189.25C57.5995 188.5 57.1995 187.75 56.8995 187C56.1995 185.5 55.5995 183.9 55.0995 182.3C54.5995 180.7 54.1495 179.05 53.8495 177.45C53.7995 177.25 53.9495 177.05 54.1495 177C54.2495 177.35 54.4495 177.45 54.4495 177.7Z" fill="black"/>
<path d="M142.25 230.65H142.2C131.1 228.85 120.55 227.9 113.7 227.4C113.5 227.4 113.35 227.2 113.35 227C113.35 226.8 113.55 226.65 113.75 226.65C120.65 227.15 131.2 228.1 142.35 229.9C142.55 229.95 142.7 230.15 142.65 230.35C142.6 230.5 142.45 230.65 142.25 230.65ZM68.8 245.1C61.6 245.1 51.6 243.85 42.85 238.15L42.25 237.75L42.9 237.45C42.95 237.4 50.25 234.35 57.55 232.85C58.25 231.15 63.35 218.25 70 202.95C70.1 202.75 70.3 202.65 70.5 202.75C70.7 202.85 70.8 203.05 70.7 203.25C63.65 219.6 58.25 233.15 58.2 233.3L58.1 233.5L57.9 233.55C51.9 234.75 45.85 237.05 43.85 237.85C58.25 246.9 76.1 243.9 78 243.55L97.3 212.1C97.4 211.9 97.65 211.85 97.85 211.95C98.05 212.05 98.1 212.3 98 212.5L78.55 244.2L78.4 244.25C78.3 244.3 74.45 245.1 68.8 245.1Z" fill="black"/>
<path d="M88.8503 227.1C88.8003 227.1 88.7503 227.1 88.7003 227.05C83.8503 224.95 75.6003 221.75 63.9003 218.6C63.7003 218.55 63.5503 218.35 63.6503 218.15C63.7003 217.95 63.9003 217.85 64.1003 217.9C75.9003 221.05 84.1503 224.25 89.0503 226.35C89.2503 226.45 89.3503 226.65 89.2503 226.85C89.1503 227.05 89.0003 227.1 88.8503 227.1ZM67.2003 64.0499C66.5503 63.9999 51.2003 63.0999 48.9503 58.1499C48.3503 56.8999 48.6503 55.4999 49.7503 54.0499L49.8003 53.9999C50.6003 52.9999 51.8003 51.8999 53.4003 50.7999C54.6003 49.9499 56.1003 49.3499 57.6003 48.7499C58.0503 48.5499 58.4503 48.3999 58.8503 48.1999C60.8003 47.3499 62.7003 46.6499 64.6003 46.0499C68.4503 44.8999 72.6503 44.0999 77.1003 43.7999C86.6003 43.0999 97.0003 44.7499 107.95 48.7499C110.65 49.7499 113.5 50.8999 116.65 52.2999C123.55 55.3999 131.55 55.8499 139.1 53.5999C141.3 52.9499 143.15 52.1499 144.75 51.1499C148.2 49.0499 152.2 48.6499 156.1 50.0499C156.3 50.0999 156.4 50.3499 156.35 50.5499C156.3 50.7499 156.05 50.8499 155.85 50.7999C153.75 50.0499 149.5 49.1499 145.15 51.8499C143.5 52.8999 141.6 53.6999 139.3 54.3499C131.55 56.6499 123.4 56.1499 116.3 52.9999C113.15 51.5999 110.3 50.4499 107.65 49.4499C96.8003 45.4999 86.5003 43.8499 77.1003 44.5499C72.7003 44.8999 68.5503 45.6499 64.8003 46.7999C62.9503 47.3499 61.1003 48.0499 59.1503 48.8999C58.7503 49.0999 58.3003 49.2499 57.8503 49.4499C56.4503 50.0499 54.9503 50.6499 53.8003 51.4499C52.3003 52.4999 51.1503 53.4999 50.4003 54.4499L50.3003 54.5499C49.3503 55.7499 49.1503 56.8499 49.6003 57.8499C51.7003 62.3999 67.0503 63.2999 67.2003 63.2999C67.4003 63.2999 67.5503 63.4999 67.5503 63.6999C67.5503 63.8999 67.4003 64.0499 67.2003 64.0499Z" fill="black"/>
<path d="M163.649 55.8499L163.199 55.4999C161.399 54.1499 159.949 53.1499 158.549 52.3499C140.249 40.9999 97.1494 32.9499 87.7494 36.0499C82.9994 37.2499 78.8494 38.4499 75.1994 39.6999C53.8494 46.8999 50.4494 54.2999 50.3994 54.3999C50.2994 54.5999 50.0994 54.6999 49.8994 54.5999C49.6994 54.4999 49.5994 54.2999 49.6994 54.0999C49.8494 53.7499 53.1994 46.2999 74.7494 39.0499C77.9494 27.2999 82.2994 15.5999 91.9494 9.19989C101.299 2.9999 114.699 2.44989 132.949 7.5999L133.049 7.6499C142.599 10.3499 154.499 13.6999 161.149 21.7499C165.649 27.1999 167.099 34.9999 165.699 45.5999C165.349 48.3499 164.799 51.1999 164.049 54.2499L163.649 55.8499ZM93.9994 34.5999C109.649 34.5999 142.949 41.7499 158.949 51.6999C160.199 52.4499 161.549 53.3499 163.199 54.5499L163.349 53.9999C164.099 50.9499 164.599 48.1499 164.999 45.3999C166.399 34.9999 164.949 27.3999 160.599 22.0999C154.099 14.2499 142.349 10.8999 132.899 8.2499L132.799 8.19989C114.799 3.14989 101.599 3.64989 92.4494 9.69989C83.1494 15.8499 78.8494 27.1999 75.6994 38.5999C79.1994 37.4499 83.0994 36.2999 87.5994 35.1999C88.9994 34.7999 91.2494 34.5999 93.9994 34.5999Z" fill="black"/>
<path d="M146.5 46.4999H146.4C146.2 46.4499 146.1 46.2499 146.15 46.0499C150.6 30.2499 146.85 16.9999 145 12.0499C144.95 11.8499 145.05 11.6499 145.25 11.5499C145.45 11.4999 145.65 11.5999 145.75 11.7999C147.6 16.8499 151.45 30.2499 146.9 46.2999C146.85 46.3999 146.7 46.4999 146.5 46.4999ZM126.5 6.69989H126.45C126.25 6.64989 126.1 6.44989 126.15 6.24989C126.45 4.54989 126.3 3.39989 125.7 2.64989C124.8 1.44989 122.85 1.14989 119.75 0.79989C118.75 0.69989 117.95 0.89989 117.4 1.39989C116.15 2.49989 116.1 4.59989 116.1 4.59989C116.1 4.79989 115.95 4.99989 115.7 4.99989C115.5 4.99989 115.3 4.79989 115.3 4.59989C115.3 4.49989 115.35 2.09989 116.85 0.79989C117.6 0.14989 118.6 -0.15011 119.8 -0.000109617C123.1 0.39989 125.2 0.69989 126.3 2.14989C127 3.09989 127.2 4.39989 126.85 6.29989C126.85 6.54989 126.7 6.69989 126.5 6.69989ZM167.5 173.5H167.4C156.5 171 151.5 161.3 151.45 161.2C151.35 161 151.45 160.8 151.6 160.7C151.8 160.6 152 160.7 152.1 160.85C152.15 160.95 157 170.35 167.5 172.75C167.7 172.8 167.85 173 167.8 173.2C167.85 173.35 167.7 173.5 167.5 173.5ZM125.85 150.6C119.1 150.6 110.8 149.5 103.35 145.4C103.15 145.3 103.1 145.05 103.2 144.9C103.3 144.7 103.55 144.65 103.7 144.75C116.1 151.6 130.95 149.95 136.75 148.95C136.95 148.9 137.15 149.05 137.2 149.25C137.25 149.45 137.1 149.65 136.9 149.7C134.45 150.1 130.5 150.6 125.85 150.6ZM75.8504 179.05C75.8504 179.05 75.9504 179.35 76.1004 179.85C76.1504 180.1 76.2504 180.4 76.3504 180.75C76.4004 180.95 76.4504 181.1 76.5004 181.3C76.5504 181.5 76.6004 181.7 76.6504 181.95C76.7504 182.4 76.8504 182.9 76.9004 183.4C76.9504 183.9 77.0004 184.5 77.0504 185.05C77.0504 185.2 77.1004 185.35 77.1004 185.5V187.3L77.0504 187.75L76.9504 188.65C76.9504 188.95 76.8004 189.25 76.7504 189.55C76.6504 189.85 76.6004 190.15 76.5504 190.45C76.3504 191 76.2004 191.6 75.9004 192.1C75.7504 192.35 75.6504 192.6 75.5504 192.85C75.4004 193.1 75.2504 193.3 75.1504 193.55C75.0004 193.8 74.8504 194 74.7004 194.2C74.5504 194.4 74.4004 194.6 74.2504 194.75C73.1004 196.15 72.0004 196.8 72.0004 196.8C71.9504 196.8 71.9004 196.8 71.9004 196.75C71.9004 196.7 71.9004 196.65 71.9504 196.65C71.9504 196.65 72.2004 196.5 72.6004 196.15C72.8004 195.95 73.0504 195.75 73.3004 195.5C73.4004 195.35 73.5504 195.25 73.7004 195.05C73.8504 194.9 73.9504 194.7 74.1004 194.55C74.2504 194.4 74.3504 194.2 74.5004 194C74.6504 193.8 74.8004 193.6 74.9004 193.35C75.0004 193.15 75.1504 192.9 75.3004 192.65C75.4004 192.4 75.5004 192.15 75.6504 191.9C75.9004 191.4 76.0504 190.85 76.2004 190.3C76.3004 190 76.3004 189.75 76.4004 189.45C76.4504 189.15 76.5504 188.85 76.5504 188.6L76.6504 187.7L76.7004 187.25V185.5C76.7004 185.35 76.6504 185.2 76.6504 185.1C76.6004 184.55 76.5504 184 76.4504 183.5C76.3504 183 76.2504 182.55 76.1504 182.1L76.0004 181.5C75.9504 181.3 75.9004 181.1 75.8004 180.95C75.7004 180.6 75.6004 180.3 75.5004 180.05C75.3504 179.55 75.2504 179.25 75.2504 179.25C75.2004 179.05 75.3004 178.85 75.5004 178.75C75.6004 178.7 75.8004 178.8 75.8504 179.05C75.8504 179 75.8504 179 75.8504 179.05ZM104.9 169.45C104.9 169.45 108.5 169.8 113.85 170.4C116.55 170.7 119.65 171.05 123 171.6C124.65 171.85 126.4 172.15 128.15 172.55C128.6 172.65 129 172.8 129.45 172.95C129.55 173 129.7 173.05 129.8 173.1C129.85 173.15 129.9 173.15 130 173.25L130.1 173.35C130.15 173.4 130.15 173.45 130.2 173.5L130.25 173.6C130.25 173.65 130.25 173.55 130.3 173.7V173.8C130.3 173.85 130.3 173.95 130.25 174.05C130.25 174.1 130.2 174.15 130.2 174.2L130.15 174.3C130.1 174.35 130.1 174.45 130.05 174.5C129.9 174.7 129.7 174.9 129.55 175.05L129.3 175.25L129.05 175.5C128.75 175.8 128.4 176.15 128.15 176.5C127 177.85 126.05 179.35 125.5 181C125.35 181.4 125.2 181.8 125.1 182.25L124.95 182.85L124.85 183.5C124.8 183.95 124.7 184.35 124.65 184.8C124.6 185.2 124.6 185.65 124.55 186.05C124.45 186.85 124.55 187.7 124.55 188.5V188.8L124.6 189.1C124.65 189.3 124.65 189.5 124.7 189.7C124.75 190.1 124.8 190.5 124.9 190.8C125 191.15 125.1 191.55 125.2 191.9C125.35 192.25 125.45 192.55 125.6 192.9C125.75 193.2 125.9 193.55 126.1 193.8C126.2 193.95 126.3 194.1 126.35 194.25C126.45 194.4 126.55 194.5 126.65 194.65C127.45 195.7 128.4 196.5 129.25 197.05C130.15 197.65 131.05 197.95 131.8 198.2C132.55 198.45 133.15 198.55 133.55 198.65C133.95 198.7 134.2 198.75 134.2 198.75C134.25 198.75 134.3 198.85 134.3 198.9C134.3 198.95 134.2 199 134.15 199C134.15 199 133.95 198.95 133.5 198.9C133.1 198.85 132.45 198.75 131.7 198.55C130.95 198.35 130 198 129.05 197.45C128.1 196.85 127.1 196.05 126.2 194.95C126.1 194.8 126 194.65 125.9 194.55L125.6 194.1C125.4 193.8 125.25 193.45 125.05 193.15C124.85 192.8 124.75 192.45 124.6 192.1C124.45 191.75 124.4 191.35 124.25 191C124.15 190.6 124.1 190.2 124.05 189.8C124 189.6 124 189.4 123.95 189.2L123.9 188.9V188.6C123.9 187.75 123.75 186.95 123.85 186.05C123.9 185.6 123.9 185.2 123.95 184.75C124 184.35 124.1 183.9 124.15 183.45L124.25 182.8C124.3 182.55 124.35 182.35 124.4 182.15C124.5 181.7 124.65 181.3 124.8 180.85C125.4 179.15 126.35 177.55 127.55 176.15C127.85 175.8 128.15 175.45 128.45 175.15L128.7 174.9C128.8 174.8 128.9 174.75 128.95 174.65C129.1 174.5 129.25 174.35 129.35 174.2C129.4 174.15 129.4 174.15 129.4 174.1L129.45 174.05C129.45 174.05 129.5 174.05 129.45 174V173.9C129.5 174.05 129.45 173.95 129.45 173.95H129.4C129.4 173.95 129.35 173.9 129.3 173.9C129.25 173.85 129.15 173.8 129.05 173.8C128.65 173.65 128.25 173.55 127.85 173.4C126.15 173 124.45 172.75 122.75 172.5C119.4 172 116.3 171.65 113.6 171.35C108.25 170.75 104.65 170.4 104.65 170.4C104.45 170.4 104.3 170.2 104.3 170C104.5 169.6 104.65 169.45 104.9 169.45ZM122.65 197.85C122.55 197.85 122.5 197.8 122.4 197.75C119.45 195.25 118.2 192 118.35 187.4C118.35 187.2 118.55 187 118.75 187.05C118.95 187.05 119.15 187.25 119.1 187.45C118.95 191.75 120.1 194.85 122.85 197.2C123 197.35 123.05 197.6 122.9 197.75C122.9 197.8 122.75 197.85 122.65 197.85Z" fill="black"/>
<path d="M119.199 181.35C119.149 181.35 119.099 181.35 119.049 181.3C118.849 181.2 118.749 181 118.849 180.8C119.449 179.25 120.199 178.1 121.199 177.1C121.349 176.95 121.599 176.95 121.749 177.1C121.899 177.25 121.899 177.5 121.749 177.65C120.799 178.55 120.149 179.6 119.599 181.05C119.499 181.25 119.349 181.35 119.199 181.35ZM102.149 181.25H101.949L53.6492 178.1C53.2492 178.1 52.8992 178.05 52.4992 178.05C52.1992 178.05 51.8492 178 51.5492 178C51.0992 177.95 50.6492 177.95 50.1992 177.9C49.7492 177.9 48.9492 177.85 48.5992 177.1C48.4992 176.85 48.4492 176.55 48.3992 176.3L46.8992 158.25C46.8992 158.05 47.0492 157.85 47.2492 157.85C47.4492 157.85 47.6492 158 47.6492 158.2L49.1492 176.25C49.1992 176.4 49.1992 176.65 49.2992 176.85C49.3992 177.1 49.6992 177.15 50.1992 177.2C50.6492 177.2 51.0992 177.25 51.5992 177.3C51.8992 177.3 52.2492 177.35 52.5492 177.35C52.9492 177.35 53.3492 177.4 53.6992 177.4L101.999 180.55C102.499 180.55 102.799 180.5 102.949 180.35C103.099 180.2 103.149 179.9 103.149 179.5C103.149 179.2 98.9992 115.1 98.9992 115.1C98.9992 115.05 98.9992 115 98.9492 114.9C98.8992 114.6 98.8492 114.25 98.6992 114.1C98.4492 113.8 97.9492 113.6 97.3992 113.6C97.2492 113.6 44.9992 109.8 44.4992 109.75C44.1992 109.7 43.9492 109.8 43.7992 109.95C43.6492 110.1 43.5492 110.35 43.5992 110.6C43.5992 110.7 44.8992 126.05 44.8992 126.05L45.4492 132.7C45.4492 132.9 45.2992 133.1 45.0992 133.1C44.8992 133.1 44.6992 132.95 44.6992 132.75L44.1492 126.1L42.8492 110.65C42.7992 110.15 42.9492 109.7 43.2992 109.4C43.6492 109.1 44.0992 108.95 44.5992 109C46.7492 109.15 97.4492 112.8 97.4992 112.85C97.8492 112.9 98.7492 113 99.2992 113.65C99.5992 114 99.6992 114.45 99.7492 114.85C99.7492 114.95 99.7992 115 99.7992 115.1C99.7992 115.15 103.899 179.25 103.949 179.55C103.999 179.95 103.949 180.6 103.549 181C103.099 181.15 102.599 181.25 102.149 181.25Z" fill="black"/>
<path d="M103.249 180.95C103.099 180.95 102.949 180.85 102.899 180.7C102.849 180.5 102.949 180.3 103.149 180.2C104.899 179.55 104.999 178.45 104.999 178.4C104.949 177.8 100.949 113.6 100.949 113.4C100.899 112.55 100.049 112.05 99.1993 111.95L48.2993 108.45C45.9993 108.45 43.8493 109.85 43.7993 109.85C43.5993 109.95 43.3993 109.9 43.2493 109.75C43.1493 109.55 43.1993 109.35 43.3493 109.2C43.4493 109.15 45.7493 107.65 48.2993 107.65L99.2493 111.15C100.399 111.3 101.599 112 101.699 113.3C101.699 113.4 105.599 175.65 105.749 178.3C105.749 178.4 105.649 180 103.399 180.8C103.349 180.95 103.299 180.95 103.249 180.95ZM115.649 92.2502C108.799 92.2502 103.249 85.7502 103.249 77.7502C103.249 69.7502 108.799 63.2502 115.649 63.2502C122.499 63.2502 128.049 69.7502 128.049 77.7502C128.049 85.7502 122.449 92.2502 115.649 92.2502ZM115.649 64.0502C109.249 64.0502 103.999 70.2002 103.999 77.8002C103.999 85.3502 109.199 91.5502 115.649 91.5502C122.049 91.5502 127.299 85.4002 127.299 77.8002C127.249 70.2002 122.049 64.0502 115.649 64.0502ZM89.4993 87.9002C82.8493 87.9002 77.4493 81.8002 77.4493 74.3002C77.4493 66.8002 82.8493 60.7002 89.4993 60.7002C96.1493 60.7002 101.549 66.8002 101.549 74.3002C101.549 81.8002 96.1493 87.9002 89.4993 87.9002ZM89.4993 61.4502C83.2493 61.4502 78.1993 67.2002 78.1993 74.2502C78.1993 81.3002 83.2493 87.0502 89.4993 87.0502C95.7493 87.0502 100.799 81.3002 100.799 74.2502C100.799 67.2002 95.6993 61.4502 89.4993 61.4502ZM82.2493 53.1002L82.4493 52.4002C83.0493 50.0502 90.8493 46.8002 91.7493 46.4002C92.0493 46.2502 92.3993 46.2002 92.6493 46.2002C94.9993 46.2002 95.2993 50.2502 95.2993 50.4502L95.3493 50.9002L94.8993 50.8502C94.4493 50.8002 93.9993 50.8002 93.5493 50.8002C88.5493 50.8002 82.9993 52.8502 82.9493 52.8502L82.2493 53.1002ZM92.6493 47.0002C92.4493 47.0002 92.2493 47.0502 91.9993 47.1502C89.2993 48.2502 85.1993 50.3002 83.6993 51.8002C85.5993 51.2002 89.6493 50.0502 93.4993 50.0502H94.4493C94.3493 49.1002 93.9493 47.0002 92.6493 47.0002ZM131.049 62.1002L130.449 61.6502C128.549 60.3002 118.999 54.0502 118.899 54.0002C118.699 53.9002 118.649 53.6502 118.799 53.4502C118.899 53.2502 119.149 53.2002 119.349 53.3502C119.449 53.4002 127.049 58.4002 130.049 60.4502C129.649 59.5502 128.749 58.0002 126.499 55.5002C126.349 55.3502 126.349 55.1002 126.549 54.9502C126.699 54.8002 126.949 54.8002 127.099 55.0002C130.949 59.2002 131.149 61.0502 131.149 61.3502L131.049 62.1002Z" fill="black"/>
<path d="M90.7992 82.8499C90.7992 82.8499 90.6992 82.6999 90.5492 82.3999C90.4992 82.3499 90.4992 82.2499 90.4492 82.1499C90.3992 82.0999 90.3492 81.9999 90.2992 81.9499C90.2492 81.8999 90.1992 81.7999 90.1492 81.7499L89.9492 81.5499C89.8492 81.4999 89.7992 81.3999 89.6992 81.3499C89.5992 81.2999 89.4992 81.1999 89.4492 81.1499C89.3992 81.0999 89.3492 81.0999 89.2992 81.0499L89.1492 80.9499L88.8492 80.7999C88.7492 80.7499 88.6492 80.6999 88.5492 80.6999C88.4492 80.6499 88.3492 80.6499 88.2492 80.5999C88.0492 80.4999 87.7992 80.5499 87.5992 80.4999H87.6992H87.0492C86.9992 80.4999 86.9492 80.4999 86.9492 80.5499H86.8492C86.7992 80.5499 86.7492 80.5499 86.6992 80.5999C86.5992 80.6499 86.4992 80.6499 86.3992 80.6999L86.0992 80.8499L85.7992 80.9999L85.4992 81.1499C85.3992 81.1999 85.3492 81.2999 85.2492 81.3499C85.1492 81.3999 85.0992 81.4999 84.9992 81.5499C84.9492 81.6499 84.8492 81.6999 84.7992 81.7499L84.5992 81.9499C84.5492 81.9999 84.4992 82.0999 84.4492 82.1499C84.2992 82.3999 84.1492 82.5499 84.1492 82.5499C84.1492 82.5499 84.0492 82.3999 83.9992 82.0499C83.9992 81.9499 83.9492 81.8499 83.9492 81.7499V80.9999C83.9492 80.8499 83.9992 80.7499 84.0492 80.5999L84.1992 80.1499C84.2992 79.9999 84.3992 79.8499 84.4492 79.6999C84.5492 79.5499 84.6492 79.3999 84.7992 79.2499C84.9492 79.0999 85.0992 78.9499 85.2492 78.8499C85.5992 78.6499 85.9492 78.3999 86.4492 78.2999L86.7992 78.1999C86.9492 78.1499 86.9992 78.1999 87.0492 78.1499H87.6492C88.0992 78.1999 88.5492 78.2499 88.8992 78.4499C89.2992 78.5999 89.6492 78.8499 89.9492 79.0999C90.0992 79.2499 90.2492 79.3999 90.3492 79.5499C90.4492 79.6999 90.5992 79.8499 90.6492 79.9999C90.7492 80.1499 90.7992 80.2999 90.8992 80.4499C90.9492 80.5999 90.9992 80.7499 90.9992 80.8999C91.0492 81.0499 91.0492 81.1999 91.0492 81.3499V81.7499C91.0492 81.8499 91.0492 81.9999 90.9992 82.0999C90.9492 82.1999 90.9492 82.2499 90.8992 82.3499C90.8492 82.6499 90.7992 82.8499 90.7992 82.8499ZM114.899 87.1999C114.899 87.1999 114.849 86.9999 114.799 86.6999C114.799 86.5999 114.799 86.5499 114.749 86.4499C114.699 86.3499 114.699 86.2999 114.649 86.1999C114.599 86.0999 114.599 86.0499 114.549 85.9499L114.399 85.6499L114.249 85.3499C114.199 85.2499 114.099 85.1499 114.049 85.0999C113.999 85.0499 113.999 84.9999 113.949 84.9499L113.849 84.8499C113.749 84.7499 113.699 84.6999 113.649 84.5999C113.549 84.5499 113.499 84.4499 113.399 84.3999C113.349 84.2999 113.199 84.2999 113.149 84.1999C113.049 84.1499 112.949 84.0499 112.849 84.0499L112.699 83.9999L112.649 83.9499H112.599C112.649 83.9499 112.499 83.8999 112.699 83.9999L112.249 83.8499L112.149 83.7999C112.099 83.7999 112.049 83.7499 112.049 83.7999H111.349C111.249 83.7999 111.149 83.8499 110.999 83.8499C110.899 83.8499 110.799 83.8499 110.649 83.8999C110.549 83.8999 110.449 83.9499 110.349 83.9499C110.249 83.9999 110.149 84.0499 110.049 84.0499C109.949 84.0999 109.849 84.0999 109.749 84.1499C109.649 84.1999 109.599 84.2499 109.499 84.2999C109.399 84.3499 109.349 84.3999 109.249 84.4499C109.199 84.4999 109.099 84.5499 109.049 84.5999C108.799 84.7999 108.649 84.8999 108.649 84.8999V84.3999C108.649 84.2999 108.649 84.1999 108.699 84.0999C108.699 83.9999 108.749 83.8999 108.799 83.7999C108.849 83.6999 108.899 83.5499 108.949 83.4499C108.999 83.2999 109.099 83.1999 109.199 83.0999C109.299 82.9999 109.399 82.8499 109.499 82.6999C109.599 82.5999 109.749 82.4999 109.899 82.3499L110.349 82.0499C110.499 81.9499 110.699 81.8499 110.899 81.7999C111.299 81.6999 111.699 81.5999 112.199 81.6499H112.549C112.699 81.6499 112.749 81.6999 112.799 81.6999L113.299 81.7999C113.499 81.8499 113.349 81.7999 113.399 81.8499H113.449L113.499 81.8999L113.649 81.9999L113.949 82.1499C114.149 82.2499 114.299 82.3999 114.499 82.5499C114.849 82.7999 115.099 83.1499 115.299 83.4999C115.399 83.6499 115.449 83.8499 115.549 84.0499C115.599 84.2499 115.699 84.3999 115.699 84.5999C115.749 84.7999 115.749 84.9499 115.749 85.0999C115.749 85.2499 115.749 85.4499 115.699 85.5999C115.699 85.7499 115.649 85.8999 115.649 86.0499C115.599 86.1999 115.549 86.2999 115.499 86.4499L115.349 86.7499C115.299 86.8499 115.249 86.8999 115.199 86.9499C115.049 87.0499 114.899 87.1999 114.899 87.1999Z" fill="black"/>
<path d="M82.8008 93.1501C82.8008 93.1501 83.6508 93.6501 85.2508 94.3501C86.0508 94.7001 87.0008 95.1501 88.1508 95.6001C89.3008 96.0501 90.5508 96.5001 92.0008 97.0001C92.7008 97.2501 93.4508 97.4501 94.2008 97.7001C95.0008 97.9001 95.8008 98.1501 96.6008 98.3501C98.2508 98.7501 100.051 99.1001 101.901 99.3501C102.351 99.4001 102.851 99.5001 103.301 99.5501C103.751 99.6001 104.251 99.6501 104.701 99.7001C105.201 99.7501 105.651 99.8001 106.151 99.8001C106.651 99.8001 107.101 99.8501 107.601 99.8501C109.551 99.9501 111.551 99.8501 113.501 99.6501C117.451 99.2501 121.351 98.3501 124.801 96.9501C126.501 96.2501 128.101 95.4501 129.551 94.5001C130.951 93.6001 132.201 92.5501 133.201 91.4501C134.201 90.3501 134.901 89.2501 135.401 88.1501C135.651 87.6001 135.851 87.1001 136.001 86.6001C136.101 86.1001 136.251 85.6501 136.301 85.2501C136.351 85.0501 136.351 84.8501 136.401 84.6501C136.401 84.4501 136.401 84.3001 136.451 84.1001C136.451 83.9501 136.451 83.8001 136.501 83.6501V82.5001C136.501 82.3001 136.651 82.1001 136.901 82.1001C137.101 82.1001 137.301 82.2501 137.301 82.5001V83.6501C137.301 83.8001 137.301 83.9501 137.251 84.1501C137.251 84.3001 137.201 84.5001 137.201 84.7001C137.151 84.9001 137.151 85.1001 137.101 85.3501C137.051 85.8001 136.901 86.2501 136.751 86.8001C136.551 87.3001 136.401 87.8501 136.101 88.4001C135.551 89.5001 134.751 90.7001 133.701 91.8001C132.651 92.9001 131.401 93.9501 129.901 94.9001C128.451 95.8001 126.801 96.6501 125.051 97.3001C121.551 98.6501 117.601 99.5501 113.601 99.9001C111.601 100.05 109.601 100.15 107.651 100.05C107.151 100.05 106.651 100 106.201 100C105.701 99.9501 105.251 99.9001 104.751 99.8501C104.251 99.8001 103.801 99.7501 103.301 99.7001C102.851 99.6501 102.351 99.5501 101.901 99.5001C100.051 99.2001 98.3008 98.8501 96.6008 98.4001C95.7508 98.2001 94.9508 97.9501 94.2008 97.7501C93.4508 97.5001 92.7008 97.3001 92.0008 97.0501C90.6008 96.5501 89.3008 96.1001 88.2008 95.6001C87.1008 95.1501 86.1008 94.7001 85.3008 94.3501C83.6508 93.6501 82.8008 93.1501 82.8008 93.1501Z" fill="black"/>
<path d="M134.899 81.4499C134.899 81.4499 134.999 81.4499 135.099 81.3999H135.649C135.749 81.3999 135.849 81.4499 135.999 81.4499C136.099 81.4999 136.249 81.4999 136.349 81.5499C136.449 81.5999 136.599 81.6499 136.699 81.6999C136.799 81.7499 136.949 81.8499 137.049 81.8999C137.149 81.9999 137.249 82.0999 137.349 82.1499C137.449 82.2499 137.549 82.3499 137.599 82.4499C137.699 82.5499 137.749 82.6499 137.799 82.7499L137.949 83.0499C138.099 83.4499 138.099 83.7999 138.099 83.7999C138.099 83.7999 138.099 83.8499 138.049 83.8499C138.049 83.8499 137.899 83.6499 137.599 83.3999L137.149 82.9499C136.999 82.7999 136.749 82.6499 136.549 82.4999L135.949 82.0499C135.749 81.9499 135.549 81.7999 135.399 81.6999C135.099 81.4999 134.849 81.3999 134.849 81.3999C134.849 81.4999 134.849 81.4999 134.899 81.4499C134.849 81.4499 134.849 81.4499 134.899 81.4499ZM37.3491 135H37.2491C37.0491 134.95 36.9491 134.7 36.9991 134.5C39.5991 126.85 44.2491 125.7 44.4491 125.65C44.6491 125.6 44.8491 125.75 44.8991 125.95C44.9491 126.15 44.7991 126.35 44.5991 126.4C44.5491 126.4 40.1491 127.55 37.6991 134.75C37.6491 134.9 37.4991 135 37.3491 135Z" fill="black"/>
<path d="M46.8004 158.6C46.2504 158.6 45.7004 158.55 45.1504 158.5C43.4504 158.25 41.8004 158 40.3504 157.2C37.7004 155.75 35.3004 152.7 34.2504 149.45C33.2004 146.2 33.2004 142.55 34.2504 139.4C37.2004 130.7 44.9004 130.5 45.0004 130.5C45.2004 130.5 45.4004 130.65 45.4004 130.9C45.4004 131.1 45.2504 131.3 45.0004 131.3C44.7004 131.3 37.7504 131.5 35.0004 139.65C34.0004 142.6 34.0004 146.1 35.0004 149.2C36.0004 152.3 38.2504 155.2 40.7504 156.5C42.1004 157.25 43.7004 157.5 45.3004 157.7C48.4504 158.15 51.2004 157.25 52.7004 155.4C53.1504 154.85 53.4504 154.15 53.5504 153.4C53.7504 152.3 53.4004 151 52.7004 149.95C52.6004 149.75 52.6504 149.55 52.8004 149.4C53.0004 149.3 53.2004 149.35 53.3504 149.5C54.1504 150.7 54.5004 152.2 54.3004 153.5C54.1504 154.4 53.8004 155.2 53.3004 155.85C51.8504 157.65 49.5004 158.6 46.8004 158.6Z" fill="black"/>
<path d="M53.4 139.8C53.55 139.95 53.75 140.1 53.9 140.3C54.05 140.5 54.25 140.65 54.35 140.9C54.5 141.1 54.65 141.3 54.75 141.5L54.95 141.8L55.1 142.15C55.2 142.35 55.3 142.6 55.4 142.85C55.5 143.1 55.55 143.3 55.6 143.55C55.65 143.8 55.7 144.05 55.75 144.25C55.8 144.5 55.8 144.75 55.8 145C55.8 145.25 55.8 145.5 55.75 145.75C55.75 146 55.65 146.25 55.6 146.5C55.55 146.75 55.45 146.95 55.4 147.2C55.35 147.45 55.2 147.65 55.1 147.9C55 148.15 54.85 148.35 54.7 148.55L54.5 148.85L54.25 149.15C54.1 149.35 53.95 149.55 53.75 149.7L53.2 150.2L53.15 150.25H53.1C52.8 150.35 52.55 150.45 52.25 150.5C51.95 150.55 51.65 150.6 51.4 150.65C50.8 150.7 50.25 150.8 49.7 150.8C49.15 150.85 48.55 150.85 48 150.85H46.3C44 150.8 41.75 150.6 39.5 150.35C41.75 150.45 44.05 150.5 46.3 150.4C46.85 150.4 47.45 150.35 48 150.3C48.55 150.25 49.1 150.2 49.7 150.15C50.25 150.1 50.8 150 51.35 149.9L52.15 149.7C52.4 149.65 52.65 149.55 52.9 149.5L52.8 149.55L53.3 149.1C53.5 148.95 53.6 148.8 53.75 148.6L53.95 148.35L54.15 148.1C54.25 147.9 54.4 147.75 54.5 147.55L54.8 146.95C54.85 146.75 54.95 146.55 55 146.35C55.05 146.15 55.1 145.95 55.1 145.7C55.1 145.5 55.15 145.25 55.15 145.05C55.15 144.85 55.15 144.6 55.1 144.4C55.05 144.2 55.05 143.95 55 143.75C54.95 143.55 54.9 143.3 54.8 143.1C54.75 142.9 54.65 142.7 54.55 142.5L54.4 142.2L54.25 141.9C54.15 141.7 54 141.5 53.9 141.35C53.8 141.15 53.65 141 53.5 140.85C53.35 140.7 53.15 140.55 53 140.35C52.9 140.25 52.9 140.05 53 139.9C53.05 139.7 53.25 139.7 53.4 139.8Z" fill="black"/>
<path d="M39.4492 140.55L42.9492 140.5L46.4492 140.45L49.8992 140.3C50.4492 140.25 51.0492 140.2 51.5992 140.1C51.8992 140.05 52.1492 140 52.3992 139.95C52.5492 139.9 52.6492 139.9 52.7492 139.85L52.9492 139.75C53.3992 139.3 53.5992 138.65 53.6992 137.95C53.7492 137.25 53.6492 136.55 53.4492 135.9C53.3492 135.55 53.1992 135.25 52.9992 134.95C52.8992 134.8 52.7992 134.65 52.6992 134.55C52.6492 134.5 52.5992 134.4 52.5492 134.35L52.3492 134.15C52.0992 133.9 51.8492 133.7 51.5492 133.5C51.2492 133.35 50.9492 133.2 50.5992 133.15C50.2492 133.05 49.8992 133.05 49.5492 133C49.1992 132.95 48.8492 132.95 48.4492 132.95C47.6992 132.95 46.9992 132.95 46.2492 133C45.4992 133.05 44.7492 133.1 44.0492 133.15C43.2992 133.2 42.5492 133.3 41.8492 133.4C42.5492 133.25 43.2992 133.1 44.0492 132.95C44.7992 132.8 45.4992 132.7 46.2492 132.6C46.5992 132.55 46.9992 132.5 47.3492 132.5C47.6992 132.45 48.0992 132.45 48.4992 132.4H49.6492C50.0492 132.4 50.3992 132.45 50.7992 132.5C51.1992 132.55 51.5992 132.7 51.9492 132.9C52.2992 133.1 52.5992 133.35 52.8992 133.6L53.0992 133.8C53.1992 133.9 53.2492 133.95 53.2992 134.05C53.4492 134.2 53.5492 134.35 53.6492 134.55C53.8492 134.9 54.0492 135.25 54.1492 135.65C54.3992 136.4 54.5492 137.2 54.4492 138C54.3992 138.8 54.0992 139.6 53.4992 140.25V140.2C53.2992 140.4 53.1492 140.45 52.9992 140.55L52.5492 140.7L51.6492 140.85C51.0492 140.9 50.4492 140.95 49.8992 141C48.7492 141.05 47.5492 141.05 46.3992 141.05C45.2492 141.05 44.0492 140.95 42.8992 140.9C41.7492 140.8 40.5992 140.7 39.4492 140.55ZM49.7492 118.15H49.4492C48.0492 118 46.9992 116.8 46.9992 115.35C46.9992 113.95 48.0992 112.7 49.4492 112.55C51.0492 112.4 52.4492 113.7 52.4492 115.35C52.4492 116.9 51.2492 118.15 49.7492 118.15ZM49.7492 113.35H49.5492C48.5492 113.45 47.7992 114.35 47.7992 115.35C47.7992 116.4 48.5992 117.25 49.5492 117.35C50.7492 117.45 51.6992 116.55 51.6992 115.35C51.6992 114.25 50.8492 113.35 49.7492 113.35ZM54.3992 117.55H54.2492C53.4492 117.45 52.7992 116.75 52.7992 115.9C52.7992 115.05 53.4492 114.35 54.2492 114.25C55.1992 114.15 56.0492 114.95 56.0492 115.9C55.9992 116.8 55.2992 117.55 54.3992 117.55ZM54.3992 115H54.2992C53.8492 115.05 53.4992 115.45 53.4992 115.9C53.4992 116.35 53.8492 116.75 54.2992 116.8C54.7992 116.85 55.2492 116.45 55.2492 115.9C55.2492 115.4 54.8992 115 54.3992 115Z" fill="black"/>
</g>
</g>
<defs>
<clipPath id="clip0_278_140">
<rect width="256" height="256" fill="white"/>
</clipPath>
<clipPath id="clip1_278_140">
<rect width="256" height="256" fill="white"/>
</clipPath>
</defs>
</svg>
