<svg width="256" height="256" viewBox="0 0 256 256" fill="none" xmlns="http://www.w3.org/2000/svg">
<g clip-path="url(#clip0_278_430)">
<path d="M194.151 77.5499C192.201 88.9499 189.201 96.8999 186.551 103.95C183.201 112.8 180.351 120.4 179.951 132.5C179.401 132.25 178.701 132.2 177.951 132.45C177.401 132.6 176.801 132.9 176.151 133.3C174.501 134.35 172.851 135.7 171.351 137.3C171.151 137.5 170.901 137.75 170.701 138C164.951 144.25 160.651 150.85 157.951 157.55C122.901 157.4 99.7508 148.7 89.0508 143.45C88.9508 141.4 88.7508 139.2 88.4508 136.75C88.2508 135.2 86.7008 123.65 82.5508 120C81.8008 119.35 80.9508 118.95 80.0508 118.9C84.2008 100.35 91.5508 79.6499 101.951 57.3999C102.551 56.0999 103.201 54.7999 103.851 53.5999C104.801 51.8499 105.701 50.2999 106.601 48.8999C110.851 42.2999 114.451 39.5499 114.501 39.4999C114.551 39.4499 114.551 39.4499 114.551 39.3999C121.751 40.9999 129.451 43.9499 136.751 46.6999C142.201 48.7999 147.451 50.7999 152.001 51.9999C152.401 52.0499 152.801 52.1499 153.151 52.1999C154.201 52.4499 155.301 52.6499 156.351 52.9499C157.051 53.0499 157.701 53.1499 158.351 53.1499C158.451 53.1499 168.801 54.5499 178.251 51.2499L179.201 52.6499C182.651 57.7499 186.001 62.5999 189.151 68.0999C190.901 71.0999 192.551 74.1999 194.151 77.5499Z" fill="#8CB0DC"/>
<path d="M116.55 89.7498C117.75 89.7498 118.85 89.4498 119.85 88.9498C119.4 89.0998 124.85 86.9498 124.85 80.1498C124.85 74.8498 121.1 70.5498 116.55 70.5498C112 70.5498 108.25 74.8498 108.25 80.1498C108.25 85.4498 112 89.7498 116.55 89.7498Z" fill="#EFF6FF"/>
<path d="M67.8508 134.5C66.5008 137.9 63.6508 143.95 58.8008 151.25C57.8508 152.7 56.7508 154.2 55.6008 155.75C47.5508 150.7 42.5008 145.05 42.4008 144.95C41.3008 143.9 40.0008 143.4 38.7008 142.9C37.7508 142.5 36.7508 142.15 35.8508 141.5C35.0008 140.9 33.9008 139.95 33.3008 138.6C34.5508 138.6 36.0508 138.2 37.8008 137.45C38.4008 137.2 38.9508 136.95 39.5008 136.7C39.5008 136.8 39.5508 136.9 39.5508 137C39.8008 138.3 40.0008 139.7 41.4508 140.45C42.0508 140.75 42.6508 140.9 43.3008 140.9C44.2008 140.9 45.0508 140.6 45.7508 140C47.6008 138.4 47.3008 136.6 46.9508 134.6L46.9008 134.15L45.8508 127.7C45.6008 126 45.3008 124.35 45.0508 122.65C45.0008 122.3 44.9508 121.95 44.9008 121.65C46.0508 121.75 47.2508 121.5 48.3508 121.1C48.4008 121.1 48.4008 121.05 48.4508 121.05H48.5008C49.5508 120.65 50.4508 120.05 51.1508 119.45C51.2508 119.4 51.2508 119.25 51.1508 119.2C51.1008 119.1 50.9508 119.1 50.9008 119.2C50.0508 119.95 48.7508 120.65 47.4008 121.05C46.5008 121.3 45.5508 121.45 44.6508 121.35C44.0008 121.3 43.4008 121.05 42.9008 120.75C42.8008 120.7 42.7008 120.6 42.6008 120.5C42.5508 120.45 42.4508 120.4 42.4008 120.35C42.0508 120.05 41.8008 119.7 41.5508 119.25C41.1008 118.45 41.1008 117.55 41.5008 116.55C41.8508 115.7 42.6008 114.75 43.5008 114C43.6508 113.85 43.8508 113.7 44.0508 113.6C44.3008 113.4 44.5508 113.2 44.8508 113C47.1008 111.3 50.5008 108.7 52.9008 109.9C54.0508 110.45 54.6508 111.45 55.0008 112.65C55.1508 113.25 55.2508 113.85 55.3008 114.5C55.3508 115.25 55.3508 116.05 55.3508 116.8C55.3008 121.35 55.5508 125 56.1508 127.7C56.2008 128.1 56.3508 131.65 67.8508 134.5Z" fill="#3B8EEC"/>
<path d="M45.5004 139.75C44.4504 140.65 42.9004 140.8 41.6504 140.1C40.4004 139.4 40.2004 138.2 39.9504 136.9C39.9504 136.75 39.9004 136.6 39.9004 136.5C44.2004 134.3 45.1004 132.3 45.0504 130.95C44.9504 129.35 43.5004 128.1 42.0504 127.6C43.2504 126.7 43.8504 125.2 43.6004 123.75C43.4004 122.55 42.6504 121.55 41.5504 121.1L42.3004 120.65C42.9004 121.15 43.6504 121.5 44.5004 121.6C44.8504 123.65 45.1504 125.7 45.5004 127.75L46.5504 134.2L46.6004 134.65C46.9004 136.7 47.1504 138.3 45.5004 139.75Z" fill="#0D3F91"/>
<path d="M44.6499 131C44.6499 131.4 44.5999 131.9 44.2999 132.45C43.6499 133.75 41.8499 135.35 37.6999 137.1C37.4999 137.15 37.3499 137.25 37.1499 137.3C36.2999 137.65 35.4999 137.9 34.7999 138C33.2999 138.3 32.0999 138.2 31.1999 137.7C31.0499 137.6 30.8499 137.5 30.6999 137.4C28.5999 135.7 29.1999 131.65 29.2999 130.95C29.4499 130.95 29.5499 131 29.6999 131C30.0499 131 30.4499 130.95 30.8999 130.9L31.7999 130.75L33.0499 130.45C34.9999 130 36.4499 129.7 37.5499 129.4C39.1999 129 40.1499 128.65 40.9999 128.2C41.1999 128.1 41.3999 128 41.5999 127.85C43.0999 128.35 44.5499 129.55 44.6499 131Z" fill="#3B8EEC"/>
<path d="M120.65 63.2501L121.1 63.3501C122.95 63.8501 124.45 64.0501 125.85 64.0001C127.05 63.9501 128 63.7501 128.85 63.4501C129.35 63.2501 129.85 62.9501 130.35 62.5001C130.35 62.5001 130.45 62.3501 130.6 62.2501C128.4 61.8001 126.35 60.8001 124.15 59.7001C123.8 59.5501 123.4 59.3001 122.9 59.0501C121.6 58.3001 119.85 57.3001 118.25 56.8501C117.65 56.7001 117.15 56.6001 116.7 56.6001C115.4 56.6001 114.65 57.2501 114.25 58.5501C114.1 59.1001 114.15 59.6001 114.45 60.1001C115.4 61.8501 118.8 62.7501 120.65 63.2501Z" fill="#4F5C72"/>
<path d="M178.001 51.05C168.651 54.2 158.551 52.85 158.401 52.85C152.901 52.5 145.151 49.5 136.901 46.4C130.201 43.85 123.151 41.15 116.501 39.5C109.051 37.65 102.051 37.05 96.6508 39.45C95.8508 39.8 95.1008 40.2 94.3508 40.7C92.5008 41.95 91.4008 43.2 91.0508 44.45C91.0508 44 91.1508 43.4 91.4008 42.75C92.8508 39.2 98.9508 33.7 119.801 27.7C119.801 27.7 120.451 27.45 121.701 27.25C124.051 26.8 128.601 26.4 135.051 27.65C140.951 28.8 149.351 31.55 159.751 37.85C165.301 41.15 171.401 45.45 178.001 51.05Z" fill="#3B8EEC"/>
<path d="M147.15 94.7501C150.25 94.7501 152.8 91.7501 152.8 88.0501C152.8 84.3501 150.25 81.3501 147.15 81.3501C144.05 81.3501 141.5 84.3501 141.5 88.0501C141.5 91.7501 144.05 94.7501 147.15 94.7501Z" fill="black"/>
<path d="M141.099 99.9999L141.399 99.8499C141.499 99.7999 141.549 99.7499 141.649 99.7499L141.949 99.5999C142.049 99.5499 142.149 99.4999 142.199 99.4999C142.299 99.4499 142.399 99.3999 142.549 99.3499L142.849 99.1999C142.949 99.1499 143.099 99.0999 143.199 99.0499L143.499 98.8999C143.649 98.8499 143.749 98.7999 143.899 98.7499C143.999 98.6999 144.149 98.6499 144.249 98.5999C144.399 98.5499 144.499 98.4999 144.649 98.4499C144.749 98.3999 144.899 98.3499 145.049 98.3499L145.499 98.1999C145.649 98.1499 145.799 98.0999 145.899 98.0999C146.049 98.0499 146.199 97.9999 146.349 97.9999C146.499 97.9499 146.649 97.8999 146.849 97.8999C146.999 97.8499 147.099 97.8499 147.249 97.7999C147.449 97.7499 147.699 97.6999 147.899 97.6499C147.999 97.6499 148.099 97.5999 148.199 97.5999C148.499 97.5499 148.849 97.4999 149.149 97.3999H149.299C149.599 97.3499 149.849 97.2999 150.149 97.2499C150.249 97.2499 150.349 97.2499 150.449 97.1999C150.699 97.1499 150.949 97.1499 151.199 97.0999H151.549C151.799 97.0999 152.049 97.0499 152.249 97.0499H153.299C155.399 94.2999 156.549 90.6499 156.549 86.7499C156.549 78.5499 151.399 71.8999 144.999 71.8999C138.649 71.8999 133.449 78.5499 133.449 86.7499C133.449 92.6999 136.199 97.9999 140.399 100.35C140.449 100.3 140.499 100.3 140.549 100.25C140.649 100.2 140.699 100.15 140.799 100.1C140.899 100.1 140.999 100.05 141.099 99.9999ZM147.149 80.9999C150.449 80.9999 153.199 84.1499 153.199 88.0499C153.199 91.9499 150.499 95.0999 147.149 95.0999C143.849 95.0999 141.099 91.9499 141.099 88.0499C141.099 84.1499 143.849 80.9999 147.149 80.9999Z" fill="#EFF6FF"/>
<path d="M94.5505 40.9498C92.1505 42.4998 91.1005 44.0998 91.3505 45.6498V45.7498C92.1005 49.9498 102.25 52.8998 103.6 53.2498C108.55 43.9998 113.4 39.8998 114.15 39.2998C106.55 37.6998 99.6005 37.6498 94.5505 40.9498Z" fill="#285CB2"/>
<path d="M157.749 107.3C157.249 108.9 156.699 110.4 156.099 111.75C156.049 111.8 156.049 111.85 155.999 111.9C153.999 114.15 151.999 115.95 149.849 117.5C146.999 119.55 144.149 119.8 141.549 119.8C140.049 119.8 138.499 119.65 137.049 119.45C131.849 118.65 126.549 117.05 121.249 114.55C120.999 114.45 120.749 114.3 120.449 114.2C119.249 113.7 118.049 113.15 117.249 112.1C115.999 110.5 115.699 107.95 115.549 105.95C115.549 105.65 115.499 105.4 115.499 105.15C115.449 104.55 115.449 103.95 115.449 103.35C122.249 106.7 135.049 110.05 157.749 107.3Z" fill="#EFF6FF"/>
<path d="M146.099 62.7C147.149 63.25 148.749 63.25 150.099 63.3C150.749 63.3 151.299 63.3 151.749 63.4C154.199 63.8 156.099 64.3 157.699 65.05C158.649 65.5 159.799 66.1 160.349 67.15C160.499 67.45 160.649 67.55 160.699 67.55L160.799 67.45C160.999 67.2 160.799 66.45 160.299 65.15L160.249 65C159.099 62.1 156.549 59.6 153.749 58.65C152.899 58.35 151.299 58 149.599 58C148.299 58 146.599 58.2 145.699 59.2C145.199 59.7 144.999 60.4 145.099 61.25C145.199 61.9 145.499 62.35 146.099 62.7Z" fill="#4F5C72"/>
<path d="M182.251 194.15C178.401 206.5 171.601 220.2 162.101 234.95C159.501 234.35 157.051 233.8 154.751 233.35C146.451 231.75 140.051 231.15 136.001 230.95C135.401 230.9 134.851 230.9 134.351 230.9V219.6C134.351 219.5 134.301 219.4 134.151 219.4C134.051 219.4 126.551 218.95 119.051 216.3C117.801 215.85 116.601 215.4 115.401 214.8H115.351C114.301 214.3 113.301 213.8 112.301 213.2C112.201 213.15 112.101 213.15 112.051 213.25C112.001 213.35 112.001 213.45 112.101 213.5C114.251 214.8 116.601 215.85 119.001 216.7C117.051 220.45 115.001 224.2 113.001 227.6C110.451 226.7 107.651 225.75 104.651 224.75C101.101 223.6 97.3008 222.35 93.2008 221C91.7008 220.5 90.1508 220 88.5508 219.5L92.8508 203.8L94.1008 199.3V199.2L94.0008 199.15C85.7008 191.3 80.2508 180.95 77.7508 168.4C77.6008 167.6 77.4508 166.8 77.3008 165.95C77.9508 166.5 78.8008 166.85 79.5508 166.9H79.9508C83.3008 166.9 86.0508 163.95 87.2008 161.25C88.6008 157.95 88.8008 154.3 89.0008 150.8V150.45C89.1008 148.35 89.1508 146.15 89.0008 143.8C99.8008 149.05 122.851 157.7 157.701 157.85C157.651 158 157.551 158.2 157.501 158.35C155.251 164.05 153.951 169.75 153.601 175.4C154.551 182.05 157.101 186.4 160.601 187.4C160.951 187.5 161.301 187.55 161.651 187.6C161.851 187.6 162.001 187.65 162.201 187.65H162.701C162.851 187.65 163.001 187.6 163.151 187.6C163.351 187.55 163.551 187.55 163.751 187.45C163.901 187.4 164.051 187.4 164.151 187.35C164.301 187.3 164.451 187.25 164.601 187.15C164.751 187.1 164.901 187 165.051 186.95C165.351 186.8 165.651 186.6 165.951 186.4C166.301 186.15 166.701 185.85 167.001 185.55L167.301 185.25C167.401 185.15 167.501 185 167.651 184.9C167.851 184.65 168.101 184.4 168.251 184.15C168.501 183.8 168.701 183.5 168.901 183.1C169.801 181.55 170.351 179.75 170.451 177.85C170.551 176 170.701 174 170.901 171.85V171.75C170.901 171.6 170.901 171.5 170.951 171.35C171.101 171.35 171.301 171.3 171.551 171.2C172.351 170.95 173.651 170.35 175.051 168.75C175.551 168.15 176.101 167.45 176.601 166.55L176.001 168.1L175.851 168.5L172.501 177.55L170.151 183.85L169.951 184.45L170.001 184.5C170.001 184.55 170.851 186.25 172.901 188.4L173.251 188.75C173.401 188.85 173.501 189 173.651 189.1C174.301 189.75 175.101 190.35 176.001 191C176.301 191.2 176.651 191.45 176.951 191.65C177.251 191.85 177.551 192 177.851 192.2L178.901 192.8C180.151 193.35 181.151 193.8 182.251 194.15Z" fill="#3B82F6"/>
<path d="M181.75 153.65L176.95 166.6C174.55 170.65 171.95 171.3 171.25 171.4C172.05 162.75 173.95 152.25 178.7 143.35C178.9 143 179.1 142.65 179.25 142.3C179.5 141.8 179.8 141.35 180.05 140.8C180.25 144.55 180.65 148.65 181.25 152.95V153L181.3 153.05C181.25 153.05 181.45 153.25 181.75 153.65Z" fill="#8CB0DC"/>
<path d="M181.1 137.2C180.9 138.1 180.55 139.05 180.05 140.05C179.7 140.75 179.3 141.45 178.95 142.1L178.35 143.15C172.3 154.5 170.9 168.4 170.4 177.85C170.1 182.95 166.45 187.3 162.4 187.3C161.35 187.3 160.35 187.1 159.4 186.7C156.5 185.5 154.15 182.2 154.15 175.4C154.5 169.8 155.8 164.15 158 158.5L158.3 157.75C159.4 155 160.8 152.25 162.45 149.6C164.8 145.75 167.65 141.95 171.05 138.25C172.75 136.4 174.55 134.85 176.45 133.65C177 133.3 177.6 133 178.1 132.85C178.45 132.75 178.75 132.7 179.05 132.7C179.45 132.7 179.8 132.8 180.1 133C181.2 133.65 181.45 135.7 181.1 137.2Z" fill="#3B82F6"/>
<path d="M186.95 16.1001L186.8 15.9501C185.7 15.1001 184.6 14.2501 183.4 13.4501C182 12.4501 180.55 11.5001 179.05 10.6001C178.15 10.1001 177.3 9.55014 176.4 9.05014C177.25 8.20014 178.7 8.10014 180.75 8.75014C180.95 8.80014 181.15 8.90014 181.35 8.95014C181.95 9.20014 182.55 9.45014 183.05 9.70014H183.1C185.25 10.8001 186.7 12.1501 187.2 13.5501C187.45 14.4501 187.4 15.3001 186.95 16.1001Z" fill="#3B8EEC"/>
<path d="M143.7 126.45C143.45 126.6 143.25 126.7 143.05 126.8C135.3 130.8 125.6 130.2 118.05 125.3C114.75 123.15 111.75 121.5 109.15 120.4C109.8 119.9 110.45 119.35 111.15 118.85C111.2 118.8 111.3 118.75 111.35 118.7C111.6 118.5 111.85 118.3 112.05 118.1C113 117.3 114 116.4 115.25 116.25C117.15 116 119.25 116.9 121.25 117.8C122.05 118.15 122.8 118.5 123.55 118.75C126.65 119.85 129.8 120.65 132.85 121.2C134.95 121.55 137 121.65 138.75 121.7H138.9C140.1 121.75 141.5 121.75 142.5 122.5C143.65 123.4 144.05 124.65 143.7 126.45Z" fill="#EFF6FF"/>
<path d="M77.051 136C77.051 136.1 77.151 136.2 77.051 136.2C77.051 136.4 77.001 136.6 77.001 136.8C76.351 142.5 76.101 148 76.201 153.15C76.551 151.9 76.951 150.65 77.351 149.45C77.951 147.55 78.601 145.55 79.001 143.65C79.801 139.7 79.901 134.95 79.251 130.65C79.101 129.55 78.701 128.5 78.351 127.45C77.851 130.3 77.451 133.1 77.101 135.85C77.201 135.9 77.051 135.9 77.051 136Z" fill="#AACEFD"/>
<path d="M150.05 117.8C147.2 119.85 144.45 120.15 141.85 120.15H141.55C140 120.15 138.5 120 137 119.8C131.8 119 126.45 117.35 121.1 114.9C120.85 114.8 120.6 114.65 120.35 114.55C119.15 114 117.85 113.45 117 112.35C115.5 110.45 115.3 107.25 115.15 105.2C115.1 104.55 115.1 103.85 115.1 103.2C114.45 102.9 113.9 102.55 113.35 102.25C114.3 104.55 117.35 113.5 108.65 120.15C108.7 120.15 108.75 120.2 108.8 120.2C109.5 119.65 110.25 119.1 110.95 118.5L111.85 117.75C112.85 116.9 113.9 116 115.25 115.8C117.3 115.55 119.4 116.5 121.45 117.4C122.25 117.75 123 118.1 123.7 118.35C126.8 119.45 129.9 120.25 132.9 120.8C134.95 121.15 137.05 121.25 138.75 121.3H138.9C140.15 121.35 141.6 121.4 142.7 122.15C143.95 123.05 144.45 124.4 144.15 126.1C149.05 123.25 152.9 118.8 155.65 112.75C153.85 114.75 152 116.4 150.05 117.8Z" fill="black"/>
<path d="M42.0008 120.4C41.9508 120.45 41.9008 120.45 41.8008 120.5C40.9508 121 39.8008 121.45 38.5008 121.75C35.3008 122.55 31.3508 122.75 28.9008 122.6C28.5508 122.6 28.2508 122.55 28.0008 122.5C26.4508 121.65 25.7508 119.9 26.2008 118.1C26.8508 115.7 29.6008 113.15 35.5508 113.35L35.6508 114.1L35.8508 115.25C34.8008 115.25 33.6008 115.3 32.2008 115.4C32.1008 115.4 32.0008 115.5 32.0508 115.6C32.0508 115.7 32.1508 115.8 32.2508 115.75C36.0508 115.4 38.3008 115.65 39.6008 115.9C40.5008 116.1 40.9508 116.3 41.1508 116.45C40.7508 117.5 40.7508 118.45 41.2508 119.35C41.4508 119.8 41.7008 120.1 42.0008 120.4Z" fill="#3B8EEC"/>
<path d="M48.4996 88.5999C48.4996 95.7499 42.6996 101.55 35.5496 101.55C32.8496 101.55 30.3496 100.7 28.2496 99.2999C27.9496 99.0999 27.6496 98.8499 27.3496 98.5999C26.6996 98.0499 26.0996 97.4999 25.5496 96.8499C24.7996 95.9499 24.1496 94.9499 23.6996 93.8499C22.9996 92.2499 22.5996 90.4499 22.5996 88.5999C22.5996 81.4499 28.3996 75.6499 35.5496 75.6499C36.5496 75.6499 37.5496 75.7499 38.4996 75.9999C39.6496 76.2499 40.7496 76.6999 41.7996 77.2499C42.5496 77.6499 43.1996 78.1499 43.8496 78.6499C44.1496 78.8999 44.4496 79.1499 44.6996 79.4499C47.0496 81.7999 48.4996 85.0499 48.4996 88.5999Z" fill="#D9E9FF"/>
<path d="M55.4504 88.6002C55.4504 82.5002 52.7004 77.0502 48.4004 73.4002C48.3004 73.3502 48.2504 73.2502 48.1504 73.2002C45.2004 70.8002 41.5504 69.2002 37.5504 68.8002C36.9004 68.7502 36.2504 68.7002 35.5504 68.7002C24.5504 68.7002 15.6504 77.6502 15.6504 88.6002C15.6504 90.0002 15.8004 91.3502 16.0504 92.7002C16.5504 95.0502 17.4504 97.3002 18.7004 99.2502C21.3504 103.5 25.5504 106.6 30.5504 107.9C31.9504 108.25 33.4504 108.5 35.0004 108.5H35.1504L36.2504 115.25C39.5004 115.3 40.8504 115.85 41.3004 116.15C41.7004 115.3 42.3504 114.45 43.2004 113.7L42.1504 107.4L42.3504 107.3C50.2004 104.5 55.4504 96.9502 55.4504 88.6002ZM39.1504 101.45C38.0004 101.8 36.8004 101.95 35.5504 101.95C28.2004 101.95 22.2004 95.9502 22.2004 88.6002C22.2004 81.2502 28.2004 75.2502 35.5504 75.2502C40.6504 75.2502 45.0504 78.1002 47.3004 82.3002C48.3004 84.1502 48.9004 86.3002 48.9004 88.6002C48.9004 94.7002 44.7504 99.9002 39.1504 101.45Z" fill="#0D3F91"/>
<path d="M199.449 190.25L199.399 190.3L197.849 195.25C195.299 195.55 192.849 195.6 190.549 195.45C187.649 195.25 184.999 194.75 182.549 193.9C174.249 191.05 171.049 185.2 170.699 184.5L173.099 178.1C174.399 179.65 180.549 186.25 193.299 188.15C193.699 188.35 194.049 188.6 194.449 188.75C196.099 189.55 197.799 190.05 199.449 190.25Z" fill="#DBEAFE"/>
<path d="M215.799 169.25L215.599 170.2C214.049 176.85 212.299 184.4 206.449 188.25C204.699 189.4 202.649 189.95 200.549 189.95C198.799 189.95 196.949 189.5 195.149 188.7C194.349 188.35 193.599 187.9 192.799 187.45C191.999 186.95 191.349 186.4 190.849 185.85C190.799 185.8 190.749 185.75 190.749 185.7C190.399 185.25 190.099 184.8 189.899 184.35V184.3C189.699 183.75 189.599 183.2 189.649 182.6V182.45C189.799 181.35 190.249 180.55 191.049 180.1C191.399 179.9 191.799 179.8 192.199 179.7C192.199 179.65 192.149 179.55 192.149 179.5V179.35C191.899 179.4 191.649 179.45 191.449 179.55C191.349 179.3 191.199 178.85 191.099 178.35C190.699 176.9 190.199 174.5 191.549 173.3C192.649 172.3 194.299 172.45 195.699 172.65C195.699 172.6 195.749 172.6 195.749 172.55C195.799 172.45 195.849 172.4 195.899 172.3C195.449 172.25 194.999 172.2 194.549 172.2L194.399 170.9C194.299 169.5 194.399 168.2 194.999 167.2C196.549 164.65 199.299 165.2 201.999 165.75L202.749 165.9C204.899 166.3 207.049 166.35 209.099 166.2C209.249 166.1 209.399 165.95 209.549 165.8H209.199L211.849 158.6L212.699 156.35C212.699 156.4 212.749 156.4 212.799 156.45C213.799 157.55 217.499 162.05 215.799 169.25Z" fill="#3B8EEC"/>
<path d="M179.551 52.5501C184.801 60.2501 189.801 67.5501 194.351 77.1501C202.601 65.6501 205.751 51.4501 202.851 39.0501C200.701 30.0001 195.101 23.6001 189.651 18.8501C189.551 25.6501 188.151 41.4501 178.551 51.1501L179.551 52.5501Z" fill="#285CB2"/>
<path d="M221.15 121.5L227.4 123.9L238 127.95C237.8 126.15 238.05 124.75 238.75 123.85C239.2 123.3 239.7 123.05 240 122.95L218 117.35C217.5 117.55 217.15 117.85 217 118.25C216.7 118.9 216.95 119.65 217.05 119.9L221.15 121.5C221.15 121.45 221.15 121.45 221.15 121.5Z" fill="#6696D2"/>
<path d="M41.4999 127.5C40.8499 127.9 40.2499 128.2 39.3499 128.5C38.0499 128.95 36.1999 129.35 32.9499 130.1L31.6999 130.4C30.9999 130.55 30.3999 130.65 29.8499 130.65C27.4499 130.7 26.5499 129.55 26.2499 128.4C25.6499 126.25 26.8999 123.3 27.9499 122.9C28.1999 122.95 28.4499 122.95 28.7499 123C29.2999 123.05 29.9499 123.05 30.6499 123.05C32.5999 123.05 35.0499 122.9 37.2999 122.45C37.3499 122.45 37.3999 122.45 37.4499 122.4C38.5999 122.15 39.6999 121.85 40.6499 121.5C40.7999 121.45 40.8999 121.4 40.9999 121.35C42.1999 121.7 42.9499 122.6 43.1499 123.8C43.3999 125.25 42.7499 126.7 41.4999 127.5Z" fill="#3B8EEC"/>
<path d="M219.251 138C219.501 138.5 219.901 138.8 220.201 138.75C220.551 138.65 220.901 138 220.751 136.4C220.451 132.3 221.901 127 226.951 124.1L221.151 121.9C219.301 125 216.751 131.1 219.251 138Z" fill="#6696D2"/>
<path d="M239.101 124.1C238.451 124.95 238.201 126.3 238.451 128.1L238.551 128.15C240.751 126.3 240.501 124.2 240.251 123.35C240.001 123.4 239.501 123.55 239.101 124.1Z" fill="#93C5FD"/>
<path d="M212.949 154.55L208.749 165.8C206.849 165.9 204.799 165.85 202.799 165.5C202.749 165.5 202.699 165.5 202.649 165.45C202.449 165.4 202.249 165.4 202.049 165.35C199.399 164.8 196.349 164.2 194.649 167C193.799 168.4 193.849 170.3 194.099 172.2C193.149 172.25 192.199 172.55 191.449 173.3C189.499 175.1 190.649 178.55 191.049 179.7C190.999 179.75 190.899 179.75 190.849 179.8C189.949 180.3 189.399 181.2 189.249 182.4C189.049 184.3 190.149 186.1 192.399 187.6C179.849 185.45 174.049 178.8 173.199 177.65L186.049 143.1C189.349 146.15 195.799 150.85 205.999 153.3C208.149 153.85 210.449 154.25 212.949 154.55Z" fill="#6686AD"/>
<path d="M166.05 255.35C165.1 255.4 161.95 255.55 157.6 255.15C156 255 154.25 254.8 152.35 254.45C148.15 253.75 143.3 252.5 138.4 250.35C137.05 249.75 135.7 249.15 134.35 248.4V231.25C134.85 231.25 135.45 231.3 136.05 231.3C140.05 231.5 146.35 232.1 154.55 233.7C156.85 234.15 159.3 234.65 161.9 235.25C161.35 236.1 156.95 242.8 157.2 244.55C157.2 244.6 157.25 244.65 157.25 244.65C157.3 244.75 162.4 249.1 166.05 255.35ZM112.85 227.9C108.35 235.65 104.35 241.6 103.85 242.35C93.6996 242.8 85.7496 241.7 80.0496 240.35C75.2996 239.25 72.0996 237.95 70.4996 237.2L69.5996 236.75C74.1996 233.8 85.4496 230 85.5496 229.95L85.6496 229.9L88.3996 219.8C89.9996 220.3 91.5496 220.8 93.0496 221.3C97.0996 222.6 100.9 223.85 104.4 225C107.45 226.05 110.25 227 112.85 227.9Z" fill="#8CB0DC"/>
<path d="M189.3 18.6C189.2 25.15 187.95 41.2 178.3 50.95C172.15 45.7 166.4 41.55 161.2 38.3C150.15 31.45 141.3 28.5 135.15 27.3C130.4 26.35 126.7 26.35 124.1 26.55C122.1 26.7 120.75 27.05 120.15 27.2L120.7 26.05C125.65 15.5 132.35 0.999966 144.9 0.599966C149.85 0.449966 155.25 1.14997 160.2 2.64997C160.75 2.79997 161.3 2.99997 161.85 3.14997C165.65 4.39997 169.35 5.89997 172.8 7.64997C177.8 10.1 182.45 13 186.65 16.35C187.5 17.1 188.4 17.8 189.3 18.6Z" fill="#3B8EEC"/>
<path d="M88.6999 150.45V150.8C88.4999 154.25 88.3 157.85 86.9 161.1C85.75 163.8 82.9499 166.75 79.5999 166.5C78.2999 166.4 76.75 165.2 76.3 163.95C74.75 159.55 75.95 155.1 77.3 150.75C77.45 150.35 77.5499 149.95 77.6999 149.5C78.2999 147.6 78.9499 145.6 79.3499 143.7C80.15 139.7 80.2499 134.9 79.5999 130.55C79.3999 129.3 79 128.1 78.55 126.95L78.4499 126.6C77.8999 125 77.4 123.45 77.5 121.8C77.6 120.65 78.3999 119.35 79.6999 119.2L79.75 119.25C79.8 119.25 79.8499 119.25 79.8499 119.2H79.9499C81.3999 119.2 82.6 120.25 83.65 121.85C86.05 125.5 87.45 132.2 88 136.7C88.3 139.2 88.4999 141.4 88.5999 143.5C88.7999 146 88.7999 148.25 88.6999 150.45Z" fill="#3B82F6"/>
<path d="M218.499 115.5L217.899 117.05C217.299 117.25 216.899 117.65 216.699 118.1C216.349 118.9 216.649 119.8 216.749 120.05L209.949 137.6L209.899 137.65L214.249 150.95L213.049 154.15C210.549 153.85 208.249 153.45 206.099 152.9C195.899 150.4 189.449 145.65 186.199 142.7L186.899 140.85L199.949 133.85L199.999 133.8L210.749 112.1C212.399 112.7 214.249 113.5 216.199 114.4C216.499 114.55 216.849 114.7 217.149 114.85C217.599 115.05 218.049 115.25 218.499 115.5Z" fill="#DBEAFE"/>
<path d="M221.999 109.25L219.599 115.55L218.899 115.25L217.249 114.5C216.899 114.35 216.599 114.2 216.299 114.05C214.149 113.05 212.749 112.4 210.649 111.7L210.499 111.65C210.299 111.6 210.149 111.5 209.949 111.45L212.899 105.4L219.399 108.15L221.999 109.25Z" fill="#6696D2"/>
<path d="M76.1504 153.95C74.4004 160.35 75.9504 163.55 75.9504 163.55C66.6004 163.1 55.6504 156 55.6504 156C56.7504 154.55 57.9004 152.95 59.0004 151.35C60.5004 149.15 61.9504 146.9 63.1004 144.8C66.2504 139.1 68.1004 134.35 68.1004 134.35C69.7504 134.8 71.8004 135.2 73.5004 135.5C75.4004 135.8 76.9004 136 76.9004 136C75.4504 144.6 76.1504 153.95 76.1504 153.95Z" fill="#8CB0DC"/>
<path d="M177.251 166.8C176.951 167.3 176.651 167.75 176.351 168.2C174.051 171.35 171.851 171.75 171.201 171.85H171.051V171.5H171.251C171.951 171.4 174.551 170.75 176.951 166.7L177.251 166.8Z" fill="black"/>
<path d="M41.7992 77.25L25.5492 96.85C24.7992 95.95 24.1492 94.95 23.6992 93.85L38.4992 76C39.6492 76.25 40.7492 76.7 41.7992 77.25ZM45.3492 80.15L28.8992 100.05C28.5992 99.85 27.5992 98.9 27.2992 98.65L43.7992 78.7C44.1492 78.9 45.0992 79.9 45.3492 80.15Z" fill="#BFDBFE"/>
<path d="M183.051 9.75C183.051 9.75 185.401 12.05 183.351 13.25C183.401 13.4 183.451 13.55 183.451 13.7C184.301 14.25 186.151 15.45 186.951 16.1C188.001 15.85 188.401 11.9 183.051 9.75Z" fill="#285CB2"/>
<path d="M157.75 107.3C157.25 108.9 157.8 108.1 157.2 109.5C157.15 109.55 156.3 110.85 156.25 110.9C129.8 114.2 117.05 107.9 115.5 105.95C115.5 105.65 115.45 105.4 115.45 105.15C115.4 104.55 115.4 103.95 115.4 103.35C122.25 106.7 135.05 110.05 157.75 107.3ZM143.05 126.8C135.3 130.8 125.6 130.2 118.05 125.3C114.75 123.15 111.75 121.5 109.15 120.4C109.8 119.9 110.45 119.35 111.15 118.85C111.2 118.8 111.3 118.75 111.35 118.7C114.55 119.8 117.3 122 120.25 123.8C124.3 126.25 128.75 127.65 133.5 127.4C134.1 127.3 139.3 126.95 143.05 126.8Z" fill="#CECECE"/>
<path d="M48.1504 73.2002C45.0504 71.6502 34.1504 66.9502 25.0504 73.6502C14.3004 81.6002 15.5504 92.8502 18.6004 99.0502C18.6504 99.1002 18.6504 99.2002 18.7004 99.2502C17.4504 97.2502 16.5504 95.0502 16.0504 92.7002C15.8004 91.4002 15.6504 90.0002 15.6504 88.6002C15.6504 77.6002 24.6004 68.7002 35.5504 68.7002C36.2004 68.7002 36.9004 68.7502 37.5504 68.8002C41.5504 69.2002 45.2004 70.7502 48.1504 73.2002Z" fill="#185DB2"/>
<path d="M117.95 70.6001H117.85C119.85 71.6001 121.8 73.0001 122.7 75.1001C123.55 77.2001 124.4 80.6501 123.55 82.8501C122.6 85.3501 121.25 87.7501 118.95 89.2001C118.6 89.4001 118.2 89.6001 117.75 89.7501H117.95C119.15 89.7501 120.25 89.4501 121.25 88.9501C121.6 88.7501 126.25 86.4501 126.25 80.1501C126.25 74.9001 122.55 70.6001 117.95 70.6001Z" fill="#6D7D90"/>
<path d="M117.95 70.6501C117.8 70.6501 117.6 70.6001 117.4 70.6001C117.75 70.7001 118.05 70.9001 118.2 71.2001C121.05 72.5501 122.95 76.0501 122.95 80.2001C122.95 80.7001 122.9 81.1501 122.9 81.5501C123 81.7501 123.05 81.9501 123.05 82.1501C123.35 85.2501 121.35 88.0001 118.7 89.6001C119.25 89.4501 119.8 89.2501 120.3 88.9501C120.6 88.7501 124.85 86.4501 124.85 80.1501C124.85 75.1501 121.8 71.0501 117.95 70.6501Z" fill="#C5C9CF"/>
<path d="M158.849 86.7499C158.849 78.5499 153.649 71.8999 147.299 71.8999H147.199C149.349 72.7499 151.249 74.6999 152.699 76.3999C153.899 77.7999 154.499 79.3499 154.749 80.9999L154.899 81.4499C155.399 81.6999 155.849 82.1999 155.899 82.9499C155.999 83.8499 156.049 84.6999 156.049 85.5499C156.399 87.5499 156.549 89.5999 156.099 91.3499C155.899 92.1999 155.549 92.9499 155.199 93.6499C155.049 94.0999 154.999 94.5499 154.799 94.9999C154.499 95.7499 154.099 96.4499 153.649 97.1499L153.599 97.1999C154.549 97.1999 156.299 97.3999 156.299 97.3999C155.949 97.1999 155.149 96.9999 155.149 96.9999C157.349 94.2499 158.849 90.5999 158.849 86.7499Z" fill="#6D7D90"/>
<path d="M147.15 71.85C146.75 71.75 146.3 71.75 145.85 71.75C145.55 71.75 145.3 71.75 145 71.8C145.45 71.85 145.85 71.95 146.3 72.05C151.2 73.45 154.85 79.45 154.85 86.65C154.85 90.55 153.8 94.2 151.85 97V97.1H151.9C152.1 97.1 152.35 97.05 152.55 97.05H153.5C155.45 94.25 156.5 90.6 156.5 86.7C156.55 79.05 152.45 72.75 147.15 71.85Z" fill="#C5C9CF"/>
<path d="M118.9 77.25C116.35 77.25 114.25 79.8 114.25 82.95C114.25 86.1 117.2 88.65 119.45 89.2C120.55 88.6 123.7 86.1 123.5 84.65C124.55 80.2 121.45 77.25 118.9 77.25Z" fill="black"/>
<path d="M194.401 188.7C196.101 189.55 197.801 190.05 199.451 190.2L199.401 190.25L197.851 195.2C195.301 195.5 192.851 195.55 190.551 195.4C191.801 193.95 193.101 191.6 194.401 188.7Z" fill="#BAC4D1"/>
<path d="M206 153.3C208.15 153.8 210.45 154.25 212.9 154.55L208.7 165.8C206.8 165.9 204.75 165.85 202.75 165.5C202.7 165.5 202.65 165.5 202.6 165.45C204.5 159.2 205.75 154.3 206 153.3Z" fill="#526D99"/>
<path d="M217.15 114.85L218.5 115.45L217.9 117C217.3 117.2 216.9 117.6 216.7 118.05C216.35 118.85 216.65 119.75 216.75 120L209.95 137.55L209.9 137.6L214.25 150.9L213.05 154.1C210.55 153.8 208.25 153.4 206.1 152.85C207.75 144.2 206.15 137.15 206.15 137.15L216.2 114.3C216.5 114.55 216.85 114.7 217.15 114.85Z" fill="#BAC4D1"/>
<path d="M222.001 109.25L219.601 115.55L218.901 115.25L217.251 114.5C216.901 114.35 216.601 114.2 216.301 114.05C218.051 112.35 218.951 110.15 219.351 108.15L222.001 109.25ZM218.201 120.55C218.201 120.55 219.301 117.9 221.451 118.25L218.501 117.2C218.501 117.2 215.951 117.05 216.951 119.95L218.201 120.55Z" fill="#93C5FD"/>
<path d="M181.25 153.05C181.25 153.05 181.45 153.25 181.7 153.65L176.9 166.6C174.5 170.65 171.9 171.3 171.2 171.4C172 162.75 173.9 152.25 178.65 143.35C178.85 143 179.05 142.65 179.2 142.3C179.45 141.8 179.75 141.35 180 140.8C180.2 144.55 180.6 148.65 181.2 152.95L181.25 153.05ZM194.15 77.5502C192.2 88.9502 189.2 96.9002 186.55 103.95C183.2 112.8 180.35 120.4 179.95 132.5C179.4 132.25 178.7 132.2 177.95 132.45C177.4 132.6 176.8 132.9 176.15 133.3C174.5 134.35 172.85 135.7 171.35 137.3C176.4 100.35 186.6 98.8002 189.2 68.2002C190.9 71.1002 192.55 74.2002 194.15 77.5502ZM166.05 255.35C165.1 255.4 161.95 255.55 157.6 255.15C156 255 154.25 254.8 152.35 254.45C150.7 252.1 149.4 249.55 149.2 246.8C148.8 241.95 152.25 237.65 154.55 233.7C156.85 234.15 159.3 234.65 161.9 235.25C161.35 236.1 156.95 242.8 157.2 244.55C157.2 244.6 157.25 244.65 157.25 244.65C157.3 244.75 162.4 249.1 166.05 255.35Z" fill="#6D7D90"/>
<path d="M182.25 194.15C178.4 206.5 171.6 220.2 162.1 234.95C159.5 234.35 157.05 233.8 154.75 233.35C155.25 233.45 158.55 227.45 159.05 226.65C160.5 224.25 161.95 221.85 163.3 219.4C165.95 214.6 168.4 209.65 170.55 204.6C171.85 201.6 173 198.55 174.15 195.5C171.65 193.6 169.8 191.35 168.25 188.6C165.05 189.4 160.95 188.55 159.7 187.3C159.75 187.3 160.2 187.35 160.7 187.45C161.4 187.55 162.2 187.65 162.35 187.65H162.85C163 187.65 163.15 187.6 163.3 187.6C163.5 187.55 163.7 187.55 163.9 187.45C164.05 187.4 164.2 187.4 164.3 187.35C164.45 187.3 164.6 187.25 164.75 187.15C164.9 187.1 165.05 187 165.2 186.95C165.5 186.8 165.8 186.6 166.1 186.4C166.45 186.15 166.85 185.85 167.15 185.55L167.45 185.25C167.55 185.15 167.65 185 167.8 184.9C168 184.65 168.25 184.4 168.4 184.15C168.65 183.8 168.85 183.5 169.05 183.1C169.95 181.55 170.5 179.75 170.6 177.85C170.7 176 170.85 174 171.05 171.85C171.25 171.65 171.5 171.45 171.7 171.25C172.5 171 173.8 170.4 175.2 168.8C175.5 168.7 175.75 168.65 176.05 168.6L172.7 177.65L170.35 183.95L170.15 184.55L170.2 184.6C170.2 184.65 171.05 186.35 173.1 188.5L173.45 188.85C173.6 188.95 173.7 189.1 173.85 189.2C174.5 189.85 175.3 190.45 176.2 191.1C176.5 191.3 176.85 191.55 177.15 191.75C177.45 191.95 177.75 192.1 178.05 192.3L179.1 192.9C180.15 193.35 181.15 193.8 182.25 194.15Z" fill="#1851AD"/>
<path d="M80.0508 240.4C80.9508 240.5 81.8508 240.55 82.7008 240.5L82.3008 240.85L80.0508 240.4ZM112.851 227.9C108.351 235.65 104.351 241.6 103.851 242.35C95.2508 242.7 88.2508 242 82.8508 240.95C87.4508 240.5 92.1508 239.95 96.3008 237.9C100.601 235.75 103.651 232 106.051 227.95C106.451 227.3 106.801 226.65 107.201 226C109.201 226.65 111.101 227.3 112.851 227.9Z" fill="#6D7D90"/>
<path d="M119 216.7C117.05 220.45 115 224.2 113 227.6C111.25 227 109.35 226.35 107.4 225.7C109.5 221.9 111.3 217.95 112.45 213.75C114.5 214.9 116.75 215.9 119 216.7Z" fill="#1851AD"/>
<path d="M115.351 214.8C114.301 214.3 113.301 213.8 112.301 213.2L115.351 214.8ZM119.051 216.3C117.801 215.85 116.601 215.4 115.401 214.8C116.701 215.4 117.951 215.9 119.051 216.3Z" fill="#6D7D90"/>
<path d="M82.3504 240.85C82.5004 240.9 82.7004 240.9 82.8504 240.95C82.6004 240.95 82.4004 241 82.1504 241L82.3504 240.85Z" fill="#1851AD"/>
<path d="M162.349 176.3C160.499 176.3 158.949 177.8 158.949 179.7C158.949 181.55 160.449 183.1 162.349 183.1C164.199 183.1 165.749 181.6 165.749 179.7C165.749 177.8 164.249 176.3 162.349 176.3ZM161.849 181C161.599 181.25 161.249 181.25 160.999 181C160.749 180.75 160.749 180.4 160.999 180.15C161.249 179.9 161.599 179.9 161.849 180.15C162.099 180.4 162.099 180.8 161.849 181ZM161.849 179.15C161.599 179.4 161.249 179.4 160.999 179.15C160.749 178.9 160.749 178.55 160.999 178.3C161.249 178.05 161.599 178.05 161.849 178.3C162.099 178.55 162.099 178.9 161.849 179.15ZM163.699 181C163.449 181.25 163.099 181.25 162.849 181C162.599 180.75 162.599 180.4 162.849 180.15C163.099 179.9 163.449 179.9 163.699 180.15C163.949 180.4 163.949 180.8 163.699 181ZM163.699 179.15C163.449 179.4 163.099 179.4 162.849 179.15C162.599 178.9 162.599 178.55 162.849 178.3C163.099 178.05 163.449 178.05 163.699 178.3C163.949 178.55 163.949 178.9 163.699 179.15ZM81.0993 157.05C79.4993 156.85 78.0493 157.95 77.6993 159.5C77.3493 161.05 78.1993 162.7 79.7493 163.15C81.3993 163.65 83.1993 162.6 83.5993 160.8C83.9493 159 82.7993 157.3 81.0993 157.05ZM79.6993 161.2C79.4493 161.35 79.1493 161.3 78.9993 161C78.8493 160.75 78.9493 160.4 79.1493 160.25C79.3993 160.1 79.6993 160.15 79.8493 160.4C79.9993 160.75 79.9493 161.05 79.6993 161.2ZM80.0493 159.55C79.7993 159.7 79.4993 159.65 79.3493 159.4C79.1993 159.15 79.2993 158.85 79.4993 158.65C79.7493 158.5 80.0493 158.55 80.1993 158.8C80.3993 159.05 80.2993 159.4 80.0493 159.55ZM81.3493 161.65C81.0993 161.8 80.7493 161.7 80.5993 161.45C80.4493 161.2 80.4993 160.85 80.7493 160.7C80.9993 160.55 81.3493 160.6 81.4993 160.9C81.6993 161.1 81.5993 161.45 81.3493 161.65ZM81.6993 159.9C81.4493 160.05 81.0993 160 80.9493 159.75C80.7993 159.5 80.8493 159.15 81.0993 159C81.3493 158.85 81.6993 158.9 81.8493 159.15C82.0493 159.4 81.9993 159.75 81.6993 159.9Z" fill="#0D3D8C"/>
<path d="M160.6 38.0499C166.1 41.3499 171.75 45.5499 178.35 51.1499C169 54.2999 158.3 53.2999 158.7 52.9999C153.2 52.6499 146.3 50.1999 138.05 47.0499C131.4 44.4999 122.85 41.4499 116.15 39.7999C137.3 32.8999 154.75 36.3999 160.6 38.0499Z" fill="#2C75CE"/>
<path d="M189.3 18.5001C189.2 25.0501 187.95 41.1001 178.3 50.8501C172.15 45.6001 165.4 41.3001 160.15 38.0501C170.65 31.5001 175.5 14.8001 176.4 9.1001C181.4 11.5501 182.4 12.9501 186.65 16.3001C187.5 17.0001 188.4 17.7501 189.3 18.5001Z" fill="#2C75CE"/>
<path d="M152.701 203.3C152.551 204.1 152.051 204.3 151.351 204.2C150.751 204.1 150.101 204.15 149.501 204C147.751 203.65 146.101 203.15 144.601 202.25C143.651 201.65 142.801 200.9 142.101 200.05C140.501 197.95 139.401 195.15 139.201 192.45C139.001 189.55 139.751 186.65 141.401 184.25C142.201 183.1 143.251 181.7 144.451 180.9V181.1C144.451 181.25 144.101 181.6 144.001 181.7C143.801 181.95 143.651 182.2 143.501 182.45C142.001 184.8 141.001 187.55 141.001 190.35C141.001 193.85 142.501 197 145.701 198.45C147.001 199.05 148.301 199.45 149.651 199.95C150.901 200.55 153.001 201.5 152.701 203.3ZM89.0508 143.85C88.7508 150.1 89.0008 154.4 88.2008 157.7C85.7508 167.5 79.5508 166.9 79.5508 166.9C93.0508 168.15 91.7508 147.8 91.7508 147.8C91.7508 147.8 106.701 153.4 123.451 154.45C123.451 154.5 107.501 151.95 89.0508 143.85Z" fill="#1851AD"/>
<path d="M76.1504 153.95C74.4004 160.35 75.9504 163.55 75.9504 163.55C66.6004 163.1 55.6504 156 55.6504 156C56.7504 154.55 57.9004 152.95 59.0004 151.35C62.0004 153.1 65.1504 154.45 68.0504 154.1C72.4004 153.6 72.0004 148.3 72.2504 145.05C72.4504 142.1 72.6504 138.6 73.5004 135.55C75.4004 135.85 76.9004 136.05 76.9004 136.05C75.4504 144.6 76.1504 153.95 76.1504 153.95Z" fill="#6D7D90"/>
<path d="M51.8 146.45C51.1 145.95 50.4 145.35 49.75 144.8C48.7 143.85 47.4 142.8 47.1 141.35C46.75 139.65 48.05 138.15 48.4 136.55C48.8 134.8 48.05 133.1 47.6 131.4C47.2 129.75 46.85 128.05 46.9 126.35C47 124.9 47.5 123.65 48.35 122.55C48.75 122.05 49.2 121.55 49.65 121.1C50.1 120.65 50.55 119.8 51.05 119.45C51.05 119.45 46.95 122.3 44.55 121.5L46.9 137.35C46.9 137.35 46.45 138.9 44.75 140.5L44.85 140.6C44.35 140.85 43.8 141 43.25 141C42.6 141 42 140.85 41.4 140.55C40 139.8 39.75 138.4 39.5 137.1C39.5 137 39.45 136.9 39.45 136.8C38.95 137.05 38.4 137.3 37.75 137.55C36 138.3 34.5 138.65 33.25 138.7C33.8 140.05 34.95 141 35.8 141.6C36.7 142.2 37.7 142.6 38.65 143C39.95 143.5 41.25 144.05 42.35 145.05C42.45 145.15 47.5 150.8 55.55 155.85C56.7 154.3 57.75 152.8 58.75 151.35C57 150.3 55.4 149.15 53.75 148C53.15 147.4 52.45 146.95 51.8 146.45ZM215.8 169.25L215.6 170.2C214.05 176.85 212.3 184.4 206.45 188.25C204.7 189.4 202.65 189.95 200.55 189.95C198.35 189.7 196.6 189.25 195.15 188.7C193.05 187.9 191.7 186.85 190.85 185.85C190.8 185.8 190.75 185.75 190.75 185.7C190.4 185.25 190.1 184.75 189.9 184.35V184.3C189.4 183.15 189.4 182.3 189.4 182.3C189.45 182.4 189.55 182.5 189.6 182.65C191.9 185.95 198 188.2 201.6 187.4C205.3 186.55 206.35 182.35 206.35 182.35C201.6 182.3 198.35 180.65 198.35 180.65C195.5 179.4 193.3 179.4 192.15 179.5C191.55 179.55 191.25 179.65 191.25 179.65L191.05 178.35C195.05 177.5 201.6 180.75 205.2 179.65C206.95 179.15 207.25 175.8 207.25 175.8C205.35 175.25 198.5 173.3 195.7 172.5C194.95 172.3 194.5 172.15 194.5 172.15L194.35 170.85H194.6C198.4 169.9 208.95 177.05 211.15 170.9C211.85 169 212.6 165.6 212.6 165.6L209.45 165.75L208.7 165.8L211.8 158.6L212.7 156.45C213.8 157.55 217.5 162.05 215.8 169.25ZM37.5 122.4L36.9 122.6L37.35 122.45C37.4 122.4 37.45 122.4 37.5 122.4ZM41.8 120.55C40.95 121.05 36.85 122.25 35.55 122.55C40.95 121.05 39.2 117.65 39.35 116.65C39.55 115.25 39.6 116 39.6 116C40.5 116.2 40.95 116.4 41.15 116.55C40.75 117.6 40.75 118.55 41.25 119.45C41.45 119.85 41.7 120.15 42 120.45C41.95 120.45 41.85 120.5 41.8 120.55Z" fill="#2C75CE"/>
<path d="M41.0492 121.35C42.2492 121.7 42.9992 122.6 43.1992 123.8C43.3992 125.25 42.7492 126.7 41.5492 127.5C40.8992 127.9 36.7992 129.3 35.9492 129.6C45.2992 125.45 40.7492 122.25 40.1992 121.45C40.2992 121.45 40.8992 121.4 41.0492 121.35ZM44.6492 131C44.6492 131.4 44.5992 131.9 44.2992 132.45C43.6492 133.75 41.8492 135.35 37.6992 137.1C37.4992 137.15 37.3492 137.25 37.1492 137.3H37.0492C47.5992 131.35 40.7492 128.6 40.4992 128.45C40.6992 128.35 41.4492 127.95 41.6492 127.85C43.0992 128.35 44.5492 129.55 44.6492 131Z" fill="#2C75CE"/>
<path d="M180.55 132.95C179.2 131.55 176.9 132.65 175.65 133.6C174.55 134.4 173.65 135.35 172.8 136.4C172.5 136.75 172.1 136.95 171.8 137.25C171.1 137.95 171.1 139.25 171 140.15C170.2 147.25 168.95 154.3 168.85 161.5C168.8 165.25 169.05 169 169.05 172.75C169.05 173.85 169.05 174.95 169 176C168.85 179.2 168.1 182.6 165.8 184.9C165.05 185.65 164.2 186.15 163.3 186.65C162.9 186.9 162.4 187.3 161.9 187.3C163.65 187.5 165.15 187.3 166.6 186.2C169.25 184.2 170.1 180.95 170.5 177.8C170.8 175.55 171 173.3 171.2 171.1C171.95 163.65 172.95 156 175.85 149.05C177.15 145.95 178.75 143.05 180 139.95C180.1 139.7 180.2 139.4 180.35 139.1C180.9 137.55 182.1 134.5 180.55 132.95Z" fill="#1851AD"/>
<path d="M46.5496 134.7C46.8996 136.7 47.1496 138.3 45.4996 139.8C44.4496 140.7 42.8996 140.85 41.6496 140.15C40.3996 139.45 40.1996 138.25 39.9496 136.95C39.9496 136.8 39.8996 136.65 39.8996 136.55C44.1996 134.35 45.0996 132.35 45.0496 131C44.9496 129.4 43.4996 128.15 42.0496 127.65C43.2496 126.75 43.8496 125.25 43.5996 123.8C43.3996 122.6 42.6496 121.6 41.5496 121.15L42.2996 120.7C42.8996 121.2 43.6496 121.55 44.4996 121.65C44.8496 123.7 45.1496 125.75 45.4996 127.8L46.5496 134.25V134.7ZM30.5996 107.9C31.9996 108.25 33.4996 108.45 34.9996 108.5H35.1496L36.2496 115.25C39.4996 115.3 40.8496 115.85 41.2996 116.15C41.6996 115.3 42.3496 114.45 43.1996 113.7L42.1496 107.4L42.3496 107.3C50.1996 104.45 55.4996 96.9 55.4996 88.55C55.4996 86.7 55.2496 84.95 54.7496 83.25C53.0996 90.85 49.1496 106.35 30.5996 107.9Z" fill="#092D68"/>
<path d="M88.4504 219.85C90.0504 220.35 91.6004 220.85 93.1004 221.35C90.7004 227.7 89.0004 233.1 89.0004 233.1C80.9504 233.65 72.1504 236.65 70.5504 237.2L69.6504 236.75C74.2504 233.8 85.5004 230 85.6004 229.95L85.7004 229.9L88.4504 219.85Z" fill="#AACEFD"/>
<path d="M136 230.95C135.4 230.9 134.85 230.9 134.35 230.9V219.6C134.6 219.55 134.95 219.45 135.15 219.9C135.15 219.85 135.45 224.65 136 230.95Z" fill="#60A5FA"/>
<path d="M138.4 250.35C137.05 249.75 135.7 249.15 134.35 248.4V231.25C134.85 231.25 135.45 231.3 136.05 231.3C136.6 237.35 137.4 244.65 138.4 250.35Z" fill="#AACEFD"/>
<path d="M102.85 168C98.7003 165.65 98.2003 167.65 98.2003 167.65C97.8503 168.95 97.2503 170 97.1503 171.4C97.0003 172.95 97.1003 174.55 97.3003 176.1C97.6503 179.05 98.4003 182 99.3003 184.8C99.7003 179.5 96.6503 172.75 100.25 170.4L100.3 170.35L100.35 170.3C102.35 168.95 105.55 170.4 107.7 170.75C108.95 170.95 110.2 171.05 111.45 171.15C112.45 171.2 113.75 171 114.7 171.3C114.5 171.25 114.25 171.15 114.05 171.1" fill="#60A5FA"/>
<path d="M29.9007 130.65C27.5007 130.7 26.6007 129.55 26.3007 128.4C25.7007 126.25 26.9507 123.3 28.0007 122.9C28.2507 122.95 28.5007 122.95 28.8007 123C28.2507 124.35 26.3007 129.25 29.9007 130.65ZM34.8507 138.05C33.3507 138.4 32.1507 138.3 31.2007 137.8C31.0507 137.7 30.8507 137.6 30.7007 137.5C28.6007 135.8 29.2007 131.75 29.3007 131.05C29.4507 131.05 29.5507 131.1 29.7007 131.1C30.0507 131.1 30.4507 131.05 30.9007 131C30.9007 130.9 29.0007 138.45 34.8507 138.05ZM26.2007 118.15C26.8507 115.75 29.6007 113.2 35.5507 113.4C35.5507 113.4 23.4007 115.1 28.9007 122.6C28.5507 122.6 28.2507 122.55 28.0007 122.5C26.4507 121.7 25.7007 119.9 26.2007 118.15ZM55.0507 112.6C54.7007 111.4 54.1007 110.4 52.9507 109.85C50.5007 108.65 47.1007 111.25 44.9007 112.95C44.6007 113.15 44.3507 113.35 44.1007 113.55C41.9507 115.15 40.1507 118.15 42.5507 120.4C42.0507 119.4 41.7507 118.4 42.1507 117.3C42.6007 116.2 43.5007 115.45 44.4007 114.7C46.4507 113.1 49.3007 110.8 52.1007 111.2C52.8507 111.3 53.6007 111.75 54.1507 112.35C54.7007 112.95 55.0507 113.7 55.3507 114.45C55.1507 113.9 55.2007 113.15 55.0507 112.6Z" fill="#76B3FF"/>
<path d="M160.1 186.8C160.1 186.8 159.8 186.8 159.35 186.75C156.45 185.55 154.1 182.25 154.1 175.45C154.45 169.85 155.75 164.2 157.95 158.55L158.25 157.8C159.35 155.05 160.75 152.3 162.4 149.65C159.3 156.85 151 178.75 160.1 186.8ZM77.9 168.2C77.85 168.25 77.8 168.3 77.75 168.4C80.25 180.95 85.7 191.3 94 199.15L94.1 199.2V199.3L92.85 203.8L88.55 219.5C90.15 220 91.7 220.5 93.2 221C95.7 214.45 98.15 205.95 100.7 200.6C81.35 186.35 77.9 168.2 77.9 168.2Z" fill="#60A5FA"/>
<path d="M107.901 46.9999C107.901 46.9999 86.4008 93.8999 82.5508 120C81.8008 119.35 80.9508 118.95 80.0508 118.9C84.2008 100.35 91.5508 79.6499 101.951 57.3999C102.551 56.0999 103.201 54.7999 103.851 53.5999C104.801 51.8499 105.701 50.2999 106.601 48.8999C106.751 49.0499 107.801 46.7999 107.901 46.9999Z" fill="#AACEFD"/>
<path d="M119.8 27.6502C119.8 27.6502 122.4 26.4502 126.95 26.4502C121.8 28.2002 102.7 33.9002 96.6 39.4002C95.8 39.7502 95.05 40.1502 94.3 40.6502C92.45 41.9002 91.35 43.1502 91 44.4002C91 43.9502 91.1 43.3502 91.35 42.7002C92.85 39.1002 99 33.6502 119.8 27.6502Z" fill="#76B3FF"/>
<path d="M160.15 2.70016C142.3 0.00016284 134.65 4.70016 124.1 26.5502C122.1 26.7002 120.75 27.0502 120.15 27.2002L120.7 26.0502C125.65 15.5002 132.35 1.00016 144.9 0.600163C149.8 0.500163 155.15 1.25016 160.15 2.70016ZM180.75 8.80016C180 9.30016 179.3 9.90016 179.05 10.6502C178.15 10.1502 177.3 9.60016 176.4 9.10016C177.25 8.25016 178.7 8.15016 180.75 8.80016ZM206.9 166.25C199.6 167.1 196.55 163.65 194.1 170.85C194.1 170.85 193.5 163.1 202.4 165.65C202.35 165.6 204.75 166.3 206.9 166.25ZM190.75 178C190.65 177.45 191.1 176.4 191.3 175.9C191.55 175.25 191.95 174.65 192.5 174.25C194 173.15 196.1 173.55 197.75 173.85C199.75 174.15 201.7 174.9 203.75 174.95C201.85 174.3 199.95 173.6 198.05 173C196.2 172.45 194.25 172.1 192.5 173.15C191.75 173.6 191.05 174.25 190.7 175.05C190.3 176 190.55 177.05 190.75 178ZM199.25 180.95C197.85 180.35 196.45 179.9 195 179.6C193.75 179.35 192.2 179 191.05 179.65C189.95 180.2 189.55 181.45 189.45 182.6C189.8 182.65 190.05 182.2 190.25 182C192.15 179.9 195.05 180.45 197.45 181C197.95 181.1 198.45 181.25 199 181.3C199.4 181.35 199.75 181.3 200.1 181.4C199.85 181.2 199.55 181.05 199.25 180.95Z" fill="#76B3FF"/>
<path d="M78.5004 127C78.9504 128.3 79.3504 129.65 79.6004 131.05C79.9504 132.95 80.0504 134.85 80.0504 136.75C80.0504 139.1 79.8004 141.45 79.3004 143.7C78.9004 145.6 78.2504 147.6 77.6504 149.5C77.3004 150.55 77.0004 151.6 76.6504 152.65C76.9004 151.9 77.8004 151.05 78.2004 150.4C78.7004 149.5 79.2004 148.6 79.5504 147.65C80.4004 145.6 80.9004 143.5 81.2004 141.3C81.8504 136.6 81.5004 131.55 79.9004 127.1C78.9004 124.4 77.3504 119.8 81.8504 119.85C80.5004 119.45 79.0004 118.75 78.0004 120.2C76.7504 122.1 77.9004 125.05 78.5004 127Z" fill="#60A5FA"/>
<path d="M76.0008 154.5H75.6508C75.4508 148.95 75.7008 143 76.4508 136.75C76.8008 133.45 77.3008 130.05 77.9508 126.65C78.0008 126.45 78.2008 126.3 78.4008 126.35C78.6008 126.4 78.7508 126.6 78.7008 126.8C78.1008 130.2 77.6008 133.6 77.2008 136.85C76.5008 143.05 76.2508 149 76.4008 154.5H76.0008ZM99.3508 243C79.3008 243 69.1508 237.15 69.0508 237.1L68.5508 236.8L69.0508 236.45C73.3008 233.65 83.6508 230 85.2008 229.5L93.5008 199.35C84.6508 190.9 79.0008 179.6 76.7508 165.8C76.7008 165.6 76.8508 165.4 77.0508 165.35C77.2508 165.3 77.4508 165.45 77.5008 165.65C79.7508 179.35 85.3508 190.55 94.2008 198.9L94.3508 199.05L94.3008 199.25L85.8508 230L85.6508 230.05C85.5508 230.1 74.7508 233.75 70.0008 236.65C72.5508 237.9 83.8508 242.9 103.751 242.05C104.751 240.55 112.651 228.6 118.951 216.3C119.051 216.1 119.251 216.05 119.451 216.15C119.651 216.25 119.701 216.45 119.601 216.65C112.901 229.8 104.351 242.55 104.251 242.65L104.151 242.8H103.951C102.401 243 100.851 243 99.3508 243ZM79.8008 119.5C79.6008 119.5 79.4508 119.35 79.4508 119.15V119C83.6008 100.35 91.0008 79.55 101.451 57.15C102.051 55.85 102.701 54.55 103.351 53.35C108.801 43.2 113.951 39.25 114.151 39.1C114.301 39 114.551 39 114.651 39.15C114.751 39.3 114.751 39.55 114.601 39.65C114.551 39.7 109.351 43.65 104.001 53.65C103.351 54.85 102.701 56.15 102.101 57.45C91.7008 79.75 84.3008 100.5 80.1508 119.1V119.15C80.1508 119.35 80.0008 119.5 79.8008 119.5ZM158.051 158.1C122.701 158 99.4008 149.15 88.7008 143.9C88.5008 143.8 88.4508 143.6 88.5508 143.4C88.6508 143.2 88.8508 143.15 89.0508 143.25C99.7008 148.5 122.901 157.25 158.101 157.4C158.301 157.4 158.451 157.55 158.451 157.8C158.451 157.9 158.251 158.1 158.051 158.1Z" fill="black"/>
<path d="M76.8502 136.35H76.8002C73.5502 135.9 70.6502 135.35 68.0002 134.7C56.3502 131.9 56.0002 128.35 56.0502 127.65C55.4502 124.9 55.1502 121.35 55.2002 116.7C55.2502 114 55.1002 111.05 52.8502 109.95C50.5002 108.8 47.2002 111.35 45.0002 113.05C44.7002 113.25 44.4502 113.45 44.2002 113.65C44.0502 113.75 43.8502 113.9 43.7002 114.05C42.8002 114.85 42.1002 115.7 41.7502 116.55C41.3502 117.5 41.3502 118.35 41.8002 119.1C42.0002 119.5 42.3002 119.85 42.6002 120.15C43.1502 120.7 43.9002 121 44.7502 121.1C46.9502 121.35 49.4502 120.2 50.8502 119C51.0002 118.85 51.2502 118.9 51.4002 119.05C51.5502 119.2 51.5002 119.45 51.3502 119.6C49.8002 120.95 47.1002 122.15 44.7002 121.85C43.7002 121.75 42.8002 121.35 42.1502 120.7C41.8002 120.35 41.4502 119.95 41.2002 119.45C40.6502 118.5 40.6502 117.4 41.1502 116.25C41.5502 115.3 42.3002 114.3 43.3002 113.5C43.5002 113.35 43.7002 113.2 43.8502 113.05C44.1002 112.9 44.3502 112.7 44.6502 112.45C47.0002 110.65 50.5502 107.95 53.3002 109.3C56.1502 110.7 56.1002 114.5 56.0502 116.75C56.0002 121.35 56.2502 124.9 56.8502 127.55V127.65C56.8502 127.7 56.7002 131.15 68.2502 133.95C70.9002 134.6 73.7502 135.1 77.0002 135.55C77.2002 135.6 77.3502 135.75 77.3002 135.95C77.2002 136.25 77.0002 136.35 76.8502 136.35Z" fill="black"/>
<path d="M30.65 123.25C29.5 123.25 28.5 123.2 27.85 123.1L27.75 123.05C25.95 122.1 25.1 120.05 25.65 118C26.35 115.4 29.3 112.65 35.55 112.85C35.75 112.85 35.9 113.05 35.9 113.25C35.9 113.45 35.75 113.6 35.5 113.6C29.7 113.4 26.95 115.85 26.35 118.2C25.9 119.9 26.55 121.55 28 122.35C31.2 122.8 39 122.3 42 120.15C42.15 120.05 42.4 120.05 42.5 120.25C42.6 120.4 42.6 120.65 42.4 120.75C39.9 122.6 34.4 123.25 30.65 123.25ZM38.4 129.4C38.2 129.4 38.05 129.25 38.05 129.05C38.05 128.85 38.2 128.7 38.4 128.7C38.6 128.7 38.75 128.85 38.75 129.05C38.75 129.2 38.6 129.4 38.4 129.4ZM43.3 141.1C42.65 141.1 41.95 140.95 41.35 140.6C39.85 139.8 39.6 138.4 39.35 137C39.3 136.8 39.3 136.65 39.25 136.45C39.2 136.25 39.35 136.05 39.55 136C39.75 135.95 39.95 136.1 40 136.3C40.05 136.5 40.05 136.65 40.1 136.85C40.35 138.15 40.55 139.25 41.7 139.9C42.85 140.55 44.4 140.4 45.35 139.55C46.95 138.15 46.7 136.7 46.35 134.65L46.3 134.2C45.95 132.05 45.6 129.9 45.25 127.7C44.9 125.6 44.6 123.55 44.25 121.45C44.2 121.25 44.35 121.05 44.55 121C44.75 120.95 44.95 121.1 45 121.3C45.35 123.4 45.65 125.45 46 127.55C46.35 129.7 46.7 131.85 47.05 134.05L47.1 134.5C47.45 136.6 47.75 138.4 45.85 140.1C45.15 140.8 44.25 141.1 43.3 141.1Z" fill="black"/>
<path d="M36.0996 115.85C35.8996 115.85 35.7496 115.7 35.7496 115.55L35.4996 114.2L34.6996 109.1C23.6996 108.65 15.0996 99.6999 15.0996 88.6499C15.0996 77.3499 24.2996 68.1499 35.5996 68.1499C46.8996 68.1499 56.0996 77.3499 56.0996 88.6499C56.0996 97.1499 50.7996 104.85 42.8496 107.8L43.8496 113.75C43.8996 113.95 43.7496 114.15 43.5496 114.2C43.3496 114.25 43.1496 114.1 43.0996 113.9L41.9996 107.35L42.3496 107.2C50.1496 104.35 55.3496 96.8999 55.3496 88.6499C55.3496 77.7499 46.4996 68.8999 35.5996 68.8999C24.6996 68.8999 15.8496 77.7499 15.8496 88.6499C15.8496 99.4499 24.2996 108.1 35.0496 108.35H35.3496L36.4996 115.4C36.5496 115.6 36.3996 115.8 36.1996 115.85H36.0996Z" fill="black"/>
<path d="M35.55 102.15C28.1 102.15 22 96.0998 22 88.5998C22 81.1498 28.05 75.0498 35.55 75.0498C43.05 75.0498 49.1 81.0998 49.1 88.5998C49.05 96.0498 43 102.15 35.55 102.15ZM35.55 75.8498C28.5 75.8498 22.75 81.5998 22.75 88.6498C22.75 95.6998 28.5 101.45 35.55 101.45C42.6 101.45 48.35 95.6998 48.35 88.6498C48.35 81.5498 42.6 75.8498 35.55 75.8498ZM162.5 187.9C162.1 187.9 161.7 187.85 161.3 187.8C158.65 187.3 156.65 185.9 155.35 183.65C150.95 175.8 156.7 160.1 157.4 158.3C157.5 158.05 157.6 157.8 157.7 157.5C160.45 150.75 164.8 144.1 170.55 137.8C172.25 135.9 174.1 134.35 176.05 133.1C176.65 132.7 177.3 132.4 177.85 132.25C178.8 131.95 179.6 132.05 180.25 132.45C181.65 133.35 182 135.55 181.55 137.3C181.35 138.25 180.95 139.2 180.45 140.25C180.1 140.95 179.7 141.65 179.35 142.35C179.15 142.7 178.95 143.05 178.8 143.4C172.8 154.65 171.4 168.45 170.9 177.85C170.7 182 167.55 187.9 162.5 187.9ZM178.95 132.85C178.7 132.85 178.4 132.9 178.1 133C177.6 133.15 177.05 133.45 176.45 133.8C174.6 135 172.8 136.55 171.1 138.4C165.4 144.65 161.1 151.2 158.4 157.9L158.1 158.65C157.45 160.4 151.75 175.8 156 183.35C157.15 185.4 159 186.65 161.4 187.1C161.75 187.15 162.1 187.2 162.45 187.2C167.1 187.2 169.95 181.7 170.15 177.9C170.65 168.4 172.05 154.5 178.15 143.1C178.35 142.75 178.55 142.4 178.7 142.05C179.05 141.4 179.45 140.7 179.8 140C180.3 139 180.65 138.05 180.85 137.2C181.2 135.75 180.9 133.8 179.85 133.15C179.65 132.9 179.3 132.85 178.95 132.85ZM79.95 167.1H79.55C78 167 76.25 165.65 75.75 164.2C74 159.2 75.6 154.2 77.15 149.4C77.8 147.4 78.4 145.55 78.8 143.65C79.6 139.7 79.7 135 79.05 130.7C78.85 129.55 78.45 128.35 78.05 127.2L77.9 126.85C77.3 125.2 76.8 123.55 76.95 121.85C77.05 120.4 78.1 118.85 79.75 118.75H79.95C86.2 118.8 88.35 134.9 88.6 136.75C88.9 139.25 89.1 141.5 89.2 143.6C89.35 146.1 89.35 148.35 89.2 150.6V150.95C89 154.45 88.75 158.1 87.4 161.45C86.25 164.1 83.4 167.1 79.95 167.1ZM79.95 119.45H79.9C78.6 119.55 77.85 120.75 77.75 121.85C77.6 123.45 78.1 125 78.65 126.55L78.8 126.9C79.2 128.05 79.65 129.3 79.85 130.55C80.5 134.9 80.4 139.7 79.6 143.75C79.2 145.7 78.55 147.65 77.95 149.6C76.4 154.3 74.85 159.15 76.55 163.95C77 165.15 78.45 166.3 79.7 166.35C82.95 166.55 85.7 163.7 86.8 161.05C88.15 157.85 88.35 154.25 88.55 150.8V150.45C88.7 148.25 88.7 146 88.55 143.55C88.45 141.45 88.25 139.25 87.95 136.75C87.1 130.35 84.55 119.5 79.95 119.45ZM29.7 131.2C26.95 131.2 26.05 129.6 25.75 128.55C25.1 126.15 26.4 122.85 27.85 122.35C28.05 122.3 28.25 122.4 28.3 122.6C28.35 122.8 28.25 123 28.05 123.05C27.15 123.35 25.85 126.15 26.45 128.35C27 130.25 28.8 130.85 31.7 130.2L32.95 129.9C38.45 128.65 39.9 128.35 41.45 127.35C42.6 126.6 43.25 125.2 43.05 123.85C42.85 122.7 42.1 121.85 41 121.5C40.8 121.45 40.7 121.25 40.75 121.05C40.8 120.85 41 120.75 41.2 120.8C42.6 121.2 43.6 122.3 43.8 123.75C44.05 125.4 43.3 127.1 41.9 128C40.25 129.05 38.75 129.4 33.2 130.65L31.95 130.95C31.05 131.1 30.3 131.2 29.7 131.2Z" fill="black"/>
<path d="M33.2507 138.8C32.1007 138.8 31.1507 138.5 30.4007 137.9C27.8507 135.8 28.8007 130.95 28.8507 130.75C28.9007 130.55 29.1007 130.4 29.3007 130.45C29.5007 130.5 29.6507 130.7 29.6007 130.9C29.6007 130.95 28.7007 135.5 30.9007 137.3C32.2507 138.4 34.5507 138.3 37.7007 136.95C42.2007 135.05 44.6507 132.9 44.5507 131C44.4507 129.45 42.7507 128.35 41.6007 128C41.4007 127.95 41.3007 127.75 41.3507 127.55C41.4007 127.35 41.6007 127.25 41.8007 127.3C43.4007 127.8 45.2007 129.15 45.3007 130.95C45.4007 132.55 44.2007 135 38.0007 137.65C36.1007 138.4 34.5507 138.8 33.2507 138.8Z" fill="black"/>
<path d="M75.5496 163.95C75.4996 163.95 75.4996 163.95 75.5496 163.95C56.4496 161.45 42.1496 145.55 41.9996 145.35C40.9996 144.4 39.7996 143.95 38.4996 143.45C37.4996 143.05 36.4496 142.65 35.5496 142C34.5496 141.3 33.2996 140.2 32.6996 138.6C32.6496 138.4 32.7496 138.2 32.8996 138.1C33.0996 138.05 33.2996 138.15 33.3996 138.3C33.8996 139.7 35.0996 140.75 35.9496 141.35C36.7996 141.95 37.7496 142.3 38.7496 142.7C40.0496 143.2 41.3996 143.75 42.4996 144.8C42.6496 145 56.7496 160.7 75.5496 163.15C75.7496 163.2 75.8996 163.35 75.8496 163.55C75.8996 163.8 75.6996 163.95 75.5496 163.95ZM41.3496 116.8C41.2496 116.8 41.1496 116.75 41.0996 116.7C41.0496 116.65 39.3496 115.35 32.2496 116C32.0496 116 31.8496 115.85 31.8496 115.65C31.8496 115.45 31.9996 115.25 32.1996 115.25C39.6996 114.6 41.4496 116 41.6496 116.15C41.7996 116.3 41.7996 116.55 41.6496 116.7C41.5496 116.8 41.4496 116.8 41.3496 116.8ZM163.5 256C158.05 256 145.9 255.2 134 248.85C133.9 248.8 133.8 248.65 133.8 248.5V219.9C131.65 219.75 120.15 218.6 112 213.6C111.8 213.5 111.75 213.25 111.9 213.1C112 212.9 112.25 212.85 112.4 213C121.2 218.4 134.05 219.2 134.2 219.2C134.4 219.2 134.55 219.4 134.55 219.55V248.3C148.5 255.65 162.7 255.35 165.75 255.2C162.1 249.1 157.2 244.85 157.15 244.85C157.1 244.8 157.05 244.7 157 244.6C156.75 242.75 161.3 235.9 161.8 235.1C171.4 220.2 178.25 206.35 182.1 193.95C182.15 193.75 182.35 193.65 182.55 193.7C182.75 193.75 182.85 193.95 182.8 194.15C178.9 206.65 172.05 220.55 162.4 235.5C160.55 238.25 157.75 243 157.7 244.35C158.5 245.05 163.25 249.4 166.65 255.35C166.7 255.45 166.7 255.6 166.65 255.7C166.6 255.8 166.5 255.9 166.35 255.9C166.35 255.9 165.3 256 163.5 256ZM181.65 154.8C181.5 154.8 181.4 154.75 181.3 154.6C180.85 153.95 179.9 143.3 179.75 140.15C179.75 139.95 179.9 139.75 180.1 139.75C180.3 139.75 180.5 139.9 180.5 140.1C180.7 144.15 181.65 153.55 181.95 154.2C182.05 154.35 182 154.6 181.85 154.7C181.8 154.75 181.75 154.8 181.65 154.8ZM113.1 228.15H113C106.25 225.85 97.9496 223.1 88.1996 220C87.9996 219.95 87.8996 219.75 87.9496 219.55C87.9996 219.35 88.1996 219.25 88.3996 219.3C98.1496 222.4 106.5 225.15 113.2 227.45C113.4 227.5 113.5 227.75 113.45 227.95C113.4 228.05 113.3 228.15 113.1 228.15Z" fill="black"/>
<path d="M162.201 235.55H162.101C148.551 232.3 138.751 231.6 134.101 231.45C133.901 231.45 133.751 231.25 133.751 231.05C133.751 230.85 133.901 230.7 134.151 230.7C138.801 230.85 148.651 231.55 162.301 234.8C162.501 234.85 162.651 235.05 162.601 235.25C162.551 235.45 162.401 235.55 162.201 235.55ZM103.701 53.8999H103.601C103.101 53.7499 91.8509 50.7499 90.8509 45.9999L90.8009 45.9499V45.7499C90.5509 43.9499 91.7009 42.1999 94.2509 40.4999C104.401 33.7999 121.701 40.3999 136.951 46.1999C145.201 49.3499 152.951 52.2999 158.401 52.6499C158.551 52.6499 168.851 54.0499 178.201 50.7499C178.401 50.6999 178.601 50.7999 178.701 50.9999C178.751 51.1999 178.651 51.3999 178.451 51.4999C168.901 54.8499 158.401 53.4499 158.301 53.4499C152.751 53.0999 144.951 50.0999 136.651 46.9499C121.551 41.1999 104.451 34.6499 94.6509 41.1499C92.3509 42.6499 91.3009 44.1499 91.5009 45.5999V45.6999C92.3509 50.0499 103.601 53.0999 103.751 53.0999C103.951 53.1499 104.051 53.3499 104.001 53.5499C104.001 53.7999 103.851 53.8999 103.701 53.8999ZM55.6509 156.4C55.5509 156.4 55.5009 156.4 55.4509 156.35C55.3009 156.25 55.2509 156 55.3509 155.85C62.3509 146.4 66.1009 138.3 67.7509 134.3C67.8509 134.1 68.0509 134 68.2509 134.1C68.4509 134.2 68.5509 134.4 68.4509 134.6C66.8009 138.65 63.0509 146.85 56.0009 156.35C55.9009 156.35 55.7509 156.4 55.6509 156.4ZM152.401 204.2C151.701 204.25 151.051 204.2 150.351 204.15C149.651 204.1 149.001 204 148.301 203.85C147.651 203.7 146.951 203.5 146.301 203.25C146.001 203.1 145.651 203 145.351 202.85L144.901 202.6L144.451 202.35C143.851 202 143.301 201.55 142.801 201.05C142.501 200.8 142.351 200.55 142.101 200.3C141.851 200.05 141.651 199.75 141.451 199.5C141.251 199.2 141.051 198.95 140.901 198.6C140.751 198.3 140.551 198 140.401 197.7L139.951 196.75L139.601 195.75C139.451 195.45 139.401 195.1 139.351 194.75L139.251 194.25C139.201 194.1 139.201 193.9 139.151 193.75L139.001 192.7L138.951 191.65C138.951 191.3 139.001 190.95 139.001 190.6L139.051 190.1L139.151 189.6C139.201 189.25 139.251 188.9 139.351 188.55L139.651 187.55C139.751 187.2 139.901 186.9 140.001 186.55C140.151 186.25 140.251 185.9 140.451 185.6L140.951 184.7C141.101 184.4 141.351 184.1 141.551 183.85C141.951 183.25 142.401 182.75 142.901 182.25C143.101 181.95 143.401 181.75 143.651 181.5L144.451 180.8C144.551 180.65 144.701 180.45 144.701 180.3C144.751 180.15 144.701 179.95 144.601 179.8C144.401 179.5 143.951 179.3 143.501 179.15C143.051 179 142.601 178.9 142.101 178.8L140.601 178.5C139.601 178.3 138.651 178.1 137.651 177.85L134.701 177.2C133.701 177 132.751 176.75 131.751 176.5L128.801 175.8L122.951 174.3C121.951 174.05 121.001 173.75 120.051 173.5L117.151 172.7C116.201 172.4 115.201 172.15 114.251 171.85L111.351 170.95L108.451 170.05C107.501 169.75 106.551 169.45 105.601 169.1L99.9009 167.15H99.9509C99.3509 167 98.8509 167.35 98.5009 167.95C98.1509 168.5 97.9009 169.2 97.7509 169.9C97.4509 171.3 97.3509 172.75 97.3509 174.2C97.4009 177.1 97.9009 179.95 98.7509 182.75C99.6009 185.5 100.851 188.2 102.651 190.45C103.551 191.6 104.651 192.6 105.851 193.35C107.051 194.15 108.451 194.7 109.851 195C108.401 194.75 107.001 194.25 105.751 193.5C104.501 192.75 103.401 191.75 102.451 190.6C101.501 189.5 100.701 188.25 100.001 186.95C99.3009 185.65 98.7509 184.3 98.3009 182.9C97.4009 180.1 96.8509 177.2 96.8009 174.25C96.7509 172.8 96.8009 171.3 97.1509 169.85C97.3009 169.1 97.5508 168.4 97.9509 167.7C98.1509 167.35 98.4509 167.05 98.8009 166.8C99.2009 166.55 99.6509 166.5 100.101 166.6L105.801 168.55C106.751 168.85 107.701 169.2 108.651 169.5L111.551 170.4L114.451 171.3C115.401 171.6 116.401 171.85 117.351 172.1L120.251 172.9C121.201 173.15 122.201 173.45 123.151 173.7L128.951 175.2L131.851 175.9C132.801 176.15 133.801 176.4 134.751 176.6L137.701 177.25C138.701 177.5 139.651 177.7 140.651 177.9L142.101 178.2C142.601 178.3 143.101 178.4 143.601 178.55C144.101 178.75 144.651 178.95 145.001 179.5C145.201 179.75 145.251 180.15 145.151 180.45C145.051 180.75 144.951 181 144.701 181.25L143.951 181.9C143.701 182.15 143.451 182.35 143.201 182.6C142.751 183.1 142.251 183.6 141.901 184.15C141.701 184.45 141.501 184.7 141.301 185L140.801 185.9C140.601 186.2 140.501 186.5 140.401 186.8C140.301 187.1 140.101 187.4 140.051 187.75L139.751 188.7C139.651 189 139.601 189.35 139.551 189.7L139.451 190.2L139.401 190.7C139.401 191.05 139.351 191.35 139.351 191.7L139.401 192.7C139.401 193.05 139.501 193.35 139.501 193.7C139.501 193.85 139.551 194.05 139.551 194.2L139.651 194.7C139.751 195.05 139.801 195.35 139.901 195.7L140.201 196.65L140.601 197.6L141.051 198.5C141.201 198.8 141.401 199.1 141.601 199.35C141.801 199.65 141.951 199.9 142.201 200.15C142.451 200.4 142.651 200.7 142.851 200.9C143.301 201.4 143.851 201.8 144.401 202.2L144.851 202.5L145.301 202.75L146.201 203.2C146.851 203.45 147.501 203.7 148.151 203.85C149.651 204.05 151.051 204.25 152.401 204.2ZM219.951 116.35L218.701 115.8C215.351 114.3 212.201 112.85 209.651 112L209.251 111.85L212.701 104.75L222.751 109.05L219.951 116.35ZM210.251 111.35C212.751 112.25 215.801 113.6 219.001 115.05L219.551 115.3L221.801 109.35L213.051 105.65L210.251 111.35ZM208.951 166.15H208.801C208.601 166.1 208.501 165.85 208.601 165.65L214.051 151L209.751 137.7L209.801 137.6L216.601 120C216.651 119.8 216.901 119.7 217.101 119.8C217.301 119.85 217.401 120.1 217.301 120.3L210.551 137.8L214.851 151.1L209.351 166C209.251 166.05 209.101 166.15 208.951 166.15Z" fill="black"/>
<path d="M192.901 196.05C189.051 196.05 185.551 195.5 182.351 194.4C173.301 191.3 170.251 184.9 170.101 184.6L170.051 184.45L172.651 177.5L186.451 140.45L199.601 133.4L210.501 111.4L210.801 111.5C212.901 112.2 214.301 112.85 216.451 113.85C217.201 114.2 218.001 114.55 218.951 115L219.251 115.15L218.451 117.3C218.401 117.5 218.151 117.6 217.951 117.5C217.751 117.45 217.651 117.2 217.751 117L218.301 115.55C217.501 115.2 216.751 114.85 216.101 114.55C214.101 113.6 212.751 113 210.801 112.35L200.101 133.95L200.001 134L187.001 141L170.851 184.45C171.351 185.4 174.551 190.95 182.601 193.7C187.001 195.2 192.051 195.65 197.701 195.05L199.201 190.25C199.251 190.05 199.451 189.95 199.651 190C199.851 190.05 199.951 190.25 199.901 190.45L198.251 195.75L198.001 195.8C196.251 195.95 194.551 196.05 192.901 196.05Z" fill="black"/>
<path d="M213.2 154.75C198.45 153.1 189.65 146.7 185.75 143.05C185.6 142.9 185.6 142.65 185.75 142.5C185.9 142.35 186.15 142.35 186.3 142.5C190.2 146.1 198.85 152.4 213.3 154C213.5 154 213.65 154.15 213.65 154.35C213.6 154.6 213.4 154.75 213.2 154.75ZM193.3 188.3H193.25C179.5 186.25 173.35 178.75 172.7 177.9C172.55 177.75 172.6 177.5 172.75 177.35C172.9 177.2 173.15 177.25 173.3 177.4C173.95 178.2 179.9 185.5 193.35 187.5C193.55 187.55 193.7 187.7 193.65 187.95C193.65 188.15 193.5 188.3 193.3 188.3ZM238.55 128.7H238.4L216.8 120.45C216.7 120.4 216.65 120.35 216.6 120.25C216.6 120.2 216.1 119.1 216.55 118.1C216.8 117.55 217.25 117.15 217.95 116.9C218 116.9 218.1 116.85 218.15 116.9L240.35 122.55C240.45 122.6 240.55 122.65 240.6 122.75C240.6 122.8 242 126.1 238.8 128.7H238.55ZM217.25 119.8L238.5 127.95C240.7 126.05 240.2 123.8 240 123.2L218.1 117.65C217.65 117.8 217.4 118.05 217.25 118.4C217 118.9 217.15 119.5 217.25 119.8Z" fill="black"/>
<path d="M220.101 139.3C219.601 139.3 219.051 138.9 218.751 138.2C216.151 130.95 218.901 124.55 220.751 121.4C220.851 121.2 221.101 121.15 221.251 121.25C221.451 121.35 221.501 121.6 221.401 121.75C219.601 124.8 216.951 130.95 219.401 137.85C219.601 138.3 219.951 138.5 220.151 138.45C220.351 138.4 220.701 137.9 220.601 136.3C220.251 132.05 221.851 126.5 227.201 123.6C227.401 123.5 227.601 123.55 227.701 123.75C227.801 123.95 227.751 124.15 227.551 124.25C222.501 127 221.001 132.25 221.301 136.25C221.501 138.5 220.751 139.05 220.301 139.15C220.251 139.3 220.151 139.3 220.101 139.3ZM238.251 128.6C238.051 128.6 237.901 128.45 237.901 128.3C237.601 126.3 237.901 124.75 238.651 123.75C239.351 122.85 240.301 122.75 240.301 122.75C240.501 122.75 240.701 122.9 240.701 123.1C240.701 123.3 240.551 123.5 240.351 123.5C240.301 123.5 239.701 123.6 239.201 124.25C238.551 125.05 238.351 126.45 238.601 128.2C238.651 128.4 238.501 128.6 238.301 128.6H238.251ZM212.851 155.75L213.001 155.9C213.101 156 213.251 156.15 213.451 156.4C213.851 156.85 214.351 157.5 214.901 158.4C215.451 159.3 216.001 160.5 216.351 161.95C216.701 163.4 216.901 165.1 216.751 166.9C216.701 167.35 216.701 167.8 216.551 168.3C216.451 168.75 216.401 169.25 216.251 169.7C216.051 170.65 215.801 171.6 215.551 172.6C215.051 174.6 214.501 176.7 213.751 178.8C212.951 180.9 211.951 183.05 210.551 185C210.201 185.45 209.801 185.95 209.401 186.4C209.201 186.6 209.001 186.85 208.751 187.05L208.051 187.65C207.851 187.85 207.551 188.05 207.351 188.2C207.101 188.4 206.851 188.55 206.601 188.75L205.851 189.2L205.001 189.6C202.701 190.55 200.151 190.65 197.801 190.1C195.451 189.55 193.301 188.5 191.501 187.1C190.601 186.4 189.801 185.5 189.351 184.4C189.151 183.85 189.051 183.3 189.051 182.7C189.051 182.55 189.051 182.45 189.101 182.25L189.151 181.85C189.201 181.55 189.301 181.3 189.401 181.05C189.651 180.55 190.001 180.05 190.451 179.75C190.901 179.45 191.451 179.25 191.951 179.15C192.951 178.95 193.951 179.05 194.851 179.2C195.751 179.35 196.601 179.6 197.351 179.9C197.751 180.05 198.151 180.2 198.451 180.35C198.801 180.5 199.151 180.65 199.501 180.75C199.851 180.9 200.151 181.05 200.501 181.1C200.801 181.2 201.151 181.25 201.451 181.35C201.751 181.45 202.051 181.5 202.301 181.6C202.601 181.65 202.851 181.7 203.101 181.75C203.601 181.85 204.051 181.95 204.451 182C204.851 182.05 205.201 182.05 205.451 182.1C206.001 182.15 206.301 182.15 206.301 182.15C206.351 182.15 206.401 182.2 206.401 182.3C206.401 182.35 206.351 182.4 206.251 182.4H205.401C205.101 182.4 204.751 182.4 204.351 182.35C203.951 182.35 203.501 182.25 202.951 182.2C202.701 182.15 202.401 182.15 202.151 182.1C201.851 182.05 201.551 181.95 201.251 181.9C200.951 181.8 200.601 181.75 200.301 181.65C199.951 181.55 199.651 181.4 199.301 181.3C198.951 181.2 198.601 181.05 198.251 180.9C197.851 180.75 197.551 180.6 197.151 180.5C196.401 180.25 195.601 180 194.701 179.85C193.851 179.7 192.951 179.65 192.051 179.85C191.601 179.95 191.201 180.1 190.851 180.35C190.501 180.6 190.201 180.95 190.001 181.35C189.901 181.55 189.851 181.8 189.801 182C189.801 182.1 189.751 182.25 189.751 182.4V182.75C189.751 183.25 189.801 183.7 190.001 184.15C190.351 185.05 191.101 185.9 191.901 186.55C193.601 187.85 195.701 188.9 197.951 189.4C200.151 189.9 202.601 189.8 204.701 188.9L205.451 188.55L206.201 188.1C206.401 187.95 206.651 187.75 206.901 187.6C207.151 187.45 207.351 187.25 207.601 187.05L208.251 186.45L208.851 185.85C209.251 185.45 209.601 185 209.951 184.55C211.301 182.7 212.301 180.6 213.051 178.55C213.801 176.5 214.351 174.4 214.801 172.4C215.051 171.4 215.251 170.45 215.501 169.5C215.601 169.05 215.701 168.6 215.751 168.15C215.851 167.7 215.901 167.25 215.901 166.85C216.051 165.1 215.901 163.5 215.551 162.15C215.201 160.8 214.701 159.65 214.201 158.8C213.701 157.9 213.201 157.3 212.851 156.9C212.701 156.7 212.551 156.55 212.451 156.45L212.301 156.3C212.151 156.15 212.151 155.9 212.301 155.75C212.451 155.6 212.701 155.6 212.851 155.75Z" fill="black"/>
<path d="M190.899 179.8C190.899 179.8 190.849 179.7 190.799 179.55C190.749 179.4 190.649 179.15 190.549 178.85C190.349 178.25 190.099 177.3 190.149 176.15C190.149 175.6 190.249 174.95 190.499 174.3C190.549 174.15 190.649 174 190.749 173.85C190.849 173.7 190.949 173.55 191.099 173.4L191.299 173.2L191.349 173.15L191.399 173.1L191.499 173C191.649 172.9 191.749 172.8 191.899 172.7C192.549 172.3 193.299 172.1 194.049 172.05C194.799 172 195.549 172.1 196.249 172.25C196.949 172.4 197.649 172.65 198.349 172.85C199.049 173.1 199.649 173.3 200.299 173.55C200.949 173.75 201.549 173.95 202.149 174.15C202.749 174.35 203.299 174.55 203.799 174.7C205.849 175.3 207.249 175.7 207.249 175.7C207.299 175.7 207.349 175.8 207.349 175.85C207.349 175.9 207.249 175.95 207.199 175.95C207.199 175.95 205.799 175.6 203.699 175.1C203.149 175 202.599 174.8 201.999 174.6C201.399 174.4 200.799 174.25 200.149 174.05C199.499 173.85 198.849 173.65 198.149 173.45C197.499 173.25 196.799 173.05 196.099 172.9C195.399 172.75 194.699 172.7 194.049 172.75C193.399 172.8 192.749 173 192.299 173.35C192.199 173.4 192.049 173.55 191.899 173.65L191.799 173.75C191.799 173.75 191.749 173.8 191.749 173.75L191.699 173.8L191.549 173.95C191.449 174.05 191.399 174.2 191.299 174.3C191.249 174.45 191.149 174.55 191.099 174.65C190.899 175.15 190.799 175.7 190.799 176.2C190.799 176.7 190.849 177.2 190.899 177.6C190.999 178 191.049 178.35 191.149 178.65C191.249 178.95 191.299 179.15 191.349 179.3C191.399 179.45 191.449 179.55 191.449 179.55C191.499 179.75 191.399 179.95 191.199 180.05C191.199 180.1 190.949 180 190.899 179.8Z" fill="black"/>
<path d="M193.9 172.2C193.9 172.2 193.85 171.85 193.8 171.15C193.75 170.8 193.75 170.4 193.75 169.95C193.75 169.5 193.8 168.95 193.9 168.35C194 167.75 194.3 167.15 194.7 166.6C195.1 166 195.65 165.5 196.35 165.2C197.05 164.85 197.8 164.75 198.6 164.75C199.35 164.75 200.1 164.85 200.85 165C201.6 165.15 202.3 165.3 203.05 165.45C203.4 165.5 203.75 165.6 204.1 165.65C204.45 165.7 204.8 165.75 205.15 165.75C205.85 165.8 206.5 165.85 207.15 165.85H208.95C210.05 165.8 211 165.75 211.65 165.7C212.3 165.65 212.65 165.6 212.65 165.6C212.7 165.6 212.75 165.65 212.75 165.7C212.75 165.75 212.7 165.8 212.65 165.8C212.65 165.8 212.3 165.85 211.65 165.95C211.35 166 210.95 166.05 210.5 166.1C210.05 166.15 209.55 166.2 208.95 166.25C208.4 166.25 207.8 166.3 207.15 166.3C206.5 166.3 205.8 166.3 205.1 166.25C204.75 166.2 204.4 166.2 204 166.15C203.65 166.1 203.3 166.05 202.9 166C202.15 165.9 201.45 165.7 200.7 165.6C199.95 165.5 199.25 165.4 198.55 165.4C197.85 165.4 197.15 165.55 196.6 165.8C196.05 166.05 195.55 166.5 195.25 167C194.9 167.5 194.7 168 194.6 168.55C194.4 169.55 194.45 170.5 194.5 171.1C194.55 171.75 194.6 172.1 194.6 172.1C194.65 172.3 194.5 172.5 194.3 172.55C194.15 172.55 193.95 172.45 193.9 172.2ZM180.1 133.15C179.9 133.15 179.7 132.95 179.75 132.75C180.1 120.45 183 112.75 186.35 103.85C189 96.8498 191.95 88.8998 193.95 77.5498C189.35 67.8998 184.35 60.5998 179.1 52.8498L178.1 51.3498C159 35.0998 144.2 29.5498 135.15 27.7498C125.35 25.7998 120 27.7498 119.95 27.7998C98.05 34.0998 92.85 39.8498 91.65 42.6998C91 44.2498 91.4 45.2498 91.55 45.4998L91.6 45.5498V45.6998C91.6 45.8998 91.45 46.0498 91.25 46.0498C91.1 46.0498 91 45.9998 90.95 45.8998C90.95 45.8998 90.95 45.8498 90.9 45.8498C90.75 45.5998 90.15 44.3498 90.95 42.3498C92.45 38.6998 98.65 33.0498 119.7 26.9998C119.9 26.9498 125.25 24.9998 135.2 26.9498C144.35 28.7498 159.35 34.2998 178.6 50.7498L178.65 50.8498L179.7 52.3998C185 60.1998 190.05 67.5498 194.65 77.2998L194.7 77.3998V77.4998C192.7 88.9998 189.7 96.9998 187.05 104.05C183.7 112.9 180.85 120.55 180.45 132.7C180.45 133 180.3 133.15 180.1 133.15Z" fill="black"/>
<path d="M194.35 77.8998C194.25 77.8998 194.2 77.8998 194.15 77.8498C194 77.7498 193.95 77.4998 194.05 77.3498C202.25 66.0498 205.6 51.3998 202.7 39.0998C200.15 28.3498 192.75 21.3998 186.55 16.4998C179.4 10.8498 171.1 6.44985 161.8 3.34985C156.4 1.54985 150.35 0.649847 144.9 0.799847C132.5 1.19985 125.8 15.5998 120.9 26.0998L120.2 27.6498C120.1 27.8498 119.9 27.8998 119.7 27.8498C119.5 27.7498 119.45 27.5498 119.5 27.3498L120.2 25.7998C125.2 15.0998 132 0.449847 144.85 0.0498474C150.4 -0.150153 156.5 0.749847 162 2.59985C171.35 5.69985 179.8 10.1998 187 15.8498C193.3 20.7998 200.85 27.8998 203.45 38.8498C206.45 51.4998 203.15 66.0498 194.7 77.6998C194.55 77.8498 194.45 77.8998 194.35 77.8998Z" fill="black"/>
<path d="M178.351 51.4999C178.251 51.4999 178.151 51.4499 178.101 51.3999C177.951 51.2499 177.951 50.9999 178.101 50.8499C187.851 41.1499 189.101 24.9499 189.151 18.3999C189.151 18.1999 189.351 18.0499 189.551 18.0499C189.751 18.0499 189.901 18.1999 189.901 18.4499C189.851 25.0499 188.601 41.4999 178.651 51.3999C178.551 51.4499 178.451 51.4999 178.351 51.4999ZM187.051 16.7499C187.001 16.7499 186.901 16.7499 186.851 16.6999C186.651 16.5999 186.601 16.3499 186.701 16.1999C187.201 15.3999 187.301 14.5499 187.001 13.6999C186.401 11.9999 184.351 10.3499 181.301 9.19985C178.951 8.29985 177.251 8.39985 176.401 9.39985C176.251 9.54985 176.051 9.59985 175.851 9.44985C175.701 9.29985 175.651 9.09985 175.801 8.89985C176.901 7.59985 178.801 7.49985 181.551 8.49985C184.851 9.74985 187.051 11.4999 187.701 13.4499C188.051 14.4999 187.951 15.5999 187.351 16.5999C187.301 16.6999 187.151 16.7499 187.051 16.7499ZM108.401 120.45C108.301 120.45 108.151 120.4 108.101 120.3C108.001 120.15 108.001 119.9 108.151 119.8C117.901 112.45 112.751 102.4 112.551 101.95C112.451 101.75 112.501 101.55 112.701 101.45C112.901 101.35 113.101 101.4 113.201 101.6C113.251 101.7 118.851 112.65 108.601 120.4C108.551 120.4 108.451 120.45 108.401 120.45Z" fill="black"/>
<path d="M132.001 130C127.051 130 122.051 128.6 117.751 125.75C114.351 123.55 111.301 121.85 108.651 120.75C103.651 118.7 101.801 119.4 101.801 119.4C101.601 119.45 101.401 119.4 101.301 119.2C101.201 119 101.301 118.8 101.501 118.7C101.601 118.65 103.601 117.85 108.951 120.05C111.601 121.15 114.701 122.85 118.151 125.1C125.801 130.1 135.751 130.6 143.501 126.3L143.701 126.2C148.951 123.25 153.101 118.4 155.901 111.75L155.951 111.65C156.501 110.35 157.051 108.95 157.501 107.5C134.651 110.2 121.801 106.75 115.051 103.35C114.201 102.9 113.401 102.5 112.701 102.05L112.651 102C107.151 98.6002 105.651 95.1502 105.601 95.0002C105.501 94.8002 105.601 94.6002 105.801 94.5002C106.001 94.4002 106.201 94.5002 106.301 94.7002C106.301 94.7502 107.801 98.1002 113.101 101.35L113.151 101.4C113.851 101.8 114.551 102.25 115.401 102.65C122.101 106 134.951 109.45 158.001 106.65L158.551 106.6L158.401 107.15C157.901 108.85 157.301 110.45 156.701 111.9V111.95C153.851 118.7 149.651 123.65 144.301 126.7L144.101 126.8C140.351 128.95 136.201 130 132.001 130Z" fill="black"/>
<path d="M141.85 120.35H141.55C140 120.35 138.45 120.2 136.95 120C131.75 119.2 126.35 117.55 121 115.1C120.75 115 120.5 114.85 120.25 114.75C119 114.2 117.7 113.65 116.8 112.5C115.25 110.55 115.05 107.45 114.9 105.25C114.85 104.55 114.85 103.85 114.85 103.1C114.85 102.9 115 102.75 115.2 102.75C115.4 102.75 115.55 102.9 115.55 103.1C115.55 103.8 115.55 104.5 115.6 105.2C115.75 107.35 115.9 110.25 117.3 112.05C118.1 113.05 119.25 113.55 120.45 114.1C120.7 114.2 121 114.35 121.25 114.45C126.55 116.9 131.85 118.55 137 119.3C138.45 119.55 140 119.65 141.5 119.65C145.05 119.7 147.45 119.05 149.7 117.4C151.9 115.85 153.9 113.95 155.95 111.7C156 111.6 156.15 111.55 156.25 111.55C156.45 111.55 156.6 111.7 156.6 111.9V112.05L156.5 112.15C154.45 114.5 152.35 116.4 150.15 118C147.3 120 144.5 120.35 141.85 120.35ZM143.85 126.95C143.65 126.95 143.5 126.8 143.5 126.6V126.5C143.9 124.8 143.5 123.55 142.35 122.7C141.4 122 140.05 122 138.85 121.95H138.7C136.95 121.9 134.85 121.8 132.75 121.45C129.7 120.9 126.55 120.05 123.45 119C122.7 118.75 121.95 118.4 121.15 118.05C119.2 117.15 117.15 116.25 115.25 116.5C114.05 116.65 113.1 117.45 112.15 118.3C111.85 118.55 111.55 118.85 111.2 119.05C110.45 119.65 109.7 120.2 108.95 120.8C108.8 120.95 108.55 120.9 108.4 120.75C108.25 120.6 108.3 120.35 108.45 120.2C109.2 119.6 109.95 119.05 110.7 118.45L111.6 117.7C112.6 116.8 113.65 115.9 115.1 115.75C117.2 115.45 119.4 116.5 121.4 117.35C122.2 117.7 122.95 118.05 123.65 118.3C126.75 119.35 129.85 120.2 132.85 120.75C134.9 121.1 136.95 121.2 138.7 121.25H138.85C140.15 121.3 141.6 121.35 142.75 122.15C144.15 123.15 144.65 124.7 144.2 126.7C144.2 126.8 144.05 126.95 143.85 126.95ZM156.5 105.7C156.5 105.7 156.6 105.65 156.7 105.65C156.85 105.6 157.05 105.6 157.3 105.65C157.55 105.65 157.8 105.75 158.1 105.9C158.25 106 158.4 106.05 158.5 106.15C158.6 106.25 158.75 106.35 158.85 106.5C158.95 106.65 159.05 106.8 159.1 106.9C159.2 107.05 159.2 107.2 159.25 107.35C159.3 107.5 159.3 107.65 159.3 107.8V108.2C159.3 108.45 159.2 108.65 159.15 108.75C159.1 108.9 159.05 108.95 159.05 108.95H159V108.5C159 108.4 158.95 108.35 158.95 108.25C158.95 108.15 158.9 108.05 158.85 107.95C158.8 107.85 158.8 107.7 158.7 107.6C158.65 107.5 158.6 107.35 158.5 107.25C158.45 107.15 158.35 107.05 158.25 106.95C157.9 106.5 157.45 106.2 157.1 106C156.75 105.8 156.5 105.75 156.5 105.75C156.45 105.8 156.45 105.75 156.5 105.7C156.45 105.75 156.45 105.75 156.5 105.7ZM116.55 89.9501C111.85 89.9501 108 85.5501 108 80.1501C108 74.7501 111.85 70.3501 116.55 70.3501C121.25 70.3501 125.1 74.7501 125.1 80.1501C125.1 85.6001 121.3 89.9501 116.55 89.9501ZM116.55 71.1501C112.25 71.1501 108.75 75.2001 108.75 80.2001C108.75 85.2001 112.25 89.2501 116.55 89.2501C120.85 89.2501 124.35 85.2001 124.35 80.2001C124.35 75.2001 120.85 71.1501 116.55 71.1501ZM140.3 100.75C140.3 100.75 140.05 100.65 139.6 100.45C139.35 100.35 139.1 100.15 138.8 99.9001C138.5 99.6501 138.15 99.4001 137.8 99.0501C137.1 98.4001 136.3 97.4501 135.6 96.3001C134.9 95.1501 134.2 93.7501 133.75 92.1501C133.3 90.5501 133 88.7501 132.95 86.8501C132.95 84.9501 133.2 82.9001 133.8 80.9501C134.4 78.9501 135.45 77.0001 136.85 75.3501C137.55 74.5001 138.4 73.7501 139.3 73.1001C139.8 72.8001 140.25 72.5001 140.75 72.2501C141.25 72.0001 141.8 71.8001 142.35 71.6501C143.45 71.3501 144.6 71.2001 145.7 71.3001C146.25 71.3001 146.8 71.4501 147.35 71.5501C147.6 71.6001 147.9 71.7001 148.15 71.8001L148.55 71.9501C148.7 72.0001 148.8 72.0501 148.95 72.1001L149.7 72.4501L150.4 72.9001L150.75 73.1001C150.85 73.2001 150.95 73.2501 151.1 73.3501L151.75 73.8501C152.55 74.5501 153.3 75.3501 153.9 76.2001C155.15 77.9001 155.95 79.8001 156.45 81.6501C156.95 83.5001 157.1 85.3001 157.1 87.0001C157.1 87.4001 157.05 87.8001 157.05 88.2001C157 88.6001 156.95 89.0001 156.9 89.3501C156.85 89.7501 156.8 90.1001 156.7 90.4501C156.65 90.8001 156.55 91.1501 156.45 91.4501C156.35 91.8001 156.25 92.1001 156.2 92.4001C156.1 92.7001 156 93.0001 155.9 93.2501C155.7 93.8001 155.45 94.3001 155.25 94.7501C155.05 95.2001 154.8 95.5501 154.65 95.9001C154.45 96.2501 154.25 96.5001 154.1 96.7001C153.8 97.1001 153.6 97.3001 153.6 97.3001L153.2 97.0001C153.2 97.0001 153.3 96.7501 153.6 96.3501C153.75 96.1501 153.9 95.9001 154.05 95.5501C154.2 95.2501 154.45 94.9001 154.65 94.4501C154.85 94.0501 155.1 93.5501 155.25 93.0501C155.35 92.8001 155.45 92.5001 155.55 92.2001C155.65 91.9001 155.7 91.6001 155.8 91.3001C155.9 91.0001 155.95 90.6501 156 90.3001C156.05 89.9501 156.15 89.6001 156.2 89.2501C156.25 88.9001 156.3 88.5001 156.35 88.1501C156.35 87.7501 156.4 87.3501 156.4 86.9501C156.4 85.3501 156.25 83.6001 155.75 81.8501C155.25 80.1001 154.5 78.3001 153.3 76.7001C152.75 75.9001 152.05 75.1501 151.3 74.5001L150.7 74.0501C150.6 73.9501 150.5 73.9001 150.4 73.8001L150.05 73.6001L149.4 73.2001L148.7 72.8501C148.6 72.8001 148.45 72.7501 148.35 72.7001L148 72.6001C147.75 72.5001 147.5 72.4501 147.25 72.3501C146.75 72.2501 146.3 72.1001 145.7 72.1001C144.65 72.0001 143.6 72.1501 142.6 72.4001C142.1 72.5501 141.6 72.7001 141.15 72.9501C140.65 73.1501 140.25 73.4501 139.8 73.7001C138.95 74.3001 138.15 75.0001 137.5 75.8001C136.15 77.3501 135.15 79.2501 134.55 81.1501C133.95 83.0501 133.7 84.9501 133.7 86.8001C133.7 88.6501 134 90.3501 134.45 91.9001C134.9 93.4501 135.55 94.7501 136.2 95.8501C136.9 96.9501 137.6 97.8001 138.3 98.4501C138.65 98.7501 138.95 99.0501 139.25 99.2501C139.55 99.4501 139.75 99.6501 139.95 99.8001C140.35 100.1 140.55 100.3 140.55 100.3L140.3 100.75Z" fill="black"/>
<path d="M156.251 97.35H154.551C154.201 97.35 153.801 97.4 153.351 97.4C152.901 97.45 152.451 97.5 151.951 97.5C151.701 97.5 151.451 97.55 151.201 97.55C150.951 97.6 150.701 97.65 150.401 97.65C149.851 97.75 149.301 97.8 148.751 97.9C148.201 98 147.651 98.1 147.051 98.25C146.501 98.4 145.951 98.5 145.401 98.7C144.851 98.9 144.301 99 143.801 99.2C143.301 99.4 142.801 99.55 142.351 99.75C141.901 99.95 141.451 100.1 141.051 100.3C140.651 100.5 140.301 100.65 140.001 100.8L139.201 101.2C138.751 101.45 138.501 101.6 138.501 101.6L138.651 101.45C138.751 101.35 138.901 101.2 139.101 101.1C139.301 100.95 139.551 100.75 139.851 100.55C140.001 100.45 140.151 100.35 140.301 100.2C140.451 100.1 140.651 100 140.851 99.9C141.251 99.65 141.651 99.45 142.101 99.2C142.551 98.95 143.051 98.75 143.551 98.55C144.051 98.35 144.601 98.15 145.151 97.95C145.701 97.75 146.301 97.65 146.851 97.45C147.401 97.3 148.001 97.2 148.601 97.1C149.151 96.95 149.751 96.95 150.301 96.9C150.601 96.85 150.851 96.85 151.101 96.8H153.251C153.701 96.8 154.101 96.85 154.451 96.9C154.801 96.95 155.101 97 155.351 97C156.001 97.3 156.251 97.35 156.251 97.35ZM125.401 64.6C124.051 64.6 122.651 64.4 120.951 63.9L120.501 63.8C118.601 63.3 115.051 62.35 113.901 60.4C113.551 59.8 113.451 59.1 113.651 58.4C114.251 56.35 115.851 55.6 118.351 56.3C120.001 56.75 121.801 57.8 123.151 58.55C123.601 58.8 124.051 59.05 124.351 59.2C126.651 60.35 128.751 61.35 131.001 61.8L131.201 61.85L131.251 62.05C131.301 62.2 131.351 62.35 130.651 62.95C130.051 63.45 129.551 63.8 128.951 64C128.051 64.35 127.001 64.55 125.751 64.6H125.401ZM116.651 56.8C115.451 56.8 114.751 57.4 114.401 58.6C114.251 59.1 114.301 59.55 114.551 60C115.501 61.65 119.001 62.6 120.651 63.05L121.101 63.15C122.951 63.65 124.401 63.85 125.801 63.8C126.951 63.75 127.951 63.55 128.751 63.25C129.251 63.05 129.701 62.75 130.201 62.35C128.101 61.85 126.151 60.9 124.001 59.85C123.651 59.7 123.251 59.45 122.751 59.15C121.451 58.45 119.701 57.45 118.151 57C117.601 56.9 117.101 56.8 116.651 56.8ZM160.701 68.05C160.401 68.05 160.101 67.85 159.851 67.4C159.351 66.5 158.301 65.9 157.451 65.55C155.851 64.8 154.001 64.3 151.651 63.95C151.251 63.9 150.751 63.9 150.101 63.85C148.751 63.85 147.001 63.8 145.851 63.2C145.051 62.8 144.601 62.15 144.551 61.3C144.451 60.3 144.751 59.45 145.301 58.8C146.351 57.65 148.201 57.45 149.601 57.45C151.351 57.45 153.001 57.8 153.901 58.1C156.901 59.1 159.501 61.7 160.751 64.8L160.801 64.95C161.351 66.25 161.601 67.25 161.201 67.75C161.101 68 160.851 68.05 160.701 68.05ZM149.651 58.2C148.401 58.2 146.751 58.4 145.901 59.35C145.451 59.85 145.251 60.45 145.351 61.25C145.401 61.8 145.701 62.25 146.251 62.5C147.251 63 148.851 63.05 150.151 63.05C150.801 63.05 151.401 63.05 151.801 63.15C154.251 63.55 156.151 64.05 157.801 64.85C158.751 65.3 159.951 65.95 160.551 67.05C160.601 67.15 160.651 67.2 160.701 67.25C160.751 67.05 160.701 66.55 160.151 65.2L160.101 65.05C159.001 62.2 156.501 59.75 153.701 58.8C152.851 58.55 151.301 58.2 149.651 58.2ZM118.901 89.05C116.151 89.05 113.901 86.3 113.901 82.95C113.901 79.6 116.151 76.85 118.901 76.85C121.651 76.85 123.901 79.6 123.901 82.95C123.901 86.3 121.651 89.05 118.901 89.05ZM118.901 77.6C116.551 77.6 114.651 80 114.651 82.95C114.651 85.9 116.551 88.3 118.901 88.3C121.251 88.3 123.151 85.9 123.151 82.95C123.151 80 121.251 77.6 118.901 77.6ZM147.151 95.3C143.701 95.3 140.951 92.05 140.951 88.05C140.951 84.05 143.751 80.8 147.151 80.8C150.551 80.8 153.351 84.05 153.351 88.05C153.351 92.05 150.601 95.3 147.151 95.3ZM147.151 81.55C144.151 81.55 141.701 84.45 141.701 88.05C141.701 91.65 144.151 94.55 147.151 94.55C150.151 94.55 152.601 91.65 152.601 88.05C152.601 84.45 150.151 81.55 147.151 81.55ZM171.001 172C170.801 172 170.601 171.85 170.601 171.6C170.601 171.4 170.751 171.25 170.951 171.25C171.001 171.25 173.951 171.15 176.701 166.5C176.801 166.3 177.051 166.25 177.201 166.35C177.401 166.45 177.451 166.7 177.351 166.85C174.401 171.95 171.201 172 171.001 172Z" fill="black"/>
</g>
<defs>
<clipPath id="clip0_278_430">
<rect width="256" height="256" fill="white"/>
</clipPath>
</defs>
</svg>
