<svg width="256" height="256" viewBox="0 0 256 256" fill="none" xmlns="http://www.w3.org/2000/svg">
<g clip-path="url(#clip0_278_210)">
<path d="M228 12H208C208 16.2435 206.314 20.3131 203.314 23.3137C200.313 26.3143 196.243 28 192 28H168C163.757 28 159.687 26.3143 156.686 23.3137C153.686 20.3131 152 16.2435 152 12H132C127.757 12 123.687 13.6857 120.686 16.6863C117.686 19.6869 116 23.7565 116 28V228C116 232.243 117.686 236.313 120.686 239.314C123.687 242.314 127.757 244 132 244H228C232.243 244 236.313 242.314 239.314 239.314C242.314 236.313 244 232.243 244 228V28C244 23.7565 242.314 19.6869 239.314 16.6863C236.313 13.6857 232.243 12 228 12Z" fill="#DBEAFE"/>
<path d="M168 28H192C196.243 28 200.313 26.3143 203.314 23.3137C206.314 20.3131 208 16.2435 208 12H152C152 16.2435 153.686 20.3131 156.686 23.3137C159.687 26.3143 163.757 28 168 28Z" fill="#93C5FD"/>
<path d="M124 12H28C23.7565 12 19.6869 13.6857 16.6863 16.6863C13.6857 19.6869 12 23.7565 12 28V228C12 232.243 13.6857 236.313 16.6863 239.314C19.6869 242.314 23.7565 244 28 244H124C128.243 244 132.313 242.314 135.314 239.314C138.314 236.313 140 232.243 140 228V28C140 23.7565 138.314 19.6869 135.314 16.6863C132.313 13.6857 128.243 12 124 12Z" fill="#60A5FA"/>
<path d="M21.412 109.872L13.016 22.552C12.3593 24.2941 12.0154 26.1384 12 28V228C12 232.243 13.6857 236.313 16.6863 239.314C19.6869 242.314 23.7565 244 28 244H124C126.84 244 129.464 243.2 131.776 241.904C71.56 224.972 27.452 172.712 21.412 109.872ZM200 124L168 92V108H148V140H168V156L200 124Z" fill="#3B82F6"/>
<path d="M228 8H140C138.939 8 137.922 8.42143 137.172 9.17157C136.421 9.92172 136 10.9391 136 12C136 12.044 136.024 12.08 136.024 12.124C132.579 9.46436 128.352 8.01488 124 8H28C16.972 8 8 16.972 8 28V228C8 239.028 16.972 248 28 248H124C128.352 247.985 132.579 246.536 136.024 243.876C136.024 243.92 136 243.956 136 244C136 245.061 136.421 246.078 137.172 246.828C137.922 247.579 138.939 248 140 248H228C239.028 248 248 239.028 248 228V28C248 16.972 239.028 8 228 8ZM203.264 16C202.442 18.3329 200.918 20.3542 198.901 21.7866C196.884 23.2189 194.474 23.9921 192 24H168C165.526 23.9921 163.116 23.2189 161.099 21.7866C159.082 20.3542 157.558 18.3329 156.736 16H203.264ZM136 228C136 234.616 130.616 240 124 240H28C21.384 240 16 234.616 16 228V28C16 21.384 21.384 16 28 16H124C130.616 16 136 21.384 136 28V228ZM240 228C240 234.616 234.616 240 228 240H140C139.956 240 139.92 240.024 139.876 240.024C142.536 236.579 143.985 232.352 144 228V28C143.985 23.6475 142.536 19.4214 139.876 15.976C139.92 15.976 139.956 16 140 16H148.404C149.333 20.5133 151.789 24.5687 155.358 27.483C158.927 30.3973 163.392 31.9925 168 32H192C196.608 31.9925 201.073 30.3973 204.642 27.483C208.211 24.5687 210.667 20.5133 211.596 16H228C234.616 16 240 21.384 240 28V228Z" fill="#BFDBFE"/>
<path d="M184 224H176C174.939 224 173.922 224.421 173.172 225.172C172.421 225.922 172 226.939 172 228C172 229.061 172.421 230.078 173.172 230.828C173.922 231.579 174.939 232 176 232H184C185.061 232 186.078 231.579 186.828 230.828C187.579 230.078 188 229.061 188 228C188 226.939 187.579 225.922 186.828 225.172C186.078 224.421 185.061 224 184 224ZM224 224H216C214.939 224 213.922 224.421 213.172 225.172C212.421 225.922 212 226.939 212 228C212 229.061 212.421 230.078 213.172 230.828C213.922 231.579 214.939 232 216 232H224C225.061 232 226.078 231.579 226.828 230.828C227.579 230.078 228 229.061 228 228C228 226.939 227.579 225.922 226.828 225.172C226.078 224.421 225.061 224 224 224ZM121.6 68.8L25.6 140.8C25.1798 141.115 24.8257 141.51 24.5581 141.962C24.2905 142.414 24.1145 142.914 24.0402 143.434C23.9659 143.954 23.9948 144.484 24.1252 144.993C24.2555 145.502 24.4848 145.98 24.8 146.4C25.1152 146.82 25.51 147.174 25.962 147.442C26.414 147.71 26.9143 147.886 27.4343 147.96C27.9543 148.034 28.4839 148.005 28.9927 147.875C29.5016 147.744 29.9798 147.515 30.4 147.2L126.4 75.2C126.82 74.8848 127.174 74.49 127.442 74.038C127.71 73.586 127.886 73.0857 127.96 72.5657C128.034 72.0457 128.005 71.5161 127.875 71.0073C127.745 70.4984 127.515 70.0202 127.2 69.6C126.885 69.1798 126.49 68.8257 126.038 68.5581C125.586 68.2905 125.086 68.1145 124.566 68.0402C124.046 67.9659 123.516 67.9948 123.007 68.1251C122.498 68.2555 122.02 68.4848 121.6 68.8ZM170.828 89.172C170.269 88.6128 169.556 88.2319 168.78 88.0777C168.004 87.9234 167.2 88.0026 166.469 88.3053C165.739 88.608 165.114 89.1205 164.674 89.7782C164.235 90.4358 164 91.209 164 92V104H152C150.939 104 149.922 104.421 149.172 105.172C148.421 105.922 148 106.939 148 108C148 109.061 148.421 110.078 149.172 110.828C149.922 111.579 150.939 112 152 112H168C169.061 112 170.078 111.579 170.828 110.828C171.579 110.078 172 109.061 172 108V101.656L194.344 124L172 146.344V140C172 138.939 171.579 137.922 170.828 137.172C170.078 136.421 169.061 136 168 136H152C150.939 136 149.922 136.421 149.172 137.172C148.421 137.922 148 138.939 148 140C148 141.061 148.421 142.078 149.172 142.828C149.922 143.579 150.939 144 152 144H164V156C164 156.791 164.235 157.564 164.674 158.222C165.114 158.879 165.739 159.392 166.469 159.695C167.2 159.997 168.004 160.077 168.78 159.922C169.556 159.768 170.269 159.387 170.828 158.828L202.828 126.828C203.2 126.457 203.495 126.016 203.696 125.531C203.897 125.046 204.001 124.525 204.001 124C204.001 123.475 203.897 122.954 203.696 122.469C203.495 121.984 203.2 121.543 202.828 121.172L170.828 89.172ZM40 36C41.0609 36 42.0783 35.5786 42.8284 34.8284C43.5786 34.0783 44 33.0609 44 32V28C44 26.9391 43.5786 25.9217 42.8284 25.1716C42.0783 24.4214 41.0609 24 40 24C38.9392 24 37.9217 24.4214 37.1716 25.1716C36.4214 25.9217 36 26.9391 36 28V32C36 33.0609 36.4214 34.0783 37.1716 34.8284C37.9217 35.5786 38.9392 36 40 36ZM48 44H52C53.0609 44 54.0783 43.5786 54.8284 42.8284C55.5786 42.0783 56 41.0609 56 40C56 38.9391 55.5786 37.9217 54.8284 37.1716C54.0783 36.4214 53.0609 36 52 36H48C46.9392 36 45.9217 36.4214 45.1716 37.1716C44.4214 37.9217 44 38.9391 44 40C44 41.0609 44.4214 42.0783 45.1716 42.8284C45.9217 43.5786 46.9392 44 48 44ZM40 44C38.9392 44 37.9217 44.4214 37.1716 45.1716C36.4214 45.9217 36 46.9391 36 48V52C36 53.0609 36.4214 54.0783 37.1716 54.8284C37.9217 55.5786 38.9392 56 40 56C41.0609 56 42.0783 55.5786 42.8284 54.8284C43.5786 54.0783 44 53.0609 44 52V48C44 46.9391 43.5786 45.9217 42.8284 45.1716C42.0783 44.4214 41.0609 44 40 44ZM28 44H32C33.0609 44 34.0783 43.5786 34.8284 42.8284C35.5786 42.0783 36 41.0609 36 40C36 38.9391 35.5786 37.9217 34.8284 37.1716C34.0783 36.4214 33.0609 36 32 36H28C26.9392 36 25.9217 36.4214 25.1716 37.1716C24.4214 37.9217 24 38.9391 24 40C24 41.0609 24.4214 42.0783 25.1716 42.8284C25.9217 43.5786 26.9392 44 28 44ZM121.6 108.8L25.6 180.8C24.7513 181.437 24.1902 182.384 24.0402 183.434C23.8902 184.485 24.1635 185.551 24.8 186.4C25.4365 187.249 26.3841 187.81 27.4343 187.96C28.4845 188.11 29.5513 187.837 30.4 187.2L126.4 115.2C126.82 114.885 127.174 114.49 127.442 114.038C127.71 113.586 127.886 113.086 127.96 112.566C128.034 112.046 128.005 111.516 127.875 111.007C127.745 110.498 127.515 110.02 127.2 109.6C126.885 109.18 126.49 108.826 126.038 108.558C125.586 108.29 125.086 108.114 124.566 108.04C124.046 107.966 123.516 107.995 123.007 108.125C122.498 108.256 122.02 108.485 121.6 108.8Z" fill="#BFDBFE"/>
</g>
<defs>
<clipPath id="clip0_278_210">
<rect width="256" height="256" fill="white"/>
</clipPath>
</defs>
</svg>
