<svg width="481" height="346" viewBox="0 0 481 346" fill="none" xmlns="http://www.w3.org/2000/svg">
<path d="M184 207C184 207 232.041 260.314 282.869 294.693C321.734 320.98 349.01 321.843 416.704 326.294C439.58 327.798 475.857 326.294 475.857 326.294" stroke="black" stroke-width="5" stroke-linecap="round" stroke-linejoin="round" stroke-dasharray="20 20"/>
<path d="M437.627 307.934L478.205 325.675L437.627 343.415" stroke="black" stroke-width="5" stroke-linecap="round" stroke-linejoin="round"/>
<path d="M42.1152 42.2146C40.4902 49.0063 38.3652 56.6833 35.7402 65.2458C35.1569 67.1417 34.1882 69.0896 32.834 71.0896C32.1048 72.1938 31.1152 72.7354 29.8652 72.7146C27.5944 72.6729 25.8236 69.85 24.5527 64.2458C24.1361 62.4542 23.709 60.0167 23.2715 56.9333L22.2402 49.9646L19.6777 55.9333L14.9277 68.8396C14.6569 69.6313 14.2611 70.2354 13.7402 70.6521C13.1152 71.8604 12.1152 72.4854 10.7402 72.5271C9.1569 72.5896 7.62565 69.4854 6.14648 63.2146C5.39648 59.9854 4.64648 55.6104 3.89648 50.0896L3.14648 45.4021C2.87565 43.5271 2.74023 41.9542 2.74023 40.6833C2.74023 39.8083 3.04232 39.0896 3.64648 38.5271C4.27148 37.9438 5.02148 37.6521 5.89648 37.6521C7.47982 37.6521 8.45898 38.5167 8.83398 40.2458C9.10482 41.475 9.32357 42.9958 9.49023 44.8083L9.95898 49.4021L11.8027 63.4333C14.1152 57.0167 16.5111 49.6208 18.9902 41.2458C19.6777 38.9333 20.8757 37.7771 22.584 37.7771C24.2298 37.7771 25.3444 39.0688 25.9277 41.6521C26.4694 44.0896 27.1465 47.8396 27.959 52.9021C28.7923 58.1521 29.5319 62.2458 30.1777 65.1833L32.459 56.6833L36.4902 39.6521C36.8027 38.3813 37.6986 37.7458 39.1777 37.7458C40.0527 37.7458 40.8132 38.0479 41.459 38.6521C42.1048 39.2354 42.4277 39.9438 42.4277 40.7771C42.4277 40.8813 42.3236 41.3604 42.1152 42.2146ZM75.9577 72.1208C74.4786 72.1208 73.5098 71.3292 73.0515 69.7458C72.5723 68.0375 72.1348 65.6104 71.739 62.4646C71.364 59.4438 71.1765 56.9646 71.1765 55.0271C71.1765 54.4854 71.1973 53.6625 71.239 52.5583C71.3015 51.4542 71.3327 50.6313 71.3327 50.0896C71.3327 46.1729 70.3536 44.2146 68.3952 44.2146C65.7494 44.2146 63.3848 45.4125 61.3015 47.8083C60.239 49.0375 58.7806 51.3813 56.9265 54.8396C56.9265 62.7771 56.5931 67.475 55.9265 68.9333C55.3431 70.225 54.4369 70.8708 53.2077 70.8708C52.3536 70.8708 51.6036 70.5792 50.9577 69.9958C50.3119 69.4125 49.989 68.7042 49.989 67.8708C49.989 67.5792 50.0827 67.1208 50.2702 66.4958C50.4369 65.975 50.5515 64.4542 50.614 61.9333L50.7077 57.3083L50.8015 34.3396C50.9473 31.7563 51.0202 30.0167 51.0202 29.1208C51.0202 28.0583 50.9161 27.0583 50.7077 26.1208C50.5202 25.1625 50.4265 24.1729 50.4265 23.1521C50.4265 22.2771 50.7286 21.5583 51.3327 20.9958C51.9369 20.4125 52.6765 20.1208 53.5515 20.1208C55.2598 20.1208 56.2598 21.0375 56.5515 22.8708C56.8848 24.8917 57.0515 26.7146 57.0515 28.3396C57.0515 30.5271 56.9786 32.8083 56.8327 35.1833C56.7077 37.4542 56.6556 39.7354 56.6765 42.0271L56.7077 44.7771C58.4161 42.4854 60.239 40.7771 62.1765 39.6521C64.1348 38.5063 66.2077 37.9333 68.3952 37.9333C71.8536 37.9333 74.2286 39.0583 75.5202 41.3083C76.4369 42.8917 76.9577 45.5583 77.0827 49.3083L77.3327 55.2771L77.9577 61.7771C78.2494 64.2146 78.6036 66.3604 79.0202 68.2146C79.1036 68.5688 79.1452 68.8708 79.1452 69.1208C79.1452 69.975 78.8327 70.6833 78.2077 71.2458C77.5827 71.8292 76.8327 72.1208 75.9577 72.1208ZM112.488 72.2458C112.092 72.2458 111.373 71.7875 110.331 70.8708C109.394 70.0167 108.696 69.2563 108.238 68.5896C106.238 69.6729 104.477 70.4854 102.956 71.0271C101.436 71.5896 100.165 71.8708 99.144 71.8708C94.269 71.8708 90.7169 70.4958 88.4877 67.7458C86.3836 65.1625 85.3315 61.2042 85.3315 55.8708C85.3315 50.8292 87.0606 46.5167 90.519 42.9333C93.9981 39.35 98.144 37.5583 102.956 37.5583C104.769 37.5583 106.8 38.0271 109.05 38.9646C111.884 40.1313 113.3 41.5375 113.3 43.1833C113.3 43.7458 113.092 44.2458 112.675 44.6833C112.467 45.475 112.3 46.7771 112.175 48.5896C112.071 50.4021 112.009 52.725 111.988 55.5583C111.967 58.1417 112.144 60.1833 112.519 61.6833C112.727 62.6 113.384 64.4333 114.488 67.1833C114.634 67.5583 114.873 68.1104 115.206 68.8396L115.394 69.3708C115.394 70.2042 115.102 70.8917 114.519 71.4333C113.936 71.975 113.259 72.2458 112.488 72.2458ZM105.988 50.5271C105.988 49.6313 106.04 48.6625 106.144 47.6208C106.269 46.5583 106.446 45.4333 106.675 44.2458C105.904 43.85 105.238 43.5583 104.675 43.3708C104.134 43.1833 103.696 43.0896 103.363 43.0896C100.134 43.0896 97.3419 44.4125 94.9877 47.0583C92.6544 49.6833 91.4877 52.7146 91.4877 56.1521C91.4877 59.5688 92.0919 62.1313 93.3002 63.8396C94.5086 65.5479 96.3211 66.4021 98.7377 66.4021C100.738 66.4021 102.436 66.0375 103.831 65.3083C104.581 64.9125 105.634 64.1208 106.988 62.9333C106.321 57.4125 105.988 53.2771 105.988 50.5271ZM143.018 43.5583C142.58 43.5583 142.059 43.5375 141.455 43.4958C140.872 43.4542 140.361 43.4333 139.924 43.4333C139.445 43.4333 138.028 43.5896 135.674 43.9021L136.268 62.3708L136.299 63.7458L136.33 65.3396C136.414 69.9021 135.32 72.1833 133.049 72.1833C132.216 72.1833 131.486 71.9125 130.861 71.3708C130.257 70.8292 129.955 70.1521 129.955 69.3396C129.955 68.5479 129.986 67.3604 130.049 65.7771C130.111 64.1938 130.143 63.0063 130.143 62.2146L129.518 43.9646C127.997 43.9021 125.684 43.725 122.58 43.4333C120.726 43.1833 119.799 42.1521 119.799 40.3396C119.799 39.4229 120.08 38.6625 120.643 38.0583C121.205 37.4542 121.924 37.1521 122.799 37.1521L129.361 37.6833C129.361 36.6208 129.309 35.2042 129.205 33.4333C129.122 31.6417 129.08 30.35 129.08 29.5583C129.08 28.6833 129.382 27.9646 129.986 27.4021C130.591 26.8188 131.33 26.5271 132.205 26.5271C134.08 26.5271 135.174 28.0583 135.486 31.1208C135.549 31.8917 135.58 32.8188 135.58 33.9021L135.518 35.7146L135.486 37.6521C138.07 37.3188 139.549 37.1521 139.924 37.1521C142.091 37.1521 143.507 37.2563 144.174 37.4646C145.445 37.8813 146.08 38.8604 146.08 40.4021C146.08 41.3188 145.789 42.0792 145.205 42.6833C144.643 43.2667 143.914 43.5583 143.018 43.5583ZM187.265 71.2771C185.182 71.2771 182.89 70.9438 180.39 70.2771L180.328 85.2146C180.328 86.1313 180.036 86.8813 179.453 87.4646C178.89 88.0479 178.161 88.3396 177.265 88.3396C176.369 88.3396 175.63 88.0479 175.046 87.4646C174.484 86.8813 174.203 86.1313 174.203 85.2146L174.296 72.7146V60.2458C174.234 55.6833 174.078 51.5271 173.828 47.7771L173.359 41.4333C173.359 39.9542 173.63 38.7042 174.171 37.6833C174.796 36.4542 175.703 35.8396 176.89 35.8396C177.703 35.8396 178.38 36.1313 178.921 36.7146C179.484 37.2771 179.765 37.975 179.765 38.8083C179.765 38.9958 179.734 39.3396 179.671 39.8396C179.567 40.4854 179.494 41.0792 179.453 41.6208C181.244 40.3917 182.974 39.475 184.64 38.8708C186.307 38.2458 187.901 37.9333 189.421 37.9333C193.692 37.9333 196.817 39.8292 198.796 43.6208C200.359 46.6208 201.14 50.5896 201.14 55.5271C201.14 60.0271 199.932 63.7354 197.515 66.6521C194.953 69.7354 191.536 71.2771 187.265 71.2771ZM189.421 44.1833C187.505 44.1833 185.776 44.6104 184.234 45.4646C183.13 46.0688 181.734 47.1729 180.046 48.7771C180.317 53.5063 180.453 58.475 180.453 63.6833C182.724 64.5583 184.994 64.9958 187.265 64.9958C189.869 64.9958 191.859 64.0271 193.234 62.0896C194.421 60.4021 195.015 58.2146 195.015 55.5271C195.015 51.7354 194.546 48.9021 193.609 47.0271C192.692 45.1313 191.296 44.1833 189.421 44.1833ZM224.108 71.6208C219.399 71.6208 215.587 70.4438 212.67 68.0896C209.483 65.4854 207.889 61.8396 207.889 57.1521C207.889 51.7354 209.201 47.1938 211.826 43.5271C214.681 39.5271 218.493 37.5271 223.264 37.5271C226.722 37.5271 229.545 38.1104 231.733 39.2771C234.42 40.7146 235.764 42.9229 235.764 45.9021C235.764 47.9854 234.587 49.8813 232.233 51.5896C231.191 52.3396 228.983 53.5063 225.608 55.0896L213.67 60.7458C214.837 62.475 216.285 63.7771 218.014 64.6521C219.764 65.5271 221.795 65.9646 224.108 65.9646C225.545 65.9646 227.233 65.6938 229.17 65.1521C231.629 64.4646 233.212 63.5688 233.92 62.4646C234.629 61.3396 235.389 60.7771 236.201 60.7771C236.931 60.7771 237.576 61.0583 238.139 61.6208C238.722 62.1625 239.014 62.7979 239.014 63.5271C239.014 65.8396 237.149 67.8292 233.42 69.4958C230.233 70.9125 227.129 71.6208 224.108 71.6208ZM223.264 43.1521C220.722 43.1521 218.608 44.1417 216.92 46.1208C215.233 48.0792 213.972 51.0375 213.139 54.9958L222.733 50.4333C226.504 48.6 229.191 47.0063 230.795 45.6521C229.004 43.9854 226.493 43.1521 223.264 43.1521ZM257.575 72.0271C254.075 72.0271 251.065 70.7354 248.544 68.1521C245.731 65.2771 244.252 61.4125 244.106 56.5583C243.981 51.85 245.169 47.7042 247.669 44.1208C250.586 39.8917 254.648 37.7771 259.856 37.7771C264.023 37.7771 267.179 39.6833 269.325 43.4958C271.034 46.5792 271.856 50.2875 271.794 54.6208C271.731 59.2458 270.523 63.1938 268.169 66.4646C265.502 70.1729 261.971 72.0271 257.575 72.0271ZM259.45 44.1208C256.388 44.1 254.002 45.5583 252.294 48.4958C250.94 50.85 250.263 53.5375 250.263 56.5583C250.263 59.5792 251.086 61.9333 252.731 63.6208C254.106 65.0167 255.721 65.7146 257.575 65.7146C259.742 65.7146 261.606 64.9229 263.169 63.3396C264.94 61.5896 265.877 59.225 265.981 56.2458C266.273 48.1833 264.096 44.1417 259.45 44.1208ZM294.105 71.2771C292.022 71.2771 289.73 70.9438 287.23 70.2771L287.168 85.2146C287.168 86.1313 286.876 86.8813 286.293 87.4646C285.73 88.0479 285.001 88.3396 284.105 88.3396C283.209 88.3396 282.47 88.0479 281.886 87.4646C281.324 86.8813 281.043 86.1313 281.043 85.2146L281.136 72.7146V60.2458C281.074 55.6833 280.918 51.5271 280.668 47.7771L280.199 41.4333C280.199 39.9542 280.47 38.7042 281.011 37.6833C281.636 36.4542 282.543 35.8396 283.73 35.8396C284.543 35.8396 285.22 36.1313 285.761 36.7146C286.324 37.2771 286.605 37.975 286.605 38.8083C286.605 38.9958 286.574 39.3396 286.511 39.8396C286.407 40.4854 286.334 41.0792 286.293 41.6208C288.084 40.3917 289.814 39.475 291.48 38.8708C293.147 38.2458 294.741 37.9333 296.261 37.9333C300.532 37.9333 303.657 39.8292 305.636 43.6208C307.199 46.6208 307.98 50.5896 307.98 55.5271C307.98 60.0271 306.772 63.7354 304.355 66.6521C301.793 69.7354 298.376 71.2771 294.105 71.2771ZM296.261 44.1833C294.345 44.1833 292.616 44.6104 291.074 45.4646C289.97 46.0688 288.574 47.1729 286.886 48.7771C287.157 53.5063 287.293 58.475 287.293 63.6833C289.564 64.5583 291.834 64.9958 294.105 64.9958C296.709 64.9958 298.699 64.0271 300.074 62.0896C301.261 60.4021 301.855 58.2146 301.855 55.5271C301.855 51.7354 301.386 48.9021 300.449 47.0271C299.532 45.1313 298.136 44.1833 296.261 44.1833ZM324.291 45.6208L323.823 61.1521C323.823 62.7979 323.739 65.2146 323.573 68.4021C323.364 70.4854 322.344 71.5271 320.51 71.5271C318.469 71.5271 317.448 70.4646 317.448 68.3396C317.448 65.8188 317.562 62.0375 317.791 56.9958C318.021 51.9333 318.135 48.1417 318.135 45.6208C318.135 42.3292 318.187 38.5688 318.291 34.3396C318.396 30.0896 318.448 26.3188 318.448 23.0271C318.448 20.9438 319.469 19.9021 321.51 19.9021C323.573 19.9021 324.604 20.9438 324.604 23.0271C324.604 26.3188 324.552 30.0896 324.448 34.3396C324.344 38.5688 324.291 42.3292 324.291 45.6208ZM349.79 71.6208C345.082 71.6208 341.269 70.4438 338.353 68.0896C335.165 65.4854 333.571 61.8396 333.571 57.1521C333.571 51.7354 334.884 47.1938 337.509 43.5271C340.363 39.5271 344.176 37.5271 348.946 37.5271C352.405 37.5271 355.228 38.1104 357.415 39.2771C360.103 40.7146 361.446 42.9229 361.446 45.9021C361.446 47.9854 360.269 49.8813 357.915 51.5896C356.874 52.3396 354.665 53.5063 351.29 55.0896L339.353 60.7458C340.519 62.475 341.967 63.7771 343.696 64.6521C345.446 65.5271 347.478 65.9646 349.79 65.9646C351.228 65.9646 352.915 65.6938 354.853 65.1521C357.311 64.4646 358.894 63.5688 359.603 62.4646C360.311 61.3396 361.071 60.7771 361.884 60.7771C362.613 60.7771 363.259 61.0583 363.821 61.6208C364.405 62.1625 364.696 62.7979 364.696 63.5271C364.696 65.8396 362.832 67.8292 359.103 69.4958C355.915 70.9125 352.811 71.6208 349.79 71.6208ZM348.946 43.1521C346.405 43.1521 344.29 44.1417 342.603 46.1208C340.915 48.0792 339.655 51.0375 338.821 54.9958L348.415 50.4333C352.186 48.6 354.874 47.0063 356.478 45.6521C354.686 43.9854 352.176 43.1521 348.946 43.1521ZM29.1152 161.246C28.7194 161.246 28.0007 160.788 26.959 159.871C26.0215 159.017 25.3236 158.256 24.8652 157.59C22.8652 158.673 21.1048 159.485 19.584 160.027C18.0632 160.59 16.7923 160.871 15.7715 160.871C10.8965 160.871 7.3444 159.496 5.11523 156.746C3.01107 154.163 1.95898 150.204 1.95898 144.871C1.95898 139.829 3.68815 135.517 7.14648 131.933C10.6257 128.35 14.7715 126.558 19.584 126.558C21.3965 126.558 23.4277 127.027 25.6777 127.965C28.5111 129.131 29.9277 130.538 29.9277 132.183C29.9277 132.746 29.7194 133.246 29.3027 133.683C29.0944 134.475 28.9277 135.777 28.8027 137.59C28.6986 139.402 28.6361 141.725 28.6152 144.558C28.5944 147.142 28.7715 149.183 29.1465 150.683C29.3548 151.6 30.0111 153.433 31.1152 156.183C31.2611 156.558 31.5007 157.11 31.834 157.84L32.0215 158.371C32.0215 159.204 31.7298 159.892 31.1465 160.433C30.5632 160.975 29.8861 161.246 29.1152 161.246ZM22.6152 139.527C22.6152 138.631 22.6673 137.663 22.7715 136.621C22.8965 135.558 23.0736 134.433 23.3027 133.246C22.5319 132.85 21.8652 132.558 21.3027 132.371C20.7611 132.183 20.3236 132.09 19.9902 132.09C16.7611 132.09 13.9694 133.413 11.6152 136.058C9.2819 138.683 8.11523 141.715 8.11523 145.152C8.11523 148.569 8.7194 151.131 9.92773 152.84C11.1361 154.548 12.9486 155.402 15.3652 155.402C17.3652 155.402 19.0632 155.038 20.459 154.308C21.209 153.913 22.2611 153.121 23.6152 151.933C22.9486 146.413 22.6152 142.277 22.6152 139.527ZM63.0515 136.09C62.9056 138.694 61.864 139.996 59.9265 139.996C58.1348 139.996 57.239 138.965 57.239 136.902C57.239 136.506 57.2077 135.777 57.1452 134.715L57.0515 132.09C53.7598 132.485 51.1244 133.413 49.1452 134.871C47.2911 136.225 45.7494 138.267 44.5202 140.996L44.5827 158.121C44.5827 160.225 43.5515 161.277 41.489 161.277C39.6556 161.277 38.739 160.225 38.739 158.121V136.183C38.739 135.496 38.7598 134.465 38.8015 133.09C38.864 131.715 38.8952 130.683 38.8952 129.996C38.8952 127.892 39.8119 126.84 41.6452 126.84C43.6869 126.84 44.7181 128.569 44.739 132.027C48.739 128.173 53.1765 126.246 58.0515 126.246C59.739 126.246 60.9994 126.881 61.8327 128.152C62.6661 129.423 63.0827 131.34 63.0827 133.902C63.0827 134.985 63.0723 135.715 63.0515 136.09ZM85.3627 160.621C80.6544 160.621 76.8419 159.444 73.9252 157.09C70.7377 154.485 69.144 150.84 69.144 146.152C69.144 140.735 70.4565 136.194 73.0815 132.527C75.9356 128.527 79.7481 126.527 84.519 126.527C87.9773 126.527 90.8002 127.11 92.9877 128.277C95.6752 129.715 97.019 131.923 97.019 134.902C97.019 136.985 95.8419 138.881 93.4877 140.59C92.4461 141.34 90.2377 142.506 86.8627 144.09L74.9252 149.746C76.0919 151.475 77.5398 152.777 79.269 153.652C81.019 154.527 83.0502 154.965 85.3627 154.965C86.8002 154.965 88.4877 154.694 90.4252 154.152C92.8836 153.465 94.4669 152.569 95.1752 151.465C95.8836 150.34 96.644 149.777 97.4565 149.777C98.1856 149.777 98.8315 150.058 99.394 150.621C99.9773 151.163 100.269 151.798 100.269 152.527C100.269 154.84 98.4044 156.829 94.6752 158.496C91.4877 159.913 88.3836 160.621 85.3627 160.621ZM84.519 132.152C81.9773 132.152 79.8627 133.142 78.1752 135.121C76.4877 137.079 75.2273 140.038 74.394 143.996L83.9877 139.433C87.7586 137.6 90.4461 136.006 92.0502 134.652C90.2586 132.985 87.7481 132.152 84.519 132.152ZM142.11 160.496C138.923 160.496 136.027 159.871 133.423 158.621C132.756 159.621 131.944 160.121 130.985 160.121C130.194 160.121 129.516 159.84 128.954 159.277C128.412 158.735 128.141 158.048 128.141 157.215C128.141 156.673 128.162 155.871 128.204 154.808C128.266 153.746 128.298 152.944 128.298 152.402C128.298 150.194 128.235 146.892 128.11 142.496C128.006 138.079 127.954 134.767 127.954 132.558C127.954 131.038 127.964 128.163 127.985 123.933C128.006 119.683 128.016 116.788 128.016 115.246C128.016 113.996 128.277 112.871 128.798 111.871C129.485 110.6 130.433 109.965 131.641 109.965C133.204 109.965 133.985 110.871 133.985 112.683C133.985 112.975 133.933 113.402 133.829 113.965C133.725 114.527 133.673 114.954 133.673 115.246L133.579 122.09L133.516 130.058C135.329 128.829 137.048 127.913 138.673 127.308C140.319 126.683 141.86 126.371 143.298 126.371C147.777 126.371 151.412 128.09 154.204 131.527C156.829 134.756 158.141 138.725 158.141 143.433C158.141 148.183 156.61 152.215 153.548 155.527C150.485 158.84 146.673 160.496 142.11 160.496ZM143.298 132.277C141.589 132.277 139.839 132.756 138.048 133.715C137.173 134.194 135.673 135.225 133.548 136.808L133.485 142.215L133.516 147.09L133.548 152.215C134.548 152.673 135.954 153.256 137.766 153.965C139.058 154.36 140.506 154.558 142.11 154.558C145.131 154.558 147.61 153.496 149.548 151.371C151.485 149.246 152.454 146.6 152.454 143.433C152.454 140.329 151.673 137.735 150.11 135.652C148.423 133.402 146.152 132.277 143.298 132.277ZM192.296 140.933C192.296 142.433 192.307 144.683 192.328 147.683C192.349 150.683 192.359 152.933 192.359 154.433C192.359 154.892 192.39 155.59 192.453 156.527C192.536 157.465 192.578 158.163 192.578 158.621C192.578 159.517 192.276 160.246 191.671 160.808C191.067 161.392 190.328 161.683 189.453 161.683C187.849 161.683 186.828 160.694 186.39 158.715C183.786 160.069 180.786 160.746 177.39 160.746C174.661 160.746 172.401 160.142 170.609 158.933C168.63 157.6 167.453 155.652 167.078 153.09C166.265 147.569 165.859 142.652 165.859 138.34C165.859 135.485 166.171 132.235 166.796 128.59C167.088 126.777 168.078 125.871 169.765 125.871C170.661 125.871 171.411 126.163 172.015 126.746C172.619 127.308 172.921 128.038 172.921 128.933C172.921 129.892 172.765 131.423 172.453 133.527C172.161 135.631 172.015 137.235 172.015 138.34C172.015 141.819 172.13 144.798 172.359 147.277C172.588 149.756 172.932 151.746 173.39 153.246C174.078 153.621 174.755 153.913 175.421 154.121C176.088 154.308 176.744 154.402 177.39 154.402C180.182 154.402 183.13 153.954 186.234 153.058L186.203 146.715L186.14 140.652C186.14 136.152 186.338 132.246 186.734 128.933C186.963 127.017 187.974 126.058 189.765 126.058C190.661 126.058 191.411 126.35 192.015 126.933C192.619 127.517 192.901 128.246 192.859 129.121L192.296 140.933ZM228.639 131.308L217.826 154.683C215.16 160.371 213.118 165.131 211.701 168.965L209.639 175.027C209.097 176.527 208.16 177.277 206.826 177.277C205.951 177.277 205.191 176.985 204.545 176.402C203.92 175.84 203.608 175.131 203.608 174.277C203.608 172.194 205.858 166.163 210.358 156.183L199.17 134.652L197.764 132.371C197.201 131.413 196.92 130.61 196.92 129.965C196.92 129.11 197.243 128.36 197.889 127.715C198.556 127.069 199.295 126.746 200.108 126.746C201.066 126.746 201.806 127.11 202.326 127.84C205.868 132.756 209.67 139.756 213.733 148.84L218.358 138.058C220.024 134.329 221.629 131.121 223.17 128.433C223.837 127.267 224.712 126.683 225.795 126.683C226.649 126.683 227.399 126.985 228.045 127.59C228.712 128.194 229.045 128.913 229.045 129.746C229.045 130.204 228.91 130.725 228.639 131.308ZM241.95 119.621C240.95 119.621 240.086 119.267 239.356 118.558C238.627 117.85 238.263 116.996 238.263 115.996C238.263 114.996 238.627 114.142 239.356 113.433C240.086 112.725 240.95 112.371 241.95 112.371C242.95 112.371 243.804 112.725 244.513 113.433C245.242 114.142 245.606 114.996 245.606 115.996C245.606 116.996 245.242 117.85 244.513 118.558C243.804 119.267 242.95 119.621 241.95 119.621ZM243.356 144.996C243.356 146.246 243.388 148.121 243.45 150.621C243.534 153.1 243.575 154.965 243.575 156.215C243.575 157.131 243.294 157.881 242.731 158.465C242.169 159.048 241.429 159.34 240.513 159.34C239.617 159.34 238.877 159.048 238.294 158.465C237.731 157.881 237.45 157.131 237.45 156.215C237.45 154.965 237.409 153.1 237.325 150.621C237.263 148.121 237.231 146.246 237.231 144.996C237.231 143.038 237.336 140.6 237.544 137.683C237.752 134.746 237.856 132.298 237.856 130.34C237.856 129.402 238.138 128.642 238.7 128.058C239.284 127.475 240.023 127.183 240.919 127.183C241.815 127.183 242.544 127.475 243.106 128.058C243.69 128.642 243.981 129.402 243.981 130.34C243.981 132.298 243.877 134.746 243.669 137.683C243.461 140.6 243.356 143.038 243.356 144.996ZM279.168 161.402C277.376 161.402 276.366 160.423 276.136 158.465L275.261 151.621C274.97 149.183 274.824 146.902 274.824 144.777C274.824 144.194 274.855 143.204 274.918 141.808C275.001 140.413 275.043 139.423 275.043 138.84C275.043 134.34 274.209 132.09 272.543 132.09C270.209 132.09 267.98 133.475 265.855 136.246C263.939 138.767 262.439 141.954 261.355 145.808C261.314 146.621 261.22 147.642 261.074 148.871C260.949 149.913 260.886 150.923 260.886 151.902C260.886 152.527 260.949 153.465 261.074 154.715C261.199 155.965 261.261 156.902 261.261 157.527C261.261 158.465 260.97 159.225 260.386 159.808C259.824 160.392 259.095 160.683 258.199 160.683C257.282 160.683 256.543 160.392 255.98 159.808C255.418 159.225 255.136 158.465 255.136 157.527C255.136 156.902 255.064 155.965 254.918 154.715C254.793 153.465 254.73 152.527 254.73 151.902C254.73 149.756 254.876 146.788 255.168 142.996C255.48 139.183 255.636 136.204 255.636 134.058C255.636 133.392 255.595 132.402 255.511 131.09C255.449 129.777 255.418 128.788 255.418 128.121C255.418 127.225 255.709 126.496 256.293 125.933C256.897 125.35 257.636 125.058 258.511 125.058C260.428 125.058 261.48 126.413 261.668 129.121L261.761 132.777C265.261 128.11 268.855 125.777 272.543 125.777C275.876 125.777 278.199 127.246 279.511 130.183C280.407 132.142 280.897 135.038 280.98 138.871V142.027L280.949 144.933C280.949 146.663 281.168 148.902 281.605 151.652C282.064 154.381 282.293 156.6 282.293 158.308C282.293 159.225 281.991 159.965 281.386 160.527C280.803 161.11 280.064 161.402 279.168 161.402ZM315.698 145.715L314.979 156.215C314.854 160.381 314.427 163.788 313.698 166.433C312.76 169.808 311.26 172.298 309.198 173.902C306.698 175.84 303.083 176.808 298.354 176.808C295.583 176.808 293.26 176.621 291.385 176.246C288.76 175.725 287.448 174.642 287.448 172.996C287.448 171.142 288.354 170.215 290.166 170.215C290.916 170.215 292.166 170.392 293.916 170.746C295.666 171.121 297.604 171.288 299.729 171.246C303.729 171.183 306.489 169.246 308.01 165.433C309.01 162.892 309.541 158.985 309.604 153.715C308.479 155.798 307.135 157.36 305.573 158.402C304.031 159.444 302.26 159.965 300.26 159.965C296.489 159.965 293.416 158.683 291.041 156.121C288.687 153.538 287.51 150.194 287.51 146.09C287.51 140.465 289.125 135.933 292.354 132.496C295.687 128.954 300.229 127.183 305.979 127.183C307.916 127.183 309.541 127.433 310.854 127.933C312.166 128.433 313.166 129.183 313.854 130.183C316.083 130.246 317.198 131.485 317.198 133.902C317.198 135.381 316.979 137.36 316.541 139.84C316.062 142.715 315.781 144.673 315.698 145.715ZM305.666 132.183C301.708 132.183 298.646 133.548 296.479 136.277C294.541 138.735 293.573 141.86 293.573 145.652C293.573 148.673 294.146 150.944 295.291 152.465C296.437 153.985 298.156 154.746 300.448 154.746C302.552 154.746 304.594 153.558 306.573 151.183C308.364 148.996 309.385 146.829 309.635 144.683C310.073 142.433 310.541 138.902 311.041 134.09C310.208 133.444 309.344 132.965 308.448 132.652C307.552 132.34 306.625 132.183 305.666 132.183Z" fill="black"/>
</svg>
