<svg width="339" height="296" viewBox="0 0 339 296" fill="none" xmlns="http://www.w3.org/2000/svg">
<path d="M167.324 105C167.324 105 177.091 187.85 149.457 227.838C128.326 258.414 105.858 273.583 69.0537 278.76C56.6165 280.509 36.8926 278.76 36.8926 278.76" stroke="black" stroke-width="5" stroke-linecap="round" stroke-linejoin="round" stroke-dasharray="20 20"/>
<path d="M64.5877 265.359L36 279.206L64.5877 293.053" stroke="black" stroke-width="5" stroke-linecap="round" stroke-linejoin="round"/>
<path d="M36.625 30.0312C36.125 30.8229 35.4583 32.0417 34.625 33.6875L29.25 46.9688C27.1667 51.9479 25.2083 56.3021 23.375 60.0312L19.4688 67L17.8125 70.375C17.125 71.5833 16.1979 72.1875 15.0312 72.1875C14.2188 72.1875 13.4792 71.8854 12.8125 71.2812C12.1458 70.6771 11.8125 69.9271 11.8125 69.0312C11.8125 68.3229 12.7917 66.1042 14.75 62.375L18.5938 55.3438C14.8646 50.5312 12.4479 46.7396 11.3438 43.9688C10.4062 41.6146 8.84375 38.7917 6.65625 35.5C3.65625 31 1.89583 28.2812 1.375 27.3438C1.0625 26.7812 0.90625 26.2188 0.90625 25.6562C0.90625 24.7604 1.22917 24.0104 1.875 23.4062C2.54167 22.7812 3.29167 22.4688 4.125 22.4688C5.14583 22.4688 6 22.9583 6.6875 23.9375L9.1875 27.8125C11.3958 31.0833 12.8542 33.3125 13.5625 34.5C15.125 37.0625 16.3438 39.4375 17.2188 41.625C17.9062 43.3542 19.375 45.7188 21.625 48.7188L28.7812 31.2812C29.5938 29.8438 30.7188 27.625 32.1562 24.625C32.7396 23.2083 33.7083 22.5 35.0625 22.5C35.8958 22.5 36.6354 22.7917 37.2812 23.375C37.9479 23.9583 38.2812 24.7083 38.2812 25.625C38.2812 26.5833 37.7292 28.0521 36.625 30.0312ZM58.03 71.8438C54.53 71.8438 51.5196 70.5521 48.9987 67.9688C46.1862 65.0938 44.7071 61.2292 44.5612 56.375C44.4362 51.6667 45.6237 47.5208 48.1237 43.9375C51.0404 39.7083 55.1029 37.5938 60.3112 37.5938C64.4779 37.5938 67.6342 39.5 69.78 43.3125C71.4883 46.3958 72.3112 50.1042 72.2487 54.4375C72.1862 59.0625 70.9779 63.0104 68.6237 66.2812C65.9571 69.9896 62.4258 71.8438 58.03 71.8438ZM59.905 43.9375C56.8425 43.9167 54.4571 45.375 52.7487 48.3125C51.3946 50.6667 50.7175 53.3542 50.7175 56.375C50.7175 59.3958 51.5404 61.75 53.1862 63.4375C54.5612 64.8333 56.1758 65.5312 58.03 65.5312C60.1967 65.5312 62.0612 64.7396 63.6237 63.1562C65.3946 61.4062 66.3321 59.0417 66.4362 56.0625C66.7279 48 64.5508 43.9583 59.905 43.9375ZM106.779 51.75C106.779 53.25 106.789 55.5 106.81 58.5C106.831 61.5 106.841 63.75 106.841 65.25C106.841 65.7083 106.872 66.4062 106.935 67.3438C107.018 68.2812 107.06 68.9792 107.06 69.4375C107.06 70.3333 106.758 71.0625 106.154 71.625C105.55 72.2083 104.81 72.5 103.935 72.5C102.331 72.5 101.31 71.5104 100.872 69.5312C98.2683 70.8854 95.2683 71.5625 91.8725 71.5625C89.1433 71.5625 86.8829 70.9583 85.0912 69.75C83.1121 68.4167 81.935 66.4688 81.56 63.9062C80.7475 58.3854 80.3412 53.4688 80.3412 49.1562C80.3412 46.3021 80.6537 43.0521 81.2787 39.4062C81.5704 37.5938 82.56 36.6875 84.2475 36.6875C85.1433 36.6875 85.8933 36.9792 86.4975 37.5625C87.1017 38.125 87.4037 38.8542 87.4037 39.75C87.4037 40.7083 87.2475 42.2396 86.935 44.3438C86.6433 46.4479 86.4975 48.0521 86.4975 49.1562C86.4975 52.6354 86.6121 55.6146 86.8412 58.0938C87.0704 60.5729 87.4142 62.5625 87.8725 64.0625C88.56 64.4375 89.2371 64.7292 89.9037 64.9375C90.5704 65.125 91.2267 65.2188 91.8725 65.2188C94.6642 65.2188 97.6121 64.7708 100.716 63.875L100.685 57.5312L100.622 51.4688C100.622 46.9688 100.82 43.0625 101.216 39.75C101.445 37.8333 102.456 36.875 104.247 36.875C105.143 36.875 105.893 37.1667 106.497 37.75C107.102 38.3333 107.383 39.0625 107.341 39.9375L106.779 51.75ZM140.184 46.9062C140.038 49.5104 138.996 50.8125 137.059 50.8125C135.267 50.8125 134.371 49.7812 134.371 47.7188C134.371 47.3229 134.34 46.5938 134.277 45.5312L134.184 42.9062C130.892 43.3021 128.257 44.2292 126.277 45.6875C124.423 47.0417 122.882 49.0833 121.652 51.8125L121.715 68.9375C121.715 71.0417 120.684 72.0938 118.621 72.0938C116.788 72.0938 115.871 71.0417 115.871 68.9375V47C115.871 46.3125 115.892 45.2812 115.934 43.9062C115.996 42.5312 116.027 41.5 116.027 40.8125C116.027 38.7083 116.944 37.6562 118.777 37.6562C120.819 37.6562 121.85 39.3854 121.871 42.8438C125.871 38.9896 130.309 37.0625 135.184 37.0625C136.871 37.0625 138.132 37.6979 138.965 38.9688C139.798 40.2396 140.215 42.1562 140.215 44.7188C140.215 45.8021 140.205 46.5312 140.184 46.9062ZM174.275 30.4375C173.275 30.4375 172.41 30.0833 171.681 29.375C170.952 28.6667 170.587 27.8125 170.587 26.8125C170.587 25.8125 170.952 24.9583 171.681 24.25C172.41 23.5417 173.275 23.1875 174.275 23.1875C175.275 23.1875 176.129 23.5417 176.837 24.25C177.567 24.9583 177.931 25.8125 177.931 26.8125C177.931 27.8125 177.567 28.6667 176.837 29.375C176.129 30.0833 175.275 30.4375 174.275 30.4375ZM175.681 55.8125C175.681 57.0625 175.712 58.9375 175.775 61.4375C175.858 63.9167 175.9 65.7812 175.9 67.0312C175.9 67.9479 175.619 68.6979 175.056 69.2812C174.494 69.8646 173.754 70.1562 172.837 70.1562C171.942 70.1562 171.202 69.8646 170.619 69.2812C170.056 68.6979 169.775 67.9479 169.775 67.0312C169.775 65.7812 169.733 63.9167 169.65 61.4375C169.587 58.9375 169.556 57.0625 169.556 55.8125C169.556 53.8542 169.66 51.4167 169.869 48.5C170.077 45.5625 170.181 43.1146 170.181 41.1562C170.181 40.2188 170.462 39.4583 171.025 38.875C171.608 38.2917 172.348 38 173.244 38C174.14 38 174.869 38.2917 175.431 38.875C176.015 39.4583 176.306 40.2188 176.306 41.1562C176.306 43.1146 176.202 45.5625 175.994 48.5C175.785 51.4167 175.681 53.8542 175.681 55.8125ZM227.211 72.5938C225.503 72.5938 224.503 71.6875 224.211 69.875C223.836 67.5833 223.461 64.3542 223.086 60.1875L222.024 50.5C221.815 49.0625 221.461 47.6562 220.961 46.2812C220.253 44.4062 219.482 43.4688 218.649 43.4688C217.878 43.4688 216.44 44.125 214.336 45.4375C212.336 46.6458 211.024 47.6146 210.399 48.3438C210.378 50.3021 210.43 52.2604 210.555 54.2188L211.492 62.5625C211.888 65.8542 212.086 68.5729 212.086 70.7188C212.086 71.6354 211.795 72.3854 211.211 72.9688C210.649 73.5729 209.92 73.875 209.024 73.875C208.128 73.875 207.388 73.5729 206.805 72.9688C206.242 72.3854 205.961 71.6354 205.961 70.7188C205.961 68.1979 205.701 64.4792 205.18 59.5625C204.68 54.625 204.43 50.8958 204.43 48.375C204.43 46.1667 204.117 44.4479 203.492 43.2188C202.034 43.8854 200.555 44.9688 199.055 46.4688L195.367 50.5938C195.034 51.0938 194.503 51.75 193.774 52.5625C193.774 53.8125 193.659 55.6562 193.43 58.0938C193.201 60.5312 193.086 62.3333 193.086 63.5C193.086 64.125 193.18 65 193.367 66.125C193.576 67.25 193.68 68.0625 193.68 68.5625C193.68 69.4167 193.357 70.1354 192.711 70.7188C192.086 71.3021 191.347 71.5938 190.492 71.5938C188.138 71.5938 186.961 68.9167 186.961 63.5625C186.961 62.3125 187.076 60.4479 187.305 57.9688C187.534 55.4896 187.649 53.625 187.649 52.375C187.649 51.2708 187.545 49.6146 187.336 47.4062C187.149 45.1979 187.055 43.5312 187.055 42.4062C187.055 37.6771 188.117 35.3125 190.242 35.3125C191.055 35.3125 191.795 35.6667 192.461 36.375C193.149 37.0833 193.492 37.8542 193.492 38.6875C193.492 39.0833 193.44 39.6979 193.336 40.5312C193.232 41.3646 193.18 42 193.18 42.4375L193.242 45.7188C194.326 43.4896 195.92 41.4792 198.024 39.6875C200.128 37.875 201.92 36.9688 203.399 36.9688C206.67 36.9688 208.92 38.5938 210.149 41.8438C211.295 40.3229 212.659 39.1875 214.242 38.4375C215.826 37.6667 217.638 37.2812 219.68 37.2812C223.159 37.2812 225.534 39.1562 226.805 42.9062C227.055 43.6562 227.482 46.5833 228.086 51.6875C228.67 55.2708 229.42 61.2396 230.336 69.5938C230.399 70.4271 230.117 71.1354 229.492 71.7188C228.867 72.3021 228.107 72.5938 227.211 72.5938ZM262.96 72.0625C262.564 72.0625 261.845 71.6042 260.804 70.6875C259.866 69.8333 259.168 69.0729 258.71 68.4062C256.71 69.4896 254.95 70.3021 253.429 70.8438C251.908 71.4062 250.637 71.6875 249.616 71.6875C244.741 71.6875 241.189 70.3125 238.96 67.5625C236.856 64.9792 235.804 61.0208 235.804 55.6875C235.804 50.6458 237.533 46.3333 240.991 42.75C244.47 39.1667 248.616 37.375 253.429 37.375C255.241 37.375 257.273 37.8438 259.523 38.7812C262.356 39.9479 263.773 41.3542 263.773 43C263.773 43.5625 263.564 44.0625 263.148 44.5C262.939 45.2917 262.773 46.5938 262.648 48.4062C262.543 50.2188 262.481 52.5417 262.46 55.375C262.439 57.9583 262.616 60 262.991 61.5C263.2 62.4167 263.856 64.25 264.96 67C265.106 67.375 265.345 67.9271 265.679 68.6562L265.866 69.1875C265.866 70.0208 265.575 70.7083 264.991 71.25C264.408 71.7917 263.731 72.0625 262.96 72.0625ZM256.46 50.3438C256.46 49.4479 256.512 48.4792 256.616 47.4375C256.741 46.375 256.918 45.25 257.148 44.0625C256.377 43.6667 255.71 43.375 255.148 43.1875C254.606 43 254.168 42.9062 253.835 42.9062C250.606 42.9062 247.814 44.2292 245.46 46.875C243.127 49.5 241.96 52.5312 241.96 55.9688C241.96 59.3854 242.564 61.9479 243.773 63.6562C244.981 65.3646 246.793 66.2188 249.21 66.2188C251.21 66.2188 252.908 65.8542 254.304 65.125C255.054 64.7292 256.106 63.9375 257.46 62.75C256.793 57.2292 256.46 53.0938 256.46 50.3438ZM298.302 56.5312L297.584 67.0312C297.459 71.1979 297.032 74.6042 296.302 77.25C295.365 80.625 293.865 83.1146 291.802 84.7188C289.302 86.6562 285.688 87.625 280.959 87.625C278.188 87.625 275.865 87.4375 273.99 87.0625C271.365 86.5417 270.052 85.4583 270.052 83.8125C270.052 81.9583 270.959 81.0312 272.771 81.0312C273.521 81.0312 274.771 81.2083 276.521 81.5625C278.271 81.9375 280.209 82.1042 282.334 82.0625C286.334 82 289.094 80.0625 290.615 76.25C291.615 73.7083 292.146 69.8021 292.209 64.5312C291.084 66.6146 289.74 68.1771 288.177 69.2188C286.636 70.2604 284.865 70.7812 282.865 70.7812C279.094 70.7812 276.021 69.5 273.646 66.9375C271.292 64.3542 270.115 61.0104 270.115 56.9062C270.115 51.2812 271.73 46.75 274.959 43.3125C278.292 39.7708 282.834 38 288.584 38C290.521 38 292.146 38.25 293.459 38.75C294.771 39.25 295.771 40 296.459 41C298.688 41.0625 299.802 42.3021 299.802 44.7188C299.802 46.1979 299.584 48.1771 299.146 50.6562C298.667 53.5312 298.386 55.4896 298.302 56.5312ZM288.271 43C284.313 43 281.25 44.3646 279.084 47.0938C277.146 49.5521 276.177 52.6771 276.177 56.4688C276.177 59.4896 276.75 61.7604 277.896 63.2812C279.042 64.8021 280.761 65.5625 283.052 65.5625C285.157 65.5625 287.198 64.375 289.177 62C290.969 59.8125 291.99 57.6458 292.24 55.5C292.677 53.25 293.146 49.7188 293.646 44.9062C292.813 44.2604 291.948 43.7812 291.052 43.4688C290.157 43.1562 289.23 43 288.271 43ZM322.457 71.4375C317.749 71.4375 313.937 70.2604 311.02 67.9062C307.832 65.3021 306.239 61.6562 306.239 56.9688C306.239 51.5521 307.551 47.0104 310.176 43.3438C313.03 39.3438 316.843 37.3438 321.614 37.3438C325.072 37.3438 327.895 37.9271 330.082 39.0938C332.77 40.5312 334.114 42.7396 334.114 45.7188C334.114 47.8021 332.937 49.6979 330.582 51.4062C329.541 52.1562 327.332 53.3229 323.957 54.9062L312.02 60.5625C313.187 62.2917 314.635 63.5938 316.364 64.4688C318.114 65.3438 320.145 65.7812 322.457 65.7812C323.895 65.7812 325.582 65.5104 327.52 64.9688C329.978 64.2812 331.562 63.3854 332.27 62.2812C332.978 61.1562 333.739 60.5938 334.551 60.5938C335.28 60.5938 335.926 60.875 336.489 61.4375C337.072 61.9792 337.364 62.6146 337.364 63.3438C337.364 65.6562 335.499 67.6458 331.77 69.3125C328.582 70.7292 325.478 71.4375 322.457 71.4375ZM321.614 42.9688C319.072 42.9688 316.957 43.9583 315.27 45.9375C313.582 47.8958 312.322 50.8542 311.489 54.8125L321.082 50.25C324.853 48.4167 327.541 46.8229 329.145 45.4688C327.353 43.8021 324.843 42.9688 321.614 42.9688Z" fill="black"/>
</svg>
