<svg id="SvgjsSvg1001" width="256" height="256" xmlns="http://www.w3.org/2000/svg" version="1.1" xmlns:xlink="http://www.w3.org/1999/xlink" xmlns:svgjs="http://svgjs.com/svgjs">
    <defs id="SvgjsDefs1002"></defs>
    <g id="SvgjsG1008">
        <svg xmlns="http://www.w3.org/2000/svg" viewBox="0 0 512 512" width="256" height="256">
            <path fill="#eff6ff" d="M359.1 158.7c0-16.5-12.4-30-27.6-30-15.2 0-27.6 13.4-27.6 30 0 12.9 8.2 24.8 19.4 28.9 4.9-2.9 13.5-6.4 27.4-6.5 5.5-5.7 8.4-14.1 8.4-22.4z" class="colorfff svgShape"></path>
            <path fill="#93c5fd" d="M169.2 243.7c-1.4 3.8-4.3 9.3-10.6 16.4-5.6 6.4-10.6 11.3-14.5 14.9-5.3 4.8-8.9 7.2-9.9 7.8-1.7-2.7-2.8-5.7-3.9-9.2-4.4-14.4-3.6-31.3-3.5-33.7.7-.1 1.5-.2 2.2-.4.1 0 .2-.1.3-.2v-.2c0-.2-.2-.3-.4-.3-13.3 2.9-30.9-.2-46.2-4.9h-.1c-13.2-4.1-24.6-9.3-29.7-12.8-4-2.7-5.7-5.2-5.1-7.3.5-1.8 2.8-3.2 6.3-3.9 1.7-.4 3.7-.6 5.9-.7 6.3-.1 14.6.2 20.9.6.3 0 .6 0 .9.1.1-.3.1-.5.2-.7-.3 0-.7 0-1-.1-1-.8-9-7.2-15.3-15.9-2.2-3-4.1-6.2-5.5-9.6-2-4.9-2-8.4.1-10 2-1.6 5.9-1.3 10.1.5 1.6.7 3.3 1.6 5 2.8 5.2 3.7 11.6 9 16.1 13.1 0 .1.1.1.2.2.4.4.8.7 1.2 1.1l.7-.4c-.4-.4-.9-.8-1.4-1.3-.8-4.5-.6-8.7.6-12.4 1-3 2.7-5.7 5.1-7.9 5-4.7 12.2-6.6 18.8-5 5.3 1.3 8.1 4.8 9.1 8.4.3 1.1.5 2.3.5 3.4 0 .4 0 .8-.1 1.2-.2.7-.3 1.5-.4 2.2-.9 3.2-3 5.6-6 6.4-2.8.8-5.5.7-8.1.2l-.4.4-.2.2c.4.1.8.1 1.2.2.2 1.6 1.3 10.5 7.5 15.8 3.1 2.7 7.1 4 11.8 4 .7 0 1.5 0 2.2-.1v1.1l.3-.4.4-.5c.2-8.2 5.9-13.6 6.5-14.2h.4v-.6c-5.8.2-10.5-1.6-13.1-5.4-1.4-2.1-2-4.6-1.8-7.1.1-.4.2-.9.3-1.4 0-.2.1-.5.1-.7.4-1.4.9-2.9 1.8-4.2 2.8-4.5 9.2-6.8 16.2-6 4.1.5 7.9 2 11 4.3 3.7 2.7 6.5 6.5 8.1 11.2 3 8.8.2 15.2-2.4 21.3-1.7 4-3.5 8.1-3.6 12.9v.2c-.1 3 .5 6.2 2.1 9.9 2 4.7 5.2 7.9 9.6 9.5h.1c.4.5 1 2.8-.6 7.2zm288.4 115c-2.2 2.3-4.5 3.8-6 4.7-2.8 1.8-6.3 3.4-10 5.1-4.2 1.9-8.5 3.9-12.1 6.3 0 .1.1.3.1.4 0 .2.1.4.2.7 1.2-.4 2.8-.7 4.4 0 1 .4 1.8 1.1 2.5 2.1s1.2 2.2 1.6 3.8c1 4.1-.1 8.2-3.2 11.5-2.2 2.4-5.2 4-8.3 4.7-2.2.5-4.4.5-6.5.1-5-1-9.1-3.9-11.4-7.8-1.9-3.4-2.3-7.2-1-10.7 1.9-5.1 3.4-9.9 4.5-13.9 4.1-15.1 5.2-26.4 4.9-38 .8-.8 5.3-5.2 11.6-6.7h.1c.1 0 .2-.1.3-.1 1.3-.3 2.6-.4 4-.4 9.3-.2 22.2 20.2 24.3 38.2z" class="colorec4a3b svgShape"></path>
            <path fill="#3b82f6" d="M416.5 334.2c-.2 7.1-1 14.3-2.8 22.6-.6 2.7-1.3 5.6-2.1 8.5-5.3 19.5-27 67-40.9 95.9-.2.2-.4.5-.7.7-4.4-1.5-9.5-2.7-14.8-3.4-6-.9-12.2-1.3-18.1-1.4-6.1-.1-7.7-.1-11.1.4-.5.1-1.1.1-1.8.3-.2-.1-6.4.6-6.5.6.3-8.9.9-23.4.7-33.5.4 0 1.2-.1 2.1-.1l-.7-.7c-1.1.1-1.8.1-1.8.1-13 0-25.1-1-36.2-2.9h-.1s-.3.1-.7.3c-1-.1-2.1-.3-3.1-.5-.2 0-.3-.1-.5-.1-1-.2-1.9-.3-2.9-.5s-2-.4-2.9-.6c-2.1-.5-4.2-1-6.2-1.5-.8-.2-1.7-.5-2.5-.7l-.9-.3c-.8-.2-1.5-.5-2.3-.7-.8-.3-1.7-.5-2.5-.8-10.1-3.5-18.2-7.8-24.1-11.3-.3-.2-.6-.4-.9-.5-1.5-.9-2.9-1.8-4-2.6-.2-.1-.3-.2-.5-.3-1.2-.8-2.1-1.5-2.9-2.1-.1-.1-.2-.1-.3-.2v-.5c-8.3-6.5-15.4-14.2-21.1-23-8.6-13.4-13.8-29-16.4-45.8 2.3-.7 4.4-1.7 6.3-2.9.5-.3 1-.7 1.5-1.1 9.6-7.1 14.6-21.2 15.3-42.6 37.5 15.3 69.9 21.9 95.5 24.2 8.3.7 16 1 22.8 1 14.9 0 26.3-1.4 33.4-2.7-1.3 6.7-2.4 13.9-3.1 21.4 0 22.6 8 29.8 12.7 32.1 1.6.8 3.3 1.2 5 1.3h1.1c3.7 0 7.5-1.4 10.9-4.1 4.5-3.6 8.9-10.2 9.9-19 .2-1.9.3-3.8.1-5.8 1.4 3.6 4.4 8.6 9.7 9.1 2.3.2 4.2-.4 5.6-1.7 1.6-1.5 2.4-3 2.8-4.6z" class="color3193f6 svgShape"></path>
            <path fill="#8cb0dc" d="m422.7 158.7-.3 1.3c-1.1 5.3-2.6 10.8-4.3 16.6-3.5 12.4-7.5 26.4-9.4 46.4-.3 3.7-.5 7.6-.5 11.8-4.5 1.6-11.6 5.2-19.1 12.6-10.2 10.1-21 27.4-26.9 56.9-20.4 3.7-75.5 8.7-151.9-22.6.4-12.9-.8-27.1-2-39.2-1.1-10.7-3-17.9-5.8-21.5-.5-.7-1.1-1.2-1.6-1.6-1.2-.8-2.4-1.1-3.7-.9 8-30.5 18.9-59.9 29.3-84.7 3.1-7.4 6.2-14.4 9.1-20.8.1-.3.3-.6.4-.9 10.5-23 19-38.8 21-42.4 2.2.7 4.4 1.6 6.5 2.4 7.2 3 14.6 6.3 21.8 9.4 2.1.9 4.3 1.9 6.4 2.8 22.8 10 46.3 19.7 70.9 21.8 3.3.3 6.7.4 10.1.4 6.4 0 13-.5 19.8-1.4h.2c.1-.1.3-.2.4-.3 8.7 9.2 15 18.4 19.5 26.9 5.9 11.1 8.8 20.7 10.1 27z" class="colorafdc8c svgShape"></path>
            <path fill="#eff6ff" d="M282.1 158.3c4.6-9.7 1.3-20.8-7.3-24.9-4.2-2-8.9-2-13.4-.1s-8.2 5.5-10.5 10.2c-3.3 6.9-2.6 14.9 1.6 20.4 3.9.8 8.9 2.5 13 6 7-.2 13.4-4.8 16.6-11.6z" class="colorfff svgShape"></path>
            <path fill="#285cb2" d="M393.8 104.4c20.1 21.1 27.2 42.8 29.7 54 20.2-35 20.5-74.3.7-116.9-3-2.7-6.1-5.2-9.2-7.6 0 6.6-.1 53.8-21.2 70.5z" class="colorb22828 svgShape"></path>
            <path fill="#93c5fd" d="M392.6 104.3c-.1.1-.2.1-.3.2-10.4 1.4-20.4 1.7-29.7 1-26.9-2.2-52.4-13.6-77.1-24.5-7.2-3.2-14.6-6.5-21.8-9.4-1.7-.7-3.4-1.3-5.1-1.9l-1.8-.6c-16.7-5.7-30.9-6.4-42.4-4.8-1.8.3-3.6.6-5.3.9-5.3 1.2-10 2.8-13.9 4.6-.1 0-.2.1-.3.1 6.7-6.9 25-15.2 72.5-18.2 2.6.3 5.1.6 7.6.9 31.7 4.3 58.8 12.5 81.2 24.6 14.2 7.4 26.3 16.5 36.4 27.1z" class="colorec4a3b svgShape"></path>
            <path fill="#285cb2" d="M194.2 70.1c-3.4 3.2-4.2 8.2-3 12.3 3.9 12.6 26.3 24.8 44.5 30.5 10.4-22.9 19-39.8 21.1-43.6-28.7-9.8-52.9-5.6-62.6.8z" class="colorb22828 svgShape"></path>
            <path fill="#8cb0dc" d="M410.1 263.6v-.1.1zm3.5 74.3c-1.3 1.2-2.9 1.7-5 1.5-3.8-.4-6.3-3.4-7.9-6.3-1.6-2.9-2.2-5.8-2.2-5.8-.1-.8-.3-1.6-.4-2.4.3-5.3.1-11.2-.1-17.6-.3-10.3-1.2-20.2.5-30.3.3-1.3.4-4.3 1.5-6.8 0-1 .9-2.8.9-2.8 1.7-5.6 4.3-9.8 8.2-14 .2 3.1.8 5.9 1.1 9.1 0 .3-.1.4-.1.6V263.4c.8 9 1.7 18.2 2.7 25.9l.1 1.3c.3 2.8.7 5.5 1 8.1 1.3 10.7 2.4 19.7 2.7 28.4v.2c0 1.9 0 7.8-3 10.6z" class="colorafdc8c svgShape"></path>
            <path fill="#3b82f6" d="M398 276.7c-1.5 9.9-1.2 20.6-.9 30.7.2 6.3.4 12.3.1 17.5 2.5 11-.4 20-4.6 25.7-.2.3-.4.6-.6.8-1.2 1.5-2.4 2.7-3.7 3.7l-.1.1c-.8.6-1.6 1.2-2.5 1.7-4.5 2.5-9.4 2.9-13.6.8-4.6-2.2-12.3-9.3-12.3-31.4.7-7.6 1.8-14.9 3.2-21.8 2-9.9 4.5-18.4 7.3-25.7 5.6-14.4 12.5-24.2 19.2-30.9 7.3-7.4 14.3-10.9 18.8-12.6 0 5.4.3 11.2.6 17-6.1 6.1-9.2 14.3-10.7 23.2-.1.8-.2 1.1-.2 1.2z" class="color3193f6 svgShape"></path>
            <path d="M319.4 223.8c-7.4 0-15.6-1.1-24.5-3.2-11.5-2.8-22.2-6.9-29.9-10.2.3.3.5.7.7 1.2.9 2.1.7 4.9-.8 8.2-3.2 7.4-9.8 11.2-11.7 12.2 5.8 4.7 14.2 10.6 24.2 14.6 3.8-7.5 12.5-12.3 22.3-12.3 9.4 0 18 4.6 22 11.7 18.2-8.4 28.6-24.7 34.1-36.9-8.1 9.8-20.4 14.7-36.4 14.7z" fill="#000000" class="color000 svgShape"></path>
            <path fill="#2755a0" d="M299.8 235c-9.4 0-17.9 4.6-21.6 11.8.3.1.6.2.8.3.5.2 1 .4 1.4.5.2.1.5.2.7.2.6.2 1.2.4 1.7.6.1 0 .1 0 .2.1 11 3.3 21.8 3.4 31.9.1 1.1-.3 2.1-.7 3.1-1.1.3-.1.7-.3 1-.4.6-.3 1.3-.5 1.9-.8-3.7-6.9-12-11.3-21.1-11.3z" class="colora02727 svgShape"></path>
            <path fill="#eff6ff" d="M361.1 194.7c-.3 1.4-1.2 4.5-2.7 8.6-.4 1-.8 2-1.2 3.1-14.3 20-41.6 18.4-62 13.5-20.9-5-39-14.4-41.3-15.6l3.3-16.2.6-2.7c5.8 3.2 12.9 6.6 21 9.6 20.5 7.5 51.5 13.7 82.3-.3z" class="colorfff svgShape"></path>
            <path fill="#4f5c72" d="M332.7 113.1c.5 0 1.2-.1 1.9-.3.1 0 2-.4 4.7-.4 4.4 0 10.5.9 14.9 5.1 3.7 3.5 5.5 4.3 6.3 4.3.3 0 .5-.1.6-.3.2-.3.6-1.2 0-3.7-.7-3.4-3.6-11.3-15.1-11.3h-.5c-7.6.2-14 4.5-14 6.1.2.4.9.5 1.2.5z" class="color4f7258 svgShape"></path>
            <path fill="#3b82f6" d="M209.7 282c-.6 20.3-5 33.9-13.5 41.3-.9.8-1.8 1.5-2.8 2.1-1.9 1.3-4 2.3-6.3 3-1.2-8-1.8-16.3-1.9-24.8v-.1c-.3-22.3 3-45.9 8.2-69.2 0-.1.1-.1 0-.2 1.1-4.9 2.3-9.9 3.6-14.8 1.2-.2 2.4 0 3.5.8.6.5 1.2 1.1 1.8 1.9.9 1.3 1.8 3.1 2.5 5.4 1.2 3.8 2.2 8.9 2.8 15.3 1.3 12.1 2.5 26.3 2.1 39.3z" class="color3193f6 svgShape"></path>
            <ellipse cx="270.9" cy="154.9" rx="10.3" ry="7" transform="rotate(-75.925 270.853 154.926)" fill="#000000" class="color000 svgShape"></ellipse>
            <path fill="#eff6ff" d="M359.1 158.7c0-16.5-12.4-30-27.6-30-15.2 0-27.6 13.4-27.6 30 0 12.9 8.2 24.8 19.4 28.9 4.9-2.9 13.5-6.4 27.4-6.5 5.5-5.7 8.4-14.1 8.4-22.4zm-24.1 16c-5.5 0-10-5.8-10-13 0-7.1 4.5-13 10-13s10 5.8 10 13c.1 7.2-4.5 13-10 13z" class="colorfff svgShape"></path>
            <path fill="#4f5c72" d="M261.3 117.8s1.3-.1 3.4-.1c4.9 0 14 .4 20 2.8 2.2.9 3.5.8 3.7-.4.3-2.5-3.9-8.6-10.2-10.1-.8-.2-1.7-.3-2.7-.3-7.3 0-16.4 5.3-16.5 7.3 0 .5.8.8 2.3.8z" class="color4f7258 svgShape"></path>
            <path fill="#8cb0dc" d="M192.5 234.6c-1 4.4-1.9 8.8-2.7 13.2-2.3 12.2-4 24.4-4.8 36.4-.4 6.4-.7 12.7-.6 18.8-32.3-5.5-44.1-11-49.8-19.6 1-.6 4.6-3.1 10-7.9 4-3.6 8.9-8.4 14.5-14.9 6.2-7.2 9.3-12.6 10.7-16.5 1.4-3.9 1.3-6.3 1-7.4 2.2.7 4.5 1 6.8 1 6.7.1 12.9-2.2 14.9-3.1z" class="colorafdc8c svgShape"></path>
            <path fill="#93c5fd" d="M393.2 103.8C383.1 93.3 371 84.2 357 76.6c-21.8-11.8-48.1-20-78.8-24.5-3.3-.5-6.6-.9-10-1.3 2.6-4.5 23.5-40.1 33-46.7 5.2-3.6 24.6-4.4 47.9.5 4.3.9 9.6 2.2 15.6 4.1 6.7 2.1 14.3 4.9 22.2 8.5 8.8 4.1 18.1 9.3 27.1 16 .2 3.5 1 53.6-20.8 70.6z" class="colorec4a3b svgShape"></path>
            <path fill="#8cb0dc" d="M458.3 358c-2.5-18.5-15.3-38.4-25-38.4-1.4 0-2.7.1-3.9.4-6 1.2-10.6 5.1-12.1 6.6-.3-8.6-1.4-17.3-2.7-27.8-.3-2.6-.7-5.3-1-8.1l-.2-1.3c-.9-7.7-2-16.4-2.8-25.4 2.6.8 6.3 2.7 10.5 5.7 12.1 8.7 28.5 25.9 37.7 48 9.4 22.4 4.9 34.1-.5 40.3z" class="colorafdc8c svgShape"></path>
            <path fill="#93c5fd" d="M400.7 15.2c-4.1-2.3-7.1-3.7-9.7-3-1.8.5-3.4 1.8-4.6 4 6.9 3.8 13.7 6.2 18.8 10.6 2.3-4.9 2.9-7.4-4.5-11.6z" class="colorec4a3b svgShape"></path>
            <ellipse cx="335.2" cy="163" rx="10.4" ry="14.2" fill="#000000" class="color000 svgShape"></ellipse>
            <path fill="#3b82f6" d="m282.8 421.7-22.3 41.2c-.3-.2-.5-.3-.8-.5-1.4-.8-4.6-2.7-9.6-5.3-6.7-3.5-16.6-8.2-29.3-13.2-2.6-1-5.3-2.1-8.2-3.1-.1 0-.2-.1-.2-.1s8.8-25.1 10.2-43.4v-.4s.7.6 2 1.6c.1.1.2.1.3.2h.1c.8.6 1.8 1.3 2.9 2.1.1.1.3.2.5.3 1.2.8 2.5 1.7 4 2.6.3.2.6.4.9.5.4.2.7.4 1.1.7.4.2.8.5 1.2.7 5.7 3.3 13.1 7 22.1 10.1.7.2 1.4.5 2.1.7 1 .3 2.1.7 3.1 1 .8.2 1.6.5 2.5.7.9.3 1.9.5 2.9.7.1 0 .2.1.3.1 1 .3 2 .5 3 .7 1 .2 1.9.4 2.9.6 1 .2 1.9.4 2.9.5.2 0 .3.1.5.1 1 .2 2.1.3 3.1.5.7.3 1.3.4 1.8.4z" class="color3193f6 svgShape"></path>
            <path fill="#8cb0dc" d="M383.8 511.3s-19.2.1-38.4-2.4c-7.4-1-14.8-2.4-21.1-4.3-3.5-1.1-6.7-2.3-9.4-3.8l1.8-21 1.1-21.2s3-.6 8.3-1c6.6-.5 16.7-.7 29.1 1.2 4.7.7 9.7 1.7 14.9 3.1l-12.8 26.5c-.1 0 19.9 9.1 26.5 22.9zm-123.2-48.4L244 493.5s-22.5 2.5-51.1-.1c-8.6-.8-17.7-2-26.9-4 0 0 .5-.6 1.5-1.5 3.8-3.5 14.8-12 33.4-15.8l11.6-31.3s.1 0 .2.1c.7.3 3.8 1.3 8.2 2.9 7.4 2.8 18.6 7.3 29.4 13.1 3.2 1.7 6.4 3.6 9.5 5.5.3.1.5.3.8.5z" class="colorafdc8c svgShape"></path>
            <path fill="#285cb2" d="M404.6 26.4c-1.3-.8-2.7-1.5-4.1-2.3 2-2.2 2.8-4.9 3-7.3 1.1 1 2 2.2 2.5 3.8.7 1.8 0 3.8-1.4 5.8z" class="colorb22828 svgShape"></path>
            <path fill="#bfdbfe" d="M361.1 194.7c-.3 1.4-1.2 4.5-2.7 8.6-45.1 20.8-96.6-9.1-101.5-12.4l1-5.5c5.8 3.2 12.9 6.6 21 9.6 20.4 7.5 51.4 13.7 82.2-.3z" class="colorcecece svgShape"></path>
            <path fill="#6d7d90" d="M284.8 160.1c-3.1 6.8-11 11.8-17.7 12.1-2.8-2.4-5.3-4.3-7.9-5.4-1.1-.5-2.2-.9-3.4-1.1-.3-.4-.5-.7-.8-1.1 2.8.8 5.8 2 8.7 4 6.8-.3 13.2-4.9 16.3-11.6 3.8-7.9 2.2-16.9-3.2-22.1.3.1.5.2.8.4 8.5 4 11.7 15.1 7.2 24.8zm42.6 27.1c.1.1.3.1.4.2.5-.3 1-.6 1.6-.9-.6.3-1.3.5-2 .7zm9.3-57.9h-.5c10.9 4.4 18.7 16.5 18.7 30.8 0 7.5-3.1 15.2-7.4 21.1-.1.2-.2.3-.4.5 2.2-.2 4.5-.3 7.1-.3 5.5-5.6 9.6-14.4 9.6-22.5-.1-16.1-12.2-29.3-27.1-29.6z" class="color6d9077 svgShape"></path>
            <path fill="#c5c9cf" d="M336.7 129.3c-.3-.1-.6-.1-.9-.2.1 0 .3.1.4.1 10.9 4.4 18.7 16.5 18.7 30.8 0 7.5-3.1 15.2-7.4 21.1 1 0 2.1-.1 3.3-.1 5.5-5.7 8.4-14.2 8.4-22.4-.1-14.5-9.8-26.7-22.5-29.3zm-54.6 29c-3.2 6.8-9.7 11.3-16.5 11.6-.6-.5-1.2-1-1.9-1.4 6.8-.3 13.2-4.9 16.3-11.6 3.8-7.9 2.2-16.9-3.2-22.1-.3-.2-.5-.5-.8-.7.5.3 1.1.7 1.5 1 6.6 5 8.7 14.7 4.6 23.2z" class="colorcfc5cc svgShape"></path>
            <path fill="#eff6ff" d="M263.7 168.5h-.1c-1.1-1-2.7-1.5-4.4-1.7-1.1-.5-2.2-.9-3.4-1.1-.3-.4-.5-.7-.8-1.1 2.8.7 5.9 2 8.7 3.9z" class="colorfff svgShape"></path>
            <path fill="#0d3d8c" d="M378.9 338.3c-3.7 0-6.8 3-6.8 6.8s3 6.8 6.8 6.8c3.7 0 6.8-3 6.8-6.8s-3-6.8-6.8-6.8zm-1 9.5c-.5.5-1.2.5-1.7 0s-.5-1.2 0-1.7 1.2-.5 1.7 0 .5 1.3 0 1.7zm0-3.7c-.5.5-1.2.5-1.7 0s-.5-1.2 0-1.7 1.2-.5 1.7 0 .5 1.2 0 1.7zm3.8 3.7c-.5.5-1.2.5-1.7 0s-.5-1.2 0-1.7 1.2-.5 1.7 0c.4.5.4 1.3 0 1.7zm0-3.7c-.5.5-1.2.5-1.7 0s-.5-1.2 0-1.7 1.2-.5 1.7 0c.4.5.4 1.2 0 1.7z" class="color0d418c svgShape"></path>
            <path fill="#6d7d90" d="M291.7 84.4c-7-1.6-14.4-3.2-21.6-2.7-8.8.6-13 7.4-18.3 13.5-5 5.8-10.3 11.3-15.7 16.7C246.5 89.1 255 73.3 257 69.7c2.2.7 4.4 1.6 6.5 2.4 7.2 3 14.6 6.3 21.8 9.4 2.1 1 4.3 2 6.4 2.9zm124.8 243c.1 1.7.1 7.6-2.9 10.5-1.3 1.2-2.9 1.7-5 1.5-3.8-.4-6.3-3.4-7.9-6.3-1.6-2.9-2.2-5.8-2.2-5.8-.1-.8-.3-1.6-.4-2.4.3-5.3.1-11.2-.1-17.6-.3-10.3-1.2-20.2.5-30.3.3-1.3.4-4.3 1.5-6.8 0-1 .9-2.8.9-2.8 1.7-5.6 4.3-9.8 8.2-14 .2 3.1.8 5.9 1.1 9.1 0 .3-.1.4-.1.6v.4-.1c.8 9 1.7 18.2 2.7 25.9l.1 1.3c.3 2.8.7 5.5 1 8.1 1.3 10.7 2.4 19.7 2.7 28.4l-.1.3zm6.2-168.7-.3 1.3c-1.1 5.3-2.6 10.8-4.3 16.6-3.5 12.4-7.5 26.4-9.4 46.4-.3 3.7-.5 7.6-.5 11.8-4.3 1.6-11.1 4.9-18.3 11.9 2.6-49.3 15.8-89 24.7-110.8 4.6 9.2 6.9 17.3 8.1 22.8zm6.7 161.3c-6 1.2-10.6 5.1-12.1 6.6-.3-8.6-1.4-17.3-2.7-27.8-.3-2.6-.7-5.3-1-8.1l-.2-1.3c-.9-7.7-2-16.4-2.8-25.4 2.6.8 3 .5 7.1 3.5 8.7 22.6 10.3 35.2 11.7 52.5zm-45.6 191.3s-15.5-.3-36.2-2.1c-5.7-10.9-2.8-18.1 3.4-31.4 2.8-6.1 5.9-12.1 8.8-18.1 1.7.4 6.3 1.5 10.2 2.5l-12.7 26.2c-.1 0 19.9 9.1 26.5 22.9z" class="color6d9077 svgShape"></path>
            <path fill="#1851ad" d="M416.5 334.2c-.2 7.1-1 14.3-2.8 22.6-.6 2.7-1.3 5.6-2.1 8.5-5.3 19.5-27 67-40.9 95.9l-.6.6c-3.2-1.1-7.3-2.3-10.3-2.4 3.1-6.4 6.1-12.9 9.1-19.3 3-6.3 6-12.7 8.8-19 4.1-9.2 8.1-18.6 11.6-28 3.8-10 9.1-25.1 11.9-38.8-7.5 9.2-18.7 8.2-24.6 5.7h1.1c3.7 0 7.5-1.4 10.9-4.1 4.5-3.6 8.9-10.2 9.9-19 .2-1.9.3-3.8.1-5.8 1.4 3.6 4.4 8.6 9.7 9.1 2.3.2 4.2-.4 5.6-1.7 1.4-1.2 2.2-2.7 2.6-4.3zm-56.6 125.3c0 .1 0 .1-.1.2-.4-.1-.6-.2-.6-.2h.7z" class="color1871ad svgShape"></path>
            <path fill="#6d7d90" d="M250.1 457.3c3.1 1.6 7.4 4 10.4 5.8L244 493.5s-22.5 2.5-51.1-.1c5.1-.4 13.3-1.9 14.2-2 8.9-1.3 19.6-4.4 26.7-10.3 5.9-4.8 8.5-9.9 12.2-16.5 1.4-2.5 2.8-4.9 4.1-7.3z" class="color6d9077 svgShape"></path>
            <path fill="#1851ad" d="m282.8 421.7-22 40.7c-2.8-1.8-6.9-4.2-10.5-5.7 2.9-5.6 5.3-11.5 5.6-18 .2-4.4-1.1-9.2-3.4-12.9-2.8-4.5-6.9-8.4-10.9-11.8-3-2.5-6.1-5-9-7.7-1.5-1.4-2.9-2.9-4.1-4.5-.1-.1-.3-.5-.6-.9 8.5 5.9 27.1 16.8 53.2 20.6.6.1 1.2.2 1.7.2z" class="color1871ad svgShape"></path>
            <path fill="#2c75ce" d="M356.3 77.1c14 7.6 26.1 16.7 36.3 27.2-.1.1-.2.1-.3.2-10.4 1.4-20.4 1.7-29.7 1-26.9-2.2-52.4-13.6-77.1-24.5-7.2-3.2-14.6-6.5-21.8-9.4-1.7-.7-3.4-1.3-5.1-1.9 30-8.9 97.5 7.7 97.5 7.7.1-.3.2-.3.2-.3z" class="colorce332c svgShape"></path>
            <path fill="#2c75ce" d="M393.2 103.8C383.1 93.3 371 84.2 357 76.6c29-20.5 29.4-59.5 29.4-59.5l.6.2c8.8 4.1 18.1 9.3 27.1 16 .1 3.4.9 53.5-20.9 70.5z" class="colorce332c svgShape"></path>
            <path fill="#1851ad" d="m392 351.6.4-.4c-.7 1.7-1.6 3-2.8 3.7-1.1.6-1.5.7-1.4.5.2-.4 1.6-1.8 3.8-3.8zm6-74.9c-1.5 9.9-1.2 20.6-.9 30.7.2 6.3.4 12.3.1 17.5 2.5 11-.4 20-4.6 25.7 3.5-4.8 2.4-14.9 1.9-20.3-.6-6.7-.8-24.2-2.1-30.7-3.8-19.9-5.6-33.6-1.3-53.2 7.3-7.4 12.7-9.3 17.2-11 0 5.4.3 11.2.6 17-6.1 6.1-9.2 14.3-10.7 23.2-.1.7-.2 1-.2 1.1z" class="color1871ad svgShape"></path>
            <path fill="#2c75ce" d="M418.1 372.7c-5.9 13.4-.4 21.6 8.7 25.3-2.2.5-4.4.5-6.5.1-5-1-9.1-3.9-11.4-7.8-1.9-3.4-2.3-7.2-1-10.7 1.9-5.1 3.4-9.9 4.5-13.9 4.1-15.1 5.2-26.4 4.9-38 .8-.8 5.3-5.2 11.6-6.7v-.1l.4-.9s0 .3-.1.8c-.2 4.9-2.5 32.3-11.1 51.9z" class="colorce332c svgShape"></path>
            <path fill="#2c75ce" d="M425.6 387s-9.7-2.8 4.1-11.7c0 .2.1.4.2.7 1.2-.4 2.8-.7 4.4 0 1 .4 1.8 1.1 2.5 2.1-5.1 1.7-12.3 4.9-11.2 8.9z" class="colorce332c svgShape"></path>
            <path fill="#1851ad" d="M361.5 386.4c-3-3.7-9-1.6-12.9-1.4-4.9.3-10-.2-14.3-2.7-1.2-.7-2.2-1.5-3-2.6-1.5-1.9-2.5-4.1-3.2-6.4-1.7-5.1-1.5-10.7-.3-15.9.6-2.7 1.5-5.6 3.1-7.9-1.5 2.1-3.2 4-4.5 6.2-1.4 2.4-2 5.1-2.4 7.8-.2 1.9-.6 3.7-.4 5.6.2 1.6.7 3.2 1 4.8.3 1.3.2 2.6.4 3.8.4 1.9 1.5 4.1 2.3 5.8 2.3 4.7 5.9 7.8 10.4 10.2 1.6.8 3.2 1.4 5 1.9 3.4.9 6.1 1.1 9.6.3 1.8-.4 3.8-1.2 5.4-2.1 2.6-1.5 6.2-4.5 3.8-7.4zm-165.3-63.2c12.7-23.2 9.6-82.8 8.7-96 1.2 3.8 2.2 8.9 2.8 15.3 1.2 12.2 2.4 26.5 2 39.4-.7 20.3-5.1 33.9-13.5 41.3z" class="color1871ad svgShape"></path>
            <path fill="#1851ad" d="M271.3 301.1c-17.5-3.6-45.2-12.2-60.9-18.6-.7 21.4-5.7 35.5-15.3 42.6v.1s16.8-9.7 20.1-34.9c-.1 0 27 8.9 56.1 10.8z" class="color1871ad svgShape"></path>
            <path fill="#2c75ce" d="M144.1 275c-5.3 4.8-8.9 7.2-9.9 7.8-1.7-2.7-2.8-5.7-3.9-9.2-4.4-14.4-3.6-31.3-3.5-33.7.7-.1 1.5-.2 2.2-.4.1 0 .2-.1.3-.2.1 2.4 1 22.9 14.8 35.7z" class="colorce332c svgShape"></path>
            <path fill="#6d7d90" d="M185 284.2c-.4 6.4-.7 12.7-.6 18.8-32.3-5.5-44.1-11-49.8-19.6 1-.6 4.6-3.1 10-7.9 8.3 7.4 20.9 12 40.4 8.7z" class="color6d9077 svgShape"></path>
            <path fill="#76b3ff" d="M169.2 243.7c-12.2-8-11.1-24.7-10.9-26.7-.1 3 .5 6.2 2.1 9.9 2 4.7 5.2 7.9 9.6 9.5h.1c.1.6.7 2.9-.9 7.3z" class="colorff7976 svgShape"></path>
            <path fill="#dbeafe" d="M192.5 234.6c-1 4.4-1.9 8.8-2.7 13.2-8.9.7-15.3-.9-20-3.7 1.4-3.9 1.3-6.3 1-7.4 2.2.7 4.5 1 6.8 1 6.7.1 12.9-2.2 14.9-3.1z" class="colorccfdaa svgShape"></path>
            <path fill="#76b3ff" d="M126.1 172.8s-20.3-13.9-33 4.5c1-3 2.7-5.7 5.1-7.9 5-4.7 12.2-6.6 18.8-5 5.3 1.3 8.1 4.8 9.1 8.4zm30.6-.6c-.7-.2-21.4-7.5-29.5 5.9 0-.2.1-.5.1-.7.4-1.4.9-2.9 1.8-4.2 2.8-4.5 9.2-6.8 16.2-6 4.1.5 7.9 2 11 4.3.1.2.3.5.4.7zM66 193.3c-2.2-3-4.1-6.2-5.5-9.6-2-4.9-2-8.4.1-10 2-1.6 5.9-1.3 10.1.5-4.1-.5-15-.2-4.7 19.1zM82.7 234c-13.2-4.1-24.6-9.3-29.7-12.8-4-2.7-5.7-5.2-5.1-7.3.5-1.8 2.8-3.2 6.3-3.9-2.4 1.9-10.1 10.7 28.5 24z" class="colorff7976 svgShape"></path>
            <path fill="#2c75ce" d="M104.6 215.8s20.7 1.1 16.5 16.6c.1-.2 1.4-.7 1.6-.8.6-.4 1.2-.8 1.7-1.3 1.7-1.8 3.1-4.7 2.7-7.2-.3-2.3-1.8-4.3-3.8-5.4-1.1-.6-2.4-1.2-3.7-1.5-2.6-.6-5.3-1-8-1.1-1.5 0-2.9 0-4.4.1-.6.1-1.2.1-1.8.3-.2 0-.6.3-.8.3zm32.4 1c-.1-.1-.6-.2-1.1-.3h-.1c-24.8-6.8-25.2-24.8-24.8-29.9.4 0 .6 0 .7-.1l-.2.2c.4.1.8.1 1.2.2.2 1.6 1.3 10.5 7.5 15.8 3.1 2.7 7.1 4 11.8 4 .7 0 1.5 0 2.2-.1v1.1l.3-.4c.2 2.9.8 7 2.5 9.5z" class="colorce332c svgShape"></path>
            <path fill="#dbeafe" d="M326.1 457.6c-1.1 14-2.5 32.6-1.8 47-3.5-1.1-6.7-2.3-9.4-3.8l1.8-21 1.1-21.2s3-.6 8.3-1z" class="colorccfdaa svgShape"></path>
            <path fill="#60a5fa" d="M344.1 419.5c-2.7 2-5.7 3.8-8.6 5.6-2.4 1.5-5 3-6.7 5.4-2.2 3.3-1.7 7.4-1.8 11.1-.1 1.6-.1 3.1-.2 4.7-.1 1.1-.4 11.1-.8 11.1-.5.1-1.1.1-1.8.3-.2-.1-6.4.6-6.5.6.3-8.9.9-23.4.7-33.5.4 0 1.2-.1 2.1-.1l-.4-.4c6.2-.5 16.4-1.6 24-4.8z" class="color63b7fc svgShape"></path>
            <path fill="#dbeafe" d="M216.2 442.5c-3.4 12.4-7.4 24.9-11.7 33.9-8 1.6-28.3 6-37 11.5 3.8-3.5 14.8-12 33.4-15.8l11.3-30.5c.4.1.7 0 .8-.3 1 .4 2.1.8 3.2 1.2z" class="colorccfdaa svgShape"></path>
            <path fill="#60a5fa" d="M226.1 399.5c-1 15.4-4.9 24.7-9.8 42.7-1.1-.4-2.2-.8-3.2-1.1 0-.3-.1-.6-.4-.8 1.3-3.7 8.8-26.1 10-42.8.7.4 1.5.9 2.3 1.3h.1c.3.2.6.4 1 .7z" class="color63b7fc svgShape"></path>
            <path fill="#76b3ff" d="M397.6 13.3c-6.2.6-5.6 1.7-7.8 4.9-1.6-.6-1.6-.5-3.3-1 .9-2.7 2-4.4 5.1-5 .8-.2 2.7.2 6 1.1zM275.2 52.4c-11 1.2-49.1 6.2-65.9 12.6-5.3 1.2-10 2.8-13.9 4.6-.1 0-.2.1-.3.1 6.7-6.9 25-15.2 72.5-18.2 2.5.3 5.1.6 7.6.9zm89.6-43.7s-56.7-8.2-63.2 3.4c0 0-17.5 21.9-22.7 40 0 0-.2 0-.7.1-3.3-.5-6.6-.9-10-1.3 2.6-4.5 23.5-40.1 33-46.7 5.2-3.6 24.6-4.4 47.9.5 4.4.9 9.7 2.2 15.7 4z" class="colorff7976 svgShape"></path>
            <path fill="#60a5fa" d="M193.4 325.3c-1.9 1.3-4 2.3-6.3 3-1.2-8-1.8-16.3-1.9-24.8v-.1c-.3-22.3 3-45.9 8.2-69.2 0-.1.1-.1 0-.2 1.1-4.9 2.3-9.9 3.6-14.8 1.2-.2 2.4 0 3.5.8.6.5 1.2 1.1 1.8 1.9-9.6 33.4-13.4 71.9-8.9 103.4z" class="color63b7fc svgShape"></path>
            <path fill="#dbeafe" d="M197.2 218.4c8-30.5 18.9-59.9 29.3-84.7-1.8 7.9-9 37.5-23.4 85.4-.2.6-.4 1.3-.5 1.9-.5-.7-1.1-1.2-1.6-1.6-1.2-.9-2.4-1.2-3.8-1z" class="colorccfdaa svgShape"></path>
            <path fill="#60a5fa" d="M224.7 398.5v-.5c-8.3-6.5-15.4-14.2-21.1-23-8.6-13.4-13.8-29-16.4-45.8 2.3-.7 4.4-1.7 6.3-2.9 2.3 15.6 6.7 29.4 13.4 40.1 0 0 9 24.4 49.9 49 .1.1.3.1.4.2-16.9-5.9-28.2-13.8-32.5-17.1z" class="color63b7fc svgShape"></path>
            <path fill="#0d3d8c" d="M192.7 307.1c-2.7.4-4.7 2.8-4.7 5.6s2 5.2 4.7 5.6c3.1.4 6-2.1 6-5.6 0-3.6-2.8-6-6-5.6zm-.8 7.7c-.3.4-.9.3-1.2-.1-.3-.4-.3-1 0-1.3.3-.4.9-.4 1.2 0 .4.4.4 1.1 0 1.4zm0-3c-.3.4-.9.4-1.2 0-.3-.4-.3-.9 0-1.3s.9-.4 1.2-.1c.4.4.4 1 0 1.4zm3.1 3.2c-.4.4-1 .3-1.4-.1-.4-.4-.4-1 0-1.4.4-.4 1-.4 1.4 0 .4.4.4 1.1 0 1.5zm0-3.3c-.4.4-1 .4-1.4 0-.4-.4-.4-1 0-1.4.4-.4 1-.5 1.4-.1.4.5.4 1.1 0 1.5z" class="color0d418c svgShape"></path>
            <path fill="#60a5fa" d="M385.7 357.1c-4.5 2.5-9.4 2.9-13.6.8-4.6-2.2-12.3-9.3-12.3-31.4.7-7.6 1.8-14.9 3.2-21.8 2-9.9 4.5-18.4 7.3-25.7-6.3 26.6-14.6 77.9 15.4 78.1zm-110.9-13.4c-9.2.9-26-.2-38-1.7-14.2-1.8-7.6 30.6-6.3 36.6-9-13.1-8.6-25.1-6.4-33.3 2.6-13.5 5.3-11.6 5.3-11.6l45.4 10z" class="color63b7fc svgShape"></path>
            <path d="M384.9 512h-1.1c-2.2 0-53.3-.1-69.4-10.6l-.4-.3.1-.5c0-.3 4.1-35.1 3.3-75.5-55.2-.4-93.8-17-114.7-49.6-44.6-69.6.9-194.7 31.9-263.1 10.6-23.3 19.1-39.2 21.5-43.5.2-.4.7-.5 1-.3.4.2.5.7.3 1-1.7 3.1-10.6 19.6-21.4 43.4-31 68.1-76.3 192.7-32 261.7 20.7 32.3 59.1 48.7 114.2 48.9h.7v.7c.8 38.3-2.7 71.7-3.2 76 14.8 9.2 59.3 10 67 10.1-5.2-10.9-25.6-21.3-25.8-21.4l-.7-.3 2.2-4.5c14.6-29.2 45-89.9 52.8-119 7.1-26.4 5.3-41.4 2.2-66.4-.3-2.6-.7-5.3-1-8.1l-.2-1.3c-2.4-20-5.7-47.4-3.9-66.5 1.9-20 5.9-34 9.4-46.4 1.6-5.8 3.2-11.2 4.3-16.5v-.1l.3-1.3c.1-.4.4-.6.7-.6.4 0 .7.3.7.7v.2l-.3 1.3c-1.1 5.3-2.6 10.8-4.3 16.7-3.5 12.4-7.5 26.4-9.4 46.2-1.8 19 1.5 46.3 3.9 66.2l.2 1.3c.3 2.8.7 5.5 1 8.1 3 24.3 5 40.3-2.2 66.9-7.9 29.2-38.3 90-52.9 119.3l-1.6 3.2c3.8 2 22.1 12.2 26.3 22.9l.5 1z" fill="#000000" class="color000 svgShape"></path>
            <path d="M422.9 160.8c-.1 0-.3 0-.4-.1-.4-.2-.5-.7-.3-1 21-35.2 21.6-74.9 1.6-118.1C376.7-.5 310.6-1.9 301.5 4.4c-10.1 7-33 46.7-33.2 47.1-.2.4-.7.5-1 .3-.4-.2-.5-.7-.3-1 .9-1.6 23.3-40.4 33.6-47.6 11.3-7.8 78.8-3.3 124.3 37.5l.1.1.1.1c20.3 43.7 19.7 83.9-1.6 119.6-.1.2-.4.3-.6.3z" fill="#000000" class="color000 svgShape"></path>
            <path d="M392.5 105.6c-.2 0-.5-.1-.6-.3-.2-.3-.2-.8.2-1 23.3-16.7 21.6-70.6 21.6-71.1 0-.4.3-.8.7-.8.4 0 .8.3.8.7.1 2.2 1.7 55.3-22.2 72.4-.2 0-.3.1-.5.1z" fill="#000000" class="color000 svgShape"></path>
            <path d="m422.5 159.5.7-.2-.7.2-.2-.7c-2.4-11.1-9.5-32.9-29.7-54-27.6-28.8-69.7-46.6-125-52.9-50.6 3.2-67.8 12.3-73.4 19.4-2.6 3.3-3.3 7-2.1 10.9 3.9 12.5 25.3 24.2 43.5 29.8.4.1.6.5.5.9-.1.4-.5.6-.9.5-18.6-5.7-40.4-17.8-44.5-30.8-1.4-4.4-.6-8.5 2.4-12.3 8.4-10.6 33.5-17.3 74.6-20h.2c55.8 6.3 98.2 24.3 126.1 53.4 20.5 21.4 27.7 43.5 30.1 54.8l.1.6-1.7.4z" fill="#000000" class="color000 svgShape"></path>
            <path d="M372.7 107c-3.5 0-6.8-.1-10.1-.4-27.1-2.2-52.7-13.6-77.5-24.6-7.2-3.2-14.5-6.5-21.8-9.4-2.3-.9-4.5-1.8-6.8-2.5-27.1-9.3-52.4-6.2-62.5 1.4-.3.2-.8.2-1.1-.1-.2-.3-.2-.8.1-1 10.4-7.9 36.4-11.1 63.9-1.7 2.3.8 4.6 1.6 6.9 2.6 7.2 3 14.6 6.3 21.8 9.4 24.7 11 50.2 22.3 77 24.5 9.3.8 19.2.4 29.7-1 .4-.1.8.2.8.6.1.4-.2.8-.6.8-6.7.9-13.4 1.4-19.8 1.4zM186.8 329.6c-.3 0-.6-.2-.7-.5-.1-.4.1-.8.5-.9 14.5-4.4 21.9-19.5 22.7-46.2.4-12.9-.8-27.2-2-39.4-1.5-15.4-4.6-20.6-7-22.3-1-.7-2.2-1-3.4-.7-.4.1-.8-.2-.9-.6-.1-.4.2-.8.6-.9 1.7-.4 3.2-.1 4.6.9 3.8 2.7 6.3 10.6 7.6 23.4 1.2 12.3 2.4 26.5 2 39.6-.8 27.4-8.6 43-23.8 47.6h-.2zm190.8 30.9c-3.4 0-6.5-1.2-9.2-3.4-12.9-10.9-10.3-33.9-6.5-52.6 10.4-52.1 36-66.5 46.5-70.2.4-.1.8.1 1 .5.1.4-.1.8-.5 1-10.3 3.7-35.3 17.7-45.5 69.1-2.1 10.8-7.8 39.4 6 51.2 4 3.4 8.3 3.4 11.3 2.8 5.6-1.2 11.1-5.6 13.7-11.1 2.9-6.1 4-16 2.6-22.5v-.2c.3-5.3.1-11.2-.1-17.5-.6-19.7-1.3-42.1 12-55.3.3-.3.8-.3 1.1 0 .3.3.3.8 0 1.1-12.9 12.8-12.2 34.8-11.6 54.2.2 6.3.4 12.2.1 17.5 1.5 6.9.4 17-2.7 23.4-2.8 5.9-8.6 10.6-14.7 11.9-1.2 0-2.4.1-3.5.1z" fill="#000000" class="color000 svgShape"></path>
            <path d="M328.7 308.2c-28.2 0-69.1-5-119-25.5-.4-.2-.6-.6-.4-1 .2-.4.6-.6 1-.4 76.7 31.5 132 26.3 152.2 22.6.4-.1.8.2.9.6.1.4-.2.8-.6.9-7.2 1.3-18.7 2.8-34.1 2.8zM237 387.9c-2.6-2.3-4.7-5-6.7-7.9-1.9-2.9-3.6-5.9-4.8-9.1-1.3-3.2-2.2-6.5-2.8-9.9-.5-3.4-.7-6.9-.4-10.3.3-3.4.9-6.8 1.9-10.1l.8-2.5.9-2.4c.2-.4.3-.8.5-1.2.2-.4.7-.9 1.2-1.1 1-.4 2.1-.1 2.9.1 6.6 1.6 13.3 3.1 19.9 4.5 6.7 1.4 13.4 2.7 20.1 3.8 3.4.6 6.7 1.1 10.1 1.6 3.4.5 6.7 1 10.1 1.4 3.4.5 6.7.9 10.1 1.2 3.4.4 6.8.7 10.2 1 3.4.2 6.8.5 10.2.6 3.4.1 6.8.1 10.2.1h.2c.2.1.3.1.4.2.1.1.2.3.2.4.1.3 0 .6-.1.7-.2.3-.3.5-.5.6l-.9.8c-.5.5-1.1 1.1-1.6 1.7-1 1.2-1.8 2.5-2.5 3.9s-1.2 2.8-1.6 4.3c-.4 1.5-.6 3-.7 4.6-.1 1.6-.1 3.1 0 4.7s.2 3.1.5 4.7c.2 1.6.5 3.1 1 4.6.5 1.5 1.1 2.9 1.8 4.3 2.9 5.5 7.9 10 13.8 11.9 3 1 6.1 1.3 9.2.8 1.5-.2 3.1-.6 4.5-1.2 1.5-.6 2.8-1.3 4.2-2.2.1-.1.3 0 .3.1.1.1 0 .3-.1.3-1.3.9-2.7 1.6-4.2 2.3-1.5.6-3 1-4.6 1.3-3.2.5-6.5.2-9.5-.8-6.1-2-11.3-6.5-14.4-12.2-.8-1.4-1.4-2.9-1.9-4.4-.5-1.6-.8-3.1-1.1-4.7-.3-1.6-.4-3.2-.5-4.8-.1-1.6-.1-3.2 0-4.8.1-1.6.3-3.2.7-4.8.4-1.6.9-3.1 1.6-4.6.7-1.5 1.6-2.9 2.6-4.1.5-.6 1.1-1.2 1.6-1.8l.8-.8c.1-.1.2-.2.2-.3v.1c0 .1.1.1.1.2.1 0 0 0 .1.1h.2c-3.4.1-6.8.1-10.3 0-3.4-.1-6.8-.3-10.2-.5-3.4-.3-6.8-.5-10.2-.9-3.4-.3-6.8-.8-10.2-1.2-6.8-.9-13.5-2-20.2-3.2-6.7-1.2-13.4-2.5-20.1-3.9-6.7-1.4-13.3-3-19.9-4.6-.8-.2-1.6-.4-2.2-.1-.3.1-.5.3-.7.6-.2.3-.3.7-.5 1.1l-.9 2.4-.8 2.4c-1 3.2-1.6 6.6-1.9 9.9-.3 3.4-.2 6.8.3 10.1s1.4 6.6 2.7 9.7c1.2 3.1 2.8 6.1 4.7 9 1.9 2.8 4 5.5 6.5 7.7.2.1.2.4 0 .5.1.2-.1.2-.3.1zm-17.2 107.4c-14.3 0-33.7-1-54.6-5.1-.3-.1-.5-.3-.6-.5-.1-.3 0-.6.2-.8.1-.1 14.7-13.7 35.6-17.5 1.9-4.5 19.5-47.6 21.6-74.6 0-.4.4-.7.8-.7s.7.4.7.8c-2.2 28.6-21.6 75-21.8 75.4-.1.2-.3.4-.6.4-17.4 3.1-30.3 13-34.1 16.2 39.1 7.3 72.7 4.1 76.6 3.7l38.6-71.4c.2-.4.7-.5 1-.3.4.2.5.7.3 1l-38.8 71.7c-.1.2-.3.4-.6.4-.2.2-9.6 1.3-24.3 1.3zm98.3-71.6h1.3c.8 0 2-.1 3.5-.2 1.4-.1 3.1-.3 4.9-.5.9-.1 1.8-.3 2.7-.4.9-.2 1.9-.3 2.8-.5.9-.2 1.9-.4 2.8-.6.5-.1.9-.2 1.4-.3.4-.1.9-.2 1.3-.4.9-.2 1.7-.5 2.5-.7.8-.2 1.6-.4 2.2-.7 2.7-1 4.5-1.6 4.5-1.6.1 0 .2 0 .2.1s0 .2-.1.2c0 0-1.8.7-4.5 1.8-.7.3-1.4.5-2.2.8-.8.2-1.6.5-2.5.8-.4.1-.9.3-1.3.4-.5.1-.9.2-1.4.3-.9.2-1.9.5-2.8.7-.9.3-1.9.4-2.8.6-.9.2-1.9.4-2.7.5-1.8.3-3.5.6-4.9.7-1.4.2-2.7.3-3.5.4-.9.1-1.3.1-1.3.1-.4 0-.8-.3-.8-.7-.1-.5.3-.8.7-.8zM458 359.6c-.4 0-.7-.3-.7-.7-2.1-17.9-14.8-38.2-23.9-38.2-8.2 0-14.5 5.8-15.7 7 .1 2.6-.2 8.1-3.3 11-1.5 1.4-3.5 2-5.9 1.8-8.4-.8-11.1-12.5-11.2-13-.1-.4.2-.8.6-.9.4-.1.8.2.9.6 0 .1 2.5 11.1 9.8 11.8 2 .2 3.5-.3 4.7-1.4 2.9-2.7 2.9-8.5 2.8-10.2v-.3l.2-.2c.3-.3 7.2-7.7 17-7.7 9.9 0 23.2 20.7 25.4 39.6.1.3-.2.7-.7.8.1 0 0 0 0 0z" fill="#000000" class="color000 svgShape"></path>
            <path d="M410.3 263.2c.8.2 1.5.4 2.3.7l2.2 1c1.4.8 2.9 1.5 4.2 2.4 2.7 1.7 5.3 3.7 7.8 5.7l3.6 3.2 3.5 3.3 3.3 3.5 3.2 3.6c2.1 2.5 4.1 4.9 6 7.5l1.4 1.9 1.3 2c.9 1.3 1.8 2.6 2.6 4l2.5 4.1 2.2 4.3c.8 1.4 1.4 2.9 2.1 4.3l1 2.2c.3.8.6 1.5.9 2.2l.9 2.2.8 2.3c.6 1.5 1 3.1 1.4 4.6.8 3.1 1.5 6.3 1.7 9.5.2 3.2.1 6.5-.6 9.7-.7 3.2-2 6.3-3.9 9s-4.3 4.9-7 6.8l-1 .7-.5.4-.5.3-2.1 1.2c-1.4.7-2.9 1.5-4.3 2.2-2.9 1.4-5.8 2.7-8.6 4.1-2.9 1.4-5.6 3-8.1 4.8l-.1.1c.1 0 .1-.1.2-.1l-.1.1-1.4 1.1-1.3 1.2-.6.6c-.2.2-.4.4-.6.7l-.5.7c-.2.2-.3.5-.4.7l-.2.4-.1.4-.1.4v.4c-.1.2 0 .5 0 .7 0 .1.1.2.1.3 0 .1.1.2.1.3.1.2.3.4.4.5.2.2.4.3.6.5.2.1.5.3.7.4.2.1.5.2.7.3.4.1.6.5.5.9-.1.4-.5.6-.9.5-.4-.1-.7-.2-1-.3-.3-.1-.6-.3-.9-.5-.3-.2-.6-.4-.8-.6-.3-.3-.5-.5-.7-.9-.1-.2-.2-.3-.2-.5-.1-.2-.1-.4-.2-.6 0-.4-.1-.8 0-1.1l.1-.5.2-.5.2-.5.2-.4c.2-.3.3-.6.5-.8l.6-.8c.2-.3.4-.5.6-.7l.7-.7 1.4-1.2 1.5-1.2-.1.1c.1-.1.2-.1.2-.2l-.1.1c2.7-1.9 5.5-3.5 8.4-4.9 2.9-1.4 5.8-2.7 8.7-4.1 1.5-.7 2.8-1.4 4.2-2.1l2.1-1.2.5-.3.5-.3 1-.7c2.5-1.8 4.9-3.9 6.7-6.5 1.8-2.5 3-5.4 3.7-8.5.7-3 .8-6.2.6-9.3-.2-3.1-.8-6.2-1.6-9.3-.4-1.5-.8-3.1-1.4-4.5l-.8-2.2-.9-2.2c-.3-.7-.6-1.5-.9-2.2l-1-2.2c-.7-1.4-1.3-2.9-2-4.3l-2.2-4.2-2.4-4.1c-.8-1.4-1.7-2.7-2.6-4l-1.3-2-1.4-1.9c-1.8-2.6-3.9-5.1-5.9-7.5l-3.2-3.6-3.3-3.4-3.4-3.3-3.6-3.2c-1.2-1-2.4-2-3.7-3-1.3-.9-2.5-1.9-3.9-2.8-1.3-.9-2.7-1.7-4-2.5l-2.1-1.1c-.7-.3-1.5-.6-2.2-.9-.1 0-.1-.1-.1-.2-.2-.5-.1-.5 0-.5zm-11.9 14.3h-.1c-.4-.1-.7-.4-.6-.8 0 0 0-.3.2-.9.1-.4.5-.7.9-.6.4.1.7.5.6.9-.1.5-.1.9-.1.9-.2.2-.5.5-.9.5z" fill="#000000" class="color000 svgShape"></path>
            <path d="M427.9 376.1s.1 0 .2-.1.3-.2.5-.3c.5-.2 1.2-.5 2.2-.7 1-.2 2.2-.3 3.6.2s2.6 1.6 3.5 3.1c.4.8.8 1.6 1 2.4.1.2.1.4.2.7 0 .1.1.2.1.4l.1.3c.1.4.2.9.2 1.4.2 2 0 4.1-.8 6-.8 2-2.1 3.8-3.8 5.3-1.6 1.5-3.6 2.7-5.7 3.5-2.1.8-4.4 1.2-6.6 1.1-.6 0-1.1-.1-1.7-.2l-.8-.1c-.3-.1-.5-.1-.8-.2-1-.2-2.1-.6-3.1-1-3.9-1.6-6.9-4.6-8.5-7.6-.8-1.5-1.3-3-1.5-4.4-.1-.7-.1-1.4-.2-2 0-.6 0-1.2.1-1.7s.1-.9.2-1.3.2-.7.2-1c.1-.5.2-.8.2-.8.1-.4.5-.6.9-.5s.6.5.5.9v.1s-.1.2-.2.7c-.1.2-.2.5-.2.9-.1.3-.1.7-.2 1.2-.1.4 0 .9-.1 1.5 0 .5.1 1.1.1 1.8.2 1.2.6 2.6 1.3 4 1.4 2.8 4.2 5.5 7.8 7.1.9.4 1.8.7 2.9 1l.7.2.8.1c.5.1 1 .2 1.5.2 2.1.1 4.2-.2 6.2-.9s3.8-1.8 5.4-3.2c1.6-1.4 2.8-3 3.5-4.9.8-1.8 1-3.7.8-5.5-.1-.5-.2-.9-.2-1.4l-.1-.3s-.1-.2-.1-.3c-.1-.2-.1-.4-.2-.6-.2-.8-.6-1.6-.9-2.3-.7-1.4-1.8-2.4-3-2.8-1.2-.4-2.3-.4-3.2-.2-.9.2-1.6.4-2 .6-.2.1-.4.2-.5.2-.1.1-.2.1-.2.1-.2.1-.4 0-.5-.1.1-.3.2-.5.4-.6zM193.4 234.7s-.6.3-1.7.7c-1.1.4-2.8 1-5 1.6-2.2.5-4.9 1.1-8.1 1.2-3.1.1-6.8-.3-10.4-2.1-1.8-.9-3.5-2.2-4.9-3.8-1.4-1.6-2.5-3.5-3.4-5.6l-.6-1.5c-.2-.5-.4-1.1-.5-1.6-.3-1.1-.5-2.3-.7-3.4-.3-2.3-.2-4.8.4-7.2 1-4.8 3.5-9.2 5.2-13.8.9-2.3 1.5-4.7 1.7-7.2.2-2.4-.1-4.9-.7-7.3-.2-.6-.4-1.2-.5-1.8l-.7-1.8c-.3-.6-.5-1.1-.8-1.7-.3-.5-.6-1.1-.9-1.6-1.3-2.1-2.9-4-4.8-5.5s-4-2.7-6.3-3.6c-2.2-.8-4.6-1.3-6.9-1.5-4.6-.3-9.3.9-12.5 3.6-.8.7-1.5 1.5-2 2.3-.2.4-.5.9-.7 1.3l-.4.7-.2.7c-.7 1.8-1 3.8-.8 5.5.1.4 0 .9.2 1.3.1.4.2.8.3 1.3.1.4.3.8.5 1.2l.3.6.3.5c.2.3.4.7.7 1 .3.3.5.6.8.9.2.3.5.5.8.8.3.2.6.5.9.7 2.5 1.7 5.1 2.2 7.3 2.4 1.1.2 2.1.1 2.9.1.9 0 1.6-.1 2.2-.1 1.2-.1 1.8-.2 1.8-.2.1 0 .2.1.2.2s-.1.2-.2.2c0 0-.6.1-1.8.4-.6.1-1.3.3-2.2.3-.9.1-1.9.2-3 .1-.6-.1-1.2 0-1.8-.1-.6-.1-1.3-.2-1.9-.4-.7-.2-1.3-.5-2-.7-.7-.3-1.4-.7-2.1-1.1-1.3-.9-2.7-2-3.6-3.6l-.4-.6-.3-.6c-.2-.4-.4-.9-.6-1.3-.1-.5-.2-.9-.4-1.4-.1-.5-.1-1-.2-1.5-.1-2 .1-4.1 1-6.1l.3-.8.4-.7c.3-.5.5-.9.8-1.4.6-.9 1.4-1.8 2.2-2.5 3.5-3 8.4-4.1 13.2-3.9 2.4.1 4.9.6 7.2 1.5s4.6 2.1 6.6 3.7 3.7 3.6 5.1 5.8c.4.5.6 1.1 1 1.7.3.6.6 1.2.8 1.8l.7 1.8c.2.6.4 1.2.6 1.9.7 2.5.9 5.1.7 7.7-.2 2.6-.9 5.1-1.7 7.5-1.7 4.8-4.2 9.1-5.1 13.6-1 4.5-.3 9.1 1.4 13 .8 1.9 1.9 3.7 3.2 5.2 1.3 1.5 2.8 2.6 4.5 3.4 3.3 1.6 6.7 2 9.7 1.9 3-.1 5.6-.6 7.7-1.1 2.1-.5 3.7-1.1 4.8-1.5 1.1-.4 1.6-.7 1.6-.7.4-.2.8 0 1 .4.4.1.2.6-.2.8z" fill="#000000" class="color000 svgShape"></path>
            <path d="M102.3 182.5s1.2.8 3.5 1.8c1.1.5 2.6 1 4.2 1.4 1.7.4 3.6.7 5.7.7 1.1 0 2.1-.1 3.2-.3 1.1-.2 2.2-.6 3.2-1.2 2-1.2 3.3-3.5 3.9-6 .5-2.5.3-5.3-.9-7.7-1.1-2.4-3.2-4.4-5.7-5.5-.3-.2-.6-.3-.9-.4-.3-.1-.6-.2-1-.3l-.5-.1c-.1 0-.2-.1-.2-.1h-.3l-1.1-.2-1.1-.2-1-.1c-.7 0-1.3-.1-2 0-2.7 0-5.4.7-7.8 1.8-2.4 1.1-4.5 2.5-6.1 4.3l-.6.6c-.2.2-.4.5-.5.7-.3.5-.7.9-1 1.4-.3.5-.6 1-.8 1.4-.1.2-.3.5-.4.7-.1.2-.2.5-.3.7-.2.5-.4 1-.6 1.4-.2.5-.3 1-.4 1.4-.1.5-.2.9-.4 1.3-.1.4-.1.9-.2 1.3-.3 1.7-.2 3.2-.2 4.4 0 1.2.2 2.2.3 2.9.1.7.1 1 .1 1 0 .2-.1.4-.4.5-.2 0-.4-.1-.5-.4 0 0-.1-.4-.2-1-.1-.7-.3-1.7-.4-2.9 0-1.3-.2-2.8.1-4.6.1-.4.1-.9.2-1.4.1-.5.2-.9.3-1.4.1-.5.2-1 .4-1.5l.6-1.5c.1-.3.2-.5.3-.8.1-.3.3-.5.4-.8l.9-1.5c.3-.5.7-1 1.1-1.5.2-.2.4-.5.6-.7.2-.2.4-.5.7-.7 1.7-1.9 4-3.5 6.5-4.6 2.5-1.2 5.4-1.9 8.3-1.9.7-.1 1.5 0 2.2 0l1.1.1 1.1.2 1.1.2h.3c.2 0 .2.1.3.1l.5.2c.4.1.7.2 1.1.4.4.1.7.3 1 .4 2.7 1.3 5.1 3.5 6.3 6.3 1.2 2.7 1.5 5.8.9 8.5s-2.2 5.3-4.5 6.6c-1.1.7-2.4 1-3.6 1.3-1.2.2-2.3.3-3.4.3-2.2 0-4.2-.4-5.9-.9-1.7-.5-3.1-1.1-4.3-1.6-2.3-1.1-3.5-1.9-3.5-1.9-.1-.1-.1-.2 0-.3.1-.3.3-.4.3-.3z" fill="#000000" class="color000 svgShape"></path>
            <path d="M98.1 195.6s-1-1-2.9-2.6c-.9-.8-2.1-1.8-3.4-2.9-1.3-1.1-2.8-2.3-4.4-3.7-.8-.7-1.7-1.4-2.5-2.1-.9-.7-1.8-1.5-2.8-2.2-1.9-1.5-4-3-6.1-4.6-2.1-1.5-4.5-2.8-7-3.7-1.3-.4-2.6-.8-3.9-.8-1.3-.1-2.7.1-3.7.7-1.1.6-1.6 1.7-1.8 2.9-.2 1.3 0 2.6.4 3.9.3 1.3.8 2.6 1.3 3.8.3.6.6 1.2.8 1.9.3.6.6 1.2.9 1.7.6 1.2 1.3 2.2 2 3.3.7 1 1.4 2.1 2.1 3 1.4 2 2.9 3.7 4.3 5.3 1.4 1.6 2.7 3 4 4.2 1.2 1.2 2.3 2.2 3.2 3.1 1.8 1.7 2.9 2.5 2.9 2.5.2.1.2.4.1.5-.1.2-.4.2-.5.1 0 0-1.2-.8-3.1-2.5-1-.8-2.1-1.8-3.4-3-1.3-1.2-2.7-2.6-4.1-4.1-1.4-1.6-3-3.3-4.5-5.3-.8-1-1.5-2-2.2-3.1-.4-.5-.7-1.1-1-1.7-.4-.6-.7-1.1-1-1.7-.3-.6-.6-1.2-1-1.8-.3-.6-.6-1.2-.8-1.9-.6-1.3-1.1-2.6-1.4-4-.4-1.4-.6-2.9-.4-4.4.1-.8.3-1.6.8-2.3.4-.7 1.1-1.3 1.8-1.7 1.4-.8 3.1-.9 4.5-.8 1.5.1 2.9.5 4.3.9 2.7.9 5.2 2.3 7.4 3.9 2.1 1.6 4.1 3.2 6.1 4.7 1 .7 1.9 1.5 2.7 2.3.9.8 1.7 1.5 2.5 2.2 1.6 1.4 3.1 2.7 4.3 3.9 1.3 1.2 2.4 2.2 3.3 3 1.8 1.7 2.8 2.7 2.8 2.7.1.1.1.3 0 .4-.4.1-.5.1-.6 0z" fill="#000000" class="color000 svgShape"></path>
            <path d="M90.5 210.3s-2.1-.1-5.8-.2c-1.8 0-4.1-.2-6.6-.2-2.6-.1-5.4-.1-8.6-.2H59.4c-1.8.1-3.6.3-5.4.7-1.8.4-3.6 1-4.9 2.2-.6.6-1 1.3-1 2.1s.3 1.6.8 2.4c1 1.5 2.6 2.8 4.2 3.9.9.5 1.7 1.1 2.6 1.6l2.7 1.5c1.9.9 3.7 1.8 5.6 2.7 1.9.9 3.8 1.6 5.8 2.4 1.9.7 3.9 1.5 5.8 2.2 3.9 1.4 7.7 2.6 11.5 3.6 1.9.5 3.7 1 5.6 1.4 1.8.4 3.6.9 5.4 1.2 3.5.7 6.9 1.2 10 1.6 1.6.1 3 .3 4.5.4 1.4.1 2.8.1 4 .1h1.8c.6 0 1.2-.1 1.7-.1 1.1-.1 2.1-.1 3-.2.9 0 1.7-.2 2.4-.3.7-.1 1.3-.2 1.8-.3 1-.1 1.5-.2 1.5-.2h.1c.4-.1.8.2.9.6.1.4-.2.8-.6.9 0 0-.5.1-1.5.2-.5.1-1.1.2-1.8.3-.7.1-1.5.3-2.5.3-.9.1-2 .1-3.1.2-.6 0-1.1.1-1.7.1h-1.9c-1.3 0-2.7 0-4.1-.1-1.4-.1-3-.2-4.5-.4-1.6-.2-3.2-.4-4.9-.6-1.7-.2-3.4-.6-5.2-.9-1.8-.3-3.6-.8-5.4-1.2-1.9-.4-3.7-.9-5.6-1.5-3.8-1-7.7-2.3-11.6-3.7-2-.7-3.9-1.5-5.9-2.2-1.9-.8-3.9-1.6-5.8-2.5-1.9-.8-3.8-1.8-5.7-2.7-.9-.5-1.9-1-2.8-1.5-.9-.5-1.8-1.1-2.6-1.6-1.8-1.2-3.4-2.6-4.7-4.4-.6-.9-1.1-2-1.1-3.3 0-1.2.7-2.4 1.5-3.1.8-.8 1.8-1.3 2.7-1.7.9-.4 1.9-.7 2.9-.9 1.9-.4 3.8-.6 5.6-.7 3.6 0 7 .1 10.2.2 3.1.1 6 .4 8.6.5 2.6.1 4.8.4 6.6.5 1.8.2 3.3.3 4.2.4 1 .1 1.5.2 1.5.2.1 0 .2.1.2.2-.2.1-.2.1-.3.1z" fill="#000000" class="color000 svgShape"></path>
            <path d="M184.8 304.2h-.1c-41.8-7.1-50.5-13.8-55.5-30.2-4.7-15.7-3.5-34.1-3.5-34.3 0-.4.4-.7.8-.7s.7.4.7.8c0 .2-1.2 18.4 3.4 33.8 4.5 14.9 10.7 21.8 54.3 29.2.4.1.7.5.6.9 0 .3-.3.5-.7.5z" fill="#000000" class="color000 svgShape"></path>
            <path d="M134.1 284.1c-.3 0-.5-.1-.6-.4-.2-.4-.1-.8.3-1 .1-.1 10-6.2 24.6-22.8 14.2-16.2 11.4-23.4 11.4-23.4-.2-.4 0-.8.4-1 .4-.2.8 0 1 .4.1.3 3.3 7.9-11.6 25-14.7 16.9-24.5 22.9-24.9 23.1-.3.1-.5.1-.6.1zm8.1-91.3-.2.2-.6.6c-.2.3-.5.6-.8 1-.3.4-.7.8-1 1.3-.4.5-.7 1-1.1 1.7-.4.6-.7 1.2-1.1 1.9-.3.7-.7 1.4-.9 2.2-.1.4-.3.8-.4 1.1l-.3 1.2c-.2.8-.3 1.6-.4 2.4-.1.8 0 1.6-.1 2.3 0 .4 0 .8.1 1.1 0 .4.1.7.1 1.1 0 .7.3 1.3.4 1.9.2.6.2 1.2.4 1.6.2.5.3.9.5 1.2.3.7.4 1.1.4 1.1.1.2 0 .3-.2.4-.2.1-.3 0-.4-.2l-.5-1c-.2-.3-.4-.7-.6-1.2-.3-.5-.4-1-.6-1.6-.2-.6-.5-1.3-.5-2-.1-.4-.1-.7-.2-1.1-.1-.4-.1-.8-.1-1.2 0-.4 0-.8-.1-1.2v-1.3c.1-.9.1-1.7.3-2.6.1-.4.2-.9.3-1.3.1-.4.3-.8.4-1.2.3-.8.7-1.6 1-2.3.4-.7.7-1.4 1.2-2 .4-.6.8-1.2 1.2-1.7.8-1 1.6-1.8 2.1-2.3.3-.3.5-.4.7-.6.2-.1.2-.2.2-.2.2-.1.5-.1.6.1.4.2.3.4.2.6z" fill="#000000" class="color000 svgShape"></path>
            <path d="M132 207.2c-4.8 0-8.8-1.4-12.1-4.1-6.8-5.8-7.5-15.6-7.5-16 0-.4.3-.8.7-.8.4 0 .8.3.8.7 0 .1.7 9.5 7 14.9 3.5 3 8.1 4.2 13.7 3.6.4-.1.8.3.8.7 0 .4-.3.8-.7.8-.9.1-1.8.2-2.7.2zm-27.8 8.5s1.8-.2 4.4.1c1.3.2 2.9.5 4.4 1 1.6.5 3.2 1.3 4.7 2.4.7.6 1.4 1.2 2 1.9.6.7 1.1 1.5 1.4 2.3.2.4.3.8.5 1.2l.3 1.2c0 .4.1.8.1 1.1v1.1c0 .7-.1 1.3-.2 1.8s-.2 1-.4 1.4c-.3.7-.4 1.1-.4 1.1s0-.4.1-1.2c.1-.4 0-.8.1-1.4 0-.5 0-1.1-.1-1.7 0-.3-.1-.6-.1-1-.1-.3-.1-.7-.2-1-.1-.3-.2-.7-.4-1-.2-.3-.3-.7-.5-1-.4-.7-.8-1.3-1.3-1.9-.5-.6-1.1-1.2-1.8-1.6-.6-.5-1.4-.9-2.1-1.3-.7-.4-1.5-.8-2.2-1-1.5-.6-2.9-1.1-4.2-1.4-2.3-.8-4.1-1.1-4.1-1.1zm140.7 8.7c2.2 2.2 4.6 4.4 7.1 6.3 2.5 2 5 3.9 7.6 5.7 2.6 1.8 5.3 3.4 8.1 5 2.8 1.5 5.6 2.9 8.6 4.1l1.1.5.5.2.6.2 2.2.9c1.5.6 3 1 4.5 1.5 3 1 6.2 1.5 9.3 1.8.8.1 1.6.1 2.4.2l2.4.1c.8.1 1.6 0 2.4-.1l2.4-.1c3.1-.3 6.3-.8 9.3-1.8 1.5-.4 3-.9 4.5-1.5.8-.3 1.5-.6 2.2-.9.7-.3 1.4-.6 2.2-1 2.9-1.4 5.6-3 8.2-4.8 2.6-1.8 5.1-3.8 7.4-6 2.3-2.2 4.5-4.5 6.4-7 4-5 7.3-10.4 10.1-16.1 1.4-2.9 2.6-5.8 3.7-8.8 1.1-3 2-6.1 2.6-9.1l1.4 1.1-3.7 1.6-1.9.8-1.9.7-3.8 1.3-3.9 1.1c-.7.2-1.3.4-2 .5l-2 .4c-1.3.3-2.6.6-4 .8-2.7.4-5.3.9-8 1-2.7.3-5.4.3-8.1.4-2.7-.1-5.4 0-8.1-.3-2.7-.1-5.4-.5-8-.8l-4-.6c-1.3-.2-2.6-.5-4-.8-1.3-.2-2.6-.6-3.9-.9-1.3-.3-2.6-.6-3.9-1-1.3-.4-2.6-.7-3.9-1.1l-3.8-1.3c-2.5-.9-5.1-1.8-7.5-2.8-1.3-.5-2.5-1-3.7-1.6-1.2-.5-2.5-1.1-3.7-1.6-1.2-.6-2.4-1.1-3.6-1.7l-3.6-1.8c-2.4-1.2-4.7-2.6-7-3.9-2.3-1.4-4.6-2.8-6.8-4.3s-4.4-3-6.5-4.7c-.1-.1-.1-.2 0-.3.1-.1.2-.1.3 0 2.1 1.6 4.4 3 6.6 4.4 2.3 1.4 4.6 2.7 6.9 4.1 2.3 1.3 4.7 2.6 7.1 3.7 1.2.6 2.4 1.2 3.6 1.7 1.2.6 2.4 1.1 3.6 1.7 1.2.5 2.4 1.1 3.7 1.6 1.2.5 2.5 1 3.7 1.5 2.5 1 5 1.8 7.5 2.7l3.8 1.2c1.3.4 2.6.7 3.8 1 1.3.4 2.6.6 3.9.9 1.3.3 2.6.6 3.9.8 1.3.2 2.6.5 3.9.7l3.9.6c2.6.3 5.3.6 7.9.7 2.6.2 5.3.2 7.9.2 2.6-.1 5.3-.1 7.9-.5 2.6-.2 5.2-.7 7.9-1.1 1.3-.2 2.6-.5 3.9-.8l1.9-.4c.6-.2 1.3-.3 1.9-.5l3.8-1.1 3.7-1.3 1.9-.7 1.8-.8 3.7-1.5 1.8-.7-.4 1.8c-.9 3.2-1.9 6.2-3.1 9.2-1.2 3-2.4 6-3.9 8.9-2.9 5.8-6.3 11.3-10.4 16.3-2 2.5-4.3 4.9-6.6 7.1-2.4 2.2-4.9 4.2-7.5 6.1-2.6 1.8-5.5 3.5-8.4 4.8-.7.4-1.5.7-2.2 1-.7.3-1.5.7-2.2.9-1.5.5-3 1.1-4.6 1.5-3.1.9-6.3 1.5-9.5 1.8l-2.4.1c-.8.1-1.6.1-2.4.1l-2.4-.1c-.8 0-1.6 0-2.4-.2-3.2-.3-6.4-.9-9.6-1.6-1.6-.4-3.2-.7-4.7-1.2l-2.3-.8-.6-.2-.6-.2-1.1-.5c-3-1.2-5.9-2.7-8.7-4.3-2.8-1.6-5.5-3.3-8.1-5.2-2.6-1.9-5.1-3.9-7.6-6-2.4-2.1-4.7-4.4-6.9-6.8-.1-.2-.1-.4 0-.5.2.2.4.2.5.4z" fill="#000000" class="color000 svgShape"></path>
            <path d="M319.4 224.2c-7.4 0-15.7-1.1-24.6-3.2-22.4-5.4-41.6-15.7-41.8-15.8l-.5-.3 4.1-19.9c.1-.4.5-.7.9-.6.4.1.7.5.6.9l-3.9 18.8c6.6 3.4 76.6 38.7 102.6 1.9.2-.3.7-.4 1-.2.3.2.4.7.2 1-8 11.5-21.2 17.4-38.6 17.4z" fill="#000000" class="color000 svgShape"></path>
            <path d="M252.8 232.6c-.3 0-.6-.2-.7-.4-.2-.4 0-.8.4-1 .1 0 7.9-3.6 11.5-11.8 1.3-3 1.6-5.5.8-7.3-.8-1.8-2.3-2.4-2.3-2.4-.4-.1-.6-.6-.5-1 .1-.4.6-.6 1-.5.1 0 2.1.8 3.2 3.2 1 2.2.7 5.1-.8 8.5-3.8 8.8-11.9 12.4-12.3 12.6-.1.1-.2.1-.3.1zm46.8 19.6c-7.2 0-14.7-1.5-22.2-4.4l-.8-.3.4-.7c3.8-7.8 12.7-12.8 22.8-12.8 9.7 0 18.5 4.8 22.5 12.3l.4.7-.7.3c-2.1 1-4.3 1.8-6.5 2.5-5.2 1.6-10.5 2.4-15.9 2.4zm-20.9-5.6c12.6 4.7 24.8 5.3 36.2 1.6 1.9-.6 3.8-1.3 5.6-2.1-3.9-6.6-11.9-10.8-20.8-10.8-9.1.1-17.2 4.5-21 11.3zm71.5-66.4s.4-.4 1.2-1.3c.7-.8 1.7-2.1 2.8-3.8 1.1-1.7 2.2-4 3.1-6.7.9-2.7 1.5-5.9 1.5-9.4s-.5-7.3-1.9-11.1-3.6-7.5-6.6-10.7c-3-3.2-7-5.7-11.4-7.1-4.4-1.4-9.2-1.5-13.8-.3-4.5 1.1-8.7 3.6-12 6.8-3.3 3.2-5.8 7.2-7.2 11.4-1.5 4.2-2 8.5-1.8 12.5.2 4 1.2 7.8 2.7 11 1.5 3.2 3.3 5.9 5.2 8.1 1.9 2.1 3.9 3.7 5.6 4.9 1.7 1.1 3.2 1.9 4.2 2.3.5.2.9.4 1.2.5.3.1.4.2.4.2.2.1.4.4.3.6-.1.2-.4.4-.6.3 0 0-.1-.1-.4-.2-.3-.1-.7-.3-1.2-.5-1-.5-2.6-1.2-4.3-2.4-1.8-1.2-3.8-2.8-5.8-5s-3.9-5-5.4-8.3c-1.5-3.3-2.6-7.2-2.8-11.4-.2-4.2.3-8.6 1.8-12.9 1.5-4.3 4-8.4 7.5-11.8 3.4-3.4 7.8-6 12.5-7.2 4.7-1.2 9.8-1.1 14.4.3 4.6 1.4 8.8 4.1 11.9 7.3 3.2 3.3 5.5 7.2 7 11.1 1.4 3.9 2 8 2 11.6 0 3.7-.6 7-1.6 9.9-.9 2.9-2.1 5.2-3.2 7-1.1 1.8-2.2 3.2-2.9 4-.8.9-1.2 1.3-1.2 1.3-.3.3-.8.3-1.1 0-.3-.2-.4-.7-.1-1zm-84.2-9.1c-.4 0-.7-.3-.7-.7 0-.4.3-.8.7-.8 6.7-.2 12.6-4.5 15.8-11.4 4.5-9.5 1.3-20.4-7.1-24.4-4.1-1.9-8.7-2-13.1-.1s-8.1 5.4-10.3 10.1c-3.3 6.9-2.7 14.5 1.4 19.7.3.3.2.8-.1 1.1-.3.3-.8.2-1.1-.1-4.5-5.7-5.1-13.9-1.6-21.3 2.3-4.9 6.3-8.8 11-10.8 4.8-2 9.9-2 14.4.1 9.2 4.3 12.7 16.2 7.8 26.4-3.4 7.2-10 11.9-17.1 12.2z" fill="#000000" class="color000 svgShape"></path>
            <path d="M245.5 163.5s1.8-.3 4.6-.1c.7.1 1.5.1 2.2.3.8.1 1.6.3 2.5.5.9.2 1.7.5 2.6.8.9.4 1.8.6 2.6 1.1.8.4 1.7.8 2.5 1.4.4.2.8.5 1.2.7.4.3.7.6 1.1.8.3.3.7.5 1 .8l.9.9c.3.3.6.6.8.9.3.3.5.6.7.9.4.6.8 1.1 1.1 1.6.3.5.5.9.7 1.3.4.7.6 1.1.6 1.1s-.3-.4-.8-1c-.2-.3-.6-.7-.9-1.1l-1.3-1.3c-.4-.5-1-1-1.6-1.5-.3-.3-.6-.5-.9-.8-.3-.2-.7-.5-1-.7-.3-.2-.7-.5-1-.7-.4-.2-.8-.4-1.1-.7-.7-.5-1.6-.9-2.4-1.2-.8-.4-1.6-.7-2.5-1.1-.8-.3-1.6-.6-2.5-.8-.8-.2-1.6-.5-2.4-.7-.8-.2-1.5-.4-2.1-.5-1.3-.3-2.5-.5-3.3-.6-.8-.2-1.3-.3-1.3-.3zm73.5 27.7s.4-.6 1.3-1.4c.4-.4 1-.9 1.6-1.4.6-.5 1.4-1.1 2.3-1.7.9-.5 1.8-1.1 2.9-1.6 1-.6 2.2-1.1 3.4-1.5.6-.3 1.2-.4 1.9-.7.6-.2 1.3-.4 1.9-.6 1.3-.3 2.6-.7 4-1 1.4-.2 2.7-.5 4.1-.6.7-.1 1.3-.1 2-.2s1.3-.1 2-.1h3.7c1.2.1 2.3.2 3.3.3.5 0 1 .1 1.5.1.5.1.9.2 1.3.2.8.1 1.5.3 2.1.4 1.2.2 1.8.4 1.8.4l.1.1s0 .1-.1.1c0 0-.7 0-1.8-.1-.6 0-1.3-.1-2.1-.1-.4 0-.8-.1-1.3-.1H350.2c-1.2.1-2.4.1-3.6.2-1.3 0-2.5.3-3.9.4-1.3.1-2.6.4-4 .6-1.3.2-2.6.6-3.9.9-1.3.4-2.5.7-3.7 1.1-1.2.4-2.3.8-3.4 1.3-1.1.4-2 1-2.9 1.4-.9.5-1.7.9-2.4 1.4-.7.4-1.3.9-1.8 1.2-.9.7-1.4 1.2-1.4 1.2h-.1l-.1-.2zm-32-68.9c-.8 0-1.7-.2-2.8-.7-8.3-3.4-22.9-2.7-23-2.7-2.9 0-3.5-1.1-3.5-1.9 0-3 10.2-8.4 17.6-8.4 1.1 0 2.1.1 3 .3 6.5 1.6 11.4 8.1 11 11.3 0 1.4-.9 2.1-2.3 2.1zm-22.3-4.9c4.9 0 14.1.4 20.1 2.9.9.4 1.6.6 2.2.6.8 0 .9-.4.9-.7.3-2.4-4-8.3-9.9-9.7-.8-.2-1.7-.3-2.7-.3-7.3 0-16.1 5.3-16.1 6.9 0 .1.4.4 1.9.4.2-.1 1.5-.1 3.6-.1zm95.9 5.6c-1.5 0-3.8-1.5-7.1-4.6-4.2-3.9-10-4.8-14.1-4.8-2.6 0-4.4.3-4.5.3-.8.2-1.5.3-2.1.3-2 0-2.2-1.2-2.2-1.5 0-2.6 7.3-7 15.1-7.2h.5c12.7 0 15.6 9.3 16.2 12.2.5 2.3.4 3.8-.3 4.6-.4.4-.9.7-1.5.7zm-21.3-10.9c4.4 0 10.6.9 15.2 5.2 3.8 3.6 5.4 4.2 6.1 4.2.2 0 .3-.1.3-.1.1-.2.5-.9 0-3.4-.7-3.3-3.5-11-14.8-11h-.5c-6.4.1-11.4 3-13 4.8-.5.5-.6.8-.6.9 0 0 .2.1.7.1.5 0 1.1-.1 1.8-.2.2-.2 2.1-.5 4.8-.5zm-4.1 65.8c-6.1 0-11.1-6.8-11.1-15.2s5-15.2 11.1-15.2 11.1 6.8 11.1 15.2c0 8.4-5 15.2-11.1 15.2zm0-29c-5.3 0-9.6 6.2-9.6 13.7 0 7.6 4.3 13.7 9.6 13.7s9.6-6.2 9.6-13.7c0-7.5-4.3-13.7-9.6-13.7zm70.1-121.4c-.1 0-.2 0-.3-.1-.4-.2-.5-.6-.4-1 2.1-4.5 2.7-6.6-4.2-10.6-4.1-2.3-6.9-3.5-9.2-2.9-1.6.4-3 1.6-4.1 3.6-.2.4-.7.5-1 .3-.4-.2-.5-.7-.3-1 1.3-2.4 3-3.8 5-4.3 2.8-.7 5.9.6 10.3 3.1 7.6 4.3 7.3 7.3 4.8 12.5-.1.2-.4.4-.6.4zM269.7 165.1c-.6 0-1.1-.1-1.6-.3-4-1.3-6-6.9-4.4-12.6 1.3-4.9 4.8-8.3 8.4-8.3.6 0 1.1.1 1.6.3 4 1.3 6 6.9 4.4 12.6-1.3 4.9-4.8 8.3-8.4 8.3zm2.3-19.9c-3 0-6.1 3.1-7.2 7.4-1.4 5.1.3 10 3.6 11.1.4.1.8.2 1.3.2 3 0 6.1-3.1 7.2-7.4 1.4-5.1-.3-10-3.6-11.1-.4-.1-.9-.2-1.3-.2zm98.4 317.4h-.2c-22.3-6-43.9-5.4-52.2-3.6-.4.1-.8-.2-.9-.6-.1-.4.2-.8.6-.9 8.5-1.8 30.4-2.4 52.9 3.7.4.1.6.5.5.9 0 .3-.3.5-.7.5zm-109.8 1c-.1 0-.3 0-.4-.1-6.7-4.7-24.2-13.3-47.9-22.1-.4-.1-.6-.6-.4-1 .1-.4.6-.6 1-.4 23.8 8.8 41.4 17.5 48.2 22.2.3.2.4.7.2 1-.3.3-.5.4-.7.4z" fill="#000000" class="color000 svgShape"></path>
        </svg>
    </g>
</svg>