<svg id="SvgjsSvg1085" width="256" height="256" xmlns="http://www.w3.org/2000/svg" version="1.1" xmlns:xlink="http://www.w3.org/1999/xlink" xmlns:svgjs="http://svgjs.com/svgjs">
    <defs id="SvgjsDefs1086"></defs>
    <g id="SvgjsG1087">
        <svg xmlns="http://www.w3.org/2000/svg" viewBox="0 0 512 512" width="256" height="256">
            <path fill="#4f5c72" d="M332.5 187.7c.3 0 5.5-.6 11.6-.6 2.9 0 5.5.1 7.8.4.3-.5 1.6-3.5.4-5.4-.7-1.1-2-1.6-4.1-1.6-.6 0-1.2 0-1.8.1-.1 0-12.6 2.1-14 6.1-.1.4-.2.9-.1 1.1.1-.2.1-.1.2-.1z" class="color4f7258 svgShape"></path>
            <path d="M329.1 210.7c.6.4 1.4.6 2.1.6 1.7 0 3.3-1 4.3-2.5.7-1.1 1-2.5.8-3.7-.2-1.2-.8-2.3-1.8-2.9-.6-.4-1.4-.6-2.1-.6-1.7 0-3.3 1-4.3 2.5-.7 1.1-1 2.5-.8 3.7.1 1.2.8 2.3 1.8 2.9z" fill="#000000" class="color000 svgShape"></path>
            <path fill="#eff6ff" d="M410.9 236.8c-2 10.1-9.4 18.1-18.4 20-.2.1-.4.1-.6.1-4.4-1.4-8.5-1.8-12.1-1.6-9.3-4.5-14.2-15.7-11.9-27.2.7-3.3 1.9-6.3 3.6-9.1.3.8.9 1.5 1.6 1.9.7.4 1.5.6 2.3.6 1.8 0 3.5-1 4.5-2.7.8-1.2 1.1-2.6.9-3.9-.2-1.3-.9-2.4-2-3.1-.2-.1-.3-.2-.5-.3 4.9-3.5 10.5-4.8 16-3.7 1.9.4 3.7 1.1 5.4 2 3.4 1.8 6.3 4.6 8.3 8.3 3.2 5.6 4.2 12.1 2.9 18.7z" class="colorfff svgShape"></path>
            <path d="M373.2 220.7c.6.4 1.4.6 2.1.6 1.7 0 3.3-1 4.3-2.5.7-1.1 1-2.5.8-3.7-.2-1.2-.8-2.3-1.8-2.9l-.6-.3c-.5.3-.9.7-1.3 1.1-.1.1-.3.2-.5.4-.6.5-1.1 1-1.6 1.6l-.1.1c-.5.6-1.1 1.2-1.5 1.8-.2.2-.3.5-.5.7-.3.4-.6.8-.8 1.2.3.8.8 1.5 1.5 1.9zm-6.9 66.3c2.5 1.4 5.3 2.2 8.2 2.2 3.2 0 6.3-.9 9-2.6 2.6-1.7 4.9-4.2 6.1-6.9.8-1.7 2.1-5.4 1.2-6.7-.2-.3-.5-.5-1-.5h-.5c-.2.1-18.2 7.7-27.6 8-.5 0-.6.2-.6.3-.3 1.3 4.4 5.7 5.2 6.2z" fill="#000000" class="color000 svgShape"></path>
            <path fill="#eff6ff" d="M340.1 198.7c-.8-.1-1.6-.2-2.4-.2h-.6c-7.3.4-13.8 7.1-15.7 16.4-1.9 9.4 1.8 18.3 8.5 21.3.8.3 1.6.6 2.5.8.8.2 1.6.2 2.3.2 7.5 0 14.4-6.9 16.3-16.4 2.2-10.6-2.7-20.5-10.9-22.1zm-4.4 10.2c-1 1.6-2.8 2.7-4.5 2.7-.8 0-1.6-.2-2.3-.7-1.1-.7-1.8-1.8-2-3.1-.2-1.2.1-2.5.7-3.7 0-.1.1-.2.1-.3.5-.9 1.3-1.6 2.1-2 .7-.4 1.6-.6 2.4-.6.8 0 1.6.2 2.3.7 1.1.7 1.8 1.8 2 3.1.3 1.3 0 2.7-.8 3.9z" class="colorfff svgShape"></path>
            <path fill="#4f5c72" d="M394.2 196.7c.2 0 .4.1.4.1.6.2 1.3.4 2 .7 1.2.5 2.5 1 3.8 1.6 2.6 1.2 5.1 2.4 7.3 3.7l.7.4c.5.3.9.5 1.4.8.2.1.3.1.5.1s.3-.1.5-.2c.2-.2.4-.7.4-1.1-.1-5.1-8.7-14.5-14.6-14.5h-.5c-2.1.2-3.6 1.7-3.8 3.7-.1 1.4.1 3.2.6 4.5 0-.1.9.1 1.3.2z" class="color4f7258 svgShape"></path>
            <path fill="#3b82f6" d="M395.5 440.4c-1-.6-1.9-1.2-2.8-1.9-1.5-1.2-3.4-2.8-4.5-4.9v-.1c-1.2-2.4-.3-4.1 1.4-5.8 2.7-2.8 4.9-6.7 6.7-11.9.2-.5.6-1.7 0-2.2-.4-.3-1.1-.1-2.1.5l-1.8 1.2c-2.3 1.5-4.7 3.1-7.4 3.7-2.5.5-5.6.1-6.4-2.3-.5-1.5.4-2.8 1.4-4.1.2-.2.3-.4.4-.6-2.2-11.2-2-22.1.7-32.3-35.3-3.2-59.6-11.2-73.8-17.5-14.8-6.5-21.9-12.3-22.6-12.8 0 6.9 0 13 .2 15 0 .1-3.1 7.8-8.5 8.7-.3.1-.7.1-1 .1-2.7 0-5.6-1.8-8.4-5.2.3 5.8.8 11.6 1.5 17.3 1.7 12.1 5.7 23.2 11.8 32.9 3.5 5.6 7.8 10.7 12.6 15.2 9.3 8.7 20.9 15.3 34.2 19.4h.1c4.6 1.4 9.5 2.6 14.5 3.4 5.7.9 11.4 1.3 17 1.1 15.5-.4 31.1-4.8 45.2-12.9-2.6-.9-5.2-2.2-8.4-4z" class="color3193f6 svgShape"></path>
            <path fill="#8cb0dc" d="M465.4 222.6s-3.1-6-9-13c-1.9-2.3-4-4.4-6.3-6.5-19.8-18.3-61-38-93.1-38-9.6 0-18 1.7-25.1 5.1l-2.4 1.2c-2.1 1.1-4 2.5-5.8 3.9-.4.8-25.1 41.1-41.7 93.8.9-.3 1.8-.5 2.7-.7 6.3-1.6 12.2-1.8 17.2-.7h.1s3.2 2.5 2.6 5.8c-.7 3.7-5.3 6.9-13.9 9.6 8.8 16.1 9.9 21.3 6.4 31.2-.2.4-4.2 8.8-8.8 10-1.2.3-2.3.1-3.3-.5 0 1.9-.1 14.6-.2 25.5l.1-.1c.1.1 7.2 6.1 22.6 12.9 14.2 6.2 38.5 14.3 73.8 17.4 5.1-19.5 19.2-37 38-46.7 5.8-3 12.4-4.6 18.9-4.7 4.2-.1 8.5.5 12.6 1.7 1.6.5 3 1.2 4.3 2.1 0-1.6-.1-3.3-.2-4.8-.9-20.5-.4-36.6 4.7-53.5 4.6-16 10-34.2 5.8-51zm-114-1.7c-1.9 9.6-8.9 16.6-16.6 16.6-.8 0-1.6-.1-2.4-.2-8.3-1.7-13.3-11.8-11.2-22.4 1.9-9.6 8.9-16.6 16.6-16.6.8 0 1.6.1 2.4.2 8.3 1.6 13.3 11.7 11.2 22.4zm.7-33.3-.1.1c-2.3-.3-5-.4-7.9-.4-6.2 0-11.6.6-11.6.6-.2 0-.3-.1-.4-.2-.2-.3-.1-1 0-1.3 1.5-4.2 13.7-6.2 14.2-6.3 3.2-.4 5.3.2 6.2 1.6 1.4 2.3-.3 5.8-.4 5.9zm39.9 4.2c.2-2.1 1.8-3.7 4-4h.5c6 0 14.8 9.6 14.9 14.8 0 .5-.2 1.1-.5 1.3-.2.2-.4.3-.7.3-.2 0-.4 0-.6-.2-.5-.2-.9-.5-1.4-.8l-.7-.4c-2.3-1.2-4.7-2.5-7.3-3.6-1.3-.6-2.6-1.1-3.8-1.6-.7-.2-1.3-.5-2-.7-.1 0-.2-.1-.4-.1-1.2-.3-1.5-.4-1.6-.6-.3-1.1-.6-2.9-.4-4.4zm-2.1 88c-1.3 2.7-3.5 5.3-6.2 7-2.7 1.7-5.9 2.7-9.1 2.7-3 0-5.8-.8-8.4-2.2-.6-.4-5.7-4.9-5.3-6.4.1-.3.4-.5.9-.5 9.4-.2 27.4-7.9 27.6-8 .2 0 .4-.1.5-.1.6 0 1 .2 1.3.6 1.1 1.7-1.2 6.7-1.3 6.9zm21.2-43c-2.1 10.3-9.6 18.4-18.8 20.3 2.5.9 5.1 2.1 7.6 3.8l-.2.2c-14.7-9.8-30.1-3.6-30.3-3.6l-.1-.3c.1 0 4-1.6 9.8-1.9-4.3-2.2-7.8-6-10-10.8-2.2-5-2.8-10.9-1.7-16.5.7-3.4 1.9-6.5 3.7-9.4 1.7-2.8 4-5.2 6.5-7h.1c3.8-2.8 8.1-4.2 12.5-4.2 1.3 0 2.6.1 3.9.4 5.8 1.2 10.8 4.8 13.9 10.4 3.5 5.4 4.5 12 3.1 18.6z" class="colorafdc8c svgShape"></path>
            <path fill="#3b8eec" d="M454 122.4v.6c-7.3-3.6-15-6.5-22.6-9.1-.8-.3-1.5-.5-2.3-.8h-.1c0-.4.1-2.1 1.4-3.4.8-.8 1.9-1.2 3.3-1.4 1.1-.2 2.5-.2 4.1 0l2.1.3c2.2.3 4.4.5 6.2 1 5 1.4 8.4 4.2 7.9 12.8zm1.1 85.4c-1.5-1.7-3.2-3.3-4.9-4.9-9.6-8.9-24.9-18.4-41-25.5-13.1-5.8-32.8-12.6-52.3-12.6-12.7 0-23.3 3-31.5 8.9-.7.5-1.3 1-1.9 1.5l-.2-.1c-3.5-2.3-7.1-4.7-10.6-7-.8-.5-1.7-1.1-2.5-1.6-2.7-1.7-5.6-3.6-8.4-5.7-7.6-5.6-14.4-12.9-12.8-22.8.5-3.4 3.1-7.1 6.5-9.5 1.6-1.1 3.4-2.1 5.6-2.9 1.9-.8 3.9-1.4 6.2-2 10-2.6 24.8-3.7 47-3.9H369c20.8.2 37.4 9.8 46.8 27 .3.5 29.4 46.1 39.3 61.1z" class="colorec4a3b svgShape"></path>
            <path fill="#bfdbfe" d="M300 195.4h.1c.4.4.8.6 1.2.7.2 0 .4.1.6.1 1.5 0 2.9-1.3 3.4-3.1.4-1.5 0-3-.9-3.9v-.1c0-2.5-1.4-4.5-3.4-5-.3-.1-.6-.1-.9-.1-2.3 0-4.4 1.9-5.1 4.6-.8 3.1.7 6.2 3.2 6.8.6.1 1.2.1 1.8 0zm-46.1-9.3c1.7 1.9 4.2 2.9 7 2.9 3 0 6-1.2 8.3-3.4l.7-.7.1-.1.1.1c1.3 1.7 3 2.6 4.7 2.6.3 0 .6 0 .9-.1 1.5-.3 2.8-1.4 3.6-3 .8-1.7 1-3.7.6-5.7-.8-3.7-3.5-6.5-6.4-6.5-.3 0-.6 0-.9.1h-.2v-.1c-.4-.7-.8-1.3-1.3-1.8-1.7-1.9-4.2-2.9-7-2.9-3 0-6 1.2-8.3 3.4-4.9 4.4-5.7 11.2-1.9 15.2z" class="colorc5eaff svgShape"></path>
            <path fill="#8cb0dc" d="m313.8 469.4-21.7 27.4c-2.8-1.4-5.5-2.8-8-4.1-32-16.8-43.6-28.4-46.7-32l-.1-.1c-.3-.4-.5-.6-.7-.8h.1l29.8 3.7h.1v-.1c4-6.9 6.9-13.3 8.9-19 1.6 1.2 3.4 2.4 5.2 3.6 7.4 5.1 16 10.9 24.1 16 3.2 1.9 6.2 3.8 9 5.4z" class="colorafdc8c svgShape"></path>
            <path fill="#3b82f6" d="M326.8 453 314 469.2c-2.8-1.6-5.8-3.4-8.9-5.4-8.1-5.1-16.8-10.9-24.2-16-1.8-1.3-3.6-2.5-5.3-3.7 4.5-12.8 4.7-22 4.7-24.8v-.4c1 1.5 2 3.1 3.2 4.5.3.5.7.9 1.1 1.4l.2.2c2 2.5 4.2 4.9 6.5 7.2 9.5 9.3 21.5 16.4 35.5 20.8z" class="color3193f6 svgShape"></path>
            <path fill="#bfdbfe" d="M54.4 105.7h-.5c-10.2.6-18.2 4.7-22.5 11.4-3.5 5.5-4.2 12.2-2 18.1 3 7.7 11.3 12.5 21.5 12.5 4.2 0 8.4-.8 12.5-2.4 1-.4 2-.8 3.2-1.4l.2-.1v.2c-.8 16.7 10.5 32.2 27.3 37.8 4.3 1.4 8.7 2.1 13.1 2.1 9.8 0 19.1-3.5 26.1-9.9l.1-.1.1.2c4.4 9 12.5 15.5 22.2 17.7 2.4.6 4.9.9 7.4.9 11.8 0 22.9-6.5 29.1-16.9l.1-.2.1.2c2.8 6.1 7.5 9.8 12.5 9.8h.2c5-.1 9.6-3.9 12.1-10.1l.1-.1h.1c2.8 1.1 5.7 1.6 8.6 1.6 5.9 0 11.3-2.3 15.1-6.4 7.2-7.9 6.8-20.5-.9-29.5l-.3-.3.4.1c1.4.3 2.7.4 4 .4 4.6 0 8.7-1.7 11.5-4.7 6.5-7.1 4.4-19.5-4.6-27.7-1-.9-2.1-1.8-3.3-2.6l-.1-.1.1-.1c7.4-9 8.4-21.3 2.7-31.1-4.8-8.4-14-13.6-23.8-13.6-3.7 0-7.4.7-10.9 2.2l-.2.1v-.2c3-23.8-7.9-46.2-27.9-57.1-6.6-3.6-14-5.5-22-5.5-18.9 0-39.6 10.8-52.7 27.5l-.1.2-.1-.2c-6-9-16.9-19.8-34.4-19.8C49.1 8.4 25 31.5 25 59.8c0 19.2 11.1 36.7 28.9 45.6l.5.3z" class="colorc5eaff svgShape"></path>
            <path fill="#3b8eec" d="M453.2 402.1c-2.5 6.3-5.6 12.5-9.4 18.5-2.6 4.1-5.3 7.9-8.4 11.7l-.1.2c-2.5 3-5 6.1-7.8 8.8-3.2 3.2-6.8 4.9-11 5.3-1.3.1-2.7.1-4.1-.1h-.1c-1.2-.1-2.3-.4-3.6-.7-.8-.2-1.6-.4-2.5-.8-.7-.2-1.4-.5-2.1-.8-2.6-1-5.2-2.4-8.5-4.2-1-.5-1.9-1.2-2.8-1.8-1.5-1.2-3.4-2.8-4.5-4.9-1.1-2.3-.3-3.9 1.3-5.5 2.8-2.9 5-6.8 6.8-12 .2-.6.7-1.9 0-2.5-.2-.1-.4-.2-.6-.2-.7 0-1.5.5-1.8.7l-1.8 1.2c-2.3 1.5-4.6 3.1-7.3 3.6-1.6.3-4.8.4-5.8-1.7-.1-.1-.1-.3-.2-.4-.1-.3-.1-.7-.1-1 .1-1 .7-1.9 1.5-2.8 1-1.2 1.9-2.4 2.8-3.6l1.8-2.4c1.6-2.3 3.4-4.6 5.8-6 1.5-.8 3.2-1.5 4.8-2.1.7-.3 1.4-.5 2.1-.8 1.2-.5 2.3-.9 3.5-1.4l1.3-.5c3.3-6.4 6.2-12.4 8.4-18.1l1.1 1.1.3.3c.1.1.3.2.4.4 5.6 5.1 16 13.7 27.2 18.7 2 .9 4 1.7 6 2.3 2.6.7 5.1 1.3 7.4 1.5z" class="colorec4a3b svgShape"></path>
            <path fill="#8cb0dc" d="M411.3 510.9c-5.2 1.1-16.4-.2-27.7-2.1-15-2.5-30.2-6-31.7-6.4l4.6-30c6 1.8 18.5 5.1 33.3 6.9 6.1.7 12.7 1.2 19.3 1.2h2.1c-5 6.6-9.3 12.4-11.4 16.3l-.1.1.1.1c5.4 4.7 10.7 12.6 11.5 13.9zm48.6-139.7c-.2 4.9-.9 10-1.9 14.9-1.1 5.3-2.7 10.5-4.7 15.7-2.3-.2-4.8-.7-7.4-1.5-2-.6-4-1.4-6-2.3-12.6-5.6-24.2-15.8-29-20.4 4.6-11.5 5.8-18.5 6.2-21.1v-.1c3.2-1.9 6.4-3.4 9.5-4.5 5.2-1.8 11.9-2.9 18-2.2 3.7.4 7.3 1.5 10.1 3.6 2.7 2 4 4.5 4.7 7.3.9 3.4.7 7.1.5 10.6z" class="colorafdc8c svgShape"></path>
            <path fill="#3b82f6" d="m455.1 411.4-.2.7c-8 22.9-23.7 42.9-36.3 58.9-2.6 3.3-5 6.3-7.2 9.3-7.4.1-14.7-.4-21.4-1.2-14.9-1.8-27.5-5.2-33.4-6.9l2-12.9.2-1.6c15.6-.4 31.3-4.9 45.4-13 3.9 1.6 7.5 2.4 10.7 2.4 4.9 0 9.1-1.8 12.9-5.5 2.8-2.8 5.3-5.9 7.8-8.9l.2-.2c3.1-3.8 5.9-7.7 8.5-11.7 3.8-6 7-12.3 9.5-18.7 2-5.2 3.6-10.6 4.7-15.9 1-4.9 1.6-9.8 1.9-14.7.7.6 1.5 1 2.3 1.1.1 16.9-3.8 28-7.6 38.8z" class="color3193f6 svgShape"></path>
            <path fill="#3b82f6" d="M466.6 368.8c0 1.6-.8 2.9-2 3.4-1.4.6-3.1.2-4.5-1 .3-6.1.6-13.6-5.4-18-6.8-5.1-17.8-4.5-26.1-2.2-.8.2-1.5.5-2.3.7-3.2 1.1-6.5 2.6-9.7 4.5l-2.4 1.5.2.2c.7-.5 1.4-.9 2.1-1.3-.4 2.7-1.6 9.7-6.2 21-2.3 5.7-5.1 11.8-8.5 18.2l-1.2.5c-1.2.5-2.3.9-3.5 1.4-.7.3-1.4.5-2.1.8-1.6.6-3.3 1.2-4.8 2.1-2.5 1.4-4.3 3.8-5.9 6.1-.1.2-.3.4-.4.6-.5.6-.9 1.2-1.4 1.8-.7.9-1.4 1.9-2.1 2.8-2.1-11.1-1.9-21.9.7-32.1 5-19.5 19.2-36.9 37.9-46.6 3.3-1.7 6.7-2.9 10.3-3.7 2.9-.6 5.8-1 8.7-1 4.1 0 8.2.5 12.2 1.7 1.6.5 3.1 1.2 4.4 2.2 2.9 1.9 5.2 4.8 7.3 9.3 3 6.7 3.8 14.5 4.2 21.2.5 1.8.6 4 .5 5.9z" class="color3193f6 svgShape"></path>
            <path fill="#3b8eec" d="M465.5 222.3c-.6-1.1-3.6-6.6-9-12.9-4.9-7.3-17.3-26.5-27.1-41.8-7.4-11.5-13.3-20.8-13.4-21.1-9.5-17.3-26.2-27-47-27.2h-7c.5-1 2.4-4.7 5.3-10.8 4.9-10.4 19.4-10.8 44.2-1.3 1 .4 2 .8 3.1 1.2 2.8 1 6 2.1 9.2 3.2 1.6.5 3.3 1.1 5 1.7 10.9 3.7 27.9 9.4 40.7 19.8-1.2 36.9-20.1 64.9-20.3 65.2l.2.2c.2-.3 19.1-28.3 20.4-65.2 6.7 5.5 12.2 12.2 15 20.6 6 17.6-.5 40.6-19.3 68.4z" class="colorec4a3b svgShape"></path>
            <path fill="#76b3ff" d="M354.6 119.3h7.1c.3-.6 2.2-4.2 5.2-10.6-7.4 3-11.6 9.5-12.3 10.6z" class="colorff7976 svgShape"></path>
            <path fill="#8cb0dc" d="M265.4 362.6c-.4 0-2 0-4.2-.2-2.8-.2-6.7-.9-10.7-2.3-7.2-2.5-16.4-8.2-19.8-21 3.7 2 10.3 4.9 17.7 5h.1c5.9 0 12.2-1.8 18-7.4-1.7 7.7-1.4 19.5-1.1 25.9z" class="colorafdc8c svgShape"></path>
            <path fill="#3b82f6" d="M284.6 364.5c-.2.5-3.2 7.7-8.3 8.5-3 .5-6.2-1.3-9.4-5.4-.3-.3-.6-.8-.9-1.2 0-.2-.1-1.6-.2-3.7 0-.6-.1-1.2-.1-1.9-.3-6.7-.4-17.1 1.1-24 0 0 .1-.2.2-.5.2-.5.6-1.4 1.1-2.2 1-1.9 2.6-4.9 4.4-6.8.1 0 .3 0 .4.1h1.5c4.3 0 7.2-2.2 9.2-4.8l.2.2c.3.3.6.6 1 .8 0 .4 0 3-.1 6.7-.3 10.6-.4 30.2-.1 34.2z" class="color3193f6 svgShape"></path>
            <path fill="#3b8eec" d="M304.2 273.6c-.6 3.6-5.3 6.7-13.9 9.4l-.2.1.1.1c8.8 16.1 9.9 21.3 6.5 31.1 0 .1-4.1 8.7-8.6 9.9-1.1.3-2.2.1-3.2-.5l-.1-.1c-.3-.2-.6-.4-.9-.8l-.3-.3c-1 1-4.6 5.4-10.7 4.7l-.2-.1c.6-.6-3.2 3.5-4.9 6.9-.4.9-.8 1.7-1.1 2.2-5.8 5.9-12.3 7.8-18.3 7.7-7.3 0-13.9-2.9-17.6-4.9-.1 0-.2-.1-.3-.1-.6-2.4-1-5.1-1.2-7.8-.7-12 5-25.4 16-37.6 10-11.1 23.6-20 36.4-23.9 5.4-1.7 10.7-2.4 15.3-2.1 1.6.1 3.2.3 4.7.6.2.1 1.3 1.1 2 2.5.4.8.7 1.9.5 3z" class="colorec4a3b svgShape"></path>
            <path fill="#285cb2" d="M454 122.3c-4.4-1.8-7.4-2.7-7.4-2.7.9-3.7.4-7.1-.6-10 5.1 1.2 8.5 4 8 12.7z" class="colorb22828 svgShape"></path>
            <path d="M449.4 198.8s0-.1.1-.1c-.1-.1-.2-.3-.3-.4l.2.5z" fill="#000000" class="color000 svgShape"></path>
            <path fill="#2c75ce" d="M469.5 133c-12.8-10.3-29.8-16.1-40.7-19.8-1.7-.6-3.4-1.1-5-1.7 12.3 15 8.5 42.6 5.6 56 6.4 10 14 21.7 19.8 30.7.2-.3 19.1-28.3 20.3-65.2z" class="colorce332c svgShape"></path>
            <path fill="#285cb2" d="M484.9 153.8c-2.8-8.4-8.3-15.1-15-20.6-1.2 35.6-18.9 63.4-20.3 65.5 2.9 4.5 5.4 8.3 7 10.7 5.4 6.3 8.4 11.8 9 12.9 18.7-27.8 25.2-50.8 19.3-68.5z" class="colorb22828 svgShape"></path>
            <path fill="#2c75ce" d="M415.8 146.7c-9.4-17.3-26-26.8-46.8-27h-7.3c-7.7 0-15.4.9-23.2.7 8.7 1.3 16.9 3.8 25.1 6.7 7.6 2.6 15.9 5.6 21.7 11.4 4.9 4.9 8.4 13.4.5 17.3-8 3.9-18.6 3-27.2 3-5.3 0-10.7 1-15.8 2.6-7 2.2-12.7 6.2-17 12.2 1.7-2.4 9-4.4 11.8-5.4 3.7-1.3 7.5-2.3 11.4-2.8 9-1.3 18.1-.5 27 1.4 18.1 4 36 10.8 51.9 20.3 9.9 5.9 18.6 13.1 27 20.9-12.8-20.6-27.6-40.2-39.1-61.3z" class="colorce332c svgShape"></path>
            <path fill="#6d7d90" d="M441.6 210.8c2.6 3.4 4.6 6.8 6.1 10.4 13.9 33.2-17.6 72.3-9.6 107 4.2-.1 8.5.5 12.6 1.7 1.6.5 3 1.2 4.3 2.1 0-1.6-.1-3.3-.2-4.8-.9-20.5-.4-36.6 4.7-53.5 4.8-16 10.2-34.2 6-51 0 0-3.1-6-9-13-1.9-2.3-4-4.4-6.3-6.5-19.8-18.3-61-38-93.1-38-10.8 0-20 2.1-27.5 6.4 8.8-4.9 27.7-2.1 36.9-.8 26.2 3.9 58.6 18.7 75.1 40zm17.8 149.8c-.1-.3-.1-.5-.2-.7 0-.1-.1-.3-.1-.4-.1-.2-.1-.4-.2-.6-.1-.2-.1-.3-.2-.5s-.1-.3-.2-.5l-.3-.6c-.1-.1-.2-.3-.2-.4-.1-.2-.2-.4-.4-.6-.1-.1-.2-.2-.3-.4-.2-.2-.3-.4-.5-.6l-.3-.3-.6-.6-.2-.2c-.3-.3-.6-.6-1-.8-2.8-2.1-6.3-3.2-10.1-3.6-6.1-.7-12.9.5-18 2.2-3.2 1.1-6.4 2.6-9.5 4.5v.1c2.2-.6 16.7-4.5 28.5-1 1.3 10.9.9 25.7-5.6 42.5 2 .9 4 1.6 6 2.3 2.6.8 5.1 1.3 7.4 1.5 2-5.2 3.6-10.5 4.7-15.7 1-4.9 1.7-10 1.9-14.9.1-3.6.2-7.3-.6-10.7z" class="color6d9077 svgShape"></path>
            <path fill="#6d7d90" d="M413.7 236.4c-1.1 11-9.7 18.3-17 20.7 0 0 3.3 2.2 3.6 4-3.7-2.1-7.5-4-7.5-4s0-.1.1-.3c9-1.9 16.4-9.9 18.4-20 1.3-6.5.3-13.1-2.8-18.6-2.1-3.6-4.9-6.4-8.3-8.3-.1-.2-.2-.3-.3-.5.1.1 16.3 3.4 13.8 27z" class="color6d9077 svgShape"></path>
            <path d="M331.2 211.6c-.8 0-1.6-.2-2.3-.7-1.1-.7-1.8-1.8-2-3.1-.2-1.2.1-2.5.7-3.7.7-.8 1.5-1.6 2.3-2.3.7-.4 1.6-.6 2.4-.6.8 0 1.6.2 2.3.7 1.1.7 1.8 1.8 2 3.1.2 1.3-.1 2.7-.9 3.9-1 1.7-2.8 2.7-4.5 2.7z" fill="#000000" class="color000 svgShape"></path>
            <path fill="#6d7d90" d="M354 220.9c-1.9 10.9-10.4 18.5-18.9 17-1.6-.3-3.1-.9-4.5-1.7.8.3 1.6.6 2.5.8.8.2 1.6.2 2.3.2 7.5 0 14.4-6.9 16.3-16.4 2.1-10.5-2.8-20.5-10.9-22.1-.8-.1-1.6-.2-2.4-.2h-.6c1.4-.2 2.8-.2 4.3 0 8.5 1.5 13.9 11.5 11.9 22.4zm45.8 276.2v-.2c2.1-3.9 6.4-9.7 11.4-16.3h-2.1c-6.7 0-13.2-.5-19.3-1.2-4.2 8.1-9.8 20.1-6.2 29.4 11.3 1.9 22.6 3.2 27.7 2.1-.8-1.3-6.1-9.2-11.5-13.8z" class="color6d9077 svgShape"></path>
            <path fill="#1851ad" d="M462.5 372.6c-.8-.2-1.6-.5-2.3-1.1-.3 4.9-.9 9.8-1.9 14.7-1.1 5.3-2.7 10.6-4.7 15.9-2.5 6.4-5.7 12.7-9.5 18.7-2.6 4.1-5.3 7.9-8.5 11.7l-.2.2c-2.5 3-5 6.1-7.8 8.9-3.7 3.7-7.9 5.5-12.9 5.5-3.2 0-6.8-.8-10.7-2.4-14.1 8.1-29.8 12.6-45.4 13l-.2 4.6c1 .6 14.6.4 35.2-4.4 10.2-2.7 2.8 8.7-3.8 21.2 6.8.8 14.1 1.3 21.4 1.2 2.3-3 4.7-6.1 7.2-9.3 12.6-16 28.2-36 36.3-58.9l.2-.7c4-10.8 7.9-21.9 7.6-38.8z" class="color1871ad svgShape"></path>
            <path fill="#6d7d90" d="M266.9 483.2c2.5 1.3 22.4 12.1 25.2 13.5l21.7-27.4c-2.8-1.6-5.8-3.4-8.9-5.4-5.1 5.8-16.2 20.7-38 19.3z" class="color6d9077 svgShape"></path>
            <path fill="#1851ad" d="M291.3 432.3v1c.1.6.4 1.1.7 1.6 2.1 3.8 5.2 7 8.4 9.9 2.7 2.5 5.8 4.8 7.6 8 1.3 2.4 1 5-.2 7.3-.7 1.3-1.7 2.5-2.5 3.7.5.6 8.6 5.5 8.7 5.4l12.8-16.2c-10.3-3.2-20-8.1-28.6-14.7-2.4-1.9-4.7-3.9-6.9-6zm69.4-29.6c-13.1 27.5 2.5 25.3 6.1 37.6 0 0-9.9-2.1-14.1-9.1-3.5-5.7-.7-18 8-28.5z" class="color1871ad svgShape"></path>
            <circle cx="220.7" cy="391.4" r=".8" fill="#eff6ff" class="colorfff svgShape"></circle>
            <path fill="#0d3d8c" d="M275 356.6c-2.8 0-5.1 2.3-5.1 5.1s2.3 5.1 5.1 5.1 5.1-2.3 5.1-5.1c0-2.9-2.3-5.1-5.1-5.1zm-.8 7.1c-.3.3-.9.3-1.3 0-.3-.3-.3-.9 0-1.3.3-.3.9-.3 1.3 0s.4.9 0 1.3zm0-2.8c-.3.3-.9.3-1.3 0-.3-.3-.3-.9 0-1.3.3-.3.9-.3 1.3 0s.4.9 0 1.3zm2.8 2.8c-.3.3-.9.3-1.3 0-.3-.3-.3-.9 0-1.3.3-.3.9-.3 1.3 0s.4.9 0 1.3zm0-2.8c-.3.3-.9.3-1.3 0-.3-.3-.3-.9 0-1.3.3-.3.9-.3 1.3 0s.4.9 0 1.3zm113.4 39.8c.2-.1.3-.2.5-.3 0-.2.1-.5.2-.6.3-.3.8-.3 1.1-.1.7-.3 1.4-.6 2.1-1-.9-1.2-2.4-2-4-2-2.8 0-5.1 2.3-5.1 5.1 0 .9.3 1.7.7 2.5.8-1.3 2.2-2.2 3.5-2.9.4-.2.7-.5 1-.7zm-2-.9c.3-.3.9-.3 1.3 0 .3.3.3.9 0 1.3-.3.3-.9.3-1.3 0-.4-.4-.4-1 0-1.3z" class="color0d418c svgShape"></path>
            <path fill="#1851ad" d="M403.8 444.5c-14 8-29.6 12.5-45.2 12.9-5.6.2-11.3-.2-17-1.1-5-.8-9.9-2-14.5-3.4h-.1c-13.3-4.1-24.9-10.7-34.2-19.4 7.4 3.1 68.9 28.1 95.3.2 1.1 2.2 3 3.8 4.5 4.9.9.7 1.9 1.3 2.8 1.9 3.3 1.7 5.9 3 8.4 4zm62.8-75.7c0 1.6-.8 2.9-2 3.4-1.4.6-3.1.2-4.5-1 .3-6.1.6-13.6-5.4-18-6.8-5.1-17.8-4.5-26.1-2.2 21.2-10.3 11.5-20.7 9.6-22.5 4.1 0 8.2.5 12.2 1.7 1.6.5 3.1 1.2 4.4 2.2 2.9 1.9 5.2 4.8 7.3 9.3 3 6.7 3.8 14.5 4.2 21.2.3 1.8.4 4 .3 5.9z" class="color1871ad svgShape"></path>
            <path fill="#6d7d90" d="M247.9 344.1c.1.8.2 1.7.5 2.6 1.4 4.7 4 9.2 7.8 12.4 1.4 1.2 2.9 2.1 4.5 3.1.1.1.4.3.6.4 2.2.2 3.8.2 4.2.2-.3-6.4-.6-18.2 1-25.8l-.2.2.3-.6c-3.3 3-9.6 7.7-18.7 7.5z" class="color6d9077 svgShape"></path>
            <path fill="#2c75ce" d="M303.7 270.6c-.5 4-5.7 9.5-16.9 11.6-1.8.3-.5 6-.5 7.2.6 14.8-12.9 24.8-23.3 33-6.6 5.2-16 12.6-15.2 21.8 9.1.2 15.4-4.5 18.6-7.6 0-.1.1-.2.1-.2.2-.5.6-1.4 1.1-2.2 1.7-3.3 4.3-6.7 4.9-6.9l.2.1c4.8.8 7.6-1.4 9.1-3 .8-.8 1.1-1.6 1.6-1.6l.3.3c.3.3.6.6.9.8l.1.1c1 .7 2.1.9 3.2.5 4.5-1.2 8.6-9.8 8.6-9.9 3.4-9.7 2.3-15-6.5-31.1l-.1-.1.2-.1c8.6-2.7 13.3-5.9 13.9-9.4.4-1.4.1-2.5-.3-3.3z" class="colorce332c svgShape"></path>
            <path fill="#1851ad" d="M284.6 323.8c0 .4 0 3-.1 6.7-.1 6.2-7.2 7.9-11.6 10.4-7.6 4.2-6.5 12.5-7.3 20.1-.3-6.7-.4-17.1 1.1-24 0 0 .1-.2.2-.5.2-.5.6-1.4 1.1-2.2 1-1.9 2.6-4.9 4.4-6.8.1 0 .3 0 .4.1h1.4c4.3 0 7.2-2.2 9.2-4.8l.2.2c.3.3.7.6 1 .8zm2.1 27.1c-.8-.5.4 7.4 0 13.7.1 2.1-6.3 13.3-16 7.2 0 0 7.5 6.3 13.9-6.5l.1-15.7s-.2.1 2 1.3z" class="color1871ad svgShape"></path>
            <path fill="#2c75ce" d="M445.8 400.5c-2-.6-4-1.4-6-2.3 1.1.5-10.3 19.8-11.3 21.4-8.2 12.2-21.9 20.1-35.6 10.8-1.1-.7-2.2-1.6-3.1-2.5-1.6 1.7-2.4 3.2-1.3 5.5 1 2.1 2.9 3.7 4.5 4.9.9.7 1.8 1.3 2.8 1.8 3.2 1.8 5.9 3.2 8.5 4.2.7.3 1.4.5 2.1.8-.1.1-.2.1-.2.2l2.7.5c1.2.3 2.4.6 3.6.7h.1c.7.1 1.4.1 2.1.1h2c4.1-.4 7.7-2.1 11-5.3 2.8-2.7 5.3-5.8 7.8-8.8l.1-.2c3.1-3.8 5.9-7.6 8.4-11.7 3.8-6 6.9-12.2 9.4-18.5-2.5-.2-5-.8-7.6-1.6z" class="colorce332c svgShape"></path>
            <path fill="#c5c9cf" d="M410.9 236.8c-2 10.1-9.4 18.1-18.4 20-.2.1-.4.1-.6.1-.9-.3-1.8-.5-2.7-.8 8-2.9 14.4-11 16.2-21.2 1.3-7.1.3-14.3-2.8-20.2-1.1-2.1-2.4-3.9-3.9-5.5.4.2.7.3 1.1.5 3.4 1.8 6.3 4.6 8.3 8.3 3.1 5.7 4.1 12.2 2.8 18.8zm-70.8-38.1c-.5-.1-1.1-.2-1.6-.2 6.4 3.2 9.9 11.9 8 21.1-1.9 9.5-8.8 16.4-16.3 16.4h-.8c.1.1.3.1.5.2.8.3 1.6.6 2.5.8.8.2 1.6.2 2.3.2 7.5 0 14.4-6.9 16.3-16.4 2.2-10.6-2.7-20.5-10.9-22.1z" class="colorcfc5cc svgShape"></path>
            <path fill="#93c5fd" d="M297.5 193.3c.3.2.7.3 1.1.4.6.1 1.2.1 1.7-.1h.2c.4.3.8.5 1.2.6h.6c1.4-.1 2.7-1.4 3-3 .1-.7.1-1.3-.1-1.9.5.9.6 2 .3 3.1-.4 1.8-1.9 3.1-3.4 3.1-.2 0-.4 0-.6-.1-.4-.1-.9-.4-1.2-.7l-.1-.1h-.1c-.6.1-1.2.1-1.8 0-2.4-.6-3.8-3.4-3.3-6.3-.1 2.2.9 4.2 2.5 5zm-17.6-9c-.8 1.6-2.1 2.7-3.7 3-.3.1-.6.1-.9.1-1.7 0-3.7-.5-5-2.2l-.1-.1-.1.1c-.2.2-.1-.1-.3.1-2.4 2.1-5.4 3.2-8.4 3.2-2.8-.1-5.6-.9-7.3-2.8-.8-.9-1.8-2.9-1.7-4.1.7 1.3 1.1 1.8 1.5 2.3 1.8 1.9 4.3 2.8 7 2.8 3-.1 6-1.5 8.3-3.8.2-.2.4-.4.6-.7l.1-.1.1.1c1.3 1.6 3 2.8 4.7 2.7.3 0 .6 0 .9-.1 1.5-.3 2.8-1.5 3.5-3.1.8-1.7.9-3.7.5-5.7v-.1c.5.9.8 1.8 1 2.8.4 1.9.1 3.9-.7 5.6zm-39.5-43.5-.4-.1.3.3c7.7 8.9 8.1 21.6.9 29.5-3.8 4.2-9.2 6.4-15.1 6.4-2.9 0-5.8-.5-8.7-1.6h-.1l-.1.1c-2.6 6.2-7.1 10-12.1 10.1h-.2c-5 0-9.7-3.6-12.5-9.8l-.1-.2-.1.2c-6.1 10.4-17.3 16.9-29.1 16.9-2.5 0-5-.3-7.4-.9-9.6-2.3-17.7-8.7-22.2-17.7l-.1-.2-.1.1c-7 6.4-16.2 9.9-26.1 9.9-4.4 0-8.8-.7-13.1-2.1-8.6-2.9-15.8-8.3-20.6-15.2 11.2 6.3 25.3 8.5 37.4 6.1 6.8-1.4 16.1-4.5 21.5-9l.1-.1.1.2c4.7 10.4 15.5 17.5 26.8 18.1 14 .7 25-11 33.6-20.4 1.6 5.2 6.3 11.2 8.1 11.9 7.9 3 10.7-5.3 12.1-11.3 3.5 2.2 8.9 3.9 13.1 3.8 18.4-.5 12-20 4.4-29.4l-.2-.3c1.9 2.3 8.9-.2 10.8-1.2 3.6-1.9 6.8-5.3 8.2-9.1 1.4-3.9 1.1-8.5-.4-12.3-.5-1.2-8.1-11.7-9.2-10.3 11.7-14.3 6.1-35-9.4-41.7 8.5 1.1 16.1 6 20.3 13.4 5.7 9.9 4.6 22.1-2.7 31.1l-.1.1.1.1c1.2.8 2.3 1.7 3.3 2.6 9 8.2 11.1 20.7 4.6 27.8-2.8 3-6.9 4.7-11.5 4.7-1.4-.1-2.7-.2-4.1-.5z" class="color90c6dd svgShape"></path>
            <path fill="#dbeafe" d="M331.9 170.2c-19.1 23-39.9 78-47.2 98.3-.9.2-1.8.5-2.7.7 16.6-52.7 41.3-93.1 41.7-93.8 1.8-1.5 3.8-2.8 5.8-3.9.8-.5 1.6-.9 2.4-1.3z" class="colorccfdaa svgShape"></path>
            <path fill="#76b3ff" d="M315.8 170.2c-22.2-14-28.4-23-26.8-32.8.5-3.4 3.1-7.1 6.5-9.5 1.6-1.1 4.6-2.1 6.8-3-14.1 12.9-2.1 33.3 13.5 45.3zm98.8-61.8c-7.4-1.3-14.7-3.2-22.1-4.4-10-1.7-18.4 1.2-24.9 9.1-.5.6-3.8 6.2-4.4 6.2H362c.5-1 2.4-4.7 5.3-10.8 4.9-10.4 19.4-10.8 44.2-1.3 1 .4 2 .8 3.1 1.2zm17.3 5.6c-.9-.3-1.6-.5-2.3-.8h-.1c0-.4.1-2.1 1.4-3.4.8-.8 1.9-1.2 3.3-1.4-3 2.8-2.3 5.6-2.3 5.6zM297.7 268.2c-1.4 0-18.4.9-41.4 19.2-15.5 12.3-28.2 30.1-25.5 52.2v.2c-.1 0-.2-.1-.3-.1-.6-2.4-1-5.1-1.2-7.8-.7-12 5-25.4 16-37.6 10-11.1 23.6-20 36.4-23.9 5.5-1.7 11.3-2.4 16-2.2zM413 379.6l-8.5 18.5c-14.2 4-12.8 3.7-20.6 13.6-.7.9-2.5 2.4-4.7 4.1.1-1 .7-1.9 1.5-2.8 1-1.2 1.9-2.4 2.8-3.6l1.8-2.4c1.6-2.3 3.4-4.6 5.8-6 1.5-.8 3.2-1.5 4.8-2.1.7-.3 1.4-.5 2.1-.8 1.2-.5 2.3-.9 3.5-1.4l1.3-.5c3.3-6.4 6.2-12.4 8.4-18.1l1.1 1.1c0 .1.1.2.3.3.2-.2.4-.1.4.1z" class="colorff7976 svgShape"></path>
            <path fill="#dbeafe" d="M413 379.6s7.3-16.8 4.3-23.4c0 0-2.7 13.8-6.1 21.7l1.8 1.7zM280.8 448c-.4 2.9-2.3 5.8-3.7 8.3-1.7 3.1-3.7 6-5.7 8.9-2.7 3.9-7.6 2.2-11.3 1.3-6.4-1.4-11.9-2.6-18.1-4.5-1.5-.4-3-.8-4.5-1.4l-.1-.1c-.2-.2-.4-.5-.5-.8l29.8 3.7h.1v-.1c4-6.9 6.9-13.3 8.9-19 1.5 1.2 3.2 2.4 5.1 3.7z" class="colorccfdaa svgShape"></path>
            <path fill="#60a5fa" d="M384.1 407.3c0 .3.1.6.1.9l-3.6 3.7c-2.1-11.1-1.9-21.9.7-32.1 5-19.5 19.2-36.9 37.9-46.6 3.3-1.7 6.7-2.9 10.3-3.7-1.4.5-51.1 21-45.4 77.8zm-87.8 14.2s-4-25.7 8.4-28.1c11-2.1 25.1 9.5 55.7 9.2 0 0-24.1-3.4-60.4-18.2 0 .1-13.4 21-3.7 37.1zm-8.5-68.9s9.7 20.1 79.1 26c0 0-46.3-4.4-79.1-26zm-17.9 18.9s.6 25.6 8.5 42.7c0 0-11.4-14.8-11.5-45.7l3 3zm-3.9-8.6s0 .1.1.2c.7 1.3 4.7 8.3 12 8.5 0 0-5.1 4.1-12.2-6l.1-2.7zm14.9 84.8c-1.9-1.3-3.6-2.5-5.3-3.6 4.5-12.8 4.7-22 4.7-24.8l3.2 4.1 1.1 1.4.2.2c.9 11.7-3.1 21-3.9 22.7z" class="color63b7fc svgShape"></path>
            <path d="M163.1 193.4c-2.5 0-5.1-.3-7.6-.9-9.6-2.2-17.7-8.6-22.3-17.5-7 6.2-16.2 9.6-26 9.6-4.5 0-9-.7-13.3-2.2-16.8-5.6-28.1-20.9-27.8-37.5-.8.4-1.6.7-2.4 1-4.2 1.6-8.5 2.5-12.8 2.5-10.6 0-19.1-5-22.2-13-2.3-6-1.6-13 2-18.7 4.1-6.5 11.6-10.5 21.1-11.6-17-9.3-27.5-26.5-27.5-45.4 0-28.8 24.4-52.1 54.4-52.1 17.4 0 28.3 10.4 34.5 19.5C126.6 10.4 146.7 0 166 0c8.1 0 15.6 1.9 22.4 5.5 20 10.9 31 33.2 28.4 56.9 3.3-1.2 6.7-1.9 10.2-1.9 10.1 0 19.5 5.3 24.4 13.9 5.8 10 4.8 22.2-2.4 31.5 1 .7 2 1.5 2.9 2.3 9.3 8.5 11.4 21.4 4.6 28.7-2.9 3.2-7.2 4.9-12 4.9-.9 0-1.8-.1-2.7-.2 7 9.1 7.1 21.5 0 29.3-3.9 4.3-9.5 6.7-15.6 6.7-2.8 0-5.7-.5-8.4-1.5-2.7 6.2-7.4 9.9-12.5 10h-.3c-5 0-9.7-3.4-12.7-9.2-6.5 10.3-17.5 16.5-29.2 16.5zm-29.6-20.1.3.7c4.4 8.9 12.4 15.3 21.9 17.5 2.4.6 4.9.8 7.3.8 11.7 0 22.7-6.4 28.7-16.7l.5-.9.4 1c2.7 6 7.2 9.5 12.1 9.5h.2c4.9-.1 9.2-3.8 11.8-9.9l.2-.5.5.2c2.8 1.1 5.6 1.6 8.5 1.6 5.8 0 11.1-2.2 14.8-6.3 7.1-7.7 6.7-20.1-.9-28.9l-1.1-1.2 1.6.3c1.3.3 2.7.4 4 .4 4.5 0 8.5-1.6 11.2-4.6 6.3-6.9 4.2-19.1-4.6-27.2-1-.9-2.1-1.8-3.2-2.5l-.5-.3.4-.5c7.2-8.9 8.3-20.9 2.7-30.7-4.8-8.3-13.7-13.4-23.5-13.4-3.7 0-7.3.7-10.7 2.1l-.9.4.1-1c3-23.6-7.9-45.8-27.7-56.7-6.6-3.6-13.9-5.4-21.8-5.4-18.8 0-39.4 10.7-52.4 27.3l-.5.6-.4-.6c-6-8.9-16.7-19.6-34-19.6-29.4 0-53.2 22.9-53.2 51 0 19.1 11 36.4 28.6 45.2l1.9.9-2.1.1c-10.1.6-17.9 4.6-22.1 11.2-3.4 5.4-4.2 12-1.9 17.7 2.9 7.6 11 12.3 21.2 12.3 4.2 0 8.3-.8 12.4-2.4 1-.4 2-.8 3.1-1.4l.9-.4v1c-.8 16.5 10.3 31.8 27 37.4 4.2 1.4 8.6 2.1 12.9 2.1 9.7 0 18.9-3.5 25.8-9.8l.5-.4zM302 196.9c-.3 0-.5 0-.8-.1-.5-.1-.9-.4-1.3-.7-.6.1-1.2.1-1.8-.1-2.9-.7-4.6-4.2-3.7-7.6.7-3 3.2-5.2 5.7-5.2.4 0 .7 0 1.1.1 2.3.6 3.8 2.8 4 5.5 1 1.1 1.4 2.7.9 4.4-.5 2.2-2.2 3.7-4.1 3.7zm-1.7-2 .2.2c.3.3.7.5 1 .6 1.4.4 3-.9 3.5-2.8.3-1.3 0-2.7-.8-3.5l-.2-.2v-.2c0-2.3-1.3-4.2-3.1-4.6-.3-.1-.6-.1-.8-.1-2.1 0-4 1.8-4.7 4.3-.7 2.9.6 5.7 2.9 6.3.3.1.5.1.8.1.3 0 .5 0 .8-.1h.4zm-39.5-5.1c-3 0-5.6-1.1-7.5-3.2-4-4.3-3.2-11.6 1.8-16.2 2.5-2.3 5.6-3.6 8.8-3.6 3 0 5.6 1.1 7.5 3.2.4.5.8 1 1.2 1.6.2 0 .5-.1.7-.1 3.3 0 6.2 3 7.1 7.1.4 2.2.2 4.4-.6 6.2-.9 1.8-2.3 3.1-4.1 3.4-.3.1-.7.1-1 .1-1.7 0-3.5-.9-4.8-2.4l-.2.2c-2.6 2.4-5.7 3.7-8.9 3.7zM264 168c-2.9 0-5.7 1.2-8 3.3-4.5 4.2-5.3 10.7-1.8 14.6 1.6 1.8 4 2.8 6.6 2.8 2.9 0 5.7-1.2 8-3.3l.6-.6.5-.5.4.5c1.2 1.6 2.8 2.5 4.3 2.5.3 0 .6 0 .8-.1 1.4-.3 2.6-1.3 3.3-2.8.8-1.6 1-3.5.6-5.5-.7-3.5-3.3-6.2-6-6.2-.3 0-.6 0-.8.1l-.4.1-.3-.4c-.3-.7-.8-1.2-1.2-1.8-1.6-1.7-4-2.7-6.6-2.7zm70.8 69.9c-.8 0-1.7-.1-2.5-.2-4.2-.8-7.7-3.7-9.8-8.1-2.1-4.3-2.7-9.6-1.7-14.9 2-9.8 9.1-16.9 17-16.9.8 0 1.7.1 2.5.2 4.2.8 7.7 3.7 9.8 8.1 2.1 4.3 2.7 9.6 1.7 14.9-2 9.7-9.2 16.9-17 16.9zm3-39c-7.2 0-14.1 6.9-15.9 16-1 5-.5 10 1.6 14.1 2 4 5.2 6.7 9 7.5.7.2 1.5.2 2.3.2 7.2 0 14.1-6.9 15.9-16 1-5 .5-10-1.6-14.1-2-4-5.2-6.7-9-7.5-.8-.2-1.6-.2-2.3-.2zm54 58.8c-.3 0-.5-.2-.6-.5-.1-.3.1-.6.5-.7 9.1-1.7 16.6-9.6 18.7-19.8 1.3-6.4.3-12.9-2.8-18.3-3.1-5.3-7.8-8.9-13.5-10-5.5-1.1-11.1.2-15.9 3.7-2.5 1.8-4.7 4.2-6.3 6.8-1.8 2.8-3 5.9-3.7 9.2-2.3 11.3 2.5 22.3 11.7 26.8.3.1.4.5.3.7-.1.3-.5.4-.8.3-9.6-4.7-14.6-16.2-12.3-28 .7-3.4 2-6.7 3.8-9.6 1.8-2.8 4.1-5.3 6.6-7.2 5.1-3.7 11-5.1 16.8-3.9 5.9 1.2 11 5 14.2 10.6 3.2 5.6 4.2 12.4 2.9 19.1-2.1 10.7-10 19-19.6 20.7.1.1.1.1 0 .1z" fill="#000000" class="color000 svgShape"></path>
            <path d="M369.5 257.4s.4-.2 1.3-.5c.4-.2.9-.3 1.5-.5s1.2-.4 2-.6c.7-.2 1.5-.3 2.4-.5l2.7-.3c.9 0 1.9-.1 2.9-.1h1.5l1.5.1c1 .1 2 .3 3 .5 1 .1 1.9.5 2.8.7.9.2 1.7.6 2.5.9.4.2.8.3 1.2.5.4.2.7.4 1 .6.7.4 1.3.7 1.8 1 .5.3.9.6 1.3.9.7.5 1.1.8 1.1.8s-.5-.2-1.2-.6c-.4-.2-.9-.4-1.4-.7-.5-.3-1.2-.5-1.9-.8-.7-.3-1.4-.6-2.2-.8-.8-.2-1.6-.6-2.5-.8-.9-.2-1.8-.5-2.7-.6-.9-.2-1.9-.4-2.9-.4l-1.5-.2c-.5 0-1 0-1.4-.1-1-.1-1.9 0-2.8 0-.9.1-1.8.1-2.6.2l-2.4.3c-1.5.2-2.7.4-3.5.7l-1.5.3zm85.5 75.4c-.3 0-.6-.2-.6-.6 0-1.7-.1-3.4-.2-5-.9-20.6-.4-36.8 4.7-53.7 4.8-15.9 10.2-34 6-50.7-.3-.6-3.3-6.3-9-12.9-.2-.2-.2-.6.1-.8.2-.2.6-.2.8.1 6 7 9.1 13.1 9.1 13.2v.1c4.3 17.1-1.2 35.3-6 51.4-5 16.8-5.5 32.8-4.6 53.3.1 1.8.1 3.4.2 5.1.1.2-.2.5-.5.5z" fill="#000000" class="color000 svgShape"></path>
            <path d="M456.5 210.1v-.5l-.4.3c-1.9-2.2-4-4.4-6.2-6.4-19.7-18.2-60.8-37.9-92.8-37.9-13.6 0-24.8 3.4-33.1 10.2l-.3.3-.3-.2c-3.6-2.4-7.2-4.8-10.9-7.2-.8-.5-1.7-1.1-2.5-1.6-10-6.4-23.7-15.2-21.5-29.2.6-3.6 3.3-7.5 6.8-9.9 9.2-6.2 25.8-8.7 59.2-9h14.7c21 .2 37.9 9.9 47.4 27.4.3.5 31.9 50.1 40.5 62.8l-.4.3-.2.6zM357 164.4c32.3 0 73.7 19.8 93.6 38.2.6.5 1.1 1.1 1.7 1.6-11.6-17.7-36.5-56.9-36.8-57.3-9.3-17.1-25.8-26.7-46.4-26.8h-14.7c-33.2.3-49.6 2.7-58.6 8.8-3.3 2.3-5.8 5.9-6.3 9.2-2.1 13.2 10.7 21.4 21 28 .9.6 1.7 1.1 2.6 1.6 3.5 2.3 7 4.6 10.6 6.9 8.3-6.7 19.5-10.2 33.3-10.2z" fill="#000000" class="color000 svgShape"></path>
            <path d="M281.7 270h-.2c-.3-.1-.5-.4-.4-.7 16.7-53.1 41.6-93.8 41.9-94.2.2-.3.5-.3.8-.2.3.2.3.5.2.8-.2.4-25.1 41-41.8 94 0 .1-.2.3-.5.3zm74.6 188.1c-4.9 0-9.8-.4-14.8-1.2-5.1-.8-10-2-14.7-3.4l-.4-.1c-20.2-6.4-36.4-18.4-46.8-34.7-6.2-9.8-10.2-20.9-11.9-33.1-.8-5.8-1.3-11.7-1.6-17.7 0-.3.2-.6.5-.6s.6.2.6.5c.2 6 .8 11.9 1.6 17.6 1.7 12.1 5.6 23 11.7 32.7 10.3 16.2 26.4 28.1 46.6 34.4l.4.1c4.5 1.4 9.2 2.5 14.1 3.3 5.6.9 11.3 1.3 16.9 1.1 15.5-.4 31.2-4.9 45.2-13 .3-.2.6-.1.8.2.2.3.1.6-.2.8-14.2 8.2-30 12.7-45.7 13.1h-2.3zm93-259.2c-.1 0-.2 0-.3-.1-.3-.2-.3-.5-.1-.8.2-.3 19.1-28.3 20.3-65.1 0-.3.3-.6.6-.5.3 0 .6.3.5.6-1.2 37.2-20.3 65.5-20.5 65.7-.1.1-.3.2-.5.2z" fill="#000000" class="color000 svgShape"></path>
            <path d="M465.5 223.1c-.1 0-.2 0-.3-.1-.3-.2-.3-.5-.1-.8 18.8-27.7 25.3-50.7 19.4-68.3-8.1-24.2-39.1-34.7-55.7-40.3-1.7-.6-3.4-1.1-5-1.7-4.5-1.5-8.8-2.9-12.4-4.3-24.6-9.5-38.9-9.1-43.7 1-3.4 7.1-5.4 11-5.5 11-.1.3-.5.4-.8.2-.3-.1-.4-.5-.2-.8 0 0 2.1-3.9 5.4-11 5.1-10.8 19.9-11.3 45.1-1.6 3.6 1.4 7.8 2.8 12.3 4.3 1.6.5 3.3 1.1 5 1.7 16.8 5.7 48.1 16.3 56.4 41 6 17.9-.6 41.2-19.6 69.2.1.4-.1.5-.3.5z" fill="#000000" class="color000 svgShape"></path>
            <path d="M354.3 120c-.1 0-.2 0-.3-.1-.3-.2-.4-.5-.2-.8.2-.3 4.6-8 13.2-11.3.3-.1.6 0 .7.3.1.3 0 .6-.3.7-8.2 3.1-12.5 10.7-12.6 10.8-.1.3-.3.4-.5.4zM454.1 123.7c-.4 0-.6-.3-.6-.6.9-12.3-5.2-13.1-13.8-14.2l-2.1-.3c-3.3-.4-5.6 0-7 1.3-1.4 1.3-1.3 3.1-1.3 3.1 0 .3-.2.6-.5.6s-.6-.2-.6-.5c0-.1-.2-2.3 1.6-4 1.6-1.5 4.3-2.1 7.9-1.6l2.1.3c8.4 1.1 15.7 2 14.8 15.4.1.3-.2.5-.5.5zM331.2 212c-.9 0-1.8-.2-2.5-.7-2.4-1.5-2.9-4.9-1.2-7.6 1.1-1.8 3-2.9 4.9-2.9.9 0 1.8.2 2.5.7 2.4 1.5 2.9 4.9 1.2 7.6-1.2 1.8-3 2.9-4.9 2.9zm1.1-10c-1.5 0-3 .9-3.9 2.3-1.4 2.2-1 4.9.9 6 .6.4 1.2.5 1.9.5 1.5 0 3-.9 3.9-2.3 1.4-2.2 1-4.9-.9-6-.5-.3-1.2-.5-1.9-.5zm43.1 20c-.9 0-1.8-.2-2.5-.7-.9-.6-1.5-1.4-1.9-2.4l-.1-.3.1-.2c1.8-2.8 4.1-5.3 6.6-7.2l.2-.2.3.1c.3.1.5.2.8.4 1.2.7 1.9 1.9 2.2 3.4.2 1.4-.1 2.9-.9 4.2-1.1 1.8-2.9 2.9-4.8 2.9zm-3.3-3.2c.3.7.7 1.2 1.3 1.6.6.4 1.2.5 1.9.5 1.5 0 3-.9 3.9-2.3.7-1.1.9-2.3.8-3.4-.2-1.1-.8-2-1.6-2.6-.1-.1-.2-.1-.4-.2-2.2 1.7-4.3 3.9-5.9 6.4zm-71.9 206.9c-1.5-1.1-2.8-2.6-3.9-4.1-.6-.8-1-1.6-1.5-2.4-.4-.8-.9-1.7-1.2-2.6l-.9-2.7c-.2-.9-.4-1.9-.6-2.8-.1-.9-.2-1.9-.3-2.8 0-1 0-1.9.1-2.9 0-.5.1-.9.1-1.4.1-.5.1-.9.2-1.4.2-.9.3-1.9.6-2.8.2-.9.5-1.8.8-2.7l.9-2.7c.4-.9.7-1.8 1.1-2.6.4-.9.8-1.7 1.2-2.6.5-.8.9-1.7 1.4-2.5l1.5-2.4.2-.3.4.2c2.4 1 4.9 2 7.4 2.9l3.7 1.4c1.2.5 2.5.9 3.7 1.3l3.7 1.3c1.2.4 2.5.9 3.7 1.3l7.5 2.4 7.6 2.2c1.3.4 2.5.8 3.8 1.1l3.8 1 3.8 1c1.3.4 2.6.6 3.9.8l7.8 1.5.8.2-.5.6c-1.2 1.5-2.4 3.2-3.5 4.9-1.1 1.7-2.1 3.4-3 5.2l-1.2 2.7-.5 1.4-.5 1.4c-.3 1-.5 1.9-.7 2.9-.2 1-.3 2-.3 3v1.5c0 .5.1 1 .2 1.5l.1.7.2.7.2.7c.1.2.2.5.3.7.2.5.4.9.7 1.3.3.4.5.9.8 1.3l.9 1.2 1.1 1.1c.8.6 1.5 1.3 2.4 1.8.4.3.8.5 1.3.8l1.4.7c.9.5 1.9.7 2.8 1.1 1 .3 1.9.6 2.9.9-1-.3-2-.5-2.9-.8-.9-.4-1.9-.6-2.8-1l-1.4-.6c-.5-.2-.9-.5-1.3-.7-.9-.5-1.7-1.1-2.5-1.7l-1.1-1c-.4-.4-.7-.8-1-1.2-.4-.4-.6-.8-.9-1.3-.3-.4-.5-.9-.7-1.4-.1-.2-.2-.5-.3-.7l-.2-.7-.2-.7-.1-.8c-.1-.5-.2-1-.2-1.5s-.1-1-.1-1.5c0-1 .1-2.1.2-3.1l.6-3 .4-1.5.5-1.4c.4-.9.8-1.9 1.2-2.8.9-1.8 1.9-3.6 2.9-5.4 1.1-1.7 2.2-3.4 3.5-5l.3.8-7.8-1.4c-1.3-.2-2.6-.5-3.9-.8l-3.9-.9-3.9-.9c-1.3-.3-2.6-.7-3.8-1.1l-7.6-2.2-7.5-2.5c-1.3-.4-2.5-.8-3.7-1.3l-3.7-1.3c-1.2-.5-2.5-.9-3.7-1.4l-3.7-1.4c-2.5-.9-4.9-1.9-7.4-2.9l.6-.2-1.5 2.4c-.5.8-.9 1.6-1.4 2.4-.4.8-.8 1.7-1.3 2.5-.4.9-.8 1.7-1.1 2.6-.3.9-.7 1.7-1 2.6-.3.9-.6 1.8-.8 2.7-.3.9-.4 1.8-.6 2.7-.1.5-.1.9-.2 1.4-.1.5-.1.9-.2 1.4-.1.9-.1 1.9-.1 2.8 0 .9.1 1.9.2 2.8.1.9.3 1.9.5 2.8.2.9.5 1.8.8 2.7.3.9.7 1.7 1.1 2.6.4.8.9 1.7 1.4 2.4 1.2.9 2.4 2.3 3.9 3.5zm-7.9 72-.4-.2c-45.8-22.8-55.7-37-56.1-37.6l-.7-1 31.1 3.8c14.6-25.2 13.4-44.1 13.4-44.3 0-.3.2-.6.5-.6s.6.2.6.5c0 .2 1.3 19.6-13.7 45.3l-.2.3-29.3-3.6c3.2 3.7 16.2 16.9 54.4 36l34.6-43.7c.2-.2.5-.3.8-.1.2.2.3.5.1.8l-35.1 44.4z" fill="#000000" class="color000 svgShape"></path>
            <path d="M314 469.9c-.1 0-.2 0-.3-.1-12.1-7-27.7-17.6-38.6-25.2-.3-.2-.3-.5-.1-.8.2-.3.5-.3.8-.1 10.9 7.6 26.4 18.2 38.5 25.2.3.2.4.5.2.8-.1.1-.3.2-.5.2zm92.3 42.1c-16.7 0-53-8.5-54.7-8.9l-.5-.1 7-45.6c0-.3.3-.5.6-.5s.5.3.5.6l-6.8 44.5c5 1.2 46 10.5 58.3 8.5-1.5-2.2-6.3-9.1-11.1-13.2l-.3-.3.2-.4c2.1-4 6.5-9.9 11.6-16.6 2.3-3 4.7-6.1 7.3-9.4 12.6-16 28.2-35.9 36.2-58.8l.2-.7c3.8-10.8 7.7-21.9 7.3-38.8 0-.3.2-.6.6-.6.3 0 .6.2.6.6.3 17.1-3.6 28.3-7.4 39.2l-.2.7c-8.1 23-23.8 43-36.4 59.1-2.6 3.3-5 6.4-7.3 9.4-4.9 6.5-9.1 12.1-11.3 16.1 5.8 5.1 11.2 13.5 11.4 13.9l.4.7-.8.2c-1.4.3-3.2.4-5.4.4z" fill="#000000" class="color000 svgShape"></path>
            <path d="M410.5 360.8c1-.8 1.9-1.8 2.9-2.6.5-.4 1-.9 1.5-1.3s1.1-.8 1.7-1.1l.9-.4-.1 1c-.1.9-.3 1.8-.4 2.7-.2.9-.3 1.8-.6 2.6-.2.9-.4 1.7-.7 2.6-.2.9-.5 1.7-.7 2.6l-.8 2.5c-.3.8-.6 1.7-.9 2.5-.3.8-.6 1.7-.9 2.5l-1 2.5c-.6 1.7-1.3 3.3-2 4.9-.7 1.6-1.4 3.3-2.2 4.9-.8 1.6-1.5 3.2-2.3 4.8l-2.4 4.7-.1.2-.2.1-7.5 3c-1.3.5-2.5 1-3.6 1.6l-.4.2-.4.3-.4.3-.4.3c-.2.2-.5.4-.7.6-.2.2-.5.4-.7.7-.9.9-1.7 2-2.5 3.1l-2.4 3.3-2.5 3.2c-.8 1-1.7 2.1-1.5 3.2.1 1.1 1 1.9 2.2 2.2 1.2.3 2.5.3 3.7-.1 2.5-.6 4.8-2.1 7-3.6l1.7-1.1c.3-.2.6-.4 1-.5.4-.1.8-.3 1.3-.2.1 0 .3.1.4.1.1.1.1 0 .2.2l.1.1c.3.3.3.5.4.8.1.5 0 .9-.1 1.2-.2.7-.4 1.3-.7 2-.9 2.6-2.1 5.1-3.6 7.4-.7 1.2-1.6 2.3-2.5 3.3-.5.5-.9 1-1.3 1.5s-.6 1-.7 1.6c-.2 1.1.3 2.3 1.1 3.4.7 1 1.6 2 2.6 2.8.3.2.5.4.8.6l.2.2.1.1.1.1.4.3.8.6.8.5c.5.3 1.1.7 1.7 1 .6.3 1.2.7 1.8 1 2.4 1.2 4.8 2.4 7.3 3.3 2.5.9 5.1 1.5 7.7 1.6 2.6.1 5.3-.3 7.7-1.3 2.4-1 4.5-2.7 6.3-4.6l1.4-1.5 1.3-1.5c.9-1 1.7-2 2.6-3.1 3.4-4.1 6.7-8.4 9.6-12.9 2.9-4.5 5.5-9.2 7.7-14.1s4.1-10 5.5-15.1c1.4-5.2 2.4-10.5 3-15.8.2-1.3.2-2.7.3-4 .1-1.3.2-2.7.2-4 .1-2.7 0-5.4-.7-7.9s-2-4.8-4.1-6.4c-2-1.6-4.5-2.7-7-3.3-5.2-1.2-10.6-.9-15.8.2-1.3.3-2.6.6-3.9 1l-1 .3-.5.2-.5.2-1.9.7c-2.4 1-4.8 2.2-7.1 3.6-.3.2-.6.1-.8-.2-.2-.3-.1-.6.2-.8 2.3-1.4 4.8-2.6 7.3-3.7l1.9-.7.5-.2.5-.2 1-.3c1.3-.4 2.6-.7 4-1 5.3-1.1 10.9-1.5 16.3-.2 2.7.6 5.3 1.8 7.5 3.5s3.8 4.3 4.4 7c.7 2.7.8 5.5.7 8.2 0 1.4-.1 2.7-.2 4.1-.1 1.4-.2 2.7-.3 4.1-.6 5.4-1.6 10.7-3 16l-.5 2-.6 1.9-.6 1.9-.7 1.9c-.9 2.5-2 5.1-3.1 7.5-2.2 4.9-4.9 9.7-7.8 14.3-2.9 4.6-6.2 8.9-9.7 13-.9 1-1.7 2.1-2.6 3.1l-1.4 1.5-1.4 1.5c-1.9 2-4.1 3.7-6.7 4.8-2.6 1.1-5.4 1.6-8.2 1.4-2.8-.1-5.5-.8-8.1-1.7-2.6-.9-5.1-2.1-7.5-3.3-2.4-1.3-4.8-2.6-6.9-4.4-1.1-.9-2.1-1.9-2.9-3.1-.7-1.1-1.5-2.6-1.2-4.2.3-1.6 1.4-2.7 2.3-3.7.9-1 1.7-2 2.4-3.1 1.4-2.2 2.6-4.6 3.5-7.1.2-.6.5-1.3.6-1.9.1-.3.1-.6.1-.8 0-.1-.1-.2 0-.2l.2-.3c.1.1 0 0 0 0h-.1c-.1 0-.4 0-.7.1-.3.1-.5.3-.8.4l-1.7 1.1c-2.2 1.5-4.6 3.1-7.3 3.7-1.4.3-2.8.4-4.3 0-.7-.2-1.4-.5-2-1.1-.6-.6-1-1.3-1.1-2.1-.1-.8.2-1.6.6-2.3.4-.6.8-1.2 1.2-1.7l2.5-3.2c.8-1.1 1.6-2.2 2.4-3.2.8-1.1 1.6-2.2 2.6-3.2.2-.3.5-.5.8-.7.2-.2.5-.5.8-.7l.4-.3.4-.3.4-.3c.2-.1.3-.2.5-.3 1.2-.7 2.5-1.2 3.8-1.6 2.5-.9 5-2 7.5-3l-.3.3 2.4-4.7c.8-1.6 1.5-3.2 2.3-4.8.7-1.6 1.4-3.2 2.2-4.8.7-1.6 1.4-3.3 2-4.9l.9-2.5c.3-.8.6-1.7.9-2.5.3-.8.6-1.7.9-2.5l.8-2.5c.3-.8.5-1.7.7-2.5.2-.8.4-1.7.6-2.6.2-.9.4-1.7.6-2.6.2-.9.3-1.7.4-2.6l.8.6c-.5.2-1.1.5-1.7.8-.6.3-1.1.7-1.7 1-1 .8-2.1 1.6-3.2 2.3z" fill="#000000" class="color000 svgShape"></path>
            <path d="M453.4 402.5c-2.5-.2-5-.8-7.7-1.6-15.1-4.7-29.8-17.6-35.4-22.9-.2-.2-.2-.6 0-.8.2-.2.6-.2.8 0 5.6 5.3 20.1 18 34.9 22.6 2.6.8 5.1 1.3 7.5 1.5.3 0 .5.3.5.6-.1.4-.3.6-.6.6zm-72.1-22.2c-.1 0-.1 0 0 0-67.9-6.1-96.6-30.2-96.9-30.5-.2-.2-.3-.6-.1-.8.2-.2.6-.3.8-.1.3.2 28.8 24.2 96.2 30.2.3 0 .5.3.5.6 0 .4-.2.6-.5.6zM409.1 481c-23 0-44.6-5.7-52.9-8.2-.3-.1-.5-.4-.4-.7.1-.3.4-.5.7-.4 8.6 2.6 31.2 8.6 54.9 8.1.3 0 .6.2.6.6 0 .3-.2.6-.6.6h-2.3z" fill="#000000" class="color000 svgShape"></path>
            <path d="M380.6 412.7c-.3 0-.5-.2-.6-.5-2.2-11.3-2-22.3.7-32.6 5.1-19.7 19.4-37.3 38.2-47.1 9.8-5.1 21.3-6.2 31.8-3.1 1.7.5 3.3 1.3 4.6 2.3 3 1.9 5.4 5 7.5 9.6 3.1 6.8 3.9 14.7 4.3 21.5.1 1.9.2 4 .2 6-.1 1.9-.9 3.4-2.4 4-1.6.7-3.7.2-5.3-1.2-.2-.2-.2-.6 0-.8.2-.2.6-.2.8 0 1.2 1.1 2.8 1.5 4.1 1 1.1-.5 1.7-1.5 1.7-3 .1-1.9-.1-4.1-.2-5.9-.4-6.7-1.2-14.4-4.2-21.1-2-4.4-4.2-7.3-7.1-9.1-1.3-1-2.7-1.7-4.3-2.2-10.1-3-21.4-1.9-30.9 3-18.6 9.6-32.7 27-37.7 46.4-2.6 10.2-2.9 21-.7 32.2v.1c0 .3-.2.5-.5.5zm-6-122.8c-3 0-6-.8-8.6-2.3-.5-.3-6-5-5.5-6.9.1-.3.3-.8 1.3-.8 9.3-.2 27.2-7.9 27.4-7.9h.1c1.3-.2 1.9.3 2.2.8 1.2 1.9-.8 6.5-1.2 7.4-1.3 2.8-3.6 5.4-6.4 7.2-2.8 1.6-6 2.5-9.3 2.5zm14.9-16.9c-1.4.6-18.4 7.8-27.8 8h-.3c-.1.9 4.1 5 5 5.6 2.4 1.4 5.2 2.1 8 2.1 3.1 0 6.1-.9 8.7-2.5 2.6-1.6 4.7-4.1 5.9-6.7.9-1.9 2-5.2 1.3-6.3.1-.1-.2-.3-.8-.2zm-115 52.6c-.2.1-.5.3-.7.5-.2.2-.4.4-.6.5l-.6.6c-.2.2-.3.4-.5.6-.7.9-1.3 1.8-1.8 2.8-.6 1-1.1 1.9-1.6 2.9l-.4.7-.3.8-.7 1.5v.1l-.1.1.1-.2-.2.5v-.1l-.3 1.8-.3 1.8c-.1 1.2-.3 2.4-.3 3.7-.1 1.2-.2 2.5-.2 3.7 0 1.2-.1 2.5-.1 3.7v3.7c0 1.2 0 2.5.1 3.7 0 1.2.1 2.5.1 3.7l.2 3.7-.1-.3 1 1.2 1 1.2 1.1 1.1c.4.3.8.7 1.2 1l.6.5.6.4c.2.1.4.2.7.4.2.1.4.2.7.3.5.2.9.3 1.4.4.5.1 1 .1 1.5 0s1-.2 1.4-.3c.5-.2.9-.4 1.3-.7l1.2-.9c.4-.3.7-.7 1.1-1.1.7-.8 1.3-1.6 1.8-2.5.5-.9 1-1.8 1.4-2.8v.2l-.1-5.1c0-1.7-.1-3.4-.1-5.1v-10.2l.1-20.4c0-.3.3-.6.6-.6s.6.3.6.6l-.1 20.4v10.2c0 1.7 0 3.4.1 5.1l.1 5.1v.2c-.4 1-.9 2-1.5 2.9-.6.9-1.2 1.8-1.9 2.7l-1.2 1.2c-.4.4-.9.7-1.3 1-.5.3-1 .6-1.5.8-.5.2-1.1.3-1.7.4-.6.1-1.2 0-1.7 0-.6-.1-1.1-.2-1.7-.4-.3-.1-.5-.2-.8-.3-.3-.1-.5-.2-.7-.4l-.7-.4-.7-.5c-.5-.3-.8-.7-1.3-1.1l-1.2-1.2-1-1.2-1-1.3-.1-.1v-.2l-.3-3.7c-.1-1.3-.1-2.5-.2-3.7-.1-1.2-.1-2.5-.1-3.7v-3.7c0-1.2 0-2.5.1-3.7 0-1.2.2-2.5.2-3.7.1-1.2.3-2.5.4-3.7.1-.6.2-1.2.3-1.9l.3-1.9v-.2l.2-.5v-.1l.1-.1-.1.2.7-1.5.4-.8.4-.7c.5-1 1.1-1.9 1.8-2.9.6-.9 1.4-1.8 2.2-2.6l.6-.6c.2-.2.4-.4.7-.5.2-.2.5-.3.7-.5.2-.3.4-.4.7-.5z" fill="#000000" class="color000 svgShape"></path>
            <path d="M264.9 363.3c-4.5 0-29.1-1.1-35-24.2-.6-2.5-1.1-5.2-1.2-8-1.5-25.8 26.7-54.1 52.9-62.2 2.1-.7 4.1-1.2 6-1.5 3.2-.6 6.5-.8 10-.7 4.6.2 7.3 2.3 7.4 5.9 0 1.3-.5 2.9-1.4 4-1.6 2.1-4.2 3.5-6 4.4-.3.1-1 .4-2.2.8-1.1.4-2.5.9-4.2 1.6 1.1 1.9 2.3 4.4 3.6 6.9 3.1 6.3 5.7 13.1 3.7 20.8-1 3.9-2.5 7.1-4.6 9.6-3.4 4-6.7 5.3-9.4 3.5-.3-.2-1.2-.9-1.5-1.3-.2-.2-.2-.6 0-.8.2-.2.6-.2.8 0 .3.3 1 .9 1.3 1.1 2.9 2 6.2-1.2 7.9-3.2 1.9-2.3 3.5-5.5 4.4-9.1 1.9-7.3-.6-14-3.6-20-1.4-2.7-2.8-5.4-3.9-7.4l-.3-.6.6-.2c2-.8 3.7-1.4 4.9-1.8 1.1-.4 1.8-.7 2.1-.8 1.7-.8 4.1-2.2 5.6-4.1.7-.9 1.2-2.2 1.2-3.3-.1-3.7-3.5-4.7-6.3-4.8-3.4-.2-6.6.1-9.7.7-1.8.3-3.8.8-5.9 1.5-25.8 7.9-53.6 35.7-52.1 61.1.2 2.8.6 5.4 1.2 7.8 6.3 24.5 34.3 23.4 34.6 23.4.3 0 .6.2.6.5s-.2.6-.5.6c-.3-.2-.6-.2-1-.2z" fill="#000000" class="color000 svgShape"></path>
            <path d="M287.3 312.9s0 .4-.1 1-.3 1.5-.6 2.6-.7 2.3-1.3 3.5c-.6 1.2-1.4 2.5-2.3 3.7-.5.6-1 1.1-1.6 1.6-.6.5-1.2.9-1.8 1.2-.6.3-1.3.6-1.9.8-.6.2-1.2.3-1.8.4-.6.1-1.1.1-1.5.1-.5 0-.8 0-1.2-.1-.6-.1-1-.1-1-.1-.1 0-.2-.1-.2-.3 0-.1.1-.2.2-.2 0 0 .4 0 1 .1h1.1c.4 0 .9-.1 1.4-.1.5-.1 1.1-.2 1.7-.4.6-.2 1.2-.4 1.7-.7.6-.3 1.2-.7 1.7-1.1.5-.4 1-.9 1.5-1.5.9-1.1 1.7-2.3 2.3-3.5.6-1.2 1.1-2.4 1.5-3.4 1-2.2 1.2-3.6 1.2-3.6zM248.4 344.6c-7.7 0-14.6-3.1-18.3-5.2-.3-.2-.4-.5-.2-.8.2-.3.5-.4.8-.2 6.4 3.6 22.7 10.5 35.7-2.6l.8.8c-6 6.1-12.6 8-18.8 8zm161.9-139.9c-.3 0-.5-.1-.8-.2-.5-.2-.9-.5-1.4-.7l-.7-.4c-2.3-1.2-4.7-2.5-7.3-3.6-1.3-.6-2.6-1.1-3.8-1.6-.6-.2-1.3-.5-1.9-.7-.1 0-.2 0-.4-.1-1.4-.3-1.8-.5-1.9-.8-.5-1.4-.7-3.3-.6-4.8.2-2.3 2-4.1 4.4-4.3h.6c6.3 0 15.2 9.7 15.3 15.2 0 .7-.2 1.3-.6 1.7-.2.2-.5.3-.9.3zm-17.2-8.7c.3.1.9.2 1.2.3.2.1.4.1.5.1.7.2 1.3.5 2 .7 1.2.5 2.5 1 3.8 1.6 2.6 1.2 5.1 2.5 7.4 3.7l.7.4c.5.2.9.5 1.4.7.1.1.2.1.3.1 0 0 .1 0 .2-.1.2-.2.3-.5.3-.8-.1-5-9.1-14.7-14.7-14.1-1.9.2-3.2 1.5-3.4 3.3-.3 1.3-.1 2.9.3 4.1zm-60.6-7.6c-.3 0-.6-.1-.7-.4-.4-.6-.1-1.5 0-1.7 1.6-4.3 13.2-6.3 14.6-6.5.7-.1 1.4-.1 2-.1 2.3 0 3.9.7 4.7 2 1.5 2.4-.4 6.1-.4 6.2l-.2.3h-.4c-2.3-.3-4.9-.4-7.8-.4-6.4-.1-11.7.6-11.8.6zm15.8-7.6c-.5 0-1.1 0-1.8.1-3.4.5-12.5 2.7-13.7 5.8-.1.2-.1.4-.1.6 1.1-.1 5.9-.6 11.5-.6 2.7 0 5.3.1 7.5.4.4-.9 1.2-3.3.3-4.8-.6-1.1-1.9-1.5-3.7-1.5z" fill="#000000" class="color000 svgShape"></path>
        </svg>
    </g>
</svg>