<svg id="SvgjsSvg1148" width="256" height="256" xmlns="http://www.w3.org/2000/svg" version="1.1" xmlns:xlink="http://www.w3.org/1999/xlink" xmlns:svgjs="http://svgjs.com/svgjs">
    <defs id="SvgjsDefs1149"></defs>
    <g id="SvgjsG1150">
        <svg xmlns="http://www.w3.org/2000/svg" viewBox="0 0 512 512" width="256" height="256">
            <path fill="#8cb0dc" d="M215 293.4c-1.1-2.8-2.4-5.9-3.9-10-3.5-9.7-2.6-15.6-.9-19 1.4-2.7 3.3-3.8 3.8-4.1-4.2-8.5-7.4-17.3-7.8-26.3-.4-9.6-.6-19.3-.8-28.7-.3-17-.6-33.6-2.4-48.5h-.1l-.1-.3h.1c-.4-3.4-.9-6.7-1.5-9.9-.5-2.6-1-5.2-1.7-7.7-3-12.1-7.8-22.4-15.6-29.9-14.6-1.8-29.1-1.3-43.2 1.5-8.5 1.7-16.9 4.2-25.1 7.5-15.1 6.1-28.8 9.2-40.9 9.2h.1c-8.4 0-16.1-1.5-22.7-4.5-.9-.4-1.8-.8-2.6-1.3-7.3-3.8-11.7-8.8-14.2-12.3-1.1 1.9-5.6 10.2-11 24.2-11 28.5-28.4 88.2-21 167.9 2.8-5.6 7.3-10.9 12.9-15.1 2.8-2.1 5.7-3.8 9-5.2 6.3-2.8 13.5-4.1 21.5-4.1 4.8 0 10 .5 15.3 1.5 8.2 1.6 16.6 4.9 24.9 9.9 11.3 6.8 19.8 14.7 25.4 23.5 1.7 2.6 3.1 5.4 4.4 8.2 44.5 8 68.1-2.8 83.7-10 7.7-3.5 13.2-6.1 18.5-5.3-1.2-4-2.4-7.1-4.1-11.2zm-69.5-150.5c2.4.7 5.2 1 8.2 1 1.8 0 3.6-.1 5.4-.4.9-.1 1.8-.3 2.6-.4.6-.1 1.1-.2 1.7-.3h.3c.7-.1 1.4-.2 2.1-.2 1.1 0 1.9.2 2.6.7.9.7 1.4 1.7 1.3 2.9-.1 1.2-.7 2.4-1.7 3-1.8 1.1-3.8 1.2-5.5 1.2h-.4c-1.1 0-2.1-.1-3-.3-.1 0-10.2-1.5-13.9-7.1l-.2-.4.5.3zM109 130.1h.1c1.8 0 3 .6 3.8 1.7 1.7 2.6-.2 7.2-.3 7.4l-.1.1h-.1c-.9-.2-2-.3-3.4-.3-8.8-.2-.1-8.9 0-8.9zm-25.1 35.7c3-5.2 7.5-8.5 12.7-9.3.8-.1 1.6-.2 2.4-.2 10 0 18.9 9.3 20.8 21.7 2.1 13.5-4.9 25.9-15.7 27.5-.8.1-1.6.2-2.4.2-10 0-18.9-9.3-20.8-21.7-1-6.5.1-13 3-18.2zm37.2 76.3c-2.8 6.5-8.7 9.8-17.5 9.8-2.4 0-5-.2-7.9-.7-12.1-2-17.2-14.5-15.8-25.2.1-.4.1-.9.2-1.2.6-2.6 1.9-3.9 4-3.9 1.2 0 2.6.4 4.5 1.2 6.8 3 12.3 3.6 15.7 3.6 2.6 0 4-.4 4-.4 1.1-.3 2.2-.4 3.3-.4 3.7 0 6.7 1.6 8.7 4.6 2.4 3.5 2.7 8.3.8 12.6zm44-42.6c-3.8 0-17.2 5.1-12.4 2.8-7.6-2.9-13.4-10.9-14.8-20.6-1-6.5.1-13 3-18.2 3-5.2 7.5-8.5 12.7-9.3.8-.1 1.6-.2 2.4-.2 10 0 18.9 9.3 20.8 21.7 1.5 9.4-1.5 18.7-7.6 23.8-4.3-.3-2.9 0-4.1 0z" class="colorafdc8c svgShape"></path>
            <path fill="#4f5c72" d="M109 138.5c1.4 0 2.5.1 3.4.3.3-.8 1.7-4.7.3-6.9-.7-1-1.8-1.5-3.5-1.5h-.1c-.1 0-10.6 1.1-25.5 11.8l.3.7c1.6-.4 16.7-4.4 25.1-4.4z" class="color4f7258 svgShape"></path>
            <path fill="#eff6ff" d="M167.8 199.4c.3 0 .5.1.8.1 6.1-5 9.2-14.3 7.7-23.7-1.9-12.2-10.7-21.4-20.5-21.4-.8 0-1.6.1-2.4.2-5.1.8-9.5 4-12.4 9.2-2.9 5.1-4 11.5-3 18 1.5 9.6 7.3 17.6 14.9 20.4.3-.1.5-.2.8-.3 4.9-2.3 9.7-3.1 14.1-2.5zm-6.4-14.7c-.5 5.8-4.2 10.4-8.5 10.4h-.5c-4.4-.4-7.6-5.7-7-11.7.5-6 4.5-10.7 9-10.3 4.4.3 7.6 5.5 7 11.6z" class="colorfff svgShape"></path>
            <path d="M111.7 225.2h-.6c-.7.8-10.4 12.2-20.2 12.2h-.5c-4-.2-7.4-2.3-10.2-6.2.6 9 5.7 17.9 15.7 19.6 2.8.5 5.5.7 7.8.7 8.6 0 14.4-3.2 17.2-9.6 1.8-4.2 1.5-8.9-.7-12.3-1.9-2.8-4.9-4.4-8.5-4.4z" fill="#000000" class="color000 svgShape"></path>
            <path fill="#eff6ff" d="M90.4 237.1h.5c9.1 0 18.2-10 19.8-11.8-.7.1-1.5.2-2.2.3 0 0-1.4.4-4.1.4-3.4 0-9-.6-15.9-3.6-1.9-.8-3.3-1.2-4.4-1.2-1.9 0-3.1 1.1-3.6 3.6-.1.4-.2.8-.2 1.2-.2 1.5-.2 3.1-.2 4.7 2.8 4.1 6.3 6.2 10.3 6.4z" class="colorfff svgShape"></path>
            <path d="M99.6 197.3h.6c2.2-.2 4.1-1.6 5.4-3.9 1.3-2.3 1.8-5.3 1.5-8.3-.6-5.9-4.5-10.5-8.7-10.5h-.6c-2.2.2-4.1 1.6-5.4 3.9-1.3 2.3-1.8 5.3-1.5 8.3.6 5.9 4.4 10.5 8.7 10.5z" fill="#000000" class="color000 svgShape"></path>
            <path fill="#eff6ff" d="M101.7 205.4c.8 0 1.6-.1 2.4-.2 10.5-1.6 17.5-13.8 15.4-27.1-1.9-12.2-10.7-21.4-20.5-21.4-.8 0-1.6.1-2.4.2-5.1.8-9.5 4-12.4 9.2-2.9 5.1-4 11.5-3 18 1.9 12.1 10.7 21.3 20.5 21.3zm-9.6-27c1.4-2.4 3.3-3.8 5.6-4.1h.7c4.4 0 8.4 4.7 9 10.7.3 3.1-.2 6.1-1.6 8.5-1.4 2.4-3.3 3.8-5.6 4.1h-.7c-4.4 0-8.4-4.7-9-10.7-.3-3.1.3-6.1 1.6-8.5z" class="colorfff svgShape"></path>
            <path d="M154.3 173.3h-.5c-4.1 0-7.6 4.4-8.1 10.1-.5 5.9 2.5 11 6.7 11.4 4.3.4 8.1-4.2 8.6-10 .6-6-2.4-11.1-6.7-11.5z" fill="#000000" class="color000 svgShape"></path>
            <path fill="#bfdbfe" d="M510.9 76.6c-2.2-61.4-25.9-73.4-66-73.4-18.4 0-41.3 2.8-67.9 6-10.3 1.3-21 2.6-32.4 3.8-26.7 3-41.5 11.5-48.1 27.6-6.2 15.2-4.9 36.5-3.3 63.4.2 3.7.5 7.6.7 11.6v.1l-.1.1-39.1 30.5 51-13.1.1.1c8.4 20.5 15.9 27.7 67.4 27.7H405.3c47 0 76.7-1.1 91.8-16.8 11.2-11.5 15.2-31.1 13.8-67.6z" class="colorc5eaff svgShape"></path>
            <path fill="#8cb0dc" d="M253.7 487.2c-5.3 1.4-10.7 2.4-16.2 3-29 3.2-57.7-3.6-59.6-4.1-2.1-10-3.1-12.9-3.2-13-1.7-2.6-3.6-5.4-5.3-8.1 1.8-1.1 6.3-3.7 12.1-7.1 7.5-4.4 17.2-10 26.2-15.1 2-1.1 4-2.2 5.9-3.3 3.3 15.1 7.2 27.2 7.3 27.3v.1h.1c18.7 10 30.7 18.7 32.7 20.3z" class="colorafdc8c svgShape"></path>
            <path fill="#3b82f6" d="M213.5 439.3c-1.3.7-2.6 1.4-3.9 2.2-.7.4-1.3.7-2 1.1-9 5.1-18.8 10.7-26.3 15.1-5.8 3.4-10.2 6-12.1 7-2.9-4.4-6-9.3-8.8-13.7-4.5-7.1-8.2-13-8.9-14.1 17.2-2.4 32.4-7.3 45.5-14.7 1.7-.9 3.3-2 4.9-3 .5-.4 1-.7 1.5-1.1l2.4-1.8 1.5-1.2c.7-.5 1.4-1.1 2-1.7v.5c.6 7.2 1.9 15.5 3.9 24.7.2.2.3.5.3.7z" class="color3193f6 svgShape"></path>
            <path fill="#93c5fd" d="M327.2 240.1c-.4.1-.8.2-1.1.4-1.4.6-2.7 1.5-3.9 2.3-.4.3-.8.6-1.3.9-2.2 1.4-4.4 2.9-7.1 4.7-1.9 1.3-3.7 2.6-5.6 3.8-2.7 1.9-5.5 3.8-8.2 5.6-.4-.9-.9-1.8-1.5-2.6-1.7-2.1-4.2-3.6-7.6-4.5l.9-.6c.4-.2.7-.5 1.1-.7l.1-.1 3.1-2c3.1-2 6.2-4 9.3-6.1.1-.1.3-.2.4-.3.1 0 .2-.1.3-.2 2.5-1.7 5.1-3.4 7.6-5 .4-.2.7-.5 1.1-.7 2.7-1.8 5.9-4.1 9.1-2.6 2.2 1.1 3.3 3.7 3.3 7.7z" class="colorec4a3b svgShape"></path>
            <path fill="#3b82f6" d="M239.2 356.2c-4.4.3-10.4-1-14.2-5.5-2.5-3.1-5.7-8.6-2.9-18.3l.6-2.4-.3 1.2c-1.8-24.7-3.1-28.1-7.1-37.8-1.1-2.8-2.4-5.9-3.9-10-1.6-4.4-2.3-8-2.4-10.9-.3-8.6 4.3-11.4 5.1-11.8 2.7 5.3 5.7 10.6 8.7 15.8 4.2 7.2 8.2 14 11 20.9.7 1.5 1.2 3.1 1.8 4.8 5.8 16.1 6.9 35.4 3.6 54z" class="color3193f6 svgShape"></path>
            <path fill="#93c5fd" d="M218.8 119.5c-9.8-7.8-21.7-9.3-34.2-10.8h-.1l-.2-.2-.1.1c-8.2-1-16.4-1.3-24.4-.8-14.9.8-29.6 4.1-43.8 9.9-34 13.7-55.6 10.8-66.9 4.9-7.2-3.8-10.8-10.1-13.3-13.6 2-1.9 4.1-3.7 6.6-5.2 6.1-3.7 11.6-8 17.9-11.2.1-.1.2-.1.3-.2 16-5.8 31.6-8.7 46.9-8.7 4.6 0 9.2.3 13.8.8 26.7 3.1 49.5 8.7 68 16.7 0 .4.1.7.2 1.1l.3-.1c-.1-.3-.1-.5-.1-.8 3.3 1.4 6.4 2.9 9.4 4.4 10.5 5.6 16.7 10.8 19.7 13.7z" class="colorec4a3b svgShape"></path>
            <path fill="#93c5fd" d="M190.6 91.9c-.8 3.7-1.5 6.8-1.4 9-2.3-1-4.6-1.9-6.9-2.8-17.2-6.5-37.6-11.2-61-13.9-16.6-1.9-33.4-.4-50.7 4.6.1-36 14.5-55.8 15.5-57.2 18.6-3.9 39.8-3.2 59.8 2 1.9.5 3.7 1 5.5 1.6 11.3 3.5 24 10.7 32.4 18.4 12.7 11.5 9.1 27.6 6.8 38.3zM336.9 254c-.9-1.1-2-1.2-2.3-1.3l-2 1.5-24.1 18.2-.2-.3 24-18.1 2.1-1.6c1.5-5 1.2-8.5-1.1-10.6-1.7-1.5-3.7-2-5.8-1.5v.2h-.3v-.1c-.2.1-.5.2-.7.2-1.5.6-2.8 1.5-4.1 2.4-.4.3-.8.6-1.3.9-2.1 1.4-4.4 2.9-7.1 4.7l-14 9.7-1.5-3.1-.6-1.3s-4.1-3.5-4.9-4.6c-.1-.2-.2-.3-.1-.3.5-2.4.8-5.4.9-8.5.1-7.7-1.9-16.1-10.5-18.7-1.2-.4-2.3-.3-3.2.3-1.2.7-2.1 2.1-2.8 4.2-.1.2-.1.3-.2.5-.2.6-.4 1.2-.5 1.9l-.9 3.6c-.4 1.4-.8 2.7-1.1 4.1-.7 3.2-1.4 6.9-1.2 10.6.1 1.8.3 3.5.4 5.2.5 5 1 9.7-.7 14.9-1 3.3-3.2 6.3-6.2 8.8-1.8 1.5-3.9 2.6-6.1 3.5-.6 10.4-.2 28.2 7.7 42.4 1.4 2.6 3.1 5 5 7.3 1.8-.3 3.6-.7 5.4-1.2 16.7-4.5 38.7-17.2 53.5-51.7.4-1 .9-2.1 1.3-3.1 1.3-3.3 2.6-6.8 3.7-10.4 1.2-5.1.4-7.6-.5-8.7z" class="colorec4a3b svgShape"></path>
            <path fill="#8cb0dc" d="M273 329.4c-16.9 3-30.4-.7-31.7-1.1-.7-11-3.1-21.6-7-31.1-2.8-6.9-6.8-13.7-11-20.9-2.5-4.4-5.1-8.8-7.4-13.3-2.7-5.2-5.1-10.5-6.8-15.8 2.8 5.5 12.2 21.9 25.9 29.5 3.7 2.1 8 3.6 12.1 4.2 1.5.2 3 .4 4.5.4 3.1 0 6-.5 8.7-1.5-.1 1-.1 2-.1 3.1-.4 12.6 1.1 32.8 12.8 46.5z" class="colorafdc8c svgShape"></path>
            <path fill="#4f5c72" d="M159.3 149.9c.9.2 1.8.3 2.9.3h.4c1.7 0 3.6-.1 5.3-1.2.9-.6 1.5-1.6 1.5-2.7s-.4-2-1.2-2.6c-.6-.5-1.4-.7-2.4-.7-.7 0-1.4.1-2.1.2h-.3c-.6.1-1.1.2-1.7.3-.9.1-1.7.3-2.6.4-1.9.2-3.7.4-5.5.4-2.9 0-5.5-.3-7.8-.9 3.9 5.1 13.4 6.5 13.5 6.5z" class="color4f7258 svgShape"></path>
            <path fill="#93c5fd" d="M227.2 138.9c1.7-5 .4-10-4-14.8-.7-.8-1.5-1.6-2.2-2.3l-.1-.1c-10.1-9.5-22.7-11.1-36.1-12.7 11.1 10.9 16.1 27.7 18.5 47.4 7.1-1.3 20.6-8.1 23.9-17.5z" class="colorec4a3b svgShape"></path>
            <path fill="none" d="m214.3 260.6-.1-.3s-.1 0-.2.1c0 .1.1.2.1.3l.2-.1z"></path>
            <path fill="none" d="M241 336.2c.1-13.9-2.2-27.3-7.1-38.9-2.8-6.8-6.8-13.6-11-20.9-3-5.2-6.1-10.5-8.7-15.8-1.1.6-9 5.4-2.8 22.7 1.4 4 2.7 7 3.8 9.7l6.5-1.4s7.6 27.1 19.3 44.6z"></path>
            <path fill="#3b82f6" d="m219.2 305 .1-.3h-.2c0 .1.1.2.1.3-.1 0-.1 0 0 0zM3.6 301.8v-.2c-.1.1-.2.2-.3.2h.3z" class="color3193f6 svgShape"></path>
            <path fill="#8cb0dc" d="M100.7 498c-2.6.9-47.2 16.4-71.8 8.6l20.6-22.7c5.8-5.2 3.4-11.2 3.4-11.3-1.7-4.6-3.3-7.9-5.2-12.1-.2-.4-.4-.8-.5-1.1 3.7.1 14.6.2 26.8.3h12c5.7 0 11.3 0 16.3-.1-1.5 13.8-2 26.7-1.6 38.4z" class="colorafdc8c svgShape"></path>
            <path fill="#93c5fd" d="M108.3 394.1c0 .2-.1.4-.2.6-.3.6-.8 1.1-1.6 1.6-5 2.8-11.2-.3-14.7-4.9-.5-.7-1.1-.7-1.4-.6-.9.2-1.7 1.5-1.9 2.3-.4 1.8-.5 3.9-.2 6 .4 3.1 1.4 6.3 2.6 8.6.5.9.5 1.8.2 2.6-.8 1.8-3.6 3.2-8.2 4.3-2.2.5-4.2.2-5.9-.9-3.9-2.5-5.9-8.6-6.9-13.3-.4-2.2-.7-4.3-1-6.3h-.3c.2 2 .5 4.1 1 6.3.9 4.3 2.7 9.8 6 12.7-14.1 5.2-18.6-3-23-14.2l-.3.1c2.3 5.7 4.6 10.7 8.1 13.5-3.1 1.5-6.1 1.7-8.9.3-5.7-2.7-11.1-11.2-16-25.2-3.1-8.8-5.9-19.7-8.7-33.1 1 0 2 .1 3 .1 5.3 0 10.2-.5 14.8-1.3 17.2-3 28.5-10.4 30-11.4 2.2 9.2 4.9 19.1 7.9 27.1v.1h1.5c10.3-.1 11.3 2.1 13.5 7.1 1.7 3.9 4.1 7.3 6.2 10.3.4.5.9 1.1 1.5 1.7 1.2 1.8 3.2 4 2.9 5.9z" class="colorec4a3b svgShape"></path>
            <path fill="none" d="M75.5 344.9c3.2-1.1 5.8-2.3 8-3.5-2.1 1.2-4.7 2.4-8 3.5zm132.2 10.8c-2.2-.7-4.8-.2-7.1.2-.4.1-.8.1-1.2.2-2.2.4-4.5.7-6.7 1.1-1.6.3-3.3.5-4.9.8l-2.4.4c-8.1 1.3-16.5 2.7-24.7 3.8-2.9.4-4.3.5-6.5.7-2 .2-4.8.4-10.2 1-4.9.5-7.5 1.7-8 3.3-.6 2.2.8 5.2 2.1 8.1.8 1.8 1.6 3.5 1.9 5 .7 4.2.2 8.7-1.5 13.5-2.8 7.9-8.4 15.6-16.7 22.7l.2.2c8.3-7.1 14-14.8 16.8-22.8 1.7-4.8 2.2-9.4 1.5-13.7-.2-1.5-1-3.2-1.9-5.1-1.3-2.8-2.6-5.7-2.1-7.9.3-1 1.8-2.4 7.7-3.1 5.4-.6 8.2-.9 10.2-1 2.1-.2 3.5-.3 6.5-.7 8.3-1.1 16.7-2.5 24.8-3.8l2.4-.4c1.6-.3 3.3-.5 4.9-.8 2.2-.4 4.5-.7 6.7-1.1.4-.1.8-.1 1.2-.2 2.2-.4 4.8-.9 6.9-.2 3.4 1.1 5.6 4.3 6.7 9.8.5 2.4.7 4.8.7 7.3 0 3.2-.4 5.7-1.1 8-1 3.1-2.7 5.9-5.1 8.2l.2.2c2.4-2.3 4.2-5.1 5.2-8.3.7-2.3 1.1-4.8 1.1-8.1 0-2.6-.2-5-.7-7.4-1.1-5.4-3.4-8.8-6.9-9.9z"></path>
            <path fill="#8cb0dc" d="M90.9 335.8c-.5.5-2.5 2.7-6.7 5.2-.1 0-.1.1-.2.1-.1.1-.3.2-.5.3-2.1 1.2-4.7 2.4-8 3.5-4-16.3-4.7-18.3-1.2-3.5-1 .7-12.3 8.4-30 11.5-4.5.8-9.5 1.3-14.8 1.3-1 0-2 0-3.1-.1-.3-1.3-.5-2.7-.8-4.1-3.6-18-5.8-30.8-5.9-31l-.3.1c0 .1 2.2 12.5 5.7 30.1-4.6-.4-9.8-1-14.9-1.7-1.5-7.2-2.7-14.4-3.8-21.6.8.3 1.6.5 2.4.5 1.3 0 2.5-.4 3.6-1.2 2.4-1.8 3.1-4.5 3.8-7.2.7-2.5 1.4-5.1 3.4-6.9 5-4.3 11.1-7.9 17.9-10.6 5.2-2.1 10.6-3.1 15.7-3.1 7.4 0 14.1 2.3 19.4 6.7 2.6 2.2 4.8 4.6 6.8 7.3 5.6 7.3 8.9 15.9 11.5 24.4z" class="colorafdc8c svgShape"></path>
            <path fill="#3b82f6" d="M237.8 356.6c-3.8 0-7.4-1.1-10.3-3.2-1-.7-2-1.6-2.8-2.5-2.6-3.1-5.5-8.7-2.7-18.5.6-12.3-1.6-21.8-3.1-27.4-5.2-.9-10.8 1.7-18.4 5.2-7.7 3.6-17.4 8-30.6 10.6-6.8 1.4-14.6 2.2-23.6 2.2-5.8 0-12.2-.4-19.1-1.2-3.1-.4-6.3-.9-9.6-1.4-2.3-3-4.5-5.8-6.2-8.5-5.5-8.7-14-16.6-25.2-23.4-1.5-.9-3.1-1.8-4.6-2.6h-.1c-6.7-3.5-13.4-5.9-20-7.2-5.3-1-10.4-1.5-15.2-1.5-12 0-22.2 3.1-30.3 9.3-10.7 8.1-19.3 22-14.3 34.8 1.2 3 3.9 5 6.7 5 1.2 0 2.4-.4 3.4-1.2 2.3-1.7 3-4.3 3.7-7 .7-2.5 1.4-5.2 3.5-7 5-4.3 11.2-7.9 18-10.6 5.2-2.1 10.7-3.2 15.8-3.2 7.5 0 14.3 2.4 19.6 6.8 9.9 8.4 14.8 20.4 18.4 32.4-1.3 1.5-5.7 5.7-15.2 8.8 2 8.1 4.4 16.5 7 23.5 11.7-.3 12.7 1.9 15 7.3 1.7 3.8 4.1 7.3 6.2 10.2.4.5.9 1.1 1.4 1.7 1.6 1.9 3.7 4.2 3.3 6.2-.2.9-.8 1.8-2 2.4-5.2 2.9-11.5-.3-15.1-4.9-.3-.4-.7-.6-1.1-.5-.8.2-1.5 1.3-1.7 2-1.1 4.3.4 10.5 2.3 14.3.5 1 .6 2 .2 2.9-.9 1.9-3.7 3.4-8.5 4.5-.7.2-1.4.2-2.1.2-1.5 0-2.8-.4-4.1-1.2l-.9-.6c-3 1.1-5.8 1.7-8 1.7-2.9 0-5.2-.8-7.1-2.3-1.7.9-3.4 1.4-5.1 1.4-.3 0-.7 0-1-.1-1.1-.1-2.2-.4-3.3-.9-9.9-4.7-18.3-25.3-25.7-62.9 0-.2-.1-.4-.1-.5-4.6-.4-9.8-1-14.9-1.7 7.2 35 18.7 70.5 34.3 105.7.9 2 1.7 3.7 2.4 5.3 3.8.1 16.3.3 29.9.3 8.7.1 17.8 0 25.4-.1.4-4.1.9-7.8 1.4-11 .8-5.8 1.6-9.8 1.7-10.5-3.7-.3 65.4-.9 91.6-15.7 3.5-2 6.8-4.3 10-6.8 17.4-14.1 28.1-35.9 32.2-58.7-.5 0-.9.1-1.4.1z" class="color3193f6 svgShape"></path>
            <path fill="#93c5fd" d="M107.3 29s1.9-5.1-9.3-8.1c-11.3-3-14.2.8-14.6 6 0 0-.3 2.6.5 5 0 0 5.3-1.3 11.1-2.1 4.8-.6 10-1 12.3-.8zm-21.7 2.7c-2.1.4-4.1.9-6.1 1.5-4.9 1.4-12.3 3.6-19.3 6.5C47.9 45 38.9 51.6 33.4 59.6c-6.7 9.7-8.3 21.6-10 33-1.9 13.2-3 27.2.9 40.2 5.5-14.1 10-22.2 10.9-23.9-.1-.1-.1-.1-.1-.2.1-.1.2-.1.4-.2.3-.7.9-1.4 1.6-1.9 1.2-.8 2.2-1.9 3.5-2.7 0 0 0-.1.1-.1 4.1-4.2 9.8-5.3 14.8-8.1 2.1-1.2 4.1-2.8 6.4-3.6.9-.3 3-.6 3.6-1.4.1-.2.3-.3.4-.4 1.5-.5 2.9-.9 4.4-1.4.1-34.6 13.2-54.3 15.3-57.2z" class="colorec4a3b svgShape"></path>
            <path fill="#6d7d90" d="M152.1 203.3c1-.4.1-.7 1-1v-.2c-.1 0-.1 0-.2.1-3.1-1.2-6-3.5-8.2-6.4-1.9-1.3-3.2-3.8-3.8-6.7-.9-2.3-1.6-4.7-2-7.3-.9-6.5.1-12.9 2.8-18 2.4-4.4 5.8-7.4 9.8-8.7.2-.2.4-.3.6-.5H151c-.8 0-1.6.1-2.3.2-5 .8-9.4 4.2-12.3 9.5-2.9 5.3-3.9 12-2.9 18.7 1.3 9.2 7.7 17.6 14.3 21.1-1.1 1.3-3.2 4.1-3.2 4.1l7.5-4.9zM82.4 184c-.9-6.5 0-12.9 2.8-18 2.7-5.1 6.9-8.4 11.7-9.2.3 0 .6-.1.8-.1-1-.2-1.9-.2-2.9-.2-.8 0-1.6.1-2.4.2-5.2.8-9.7 4.1-12.7 9.2-3 5.2-4.1 11.6-3 18.1 1.9 12.3 10.9 21.6 21 21.6.8 0 1.6-.1 2.4-.2.1 0 .2 0 .4-.1-8.8-.8-16.4-9.7-18.1-21.3z" class="color6d9077 svgShape"></path>
            <path fill="#c5c9cf" d="M142.2 181.7c-1-6.5.1-12.9 3-18s7.3-8.4 12.4-9.2h.4c-.7-.1-1.4-.1-2.1-.1-.8 0-1.6.1-2.4.2-5.1.8-9.5 4-12.4 9.2-2.9 5.1-4 11.5-3 18 1.5 9.6 7.3 17.7 14.9 20.4.3-.1.5-.2.8-.3.5-.2.9-.4 1.4-.6-6.7-3.4-11.7-10.9-13-19.6zM85.5 184c-1-6.5.1-12.9 3-18s7.3-8.4 12.4-9.2h.3c-.7-.1-1.4-.2-2.1-.2-.8 0-1.6.1-2.4.2-5.1.8-9.5 4-12.4 9.2-2.9 5.1-4 11.5-3 18 1.9 12.2 10.7 21.4 20.5 21.4.7 0 1.4 0 2.1-.1-9-1.3-16.7-10-18.4-21.3z" class="colorcfc5cc svgShape"></path>
            <path fill="#cecece" d="M81.6 225.2s11.5 8.3 24.4 3.9l4.4-3.6s-4.9.9-9.9.2c-6.8-1-14.5-3.8-16.5-4.6-3.3-1.2-3.3 3-2.4 4.1z" class="colorcecece svgShape"></path>
            <path fill="#0d3d8c" d="M111.4 349.1c-3.2 0-5.9 2.6-5.9 5.9 0 3.2 2.6 5.9 5.9 5.9s5.9-2.6 5.9-5.9c0-3.3-2.6-5.9-5.9-5.9zm-.9 8.2c-.4.4-1.1.4-1.5 0-.4-.4-.4-1.1 0-1.5.4-.4 1.1-.4 1.5 0 .4.4.4 1.1 0 1.5zm0-3.2c-.4.4-1.1.4-1.5 0-.4-.4-.4-1.1 0-1.5.4-.4 1.1-.4 1.5 0 .4.4.4 1.1 0 1.5zm3.3 3.2c-.4.4-1.1.4-1.5 0-.4-.4-.4-1.1 0-1.5.4-.4 1.1-.4 1.5 0 .4.4.4 1.1 0 1.5zm0-3.2c-.4.4-1.1.4-1.5 0-.4-.4-.4-1.1 0-1.5.4-.4 1.1-.4 1.5 0 .4.4.4 1.1 0 1.5zm120.3-13.9c-2.6-.3-5.1 1.8-5.1 4.7s2.4 5.1 5.1 4.7c2.3-.3 4-2.4 4-4.7 0-2.3-1.7-4.4-4-4.7zm-.7 6.6c-.3.4-.9.4-1.2.1-.3-.3-.3-.9 0-1.2.3-.3.9-.4 1.2 0 .3.3.3.8 0 1.1zm0-2.6c-.3.3-.9.3-1.2 0-.3-.4-.3-.9 0-1.2.3-.3.9-.3 1.2.1.3.2.3.8 0 1.1zm2.4 2.5c-.3.3-.7.4-1 .1-.3-.3-.3-.8 0-1.2.3-.3.8-.3 1 0 .3.3.3.8 0 1.1zm0-2.5c-.3.3-.7.3-1 0-.3-.3-.3-.9 0-1.2.3-.3.8-.3 1 .1.3.3.3.8 0 1.1z" class="color0d418c svgShape"></path>
            <path fill="#6d7d90" d="M25.4 280.9c-3.2 1.4-6.2 3.1-9 5.2-5.5 4.2-10.1 9.5-12.9 15.1-7.4-79.7 10-139.4 21-167.9 5.4-14 9.9-22.2 11-24.2 2.5 3.5 7 8.5 14.2 12.3.8.5-.9-.4 0 0 0 .1-31.9 109.8-24.3 159.5zm174.5-142c-3.3-5.1-21.4-30.1-58.9-27.2 0 0 0-.4.1-1.2 14.1-2.8 28.6-3.3 43.2-1.5 7.8 7.4 12.6 17.7 15.6 29.9z" class="color6d9077 svgShape"></path>
            <path fill="#1851ad" d="M74.6 459.7c-5.5.7-11.6-.1-17.1-.2-.9 0-10.2.4-10.5-.3-.7-1.6-1.5-3.4-2.4-5.3-15.6-35.4-27.1-70.9-34.2-106 5.1.7 10.3 1.3 14.9 1.7 0 .2.1.4.1.5 7.4 37.6 15.9 58.2 25.7 62.9 1.1.5 2.6.6 3.5 1.2.7.6 2.2-1.6 2.7-.8 8.2 13.2 14.9 30.7 17.3 46.3z" class="color1871ad svgShape"></path>
            <path fill="#6d7d90" d="M70.3 482.4c-5.1 7.3-15.2 12.6-22.2 16.2-4.3 2.2-8.7 4.1-13.2 5.8-1.5.6-4.8 1.1-5.9 2.3L49.6 484c5.8-5.2 3.4-11.2 3.4-11.3-1.7-4.6-3.3-7.9-5.2-12.1-.2-.4-.4-.8-.5-1.1 3.7.1 14.6.2 26.8.3 1.3 0-.7 15.7-1 16.9-.7 2-1.6 3.9-2.8 5.7z" class="color6d9077 svgShape"></path>
            <path fill="#1851ad" d="M181.3 457.7c-5.8 3.4-10.2 6-12.1 7-7.5-11.6-16.5-25.9-17.6-27.8 17.2-2.4 32.4-7.3 45.5-14.7 1.7-.9 3.3-2 4.9-3 .5.4 5.6-4.4 5.6-4.4-4.5 3.5-8.3 7.7-12.3 11.7-5.7 5.7-15.1 11.8-16.9 20.3-.4 1.8-.3 3.6.3 5.3.1.7 2.4 5.7 2.6 5.6z" class="color1871ad svgShape"></path>
            <path fill="#6d7d90" d="M237.5 490.2c-29 3.2-57.7-3.6-59.6-4.1-2.1-10-3.1-12.9-3.2-13-1.7-2.6-3.6-5.4-5.3-8.1.2.3 11.2-6.1 12-6.3.4-.1 3.3 4.6 3.7 5.1 3 4.2 6.1 8.4 10 11.9 4.8 4.4 10.6 7.8 16.7 9.9 3.4 1.2 7.1 2.2 10.7 2.8 5 .8 10 1.4 15 1.8z" class="color6d9077 svgShape"></path>
            <path fill="#1851ad" d="M25.4 280.9s28.3-3.8 44.1 21c0 0-13.6-16.4-51.7 12.1-2.8 8.3-4.9 18.5-16.2 7.2-5.6-20 13-35.7 23.8-40.3zm80.8 86.7c-.2-.1-1-.1-1.3-.1-1.2-.3-2.4-.7-3.5-1.2-5.2-2.3-8.1-8-10.6-12.8-.8-1.5-1.7-3.2-3.3-4-2.3-1.2-4.8.2-7 1-.4.1-4 1.4-3.6 2-.7-1.2-.4-1.4-.6-2.8-.2-1.5-.3-3-.4-4.5 4.1-2.4 8.3-4.9 12.7-6.9.9-.4 1.8-.8 2.7-1 .7 5 2.1 9.9 3.9 14.5 1.6 4.1 3.3 8.3 6.1 11.7 1.3 1.5 3 3.1 4.9 4.1zm123.4-12.5c-.8-.4-3.4-1-4.2-1.5-1.3-.8-2.4-1.8-3.4-2.9-1.9-2-2.9-4.5-3.7-7.1-2.7-8.7-.2-18-2-26.9-1.1-5.5-6.3-5.1-10.5-3.8-8.3 2.5-16.3 7.3-25.1 8.3-6 .7-17.4 2.1-17.1 1.5 0 0 6-1.1 6.4-1.9 13.2-2.6 22.9-7.1 30.6-10.6 7.7-3.5 13.2-6.1 18.4-5.2 1.4 5.6 2.4 13.1 3.5 27.2-2.8 9.8-.3 15.6 2.3 18.7.8 1 1.7 1.8 2.8 2.5.1.4 2 1.3 2 1.7zM135.2 373c.9 2.1.8 5.5.9 7.8 0 2.1-.1 4.2-.5 6.3-.6 3.1-1.9 6.1-3.8 8.7-4 5.4-12.8 10-11.9 17.8.4 3.8 4.2 1.6 5.7-.2 13.1-15.5 16.2-24.6 9.6-40.4z" class="color1871ad svgShape"></path>
            <path fill="#6d7d90" d="M76.7 308.1c-1.2-1.3-2.5-2.6-3.9-3.8-5.2-4.4-11.9-6.7-19.4-6.7-5 0-10.5 1.1-15.7 3.1-6.8 2.7-12.9 6.3-17.9 10.6-2.1 1.8-2.7 4.4-3.4 6.9-.7 2.7-1.4 5.4-3.8 7.2-1.1.8-2.3 1.2-3.6 1.2-.8 0-1.7-.2-2.4-.5 1.1 7.2 2.4 14.4 3.8 21.6 5.1.7 10.3 1.3 14.9 1.7.4 2.2 1.2 4.4 1.3 4.9 1 0 2.1.1 3.1.1 5.3 0 10.2-.5 14.8-1.3-.5.1-1.4-3.7-1.5-4-3.3-12-10.4-32.5 3.7-40.6 9.6-5.5 19.5-1.3 26.7 6 3.4 3.4 4.8 5.4 7.2 9.5.8 1.4 4.2 8 5.9 15.4 1.5-1.1 2.9-2.3 4.4-3.3-2.3-10.9-6.8-20-14.2-28zM211 263.2s-11.3 3.7 3.3 41.3l4.7.5s-3.4-9.1-6.1-17.5c-2.7-8.9-4.8-18.9-1.9-24.3zm57.3 58.8s-21.4.8-31-14.5l4 20.8s21.2 3.7 31.7 1.1l-4.7-7.4z" class="color6d9077 svgShape"></path>
            <path fill="#1851ad" d="m94.4 436.4-5.9-12c58.8 18.5 111.9-6 118.5-9.2-3.1 2.5-6.4 4.8-10 6.8-26.2 14.8-60.6 19.8-102.6 14.4z" class="color1871ad svgShape"></path>
            <path fill="#285cb2" d="M227.2 138.9c1.7-5 .4-10-4-14.8-.7-.8-1.5-1.6-2.2-2.3l-.1-.1c-10.1-9.5-22.7-11.1-36.1-12.7 11.1 10.9 16.1 27.7 18.5 47.4 7.1-1.3 20.6-8.1 23.9-17.5zM79.5 33.2c-4.9 1.4-12.3 3.6-19.3 6.5C47.9 45 38.9 51.6 33.4 59.6c-6.7 9.7-8.3 21.6-10 33-1.9 13.2-3 27.2.9 40.2 5.5-14.1 10-22.2 10.9-23.9 0-.1-.1-.1-.1-.2 2.5-2.2 5.1-4.4 7.8-6.5l1.3-.3c12.7-7 13.8-9.4 25.9-12.9.2-34.6 13.3-54.3 15.4-57.2-2 .4-4 .9-6 1.4zm13.3-13.3s-5.2 2-4.9 10.3l-3.2 1.6c0-.1-5.8-12.2 8.1-11.9z" class="colorb22828 svgShape"></path>
            <path fill="#2c75ce" d="M117.4 29.1s-10.1 32.6-8.2 55.7c0 0-33.7 1.2-39 4.1 0 0 1.4-31.6 14.5-57.2.7-.2.9-.2.9-.2s7.9-1.8 16.3-2.4c5.4-.4 10.6.4 15.5 0z" class="colorce332c svgShape"></path>
            <path fill="#2c75ce" d="M159.7 107.8c-14.9.8-29.6 4.1-43.8 9.9-34 13.7-55.6 10.8-66.9 4.9-7.2-3.8-10.8-10.1-13.3-13.6 2-1.9 4.1-3.7 6.6-5.2 6.1-3.7 11.6-8 17.9-11.2.1-.1.2-.1.3-.2 16-5.8 31.6-8.7 46.9-8.7 0 .1 31.6 6.5 52.3 24.1zM91 410.2c-.8 1.8-3.6 3.2-8.2 4.3-2.2.5-4.2.2-5.9-.9-3.9-2.5-5.9-8.6-6.9-13.3-.4-2.2-.8-2.1-.3.1.9 4.3 2.7 9.8 6 12.7-14.1 5.2-12.6-1.3-15.2-.6-3.1 1.5-6.1 1.7-8.9.3-5.7-2.7-11.1-11.2-16-25.2-3.1-8.8-5.9-19.7-8.7-33.1 1 0 2 .1 3 .1 5 0 9.8-.9 14.7-1.2.2 0 3.7 19.3 4.4 20.9 5.9 14.8 21.6 10.2 31.7 16.3 2.7 1.6 5.7 3.7 7.2 6.7 1.6 3.2 1.6 7.1 3.3 10.4.1.8.1 1.7-.2 2.5zm241.3-133.9c-14.8 34.5-36.8 47.3-53.5 51.7-1.8.5-3.7.9-5.4 1.2-2-2.3-3.6-4.7-5-7.3.6-.1 42.7-5.7 63.9-45.6zm-26.8-1.2c-1.5.2-3 .3-4.5.6-4.7 1-7.9 4.7-9.5 9.1-.4 1.2-.8 2.4-1 3.7-.4 2.1-.9 6.6 1.5 7.5.3.1.7.2 1.2.2 1.4-.1 3-.3 3.2-2 .2-1.9-.3-3.8-.1-5.7.2-2.8 1.3-5.7 3-8 1.6-2.2 3.9-3.8 6.3-4.8 0-.3 0-.5-.1-.6z" class="colorce332c svgShape"></path>
            <path fill="#76b3ff" d="M293.6 240.8c-1.2 3.3-2.4 5.5-2.4 5.5.6-25.9-14.3-19.2-14.3-19.2.1-.2.1-.3.2-.5.7-2.1 1.7-3.5 2.8-4.2.9-.5 2-.6 3.2-.3 8.6 2.6 10.6 11 10.5 18.7zm11.8.6c.1-.1.3-.2.4-.3-.1 0-.1.1-.1.1v1c-.1-.3-.2-.5-.3-.8zm21.8-1.3c-.4.1-.8.2-1.1.4-.7-.4-1.1-.5-1.1-.5-1.4-9.7-16.3-.7-18.9.9 2.5-1.7 5.1-3.4 7.6-5 .4-.2.7-.5 1.1-.7 2.7-1.8 5.9-4.1 9.1-2.6 2.2.9 3.3 3.5 3.3 7.5zm7.3 12.3-2.1 1.6-.1-.1c2.3-7.8-3-11.7-5.8-13.2.2-.1.5-.2.7-.2v.1h.3v-.2c2.1-.5 4.1 0 5.8 1.5 2.3 2 2.7 5.5 1.2 10.5zm2.9 10.4c-1.2 3.7-2.4 7.1-3.7 10.4-.5.2-.8.4-.8.4 3.8-13.5.8-18.2-.2-19.4l2-1.5c.2 0 1.4.1 2.3 1.3.8 1.1 1.6 3.6.4 8.8zM108.1 394.7c-.6-.7-1.6-1.4-1.8-1.7-2.6-2-4.9-4.3-6.6-7-3.6-5.4-4.3-12.2-11-15-1.9-.8-4-1.2-6.1-1.3l1.4-.6c10.3-.1 11.3 2.1 13.5 7.1 1.7 3.9 4.1 7.3 6.2 10.3.4.5.9 1.1 1.5 1.7 1.6 1.8 3.6 4.1 3.3 5.9-.3.2-.3.4-.4.6zm-.4 1.1c.3-.1.5-.3.7-.6.1.3 0 .6-.7.6zm-36.6-52.3s7.4 23.2 11.4 26.2l-8.7-27.9-2.7 1.7zM95.1 21s8 5.2 8 8.2c0 0 3.3.1 4-1.4.9-1.8-1.5-5.4-12-6.8zm95.5 70.9c-.8 3.7-1.5 6.8-1.4 9-2.3-1-4.6-1.9-6.9-2.8-.4-.2 2.4-9.6 2.6-10.5 2.2-8.2 4.2-17.7.1-25.7-3.1-6-8.7-10-14-13.8-6-4.2-12.3-8-18.9-11.4-2-1.1-4-2.1-6.1-3.1 1.9.5 3.7 1 5.5 1.6 11.3 3.5 24 10.7 32.4 18.4 12.6 11.5 9 27.6 6.7 38.3z" class="colorff7976 svgShape"></path>
            <path fill="#76b3ff" d="m199.2 111 11.2 2.2s-15.2-14.4-50.6-21.8c0 0 31.5 13.7 38.3 19.2.4.1.8.2 1.1.4zm-.7-.1" class="colorff7976 svgShape"></path>
            <path fill="#60a5fa" d="M117.8 363.6c.8-.2 1.7-.2 2.5-.1h.1c.2-.1.3-.2.5-.3l.6-.6c.4-.6.8-1.2 1.1-1.9.3-.5.6-1 1-1.4 1.1-5.2.2-13.2.1-15-.2-4.3-1.2-7.9-2.1-12.1-.3-1.2-1.2-6.1-1.3-6.2-2.7-1.6-3.7-4.2-3.4-6.6-2-2.6-4-5.2-5.5-7.6-5.5-8.7-14-16.6-25.2-23.4-1.5-.9-3.1-1.8-4.6-2.6 1.3.8 17.9 11.6 28.7 29 9.3 15 13.3 36 7.5 48.8zm118-61.5c-9.8-13.7-19.8-30.4-19.8-30.4-3.7-7.9-6.2 1.9-6.2 1.9-.3-.4-.5-.8-.7-1.1-.3-8.6 4.3-11.4 5.1-11.8 2.7 5.3 5.7 10.6 8.7 15.8 4.2 7.2 8.2 14 11 20.9.7 1.4 1.3 3 1.9 4.7zm-55.6 58.5s19.8-6.5 28.3-4.3c3.4.8 5.8 8.9 5.5 13.4-.9-3.3-2.5-6.9-4.9-9.4-2.3-2.4-5.8-1.9-8.7-1.6-3.6.3-7.2.8-10.9 1.1-1.5.1-2.9.3-4.4.4-.8.1-1.6.1-2.4.2-.7 0-1.8-.1-2.5.2z" class="color63b7fc svgShape"></path>
            <path fill="#dbeafe" d="M253.7 487.2c-24.1-10.6-38.4-19-38.4-19l-7.6-25.2c2-1.1 4-2.2 5.9-3.3 3.3 15.1 7.2 27.2 7.3 27.3v.1h.1c18.7 9.8 30.7 18.5 32.7 20.1z" class="colorccfdaa svgShape"></path>
            <path fill="#60a5fa" d="m213.4 438.6-3.7 2.8-1.9 1.4s0-.1-.1-.3c-.5-2-3.5-12.8-4-22-.1-.9-.1-1.7-.1-2.3v-.2l2.4-1.7 3.6-2.4c.5 7.3 1.8 15.6 3.8 24.7z" class="color63b7fc svgShape"></path>
            <path fill="#dbeafe" d="M102.3 461.2c-1.6 7.9-3.1 15.8-4.7 23.8-.6 3.2-.7 7.3-2.9 9.9-3 3.7-10.5 4.7-14.8 6.1-6.2 2-12.9 4.7-19.3 5.7 0 0 25.3-3.7 40-8.6.8-.3.5-12.4.6-13.8.4-7.8.7-15.4 1.1-23.1zM206.2 234c.2 5 1.3 9.9 2.9 14.7 1.3 4 3.9 7.5 4.8 11.6-1.4.4-2.1 1.5-2.9 2.6-8.7-13.3-10.6-29.2-10.2-44.8.4-15.9.6-31.8.3-47.8-.1-4.7-.2-9.3-.4-14-.2-4.7-.4-9.5-.7-14.2 0-.6-.1-1.3-.1-1.9 1.5 7.7 3.1 15.3 3.9 23.1 1.2 12.5 1.4 25.1 1.6 37.7.2 11 .3 22.1.8 33z" class="colorccfdaa svgShape"></path>
            <path fill="#dbeafe" d="M260.3 279.7c-.1 1-.1 2-.1 3.1-23.7 6-39.1-9.6-44.4-19.8-2.7-5.2-5.1-10.5-6.8-15.8 2.8 5.5 12.2 21.9 25.9 29.5 3.7 2.1 8 3.6 12.1 4.2 1.5.2 3 .4 4.5.4 3.2 0 6.1-.6 8.8-1.6z" class="colorccfdaa svgShape"></path>
            <path fill="#60a5fa" d="M239.2 356.2c-11.2 8-7.1 30.1-33.3 60.2 0 0 31.4-31.1 33.3-60.2z" class="color63b7fc svgShape"></path>
            <path fill="#dbeafe" d="M74.5 340.9c-1-3.4-2.1-7.2-2.2-10.8-.2-.5-.3-1-.4-1.5v-.2c0-.1-.1-.3-.1-.4l-2.9-14.3s-1.5.3-1.4 4.4c.2 7.9 1 16.5 3.8 25.7.9-1.1 2.1-1.9 3.4-2.4-.1-.1-.1-.3-.2-.5z" class="colorccfdaa svgShape"></path>
            <path d="m184.7 108.2.9.9c.6.6 1.5 1.5 2.5 2.8 2.2 2.5 5 6.5 7.6 12.1 2.6 5.6 4.8 12.8 6.5 21.2 1.6 8.4 2.6 18 3.2 28.4.6 10.5.8 21.8 1 33.8.1 6 .2 12.1.4 18.4.1 1.6.1 3.2.2 4.7 0 .8.1 1.6.1 2.4 0 .4 0 .8.1 1.2l.1 1.2c.1.8.1 1.6.2 2.4.1.8.3 1.6.4 2.4.1.8.3 1.6.4 2.3l.6 2.3c1.7 6.2 4.4 12.3 7.5 18.2 3.1 5.9 6.6 11.8 10 17.7 3.4 6 6.8 12.1 9.2 18.6 2.5 6.5 4.2 13.4 5.2 20.3 2 13.9 1.3 28.1-1.7 41.6s-8.4 26.2-15.8 37c-7.4 10.9-17.2 19.6-27.9 25.2-1.3.7-2.6 1.4-4 2.1-1.4.6-2.7 1.2-4 1.8-.7.3-1.3.6-2 .9-.7.3-1.4.5-2 .8-1.3.5-2.7 1-4 1.5-5.4 1.8-10.6 3.4-15.8 4.5-10.3 2.3-19.9 3.2-28.4 3.6-8.5.4-15.9.2-22-.2-3-.2-5.8-.4-8.1-.7-2.4-.3-4.4-.5-6-.7-3.2-.5-5-.8-5-.8s1.7.1 5 .4c1.6.2 3.6.3 6 .4 2.4.2 5.1.3 8.1.5 6.1.3 13.5.5 22 .1s18-1.4 28.2-3.6c5.1-1.1 10.3-2.6 15.6-4.4 1.3-.5 2.6-1 4-1.5.7-.3 1.3-.5 2-.8.7-.3 1.3-.6 2-.9 1.3-.6 2.6-1.2 4-1.8 1.3-.7 2.6-1.4 4-2.1 10.5-5.5 20.1-14.2 27.4-24.9 7.3-10.7 12.7-23.3 15.6-36.7 2.9-13.3 3.6-27.4 1.6-41.2-1-6.9-2.7-13.6-5.2-20.1-2.5-6.5-5.8-12.5-9.2-18.5-3.4-5.9-6.9-11.8-10.1-17.8-3.2-6-5.9-12.1-7.6-18.5l-.6-2.4c-.2-.8-.3-1.6-.5-2.4-.1-.8-.3-1.6-.4-2.4-.1-.8-.1-1.6-.2-2.4l-.1-1.2c0-.5 0-.8-.1-1.2 0-.8-.1-1.6-.1-2.4-.1-1.6-.1-3.2-.2-4.7-.2-6.3-.3-12.5-.4-18.4-.2-12-.4-23.3-1-33.7-.6-10.4-1.6-20-3.2-28.3s-3.8-15.4-6.3-20.9c-2.5-5.5-5.3-9.4-7.4-11.8-.5-.6-.9-1.2-1.4-1.6l-1.1-1.1-.9-.9c-.3-.3-.2-.7 0-.9.4-.1.8-.1 1.1.2z" fill="#000000" class="color000 svgShape"></path>
            <path d="M45.4 509.7c-6.2 0-12-.7-17-2.3l-1-.3 21.5-23.7c5.4-4.9 3.3-10.2 3.2-10.4-1.7-4.5-3.2-7.9-5.2-12-.9-2-1.9-4.2-3.1-6.8C24.9 411.5 12.1 368.4 5.7 326c-.1-.4.2-.7.5-.7.3-.1.7.2.7.5 6.3 42.3 19.1 85.3 38 127.9 1.2 2.6 2.2 4.8 3.1 6.8 1.9 4.2 3.5 7.6 5.2 12.1 0 0 2.5 6.4-3.5 11.8l-20.1 22.2c23.8 7 65.7-7.1 70.4-8.7-.4-11.7.2-24.6 1.6-38.3 1.3-12.4 3.1-21.8 3.1-21.9.1-.4.4-.6.8-.5.4.1.6.4.5.8 0 .1-1.8 9.5-3.1 21.8-1.5 13.8-2 26.8-1.6 38.6v.5l-.4.2c-.2-.2-30.5 10.6-55.5 10.6zm175.9-17.9c-23.6 0-43.4-4.9-43.7-5l-.4-.1-.1-.4c-1.9-9.2-2.9-12.4-3.1-12.8-1.8-2.6-3.6-5.4-5.4-8.1-7.9-12.1-17.3-27.3-17.8-28.1-.2-.3-.1-.6.1-.8.3-.2.7-.2.9 0l.1.1c.4.6 9.9 15.9 17.8 28.1 1.8 2.7 3.6 5.6 5.4 8.2l.1.1c0 .1 1.1 2.9 3.1 12.7 4.3 1 42.1 9.6 74.2 1.3-3.4-2.5-14.9-10.6-31.9-19.5l-.2-.1-.1-.3c0-.1-4-12.1-7.2-27.1l-.1-.5c-2.1-9.8-3.5-18.6-4.1-26.3 0-.4.2-.7.6-.7.4 0 .7.2.7.6.6 7.5 1.9 16.1 4 25.6l.1.5c3 14 6.6 25.4 7.2 27.2 20.4 10.8 32.8 20.2 32.9 20.3l1 .8-1.3.3c-10.6 3-22.1 4-32.8 4z" fill="#000000" class="color000 svgShape"></path>
            <path d="M169.2 465.6c-.2 0-.4-.1-.6-.3-.2-.3-.1-.7.2-.9 6.3-3.7 28.1-16.5 44.5-25.6l.1-.1h.2c.4 0 .7.3.7.7 0 .3-.2.5-.4.6-16.4 9.2-38.1 21.9-44.4 25.6h-.3zm-83.3-5.4c-16.9 0-34.7-.3-39-.4-.4 0-.6-.3-.6-.7 0-.4.3-.6.7-.6 5.8.1 35.8.6 55.6.3.4 0 .7.3.7.6 0 .4-.3.7-.6.7-5.3.1-11 .1-16.8.1zM203 157.3c-.3 0-.6-.2-.6-.5-.1-.4.2-.7.5-.7 6.8-1.1 20.6-7.8 23.9-17.3 1.7-4.8.4-9.6-3.9-14.3-10.4-11.5-24-13.2-38.4-14.9-23.4-2.9-46.3.1-68.2 9-59.7 24.1-78.1-3.7-81.2-9.5-.2-.3 0-.7.3-.9.3-.2.7 0 .9.3 1.3 2.5 6.6 10.9 19.3 15.5 15.5 5.6 35.8 3.3 60.3-6.6 22.1-8.9 45.3-12 68.9-9.1 14.7 1.8 28.5 3.5 39.2 15.4 4.6 5.1 6 10.4 4.2 15.6-3.5 9.9-17.8 16.9-24.9 18.1l-.3-.1z" fill="#000000" class="color000 svgShape"></path>
            <path d="M3.4 302.4c-.3 0-.6-.3-.6-.6-7.6-80.1 9.9-140.2 21-168.8 5.6-14.6 10.3-22.9 11.1-24.5l.3-.4C56 89 88.2 79.8 121.3 83.7c76.2 8.9 99.3 36.4 100.2 37.5l-.9.9-.1-.1c-.9-1.1-23.7-28.2-99.4-37-32.7-3.8-64.5 5.2-85 24l-.1.2c-.9 1.5-5.5 9.8-11.1 24.3-11 28.5-28.4 88.3-20.8 168.2 0 .4-.3.7-.7.7.1 0 0 0 0 0z" fill="#000000" class="color000 svgShape"></path>
            <path d="M24.4 133.9c-.3 0-.5-.2-.6-.5-4.2-13.2-3-27.5-1.1-41 1.6-11.5 3.3-23.4 10-33.3C38.2 51 47.4 44.3 59.9 39c6.9-2.9 14-5 19.4-6.6 1.5-.4 3-.8 4.5-1.1.2-.1.4-.1.6-.1l.3-.1h.1l.5-.1h.4c.1 0 .3-.1.4-.1.5-.1 1.1-.2 1.7-.3.6-.1 1.3-.2 1.9-.4 4.2-.7 8.7-1.2 13.1-1.5.5 0 1.1-.1 1.6-.1h.1c.7 0 1.4-.1 2.1-.1h.1c3.6-.1 7.1-.1 10.5.1 11.7.6 23.2 2.6 34.2 6 11.4 3.5 24.2 10.8 32.7 18.6 13 11.8 9.3 28.2 7 39.1-.8 3.7-1.5 6.9-1.4 9 0 .4-.2.7-.6.7-.4 0-.7-.2-.7-.6-.1-2.3.6-5.6 1.4-9.4 2.5-11.2 5.8-26.6-6.6-37.8-8.4-7.7-21-14.8-32.2-18.3-10.9-3.4-22.3-5.3-33.9-5.9-3.3-.2-6.8-.2-10.4-.1h-.1c-.7 0-1.3 0-2 .1h-.2c-.5 0-1.1 0-1.6.1-4.4.3-8.8.8-13 1.5-.6.1-1.3.2-1.9.4-.6.1-1.1.2-1.7.3H85.6l-.7.1-.1.1-.4.1c-.2 0-.4.1-.6.1-1.5.3-3 .7-4.4 1.1-5.4 1.5-12.4 3.6-19.2 6.5-12.1 5.1-21 11.7-26.4 19.6-6.6 9.6-8.3 21.4-9.9 32.8-1.9 13.3-3.1 27.4 1.1 40.4.1.3-.1.7-.4.8h-.2z" fill="#000000" class="color000 svgShape"></path>
            <path d="M70.3 89.7c-.4 0-.7-.3-.7-.7.2-37.6 15.6-57.8 15.8-58 .2-.3.6-.3.9-.1.3.2.3.6.1.9-.1.3-15.3 20.1-15.4 57.3 0 .3-.3.6-.7.6z" fill="#000000" class="color000 svgShape"></path>
            <path d="M83.9 32.6c-.3 0-.6-.2-.6-.5-1.6-6.1 0-9.2 1.7-10.8 2.7-2.6 7.4-3 13.1-1.3 5.2 1.6 8.5 3.7 9.7 6.2.8 1.7.3 2.8.3 3-.1.3-.5.5-.9.3-.3-.1-.5-.5-.4-.8 0 0 .3-.8-.3-2-.7-1.5-2.8-3.6-8.8-5.5-5.2-1.6-9.5-1.3-11.8 1-2 1.9-2.5 5.2-1.3 9.5.1.3-.1.7-.5.8-.1.1-.1.1-.2.1zm17.8 173.6c-10.2 0-19.3-9.5-21.3-22.1-1-6.7.1-13.2 3.1-18.5 3-5.3 7.7-8.7 13-9.6.8-.1 1.7-.2 2.5-.2 10.2 0 19.3 9.5 21.3 22.1 2.1 13.8-5.1 26.4-16.1 28.1-.8.1-1.7.2-2.5.2zM99 157.1c-.8 0-1.5.1-2.3.2-4.9.8-9.2 3.9-12.1 8.9-2.9 5-3.9 11.3-2.9 17.7 1.8 12 10.4 21 20 21 .8 0 1.5-.1 2.3-.2 10.3-1.6 17-13.5 15-26.6-1.9-11.9-10.5-21-20-21zm54 45.9-.3-.1c-7.9-2.9-14-11.1-15.5-21.1-1-6.6.1-13.2 3.1-18.5 3-5.3 7.7-8.7 13-9.6.8-.1 1.7-.2 2.5-.2 10.2 0 19.4 9.5 21.3 22.1 1.5 9.7-1.7 19.3-8.1 24.5l-.2.2h-.3c-4.8-.8-10 .1-15.3 2.6l-.2.1zm2.8-48.2c-.8 0-1.5.1-2.3.2-5 .8-9.2 3.9-12.1 8.9-2.9 5-3.9 11.3-2.9 17.7 1.4 9.4 7.1 17.2 14.4 20 5.4-2.5 10.6-3.4 15.5-2.6 5.9-4.9 8.8-13.9 7.4-23.1-1.8-12-10.4-21.1-20-21.1z" fill="#000000" class="color000 svgShape"></path>
            <path d="M174.9 202.3s-.5-.2-1.3-.5c-.4-.2-.9-.3-1.5-.5s-1.3-.3-2-.5c-.4-.1-.8-.1-1.2-.2-.3-.1-.8-.1-1.2-.1-.4 0-.9-.1-1.3-.1H165c-.5 0-.9 0-1.4.1-.5.1-1 .1-1.4.2-1 .2-2 .3-2.9.6-.5.1-1 .2-1.4.4-.5.2-1 .3-1.4.4-.5.2-.9.3-1.4.5-.4.2-.9.4-1.3.5-.8.4-1.7.8-2.5 1.2-.8.4-1.5.7-2.2 1.1-.6.4-1.3.7-1.8 1-.5.3-1 .6-1.4.9-.8.5-1.2.8-1.2.8l.3-.3c.2-.2.4-.4.8-.7.3-.3.7-.7 1.2-1.1.5-.4 1.1-.8 1.7-1.3.6-.5 1.3-.9 2.1-1.3s1.5-.9 2.4-1.4c.4-.2.9-.4 1.3-.6.5-.2.9-.4 1.4-.6.5-.2 1-.3 1.5-.5s1-.3 1.5-.4c1-.3 2-.4 3.1-.6.5-.1 1-.1 1.5-.1s1-.1 1.5 0c.5 0 1 0 1.5.1.5 0 .9.1 1.3.2s.8.1 1.3.2l1.2.3c.7.3 1.4.5 2 .7.6.3 1.1.5 1.5.7.6.6 1.1.9 1.1.9zm-75.3-4.2c-4.7 0-8.8-4.8-9.5-11.2-.4-3.2.2-6.3 1.6-8.8 1.4-2.5 3.6-4.1 6-4.3 5-.6 9.5 4.4 10.3 11.1.4 3.2-.2 6.3-1.6 8.8-1.4 2.5-3.6 4.1-6 4.3-.3.1-.6.1-.8.1zm-1.2-23h-.6c-2 .2-3.8 1.5-5 3.7-1.3 2.2-1.8 5.1-1.5 8 .6 5.9 4.6 10.4 8.8 10 2-.2 3.8-1.5 5-3.7 1.3-2.2 1.8-5.1 1.5-8-.6-5.6-4.2-10-8.2-10zm54.6 20.5h-.6c-2.3-.2-4.4-1.6-5.8-4-1.4-2.3-2-5.2-1.7-8.3.6-6.3 4.8-11.2 9.5-10.8 4.7.4 8 5.9 7.5 12.3-.5 6-4.5 10.8-8.9 10.8zm.9-21.8c-3.8 0-7.2 4.2-7.7 9.6-.2 2.8.3 5.4 1.5 7.5 1.2 2 2.9 3.2 4.8 3.4 4 .4 7.6-4 8.1-9.6s-2.3-10.5-6.3-10.9h-.4zm83.9 183.3c-1.7 0-3.3-.2-4.8-.6-4-1-7.8-3.7-9.9-7.1-1.3-1.9-1.9-4.3-2.1-6.9-.1-2.7.1-5.4.3-8 .2-1.9.3-3.9.3-5.9 0-3.9-.4-7.9-.9-11.8v-.3c-.4-3.4-1-6.7-1.7-9.8-.6-2.6-1.3-4.9-2-7-.6-1.8-1.4-3.7-2.1-5.4l-.6-1.4c-1.4-3.4-2.5-6.4-3.6-9.2-7-19.2 2.9-23.6 3.4-23.8.3-.1.7 0 .9.3.1.3 0 .7-.3.8-.4.2-9.1 4.2-2.6 22.1 1 2.8 2.2 5.9 3.5 9.2l.6 1.4c.7 1.8 1.5 3.6 2.1 5.5.8 2.2 1.4 4.5 2 7.2.7 3.2 1.3 6.6 1.7 10v.3c.5 3.9.9 8 .9 12 0 2-.2 4-.3 6-.2 2.6-.4 5.2-.3 7.8.1 2.4.7 4.6 1.9 6.3 2 3.1 5.5 5.6 9.2 6.5 1.9.5 4.1.7 6.2.5.3 0 .7.2.7.6 0 .4-.2.7-.6.7-.7-.1-1.3 0-1.9 0z" fill="#000000" class="color000 svgShape"></path>
            <path d="M146.4 323.5c-8.8 0-18.7-.8-29.9-2.9-.4-.1-.6-.4-.5-.8.1-.4.4-.6.8-.5 44.4 8 67.9-2.8 83.5-10 7.9-3.6 13.5-6.2 19-5.3.4.1.6.4.5.8-.1.4-.4.6-.8.5-5.1-.9-10.6 1.6-18.3 5.2-11.7 5.5-27.9 13-54.3 13zM25.5 350.1c-4.7-.4-10.2-1.1-15.4-1.9-.4-.1-.6-.4-.6-.7.1-.4.4-.6.7-.6 5.2.7 10.6 1.5 15.3 1.8.4 0 .6.3.6.7 0 .5-.3.7-.6.7zm49.9-4.3c-.3 0-.5-.2-.6-.4-.1-.3.1-.7.4-.8 10.9-3.8 15.3-8.9 15.4-9 .2-.3.6-.3.9-.1.3.2.3.6.1.9-.2.2-4.6 5.4-15.9 9.4h-.3z" fill="#000000" class="color000 svgShape"></path>
            <path d="m68.9 313.4 1.5 7c.5 2.3 1 4.7 1.5 7s1 4.7 1.6 7l1.6 6.9 1.8 6.9c.3 1.1.6 2.3.9 3.4l1 3.4 1 3.4.5 1.7.6 1.7 2.3 6.7-.8-.5c2.5 0 5 0 7.6.4 1.3.2 2.6.6 3.8 1.3 1.2.7 2.1 1.8 2.8 3 .7 1.1 1.1 2.3 1.6 3.4.6 1.1 1.1 2.3 1.7 3.3l.9 1.6 1 1.6c.7 1 1.4 2 2.1 3.1 1.4 1.9 3.4 3.6 4.6 6 .3.6.5 1.3.5 2.1 0 .4-.1.8-.2 1.1-.2.3-.4.7-.6.9-.3.3-.5.5-.8.7l-.4.3-.1.1c-.1.1-.1 0-.1.1l-.2.1c-.3.1-.5.3-.9.4l-1 .3c-2.6.7-5.4.1-7.7-1.1-2.3-1.2-4.3-2.9-5.9-4.9l-.2-.2s-.1 0-.1-.1c0 0-.1-.1-.2-.1s-.3 0-.4.1c-.4.2-.7.7-.9 1.2-.1.3-.1.4-.2.8l-.2.9c-.1.6-.1 1.2-.1 1.8 0 2.4.4 4.8 1.1 7.2.3 1.2.8 2.3 1.3 3.4l.2.5.2.4c.1.2.1.3.2.5l.1.6v.6c0 .2 0 .4-.1.6-.1.3-.2.7-.5 1-.8 1.2-2 1.9-3.1 2.5-1.2.6-2.4 1-3.6 1.3-.6.2-1.2.3-1.9.5l-.9.1-.5.1h-1.5l-1-.2c-.3 0-.6-.2-.9-.3-.3-.1-.6-.2-.9-.4-1.2-.6-2.1-1.6-3-2.5-.8-1-1.5-2.1-2-3.3-1.1-2.3-1.9-4.7-2.4-7.2-.3-1.2-.4-2.5-.5-3.7-.1-1.2-.2-2.5-.3-3.7.6 2.4 1 4.9 1.6 7.3.6 2.4 1.4 4.8 2.5 6.9.5 1.1 1.2 2.1 1.9 3.1.8.9 1.7 1.7 2.7 2.3.2.2.5.2.8.4.3.1.5.2.8.3l.9.2H81.2l.5-.1.9-.1c.5-.1 1.2-.3 1.7-.4 1.2-.3 2.3-.7 3.4-1.3 1.1-.5 2.1-1.2 2.7-2.1.6-.9.4-1.9-.2-3-.6-1.2-1-2.3-1.4-3.6-.8-2.4-1.2-4.9-1.2-7.5 0-.6 0-1.3.1-2l.2-.9c0-.3.1-.7.3-1 .3-.6.7-1.3 1.3-1.7.3-.2.8-.4 1.3-.3.3 0 .5.1.7.3.1.1.2.2.3.2l.2-.2c1.6 2 3.4 3.5 5.5 4.6 2.1 1.1 4.6 1.6 6.8 1l.8-.3c.3-.1.6-.3.8-.4l.2-.1s.1-.1.1 0l.1-.1.3-.2c.3-.1.4-.3.6-.5.8-.7.7-1.8.2-2.8-.5-1-1.3-2-2.1-2.9l-1.2-1.4-.6-.7c-.2-.2-.4-.5-.6-.8-.7-1-1.5-2-2.2-3.1l-1-1.6-1-1.6c-.7-1.1-1.2-2.2-1.8-3.3-.6-1.2-1-2.3-1.6-3.3-.6-1-1.3-1.9-2.3-2.4-1-.6-2.1-.9-3.3-1-2.4-.4-4.9-.4-7.3-.3h-.6l-.2-.5-2.3-6.8-.6-1.7-.5-1.7-1-3.5-1-3.5c-.3-1.1-.6-2.3-.9-3.5-.6-2.3-1.1-4.6-1.7-7l-1.5-7c-.5-2.3-.9-4.7-1.3-7s-.8-4.7-1.2-7c-.1-2.4-.4-4.8-.7-7.2zm53 103.3s.5-.4 1.4-1.3c.9-.8 2.2-2.1 3.7-3.7.7-.9 1.6-1.8 2.4-2.9.4-.5.9-1.1 1.3-1.7.4-.6.8-1.2 1.3-1.9 1.7-2.6 3.5-5.7 4.7-9.4 1.2-3.7 2-7.9 1.5-12.2l-.1-.8c0-.2-.1-.5-.2-.8-.1-.6-.2-1.1-.4-1.6-.3-1.1-.7-2.2-1-3.3-.7-2.2-1.5-4.6-1.4-7.2l.1-1c.1-.4.1-.6.2-.9.1-.3.3-.7.4-1l.6-.9c.9-1.1 2.2-1.7 3.5-2 1.3-.3 2.6-.5 3.8-.6 1.3-.1 2.5-.2 3.8-.4 2.5-.3 5.1-.5 7.7-.8 1.3-.1 2.6-.3 3.9-.4.6-.1 1.3-.1 1.9-.2l1.9-.3c5.1-.8 10.3-1.6 15.3-2.3 5.1-.8 10-1.5 14.8-2.3 2.4-.4 4.8-.8 7.1-1.1 2.3-.4 4.7-.9 7-.3.3.1.6.1.9.2.3.1.5.2.8.3l1.5.9c.9.7 1.6 1.6 2.2 2.5 1.2 1.8 1.8 3.9 2.2 5.8.2 1 .3 1.9.4 2.9.1.5.1.9.2 1.4 0 .5 0 .9.1 1.4 0 .9 0 1.8.1 2.6-.1.8-.1 1.7-.2 2.5s-.1 1.6-.3 2.3c-.1.4-.1.7-.2 1.1-.1.4-.2.7-.3 1-.1.3-.2.7-.3 1-.1.3-.2.6-.4.9-.2.6-.4 1.1-.7 1.7-1.1 2-2.2 3.5-3 4.4-.8.9-1.3 1.4-1.3 1.4s.4-.5 1.2-1.4c.8-.9 1.8-2.4 2.8-4.4.2-.5.4-1.1.6-1.7l.3-.9c.1-.3.2-.6.2-1 .1-.3.2-.7.2-1 .1-.3.1-.7.2-1.1.1-.7.2-1.5.2-2.3.1-.8 0-1.6.1-2.4 0-.8-.1-1.7-.1-2.6 0-.4 0-.9-.1-1.3s-.1-.9-.2-1.4c-.2-.9-.3-1.9-.5-2.8-.4-1.9-1.1-3.8-2.2-5.5-1.1-1.7-2.7-3.1-4.9-3.5-2.1-.4-4.3 0-6.6.5-2.3.4-4.7.8-7.1 1.2-4.8.8-9.8 1.6-14.8 2.4l-15.3 2.4-1.9.3c-.7.1-1.3.1-2 .2-1.3.1-2.6.3-3.9.4-2.6.3-5.1.5-7.7.8-2.6.3-5.2.3-7.5.9-1.2.3-2.2.8-2.9 1.6-.2.2-.3.4-.5.6-.1.2-.2.5-.3.7-.1.3-.2.6-.2.8v.9c-.1 4.7 2.5 9 2.9 13.6.5 4.6-.4 8.9-1.7 12.6-1.2 3.8-3.2 6.9-5 9.5-.5.6-.9 1.3-1.4 1.9-.5.6-.9 1.1-1.4 1.7-.9 1.1-1.8 1.9-2.5 2.8-1.6 1.6-2.9 2.8-3.8 3.6-.6.5-1.1.9-1.1.9zM19.8 319.1s.4 1.7 1 4.7 1.5 7.2 2.5 12.3c.5 2.5 1.1 5.3 1.7 8.2.6 2.9 1.2 6 1.9 9.2.7 3.2 1.4 6.4 2.2 9.7.8 3.3 1.6 6.7 2.5 10 1.8 6.7 3.9 13.2 6.2 19.2 2.4 6 5.2 11.4 8.4 15.3 1.6 2 3.3 3.5 5.1 4.4 1.8.9 3.5 1.2 4.9 1.1.4 0 .7-.1 1-.1.3-.1.6-.2.9-.2.3-.1.5-.1.7-.2l.6-.3c.7-.3 1.1-.5 1.1-.5h.1c.3-.1.7 0 .9.3.1.3 0 .7-.3.9 0 0-.4.2-1.2.5-.2.1-.4.2-.7.3-.3.1-.5.1-.8.2-.3.1-.6.2-1 .3-.4 0-.7.1-1.1.1-1.6.1-3.6-.1-5.6-1.2-2-1-3.9-2.7-5.6-4.7-1.7-2-3.2-4.5-4.6-7.1-1.4-2.7-2.7-5.5-3.9-8.6-2.4-6.1-4.4-12.7-6.2-19.4-1.7-6.7-3.3-13.5-4.5-19.8-.6-3.2-1.2-6.3-1.7-9.2-.5-2.9-1-5.7-1.5-8.2-.9-5.1-1.6-9.4-2.1-12.4-.7-3.1-.9-4.8-.9-4.8z" fill="#000000" class="color000 svgShape"></path>
            <path d="M52.9 397.9s.2.5.5 1.3c.2.4.4.9.6 1.5.2.6.5 1.2.8 1.9.3.7.6 1.4 1 2.2.4.8.8 1.6 1.3 2.4.2.4.5.8.8 1.2l.4.6.4.6c.6.8 1.3 1.5 2 2.1.4.3.8.6 1.1.9.4.2.8.4 1.2.7.9.3 1.7.7 2.6.8.2 0 .4.1.7.1h2c.8-.1 1.6-.1 2.3-.2.7-.1 1.4-.3 2-.4.6-.1 1.1-.3 1.5-.4.8-.2 1.3-.4 1.3-.4h.1c.3-.1.7.1.8.4.1.3-.1.7-.4.8 0 0-.5.2-1.3.5-.4.1-.9.3-1.6.5-.6.1-1.3.3-2.1.5-.8.1-1.6.2-2.5.3-.5 0-.9 0-1.4-.1h-.7c-.2 0-.5-.1-.7-.1-1-.1-2-.5-3-.9-.5-.3-.9-.5-1.4-.8-.4-.3-.8-.7-1.3-1-.8-.7-1.5-1.5-2.1-2.3l-.5-.6-.4-.6c-.3-.4-.5-.8-.7-1.3-.4-.9-.8-1.7-1.2-2.5-.4-.8-.6-1.6-.8-2.3-.3-.7-.4-1.4-.6-2-.2-.6-.3-1.1-.4-1.6-.2-1.3-.3-1.8-.3-1.8zm57.3-30.1c-4.3 0-8-1.9-10.2-5.1-3.9-5.8-5.7-12.6-7.5-19.2-.4-1.7-.9-3.4-1.4-5-3.6-12.4-8.4-25.1-18.6-33.8-5.1-4.3-11.7-6.6-19-6.6-5 0-10.4 1.1-15.5 3.1-6.7 2.6-12.9 6.3-17.8 10.5-1.9 1.7-2.6 4.1-3.3 6.6-.7 2.7-1.5 5.6-4 7.5-1.2.9-2.5 1.3-3.9 1.3-3.1 0-6.2-2.3-7.5-5.5-5.2-13.2 3.6-27.4 14.6-35.8 8.3-6.3 18.6-9.4 30.8-9.4 4.9 0 10 .5 15.4 1.5 8.3 1.6 16.7 4.9 25 10 11.3 6.8 19.9 14.8 25.5 23.6 2.7 4.3 5.1 9.1 7 14.1 1.4 3.6 2.8 7.5 3.6 11.9l.2 1.2c1.3 7.2 2.9 16.2-1 22.6-2.4 3.9-7.3 6.5-12.4 6.5zm-56.7-71.1c7.6 0 14.5 2.4 19.9 6.9 10.5 8.9 15.5 22.4 19 34.4.5 1.7.9 3.3 1.4 5 1.7 6.5 3.5 13.2 7.3 18.8 2 2.9 5.3 4.6 9.2 4.6 4.7 0 9.1-2.3 11.3-6 3.7-6 2.1-14.7.9-21.7l-.2-1.2c-.8-4.2-2.2-8-3.5-11.6-1.9-5-4.2-9.6-6.9-13.9-5.5-8.7-13.9-16.5-25.1-23.2-8.2-4.9-16.5-8.2-24.6-9.8-5.3-1-10.4-1.5-15.2-1.5-11.9 0-22 3.1-30 9.2-10.6 8-19.1 21.7-14.2 34.2 1.1 2.8 3.7 4.7 6.3 4.7 1.1 0 2.2-.4 3.2-1.1 2.2-1.6 2.8-4.1 3.5-6.7.7-2.6 1.4-5.3 3.7-7.3 5-4.3 11.3-8 18.1-10.7 5.2-2 10.7-3.1 15.9-3.1z" fill="#000000" class="color000 svgShape"></path>
            <path d="M29.6 355c-1.1 0-2.1 0-3.2-.1-.4 0-.6-.3-.6-.7 0-.4.3-.6.7-.6 28.4 1.1 47.5-12.5 47.7-12.6.3-.2.7-.1.9.1.2.3.1.7-.1.9-.3.2-18.3 13-45.4 13zm50.9-210.4 2.9-2.1c15.1-10.9 25-12.9 25.5-13h.1c2 0 3.4.6 4.3 1.9 1.8 2.8-.2 7.6-.2 7.8l-.2.5-.5-.1c-.8-.2-1.9-.3-3.3-.3-8.7 0-24.8 4.3-25 4.4l-3.6.9zm28.6-13.7c-.1 0-8.8 1.8-22 10.7 5.3-1.3 15.4-3.5 21.8-3.5 1.2 0 2.2.1 3.1.2.4-1.2 1.3-4.3.2-6.1-.6-.9-1.6-1.3-3.1-1.3zm53.6 20.1h-.4c-1.1 0-2.1-.1-3-.3-1.1 0-8.1-.4-14.2-7.2l-1.5-1.7 2.2.6c3.8 1.1 8.5 1.3 13.5.7.9-.1 1.7-.2 2.6-.4.6-.1 1.2-.2 1.7-.3h.3c.7-.1 1.5-.2 2.2-.2 1.2 0 2.1.3 2.8.8 1 .8 1.6 2 1.5 3.3-.1 1.4-.8 2.7-1.9 3.4-2 1.1-4 1.3-5.8 1.3zm-15.2-6.8c5.6 5.1 11.5 5.2 11.7 5.2h.1c.9.2 1.8.3 2.8.3h.4c1.7 0 3.5-.1 5.1-1.1.8-.5 1.3-1.4 1.3-2.3 0-.9-.3-1.7-1-2.2-.5-.4-1.2-.6-2.1-.6-.7 0-1.4.1-2 .2h-.3c-.6.1-1.1.2-1.7.3-.9.1-1.8.3-2.6.4-4.1.5-8.2.5-11.7-.2zm-43.9 108.2c-2.4 0-5-.2-8-.7-12.4-2.1-17.6-14.8-16.2-25.7.1-.5.1-.9.2-1.3.6-2.8 2.1-4.2 4.4-4.2 1.2 0 2.8.4 4.7 1.3 11.7 5.1 19.4 3.2 19.5 3.2 5.2-1.3 9.9.4 12.5 4.4 2.4 3.6 2.7 8.6.8 13-2.8 6.6-8.9 10-17.9 10zm-19.5-30.7c-1.1 0-2.5.4-3.2 3.2-.1.4-.1.8-.2 1.2-1.3 10.3 3.5 22.3 15.1 24.3 13.1 2.2 21.1-.6 24.5-8.6 1.7-4 1.5-8.6-.6-11.8-2.3-3.5-6.4-5-11.1-3.8 0 0-1.5.4-4.2.4-3.5 0-9.1-.6-16.1-3.7-1.8-.9-3.1-1.2-4.2-1.2z" fill="#000000" class="color000 svgShape"></path>
            <path d="M91 237.9h-.6c-4.3-.2-8-2.5-11-6.9-.2-.3-.1-.7.2-.9.3-.2.7-.1.9.2 2.7 4 6.1 6.1 9.9 6.3 9.8.4 20.1-11.8 20.2-11.9.2-.3.6-.3.9-.1.3.2.3.6.1.9-.4.5-10.3 12.4-20.6 12.4zM308.5 275s-.4.2-1.1.5c-.3.2-.8.4-1.2.6-.5.2-1 .5-1.6.8-.6.3-1.2.7-1.8 1-.6.4-1.3.8-1.9 1.2-.3.2-.6.5-.9.7-.3.3-.6.6-.9.8-.3.3-.5.6-.8.9-.3.3-.4.7-.6 1-.4.7-.7 1.5-.8 2.2-.2.8-.3 1.6-.3 2.4-.1 1.6 0 3.1 0 4.4.1 1.3.1 2.4.2 3.1.1.8.1 1.2.1 1.2s-.5-1.7-1-4.2c-.1-.6-.2-1.3-.3-2.1-.1-.8-.2-1.5-.1-2.4 0-.4 0-.8.1-1.3.1-.4.1-.9.2-1.3.2-.9.5-1.8.9-2.6.3-.4.5-.8.8-1.2.3-.3.6-.7.9-1 .3-.3.7-.6 1-.9.4-.2.7-.5 1.1-.7.7-.5 1.4-.8 2.1-1.2.7-.3 1.3-.6 2-.8 1.2-.5 2.3-.8 3-1 .4 0 .9-.1.9-.1zm-9-5.2c.6-1.8 1-3.8 1.1-5.7v-1.4c0-.5-.1-1-.1-1.4-.2-.9-.4-1.9-.8-2.7-.2-.4-.4-.9-.6-1.3-.2-.4-.4-.8-.7-1.2-.3-.4-.5-.8-.9-1.1l-.5-.5-.5-.5-.5-.5-.6-.4-.6-.4-.6-.3c-.4-.2-.8-.5-1.3-.6l-1.3-.6-.5-.2.1-.5c.9-3.4 1.4-6.8 1.4-10.3 0-3.4-.4-6.9-1.6-10.1-.6-1.6-1.4-3.1-2.5-4.3-1.1-1.2-2.5-2.2-4.1-2.7-.8-.3-1.6-.4-2.4-.4-.7 0-1.5.2-2.1.7-1.3.9-2 2.4-2.5 4-.3.8-.4 1.7-.7 2.5l-.7 2.6c-.4 1.7-.9 3.4-1.3 5.1-.7 3.4-1.2 6.9-1 10.3.2 3.5.7 7 .8 10.5.1 3.6-.3 7.2-1.6 10.6-1.4 3.4-3.9 6.3-6.8 8.4l-1.1.8c-.4.2-.8.5-1.2.7l-1.2.7c-.4.2-.8.4-1.3.5l-1.3.5-1.3.4-1.3.4-1.3.2c-3.6.6-7.2.5-10.7-.3-.9-.2-1.7-.3-2.6-.6-.9-.3-1.7-.5-2.6-.8l-2.5-1-2.4-1.2-.6-.3c-.2-.1-.4-.2-.6-.4l-1.1-.7c-.8-.5-1.5-.9-2.2-1.5-.7-.5-1.5-1-2.2-1.6l-2-1.7c-2.7-2.4-5.1-5-7.4-7.7-2.2-2.7-4.3-5.6-6.2-8.6-1.9-3-3.7-6-5.3-9.2v-.1c-.2-.3 0-.7.3-.9.3-.2.7 0 .9.3l.1.1v-.1c1.5 3.1 3.3 6.2 5.2 9.1 1.9 2.9 3.9 5.8 6.2 8.5 2.2 2.7 4.6 5.2 7.2 7.5l2 1.7 2.1 1.5c.7.5 1.4 1 2.2 1.4l1.1.7c.2.1.4.3.5.3l.6.3c.8.4 1.5.8 2.3 1.1l2.4 1c.8.3 1.6.5 2.5.8.8.3 1.7.4 2.5.6 3.4.7 6.9.8 10.2.2l1.3-.2 1.2-.4 1.2-.4 1.2-.5c.4-.2.8-.3 1.2-.5l1.1-.6c.4-.2.7-.4 1.1-.6l1.1-.8c2.8-1.9 5.1-4.7 6.4-7.8 1.2-3.2 1.7-6.6 1.5-10.1-.1-3.4-.6-7-.8-10.5-.2-3.6.3-7.2 1.1-10.6.4-1.7.9-3.4 1.3-5.2l.7-2.6c.2-.8.4-1.7.7-2.6.6-1.7 1.4-3.5 3-4.7.8-.6 1.8-.9 2.9-.9 1 0 1.9.2 2.8.4 1.8.5 3.4 1.6 4.7 3 1.2 1.4 2.1 3 2.8 4.7 1.3 3.4 1.7 7 1.6 10.6 0 3.6-.5 7.1-1.5 10.6l-.4-.8 1.3.7c.5.2.9.5 1.3.7l.6.4.6.5.6.5c.2.2.4.3.6.5l.5.5.5.6.9 1.2c.3.4.5.9.7 1.3.2.5.4.9.5 1.4.3.9.5 1.9.6 2.9 0 .5.1 1 .1 1.5s0 1-.1 1.5c-.2 2.4-.7 4.3-1.4 6.1z" fill="#000000" class="color000 svgShape"></path>
            <path d="M291.8 251.1c-.2 0-.4-.1-.5-.3-.2-.3-.1-.7.1-.9 3.5-2.6 13.8-9.4 20-13.5l1.9-1.3c.3-.2.7-.5 1.1-.7 2.8-2 6.3-4.4 10-2.7 2.5 1.2 3.7 4 3.8 8.4v.3c0 .4-.3.7-.7.7s-.7-.3-.7-.7v-.2c0-4-1.1-6.4-3-7.4-2.9-1.4-6 .7-8.7 2.6-.4.3-.7.5-1.1.8l-1.9 1.3c-6.1 4.1-16.4 10.9-19.9 13.4-.1.2-.3.2-.4.2z" fill="#000000" class="color000 svgShape"></path>
            <path d="M299.9 258.8c-.2 0-.4-.1-.5-.3-.2-.3-.1-.7.2-.9l8.4-5.7 5.7-3.9c2.8-1.9 5-3.4 7.1-4.8.4-.3.8-.6 1.3-.9 1.7-1.1 3.4-2.3 5.3-2.8 2.5-.6 4.8-.1 6.7 1.7 2.5 2.3 2.9 6.1 1.3 11.4-.1.3-.5.5-.8.4-.3-.1-.5-.5-.4-.8 1-3.3 1.7-7.7-.9-10.1-1.6-1.4-3.5-1.9-5.5-1.4-1.7.4-3.4 1.6-4.9 2.6-.4.3-.9.6-1.3.9-2.1 1.4-4.3 2.9-7.1 4.7l-5.7 3.9-8.4 5.7c-.3.3-.4.3-.5.3z" fill="#000000" class="color000 svgShape"></path>
            <path d="M308.5 272.3c2.1-1.8 4.2-3.5 6.3-5.3 2.1-1.7 4.3-3.4 6.4-5.1 2.2-1.7 4.3-3.4 6.5-5 2.2-1.7 4.4-3.3 6.6-4.9l.2-.1h.2c.4 0 .6.1.9.2.3.1.6.2.8.4.3.1.5.3.7.5.2.2.4.4.6.7.2.2.3.5.4.7.1.3.2.5.3.8.1.3.2.5.2.8l.1.8c0 .5.1 1.1.1 1.6s0 1.1-.1 1.6-.1 1-.2 1.5l-.3 1.5-2.7 7.7-3.1 7.5c-1.2 2.4-2.3 4.9-3.5 7.3l-2 3.6-1 1.8-1.1 1.7-2.2 3.5-2.4 3.3c-1.5 2.3-3.4 4.3-5.1 6.4-.9 1-1.9 2-2.8 3-.5.5-.9 1-1.4 1.5l-1.5 1.4-1.5 1.4c-.5.5-1 .9-1.5 1.3l-3.2 2.6-3.4 2.3c-1.1.8-2.3 1.4-3.5 2.2-1.2.7-2.4 1.3-3.6 2l-1.8.9-1.9.8-1.9.8c-.6.3-1.3.5-1.9.7-1.3.5-2.6 1-3.9 1.3-1.3.4-2.6.8-3.9 1.1-1.3.3-2.7.6-4 .9l-2 .4-2 .3c-1.4.2-2.7.3-4.1.4-2.7.2-5.5.3-8.2.2-2.7-.1-5.5-.3-8.2-.7-2.7-.4-5.4-.9-8.1-1.6-.3-.1-.5-.5-.4-.8.1-.3.5-.5.8-.4 2.5.7 5.2 1.2 7.8 1.6 2.7.4 5.3.6 8 .7 2.7.1 5.4 0 8-.2 1.3-.1 2.7-.2 4-.4l2-.3 2-.4c1.3-.2 2.6-.5 3.9-.8 1.3-.3 2.6-.7 3.9-1.1 1.3-.4 2.5-.8 3.8-1.3.6-.2 1.3-.4 1.9-.7l1.8-.8 1.8-.8 1.8-.9c1.2-.6 2.4-1.2 3.5-1.9s2.3-1.3 3.4-2.1l3.3-2.3 3.1-2.5c.5-.4 1-.9 1.5-1.3l1.5-1.4 1.5-1.4c.5-.5.9-1 1.4-1.5.9-1 1.9-1.9 2.8-2.9 1.7-2.1 3.5-4.1 5-6.3.8-1.1 1.6-2.2 2.3-3.3l2.1-3.4 1.1-1.7 1-1.8 1.9-3.5c1.2-2.4 2.3-4.9 3.5-7.3l3.1-7.5 2.7-7.6.3-1.4c.1-.5.1-1 .2-1.5s.1-1 .1-1.4V257l-.1-.7c0-.2-.1-.4-.2-.7-.1-.2-.1-.4-.2-.6l-.3-.6c-.1-.2-.3-.3-.4-.5-.2-.1-.3-.3-.5-.4l-.6-.3c-.2-.1-.4-.1-.5-.1l.4-.1c-2.2 1.7-4.3 3.3-6.5 5-2.2 1.7-4.4 3.2-6.6 4.9-2.2 1.6-4.4 3.2-6.7 4.8-2 1.5-4.3 3.1-6.5 4.6z" fill="#000000" class="color000 svgShape"></path>
            <path d="M273.3 330.1c-.2 0-.4-.1-.5-.2-13.1-15.1-13.7-38.1-12.9-50.5 0-.4.3-.6.7-.6.4 0 .6.3.6.7-.8 12.2-.1 34.8 12.6 49.5.2.3.2.7-.1.9-.1.2-.3.2-.4.2zm132.1-168.3H373.3c-51.6-.1-59.5-7.2-67.9-27.7L251.2 148l41.9-32.7c-.2-3.8-.4-7.6-.7-11.2-1.6-27-2.9-48.4 3.3-63.8 6.7-16.4 21.7-25.1 48.7-28.1 11.4-1.3 22.1-2.6 32.4-3.8 26.5-3.2 49.5-6 68-6 23.7 0 38.8 4.6 49 15 11.1 11.3 16.8 30.1 17.9 59.2 1.3 36.8-2.7 56.5-14 68.2-15.3 15.9-45.1 17-92.3 17zm-99.3-29.3.2.5c8.3 20.3 15.7 27.3 66.9 27.4H405.3c46.9 0 76.5-1.1 91.5-16.7 11-11.4 14.9-30.9 13.6-67.3-2.2-61-25.7-72.9-65.6-72.9-18.4 0-41.3 2.8-67.8 6-10.3 1.3-21 2.6-32.4 3.8-56 6.2-54.2 36.2-50.9 90.5.2 3.7.5 7.6.7 11.6v.3l-.3.2-37.3 29.1 49.3-12.5z" fill="#000000" class="color000 svgShape"></path>
        </svg>
    </g>
</svg>