<svg id="SvgjsSvg1220" width="256" height="256" xmlns="http://www.w3.org/2000/svg" version="1.1" xmlns:xlink="http://www.w3.org/1999/xlink" xmlns:svgjs="http://svgjs.com/svgjs">
    <defs id="SvgjsDefs1221"></defs>
    <g id="SvgjsG1222">
        <svg xmlns="http://www.w3.org/2000/svg" viewBox="0 0 512 512" width="256" height="256">
            <path fill="#8cb0dc" d="M388.3 155.1c-3.9 22.8-9.9 38.7-15.2 52.8-6.7 17.7-12.4 32.9-13.2 57.1-1.1-.5-2.5-.6-4-.1-1.1.3-2.3.9-3.6 1.7-3.3 2.1-6.6 4.8-9.6 8-.4.4-.9.9-1.3 1.4-11.5 12.5-20.1 25.7-25.5 39.1-70.1-.3-116.4-17.7-137.8-28.2-.2-4.1-.6-8.5-1.2-13.4-.4-3.1-3.5-26.2-11.8-33.5-1.5-1.3-3.2-2.1-5-2.2 8.3-37.1 23-78.5 43.8-123 1.2-2.6 2.5-5.2 3.8-7.6 1.9-3.5 3.7-6.6 5.5-9.4 8.5-13.2 15.7-18.7 15.8-18.8.1-.1.1-.1.1-.2 14.4 3.2 29.8 9.1 44.4 14.6 10.9 4.2 21.4 8.2 30.5 10.6.8.1 1.6.3 2.3.4 2.1.5 4.3.9 6.4 1.5 1.4.2 2.7.4 4 .4.2 0 20.9 2.8 39.8-3.8l1.9 2.8c6.9 10.2 13.6 19.9 19.9 30.9 3.5 6 6.8 12.2 10 18.9z" class="colorafdc8c svgShape"></path>
            <path fill="#eff6ff" d="M233.1 179.5c2.4 0 4.6-.6 6.6-1.6-.9.3 10-4 10-17.6 0-10.6-7.5-19.2-16.6-19.2s-16.6 8.6-16.6 19.2 7.5 19.2 16.6 19.2z" class="colorfff svgShape"></path>
            <path fill="#3b8eec" d="M135.7 269c-2.7 6.8-8.4 18.9-18.1 33.5-1.9 2.9-4.1 5.9-6.4 9-16.1-10.1-26.2-21.4-26.4-21.6-2.2-2.1-4.8-3.1-7.4-4.1-1.9-.8-3.9-1.5-5.7-2.8-1.7-1.2-3.9-3.1-5.1-5.8 2.5 0 5.5-.8 9-2.3 1.2-.5 2.3-1 3.4-1.5 0 .2.1.4.1.6.5 2.6.9 5.4 3.8 6.9 1.2.6 2.4.9 3.7.9 1.8 0 3.5-.6 4.9-1.8 3.7-3.2 3.1-6.8 2.4-10.8l-.1-.9-2.1-12.9c-.5-3.4-1.1-6.7-1.6-10.1-.1-.7-.2-1.4-.3-2 2.3.2 4.7-.3 6.9-1.1.1 0 .1-.1.2-.1h.1c2.1-.8 3.9-2 5.3-3.2.2-.1.2-.4 0-.5-.1-.2-.4-.2-.5 0-1.7 1.5-4.3 2.9-7 3.7-1.8.5-3.7.8-5.5.6-1.3-.1-2.5-.6-3.5-1.2-.2-.1-.4-.3-.6-.5-.1-.1-.3-.2-.4-.3-.7-.6-1.2-1.3-1.7-2.2-.9-1.6-.9-3.4-.1-5.4.7-1.7 2.2-3.6 4-5.1.3-.3.7-.6 1.1-.8.5-.4 1-.8 1.6-1.2 4.5-3.4 11.3-8.6 16.1-6.2 2.3 1.1 3.5 3.1 4.2 5.5.3 1.2.5 2.4.6 3.7.1 1.5.1 3.1.1 4.6-.1 9.1.4 16.4 1.6 21.8.1.8.4 7.9 23.4 13.6z" class="colorec4a3b svgShape"></path>
            <path fill="#0d3f91" d="M91 279.5c-2.1 1.8-5.2 2.1-7.7.7-2.5-1.4-2.9-3.8-3.4-6.4 0-.3-.1-.6-.1-.8 8.6-4.4 10.4-8.4 10.3-11.1-.2-3.2-3.1-5.7-6-6.7 2.4-1.8 3.6-4.8 3.1-7.7-.4-2.4-1.9-4.4-4.1-5.3l1.5-.9c1.2 1 2.7 1.7 4.4 1.9.7 4.1 1.3 8.2 2 12.3l2.1 12.9.1.9c.6 4.1 1.1 7.3-2.2 10.2z" class="color914c0d svgShape"></path>
            <path fill="#3b8eec" d="M89.3 262c0 .8-.1 1.8-.7 2.9-1.3 2.6-4.9 5.8-13.2 9.3-.4.1-.7.3-1.1.4-1.7.7-3.3 1.2-4.7 1.4-3 .6-5.4.4-7.2-.6-.3-.2-.7-.4-1-.6-4.2-3.4-3-11.5-2.8-12.9.3 0 .5.1.8.1.7 0 1.5-.1 2.4-.2l1.8-.3 2.5-.6c3.9-.9 6.8-1.5 9-2.1 3.3-.8 5.2-1.5 6.9-2.4.4-.2.8-.4 1.2-.7 3 1 5.9 3.4 6.1 6.3z" class="colorec4a3b svgShape"></path>
            <path fill="#4f5c72" d="m241.3 126.5.9.2c3.7 1 6.7 1.4 9.5 1.3 2.4-.1 4.3-.5 6-1.1 1-.4 2-1 3-1.9 0 0 .2-.3.5-.5-4.4-.9-8.5-2.9-12.9-5.1-.7-.3-1.5-.8-2.5-1.3-2.6-1.5-6.1-3.5-9.3-4.4-1.2-.3-2.2-.5-3.1-.5-2.6 0-4.1 1.3-4.9 3.9-.3 1.1-.2 2.1.4 3.1 1.9 3.5 8.7 5.3 12.4 6.3z" class="color4f7258 svgShape"></path>
            <path fill="#3b8eec" d="M356 102.1c-18.7 6.3-38.9 3.6-39.2 3.6-11-.7-26.5-6.7-43-12.9-13.4-5.1-27.5-10.5-40.8-13.8-14.9-3.7-28.9-4.9-39.7-.1-1.6.7-3.1 1.5-4.6 2.5-3.7 2.5-5.9 5-6.6 7.5 0-.9.2-2.1.7-3.4 2.9-7.1 15.1-18.1 56.8-30.1 0 0 1.3-.5 3.8-.9 4.7-.9 13.8-1.7 26.7.8 11.8 2.3 28.6 7.8 49.4 20.4 11.1 6.6 23.3 15.2 36.5 26.4z" class="colorec4a3b svgShape"></path>
            <path d="M294.3 189.5c6.2 0 11.3-6 11.3-13.4s-5.1-13.4-11.3-13.4c-6.2 0-11.3 6-11.3 13.4s5.1 13.4 11.3 13.4z" fill="#000000" class="color000 svgShape"></path>
            <path fill="#eff6ff" d="m282.2 200 .6-.3c.2-.1.3-.2.5-.2l.6-.3c.2-.1.4-.2.5-.2.2-.1.4-.2.7-.3l.6-.3c.2-.1.5-.2.7-.3l.6-.3c.3-.1.5-.2.8-.3.2-.1.5-.2.7-.3.3-.1.5-.2.8-.3.2-.1.5-.2.8-.2l.9-.3c.3-.1.6-.2.8-.2.3-.1.6-.2.9-.2.3-.1.6-.2 1-.2.3-.1.5-.1.8-.2.4-.1.9-.2 1.3-.3.2 0 .4-.1.6-.1.6-.1 1.3-.2 1.9-.4h.3c.6-.1 1.1-.2 1.7-.3.2 0 .4 0 .6-.1.5-.1 1-.1 1.5-.2h.7c.5 0 1-.1 1.4-.1h2.1c4.2-5.5 6.5-12.8 6.5-20.6 0-16.4-10.3-29.7-23.1-29.7-12.7 0-23.1 13.3-23.1 29.7 0 11.9 5.5 22.5 13.9 27.2.1-.1.2-.1.3-.2.2-.1.3-.2.5-.3.2 0 .4-.1.6-.2zm12.1-38c6.6 0 12.1 6.3 12.1 14.1s-5.4 14.1-12.1 14.1c-6.6 0-12.1-6.3-12.1-14.1s5.5-14.1 12.1-14.1z" class="colorfff svgShape"></path>
            <path fill="#285cb2" d="M189.1 81.9c-4.8 3.1-6.9 6.3-6.4 9.4v.2c1.5 8.4 21.8 14.3 24.5 15 9.9-18.5 19.6-26.7 21.1-27.9-15.2-3.2-29.1-3.3-39.2 3.3z" class="colorb22828 svgShape"></path>
            <path fill="#eff6ff" d="M315.5 214.6c-1 3.2-2.1 6.2-3.3 8.9-.1.1-.1.2-.2.3-4 4.5-8 8.1-12.3 11.2-5.7 4.1-11.4 4.6-16.6 4.6-3 0-6.1-.3-9-.7-10.4-1.6-21-4.8-31.6-9.8-.5-.2-1-.5-1.6-.7-2.4-1-4.8-2.1-6.4-4.2-2.5-3.2-3.1-8.3-3.4-12.3 0-.6-.1-1.1-.1-1.6-.1-1.2-.1-2.4-.1-3.6 13.6 6.7 39.2 13.4 84.6 7.9z" class="colorfff svgShape"></path>
            <path fill="#4f5c72" d="M292.2 125.4c2.1 1.1 5.3 1.1 8 1.2 1.3 0 2.4 0 3.3.2 4.9.8 8.7 1.8 11.9 3.3 1.9.9 4.2 2.1 5.3 4.2.3.6.6.8.7.8l.2-.2c.4-.5 0-2-1-4.6l-.1-.3c-2.3-5.8-7.4-10.8-13-12.7-1.7-.6-4.9-1.3-8.3-1.3-2.6 0-6 .4-7.8 2.4-1 1-1.4 2.4-1.2 4.1.2 1.3.8 2.2 2 2.9z" class="color4f7258 svgShape"></path>
            <path fill="#3b82f6" d="M364.5 388.3c-7.7 24.7-21.3 52.1-40.3 81.6-5.2-1.2-10.1-2.3-14.7-3.2-16.6-3.2-29.4-4.4-37.5-4.8-1.2-.1-2.3-.1-3.3-.1v-22.6c0-.2-.1-.4-.4-.4-.2 0-15.2-.9-30.2-6.2-2.5-.9-4.9-1.8-7.3-3h-.1c-2.1-1-4.1-2-6.1-3.2-.2-.1-.4-.1-.5.1-.1.2-.1.4.1.5 4.3 2.6 9 4.7 13.8 6.4-3.9 7.5-8 15-12 21.8-5.1-1.8-10.7-3.7-16.7-5.7-7.1-2.3-14.7-4.8-22.9-7.5-3-1-6.1-2-9.3-3l8.6-31.4 2.5-9v-.2l-.2-.1c-16.6-15.7-27.5-36.4-32.5-61.5-.3-1.6-.6-3.2-.9-4.9 1.3 1.1 3 1.8 4.5 1.9h.8c6.7 0 12.2-5.9 14.5-11.3 2.8-6.6 3.2-13.9 3.6-20.9v-.7c.2-4.2.3-8.6 0-13.3 21.6 10.5 67.7 27.8 137.4 28.1-.1.3-.3.7-.4 1-4.5 11.4-7.1 22.8-7.8 34.1 1.9 13.3 7 22 14 24 .7.2 1.4.3 2.1.4.4 0 .7.1 1.1.1h1c.3 0 .6-.1.9-.1.4-.1.8-.1 1.2-.3.3-.1.6-.1.8-.2.3-.1.6-.2.9-.4.3-.1.6-.3.9-.4.6-.3 1.2-.7 1.8-1.1.7-.5 1.5-1.1 2.1-1.7l.6-.6c.2-.2.4-.5.7-.7.4-.5.9-1 1.2-1.5.5-.7.9-1.3 1.3-2.1 1.8-3.1 2.9-6.7 3.1-10.5.2-3.7.5-7.7.9-12v-.2c0-.3 0-.5.1-.8.3 0 .7-.1 1.2-.3 1.6-.5 4.2-1.7 7-4.9 1-1.2 2.1-2.6 3.1-4.4l-1.2 3.1-.3.8-6.7 18.1-4.7 12.6-.4 1.2.1.1c0 .1 1.7 3.5 5.8 7.8l.7.7c.3.2.5.5.8.7 1.3 1.3 2.9 2.5 4.7 3.8.6.4 1.3.9 1.9 1.3.6.4 1.2.7 1.8 1.1l2.1 1.2c2.5 1.1 4.5 2 6.7 2.7z" class="color3193f6 svgShape"></path>
            <path fill="#8cb0dc" d="m363.5 307.3-9.6 25.9c-4.8 8.1-10 9.4-11.4 9.6 1.6-17.3 5.4-38.3 14.9-56.1.4-.7.8-1.4 1.1-2.1.5-1 1.1-1.9 1.6-3 .4 7.5 1.2 15.7 2.4 24.3v.1l.1.1c-.1 0 .3.4.9 1.2z" class="colorafdc8c svgShape"></path>
            <path fill="#3b82f6" d="M362.2 274.4c-.4 1.8-1.1 3.7-2.1 5.7-.7 1.4-1.5 2.8-2.2 4.1l-1.2 2.1c-12.1 22.7-14.9 50.5-15.9 69.4-.6 10.2-7.9 18.9-16 18.9-2.1 0-4.1-.4-6-1.2-5.8-2.4-10.5-9-10.5-22.6.7-11.2 3.3-22.5 7.7-33.8l.6-1.5c2.2-5.5 5-11 8.3-16.3 4.7-7.7 10.4-15.3 17.2-22.7 3.4-3.7 7-6.8 10.8-9.2 1.1-.7 2.3-1.3 3.3-1.6.7-.2 1.3-.3 1.9-.3.8 0 1.5.2 2.1.6 2.2 1.3 2.7 5.4 2 8.4z" class="color3193f6 svgShape"></path>
            <path fill="#3b8eec" d="m373.9 32.2-.3-.3c-2.2-1.7-4.4-3.4-6.8-5-2.8-2-5.7-3.9-8.7-5.7-1.8-1-3.5-2.1-5.3-3.1 1.7-1.7 4.6-1.9 8.7-.6.4.1.8.3 1.2.4 1.2.5 2.4 1 3.4 1.5h.1c4.3 2.2 7.2 4.9 8.2 7.7.5 1.8.4 3.5-.5 5.1z" class="colorec4a3b svgShape"></path>
            <path fill="#eff6ff" d="M287.4 252.9c-.5.3-.9.5-1.3.7-15.5 8-34.9 6.8-50-3-6.6-4.3-12.6-7.6-17.8-9.8 1.3-1 2.6-2.1 4-3.1.1-.1.3-.2.4-.3.5-.4 1-.8 1.4-1.2 1.9-1.6 3.9-3.4 6.4-3.7 3.8-.5 8 1.3 12 3.1 1.6.7 3.1 1.4 4.6 1.9 6.2 2.2 12.5 3.8 18.6 4.9 4.2.7 8.3.9 11.8 1h.3c2.4.1 5.2.1 7.2 1.6 2.3 1.8 3.1 4.3 2.4 7.9z" class="colorfff svgShape"></path>
            <path fill="#aacefd" d="M154.1 272c0 .2.2.4 0 .4 0 .4-.1.8-.1 1.2-1.3 11.4-1.8 22.4-1.6 32.7.7-2.5 1.5-5 2.3-7.4 1.2-3.8 2.5-7.8 3.3-11.6 1.6-7.9 1.8-17.4.5-26-.3-2.2-1.1-4.3-1.8-6.4-1 5.7-1.8 11.3-2.5 16.8.2.1-.1.1-.1.3z" class="colorccfdaa svgShape"></path>
            <path d="M300.1 235.6c-5.7 4.1-11.2 4.7-16.4 4.7h-.6c-3.1 0-6.1-.3-9.1-.7-10.4-1.6-21.1-4.9-31.8-9.8-.5-.2-1-.5-1.5-.7-2.4-1.1-5-2.2-6.7-4.4-3-3.8-3.4-10.2-3.7-14.3-.1-1.3-.1-2.7-.1-4-1.3-.6-2.4-1.3-3.5-1.9 1.9 4.6 8 22.5-9.4 35.8.1 0 .2.1.3.1 1.4-1.1 2.9-2.2 4.3-3.4l1.8-1.5c2-1.7 4.1-3.5 6.8-3.9 4.1-.5 8.3 1.4 12.4 3.2 1.6.7 3.1 1.4 4.5 1.9 6.2 2.2 12.4 3.8 18.4 4.9 4.1.7 8.3.9 11.7 1h.3c2.5.1 5.4.2 7.6 1.7 2.5 1.8 3.5 4.5 2.9 7.9 9.8-5.7 17.5-14.6 23-26.7-3.6 4-7.3 7.3-11.2 10.1z" fill="#000000" class="color000 svgShape"></path>
            <path fill="#3b8eec" d="M84 240.8c-.1.1-.2.1-.4.2-1.7 1-4 1.9-6.6 2.5-6.4 1.6-14.3 2-19.2 1.7-.7 0-1.3-.1-1.8-.2-3.1-1.7-4.5-5.2-3.6-8.8 1.3-4.8 6.8-9.9 18.7-9.5l.2 1.5.4 2.3c-2.1 0-4.5.1-7.3.3-.2 0-.4.2-.3.4 0 .2.2.4.4.3 7.6-.7 12.1-.2 14.7.3 1.8.4 2.7.8 3.1 1.1-.8 2.1-.8 4 .2 5.8.4.9.9 1.5 1.5 2.1z" class="colorec4a3b svgShape"></path>
            <path fill="#d9e9ff" d="M97 177.2c0 14.3-11.6 25.9-25.9 25.9-5.4 0-10.4-1.7-14.6-4.5-.6-.4-1.2-.9-1.8-1.4-1.3-1.1-2.5-2.2-3.6-3.5-1.5-1.8-2.8-3.8-3.7-6-1.4-3.2-2.2-6.8-2.2-10.5 0-14.3 11.6-25.9 25.9-25.9 2 0 4 .2 5.9.7 2.3.5 4.5 1.4 6.6 2.5 1.5.8 2.8 1.8 4.1 2.8.6.5 1.2 1 1.7 1.6 4.7 4.7 7.6 11.2 7.6 18.3z" class="colord9f0ff svgShape"></path>
            <path fill="#0d3f91" d="M110.9 177.2c0-12.2-5.5-23.1-14.1-30.4-.2-.1-.3-.3-.5-.4-5.9-4.8-13.2-8-21.2-8.8-1.3-.1-2.6-.2-4-.2-22 0-39.8 17.9-39.8 39.8 0 2.8.3 5.5.8 8.2 1 4.7 2.8 9.2 5.3 13.1 5.3 8.5 13.7 14.7 23.7 17.3 2.8.7 5.8 1.2 8.9 1.2h.3l2.2 13.5c6.5.1 9.2 1.2 10.1 1.8.8-1.7 2.1-3.4 3.8-4.9l-2.1-12.6.4-.2c15.7-5.6 26.2-20.7 26.2-37.4zm-32.6 25.7c-2.3.7-4.7 1-7.2 1-14.7 0-26.7-12-26.7-26.7s12-26.7 26.7-26.7c10.2 0 19 5.7 23.5 14.1 2 3.7 3.2 8 3.2 12.6 0 12.2-8.3 22.6-19.5 25.7z" class="color914c0d svgShape"></path>
            <path fill="#dbeafe" d="m398.9 380.5-.1.1-3.1 9.9c-5.1.6-10 .7-14.6.4-5.8-.4-11.1-1.4-16-3.1-16.6-5.7-23-17.4-23.7-18.8l4.8-12.8c2.6 3.1 14.9 16.3 40.4 20.1.8.4 1.5.9 2.3 1.2 3.3 1.6 6.7 2.6 10 3z" class="colordceefa svgShape"></path>
            <path fill="#3b8eec" d="m431.6 338.5-.4 1.9c-3.1 13.3-6.6 28.4-18.3 36.1-3.5 2.3-7.6 3.4-11.8 3.4-3.5 0-7.2-.9-10.8-2.5-1.6-.7-3.1-1.6-4.7-2.5-1.6-1-2.9-2.1-3.9-3.2-.1-.1-.2-.2-.2-.3-.7-.9-1.3-1.8-1.7-2.7v-.1c-.4-1.1-.6-2.2-.5-3.4v-.3c.3-2.2 1.2-3.8 2.8-4.7.7-.4 1.5-.6 2.3-.8 0-.1-.1-.3-.1-.4v-.3c-.5.1-1 .2-1.4.4-.2-.5-.5-1.4-.7-2.4-.8-2.9-1.8-7.7.9-10.1 2.2-2 5.5-1.7 8.3-1.3 0-.1.1-.1.1-.2.1-.2.2-.3.3-.5-.9-.1-1.8-.2-2.7-.2l-.3-2.6c-.2-2.8 0-5.4 1.2-7.4 3.1-5.1 8.6-4 14-2.9l1.5.3c4.3.8 8.6.9 12.7.6.3-.2.6-.5.9-.8h-.7l5.3-14.4 1.7-4.5c0 .1.1.1.2.2 2 2.2 9.4 11.2 6 25.6z" class="colorec4a3b svgShape"></path>
            <path fill="#285cb2" d="M359.1 105.1c10.5 15.4 20.5 30 29.6 49.2 16.5-23 22.8-51.4 17-76.2-4.3-18.1-15.5-30.9-26.4-40.4-.2 13.6-3 45.2-22.2 64.6l2 2.8z" class="colorb22828 svgShape"></path>
            <path fill="#6696d2" d="m442.3 243 12.5 4.8 21.2 8.1c-.4-3.6.1-6.4 1.5-8.2.9-1.1 1.9-1.6 2.5-1.8l-44-11.2c-1 .4-1.7 1-2 1.8-.6 1.3-.1 2.8.1 3.3l8.2 3.2c0-.1 0-.1 0 0z" class="colorb5d266 svgShape"></path>
            <path fill="#3b8eec" d="M83 255c-1.3.8-2.5 1.4-4.3 2-2.6.9-6.3 1.7-12.8 3.2l-2.5.6c-1.4.3-2.6.5-3.7.5-4.8.1-6.6-2.2-7.2-4.5-1.2-4.3 1.3-10.2 3.4-11 .5.1 1 .1 1.6.2 1.1.1 2.4.1 3.8.1 3.9 0 8.8-.3 13.3-1.2.1 0 .2 0 .3-.1 2.3-.5 4.5-1.1 6.4-1.8.3-.1.5-.2.7-.3 2.4.7 3.9 2.5 4.3 4.9.5 2.9-.8 5.8-3.3 7.4z" class="colorec4a3b svgShape"></path>
            <path fill="#6696d2" d="M438.5 276c.5 1 1.3 1.6 1.9 1.5.7-.2 1.4-1.5 1.1-4.7-.6-8.2 2.3-18.8 12.4-24.6l-11.6-4.4c-3.7 6.2-8.8 18.4-3.8 32.2z" class="colorb5d266 svgShape"></path>
            <path fill="#93c5fd" d="M478.2 248.2c-1.3 1.7-1.8 4.4-1.3 8l.2.1c4.4-3.7 3.9-7.9 3.4-9.6-.5.1-1.5.4-2.3 1.5z" class="color9bad4e svgShape"></path>
            <path fill="#6686ad" d="m425.9 309.1-8.4 22.5c-3.8.2-7.9.1-11.9-.6-.1 0-.2 0-.3-.1-.4-.1-.8-.1-1.2-.2-5.3-1.1-11.4-2.3-14.8 3.3-1.7 2.8-1.6 6.6-1.1 10.4-1.9.1-3.8.7-5.3 2.2-3.9 3.6-1.6 10.5-.8 12.8-.1.1-.3.1-.4.2-1.8 1-2.9 2.8-3.2 5.2-.4 3.8 1.8 7.4 6.3 10.4-25.1-4.3-36.7-17.6-38.4-19.9l25.7-69.1c6.6 6.1 19.5 15.5 39.9 20.4 4.3 1.1 8.9 1.9 13.9 2.5z" class="color66ada4 svgShape"></path>
            <path fill="#8cb0dc" d="M332.1 510.7c-1.9.1-8.2.4-16.9-.4-3.2-.3-6.7-.7-10.5-1.4-8.4-1.4-18.1-3.9-27.9-8.2-2.7-1.2-5.4-2.4-8.1-3.9v-34.3c1 0 2.2.1 3.4.1 8 .4 20.6 1.6 37 4.8 4.6.9 9.5 1.9 14.7 3.1-1.1 1.7-9.9 15.1-9.4 18.6 0 .1.1.2.1.2.1.2 10.3 8.9 17.6 21.4zm-106.4-54.9c-9 15.5-17 27.4-18 28.9-20.3.9-36.2-1.3-47.6-4-9.5-2.2-15.9-4.8-19.1-6.3l-1.8-.9c9.2-5.9 31.7-13.5 31.9-13.6l.2-.1 5.5-20.2c3.2 1 6.3 2 9.3 3 8.1 2.6 15.7 5.1 22.7 7.4 6.1 2.1 11.7 4 16.9 5.8z" class="colorafdc8c svgShape"></path>
            <path fill="#3b8eec" d="M378.6 37.2c-.2 13.1-2.7 45.2-22 64.7-12.3-10.5-23.8-18.8-34.2-25.3-22.1-13.7-39.8-19.6-52.1-22-9.5-1.9-16.9-1.9-22.1-1.5-4 .3-6.7 1-7.9 1.3l1.1-2.3C251.3 31 264.7 2 289.8 1.2c9.9-.3 20.7 1.1 30.6 4.1 1.1.3 2.2.7 3.3 1 7.6 2.5 15 5.5 21.9 9 10 4.9 19.3 10.7 27.7 17.4 1.7 1.5 3.5 2.9 5.3 4.5z" class="colorec4a3b svgShape"></path>
            <path fill="#3b82f6" d="M177.4 300.9v.7c-.4 6.9-.8 14.1-3.6 20.6-2.3 5.4-7.9 11.3-14.6 10.8-2.6-.2-5.7-2.6-6.6-5.1-3.1-8.8-.7-17.7 2-26.4.3-.8.5-1.6.8-2.5 1.2-3.8 2.5-7.8 3.3-11.6 1.6-8 1.8-17.6.5-26.3-.4-2.5-1.2-4.9-2.1-7.2l-.2-.7c-1.1-3.2-2.1-6.3-1.9-9.6.2-2.3 1.8-4.9 4.4-5.2l.1.1c.1 0 .2 0 .2-.1h.2c2.9 0 5.3 2.1 7.4 5.3 4.8 7.3 7.6 20.7 8.7 29.7.6 5 1 9.4 1.2 13.6.4 5 .4 9.5.2 13.9z" class="color3193f6 svgShape"></path>
            <path fill="#dbeafe" d="m437 231-1.2 3.1c-1.2.4-2 1.2-2.4 2.1-.7 1.6-.1 3.4.1 3.9l-13.6 35.1-.1.1 8.7 26.6-2.4 6.4c-5-.6-9.6-1.4-13.9-2.5-20.4-5-33.3-14.5-39.8-20.4l1.4-3.7 26.1-14 .1-.1 21.5-43.4c3.3 1.2 7 2.8 10.9 4.6.6.3 1.3.6 1.9.9.9.4 1.8.8 2.7 1.3z" class="colordceefa svgShape"></path>
            <path fill="#6696d2" d="m444 218.5-4.8 12.6-1.4-.6-3.3-1.5c-.7-.3-1.3-.6-1.9-.9-4.3-2-7.1-3.3-11.3-4.7l-.3-.1c-.4-.1-.7-.3-1.1-.4l5.9-12.1 13 5.5 5.2 2.2z" class="colorb5d266 svgShape"></path>
            <path fill="#8cb0dc" d="M152.3 307.9c-3.5 12.8-.4 19.2-.4 19.2-18.7-.9-40.6-15.1-40.6-15.1 2.2-2.9 4.5-6.1 6.7-9.3 3-4.4 5.9-8.9 8.2-13.1 6.3-11.4 10-20.9 10-20.9 3.3.9 7.4 1.7 10.8 2.3 3.8.6 6.8 1 6.8 1-2.9 17.2-1.5 35.9-1.5 35.9z" class="colorafdc8c svgShape"></path>
            <path d="M354.5 333.6c-.6 1-1.2 1.9-1.8 2.8-4.6 6.3-9 7.1-10.3 7.3h-.3v-.7h.4c1.4-.2 6.6-1.5 11.4-9.6l.6.2z" fill="#000000" class="color000 svgShape"></path>
            <path fill="#bfdbfe" d="m83.6 154.5-32.5 39.2c-1.5-1.8-2.8-3.8-3.7-6L77 152c2.3.5 4.5 1.4 6.6 2.5zm7.1 5.8-32.9 39.8c-.6-.4-2.6-2.3-3.2-2.8l33-39.9c.7.4 2.6 2.4 3.1 2.9z" class="colora6e6ff svgShape"></path>
            <path fill="#285cb2" d="M366.1 19.5s4.7 4.6.6 7c.1.3.2.6.2.9 1.7 1.1 5.4 3.5 7 4.8 2.1-.5 2.9-8.4-7.8-12.7zm0 7.4" class="colorb22828 svgShape"></path>
            <path fill="#cecece" d="M315.5 214.6c-1 3.2.1 1.6-1.1 4.4-.1.1-1.8 2.7-1.9 2.8-52.9 6.6-78.4-6-81.5-9.9 0-.6-.1-1.1-.1-1.6-.1-1.2-.1-2.4-.1-3.6 13.7 6.7 39.3 13.4 84.7 7.9zm-29.4 39c-15.5 8-34.9 6.8-50-3-6.6-4.3-12.6-7.6-17.8-9.8 1.3-1 2.6-2.1 4-3.1.1-.1.3-.2.4-.3 6.4 2.2 11.9 6.6 17.8 10.2 8.1 4.9 17 7.7 26.5 7.2 1.2-.2 11.6-.9 19.1-1.2z" class="colorcecece svgShape"></path>
            <path fill="#185db2" d="M96.3 146.4c-6.2-3.1-28-12.5-46.2.9-21.5 15.9-19 38.4-12.9 50.8.1.1.1.3.2.4-2.5-4-4.3-8.4-5.3-13.1-.5-2.6-.8-5.4-.8-8.2 0-22 17.9-39.8 39.8-39.8 1.3 0 2.7.1 4 .2 8 .8 15.3 3.9 21.2 8.8z" class="colorb25e18 svgShape"></path>
            <path fill="#6d7d90" d="M235.9 141.2h-.2c4 2 7.9 4.8 9.7 9 1.7 4.2 3.4 11.1 1.7 15.5-1.9 5-4.6 9.8-9.2 12.7-.7.4-1.5.8-2.4 1.1h.4c2.4 0 4.6-.6 6.6-1.6.7-.4 10-5 10-17.6 0-10.5-7.4-19.1-16.6-19.1z" class="color6d9077 svgShape"></path>
            <path fill="#c5c9cf" d="M235.9 141.3c-.3 0-.7-.1-1.1-.1.7.2 1.3.6 1.6 1.2 5.7 2.7 9.5 9.7 9.5 18 0 1-.1 1.9-.1 2.7.2.4.3.8.3 1.2.6 6.2-3.4 11.7-8.7 14.9 1.1-.3 2.2-.7 3.2-1.3.6-.4 9.1-5 9.1-17.6 0-10-6.1-18.2-13.8-19z" class="colorcfc5cc svgShape"></path>
            <path fill="#6d7d90" d="M317.7 173.5c0-16.4-10.4-29.7-23.1-29.7h-.2c4.3 1.7 8.1 5.6 11 9 2.4 2.8 3.6 5.9 4.1 9.2l.3.9c1 .5 1.9 1.5 2 3 .2 1.8.3 3.5.3 5.2.7 4 1 8.1.1 11.6-.4 1.7-1.1 3.2-1.8 4.6-.3.9-.4 1.8-.8 2.7-.6 1.5-1.4 2.9-2.3 4.3l-.1.1c1.9 0 5.4.4 5.4.4-.7-.4-2.3-.8-2.3-.8 4.4-5.5 7.4-12.8 7.4-20.5z" class="color6d9077 svgShape"></path>
            <path fill="#c5c9cf" d="M294.3 143.7c-.8-.2-1.7-.2-2.6-.2-.6 0-1.1 0-1.7.1.9.1 1.7.3 2.6.5 9.8 2.8 17.1 14.8 17.1 29.2 0 7.8-2.1 15.1-6 20.7v.2h.1c.4 0 .9-.1 1.3-.1h1.9c3.9-5.6 6-12.9 6-20.7.1-15.3-8.1-27.9-18.7-29.7z" class="colorcfc5cc svgShape"></path>
            <path d="M237.8 154.5c-5.1 0-9.3 5.1-9.3 11.4 0 6.3 5.9 11.4 10.4 12.5 2.2-1.2 8.5-6.2 8.1-9.1 2.1-8.9-4.1-14.8-9.2-14.8z" fill="#000000" class="color000 svgShape"></path>
            <path fill="#bac4d1" d="M388.8 377.4c3.4 1.7 6.8 2.7 10.1 3l-.1.1-3.1 9.9c-5.1.6-10 .7-14.6.4 2.5-2.9 5.1-7.6 7.7-13.4z" class="colorbacad1 svgShape"></path>
            <path fill="#526d99" d="M412 306.6c4.3 1 8.9 1.9 13.8 2.5l-8.4 22.5c-3.8.2-7.9.1-11.9-.6-.1 0-.2 0-.3-.1 3.8-12.5 6.3-22.3 6.8-24.3z" class="color52998f svgShape"></path>
            <path fill="#bac4d1" d="m434.3 229.7 2.7 1.2-1.2 3.1c-1.2.4-2 1.2-2.4 2.1-.7 1.6-.1 3.4.1 3.9l-13.6 35.1-.1.1 8.7 26.6-2.4 6.4c-5-.6-9.6-1.4-13.9-2.5 3.3-17.3.1-31.4.1-31.4l20.1-45.7c.6.5 1.3.8 1.9 1.1z" class="colorbacad1 svgShape"></path>
            <path fill="#93c5fd" d="m444 218.5-4.8 12.6-1.4-.6-3.3-1.5c-.7-.3-1.3-.6-1.9-.9 3.5-3.4 5.3-7.8 6.1-11.8l5.3 2.2zm-7.6 22.6s2.2-5.3 6.5-4.6l-5.9-2.1s-5.1-.3-3.1 5.5l2.5 1.2z" class="color9bad4e svgShape"></path>
            <path fill="#6d7d90" d="M362.5 306.1s.4.4.9 1.2l-9.6 25.9c-4.8 8.1-10 9.4-11.4 9.6 1.6-17.3 5.4-38.3 14.9-56.1.4-.7.8-1.4 1.1-2.1.5-1 1.1-1.9 1.6-3 .4 7.5 1.2 15.7 2.4 24.3l.1.2zm25.8-151c-3.9 22.8-9.9 38.7-15.2 52.8-6.7 17.7-12.4 32.9-13.2 57.1-1.1-.5-2.5-.6-4-.1-1.1.3-2.3.9-3.6 1.7-3.3 2.1-6.6 4.8-9.6 8 10.1-73.9 30.5-77 35.7-138.2 3.4 5.8 6.7 12 9.9 18.7zm-56.2 355.6c-1.9.1-8.2.4-16.9-.4-3.2-.3-6.7-.7-10.5-1.4-3.3-4.7-5.9-9.8-6.3-15.3-.8-9.7 6.1-18.3 10.7-26.2 4.6.9 9.5 1.9 14.7 3.1-1.1 1.7-9.9 15.1-9.4 18.6 0 .1.1.2.1.2.1.2 10.3 8.9 17.6 21.4z" class="color6d9077 svgShape"></path>
            <path fill="#1851ad" d="M364.5 388.3c-7.7 24.7-21.3 52.1-40.3 81.6-5.2-1.2-10.1-2.3-14.7-3.2 1 .2 7.6-11.8 8.6-13.4 2.9-4.8 5.8-9.6 8.5-14.5 5.3-9.6 10.2-19.5 14.5-29.6 2.6-6 4.9-12.1 7.2-18.2-5-3.8-8.7-8.3-11.8-13.8-6.4 1.6-14.6-.1-17.1-2.6.1 0 1 .1 2 .3 1.4.2 3 .4 3.3.4h1c.3 0 .6-.1.9-.1.4-.1.8-.1 1.2-.3.3-.1.6-.1.8-.2.3-.1.6-.2.9-.4.3-.1.6-.3.9-.4.6-.3 1.2-.7 1.8-1.1.7-.5 1.5-1.1 2.1-1.7l.6-.6c.2-.2.4-.5.7-.7.4-.5.9-1 1.2-1.5.5-.7.9-1.3 1.3-2.1 1.8-3.1 2.9-6.7 3.1-10.5.2-3.7.5-7.7.9-12 .4-.4.9-.8 1.3-1.2 1.6-.5 4.2-1.7 7-4.9.6-.2 1.1-.3 1.7-.4l-6.7 18.1-4.7 12.6-.4 1.2.1.1c0 .1 1.7 3.5 5.8 7.8l.7.7c.3.2.5.5.8.7 1.3 1.3 2.9 2.5 4.7 3.8.6.4 1.3.9 1.9 1.3.6.4 1.2.7 1.8 1.1l2.1 1.2c2.1.9 4.1 1.8 6.3 2.5z" class="color1871ad svgShape"></path>
            <path fill="#6d7d90" d="M160.1 480.8c1.8.2 3.6.3 5.3.2l-.8.7-4.5-.9zm65.6-25c-9 15.5-17 27.4-18 28.9-17.2.7-31.2-.7-42-2.8 9.2-.9 18.6-2 26.9-6.1 8.6-4.3 14.7-11.8 19.5-19.9.8-1.3 1.5-2.6 2.3-3.9 4 1.3 7.8 2.6 11.3 3.8z" class="color6d9077 svgShape"></path>
            <path fill="#1851ad" d="M238 433.4c-3.9 7.5-8 15-12 21.8-3.5-1.2-7.3-2.5-11.2-3.8 4.2-7.6 7.8-15.5 10.1-23.9 4.1 2.3 8.6 4.3 13.1 5.9z" class="color1871ad svgShape"></path>
            <path fill="#6d7d90" d="M230.7 429.6c-2.1-1-4.1-2-6.1-3.2l6.1 3.2zm7.4 3c-2.5-.9-4.9-1.8-7.3-3 2.6 1.2 5.1 2.2 7.3 3z" class="color6d9077 svgShape"></path>
            <path fill="#1851ad" d="M164.7 481.7c.3.1.7.1 1 .2-.5 0-.9.1-1.4.1l.4-.3z" class="color1871ad svgShape"></path>
            <path fill="#0d3d8c" d="M324.7 352.6c-3.7 0-6.8 3-6.8 6.8 0 3.7 3 6.8 6.8 6.8 3.7 0 6.8-3 6.8-6.8s-3-6.8-6.8-6.8zm-1 9.4c-.5.5-1.2.5-1.7 0s-.5-1.2 0-1.7 1.2-.5 1.7 0 .5 1.3 0 1.7zm0-3.7c-.5.5-1.2.5-1.7 0s-.5-1.2 0-1.7 1.2-.5 1.7 0 .5 1.2 0 1.7zm3.7 3.7c-.5.5-1.2.5-1.7 0s-.5-1.2 0-1.7 1.2-.5 1.7 0 .5 1.3 0 1.7zm0-3.7c-.5.5-1.2.5-1.7 0s-.5-1.2 0-1.7 1.2-.5 1.7 0 .5 1.2 0 1.7zm-165.2-44.2c-3.2-.4-6.1 1.8-6.8 4.9-.7 3.1 1 6.4 4.1 7.3 3.3 1 6.9-1.1 7.7-4.7.7-3.6-1.6-7-5-7.5zm-2.8 8.3c-.5.3-1.1.2-1.4-.4-.3-.5-.1-1.2.3-1.5.5-.3 1.1-.2 1.4.3.3.7.2 1.3-.3 1.6zm.7-3.3c-.5.3-1.1.2-1.4-.3-.3-.5-.1-1.1.3-1.5.5-.3 1.1-.2 1.4.3.4.5.2 1.2-.3 1.5zm2.6 4.2c-.5.3-1.2.1-1.5-.4-.3-.5-.2-1.2.3-1.5.5-.3 1.2-.2 1.5.4.4.4.2 1.1-.3 1.5zm.7-3.5c-.5.3-1.2.2-1.5-.3-.3-.5-.2-1.2.3-1.5.5-.3 1.2-.2 1.5.3.4.5.3 1.2-.3 1.5z" class="color0d418c svgShape"></path>
            <path fill="#2c75ce" d="M321.2 76.1c11 6.6 22.3 15 35.5 26.2-18.7 6.3-40.1 4.3-39.3 3.7-11-.7-24.8-5.6-41.3-11.9-13.3-5.1-30.4-11.2-43.8-14.5 42.3-13.8 77.2-6.8 88.9-3.5z" class="colorce332c svgShape"></path>
            <path fill="#2c75ce" d="M378.6 37c-.2 13.1-2.7 45.2-22 64.7-12.3-10.5-25.8-19.1-36.3-25.6 21-13.1 30.7-46.5 32.5-57.9 10 4.9 12 7.7 20.5 14.4 1.7 1.4 3.5 2.9 5.3 4.4z" class="colorce332c svgShape"></path>
            <path fill="#1851ad" d="M305.4 406.6c-.3 1.6-1.3 2-2.7 1.8-1.2-.2-2.5-.1-3.7-.4-3.5-.7-6.8-1.7-9.8-3.5-1.9-1.2-3.6-2.7-5-4.4-3.2-4.2-5.4-9.8-5.8-15.2-.4-5.8 1.1-11.6 4.4-16.4 1.6-2.3 3.7-5.1 6.1-6.7v.4c0 .3-.7 1-.9 1.2-.4.5-.7 1-1 1.5-3 4.7-5 10.2-5 15.8 0 7 3 13.3 9.4 16.2 2.6 1.2 5.2 2 7.9 3 2.5 1.2 6.7 3.1 6.1 6.7zM178.1 287.7c-.6 12.5-.1 21.1-1.7 27.7-4.9 19.6-17.3 18.4-17.3 18.4 27 2.5 24.4-38.2 24.4-38.2s29.9 11.2 63.4 13.3c0 .1-31.9-5-68.8-21.2z" class="color1871ad svgShape"></path>
            <path fill="#6d7d90" d="M152.3 307.9c-3.5 12.8-.4 19.2-.4 19.2-18.7-.9-40.6-15.1-40.6-15.1 2.2-2.9 4.5-6.1 6.7-9.3 6 3.5 12.3 6.2 18.1 5.5 8.7-1 7.9-11.6 8.4-18.1.4-5.9.8-12.9 2.5-19 3.8.6 6.8 1 6.8 1-2.9 17.1-1.5 35.8-1.5 35.8z" class="color6d9077 svgShape"></path>
            <path fill="#2c75ce" d="M103.6 292.9c-1.4-1-2.8-2.2-4.1-3.3-2.1-1.9-4.7-4-5.3-6.9-.7-3.4 1.9-6.4 2.6-9.6.8-3.5-.7-6.9-1.6-10.3-.8-3.3-1.5-6.7-1.4-10.1.2-2.9 1.2-5.4 2.9-7.6.8-1 1.7-2 2.6-2.9.9-.9 1.8-2.6 2.8-3.3 0 0-8.2 5.7-13 4.1l4.7 31.7s-.9 3.1-4.3 6.3l.2.2c-1 .5-2.1.8-3.2.8-1.3 0-2.5-.3-3.7-.9-2.8-1.5-3.3-4.3-3.8-6.9 0-.2-.1-.4-.1-.6-1 .5-2.1 1-3.4 1.5-3.5 1.5-6.5 2.2-9 2.3 1.1 2.7 3.4 4.6 5.1 5.8 1.8 1.2 3.8 2 5.7 2.8 2.6 1 5.2 2.1 7.4 4.1.2.2 10.3 11.5 26.4 21.6 2.3-3.1 4.4-6.1 6.4-9-3.5-2.1-6.7-4.4-10-6.7-1.2-1.2-2.6-2.1-3.9-3.1zm328 45.6-.4 1.9c-3.1 13.3-6.6 28.4-18.3 36.1-3.5 2.3-7.6 3.4-11.8 3.4-4.4-.5-7.9-1.4-10.8-2.5-4.2-1.6-6.9-3.7-8.6-5.7-.1-.1-.2-.2-.2-.3-.7-.9-1.3-1.9-1.7-2.7v-.1c-1-2.3-1-4-1-4 .1.2.3.4.4.7 4.6 6.6 16.8 11.1 24 9.5 7.4-1.7 9.5-10.1 9.5-10.1-9.5-.1-16-3.4-16-3.4-5.7-2.5-10.1-2.5-12.4-2.3-1.2.1-1.8.3-1.8.3l-.4-2.6c8-1.7 21.1 4.8 28.3 2.6 3.5-1 4.1-7.7 4.1-7.7-3.8-1.1-17.5-5-23.1-6.6-1.5-.4-2.4-.7-2.4-.7l-.3-2.6h.5c7.6-1.9 28.7 12.4 33.1.1 1.4-3.8 2.9-10.6 2.9-10.6l-6.3.3-1.5.1 6.2-14.4 1.8-4.3c2.2 2.2 9.6 11.2 6.2 25.6zM75 244.8l-1.2.4.9-.3c.1-.1.2-.1.3-.1zm8.6-3.7c-1.7 1-9.9 3.4-12.5 4 10.8-3 7.3-9.8 7.6-11.8.4-2.8.5-1.3.5-1.3 1.8.4 2.7.8 3.1 1.1-.8 2.1-.8 4 .2 5.8.4.8.9 1.4 1.5 2-.1 0-.3.1-.4.2z" class="colorce332c svgShape"></path>
            <path fill="#2c75ce" d="M82.1 242.7c2.4.7 3.9 2.5 4.3 4.9.4 2.9-.9 5.8-3.3 7.4-1.3.8-9.5 3.6-11.2 4.2 18.7-8.3 9.6-14.7 8.5-16.3.2 0 1.4-.1 1.7-.2zm7.2 19.3c0 .8-.1 1.8-.7 2.9-1.3 2.6-4.9 5.8-13.2 9.3-.4.1-.7.3-1.1.4h-.2c21.1-11.9 7.4-17.4 6.9-17.7.4-.2 1.9-1 2.3-1.2 2.9 1 5.8 3.4 6 6.3z" class="colorce332c svgShape"></path>
            <path fill="#1851ad" d="M361.1 265.9c-2.7-2.8-7.3-.6-9.8 1.3-2.2 1.6-4 3.5-5.7 5.6-.6.7-1.4 1.1-2 1.7-1.4 1.4-1.4 4-1.6 5.8-1.6 14.2-4.1 28.3-4.3 42.7-.1 7.5.4 15 .4 22.5 0 2.2 0 4.4-.1 6.5-.3 6.4-1.8 13.2-6.4 17.8-1.5 1.5-3.2 2.5-5 3.5-.8.5-1.8 1.3-2.8 1.3 3.5.4 6.5 0 9.4-2.2 5.3-4 7-10.5 7.8-16.8.6-4.5 1-9 1.4-13.4 1.5-14.9 3.5-30.2 9.3-44.1 2.6-6.2 5.8-12 8.3-18.2.2-.5.4-1.1.7-1.7 1.1-3.1 3.5-9.2.4-12.3z" class="color1871ad svgShape"></path>
            <path fill="#092d68" d="M93.1 269.4c.7 4 1.2 7.2-2.1 10.2-2.1 1.8-5.2 2.1-7.7.7-2.5-1.4-2.9-3.8-3.4-6.4 0-.3-.1-.6-.1-.8 8.6-4.4 10.4-8.4 10.3-11.1-.2-3.2-3.1-5.7-6-6.7 2.4-1.8 3.6-4.8 3.1-7.7-.4-2.4-1.9-4.4-4.1-5.3l1.5-.9c1.2 1 2.7 1.7 4.4 1.9.7 4.1 1.3 8.2 2 12.3l2.1 12.9v.9zm-31.9-53.6c2.8.7 5.8 1.1 8.8 1.2h.3l2.2 13.5c6.5.1 9.2 1.2 10.1 1.8.8-1.7 2.1-3.4 3.8-4.9l-2.1-12.6.4-.2c15.7-5.7 26.3-20.8 26.3-37.5 0-3.7-.5-7.2-1.5-10.6-3.3 15.2-11.2 46.2-48.3 49.3z" class="color683409 svgShape"></path>
            <path fill="#aacefd" d="M176.9 439.7c3.2 1 6.3 2 9.3 3-4.8 12.7-8.2 23.5-8.2 23.5-16.1 1.1-33.7 7.1-36.9 8.2l-1.8-.9c9.2-5.9 31.7-13.5 31.9-13.6l.2-.1 5.5-20.1z" class="colorccfdaa svgShape"></path>
            <path fill="#60a5fa" d="M272 461.9c-1.2-.1-2.3-.1-3.3-.1v-22.6c.5-.1 1.2-.3 1.6.6 0-.1.6 9.5 1.7 22.1z" class="color63b7fc svgShape"></path>
            <path fill="#aacefd" d="M276.8 500.7c-2.7-1.2-5.4-2.4-8.1-3.9v-34.3c1 0 2.2.1 3.4.1 1.1 12.1 2.7 26.7 4.7 38.1z" class="colorccfdaa svgShape"></path>
            <path fill="#60a5fa" d="M205.7 336c-8.3-4.7-9.3-.7-9.3-.7-.7 2.6-1.9 4.7-2.1 7.5-.3 3.1-.1 6.3.3 9.4.7 5.9 2.2 11.8 4 17.4.8-10.6-5.3-24.1 1.9-28.8l.1-.1.1-.1c4-2.7 10.4.2 14.7.9 2.5.4 5 .6 7.5.8 2 .1 4.6-.3 6.5.3-.4-.1-.9-.3-1.3-.4" class="color63b7fc svgShape"></path>
            <path fill="#76b3ff" d="M59.8 261.3c-4.8.1-6.6-2.2-7.2-4.5-1.2-4.3 1.3-10.2 3.4-11 .5.1 1 .1 1.6.2-1.1 2.7-5 12.5 2.2 15.3zm9.9 14.8c-3 .7-5.4.5-7.3-.5-.3-.2-.7-.4-1-.6-4.2-3.4-3-11.5-2.8-12.9.3 0 .5.1.8.1.7 0 1.5-.1 2.4-.2 0-.2-3.8 14.9 7.9 14.1zm-17.3-39.8c1.3-4.8 6.8-9.9 18.7-9.5 0 0-24.3 3.4-13.3 18.4-.7 0-1.3-.1-1.8-.2-3.1-1.6-4.6-5.2-3.6-8.7zm57.7-11.1c-.7-2.4-1.9-4.4-4.2-5.5-4.9-2.4-11.7 2.8-16.1 6.2-.6.4-1.1.8-1.6 1.2-4.3 3.2-7.9 9.2-3.1 13.7-1-2-1.6-4-.8-6.2.9-2.2 2.7-3.7 4.5-5.2 4.1-3.2 9.8-7.8 15.4-7 1.5.2 3 1.1 4.1 2.3 1.1 1.2 1.8 2.7 2.4 4.2-.4-1.1-.3-2.6-.6-3.7z" class="colorff7976 svgShape"></path>
            <path fill="#60a5fa" d="M320.2 373.6s-.6 0-1.5-.1c-5.8-2.4-10.5-9-10.5-22.6.7-11.2 3.3-22.5 7.7-33.8l.6-1.5c2.2-5.5 5-11 8.3-16.3-6.2 14.4-22.8 58.2-4.6 74.3zm-164.4-37.2c-.1.1-.2.2-.3.4 5 25.1 15.9 45.8 32.5 61.5l.2.1v.2l-2.5 9-8.6 31.4c3.2 1 6.3 2 9.3 3 5-13.1 9.9-30.1 15-40.8-38.7-28.5-45.6-64.8-45.6-64.8z" class="color63b7fc svgShape"></path>
            <path fill="#aacefd" d="M215.8 94s-43 93.8-50.7 146c-1.5-1.3-3.2-2.1-5-2.2 8.3-37.1 23-78.5 43.8-123 1.2-2.6 2.5-5.2 3.8-7.6 1.9-3.5 3.7-6.6 5.5-9.4.3.3 2.4-4.2 2.6-3.8z" class="colorccfdaa svgShape"></path>
            <path fill="#76b3ff" d="M239.6 55.3s5.2-2.4 14.3-2.4c-10.3 3.5-48.5 14.9-60.7 25.9-1.6.7-3.1 1.5-4.6 2.5-3.7 2.5-5.9 5-6.6 7.5 0-.9.2-2.1.7-3.4 3-7.2 15.3-18.1 56.9-30.1z" class="colorff7976 svgShape"></path>
            <path fill="#76b3ff" d="M320.3 5.4c-35.7-5.4-51 4-72.1 47.7-4 .3-6.7 1-7.9 1.3l1.1-2.3C251.3 31 264.7 2 289.8 1.2c9.8-.2 20.5 1.3 30.5 4.2zm41.2 12.2c-1.5 1-2.9 2.2-3.4 3.7-1.8-1-3.5-2.1-5.3-3.1 1.7-1.7 4.6-1.9 8.7-.6zm52.3 314.9c-14.6 1.7-20.7-5.2-25.6 9.2 0 0-1.2-15.5 16.6-10.4-.1-.1 4.7 1.3 9 1.2zM381.5 356c-.2-1.1.7-3.2 1.1-4.2.5-1.3 1.3-2.5 2.4-3.3 3-2.2 7.2-1.4 10.5-.8 4 .6 7.9 2.1 12 2.2-3.8-1.3-7.6-2.7-11.4-3.9-3.7-1.1-7.6-1.8-11.1.3-1.5.9-2.9 2.2-3.6 3.8-.8 1.9-.3 4 .1 5.9zm17 5.9c-2.8-1.2-5.6-2.1-8.5-2.7-2.5-.5-5.6-1.2-7.9.1-2.2 1.1-3 3.6-3.2 5.9.7.1 1.2-.8 1.6-1.2 3.8-4.2 9.6-3.1 14.4-2 1 .2 2 .5 3.1.6.8.1 1.5 0 2.2.2-.5-.4-1.1-.7-1.7-.9z" class="colorff7976 svgShape"></path>
            <path fill="#60a5fa" d="M157 254c.9 2.6 1.7 5.3 2.2 8.1.7 3.8.9 7.6.9 11.4 0 4.7-.5 9.4-1.5 13.9-.8 3.8-2.1 7.8-3.3 11.6-.7 2.1-1.3 4.2-2 6.3.5-1.5 2.3-3.2 3.1-4.5 1-1.8 2-3.6 2.7-5.5 1.7-4.1 2.7-8.3 3.3-12.7 1.3-9.4.6-19.5-2.6-28.4-2-5.4-5.1-14.6 3.9-14.5-2.7-.8-5.7-2.2-7.7.7-2.5 3.8-.2 9.7 1 13.6z" class="color63b7fc svgShape"></path>
            <path d="M152 309h-.7c-.4-11.1.1-23 1.6-35.5.7-6.6 1.7-13.4 3-20.2.1-.4.5-.7.9-.6.4.1.7.5.6.9-1.2 6.8-2.2 13.6-3 20.1-1.4 12.4-1.9 24.3-1.6 35.3h-.8zm46.7 177c-40.1 0-60.4-11.7-60.6-11.8l-1-.6 1-.7c8.5-5.6 29.2-12.9 32.3-13.9l16.6-60.3c-17.7-16.9-29-39.5-33.5-67.1-.1-.4.2-.8.6-.9.4-.1.8.2.9.6 4.5 27.4 15.7 49.8 33.4 66.5l.3.3-.1.4-16.9 61.5-.4.1c-.2.1-21.8 7.4-31.3 13.2 5.1 2.5 27.7 12.5 67.5 10.8 2-3 17.8-26.9 30.4-51.5.2-.4.6-.5 1-.3s.5.6.3 1c-13.4 26.3-30.5 51.8-30.7 52l-.2.3h-.4c-3.1.4-6.2.4-9.2.4zm-39.1-247c-.4 0-.7-.3-.7-.7V238c8.3-37.3 23.1-78.9 44-123.7 1.2-2.6 2.5-5.2 3.8-7.6 10.9-20.3 21.2-28.2 21.6-28.5.3-.2.8-.2 1 .1.2.3.2.8-.1 1-.1.1-10.5 8-21.2 28-1.3 2.4-2.6 5-3.8 7.6-20.8 44.6-35.6 86.1-43.9 123.3v.1c0 .4-.3.7-.7.7zm156.5 77.2c-70.7-.2-117.3-17.9-138.7-28.4-.4-.2-.5-.6-.3-1s.6-.5 1-.3c21.3 10.5 67.7 28 138.1 28.3.4 0 .7.3.7.8 0 .2-.4.6-.8.6z" fill="#000000" class="color000 svgShape"></path>
            <path d="M153.7 272.7h-.1c-6.5-.9-12.3-2-17.6-3.3-23.3-5.6-24-12.7-23.9-14.1-1.2-5.5-1.8-12.6-1.7-21.9.1-5.4-.2-11.3-4.7-13.5-4.7-2.3-11.3 2.8-15.7 6.2-.6.4-1.1.8-1.6 1.2-.3.2-.7.5-1 .8-1.8 1.6-3.2 3.3-3.9 5-.8 1.9-.8 3.6.1 5.1.4.8 1 1.5 1.6 2.1 1.1 1.1 2.6 1.7 4.3 1.9 4.4.5 9.4-1.8 12.2-4.2.3-.3.8-.2 1.1.1.3.3.2.8-.1 1.1-3.1 2.7-8.5 5.1-13.3 4.5-2-.2-3.8-1-5.1-2.3-.7-.7-1.4-1.5-1.9-2.5-1.1-1.9-1.1-4.1-.1-6.4.8-1.9 2.3-3.9 4.3-5.5.4-.3.8-.6 1.1-.9.5-.3 1-.7 1.6-1.2 4.7-3.6 11.8-9 17.3-6.3 5.7 2.8 5.6 10.4 5.5 14.9-.1 9.2.4 16.3 1.6 21.6v.2c0 .1-.3 7 22.8 12.6 5.3 1.3 11 2.3 17.5 3.2.4.1.7.4.6.8-.2.6-.6.8-.9.8z" fill="#000000" class="color000 svgShape"></path>
            <path d="M61.3 246.5c-2.3 0-4.3-.1-5.6-.3l-.2-.1c-3.6-1.9-5.3-6-4.2-10.1 1.4-5.2 7.3-10.7 19.8-10.3.4 0 .7.4.7.8s-.3.7-.8.7c-11.6-.4-17.1 4.5-18.3 9.2-.9 3.4.4 6.7 3.3 8.3 6.4.9 22-.1 28-4.4.3-.2.8-.2 1 .2.2.3.2.8-.2 1-5 3.7-16 5-23.5 5zm15.5 12.3c-.4 0-.7-.3-.7-.7 0-.4.3-.7.7-.7s.7.3.7.7c0 .3-.3.7-.7.7zm9.8 23.4c-1.3 0-2.7-.3-3.9-1-3-1.6-3.5-4.4-4-7.2-.1-.4-.1-.7-.2-1.1-.1-.4.2-.8.6-.9.4-.1.8.2.9.6.1.4.1.7.2 1.1.5 2.6.9 4.8 3.2 6.1 2.3 1.3 5.4 1 7.3-.7 3.2-2.8 2.7-5.7 2-9.8l-.1-.9c-.7-4.3-1.4-8.6-2.1-13-.7-4.2-1.3-8.3-2-12.5-.1-.4.2-.8.6-.9.4-.1.8.2.9.6.7 4.2 1.3 8.3 2 12.5.7 4.3 1.4 8.6 2.1 13l.1.9c.7 4.2 1.3 7.8-2.5 11.2-1.4 1.4-3.2 2-5.1 2z" fill="#000000" class="color000 svgShape"></path>
            <path d="M72.2 231.7c-.4 0-.7-.3-.7-.6l-.5-2.7-1.6-10.2c-22-.9-39.2-18.8-39.2-40.9 0-22.6 18.4-41 41-41s41 18.4 41 41c0 17-10.6 32.4-26.5 38.3l2 11.9c.1.4-.2.8-.6.9-.4.1-.8-.2-.9-.6L84 214.7l.7-.3c15.6-5.7 26-20.6 26-37.1 0-21.8-17.7-39.5-39.5-39.5s-39.5 17.7-39.5 39.5c0 21.6 16.9 38.9 38.4 39.4h.6l2.3 14.1c.1.4-.2.8-.6.9h-.2z" fill="#000000" class="color000 svgShape"></path>
            <path d="M71.1 204.3c-14.9 0-27.1-12.1-27.1-27.1 0-14.9 12.1-27.1 27.1-27.1s27.1 12.1 27.1 27.1c-.1 14.9-12.2 27.1-27.1 27.1zm0-52.6c-14.1 0-25.6 11.5-25.6 25.6 0 14.1 11.5 25.6 25.6 25.6s25.6-11.5 25.6-25.6c0-14.2-11.5-25.6-25.6-25.6zM325 375.8c-.8 0-1.6-.1-2.4-.2-5.3-1-9.3-3.8-11.9-8.3-8.8-15.7 2.7-47.1 4.1-50.7.2-.5.4-1 .6-1.6 5.5-13.5 14.2-26.8 25.7-39.4 3.4-3.8 7.1-6.9 11-9.4 1.2-.8 2.5-1.4 3.6-1.7 1.9-.6 3.5-.4 4.8.4 2.8 1.8 3.5 6.2 2.6 9.7-.4 1.9-1.2 3.8-2.2 5.9-.7 1.4-1.5 2.8-2.2 4.2-.4.7-.8 1.4-1.1 2.1-12 22.5-14.8 50.1-15.8 68.9-.4 8.3-6.7 20.1-16.8 20.1zm32.9-110.1c-.5 0-1.1.1-1.7.3-1 .3-2.1.9-3.3 1.6-3.7 2.4-7.3 5.5-10.7 9.2-11.4 12.5-20 25.6-25.4 39l-.6 1.5c-1.3 3.5-12.7 34.3-4.2 49.4 2.3 4.1 6 6.6 10.8 7.5.7.1 1.4.2 2.1.2 9.3 0 15-11 15.4-18.6 1-19 3.8-46.8 16-69.6.4-.7.8-1.4 1.1-2.1.7-1.3 1.5-2.7 2.2-4.1 1-2 1.7-3.9 2.1-5.6.7-2.9.1-6.8-2-8.1-.4-.5-1.1-.6-1.8-.6zm-198 68.5h-.8c-3.1-.2-6.6-2.9-7.6-5.8-3.5-10-.3-20 2.8-29.6 1.3-4 2.5-7.7 3.3-11.5 1.6-7.9 1.8-17.3.5-25.9-.4-2.3-1.2-4.7-2-7l-.3-.7c-1.2-3.3-2.2-6.6-1.9-10 .2-2.9 2.3-6 5.6-6.2h.4c12.5.1 16.8 32.3 17.3 36 .6 5 1 9.5 1.2 13.7.3 5 .3 9.5 0 14v.7c-.4 7-.9 14.3-3.6 21-2.3 5.3-8 11.3-14.9 11.3zm0-95.3h-.1c-2.6.2-4.1 2.6-4.3 4.8-.3 3.2.7 6.3 1.8 9.4l.3.7c.8 2.3 1.7 4.8 2.1 7.3 1.3 8.7 1.1 18.3-.5 26.4-.8 3.9-2.1 7.8-3.3 11.7-3.1 9.4-6.2 19.1-2.8 28.7.9 2.4 3.8 4.7 6.3 4.8 6.5.4 12-5.3 14.2-10.6 2.7-6.4 3.1-13.6 3.5-20.5v-.7c.3-4.4.3-8.9 0-13.8-.2-4.2-.6-8.6-1.2-13.6-1.7-12.8-6.8-34.5-16-34.6zM59.4 262.4c-5.5 0-7.3-3.2-7.9-5.3-1.3-4.8 1.3-11.4 4.2-12.4.4-.1.8.1.9.5.1.4-.1.8-.5.9-1.8.6-4.4 6.2-3.2 10.6 1.1 3.8 4.7 5 10.5 3.7l2.5-.6c11-2.5 13.9-3.1 17-5.1 2.3-1.5 3.6-4.3 3.2-7-.4-2.3-1.9-4-4.1-4.7-.4-.1-.6-.5-.5-.9.1-.4.5-.6.9-.5 2.8.8 4.8 3 5.2 5.9.5 3.3-1 6.7-3.8 8.5-3.3 2.1-6.3 2.8-17.4 5.3l-2.5.6c-1.8.3-3.3.5-4.5.5z" fill="#000000" class="color000 svgShape"></path>
            <path d="M66.5 277.6c-2.3 0-4.2-.6-5.7-1.8-5.1-4.2-3.2-13.9-3.1-14.3.1-.4.5-.7.9-.6.4.1.7.5.6.9 0 .1-1.8 9.2 2.6 12.8 2.7 2.2 7.3 2 13.6-.7 9-3.8 13.9-8.1 13.7-11.9-.2-3.1-3.6-5.3-5.9-6-.4-.1-.6-.5-.5-.9.1-.4.5-.6.9-.5 3.2 1 6.8 3.7 7 7.3.2 3.2-2.2 8.1-14.6 13.4-3.8 1.5-6.9 2.3-9.5 2.3z" fill="#000000" class="color000 svgShape"></path>
            <path d="M151.1 327.9c-.1 0-.1 0 0 0-38.2-5-66.8-36.8-67.1-37.2-2-1.9-4.4-2.8-7-3.8-2-.8-4.1-1.6-5.9-2.9-2-1.4-4.5-3.6-5.7-6.8-.1-.4.1-.8.4-1 .4-.1.8.1 1 .4 1 2.8 3.4 4.9 5.1 6.1 1.7 1.2 3.6 1.9 5.6 2.7 2.6 1 5.3 2.1 7.5 4.2.3.4 28.5 31.8 66.1 36.7.4.1.7.4.6.8.1.5-.3.8-.6.8zm-68.4-94.3c-.2 0-.4-.1-.5-.2-.1-.1-3.5-2.7-17.7-1.4-.4 0-.8-.3-.8-.7 0-.4.3-.8.7-.8 15-1.3 18.5 1.5 18.9 1.8.3.3.3.8 0 1.1-.2.2-.4.2-.6.2zM327 512c-10.9 0-35.2-1.6-59-14.3-.2-.1-.4-.4-.4-.7v-57.2c-4.3-.3-27.3-2.6-43.6-12.6-.4-.2-.5-.7-.2-1 .2-.4.7-.5 1-.2 17.6 10.8 43.3 12.4 43.6 12.4.4 0 .7.4.7.7v57.5c27.9 14.7 56.3 14.1 62.4 13.8-7.3-12.2-17.1-20.7-17.2-20.7-.1-.1-.2-.3-.3-.5-.5-3.7 8.6-17.4 9.6-19 19.2-29.8 32.9-57.5 40.6-82.3.1-.4.5-.6.9-.5.4.1.6.5.5.9-7.8 25-21.5 52.8-40.8 82.7-3.7 5.5-9.3 15-9.4 17.7 1.6 1.4 11.1 10.1 17.9 22 .1.2.1.5 0 .7-.1.2-.3.4-.6.4 0 0-2.1.2-5.7.2zm36.3-202.4c-.3 0-.5-.1-.7-.4-.9-1.3-2.8-22.6-3.1-28.9 0-.4.3-.8.7-.8.4 0 .8.3.8.7.4 8.1 2.3 26.9 2.9 28.2.2.3.1.8-.2 1-.1.1-.2.2-.4.2zM226.2 456.3h-.2c-13.5-4.6-30.1-10.1-49.6-16.3-.4-.1-.6-.5-.5-.9.1-.4.5-.6.9-.5 19.5 6.2 36.2 11.7 49.6 16.3.4.1.6.6.5 1-.1.2-.3.4-.7.4z" fill="#000000" class="color000 svgShape"></path>
            <path d="M324.4 471.1h-.2c-27.1-6.5-46.7-7.9-56-8.2-.4 0-.7-.4-.7-.8s.3-.7.8-.7c9.3.3 29 1.7 56.3 8.2.4.1.7.5.6.9-.1.4-.4.6-.8.6zm-117-363.3h-.2c-1-.3-23.5-6.3-25.5-15.8l-.1-.1v-.4c-.5-3.6 1.8-7.1 6.9-10.5 20.3-13.4 54.9-.2 85.4 11.4 16.5 6.3 32 12.2 42.9 12.9.3 0 20.9 2.8 39.6-3.8.4-.1.8.1 1 .5.1.4-.1.8-.5 1-19.1 6.7-40.1 3.9-40.3 3.9-11.1-.7-26.7-6.7-43.3-13-30.2-11.5-64.4-24.6-84-11.6-4.6 3-6.7 6-6.3 8.9v.2c1.7 8.7 24.2 14.8 24.5 14.8.4.1.6.5.5.9 0 .5-.3.7-.6.7zm-96.1 205c-.2 0-.3 0-.4-.1-.3-.2-.4-.7-.2-1 14-18.9 21.5-35.1 24.8-43.1.2-.4.6-.6 1-.4.4.2.6.6.4 1-3.3 8.1-10.8 24.5-24.9 43.5-.2 0-.5.1-.7.1zm193.5 95.6c-1.4.1-2.7 0-4.1-.1-1.4-.1-2.7-.3-4.1-.6-1.3-.3-2.7-.7-4-1.2-.6-.3-1.3-.5-1.9-.8l-.9-.5-.9-.5c-1.2-.7-2.3-1.6-3.3-2.6-.6-.5-.9-1-1.4-1.5-.5-.5-.9-1.1-1.3-1.6-.4-.6-.8-1.1-1.1-1.8-.3-.6-.7-1.2-1-1.8l-.9-1.9-.7-2c-.3-.6-.4-1.3-.5-2l-.2-1c-.1-.3-.1-.7-.2-1l-.3-2.1-.1-2.1c0-.7.1-1.4.1-2.1l.1-1 .2-1c.1-.7.2-1.4.4-2.1l.6-2c.2-.7.5-1.3.7-2 .3-.6.5-1.3.9-1.9l1-1.8c.3-.6.8-1.2 1.2-1.7.8-1.2 1.7-2.2 2.7-3.2.4-.6 1-1 1.5-1.5l1.6-1.4c.2-.3.5-.7.5-1 .1-.3 0-.7-.2-1-.4-.6-1.3-1-2.2-1.3-.9-.3-1.8-.5-2.8-.7l-3-.6c-2-.4-3.9-.8-5.9-1.3l-5.9-1.3c-2-.4-3.9-.9-5.9-1.4l-5.9-1.4-11.7-3c-2-.5-3.9-1.1-5.8-1.6l-5.8-1.6c-1.9-.6-3.9-1.1-5.8-1.7l-5.8-1.8-5.8-1.8c-1.9-.6-3.8-1.2-5.7-1.9l-11.4-3.9h.1c-1.2-.3-2.2.4-2.9 1.6-.7 1.1-1.2 2.5-1.5 3.9-.6 2.8-.8 5.7-.8 8.6.1 5.8 1.1 11.5 2.8 17.1 1.7 5.5 4.2 10.9 7.8 15.4 1.8 2.3 4 4.3 6.4 5.8 2.4 1.6 5.2 2.7 8 3.3-2.9-.5-5.7-1.5-8.2-3-2.5-1.5-4.7-3.5-6.6-5.8-1.9-2.2-3.5-4.7-4.9-7.3-1.4-2.6-2.5-5.3-3.4-8.1-1.8-5.6-2.9-11.4-3-17.3-.1-2.9 0-5.9.7-8.8.3-1.5.8-2.9 1.6-4.3.4-.7 1-1.3 1.7-1.8.8-.5 1.7-.6 2.6-.4l11.4 3.9c1.9.6 3.8 1.3 5.7 1.9l5.8 1.8 5.8 1.8c1.9.6 3.9 1.1 5.8 1.6l5.8 1.6c1.9.5 3.9 1.1 5.8 1.6l11.6 3 5.8 1.4c1.9.5 3.9 1 5.8 1.4l5.9 1.3c2 .5 3.9.9 5.9 1.3l2.9.6c1 .2 2 .4 3 .7 1 .4 2.1.8 2.8 1.9.4.5.5 1.3.3 1.9-.2.6-.4 1.1-.9 1.6l-1.5 1.3c-.5.5-1 .9-1.5 1.4-.9 1-1.9 2-2.6 3.1-.4.6-.8 1.1-1.2 1.7l-1 1.8c-.4.6-.6 1.2-.8 1.8-.2.6-.6 1.2-.7 1.9l-.6 1.9c-.2.6-.3 1.3-.4 2l-.2 1-.1 1c0 .7-.1 1.3-.1 2l.1 2c0 .7.2 1.3.2 2 0 .3.1.7.1 1l.2 1c.2.7.3 1.3.5 2l.6 1.9.8 1.9.9 1.8c.3.6.7 1.2 1.1 1.7.4.6.7 1.1 1.2 1.6s.9 1.1 1.3 1.5c.9 1 2 1.8 3.1 2.6l.9.6.9.5 1.8.9c1.3.5 2.6 1 3.9 1.3 3 .4 5.8.8 8.5.7zm135.1-175.7-2.5-1.1c-6.7-3-13-5.9-18.1-7.6l-.8-.3 6.9-14.2 20.1 8.6-5.6 14.6zm-19.4-10c5 1.8 11.1 4.5 17.5 7.4l1.1.5 4.5-11.9-17.5-7.4-5.6 11.4zm-2.6 109.6h-.3c-.4-.1-.6-.6-.4-1l10.9-29.3-8.6-26.6.1-.2 13.6-35.2c.1-.4.6-.6 1-.4.4.1.6.6.4 1l-13.5 35 8.6 26.6-11 29.8c-.2.1-.5.3-.8.3z" fill="#000000" class="color000 svgShape"></path>
            <path d="M385.8 392.1c-7.7 0-14.7-1.1-21.1-3.3-18.1-6.2-24.2-19-24.5-19.6l-.1-.3 5.2-13.9 27.6-74.1 26.3-14.1 21.8-44 .6.2c4.2 1.4 7 2.7 11.3 4.7 1.5.7 3.1 1.4 5 2.3l.6.3-1.6 4.3c-.1.4-.6.6-1 .4-.4-.1-.6-.6-.4-1l1.1-2.9c-1.6-.7-3.1-1.4-4.4-2-4-1.9-6.7-3.1-10.6-4.4l-21.4 43.2-.2.1-26 14-32.3 86.9c1 1.9 7.4 13 23.5 18.5 8.8 3 18.9 3.9 30.2 2.7l3-9.6c.1-.4.5-.6.9-.5.4.1.6.5.5.9l-3.3 10.6-.5.1c-3.5.3-6.9.5-10.2.5z" fill="#000000" class="color000 svgShape"></path>
            <path d="M426.4 309.5c-29.5-3.3-47.1-16.1-54.9-23.4-.3-.3-.3-.8 0-1.1.3-.3.8-.3 1.1 0 7.8 7.2 25.1 19.8 54 23 .4 0 .7.3.7.7-.1.5-.5.8-.9.8zm-39.8 67.1h-.1c-27.5-4.1-39.8-19.1-41.1-20.8-.3-.3-.2-.8.1-1.1.3-.3.8-.2 1.1.1 1.3 1.6 13.2 16.2 40.1 20.2.4.1.7.4.6.9 0 .4-.3.7-.7.7zm90.5-119.2h-.3l-43.2-16.5c-.2-.1-.3-.2-.4-.4 0-.1-1-2.3-.1-4.3.5-1.1 1.4-1.9 2.8-2.4.1 0 .3-.1.4 0l44.4 11.3c.2.1.4.2.5.4 0 .1 2.8 6.7-3.6 11.9h-.5zm-42.6-17.8 42.5 16.3c4.4-3.8 3.4-8.3 3-9.5l-43.8-11.1c-.9.3-1.4.8-1.7 1.5-.5 1-.2 2.2 0 2.8z" fill="#000000" class="color000 svgShape"></path>
            <path d="M440.2 278.6c-1 0-2.1-.8-2.7-2.2-5.2-14.5.3-27.3 4-33.6.2-.4.7-.5 1-.3.4.2.5.7.3 1-3.6 6.1-8.9 18.4-4 32.2.4.9 1.1 1.3 1.5 1.2.4-.1 1.1-1.1.9-4.3-.7-8.5 2.5-19.6 13.2-25.4.4-.2.8-.1 1 .3.2.4.1.8-.3 1-10.1 5.5-13.1 16-12.5 24 .4 4.5-1.1 5.6-2 5.8-.1.3-.3.3-.4.3zm36.3-21.4c-.4 0-.7-.3-.7-.6-.6-4 0-7.1 1.5-9.1 1.4-1.8 3.3-2 3.3-2 .4 0 .8.3.8.7 0 .4-.3.8-.7.8-.1 0-1.3.2-2.3 1.5-1.3 1.6-1.7 4.4-1.2 7.9.1.4-.2.8-.6.8h-.1zm-50.8 54.3.3.3c.2.2.5.5.9 1 .8.9 1.8 2.2 2.9 4 1.1 1.8 2.2 4.2 2.9 7.1.7 2.9 1.1 6.3.8 9.9-.1.9-.1 1.8-.4 2.8-.2.9-.3 1.9-.6 2.8-.4 1.9-.9 3.8-1.4 5.8-1 4-2.1 8.2-3.6 12.4-1.6 4.2-3.6 8.5-6.4 12.4-.7.9-1.5 1.9-2.3 2.8-.4.4-.8.9-1.3 1.3l-1.4 1.2c-.4.4-1 .8-1.4 1.1-.5.4-1 .7-1.5 1.1l-1.5.9-1.7.8c-4.6 1.9-9.7 2.1-14.4 1-4.7-1.1-9-3.2-12.6-6-1.8-1.4-3.4-3.2-4.3-5.4-.4-1.1-.6-2.2-.6-3.4 0-.3 0-.5.1-.9l.1-.8c.1-.6.3-1.1.5-1.6.5-1 1.2-2 2.1-2.6.9-.6 2-1 3-1.2 2-.4 4-.2 5.8.1 1.8.3 3.5.8 5 1.4.8.3 1.6.6 2.2.9.7.3 1.4.6 2.1.8.7.3 1.3.6 2 .7.6.2 1.3.3 1.9.5.6.2 1.2.3 1.7.5.6.1 1.1.2 1.6.3 1 .2 1.9.4 2.7.5.8.1 1.5.1 2 .2 1.1.1 1.7.1 1.7.1.1 0 .2.1.2.3 0 .1-.1.2-.3.2h-1.7c-.6 0-1.3 0-2.1-.1-.8 0-1.7-.2-2.8-.3-.5-.1-1.1-.1-1.6-.2-.6-.1-1.2-.3-1.8-.4-.6-.2-1.3-.3-1.9-.5-.7-.2-1.3-.5-2-.7-.7-.2-1.4-.5-2.1-.8-.8-.3-1.4-.6-2.2-.8-1.5-.5-3.1-1-4.9-1.3-1.7-.3-3.5-.4-5.3 0-.9.2-1.7.5-2.4 1s-1.3 1.2-1.7 2c-.2.4-.3.9-.4 1.3 0 .2-.1.5-.1.8v.7c0 1 .1 1.9.5 2.8.7 1.8 2.2 3.5 3.8 4.8 3.4 2.6 7.6 4.7 12.1 5.7 4.4 1 9.3.8 13.5-1l1.5-.7 1.5-.9c.4-.3.9-.7 1.4-1 .5-.3.9-.7 1.4-1.1l1.3-1.2 1.2-1.2c.8-.8 1.5-1.7 2.2-2.6 2.7-3.7 4.7-7.9 6.2-12s2.6-8.3 3.5-12.3c.5-2 .9-3.9 1.4-5.8.2-.9.4-1.8.5-2.7.2-.9.3-1.8.3-2.6.3-3.5 0-6.7-.7-9.4s-1.7-5-2.7-6.7c-1-1.8-2-3-2.7-3.8-.3-.4-.6-.7-.8-.9l-.3-.3c-.3-.3-.3-.8 0-1.1.3-.3.8-.3 1.1 0z" fill="#000000" class="color000 svgShape"></path>
            <path d="M381.8 359.6s-.1-.2-.2-.5-.3-.8-.5-1.4c-.4-1.2-.9-3.1-.8-5.4 0-1.1.2-2.4.7-3.7.1-.3.3-.6.5-.9.2-.3.4-.6.7-.9l.4-.4.1-.1.1-.1.2-.2c.3-.2.5-.4.8-.6 1.3-.8 2.8-1.2 4.3-1.3 1.5-.1 3 .1 4.4.4 1.4.3 2.8.8 4.2 1.2 1.4.5 2.6.9 3.9 1.4 1.3.4 2.5.8 3.7 1.2 1.2.4 2.3.8 3.3 1.1 4.1 1.2 6.9 2 6.9 2 .1 0 .2.2.2.3 0 .1-.2.2-.3.2 0 0-2.8-.7-7-1.7-1.1-.2-2.2-.6-3.4-1-1.2-.4-2.4-.7-3.7-1.1-1.3-.4-2.6-.8-4-1.2-1.3-.4-2.7-.8-4.1-1.1-1.4-.3-2.8-.4-4.1-.3-1.3.1-2.6.5-3.5 1.2-.2.1-.5.4-.8.6l-.2.2s-.1.1-.1 0l-.1.1-.3.3c-.2.2-.3.5-.5.7-.1.3-.3.5-.4.7-.4 1-.6 2.1-.6 3.1s.1 2 .2 2.8c.2.8.3 1.5.5 2.1.2.6.3 1 .4 1.3.1.3.2.5.2.5.1.4-.1.8-.5 1 0 .1-.5-.1-.6-.5z" fill="#000000" class="color000 svgShape"></path>
            <path d="M387.8 344.4s-.1-.7-.2-2.1c-.1-.7-.1-1.5-.1-2.4 0-.9.1-2 .3-3.2.2-1.2.8-2.4 1.6-3.5.8-1.2 1.9-2.2 3.3-2.8 1.4-.7 2.9-.9 4.5-.9 1.5 0 3 .2 4.5.5s2.9.6 4.4.9c.7.1 1.4.3 2.1.4.7.1 1.4.2 2.1.2 1.4.1 2.7.2 4 .2h3.6c2.2-.1 4.1-.2 5.4-.3 1.3-.1 2-.2 2-.2.1 0 .2.1.2.2s-.1.2-.2.2c0 0-.7.1-2 .3-.6.1-1.4.2-2.3.3-.9.1-1.9.2-3.1.3-1.1 0-2.3.1-3.6.1-1.3 0-2.7 0-4.1-.1-.7-.1-1.4-.1-2.2-.2-.7-.1-1.4-.2-2.2-.3-1.5-.2-2.9-.6-4.4-.8-1.5-.2-2.9-.4-4.3-.4s-2.8.3-3.9.8-2.1 1.4-2.7 2.4c-.7 1-1.1 2-1.3 3.1-.4 2-.3 3.9-.2 5.1.1 1.3.2 2 .2 2 .1.4-.2.8-.6.9-.3 0-.7-.2-.8-.7zm-27.6-78.1c-.4 0-.8-.4-.7-.8.7-24.6 6.5-40 13.2-57.8 5.3-14 11.2-29.9 15.2-52.6-9.2-19.3-19.2-33.9-29.7-49.4l-2-3c-38.2-32.5-67.8-43.6-85.9-47.2-19.6-3.9-30.3 0-30.4.1-43.8 12.6-54.2 24.1-56.6 29.8-1.3 3.1-.5 5.1-.2 5.6l.1.1v.3c0 .4-.3.7-.7.7-.3 0-.5-.1-.6-.3 0 0 0-.1-.1-.1-.3-.5-1.5-3 .1-7 3-7.3 15.4-18.6 57.5-30.7.4-.1 11.1-4 31-.1 18.3 3.6 48.3 14.7 86.8 47.6l.1.2 2.1 3.1c10.6 15.6 20.7 30.3 29.9 49.8l.1.2v.2c-4 23-10 39-15.3 53.1-6.7 17.7-12.4 33-13.2 57.3 0 .6-.3.9-.7.9z" fill="#000000" class="color000 svgShape"></path>
            <path d="M388.7 155.8c-.2 0-.3 0-.4-.1-.3-.2-.4-.7-.2-1 16.4-22.6 23.1-51.9 17.3-76.5-5.1-21.5-19.9-35.4-32.3-45.2-14.3-11.3-30.9-20.1-49.5-26.3-10.8-3.6-22.9-5.4-33.8-5.1-24.8.8-38.2 29.6-48 50.6l-1.4 3.1c-.2.4-.6.5-1 .4-.4-.2-.5-.6-.4-1l1.4-3.1C250.4 30.2 264 .9 289.7.1 300.8-.3 313 1.5 324 5.2c18.7 6.2 35.6 15.2 50 26.5 12.6 9.9 27.7 24.1 32.9 46 6 25.3-.6 54.4-17.5 77.7-.3.3-.5.4-.7.4z" fill="#000000" class="color000 svgShape"></path>
            <path d="M356.7 103c-.2 0-.4-.1-.5-.2-.3-.3-.3-.8 0-1.1 19.5-19.4 22-51.8 22.1-64.9 0-.4.4-.7.8-.7s.7.3.7.8c-.1 13.2-2.6 46.1-22.5 65.9-.2.1-.4.2-.6.2zm17.4-69.5c-.1 0-.3 0-.4-.1-.4-.2-.5-.7-.3-1 1-1.6 1.2-3.3.6-5-1.2-3.4-5.3-6.7-11.4-9-4.7-1.8-8.1-1.6-9.8.4-.3.3-.7.4-1.1.1-.3-.3-.4-.7-.1-1.1 2.2-2.6 6-2.8 11.5-.8 6.6 2.5 11 6 12.3 9.9.7 2.1.5 4.3-.7 6.3-.1.2-.4.3-.6.3zM216.8 240.9c-.2 0-.5-.1-.6-.3-.2-.3-.2-.8.1-1 19.5-14.7 9.2-34.8 8.8-35.7-.2-.4-.1-.8.3-1 .4-.2.8-.1 1 .3.1.2 11.3 22.1-9.2 37.6-.1 0-.3.1-.4.1z" fill="#000000" class="color000 svgShape"></path>
            <path d="M264 260c-9.9 0-19.9-2.8-28.5-8.5-6.8-4.4-12.9-7.8-18.2-10-10-4.1-13.7-2.7-13.7-2.7-.4.1-.8 0-1-.4-.2-.4 0-.8.4-1 .2-.1 4.2-1.7 14.9 2.7 5.3 2.2 11.5 5.6 18.4 10.1 15.3 10 35.2 11 50.7 2.4l.4-.2c10.5-5.9 18.8-15.6 24.4-28.9l.1-.2c1.1-2.6 2.2-5.4 3.1-8.3-45.7 5.4-71.4-1.5-84.9-8.3-1.7-.9-3.3-1.7-4.7-2.6l-.1-.1c-11-6.8-14-13.7-14.1-14-.2-.4 0-.8.4-1 .4-.2.8 0 1 .4 0 .1 3 6.8 13.6 13.3l.1.1c1.4.8 2.8 1.7 4.5 2.5 13.4 6.7 39.1 13.6 85.2 8l1.1-.1-.3 1.1c-1 3.4-2.2 6.6-3.4 9.5v.1c-5.7 13.5-14.1 23.4-24.8 29.5l-.4.2c-7.5 4.3-15.8 6.4-24.2 6.4z" fill="#000000" class="color000 svgShape"></path>
            <path d="M283.7 240.7h-.6c-3.1 0-6.2-.3-9.2-.7-10.4-1.6-21.2-4.9-31.9-9.8-.5-.2-1-.5-1.5-.7-2.5-1.1-5.1-2.2-6.9-4.5-3.1-3.9-3.5-10.1-3.8-14.5-.1-1.4-.1-2.8-.1-4.3 0-.4.3-.7.7-.7.4 0 .7.3.7.7 0 1.4 0 2.8.1 4.2.3 4.3.6 10.1 3.4 13.7 1.6 2 3.9 3 6.3 4.1.5.2 1.1.5 1.6.7 10.6 4.9 21.2 8.2 31.5 9.7 2.9.5 6 .7 9 .7 7.1.1 11.9-1.2 16.4-4.5 4.4-3.1 8.4-6.9 12.5-11.4.1-.2.4-.3.6-.3.4 0 .7.3.7.7v.3l-.2.2c-4.1 4.7-8.3 8.5-12.7 11.7-5.7 4-11.3 4.7-16.6 4.7zm4 13.2c-.4 0-.7-.3-.7-.7v-.2c.8-3.4 0-5.9-2.3-7.6-1.9-1.4-4.6-1.4-7-1.5h-.3c-3.5-.1-7.7-.3-11.9-1-6.1-1.1-12.4-2.8-18.6-4.9-1.5-.5-3-1.2-4.6-1.9-3.9-1.8-8-3.6-11.8-3.1-2.4.3-4.3 1.9-6.2 3.6-.6.5-1.2 1.1-1.9 1.5-1.5 1.2-3 2.3-4.5 3.5-.3.3-.8.2-1.1-.1-.3-.3-.2-.8.1-1.1 1.5-1.2 3-2.3 4.5-3.5l1.8-1.5c2-1.8 4.1-3.6 7-3.9 4.2-.6 8.6 1.5 12.6 3.2 1.6.7 3.1 1.4 4.5 1.9 6.2 2.1 12.4 3.8 18.4 4.9 4.1.7 8.2.9 11.7 1h.3c2.6.1 5.5.2 7.8 1.8 2.8 2 3.8 5.1 2.9 9.1 0 .2-.3.5-.7.5zm25.3-42.5s.2-.1.4-.1c.3-.1.7-.1 1.2 0 .5 0 1 .2 1.6.5.3.2.6.3.8.5.2.2.5.4.7.7.2.3.4.6.5.8.2.3.2.6.3.9.1.3.1.6.1.9v.8c0 .5-.2.9-.3 1.1-.1.3-.2.4-.2.4h-.1v-.9c0-.2-.1-.3-.1-.5s-.1-.4-.2-.6c-.1-.2-.1-.5-.3-.7-.1-.2-.2-.5-.4-.7-.1-.2-.3-.4-.5-.6-.7-.9-1.6-1.5-2.3-1.9-.7-.4-1.2-.5-1.2-.5-.1.1-.1 0 0-.1-.1.1-.1.1 0 0zm-79.9-31.5c-9.4 0-17.1-8.8-17.1-19.6s7.7-19.6 17.1-19.6 17.1 8.8 17.1 19.6c0 10.9-7.6 19.6-17.1 19.6zm0-37.6c-8.6 0-15.6 8.1-15.6 18.1 0 10 7 18.1 15.6 18.1s15.6-8.1 15.6-18.1c0-10-7-18.1-15.6-18.1zm47.5 59.2s-.5-.2-1.4-.6c-.5-.2-1-.6-1.6-1.1-.6-.5-1.3-1-2-1.7-1.4-1.3-3-3.2-4.4-5.5-1.4-2.3-2.8-5.1-3.7-8.3-.9-3.2-1.5-6.8-1.6-10.6 0-3.8.5-7.9 1.7-11.8 1.2-4 3.3-7.9 6.1-11.2 1.4-1.7 3.1-3.2 4.9-4.5 1-.6 1.9-1.2 2.9-1.7s2.1-.9 3.2-1.2c2.2-.6 4.5-.9 6.7-.7 1.1 0 2.2.3 3.3.5.5.1 1.1.3 1.6.5l.8.3c.3.1.5.2.8.3l1.5.7 1.4.9.7.4c.2.2.4.3.7.5l1.3 1c1.6 1.4 3.1 3 4.3 4.7 2.5 3.4 4.1 7.2 5.1 10.9s1.3 7.3 1.3 10.7c0 .8-.1 1.6-.1 2.4-.1.8-.2 1.6-.3 2.3-.1.8-.2 1.5-.4 2.2-.1.7-.3 1.4-.5 2-.2.7-.4 1.3-.5 1.9-.2.6-.4 1.2-.6 1.7-.4 1.1-.9 2.1-1.3 3-.4.9-.9 1.6-1.2 2.3-.4.7-.8 1.2-1.1 1.6-.6.8-1 1.2-1 1.2l-.8-.6s.2-.5.8-1.3c.3-.4.6-.9.9-1.6.3-.6.8-1.3 1.2-2.2.4-.8.9-1.8 1.2-2.8.2-.5.4-1.1.6-1.7.2-.6.3-1.2.5-1.8.2-.6.3-1.3.4-2 .1-.7.3-1.4.4-2.1.1-.7.2-1.5.3-2.2 0-.8.1-1.6.1-2.4 0-3.2-.3-6.7-1.3-10.2-1-3.5-2.5-7.1-4.9-10.3-1.1-1.6-2.5-3.1-4-4.4l-1.2-.9c-.2-.2-.4-.3-.6-.5l-.7-.4-1.3-.8-1.4-.7c-.2-.1-.5-.2-.7-.3l-.7-.2c-.5-.2-1-.3-1.5-.5-1-.2-1.9-.5-3.1-.5-2.1-.2-4.2.1-6.2.6-1 .3-2 .6-2.9 1.1-1 .4-1.8 1-2.7 1.5-1.7 1.2-3.3 2.6-4.6 4.2-2.7 3.1-4.7 6.9-5.9 10.7-1.2 3.8-1.7 7.6-1.7 11.3 0 3.7.6 7.1 1.5 10.2.9 3.1 2.2 5.7 3.5 7.9 1.4 2.2 2.8 3.9 4.2 5.2.7.6 1.3 1.2 1.9 1.6.6.4 1 .8 1.4 1.1.8.6 1.2 1 1.2 1l-.5.9z" fill="#000000" class="color000 svgShape"></path>
            <path d="M312.5 194.7H309.1c-.7 0-1.5.1-2.4.1-.9.1-1.8.2-2.8.2-.5 0-1 .1-1.5.1-.5.1-1 .2-1.6.2-1.1.2-2.2.3-3.3.5-1.1.2-2.2.4-3.4.7-1.1.3-2.2.5-3.3.9-1.1.4-2.2.6-3.2 1s-2 .7-2.9 1.1c-.9.4-1.8.7-2.6 1.1-.8.4-1.5.7-2.1 1l-1.6.8c-.9.5-1.4.8-1.4.8l.3-.3c.2-.2.5-.5.9-.7.4-.3.9-.7 1.5-1.1.3-.2.6-.4.9-.7.3-.2.7-.4 1.1-.6.8-.5 1.6-.9 2.5-1.4.9-.5 1.9-.9 2.9-1.3s2.1-.8 3.2-1.2c1.1-.4 2.3-.6 3.4-1 1.1-.3 2.3-.5 3.5-.7 1.1-.3 2.3-.3 3.4-.4.6-.1 1.1-.1 1.6-.2h4.3c.9 0 1.7.1 2.4.2s1.3.2 1.8.2c1.3.6 1.8.7 1.8.7zm-61.7-65.5c-2.7 0-5.5-.4-8.9-1.4l-.9-.2c-3.8-1-10.9-2.9-13.2-6.8-.7-1.2-.9-2.6-.5-4 1.2-4.1 4.4-5.6 9.4-4.2 3.3.9 6.9 3 9.6 4.5.9.5 1.8 1 2.4 1.3 4.6 2.3 8.8 4.3 13.3 5.2l.4.1.1.4c.1.3.2.6-1.2 1.8-1.2 1-2.2 1.7-3.4 2.1-1.8.7-3.9 1.1-6.4 1.2h-.7zm-17.5-15.6c-2.4 0-3.8 1.2-4.5 3.6-.3 1-.2 1.9.3 2.8 1.9 3.3 8.9 5.2 12.2 6.1l.9.2c3.7 1 6.6 1.4 9.4 1.3 2.3-.1 4.3-.5 5.9-1.1 1-.4 1.9-1 2.9-1.8-4.2-1-8.1-2.9-12.4-5-.7-.3-1.5-.8-2.5-1.4-2.6-1.4-6.1-3.4-9.2-4.3-1.1-.2-2.1-.4-3-.4zm88.1 22.5c-.6 0-1.2-.4-1.7-1.3-1-1.8-3.1-3-4.8-3.7-3.2-1.5-6.9-2.5-11.6-3.2-.8-.1-1.8-.1-3.1-.2-2.7 0-6.2-.1-8.5-1.3-1.6-.8-2.5-2.1-2.6-3.8-.2-2 .4-3.7 1.5-5 2.1-2.3 5.8-2.7 8.6-2.7 3.5 0 6.8.7 8.6 1.3 6 2 11.2 7.2 13.7 13.4l.1.3c1.1 2.6 1.6 4.6.8 5.6-.2.5-.7.6-1 .6zm-22.1-19.7c-2.5 0-5.8.4-7.5 2.3-.9 1-1.3 2.2-1.1 3.8.1 1.1.7 2 1.8 2.5 2 1 5.2 1.1 7.8 1.1 1.3 0 2.5 0 3.3.2 4.9.8 8.7 1.8 12 3.4 1.9.9 4.3 2.2 5.5 4.4.1.2.2.3.3.4.1-.4 0-1.4-1.1-4.1l-.1-.3c-2.2-5.7-7.2-10.6-12.8-12.5-1.7-.5-4.8-1.2-8.1-1.2zm-61.5 61.7c-5.5 0-10-5.5-10-12.2 0-6.7 4.5-12.2 10-12.2s10 5.5 10 12.2c0 6.7-4.5 12.2-10 12.2zm0-22.9c-4.7 0-8.5 4.8-8.5 10.7 0 5.9 3.8 10.7 8.5 10.7s8.5-4.8 8.5-10.7-3.8-10.7-8.5-10.7zm56.5 35.4c-6.9 0-12.4-6.5-12.4-14.5s5.6-14.5 12.4-14.5 12.4 6.5 12.4 14.5-5.5 14.5-12.4 14.5zm0-27.5c-6 0-10.9 5.8-10.9 13s4.9 13 10.9 13 10.9-5.8 10.9-13-4.9-13-10.9-13zM342 344c-.4 0-.8-.3-.8-.8 0-.4.3-.7.7-.7.1 0 6-.2 11.5-9.5.2-.4.7-.5 1-.3.4.2.5.7.3 1-5.9 10.2-12.3 10.3-12.7 10.3z" fill="#000000" class="color000 svgShape"></path>
        </svg>
    </g>
</svg>