<svg id="SvgjsSvg1317" width="256" height="256" xmlns="http://www.w3.org/2000/svg" version="1.1" xmlns:xlink="http://www.w3.org/1999/xlink" xmlns:svgjs="http://svgjs.com/svgjs">
    <defs id="SvgjsDefs1318"></defs>
    <g id="SvgjsG1319">
        <svg xmlns="http://www.w3.org/2000/svg" viewBox="0 0 512 512" width="256" height="256">
            <path fill="#8cb0dc" d="M159.4 241c-3 8.9-5.1 15.8-7.1 22.4l3.1.3 72.1 6.5v.1l12.1 33.2h.1v.2c1.1 1.9 6.7 7.7 35.9 6.8-1.3-1-1.9-2.3-1.8-3.7.2-2.7 2.8-5.5 7.3-7.8 8.5-4.3 21.6-7 24.3-7.6l20.2-22.9h.1c.1 0 2.5-.7 4.6.5 1.4.8 2.3 2.2 2.8 4.1v.1l-3.3 3.8 13.5 6.4v13.9c.6 2.5 1.2 4.9 1.9 7.1 9.7-13.7 21.4-22.6 36.6-27.3 7-2.2 14.7-3.5 23.2-4 3.7-56.1.5-106.6-8.6-135l-.3-.4c-.2-.3-.5-.5-.7-.8-8.8-10.5-19.1-20.2-30.4-28.8-4.3 3.3-10.2 4.4-16.3 5.2-5.5.8-11.4 1.2-18.6 1.2h-.3c-3.8 0-7.5-.4-11.5-1.1-1-.2-2.1-.4-3.2-.6l1.2.9c.9.8 1.6 1.8 2.1 2.6.1.1.2.2.2.3.2.3.4.6.5.9.2.5.4.9.5 1.2.2.6.3 1.2.5 1.7 0 .1.1.3.1.4.1.4.1.9.2 1.2v.9l-.8.7-.1-.1s-.5-.3-1.3-.9c-.2-.2-.5-.3-.8-.5l-.7-.5c-.5-.3-1-.7-1.6-1l-.3-.2c-.3-.2-.5-.3-.8-.5-.5-.3-1-.6-1.5-.8-.9-.3-1.9-.7-2.8-1.1-1.1-.3-2.1-.6-3.2-.9-.4 0-.8-.1-1.2-.2-.7-.1-1.4-.2-2.2-.2h-.2c-1-.1-2.1-.1-3.2 0-.9 0-1.7.2-2.5.3-.2 0-.5.1-.7.1-1.1.3-2.1.5-3 .8-.8.3-1.7.6-2.6 1l-1.2.6c-.3.2-.6.3-.9.4l-.6.3c-.3.2-.7.4-.9.5-.8.5-1.2.8-1.2.8l-.1.1-.8-.7v.1V120.1c0-.3.1-.7.2-1.2.3-1.1.9-2.7 2.5-4.5l1.2-1.2 1.2-.9.3-.2c1-.7 2.2-1.4 3.7-2 .9-.3 1.9-.7 3-.9-15-2.9-29-5.5-41.8-7.7-21.3-3.7-39.4-6.4-54.5-8.2-4.1 4.2-8.1 9-12.1 22-.3 1-.7 2.1-1 3.2-1 3.7-1.9 8.1-2.7 13.2-.6 3.8-1.2 8.1-1.9 12.7-1.6 11.3-3.7 25.3-7.2 42.5-2.5 12.3-7.6 27.4-12.9 43.3-1.1 3.4-2.3 6.8-3.4 10.2l-.4.6zm65.4-52c1.6.2-17.2-.8-8.6-.6-7.4-2.8-12.5-10.9-12.5-20.3 0-11.8 8-21.3 17.8-21.3s17.8 9.6 17.8 21.3c.1 10.3-6.1 19.1-14.5 20.9zm15.7-63v.2c0 .2-.1.5-.2.8v.1c-.1.4-.3.8-.5 1.3-.1.3-.3.6-.5.8-.2.2-.3.4-.6.6l-.2.2c-.6.6-1.3 1.2-2.2 1.8-1.1.6-2.2 1.2-3.2 1.6-.6.2-1.2.4-1.9.6l-.3.1c-.7.2-1.3.4-2.1.5-1.7.3-3.3.5-4.9.6h-1.7c-1.4 0-2.4 0-3.3-.2-1.6-.1-3.1-.5-4.5-.8-1.5-.4-2.7-.9-3.7-1.4l-.4-.2c-.4-.2-.7-.4-1.1-.6-.5-.3-.8-.6-1.2-.8-1.5-1.2-2.2-2.3-2.5-3.1-.2-.3-.2-.6-.3-.8V126.6l.8-.5h.1l1.2.6c.3.1.6.2 1 .4.2.1.4.1.6.2.2.1.5.2.8.3.4.1.8.3 1.3.4.7.2 1.6.5 2.6.7.9.2 1.8.4 2.8.5h.2c.2 0 .5 0 .7.1.8.1 1.7.2 2.6.2h3.5c.7 0 1.5-.1 2.2-.2.4 0 .8-.1 1.2-.1 1-.2 1.9-.3 2.9-.5h.3l2.8-.8c.5-.2 1.1-.4 1.6-.6.3-.1.5-.2.8-.3l.2-.1c.7-.2 1.3-.5 1.8-.7l2.8-1.3.8.5v.1c-.3.2-.3.3-.3.5z" class="colorafdc8c svgShape"></path>
            <path fill="#3b82f6" d="M369.1 418.2c.1.8-.1 1.6-.9 2.4-1.1 1.1-1.8 2.5-2.6 3.9l-1.8 3c.1.4.1.9-.1 1.3-.4 1.2-1 2.3-1.8 3.3-.7 1-.9 1.9-1.2 3-.4 1.2-1.2 1.8-2.1 2.1-5.9 11.4-12.3 22.3-17.9 31.2-5.2.6-10.7 1-16.3 1.2-6.5.3-13.1.3-19.3.3-16.8-.2-31-1.2-33.9-1.4h-.3l2.1-10.9c.1 0 .2 0 .3.1-.1-.3-.3-.4-.4-.5-16.2-3.1-31-7-44.2-11.7-3.4-1.2-6.7-2.4-9.9-3.7l-.4-.2c-23.3-9.4-41.7-21.8-54.5-36.7.1-.4-.2-.6-.3-.4-9.4-11.1-16.1-23.9-19.9-38.1 1.5-.3 3-.7 4.4-1.3l9.4 22.5v.1l31 2.3 77.9-12.6-21.8-59.9-4.6-12.6c2.3 2.4 9 6 29.1 6 2.1 0 4.4 0 6.9-.1.3.2.5.4.9.5 2.1 1.1 5.2 1.8 9.1 2l-23 25.5-.9 2.1-3.3 8.5 11-3.7 16.1-18.3c0 7.8 5.6 28.5 31.6 30.5-7.1 15.5-14.4 36-9.1 45.8 1.7 3.1 4.5 5 8.5 5.6.7.1 1.4.2 2.1.2 11.1 0 21.8-13.2 24.3-22.8.1-.2.6-.9 1.4-2.3.1.1.2.1.3.2h.1c.6 1.5 1.3 2.8 1.9 4.1.5 1 1 2 1.6 2.9 5.4 9.5 11.2 14 15.4 16 3.5 1.7 6.4 2 8.2 2 .7 0 1.2 0 1.5-.1-1.7 3.3-3.2 6.2-4.6 8.7z" class="color3193f6 svgShape"></path>
            <path fill="#3b82f6" d="m218.3 441.8-10 18.4c-2.8-.4-5.7-.9-8.5-1.6-1.4-.3-2.8-.7-4.3-1-12.2-3.3-23.7-8.3-31.4-12.1-3.5-1.7-6.2-3.2-7.9-4.2 1.5-8.6 4-21.7 7.7-36.2.6.7 1.3 1.5 2 2.2 1.3 1.5 2.7 2.9 4.2 4.3.9.9 1.8 1.7 2.8 2.6 11.7 10.7 26.6 19.8 44.5 27.1.2.3.5.4.9.5z" class="color3193f6 svgShape"></path>
            <path fill="#eff6ff" d="M223.6 188.9c8.8-1.2 15.4-10.2 15.4-20.8 0-11.5-7.8-20.9-17.4-20.9-9.6 0-17.4 9.4-17.4 20.9 0 9.7 5.5 18.1 13.3 20.4 1.8 0 3.8.1 6.1.4z" class="colorfff svgShape"></path>
            <path fill="#4f5c72" d="m290.7 112.4-.3.2c-.4.3-.8.6-1.1.9-.5.5-.9.8-1.2 1.2-1.5 1.7-2.1 3.3-2.4 4.3-.1.4-.2.8-.2 1.1v.7l.5.4c.2-.1.6-.4 1.2-.8.3-.2.6-.4 1-.5l.6-.3c.3-.1.6-.3.9-.4l1.2-.6c.8-.4 1.8-.7 2.6-1 .9-.3 1.9-.6 3-.8.3 0 .5-.1.8-.1.8-.1 1.7-.3 2.6-.3 1.1-.1 2.2-.1 3.2 0h.2c.7 0 1.5.1 2.2.2.4.1.8.1 1.2.2 1 .3 2.1.6 3.2.9 1 .4 2 .8 2.9 1.2.6.3 1.1.6 1.6.8.3.2.6.3.8.5l.3.2c.6.3 1.2.7 1.7 1l.7.4c.3.2.6.4.8.5.6.4 1 .7 1.2.8l.5-.4v-.7c0-.3 0-.7-.1-1.1 0-.1-.1-.3-.1-.4-.1-.5-.2-1-.4-1.6-.1-.3-.3-.8-.5-1.2-.2-.3-.3-.6-.5-.9-.1-.1-.1-.2-.2-.3-.6-.8-1.2-1.7-2.1-2.5-.5-.5-1.1-.9-1.8-1.4-5.7-1.2-11.2-2.2-16.3-3.2-1.3.2-2.5.7-3.7 1.1-1.8.6-3 1.3-4 1.9z" class="color4f7258 svgShape"></path>
            <path fill="#3b82f6" d="M405.2 273.4c-.3 4.2-.6 8.7-1.1 13.4-7.9 1.4-14.7 5.1-20.8 11-2.3 2.2-4.4 4.7-6.4 7.6-3.5 5-6.7 11-9.5 18 0 0-.1 0-.1-.1l-.1-.1-.4-.2c-4.8-2.6-9.7-4.7-14.4-6.1 0 0-3.6-2-6.9-11.9 9.3-13.2 20.4-21.9 34.7-26.8.4-.1.8-.3 1.2-.4 7.1-2.4 15-3.8 23.8-4.4z" class="color3193f6 svgShape"></path>
            <path fill="#8cb0dc" d="M412.8 350c-4.5 16.7-13.5 27.6-27.7 33.4-9.8 4-22.2 5.7-37.6 5.2-.7-1.3-1.3-2.7-2-4.2 3.7-3.3 6.8-6.7 9.3-10.3 7.5-10.4 10.7-21.6 12-30v-.1c1.3-8.6.9-15.8.6-19.4l-.2-1.1c.1-.1.1-.1.5.3 3.9 2.2 4 1.9.2-.3.2-.6.5-1.2.8-1.8 4.3-10.2 9.3-18.1 15.2-23.8 5.9-5.7 12.6-9.3 20.3-10.7l-.3 3.2h.2l-.2.1c.1.3 16.4 31.5 8.9 59.5z" class="colorafdc8c svgShape"></path>
            <path fill="#8cb0dc" d="M384.8 384c-2.6 7.3-5.4 14.1-8.4 20.1l-.4.8c-.7 1.5-1.4 2.9-2.1 4.3-.6.1-4.6.6-9.7-1.9-4.5-2.2-10.8-7.1-16.6-18.3 1.9.1 3.7.1 5.5.1 12.7 0 23.1-1.7 31.7-5.1z" class="colorafdc8c svgShape"></path>
            <path fill="#93c5fd" d="M200.4 93.3c-4.4 4.5-8.7 9.9-13 25.1-.8.3-7.4 2.8-15.4 2.1-7.7-.6-18.3-4.4-24.7-19-.1-.3-.2-.6-.3-1-.6-2.1-1.5-5.1 2.8-7.2.1 0 .2-.1.5-.2.4-.2 1-.4 1.9-.7 2.7-.8 6.3-1.2 10.9-1.4 8.9-.3 21.3.4 37.3 2.3z" class="colorec4a3b svgShape"></path>
            <path fill="#93c5fd" d="M364.8 107.8c-4.2 3.2-10 4.2-16.1 5.1-5.5.8-11.4 1.1-18.5 1.2h-.3c-5 0-9.8-.7-15.4-1.8-5.7-1.2-11.2-2.3-16.4-3.2-38.9-7.6-70.4-12.8-94.4-15.7-17-2.1-30.3-3-39.7-2.7-3.6.1-6.7.4-9.2.8 8.1-3 29.4-10.9 49.2-17.3h.1v-.1c18.5-6 31.1-9.2 37.4-9.6 1.6-.4 4.6-.6 8.7-.5 7.9.3 20 1.9 34.5 5.6 3.4.9 7.1 1.9 11 3.1 17.8 5.5 40.6 14.9 62.9 30.5 2.1 1.6 4.1 3 6.2 4.6z" class="colorec4a3b svgShape"></path>
            <path fill="#eff6ff" d="M305.2 191c7.3-5.7 11.6-15.1 11.6-25 0-16.9-12.4-30.7-27.6-30.7s-27.6 13.8-27.6 30.7 12.4 30.7 27.5 30.7c4-1.8 9.6-4.1 16.1-5.7z" class="colorfff svgShape"></path>
            <path fill="#4f5c72" d="M205.4 127.4c0 .2.1.5.2.8.2.6.8 1.7 2.4 2.9.3.3.7.5 1.2.8.3.2.7.4 1 .6l.4.2c.9.5 2.2.9 3.6 1.3s2.9.7 4.5.8c.9.1 1.9.2 3.3.2h1.7c1.6-.1 3.2-.3 4.9-.6.7-.1 1.4-.3 2-.5l.3-.1c.7-.2 1.3-.4 1.8-.6 1.1-.5 2.1-1 3.2-1.6.9-.5 1.5-1.2 2.1-1.7l.2-.3c.2-.2.4-.4.5-.6.2-.2.3-.5.5-.8.2-.4.4-.9.5-1.2v-.1c.1-.3.1-.5.1-.7v-.4l-.5-.3-2.6 1.2c-.5.3-1.2.5-1.8.7l-.1.1c-.3.1-.5.2-.8.3-.5.2-1 .4-1.6.6l-2.8.8-.3.1c-.9.2-1.9.4-2.9.5-.4 0-.8.1-1.2.1-.7.1-1.5.2-2.2.2h-.3c-1.1 0-2.3.1-3.2 0-.9 0-1.8-.1-2.6-.2-.2 0-.5-.1-.7-.1h-.2c-1-.2-1.9-.3-2.8-.5-1-.2-1.9-.5-2.6-.7-.5-.1-.9-.3-1.3-.4-.3-.1-.5-.2-.8-.3-.2-.1-.4-.2-.6-.2-.4-.1-.7-.3-1-.4-.6-.2-1-.4-1.2-.5l-.5.3v.2c.2 0 .2 0 .2.1z" class="color4f7258 svgShape"></path>
            <path fill="#93c5fd" d="M357.6 23.2c-1.3-1.2-2.7-2.5-4-3.7-3.7-3.3-7.5-6.4-11-8.9-.6-.4-1.1-.8-1.7-1.2.1-.8.8-5.2 4-7.4 1.7-1.1 3.9-1.4 6.5-.8.3.1.7.2 1 .3 2.1.6 3.8 1.4 5.1 2.4 1.8 1.2 3.1 2.8 3.7 4.6 1.6 3.9.3 8.8-3.6 14.7z" class="colorec4a3b svgShape"></path>
            <path fill="#8cb0dc" d="m119.9 297.4-9.1-21.8-2-4.7c-.6.6-1.2 1.3-1.8 2-3 5.3-6.1 10.4-8.6 15.9v.1c-.2.9-.5 1.7-.8 2.6 0 .3-.1.7-.2 1-1.7 6.1 0 13.9 1.9 20.6 1.3 2 2.3 4.1 3 6.4 3.9 6.2 8.3 10.3 9.7 11.5-4-18 7.3-32.7 7.9-33.6z" class="colorafdc8c svgShape"></path>
            <path fill="#eff6ff" d="M165.2 331.6c0 .1 0 .3.1.4.1-.1.2-.1.4-.2 0-.1 0-.3-.1-.4l-.4.2z" class="colorfff svgShape"></path>
            <path fill="#93c5fd" d="M172.8 327c-7.5 5.4-19.1 9.7-19.2 9.7l.1.4c.1 0 5.6-2 11.5-5.1 2.7 16.4-6.4 28.4-17 32.6-1.5.6-3.1 1.1-4.7 1.4-1 .2-1.9.3-2.9.3-3.2-.2-6.3-1.1-9.2-2.7-9.4-5.1-16.5-16.8-18.7-32.1-4.4-17.4 6-31.9 7.4-33.7l3.7 8.7c.1 1.4.1 2.5.1 2.5v.1c.2.4.8.8 1.5 1.1 7.7 3.5 40.3 1.2 41.7 1.1 4.5-.7 8-.8 10.4-.3 2.1.4 3.4 1.3 3.9 2.5 1.6 3.9-4.2 10.3-8.6 13.5z" class="colorec4a3b svgShape"></path>
            <path fill="#3b82f6" d="m266.7 377.7 6.8 18.6h-.3L189 390z" class="color3193f6 svgShape"></path>
            <path fill="#13161a" d="M330.1 269.4c-1.8-1.1-3.9-.6-4.3-.5L306.2 291c3.5-1.9 9.7-2.5 13.3-2.7l13.2-15.2c-.5-1.7-1.3-3-2.6-3.7z" class="color16131a svgShape"></path>
            <path fill="#eff6ff" d="m125.1 309.7-.9-2.1c0 .7 0 1.2.1 1.4.1.3.4.5.8.7zm242.2 14s0-.1 0 0c-.1 0-.1.1-.1.1.1 0 .1-.1.1-.1z" class="colorfff svgShape"></path>
            <path fill="#3b82f6" d="M317.8 358.2c-10.1 22-13.2 37.6-9.1 45.3 1.6 3 4.4 4.8 8.2 5.4 11.7 1.8 23.4-12.3 26-22.4v-.1s.6-.8 1.4-2.3c-19-12.6-25.4-23.7-26.5-25.9z" class="color3193f6 svgShape"></path>
            <path fill="#93c5fd" d="M358.7 102.9c-14.9-10.4-30-18-43.7-23.6-11.3-4.6-21.7-7.8-30.1-10-22.1-5.7-38.7-6.5-43.4-5.2-5.6.3-16.2 3-31.5 7.7-1.8.6-3.7 1.2-5.7 1.8 2.4-5.7 23.3-55.9 34-64.5 7.5-6 33.6-7.9 57.4-7.7 12.2.1 23.7.7 32 1.7.8.1 1.7.3 2.6.7 5.3 1.9 13.1 7.2 22.1 15.1.2.5 15.7 42.8 6.3 84z" class="colorec4a3b svgShape"></path>
            <path fill="#93c5fd" d="M359.1 103.2c2 1.4 4 2.9 6.2 4.5 11.4 8.6 21.7 18.4 30.6 28.9.2.3.5.5.7.8 1.4-6.5 2.7-11.9 3.8-16.7 3.5-15.1 5.5-23.5 4.6-34.7-.6-8.3-13.2-26.8-32.2-47.1-6.9-7.4-13.6-13.9-19.7-19.3 1.8 5.4 14.8 44.9 6 83.6z" class="colorec4a3b svgShape"></path>
            <path fill="#8cb0dc" d="M158.9 241.1c-.5 1.6-1 3.1-1.5 4.5-2.2 6.7-4 12.3-5.5 17.7l-26.2-2.4-7.1-.6c12.8-11.6 33.7-17.6 40.3-19.2zM208 460.6l-.3.6-15 27.5c-1.5 0-17.3.5-35.6-1.4-4.7-.5-9.5-1.2-14.3-2-10.8-1.9-21.4-4.9-29.5-9.4-.1 0-.2-.1-.3-.2 3.2-1.6 29.6-14.2 40.4-17.1h.1v-.1c0-.1.8-6.6 2.6-16.7 1.7 1 4.4 2.4 7.8 4.1 7.8 3.8 19.3 8.9 31.6 12.2 1.4.4 2.7.7 4.1 1 2.8.6 5.6 1.1 8.4 1.5z" class="colorafdc8c svgShape"></path>
            <path fill="#93c5fd" d="M366.4 344.1c-1.7 11.3-6.8 27.3-21.1 40-.1-.1-.1-.3-.2-.4l-.2.1-.2-.1-.1.2c-3.3-2.2-6.2-4.3-8.8-6.4-12.7-10.1-17-18.2-17.7-19.6h1.9c1.7 0 .3-.3-2.1-.4-26.5-1.9-31.7-23.2-31.5-30.6v-.1c.2-7.3 2.6-13.5 2.6-13.6l.1-.2h-.3c-.9 0-1.7 0-2.4-.1-4.6-.2-8.1-1.1-10.2-2.5-1.4-1-2.1-2.3-2.1-3.7.2-2.5 2.8-5.3 7.1-7.5 8.5-4.3 21.7-7 24.3-7.5H305.8c2.3-1.5 6.3-2.3 9.7-2.6 1.5-.2 2.9-.3 4-.3v-.2l.1.1 7.1-8.1 2.8-3.2 13.4 6.3v13.7c.6 2.7 1.3 5.3 2.1 7.5 3.4 10.2 7 12.2 7.2 12.3 4.8 1.5 9.7 3.6 14.6 6.3.4 2.7 1.1 10.7-.4 20.6z" class="colorec4a3b svgShape"></path>
            <path fill="#13161a" d="m258.7 350.2 11.2-4.6 16.1-18.8c.2-6.5 2.1-12.2 2.5-13.4-.8 0-1.4 0-2-.1l-24 26-3.8 10.9z" class="color16131a svgShape"></path>
            <path fill="#eff6ff" d="m272.9 395.9-90.5-6.8-24.5-1.8-7.1-16.9-2.3-5.5c10.6-4.3 19.8-16.6 17-33.1 2.6-1.3 5.2-2.9 7.5-4.5 4.1-3 9.4-8.8 9-12.8 0-.3-.1-.7-.2-1-1.2-3-6.2-3.8-14.7-2.5-.3 0-33.8 2.4-41.5-1l-16.5-39.3c0-.1.1-.1.2-.2l-.3-.3-4.5-10.8 73.9 6.6 48.9 4.4L239 303c0 .1 0 .3.3.8l26.9 73.8 6.7 18.3z" class="colorfff svgShape"></path>
            <path fill="#8cb0dc" d="M347.2 511c-5 .1-13.4-.8-22.9-2.2-4.6-.7-9.5-1.5-14.4-2.3-4.9-.9-9.9-1.8-14.7-2.6-15.5-2.9-28.5-5.6-30.2-6l5.8-29.2c1.6.1 16.4 1.3 34.1 1.5h4.7c4.8 0 9.7-.1 14.6-.3 5.6-.2 11.1-.6 16.2-1.2-7.5 11.9-13.3 20-13.4 20.2l-.1.2.2.1c12.5 6.5 19.1 19.8 20.1 21.8z" class="colorafdc8c svgShape"></path>
            <path fill="#0d3d8c" d="M319.4 389.8c-3.8 0-6.9 3.1-6.9 6.9 0 3.8 3.1 6.9 6.9 6.9 3.8 0 6.9-3.1 6.9-6.9 0-3.8-3.1-6.9-6.9-6.9zm-1 9.6c-.5.5-1.2.5-1.7 0s-.5-1.2 0-1.7 1.2-.5 1.7 0 .5 1.2 0 1.7zm0-3.8c-.5.5-1.2.5-1.7 0s-.5-1.2 0-1.7 1.2-.5 1.7 0 .5 1.3 0 1.7zm3.8 3.8c-.5.5-1.2.5-1.7 0s-.5-1.2 0-1.7 1.2-.5 1.7 0 .5 1.2 0 1.7zm0-3.8c-.5.5-1.2.5-1.7 0s-.5-1.2 0-1.7 1.2-.5 1.7 0 .5 1.3 0 1.7z" class="color0d418c svgShape"></path>
            <path fill="#6d7d90" d="M255.3 101.5c-2.4.3-6.1-.1-11.4-1.3-34.4-8-55.3 15.1-55.3 15.1 4-13 8-17.8 12.1-22 15.2 1.8 33.4 4.5 54.6 8.2zM405.2 273c-8.6.5-16.3 1.9-23.2 4h-.8c.3-16.4.9-32.7 1.4-49.1.3-12.2 0-24.4 0-36.6 0-9.8.1-19.6-1.4-29.4-1.5-9.6-2.2-19.9-7-28.6-6.4-11.5-20.4-12.1-31.8-14.4-8-1.6-15.8-4-23.8-5.7 9.6 2.1 20.5 1.2 30.2-.1 6.1-.9 12-1.9 16.3-5.2 11.4 8.6 21.6 18.3 30.4 28.8.2.3.5.5.7.8l.3.4c9.2 28.5 12.4 79 8.7 135.1zm-52.1 116.1c12.7 0 23.2-1.7 31.7-5.1-2.6 7.3-5.4 14.1-8.4 20.1l-.4.8c-.7 1.5-1.4 2.9-2.1 4.3-.6.1-4.6.6-9.7-1.9-4.5-2.2-10.8-7.1-16.6-18.3 1.9.1 3.7.1 5.5.1zM347.2 511c-5 .1-13.4-.8-22.9-2.2-4.8-.7-9.5-1.4-14.2-2.3-.6-7.6 2.1-15 5.6-21.6.9-1.7 6.9-15 8.5-15.1 5.6-.2 11.1-.6 16.2-1.2-7.5 11.9-13.3 20-13.4 20.2l-.1.2.2.1c12.5 6.6 19.1 19.9 20.1 21.9z" class="color6d9077 svgShape"></path>
            <path fill="#1851ad" d="M199.6 459c2.8.7 5.6 1.2 8.4 1.6l-.3.6c-2.8-.5-5.5-1.1-8.2-1.9.1 0 .1-.2.1-.3zm17.7-17.6c-7.4-3.2-14.2-6.8-20.5-10.6-2.2-.9-4.3-2-6.4-3.3-1.9-1.2-4.1-1.9-5.8-3.4-.9-.8-1.6-1.8-2.2-2.8-1-.7-2-1.4-3-2.3-1.9-1.6-4.1-2.8-6.1-4.2 5 7.6 11.7 13.1 18.5 19 7.6 6.5 11.3 14.9 8.1 24.8 2.8.7 5.7 1.2 8.5 1.6l10-18.4c-.5-.1-.8-.2-1.1-.4z" class="color1871ad svgShape"></path>
            <path fill="#6d7d90" d="m208 460.6-.3.6-15 27.5c-1.5 0-17.3.5-35.6-1.4 35.9-.9 40.5-23.1 42.5-28.2 2.8.6 5.6 1.1 8.4 1.5z" class="color6d9077 svgShape"></path>
            <path fill="#1851ad" d="M405.2 273.4c-.3 4.2-.6 8.7-1.1 13.4-7.9 1.4-14.7 5.1-20.8 11 1.4-11.5-1-18.2-1.9-20.1 7.1-2.3 15-3.7 23.8-4.3z" class="color1871ad svgShape"></path>
            <path fill="#6d7d90" d="M412.8 350c-4.5 16.7-13.5 27.6-27.7 33.4-9.8 4-22.2 5.7-37.6 5.2-.7-1.3-1.3-2.7-2-4.2 3.7-3.3 6.8-6.7 9.3-10.3.4.3.6.6.6.6 21-2.6 33.7-7.2 37.9-20.9 6-19.7-3-49.8-7.9-48-8.3 3-16.8 15.9-16.8 15.9 4.3-10.2 9.3-18.1 15.2-23.8 5.9-5.7 12.6-9.3 20.3-10.7l-.3 3.2h.2l-.2.1c.2.3 16.5 31.5 9 59.5z" class="color6d9077 svgShape"></path>
            <path fill="#1851ad" d="M373.7 409.5c-.3 0-.8.1-1.5.1-1.8 0-4.7-.3-8.2-2-4.1-2-9.7-6.2-15-15.3l-.5-1.6c-.2-.5-.5-1-.7-1.4-.8-1.9-1.9-3.7-2.5-5.7-1.9 0-2.6 2.5-3.3 4.5-.9 2.7-2.6 5.4-4.2 7.8-3.8 5.3-8.1 8.9-13.4 12.7-1 .8-2.1.9-3 .8-.5.2-1 .2-1.7.3h-.6c-.4.1-.7.2-1.1.2-.1 0-.2.1-.3.1.5-.1 1.3.3 1.8.4 1.5.2 3.2.2 4.7.1 4.4-.2 8.2-2.2 11.5-5 2.3-1.9 6.6-8 10-7.2 2.6.6 3.9 4 4.4 6.3.7 3.1.2 6.3-.4 9.3-.6 3.2-1.4 6.3-2.3 9.3-1.9 6.2-4.5 12.1-7.3 17.9-4.2 8.6-9 16.8-13.9 25-.6 1.1-1.3 2.2-1.9 3.2 5.6-.2 11.1-.6 16.3-1.2 5.4-8.6 10.4-16.6 15.6-26.5.4-.3.7-.6.9-1.1 1.5-3.1 3.3-6.1 4.9-9.1l.6-.6c1.5-2.1 2.8-4.3 3.8-6.7.6-1.5.8-3.9 2.1-5 .7-.6 1-1.4 1-2.1 1.4-2.1 2.7-4.6 4.2-7.5zm-79.3-25.8c-3.5 9.9-8.4 18.9-8.6 29.8-.1 7.5 3.3 14.1 7.6 20 2.2 3.1 4.5 6.7 3.6 10.7-.3 1.4-1.7 4.2-3.7 3-4-2.5-7.9-9.8-9.4-14-2.9-8.1-2.9-14.7-1.3-22.9 1.7-8.3 5.7-20.7 11.8-26.6z" class="color1871ad svgShape"></path>
            <path fill="#2c75ce" d="M315.6 289c1.5-.2 2.9-.3 4-.3-2.1 1.1-3.5 1.2-4 .3zm50.8 55.1c-1.7 11.3-6.8 27.3-21.1 40-.1-.1-.1-.3-.2-.4l-.2.1-.2-.1-.1.2c-3.3-2.2-6.2-4.3-8.8-6.4-12.7-10.1-17-18.2-17.7-19.6h1.9c1.7 0 3.5-.1 5.4-.2h.4c12.8-1.4 24-10.9 24.7-24.2.4-7-3.5-11.8-7.2-17.3-4.6-6.8-6.1-14.8-5.7-23.2.4-8.1-4.4-9.9-10.6-12.5.8-1 1.8-2.1 2.7-3.2l13.4 6.3v13.7c.6 2.7 1.3 5.3 2.1 7.5 3.4 10.2 7 12.2 7.2 12.3 4.8 1.5 9.7 3.6 14.6 6.3.2 2.8.9 10.8-.6 20.7zM172.8 327c-7.5 5.4-13.5 8-7.6 5 2.7 16.4-6.4 28.4-17 32.6-1.5.6-3.1 1.1-4.7 1.4-1 .2-1.9.3-2.9.3-3.2-.2-11-2.2-14.6-6.3 9.3 3.4 33.7-8.7 25.2-24.8 0 0 11.5-7 12.4-7.6 4.7-3.1 9.5-6.5 13-11 .8-1.1 2.8-4.3 1.2-5.4 1.4.2 3 1 3.6 2.4 1.6 3.8-4.2 10.2-8.6 13.4zm192-219.2c-4.2 3.2-10 4.2-16.1 5.1-5.5.8-11.4 1.1-18.5 1.2h-.3c-5 0-9.8-.7-15.4-1.8-5.7-1.2-11.2-2.3-16.4-3.2-38.9-7.6-70.4-12.8-94.4-15.7 23.2-12.6 60.6-19 92.1-20.4 17.8 5.5 40.6 14.9 62.9 30.5 2 1.3 4 2.7 6.1 4.3z" class="colorce332c svgShape"></path>
            <path fill="#2c75ce" d="M358.7 102.9c-14.9-10.4-30-18-43.7-23.6 13.2-38.7 15.4-63 15.3-75.5 5.3 1.9 13.1 7.2 22.1 15.1.2.5 15.7 42.8 6.3 84z" class="colorce332c svgShape"></path>
            <path fill="#285cb2" d="M357.6 23.2c-1.3-1.2-2.7-2.5-4-3.7 4.4-4.4 4.4-11.9 4-15.7 1.8 1.2 3.1 2.8 3.7 4.6 1.5 4 .2 8.9-3.7 14.8zm1.5 80c2 1.4 4 2.9 6.2 4.5 11.4 8.6 21.7 18.4 30.6 28.9.2.3.5.5.7.8 1.4-6.5 2.7-11.9 3.8-16.7 3.5-15.1 5.5-23.5 4.6-34.7-.6-8.3-13.2-26.8-32.2-47.1-6.9-7.4-13.6-13.9-19.7-19.3 1.8 5.4 14.8 44.9 6 83.6z" class="colorb22828 svgShape"></path>
            <path fill="#bfdbfe" d="M221.6 147.1c-.6 0-1.1 0-1.7.1 8.8 1 15.7 10 15.7 20.8 0 10.2-6.1 18.8-14.3 20.6.7.1 1.5.1 2.3.2 8.8-1.2 15.4-10.2 15.4-20.8 0-11.5-7.8-20.9-17.4-20.9zm67.6-11.8h-.7c13.2 2.4 23.3 15.8 23.3 31.8 0 9.6-3.7 18.7-10 24.8l3.3-.9c7.3-5.7 11.6-15.1 11.6-25 0-16.9-12.3-30.7-27.5-30.7z" class="colorcfc5cc svgShape"></path>
            <path fill="#6d7d90" d="M225.1 147.1c-.5 0-1 0-1.5.1 8.9.9 15.9 9.9 15.9 20.8 0 10.2-6.1 18.9-14.3 20.6.6.1 1.3.1 2 .2 8.8-1.2 15.4-10.2 15.4-20.8-.1-11.5-7.9-20.9-17.5-20.9z" class="color6d9077 svgShape"></path>
            <path fill="#1851ad" d="M288.9 442.2s-5.4 1.8-16.2 2.4c-4.4-.1-8.8-.3-13.2-.9-7.6-1-15.2-2.5-22.6-4.2-16.4-3.8-31.9-9.6-47.5-15.8-3-1.2-6.1-2.3-9.1-3.6 11.7 9.8 27.7 17.9 43.4 23.7 10.3 3.8 20.4 6.6 29.5 8.9 2.7.7 5.5 1.4 8.3 2 3.7.9 7.2 1.6 10.3 2.3l.1-.1c.3.1.6.1.9.2.2 0 .3.2.4.5-.1 0-.2 0-.3-.1l-2.1 10.9h.3c1.9-1.6 9.7-8.6 22.9-20.2l-5.1-6z" class="color1871ad svgShape"></path>
            <path fill="#dbeafe" d="M173.1 334.4c3.2 29.4-21.4 35.8-22.2 36l-2.3-5.5c10.6-4.3 19.8-16.6 17-33.1 2.6-1.3 5.2-2.9 7.5-4.5 4.1-3 9.4-8.8 9-12.8 3.1 8.8-9 19.9-9 19.9z" class="colordbdbdb svgShape"></path>
            <path fill="#1851ad" d="m143.5 366.5 3.1 9.5s3.1-.5 5.6-1.7l-4-9.5-4.5 1.3-.2.4z" class="color1871ad svgShape"></path>
            <path fill="#dbeafe" d="m189 266.7 38.1 3.8L239 303c0 .1 0 .3.3.8l26.9 73.8 6.7 18.3-90.5-6.8c.1-.1.1-.2.1-.2s89.5-6.3 6.5-122.2z" class="colordbdbdb svgShape"></path>
            <path fill="#6d7d90" d="M322.4 188.1c-2.2-1.4-5.6-1.7-7.9-1.7 4.7-5.6 7.4-13.1 7.4-20.8 0-16.9-12.4-30.7-27.6-30.7-.8 0-1.5 0-2.3.1 14.1 1.3 25.3 14.5 25.3 30.6 0 9.8-4.3 19.1-11.4 24.8 1.1.1 2.1.2 3 0 .6-.2 1.2-.2 1.7-.1.4-.4.9-.7 1.3-1.1 4.4-.7 10.5-1.1 10.5-1.1z" class="color6d9077 svgShape"></path>
            <path fill="#285cb2" d="M200.4 93.3c-4.4 4.5-8.7 9.9-13 25.1-.8.3-7.4 2.8-15.4 2.1-7.7-.6-18.3-4.4-24.7-19-.1-.3-.2-.6-.3-1-.6-2.1-1.5-5.1 2.8-7.2.1 0 .2-.1.5-.2.4-.2 1-.4 1.9-.7 2.7-.8 6.3-1.2 10.9-1.4 8.9-.3 21.3.4 37.3 2.3z" class="colorb22828 svgShape"></path>
            <path fill="#76b3ff" d="M253 64.4C232.7 67.2 178.7 91 178.7 91l-12.1-.3c-3.6.1-6.7.4-9.2.8 8.1-3 29.4-10.9 49.2-17.3h.1v-.1c18.5-6 31.1-9.2 37.4-9.6 1.6-.4 4.6-.6 8.7-.5l.2.4zm98.5-62.7 1.7.3c-4.3-.1-7.7 2.4-9.6 9.4-.6-.4-2-1.1-2.6-1.5.1-.8.8-5.2 4-7.4 1.7-1.2 3.9-1.4 6.5-.8zm-113.2 8.7c-10.1 8.1-29.4 53.5-33.4 63.2 1.6-.3 3.2-.7 4.9-1 .2-.1.5-.1.7-.2.4-.9.8-2.3.9-2.6.6-1.6 1.3-3.2 1.9-4.7 3.3-8.1 6.6-16.2 10.4-24.2 2.9-6.1 5.9-12.2 9.5-17.9 1.8-2.8 3.5-5.8 5.9-8.2 2.4-2.4 5.5-3.8 8.6-5.1 9.1-3.9 21.2-4.7 31-5.6 5.7-.5 11.4-1.1 17-1.4-23.8-.2-49.9 1.7-57.4 7.7z" class="colorff7976 svgShape"></path>
            <path fill="#aacefd" d="M159.5 240.6c6.1-18.3 12.9-36.5 16.7-55.5 2.9-14.2 5-28.6 7.2-43 .9-6.1 1.8-12.1 2.8-18.1.6 9.7-.7 19.3-1.7 28.9-1.4 13.8-3.3 27.6-6.4 41.1-2.6 11.4-9 32.8-12.6 43.9-1.9 5.8-3.8 11.6-5.6 17.4-.9 3-1.9 5.9-2.9 8.8l-1.6-.5-3.1-.3 7.2-22.7zm-48.7 35-2-4.7c-.6.6-1.2 1.3-1.8 2-3 5.3-6.1 10.4-8.6 15.9v.1c-.2.9-.5 1.7-.8 2.6 0 .3-.1.7-.2 1-1.7 6.1 0 13.9 1.9 20.6l.6.9c-1-16.1 3.7-28.7 10.9-38.4z" class="colorccfdaa svgShape"></path>
            <path fill="#aacefd" d="M158.9 241.1c-.5 1.6-1 3.1-1.5 4.5l-.4.6s-16.2 3.7-31.3 14.7l-7.1-.6c12.8-11.6 33.7-17.6 40.3-19.2z" class="colorccfdaa svgShape"></path>
            <path fill="#76b3ff" d="M123.2 304.8s-9.8 9.6-5.1 44.8c0 0-15.4-28 2-51.8l3.1 7zm182.2-12.2s-30.5 9.6-28.3 18.1c0 0-7.5-4.2 2.4-11.4 0 0 16.8-5.6 26.7-6.9l-.8.2z" class="colorff7976 svgShape"></path>
            <path fill="#60a5fa" d="M347.6 309.7s13.5-22.3 26-29c0 0-20.6 8.7-28.6 24.2l2.6 4.8zm-26.9 52.4s-17 30.1-8.9 45.5c0 0-14-5.4 6-50.1l2.9 4.6zM170 411.7s-5.4 22.4-5.9 33.9c-3.5-1.7-6.2-3.2-7.9-4.2 1.5-8.6 4-21.7 7.7-36.2.6.7 1.3 1.5 2 2.2 1.2 1.4 2.6 2.9 4.1 4.3z" class="color63b7fc svgShape"></path>
            <path fill="#aacefd" d="M163.9 445.9c-.5 4.1-1.5 10.6-2.5 16.1 0 0-4-.7-48.2 13.9-.1 0-.2-.1-.3-.2 3.2-1.6 29.6-14.2 40.4-17.1h.1v-.1c0-.1.8-6.6 2.6-16.7 1.8.9 4.5 2.4 7.9 4.1z" class="colorccfdaa svgShape"></path>
            <path fill="#60a5fa" d="M277.7 311.9s-11.1 6.4-34.5 2.6l-3.1-9.6c2.3 2.4 9 6 29.1 6 2.1 0 4.4 0 6.9-.1.3.2.5.4.9.5.7.6-.3 0 .7.6z" class="color63b7fc svgShape"></path>
            <path d="M152 264.3h-.2c-.4-.1-.6-.5-.5-.9 2-6.7 4.2-13.7 7.2-22.7 1.2-3.6 2.4-7.1 3.5-10.6 5.4-15.9 10.4-31 12.9-43.2 3.5-17.2 5.5-31.2 7.2-42.5 1.6-10.8 2.8-19.4 4.7-26 4-14.2 8-20.2 13.4-25.7.3-.3.8-.3 1.1 0 .3.3.3.8 0 1.1-4.4 4.4-8.7 9.7-13 25-1.8 6.5-3.1 15-4.6 25.8-1.6 11.3-3.7 25.3-7.2 42.6-2.5 12.3-7.6 27.4-12.9 43.4-1.2 3.5-2.3 7-3.5 10.6-3 9-5.2 16-7.2 22.7-.2.2-.5.4-.9.4z" fill="#000000" class="color000 svgShape"></path>
            <path d="M174.7 121.6c-9.3 0-21.3-3.6-28.3-19.7v-.1c-.1-.3-.2-.6-.2-.9-.6-2.2-1.7-5.9 3.3-8.3l.2-.1h.1c.5-.3 1.2-.5 2.1-.8l.1-.1h.2c15.9-4.5 65 1.2 146.2 16.9 5.1 1 10.6 2.1 16.4 3.2 5.7 1.1 10.6 1.8 15.6 1.8 7.2-.1 13.1-.4 18.5-1.2 4.9-.7 11.5-1.6 16-5.1.3-.3.8-.2 1.1.1.3.3.2.8-.1 1.1-4.8 3.7-11.7 4.7-16.7 5.4-5.5.8-11.4 1.2-18.7 1.2-5.2 0-10.1-.7-15.9-1.8-5.6-1.1-11.1-2.2-16.4-3.2-80.8-15.7-129.8-21.4-145.4-17h-.2c-.9.3-1.6.5-2.1.8l-.3.1c-3.7 1.8-3 4.3-2.4 6.4l.3.9c12.1 27.4 38.3 17 39.4 16.5.4-.2.8 0 1 .4.2.4 0 .8-.4 1-.4.2-6 2.5-13.4 2.5z" fill="#000000" class="color000 svgShape"></path>
            <path d="M396.6 138.6h-.2c-.4-.1-.7-.5-.6-.9 1.4-6.6 2.7-12.2 3.9-17.1 3.5-15.1 5.4-23.4 4.6-34.6-1.3-18-58.7-79.5-76.8-82.2-24.3-2.7-77.7-3.1-88.9 5.9-11.1 8.9-33.8 64.2-34 64.8-.2.4-.6.6-1 .4-.4-.2-.6-.6-.4-1 .9-2.3 23.1-56.2 34.5-65.4 11.5-9.2 65.6-9 90.1-6.2 10.4 1.6 31.1 20.3 45.6 35.9 14.5 15.6 31.7 37.4 32.5 47.7.8 11.4-1.1 19.8-4.7 35-1.1 4.9-2.4 10.5-3.9 17.1 0 .4-.3.6-.7.6z" fill="#000000" class="color000 svgShape"></path>
            <path d="M358.9 104h-.2c-.4-.1-.7-.5-.6-.9 9.5-41.2-6.1-83.5-6.3-83.9-.1-.4.1-.8.4-1 .4-.1.8.1 1 .4.2.4 15.9 43.1 6.3 84.8 0 .4-.3.6-.6.6z" fill="#000000" class="color000 svgShape"></path>
            <path d="M357.7 24.3c-.1 0-.3 0-.4-.1-.4-.2-.4-.7-.2-1.1 3.8-5.9 5.1-10.7 3.8-14.4-1.1-3-3.9-5.2-8.5-6.7-2.8-.9-5.2-.7-7 .5-3.3 2.2-3.8 7-3.8 7.1 0 .4-.4.7-.8.7s-.7-.4-.7-.8c0-.2.6-5.6 4.5-8.2 2.2-1.5 5-1.7 8.3-.7 5 1.6 8.2 4.1 9.5 7.6 1.5 4.2.2 9.4-4 15.7-.2.3-.5.4-.7.4zm-239.6 237c-.2 0-.4-.1-.6-.2-.3-.3-.3-.8 0-1.1 13.2-12.2 35-18.3 41.4-19.8.4-.1.8.1.9.6.1.4-.1.8-.6.9-6.3 1.5-27.8 7.5-40.8 19.5.1 0-.1.1-.3.1zm22.5 106c-14.4-.9-25.9-15.2-28.8-35.5-4.7-19 7.6-34.5 7.8-34.7l.2-.3h.4c.4 0 .8.3.8.8 0 .3-.1.5-.3.6-.9 1.1-11.8 15.7-7.4 33.3 2.8 19.7 13.8 33.4 27.4 34.3.9 0 1.9-.2 2.8-.3 1.6-.3 3.2-.7 4.6-1.3 10.4-4.2 19.6-15.7 16.7-31.9-.1-.4.2-.8.6-.9.4-.1.8.2.9.6 3 17.1-6.7 29.2-17.6 33.6-1.6.6-3.3 1.1-4.9 1.4-1.1.1-2.2.2-3.2.3z" fill="#000000" class="color000 svgShape"></path>
            <path d="m124.7 306.5.1 2.6-.1-.4c.1.2.4.4.7.6l.3.1s.1 0 0 0h.1l.2.1.6.2c.9.3 1.7.4 2.5.6.8.2 1.8.2 2.6.3.9.1 1.8.1 2.7.2.9.1 1.8.1 2.7.1.9 0 1.8.1 2.7.1h5.4c7.2 0 14.5-.4 21.7-.8h-.1c1.1-.1 2.3-.3 3.4-.4.6-.1 1.1-.1 1.7-.1h1.7c1.2 0 2.3.1 3.5.3 1.2.2 2.4.6 3.5 1.3.6.4 1 .9 1.4 1.5.3.6.5 1.3.5 2 0 1.4-.4 2.5-.9 3.6-1.1 2.2-2.6 4-4.1 5.6-.8.8-1.6 1.6-2.5 2.4-.4.4-.9.7-1.4 1.1-.5.4-1 .6-1.4 1-1 .6-1.9 1.3-2.9 1.8s-2 1.1-3 1.6c-2 1-4.1 1.9-6.2 2.8-2.1.8-4.2 1.6-6.4 2.2l3.1-1.4 3-1.5 3-1.5c1-.5 2-1.1 3-1.6s1.9-1.1 2.9-1.7c1-.5 1.9-1.2 2.8-1.8.4-.3 1-.6 1.4-.9.4-.3.9-.7 1.3-1 .8-.7 1.6-1.5 2.4-2.3 1.5-1.6 2.9-3.3 3.8-5.3.4-.9.8-2 .7-2.9 0-.9-.4-1.7-1.2-2.2-.8-.5-1.8-.8-2.8-1-1-.1-2.1-.2-3.2-.2-.5 0-1.1 0-1.6.1-.5 0-1.1.1-1.7.1-1.1.1-2.2.3-3.3.4-3.6.3-7.3.4-10.9.6-3.6.1-7.3.2-10.9.2-1.8 0-3.6 0-5.5-.1-.9 0-1.8-.1-2.7-.1-.9-.1-1.8-.1-2.7-.2-.9-.1-1.8-.1-2.7-.3-.9-.1-1.8-.2-2.8-.4-.9-.2-1.9-.4-2.7-.7l-.6-.2-.2-.1h-.2l-.4-.2c-.5-.3-1-.6-1.3-1.2l-.1-.2v-.2l-.1-2.5c0-.4.3-.8.8-.8.1-.1.4.3.4.7zm-12.2 25.9c-.2 0-.3-.1-.5-.2-.1-.1-13.8-11.5-15.5-28.9-1.1-11.3 2.9-22.5 12-33.5.3-.3.7-.4 1.1-.1.3.3.4.7.1 1.1-8.8 10.7-12.8 21.6-11.7 32.4 1.6 16.8 14.9 27.7 15 27.8.3.3.4.7.1 1.1-.1.2-.4.3-.6.3z" fill="#000000" class="color000 svgShape"></path>
            <path d="m274.3 396.9-117-8.7-9.7-23.1c-.2-.4 0-.8.4-1 .4-.2.8 0 1 .4l9.3 22.3 113.8 8.5L226.7 271l-121.4-10.9 20.8 49.7c.2.4 0 .8-.4 1-.4.2-.8 0-1-.4l-21.8-52 124.9 11.2 12.2 33.3h.2v.6l34.1 93.4zm-87.4 92.8c-14.8 0-53.5-1.2-74.7-13.4l-1.2-.7 1.3-.6c1.2-.6 28.6-13.9 40.4-17.2.2-1.7 1.1-7.8 2.6-16.5 1.5-8.6 4.1-21.9 7.8-36.7.1-.4.5-.7.9-.5.4.1.7.5.5.9-3.8 14.8-6.3 28.1-7.8 36.6-1.8 10.3-2.6 16.9-2.6 17l-.1.5-.5.1c-10 2.6-33.5 13.8-39.3 16.5 25.2 13.5 73.1 12.5 78.2 12.4l25.5-46.8c.2-.4.7-.5 1-.3.4.2.5.7.3 1l-26 47.5h-.4c-.1.2-2.3.2-5.9.2z" fill="#000000" class="color000 svgShape"></path>
            <path d="M208.3 461.2h-.1c-22.1-3-44.2-14.3-52.7-19.1-.4-.2-.5-.7-.3-1 .2-.4.7-.5 1-.3 6.6 3.7 29.7 15.9 52.1 18.9.4.1.7.4.7.9 0 .3-.3.6-.7.6zM346.5 512c-19.4 0-79.2-12.7-81.8-13.2l-.7-.2 8-40.8c-20.2-3.9-38.3-9.1-53.7-15.3-23.6-9.5-42.1-22-55.1-37.2-9.7-11.3-16.5-24.4-20.4-38.9-.1-.4.1-.8.5-.9.4-.1.8.1.9.5 3.8 14.3 10.5 27.2 20.1 38.3 12.8 14.9 31.1 27.3 54.5 36.7 15.5 6.3 33.8 11.5 54.2 15.4l.7.1-8 40.9c7 1.5 62.3 13 80.6 13-1.8-3.5-8.2-14.9-19.4-20.8l-.8-.4.5-.7c1.3-2 2.7-3.9 4-5.9 7.9-11.6 15.6-24.2 23.5-38.3 7.5-13.5 13.7-24.8 19.3-35.5l2.2-4.4.4-.7c3-6.1 5.9-13 8.5-20.4.1-.4.6-.6 1-.5.4.1.6.6.5 1-2.7 7.5-5.5 14.4-8.6 20.6l-.4.7-2.2 4.4c-5.6 10.7-11.8 22-19.3 35.5-7.9 14.1-15.6 26.7-23.5 38.4-1.2 1.7-2.4 3.5-3.5 5.2 13.3 7.4 19.6 21.6 19.9 22.2l.5 1h-1.1c-.6.2-1 .2-1.3.2z" fill="#000000" class="color000 svgShape"></path>
            <path d="M309.6 470.7c-20.7 0-38.8-1.5-39-1.5-.4 0-.7-.4-.7-.8s.4-.7.8-.7 41 3.3 70 0c.4-.1.8.3.8.7 0 .4-.3.8-.7.8-9.7 1.1-20.8 1.5-31.2 1.5zm-79.8-280.8s-1.7 0-4.1-.1c-.6 0-1.3-.1-2-.1s-1.4 0-2.2-.1c-.8 0-1.6-.1-2.4-.1-.4 0-.8 0-1.2-.1h-.7.1-5.3c-.8 0-1.5 0-2.2.1-.7 0-1.3.1-1.9.1h-.9c-.3 0-.5.1-.8.1-.5.1-.9.1-1.3.1s-.6.1-.8.1c-.2 0-.3.1-.3.1s.1 0 .3-.1c.2-.1.4-.2.8-.3.3-.1.8-.3 1.2-.4.2-.1.5-.2.8-.2.3-.1.6-.1.9-.2.6-.1 1.3-.2 2-.4.7-.1 1.5-.3 2.2-.3 1.5-.1 3.2-.1 4.8-.1h.7l.6.1c.4 0 .8.1 1.2.1.8.1 1.6.2 2.3.2.8.1 1.5.2 2.2.3.7.1 1.3.3 1.9.4 2.5.3 4.1.8 4.1.8zm92.1-.6c-1.4.2-2.8.2-4.2.4l-4.2.6c-1.4.3-2.7.5-4.1.8l-4.1 1c-1.4.4-2.7.8-4.1 1.2-.7.2-1.3.4-2 .6l-2 .7c-1.3.4-2.6 1-4 1.4-.7.2-1.3.5-2 .8l-2 .8h-.2.2c-1 .4-2 .8-2.9 1.2l-1.5.6c-.5.2-1 .4-1.5.7.4-.3.9-.6 1.3-.9.5-.3.9-.5 1.4-.8.9-.5 1.8-1.1 2.8-1.6h.2-.2c1.3-.6 2.5-1.3 3.8-1.9 1.3-.6 2.6-1.1 3.9-1.6l2-.7c.7-.2 1.3-.5 2-.7 1.4-.4 2.7-.8 4.1-1.1.7-.2 1.4-.3 2.1-.4l2.1-.4c1.4-.2 2.8-.4 4.2-.5 1.4-.1 2.9-.1 4.3-.1 1.8-.3 3.2-.3 4.6-.1zm-77.6 37.5s1.5.7 4.3 1.5c1.4.4 3.1.8 5.1 1.3 2 .4 4.2.8 6.7 1 1.2.2 2.5.2 3.9.3 1.3 0 2.7.1 4.2 0 2.9 0 5.8-.4 8.9-.9 6.1-1 12.5-2.9 18.7-5.4 6.1-2.5 12-5.7 17.1-9.2 5.1-3.5 9.3-7.5 12.4-11.3 1.5-1.9 2.8-3.8 3.8-5.5 1-1.7 1.7-3.3 2.2-4.7.5-1.3.8-2.4 1-3.1.2-.7.3-1.1.3-1.1v-.1c.1-.4.5-.7.9-.6.4.1.7.5.6.9l-.3 1.2c-.2.8-.5 1.9-1.1 3.3-.5 1.4-1.3 3-2.3 4.8-1 1.8-2.3 3.7-4 5.7-3.2 3.9-7.6 7.9-12.8 11.4-5.2 3.5-11.2 6.6-17.4 9.1-6.2 2.4-12.7 4.2-18.9 5.2-3.1.4-6.1.7-9 .7-1.4.1-2.8 0-4.2-.1l-3.9-.3c-2.5-.2-4.7-.7-6.7-1.1-2-.4-3.7-.9-5.1-1.3-2.9-1-4.4-1.7-4.4-1.7z" fill="#000000" class="color000 svgShape"></path>
            <path d="M328.4 186.4s.9.1 1.9.6c.5.2 1.2.6 1.8.9l.9.6c.3.2.6.5.9.7.3.3.6.5.8.8.3.3.5.6.8.8.5.5.9 1.1 1.2 1.7.6 1 .8 1.9.8 1.9s0 .1-.1.1h-.1s-.6-.5-1.4-1.3c-.4-.4-.9-.9-1.4-1.3-.5-.5-1.1-1-1.7-1.4-1.1-1-2.3-2-3.2-2.7-.9-.7-1.4-1.2-1.4-1.2v-.1c.1-.1.1-.1.2-.1zm-109.6-4.9s0-.1-.1-.2c0-.1-.1-.3-.2-.6-.1-.6-.2-1.3 0-2.3.1-.5.2-1 .5-1.5s.6-1.1 1.1-1.6c.5-.5 1.1-1 1.8-1.3.7-.3 1.5-.5 2.3-.5H224.8l.4.1c.3.1 1 .2 1.3.4.8.3 1.4.8 1.9 1.3 1 1.1 1.3 2.2 1.5 3.1.2.9.1 1.7 0 2.2-.1.5-.2.9-.2.9s-.3-.2-.7-.5c-.4-.3-.9-.8-1.5-1.3-.3-.2-.6-.5-.9-.7-.3-.2-.6-.4-.9-.5-.3-.1-.5-.2-.8-.2-.2-.1-.1 0-.3 0h-.4.1-.2c-.3 0-.6 0-.8.1-.3 0-.5.1-.8.3-.6.3-1.2.7-1.8 1.2-.6.5-1.1 1-1.5 1.3-.1 0-.4.3-.4.3zm58.2 1.2v-.3c0-.2 0-.5.1-.8.1-.7.4-1.6 1.1-2.7.3-.5.7-1.1 1.2-1.6s1.1-1 1.9-1.4c.8-.4 1.7-.7 2.6-.8 1-.1 2 0 2.9.3l.3.1.2.1.2.1h.1l.5.2c.4.2 1 .6 1.3.9.8.6 1.4 1.4 1.8 2.2.8 1.6.9 3.1.8 4.3-.1 1.2-.3 2.1-.5 2.8-.2.6-.4 1-.4 1s-.2-.3-.5-.9l-1.2-2.4c-.2-.5-.5-.9-.8-1.4-.3-.4-.6-.9-.9-1.2-.3-.3-.6-.6-1-.8-.2-.2-.2-.1-.5-.3l-.5-.2h-.1c-.1 0 .2.1.1 0H285.4c-.5-.2-.9-.2-1.3-.2s-.9 0-1.4.1c-.9.2-1.9.7-2.8 1.1-.9.5-1.6 1-2.2 1.3-.4.3-.7.5-.7.5z" fill="#000000" class="color000 svgShape"></path>
            <path d="M223.6 189.8c-.4 0-.7-.3-.8-.7-.1-.4.2-.8.6-.9 8.5-1.2 14.9-9.9 14.9-20.2 0-11.2-7.6-20.4-16.9-20.4s-16.9 9.1-16.9 20.4c0 9.4 5.3 17.6 12.9 19.8.4.1.6.5.5.9-.1.4-.5.6-.9.5-8.2-2.4-14-11.2-14-21.3 0-12.1 8.3-21.9 18.4-21.9s18.6 10 18.6 22.1c0 11.1-7 20.5-16.2 21.8-.1-.1-.1-.1-.2-.1zm65.6 7.9c-15.7 0-28.5-14.2-28.5-31.6 0-17.4 12.8-31.6 28.5-31.6s28.5 14.2 28.5 31.6c0 10.2-4.5 19.8-12 25.7-.3.3-.8.2-1.1-.1-.3-.3-.2-.8.1-1.1 7.1-5.6 11.4-14.8 11.4-24.6 0-16.6-12.1-30.1-27-30.1s-27 13.5-27 30.1 12.1 30.1 27 30.1c.4 0 .8.3.8.8 0 .4-.3.8-.7.8zm30.6-73.4-.5-.3s-.5-.3-1.3-.9l-1.5-1c-.5-.3-1-.7-1.6-1l-.3-.2c-.3-.1-.5-.3-.8-.5-.5-.3-1-.6-1.5-.8-.9-.3-1.8-.7-2.8-1.1-.9-.3-2-.5-3-.8-.4 0-.8-.1-1.2-.2-.7-.1-1.4-.2-2.1-.2h-.3c-1-.1-2.1-.1-3.1 0-.9 0-1.7.2-2.5.3-.3 0-.5.1-.8.1-1 .2-2 .5-2.9.8-.8.3-1.7.6-2.5 1-.4.2-.8.4-1.2.5-.3.2-.6.3-1 .5l-.5.3c-.3.2-.6.4-.9.5-.8.5-1.2.8-1.2.8l-.5.4-1.3-1.1v-1l.1-.3c0-.3.1-.8.3-1.3.3-1.1 1-2.8 2.6-4.7.4-.5.8-.9 1.2-1.2.4-.3.8-.6 1.2-1l.3-.2c1-.7 2.2-1.4 3.8-2.1 1.2-.4 2.5-.9 3.9-1.2.4-.1.8.2.9.6.1.4-.2.8-.6.9-1.3.2-2.5.7-3.7 1.1-1.4.6-2.6 1.2-3.5 1.9l-.3.2c-.4.3-.8.6-1.1.9-.4.4-.8.7-1.1 1.1-1.5 1.7-2.1 3.3-2.3 4.1-.1.4-.2.8-.2 1.1v.3c.2-.1.5-.3.8-.5.3-.2.6-.3 1-.6l.6-.3 1-.5 1.2-.6c.8-.4 1.8-.7 2.6-1 1-.3 2-.6 3.1-.8.3 0 .5-.1.8-.1.9-.1 1.7-.3 2.7-.3 1.1-.1 2.2-.1 3.3 0h.2c.8 0 1.5.1 2.3.2.4.1.8.1 1.2.2h.1c1.1.3 2.2.6 3.2.9 1.1.4 2 .8 2.9 1.2.6.3 1.1.6 1.6.9.3.2.5.3.8.5l.3.2c.6.4 1.2.7 1.7 1.1l1.4 1c.3.2.5.4.7.5v-.3c0-.3 0-.6-.1-1l-.1-.4c-.1-.5-.2-1-.4-1.6-.1-.3-.3-.7-.5-1.1-.1-.3-.3-.5-.5-.8l-.2-.3c-.6-.8-1.2-1.7-2-2.4-.5-.4-1.1-.9-1.7-1.3-.3-.2-.4-.7-.2-1.1.2-.3.7-.4 1.1-.2.7.5 1.3 1 1.9 1.4 1 .9 1.6 1.8 2.2 2.7l.3.4c.2.3.4.6.6 1 .3.5.4.9.5 1.3.2.6.4 1.2.5 1.7l.1.4c.1.5.1.9.2 1.3v1.2l-1.4.8zm-97.6 11.6c-1.4 0-2.5-.1-3.5-.2-1.6-.1-3.1-.5-4.7-.9-1.5-.4-2.8-.9-3.8-1.4-.5-.3-1-.5-1.5-.8l-.3-.2c-.4-.2-.7-.5-1-.7-1.7-1.3-2.4-2.5-2.7-3.3-.2-.3-.2-.7-.3-.9v-.2c-.1-.4 0-.7 0-.7l.1-.3 1.3-.8.4.2s.4.2 1.2.5c.2.1.5.2.8.3.2.1.5.2.7.3.2.1.4.1.7.2.4.1.8.3 1.3.4.8.3 1.7.5 2.5.7.8.2 1.7.3 2.6.5l.8.1c.9.1 1.8.2 2.7.2 1 .1 1.9 0 2.8 0h.6c.7 0 1.4-.1 2.1-.2.4 0 .9-.1 1.3-.1 1-.2 2.1-.4 3.1-.6l.8-.2c.7-.2 1.4-.4 2-.6.5-.2 1-.3 1.4-.5l.9-.3.5-.2c.5-.2 1-.4 1.4-.6l1.5-.7c.8-.4 1.3-.6 1.3-.6l.3-.2 1.4.8v1.2c0 .2-.1.6-.2.9v.1c-.1.4-.3.9-.6 1.4-.1.2-.3.6-.5.9-.2.2-.4.4-.6.7l-.2.2c-.7.6-1.3 1.3-2.3 1.9-1.1.6-2.2 1.2-3.3 1.7-.7.3-1.4.5-2.1.7h-.2c-.7.2-1.3.4-2.1.5-1.8.3-3.3.5-5 .6-.5.2-1 .2-1.6.2zm-16.2-8.4c0 .1.1.3.1.4.2.6.8 1.6 2.2 2.7l.9.6.2.2c.4.2.9.5 1.4.7.9.5 2.1.9 3.5 1.3 1.5.4 2.9.7 4.4.8 1 .1 2 .2 3.4.2h1.6c1.6-.1 3.1-.3 4.8-.6.6-.1 1.3-.3 1.9-.5h.2c.7-.2 1.4-.4 2-.6 1-.4 2.1-1 3.1-1.6.8-.5 1.4-1.1 2-1.6l.2-.3.5-.5c.2-.2.3-.5.4-.7.2-.4.4-.8.5-1.1l.1-.2c.1-.2.1-.4.1-.5-.2.1-.5.2-.8.4l-1.4.7c-.4.2-1 .4-1.5.6l-.5.2-.9.3-1.5.6c-.7.2-1.3.4-2 .6l-.8.2-3.3.6c-.5 0-.9.1-1.3.1-.7.1-1.4.1-2.2.2h-.6c-1 0-2 .1-3 0-.9 0-1.9-.1-2.8-.2l-.9-.1c-1-.2-1.9-.3-2.7-.5-.9-.2-1.8-.4-2.6-.7-.5-.1-.9-.3-1.4-.4-.2-.1-.5-.2-.7-.2-.3-.1-.5-.2-.8-.3l-.9-.3c-.4-.3-.6-.5-.9-.5zm60.6 249.2 28 5.4.8.2-.5.7c-.8 1.2-1.6 2.5-2.4 3.7-.8 1.3-1.5 2.6-2.2 3.9-1.4 2.6-2.6 5.3-3.7 8.1-.5 1.4-1.1 2.8-1.5 4.2-.2.7-.5 1.4-.7 2.1-.2.7-.4 1.4-.6 2.2-.4 1.4-.7 2.9-1 4.4l-.4 2.2-.3 2.2c-.1.7-.1 1.5-.2 2.2-.1.7-.1 1.5-.1 2.2 0 1.5.1 3 .2 4.5l.3 2.2c.1.7.3 1.5.5 2.2.1.7.4 1.4.6 2.2.2.7.4 1.4.7 2.1.3.7.5 1.4.8 2.1l1 2c.3.7.8 1.3 1.1 1.9.4.6.8 1.3 1.2 1.9l1.3 1.8 1.5 1.7c.2.3.5.6.7.8l.8.8 1.6 1.6-1.6-1.5-.8-.8c-.3-.3-.5-.6-.8-.8l-1.5-1.7-1.4-1.8c-.5-.6-.9-1.2-1.3-1.9-.4-.6-.8-1.2-1.2-1.9l-1-2-.9-2.1c-.3-.7-.5-1.4-.7-2.1-.2-.7-.5-1.4-.6-2.2-.2-.7-.4-1.5-.5-2.2l-.3-2.2c-.1-1.5-.3-3-.3-4.5v-2.3c0-.8 0-1.5.1-2.3l.2-2.2.3-2.2c.3-1.5.5-3 .9-4.4.2-.7.4-1.5.6-2.2.2-.7.4-1.5.6-2.2.4-1.4.9-2.9 1.5-4.3 1.1-2.8 2.3-5.6 3.7-8.3.7-1.3 1.4-2.7 2.1-4 .8-1.3 1.5-2.6 2.4-3.9l.3.8-28.1-5c-.4-.1-.7-.5-.6-.9s.9-.4 1.4-.4zm-71.3 40.6s-1.4-1.2-3-3.5c-.4-.6-.8-1.2-1.2-1.9-.4-.7-.8-1.4-1.2-2.2-.4-.8-.7-1.6-1-2.5-.3-.9-.6-1.8-.8-2.7-.3-.9-.4-1.8-.6-2.7-.2-.9-.2-1.8-.3-2.7-.1-.9 0-1.7 0-2.5s.1-1.6.2-2.3c.1-.7.1-1.4.2-1.9.1-.6.2-1.1.3-1.5.2-.8.3-1.3.3-1.3.1-.4.5-.7.9-.6.4.1.7.5.6.9v.1l-.3 1.2c-.1.4-.2.9-.4 1.4-.2.5-.2 1.2-.3 1.8-.1.7-.3 1.4-.3 2.2 0 .8-.1 1.6-.1 2.4.1.8 0 1.7.1 2.6.1.9.2 1.8.4 2.7.2.9.4 1.8.7 2.6.2.9.6 1.7.9 2.5.3.8.7 1.5 1 2.3.4.7.7 1.4 1.1 1.9 1.5 2.4 2.8 3.7 2.8 3.7zm123.9-7.2c-.8 0-1.5-.1-2.3-.2-4.2-.6-7.2-2.6-8.9-5.9-5.4-10.1 2-30.9 9.2-46.5l.1-.2.1-.1c.3-.3.8-.3 1.1 0 .3.3.3.7.1.9-10.1 22-13.3 37.6-9.2 45.1 1.6 2.9 4.1 4.6 7.8 5.1 9 1.4 17.7-6.4 22.3-14.8.8-1.5 1.5-3 2.1-4.6.7-1.8 1.5-3.6 2.5-5.3.1-.1.1-.2.2-.4.2-.4.7-.5 1-.3.4.2.5.7.3 1-.1.1-.2.3-.2.4-.9 1.6-1.7 3.4-2.4 5.1-.7 1.6-1.3 3.2-2.2 4.7-4.6 8.3-12.8 16-21.6 16zm48.4-85.7c-.1 0-.2 0-.3-.1-.4-.2-.6-.6-.4-1 8.8-22.1 21-34.2 37.3-37.1.4-.1.8.2.9.6.1.4-.2.8-.6.9-15.7 2.8-27.5 14.7-36.1 36.2-.3.3-.5.5-.8.5zm-22.3-18.8c-.2 0-.3 0-.4-.1-.3-.2-.4-.7-.2-1.1 14.3-20.4 33-30.3 60.7-31.9.4 0 .8.3.8.7 0 .4-.3.8-.7.8-27.1 1.7-45.5 11.3-59.5 31.3-.3.2-.5.3-.7.3z" fill="#000000" class="color000 svgShape"></path>
            <path d="M353.1 389.7c-1.9 0-3.8 0-5.8-.1-.4 0-.7-.4-.7-.8s.3-.8.8-.7c15.5.6 27.8-1.1 37.5-5.1 14-5.7 22.9-16.5 27.4-33.1 7.5-27.8-8.7-58.8-8.9-59.1l-.1-.2.3-3.7c.4-4.7.8-9.4 1.1-13.7 3.7-56.1.5-106.5-8.6-134.9-.3-.4-.6-.7-.9-1.1-8.8-10.5-19.1-20.2-30.4-28.8-2.1-1.6-4.2-3.1-6.2-4.5-9.2-6.4-18.3-11.9-27.1-16.1-9.2-4.5-18.2-8.3-26.5-11.3-8.1-2.9-16.7-5.2-24.3-7.1-10.8-2.8-21.2-4.4-31-4.6-5.1-.1-10.5.5-17.5 2-3 .6-6.3 1.5-10 2.5-2.7.8-5.4 1.6-8 2.4l-.8.2c-3 .9-6 1.9-9.2 2.9-22.5 7.2-47.1 16.4-51.8 18.2h-.1c-.5.2-1 .4-1.3.5-.4.2-.7.3-.9.3l-.2.1h-.2c-.4 0-.8-.3-.8-.8 0-.3.2-.6.5-.7 0 0 .1 0 .2-.1.2-.1.4-.2.8-.3.3-.1.8-.3 1.3-.5l.1-.1h.2c6.7-2.5 29.8-11.2 51.8-18.2 3.2-1 6.3-2 9.2-2.9l.8-.2c2.6-.8 5.3-1.6 8-2.4 3.7-1.1 7-1.9 10.1-2.6 7.1-1.5 12.6-2.2 17.8-2.1 9.9.2 20.4 1.8 31.3 4.6 7.6 2 16.2 4.2 24.4 7.2 8.4 3 17.4 6.8 26.7 11.4 8.9 4.3 18 9.8 27.3 16.3 2 1.4 4.1 2.9 6.3 4.6 11.4 8.7 21.8 18.4 30.7 29 .3.4.7.8 1 1.1l.2.2v.1c9.2 28.5 12.5 79.2 8.7 135.6-.3 4.4-.7 9-1.1 13.7l-.3 3.2c1.4 2.8 16.3 32.9 8.9 60-4.6 17-13.8 28.2-28.2 34.1-8.9 3.8-19.5 5.6-32.5 5.6z" fill="#000000" class="color000 svgShape"></path>
            <path d="M372.1 410.2c-5 0-17.8-2.5-27.9-26.2-.2-.4 0-.8.4-1 .4-.2.8 0 1 .4 12 28.2 28.1 25.1 28.2 25.1.4-.1.8.2.9.6.1.4-.2.8-.6.9-.1.1-.8.2-2 .2zm1.9-82.5-1.3-.8c-.4-.3-.9-.5-1.3-.7l-2.7-1.5-1.3-.8-.7-.4-.7-.3-1.4-.7c-.5-.2-.9-.5-1.4-.7l-2.7-1.3c-.5-.2-.9-.4-1.4-.6l-1.4-.6-1.4-.6-1.4-.5-2.9-.9h-.1c-.5-.3-.8-.6-1.2-1-.4-.3-.6-.7-1-1.1-.3-.4-.6-.8-.8-1.1-.3-.4-.6-.8-.8-1.2l-.7-1.2c-.2-.4-.5-.8-.6-1.2-.4-.8-.8-1.7-1.2-2.5l-1-2.6c-.2-.4-.3-.9-.4-1.3l-.4-1.3-.4-1.3-.4-1.4-.7-2.7v-14l.4.7-13.6-6.4c-.4-.2-.5-.6-.4-1 .2-.4.6-.5 1-.4l13.6 6.4.4.2v14.3-.2l.6 2.6.3 1.3.4 1.3.4 1.3c.1.5.2.9.4 1.3l.9 2.6c.3.9.7 1.7 1.1 2.5l.6 1.2.6 1.2c.2.4.5.8.7 1.1.3.4.5.8.8 1.1.3.3.5.7.9 1 .3.3.6.6.9.8h-.1l2.9 1 1.4.5 1.4.6 1.4.6c.5.2.9.4 1.4.6l2.8 1.3c.5.2.9.5 1.3.7l1.3.7.7.4.7.4 1.3.8 2.5 1.7c1.2.8 1.9 1.4 2.7 2.1z" fill="#000000" class="color000 svgShape"></path>
            <path d="m345.3 385.4-.7-.4c-.1-.1-.2-.1-.3-.2-21.5-14.1-26.9-26.2-27.1-26.7-.2-.4 0-.8.4-1 .4-.2.8 0 1 .4.1.1 5.5 12.2 26.6 26 23.2-20.7 22.2-50.2 21.3-58.8 0-.3-.1-.6-.1-.8 0-.2 0-.4-.1-.5 0-.4.3-.8.7-.8.4 0 .8.3.8.7 0 .1 0 .3.1.5 0 .2.1.5.1.8.9 8.8 2 39.2-22.2 60.4l-.5.4zm-76-74c-22.5 0-28.6-4.6-30.2-7l-.2-.4s0-.1-.1-.1c-.1-.2-.2-.4-.2-.6V303c0-.4.3-.8.8-.8.3 0 .6.2.7.5v.2h.2v.6c1.2 1.9 7.1 7.4 35.8 6.3.4 0 .8.3.8.7 0 .4-.3.8-.7.8-2.5.1-4.8.1-6.9.1zM257.4 351l4.6-11.7 23.9-26.7c.3-.3.8-.3 1.1-.1.3.3.3.8.1 1.1l-23.8 26.5-3.2 8.3 8.5-2.9 17.1-19.3c.1-.2.4-.3.6-.3.4 0 .8.3.8.8v.3l-17.6 19.8-12.1 4.2z" fill="#000000" class="color000 svgShape"></path>
            <path d="M325.7 357.5c-1.5.2-2.9.4-4.4.5l-2.2.1H318c-.4 0-.8-.1-1.1-.1-.7-.1-1.5-.1-2.2-.2-.7-.1-1.5-.1-2.2-.3l-2.2-.5c-.7-.2-1.5-.3-2.2-.6l-2.1-.7-1.1-.4-1-.5-2-1c-.7-.3-1.3-.8-1.9-1.2-.6-.4-1.3-.8-1.9-1.3l-1.8-1.4c-.6-.4-1.1-1-1.7-1.5-.5-.6-1.1-1-1.6-1.6l-1.4-1.8c-.5-.6-.8-1.3-1.3-1.9l-.6-1-.5-1c-.3-.7-.7-1.3-1-2l-.9-2.1-.7-2.2c-.2-.7-.4-1.5-.6-2.2-.2-.7-.3-1.5-.4-2.2-.1-.8-.2-1.5-.2-2.3v-2.4c.1-.7.1-1.5.2-2.2l.3-2.3c.3-1.5.5-2.9.9-4.4.4-1.5.8-2.9 1.3-4.3l.7 1c-1.1 0-2.3 0-3.4-.1s-2.3-.2-3.5-.4c-1.1-.2-2.3-.5-3.4-.9s-2.2-.9-3.2-1.7l-.3-.3-.4-.4-.3-.4-.3-.4c-.4-.5-.6-1.2-.7-1.9-.2-1.4.3-2.7 1-3.7.7-1.1 1.5-1.9 2.4-2.7.9-.8 1.9-1.4 2.9-2 .5-.3 1-.6 1.6-.8l1.5-.7 1.5-.7c.5-.2 1.1-.4 1.6-.6 1.1-.4 2.2-.9 3.2-1.2 1.1-.3 2.2-.7 3.3-1.1l3.3-.9 3.3-.9c2.2-.5 4.4-1.1 6.7-1.5l-.3.1.8-.4c.3-.1.6-.3.9-.4l.9-.3.9-.3 1.8-.5 1.8-.4c2.4-.4 4.8-.6 7.2-.8l-.6.8 13.3-15.3-.2.6-.3-1.1c-.1-.3-.2-.7-.4-1l-.3-.5c-.1-.2-.2-.3-.3-.4-.1-.1-.2-.3-.4-.4-.1-.1-.2-.2-.4-.3-.2-.1-.3-.2-.4-.2-.2-.1-.3-.1-.5-.2-.3-.1-.7-.2-1-.2-.4 0-.7 0-1.1.1-.2 0-.4.1-.5.1-.2 0-.4.1-.5.1l.3-.2-20.2 22.9c-.3.3-.8.3-1.1.1-.3-.3-.3-.8-.1-1.1l20.2-22.9.1-.1.2-.1c.3-.1.5-.1.7-.2.2-.1.4-.1.7-.1.5-.1.9-.1 1.4-.1.5 0 .9.1 1.4.2.2.1.5.2.7.3.2.1.4.2.6.4.2.1.4.3.6.4.2.2.4.3.5.5.1.2.3.4.4.6l.4.6c.2.4.4.8.5 1.3.1.4.2.9.3 1.3l.1.3-.3.3-13.2 15.3-.2.2h-.3c-1.2.1-2.4.2-3.5.3-.6.1-1.2.1-1.7.2-.6.1-1.2.2-1.7.3l-1.7.3-1.7.4c-.3.1-.5.2-.8.3l-.8.3c-.3.1-.5.2-.7.4l-.7.4-.2.1h-.1c-2.2.4-4.4.9-6.6 1.5l-3.3.8-3.2.9c-1.1.3-2.1.7-3.2 1-1.1.3-2.1.8-3.1 1.1-.5.2-1 .4-1.6.6l-1.5.7-1.5.7c-.5.2-1 .5-1.4.8-.9.6-1.9 1.2-2.7 1.9-.8.7-1.6 1.5-2.1 2.3-.5.9-.9 1.8-.8 2.7.1.4.2.9.5 1.3l.2.3.2.2.2.3.3.3c.8.6 1.8 1.1 2.8 1.4 1 .3 2.1.6 3.2.8.5.1 1.1.2 1.6.2.5.1 1.1.1 1.7.2 1.1.1 2.2.1 3.3.1h1.1l-.4 1c-.5 1.3-.9 2.8-1.2 4.2-.3 1.4-.6 2.8-.8 4.3l-.3 2.1c-.1.7-.1 1.5-.1 2.2v2.2c.1.7.1 1.4.2 2.1.1.7.2 1.4.4 2.1.2.7.3 1.4.5 2.1l.7 2 .8 2c.2.7.6 1.3 1 1.9l.5 1 .6.9c.4.6.7 1.2 1.2 1.8l1.3 1.7c.4.6 1 1 1.5 1.6.5.5 1 1.1 1.5 1.5l1.7 1.4c.5.5 1.2.8 1.8 1.2.6.4 1.2.8 1.8 1.1l1.9 1 1 .5 1 .4 2 .7c.7.3 1.4.4 2.1.6l2.1.5c1.4.4 2.9.5 4.3.7.3.1.8.1 1.1.2l1.1.1 2.2.1c1.1 0 2.6-.1 4 0z" fill="#000000" class="color000 svgShape"></path>
        </svg>
    </g>
</svg>