<svg id="SvgjsSvg1388" width="256" height="256" xmlns="http://www.w3.org/2000/svg" version="1.1" xmlns:xlink="http://www.w3.org/1999/xlink" xmlns:svgjs="http://svgjs.com/svgjs">
    <defs id="SvgjsDefs1389"></defs>
    <g id="SvgjsG1390">
        <svg xmlns="http://www.w3.org/2000/svg" viewBox="0 0 512 512" width="256" height="256">
            <path fill="#8cb0dc" d="M326.8 111.2h-.2c-.2 0-.3-.2-.3-.4v-.2c-4.6-3.5-9-7.7-14.7-9.8-.8-.3-1.7-.6-2.5-.7-6.6-1.6-13.4-.4-19.2 3.2-3.3 2-7.1 3.7-11.6 5-5 1.5-10.2 2.4-15.3 2.7-2.1-.5-4.6-.6-7.2.1-.5 0-1 0-1.5-.1.1.1.2.3.3.4h-.1c-2.4.8-4.8 1.6-7.2 2.5-4.7-3.1-8.9-5.9-9.3-6.1-1.8-.6-3.6-1.3-5.4-2.1-6.3-2.8-12-5.1-17.4-7.1-15.5-5.7-30.5-9-44.6-9.9-5.7-.4-11.2-.4-16.6 0-2.7.2-5.4.5-8 .9.2.1.3.3.2.4-.1.3-5 15.2-11.3 36.8-.9 3-1.8 6.1-2.7 9.3v.2c-6.8 23.9-14.5 53.5-19.5 80.5 0 .1-.1.1-.1.2l8.2.6 77.7 5.3c2.2.2 4.4 1.6 4.5 3.9 0 .1 2 31.2 3.9 63h.3c24.8 13.7 54.3 10.5 66.1 8.5 6.9-24.3 17.1-41.6 33-55.8 1.2-1.1 2.4-2.2 3.7-3.2 5.1-4.2 10.3-7.8 15.4-10.5-2.5-38 .4-98.3 1.4-117.6zm-137-9.9c-.9-.1-1.8-.1-2.7-.1-10 0-21.2 4.1-21.3 4.1l-.7.2.2-.7c1.2-4.6 17.7-11.4 18.4-11.7.6-.2 1.2-.4 1.7-.4 4.4 0 4.9 7.8 4.9 8.1v.4l-.5.1z" class="colorafdc8c svgShape"></path>
            <path fill="#3b82f6" d="M335.3 346.5c-.6 3.8-1 7.7-1.9 11.5-.4 1.9-.7 3.8-1.2 5.7l-1.5 5.6c-.5 1.9-1.1 3.7-1.7 5.5-.6 1.8-1.1 3.7-1.8 5.5l-2 5.4-2.2 5.4c-.7 1.8-1.5 3.6-2.3 5.3-.8 1.8-1.6 3.5-2.4 5.3-1.7 3.5-3.4 7-5.2 10.3-1.8 3.4-3.7 6.8-5.6 10.2-1.9 3.3-3.9 6.7-5.9 10-4 6.6-8.1 13.2-12.2 19.7l-5.1 8.1c-5.6-.9-11.2-1.7-16.5-2.4-12.7-1.7-24.5-2.8-34-3.5-2.1-.2-4.1-.3-6-.5l7.1-29 .1-.5h-.5c-3.3.2-6.6.5-9.9.7-3.3.1-6.6.3-10 .3-3.3.1-6.6-.1-10-.2-1.7 0-3.3-.2-5-.3-.8-.1-1.6-.1-2.3-.2-.9-.1-1.7-.2-2.6-.3l-4.9-.6-4.9-.8c-1.6-.2-3.3-.6-4.9-.9l-2.4-.5-2.4-.6c-3.2-.8-6.4-1.7-9.6-2.7-3.1-1-6.2-2.2-9.3-3.6-1.3-.6-2.6-1.2-3.8-1.8-1.7-.8-3.4-1.7-5-2.7-1.4-.9-2.9-1.6-4.2-2.6-1.4-.9-2.8-1.8-4.1-2.8-1.3-1-2.7-2-3.9-3.1-1.3-1.1-2.5-2.1-3.7-3.3-1.2-1.1-2.4-2.3-3.5-3.5l-1.7-1.8-1.6-1.9c-2.1-2.5-4-5.3-5.8-8.1-1.7-2.8-3.3-5.7-4.7-8.7-1.4-3-2.6-6.1-3.6-9.2-1-3-1.7-6-2.3-9.1l5.9.4 4.6.3 17.9 1.1c5.9-9.1 17.1-14.2 27.7-15.8 11.1-1.6 22.3-2.4 33.4-3.8l.1-.1c-.9 0 .2-.6.9-.8 3.4-3 6.6-5.1 10.3-6.8-.7-11.6-1.6-25.8-2.5-39.9 2.7 1.5 5.4 2.7 8.1 3.8 12.5 5 25.6 6.5 36.6 6.5 9 0 16.6-1 21.4-1.8-.1.4-.3.9-.4 1.3-2.9 10.7-5.2 25.5.6 35.9.6 1.1 1.3 2.2 2.2 3.1 3.2 3.8 7.9 5.9 12.7 5.9.7 0 1.4 0 2.1-.1 6.3-.8 11-5.1 12.7-11.6.8-3.2 1.1-6.6 1.1-10 2.6 4.4 12.6 18.9 30.9 23.1h.1c.3.1.4.1.5 0z" class="color3193f6 svgShape"></path>
            <path fill="#285cb2" d="M118.1 97.3c-.8.4-1.7.7-2.6 1.1-2.9 1.2-5.8 2.4-8.1 4-3.1 2.2-5.4 4.2-6.9 6.2l-.1.1c-2 2.6-2.5 5-1.5 7.1 4.1 8.8 32.2 10.9 35.2 11.1 6.4-21.8 11.3-36.9 11.4-37.2 0-.1.1-.1.1-.1-5.7.8-11.2 2-16.3 3.5-3.6 1.1-7.4 2.5-11.2 4.2z" class="colorb22828 svgShape"></path>
            <path fill="#a4a7aa" d="M210.4 356.8c-.1-1.3-8.1-129.7-8.1-130-.1-1.9-2-3-3.9-3.2l-101.9-7c-2.6 0-5 .8-6.8 1.6 9.6.7 105.1 7.6 105.2 7.6.7 0 2.3.3 3.3 1.4.5.6.7 1.4.8 2.2 0 .2.1.3.1.5 0 0 8.2 128.2 8.3 128.8 0 .5 0 1.1-.2 1.7 3-1.4 3.2-3.5 3.2-3.6z" class="colora4aaaa svgShape"></path>
            <path fill="#3b82f6" d="M327.8 249.5c-3.3 2.1-6.4 4.7-9.4 8.2-8.7 10.1-12.4 23.3-14 32.7-.2 1-.4 2-.5 3-.7 3.8-1.4 7.7-1.4 11.8 0 2.8.2 5.6.4 8.4.5 6.6.9 13.4-.7 19.6-1.2 4.5-3.9 7.9-7.6 9.7-1.4.7-2.9 1.1-4.5 1.3-.5.1-1 .1-1.4.1-6 .2-11.7-3.1-14.7-8.6-5.6-10.1-3.4-24.8-.5-35.3 5.3-19.5 12.7-34.6 23.2-47.1 3.1-3.7 6.5-7.1 10.1-10.5.8-.7 1.5-1.3 2.3-2 5.4-4.6 10.9-8.5 16.3-11.5.6 8.1 1.4 15 2.4 20.2z" class="color3193f6 svgShape"></path>
            <path fill="#bfdbfe" d="M206.6 358.8c0-.6-8.3-128.8-8.3-128.8 0-.1-.1-.3-.1-.4-.1-.7-.2-1.4-.6-1.8-.6-.7-1.6-1.1-2.8-1.2 0 0-3.2-.2-8.4-.6-4.2-.3-9.6-.7-15.9-1.1-31-2.2-80.8-5.8-81.5-5.9-.3 0-.6 0-.9.1-.4.2-.7.4-.8.5-.4.4-.6.9-.5 1.6 0 .1 2.5 29.6 2.6 30.9l1.1 13.1h.2c2.8-.1 5.6-.2 7.5-.1 3.5.1 5.4.4 7.7 2.9 2.8 3 3.8 9 .9 12.2 2.7 2.5 4.4 6.5 4.4 10.2-.1 2.5-1 6.2-4.8 9.3 1.4 2.3 2.1 5 1.7 7.4-.3 1.7-.9 3.3-1.9 4.5-2.5 3.1-6.5 4.9-11.3 5.1l2.3 27.7.7 8c.1.4.1.9.3 1.3.3.8 1.2.8 2.2.9.9 0 1.8.1 2.7.2.6 0 1.3.1 1.9.1.7 0 1.5.1 2.2.1l1 .1 95.7 6.2c1.1 0 1.8-.1 2.2-.5.5-.5.5-1.4.5-2zM98.9 225.6c3-.3 5.6 2.1 5.6 5.2 0 2.9-2.3 5.2-5.1 5.2h-.5c-2.6-.3-4.6-2.5-4.6-5.2.1-2.7 2.1-5 4.6-5.2zm9.9 9.1h-.3c-.4 0-.8-.2-1.1-.4-.9-.5-1.5-1.5-1.5-2.6 0-1.5 1.1-2.8 2.6-2.9 1.7-.2 3.2 1.2 3.2 2.9v.5c-.3 1.5-1.5 2.5-2.9 2.5z" class="colord2d2d2 svgShape"></path>
            <path fill="#3b8eec" d="M252.7 12.2c-.9-.2-1.9-.4-2.8-.6h-.1c-5.1-1-10.1-1.8-14.7-2.3-1.1-.2-2.2-.3-3.3-.3.1-1 .5-4.5 2.7-6.4 1.3-1.1 3-1.5 5-1.3.7.1 1.3.2 2 .2 1.9.3 3.6.5 5.1.9 2.4.6 4.1 1.4 5.1 2.8 1.2 1.4 1.5 3.7 1 7z" class="colorec4a3b svgShape"></path>
            <path fill="#3b82f6" d="m194.8 425-17.2 28c-3.7-1.6-8.4-3.5-14-5.6-7.7-2.9-17.3-6.1-28.8-9.3-2-.6-4.1-1.2-6.3-1.7 3.6-8.7 7.9-18.8 12.5-29.4.7.5 1.4.9 2 1.4 1.3.9 2.8 1.8 4.3 2.6 2.9 1.7 5.9 3.2 8.9 4.5 3.1 1.3 6.2 2.5 9.3 3.6 3.1 1 6.2 1.9 9.3 2.7.1 0 .2.1.3.1l2.4.6 2.4.5c1.6.3 3.3.7 4.9.9l4.9.8 5.1.3z" class="color3193f6 svgShape"></path>
            <path fill="#8cb0dc" d="m177.2 453.7-20.8 33.9c-2.1.4-24.6 4.4-48.4-2.5-.6-.2-1.1-.3-1.7-.5-6.2-1.9-12.6-4.7-18.6-8.5-.2-.1-.5-.3-.7-.4 3-1.2 16-6.3 28.8-8.9h.2l.1-.2c.1-.2 4.8-12.1 12-29.5 2.2.6 4.2 1.1 6.3 1.7 11.5 3.2 21 6.4 28.8 9.3 5.7 2.1 10.3 4 14 5.6z" class="colorafdc8c svgShape"></path>
            <path fill="#eff6ff" d="M202 148.6c0-14.4-10.3-26-23-26s-23 11.7-23 26c0 14.4 10.3 26 23 26 12.6 0 23-11.7 23-26zM174.8 159c-3.4 0-6.2 2.6-6.3 6 0 .2-.1.3-.4.4-.2 0-.4-.2-.4-.4.2-3.8 3.3-6.8 7.1-6.8h.4c3.9.2 6.9 3.5 6.7 7.5 0 .2-.2.4-.4.4s-.4-.2-.4-.4c.2-3.5-2.5-6.5-6-6.7h-.3z" class="colorfff svgShape"></path>
            <path fill="#4f5c72" d="M189.4 100.5c-.2-1.6-1-7-4.1-7-.4 0-.9.1-1.4.3-4.4 1.8-15.3 6.9-17.6 10.5 2.8-1 12.2-3.9 20.7-3.9.9.1 1.6.1 2.4.1z" class="color4f7258 svgShape"></path>
            <path fill="#eff6ff" d="M231.3 183.4c13.1 0 23.7-12.5 23.7-27.9 0-15.4-10.6-27.9-23.7-27.9s-23.7 12.5-23.7 27.9c0 15.4 10.6 27.9 23.7 27.9zm-5.2-18c1.8.7 3.2 2 3.9 3.8.8 1.7.8 3.7.1 5.4-.1.2-.2.2-.4.2h-.1c-.2-.1-.3-.3-.2-.5.6-1.6.6-3.3-.1-4.9-.7-1.6-1.9-2.7-3.5-3.4-3.3-1.3-6.9.4-8.2 3.6-.1.2-.3.3-.5.2-.2-.1-.3-.3-.2-.5 1.4-3.5 5.6-5.4 9.2-3.9z" class="colorfff svgShape"></path>
            <path fill="#3b8eec" d="M293 91.1v.2c-.2 0-.3.1-.4.2-12.5-5.1-27.1-9.5-41.7-13-32.2-7.7-64.8-11.1-75.7-7.5-6.7 1.7-12.8 3.4-18.4 5.1-2.1.6-4.1 1.3-6 1.9 6.4-23.2 14.9-46.2 33.8-58.8 11.1-7.4 25.3-10.7 42.7-9.9 9.6.4 20.3 2.1 32 5.1 2.1.5 4.2 1.1 6.3 1.7l.2.1c7.8 2.2 16.3 4.6 24.6 7.8 5.6 15.2 10.5 39.1 2.6 67.1z" class="colorec4a3b svgShape"></path>
            <path fill="#285cb2" d="M321.4 44.1c-7.5-9.1-18.5-15.2-30.1-19.7 5.5 15.3 10.3 39.1 2.4 67 0 .1-.1.1-.1.1.1.1.2.4.2.6 6.4 2.7 12.1 5.5 17.1 8.4 5.7 2.1 11.1 5.8 15.7 9.3.1-.6.3-1.1.4-1.7.7-1.9.7-1.8.7-1.9 0-.2-.1-.7.1-.7.1 0 .4-1.4.5-1.3 1.1-4.9 1.4-8.9 2-13.3 2.8-20.9-.1-36.2-8.9-46.8z" class="colorb22828 svgShape"></path>
            <path fill="#3b8eec" d="M307.8 99.5c-6.4-1.5-12.4-.5-18.2 3.1-3.2 2-7 3.6-11.4 4.9-8.1 2.4-16.5 3.2-24.7 2.6-7.1-.6-14-2.3-20.5-5.2-6.3-2.8-12-5.1-17.4-7.1-17.5-6.4-34.4-9.8-50.1-10.2-3.9-.1-7.7 0-11.5.3-8.9.7-17.2 2.2-24.9 4.5-3.4 1-6.9 2.3-10.5 3.8-.3.1-.6.3-.9.4-.8.4-1.7.7-2.5 1.1-2.9 1.2-5.9 2.4-8.3 4.1-1.3.9-2.3 1.7-3.4 2.6 6.3-6.8 24.2-20.8 71.8-32.7 2.3-.8 5.6-1.2 9.7-1.3 14.1-.5 37.2 2.4 60.9 7.7 22.9 5.2 46.1 12.6 61.9 21.4z" class="colorec4a3b svgShape"></path>
            <path fill="#4f5c72" d="M253.3 110.8c-4.3-.4-8.5-1.1-12.6-2.3 4.9 3.2 16.1 10.6 20.1 13.3-.4-1.4-1.9-4.8-7.5-11z" class="color4f7258 svgShape"></path>
            <path fill="#8cb0dc" d="M378.3 296.1c-.8 1.4-1.7 2.9-2.5 4.3-.8 1.2-1.6 2.5-2.4 3.7l-1.2 1.8c-.4.6-.9 1.1-1.3 1.7-.9 1.1-1.8 2.3-2.7 3.4-.9 1-1.9 2.1-2.9 3.1-2 2-4.2 3.7-6.4 5.1-2.3 1.4-4.6 2.6-7.1 3.4-4.8 1.7-9.9 1.8-14.2.8-2.2-.5-4.1-1.3-6-2.2l-1.2-.6-.6-.3c-.3-.2-.6-.3-.9-.5-.6-.4-1.2-.8-1.8-1.1h-.1c-.2-.1-.4-.2-.5-.4-3-2.1-5.3-4.3-7.2-6.1-1.9-1.9-3.3-3.4-4.2-4.4-.1-.1-.2-.3-.3-.4-.2-.2-.4-.4-.5-.6l-.6-.6c0-.1-.1-.1-.2 0-.1 0-.1.1 0 .2 0 0 .5.6 1.4 1.6.9 1.1 2.3 2.6 4.2 4.5 1.9 1.9 4.2 4.1 7.2 6.3 2.7 1.9 6 3.8 9.8 4.9l.1 11.4c-.3 3.7-.5 7.3-.9 11 0-.1-.1-.1-.2-.1-20.6-4.7-30.4-22.7-31.1-23.9 0-2.8-.2-5.5-.4-8.3-.2-2.8-.4-5.6-.4-8.4 0-4 .6-7.7 1.4-11.6l.6-3c1.6-9.3 5.2-22.4 13.8-32.4 2.7-3 5.4-5.5 8.3-7.4.2-.2.5-.3.8-.5.1.6.2 1.1.4 1.7v.1c.3.5 5.6 9.3 12.3 13.6 2.2 1.4 4.5 2.3 6.8 2.3h.3c3.1-.1 5.8-1.9 8.2-5.3.6 1.2 1.2 2.6 1.9 4.1 3.5 7.2 9.2 17.1 17.1 25.8 1 1.1 2.1 2.2 3.2 3.3zM89 252s-9.2 2.1-14.3 17.2L89 252z" class="colorafdc8c svgShape"></path>
            <path fill="#3b8eec" d="M105.9 299.5c.8 1.2 1.3 2.4 1.6 3.7.2.8.3 1.6.3 2.5v1.4c-.2 1.6-.9 3.1-1.9 4.3-1.9 2.4-4.6 3.8-7.5 4.5-1.1.3-2.2.6-3.5.8l-.1-.2h-2c-.5-.2-1-.3-1.5-.3-.3 0-.6 0-.9.1-3.2-.4-6.4-1-9.3-2.5-5.5-3-10-9.2-11.9-15.1-2-6.3-2.1-13.3 0-19.6 1.7-5.1 4.2-8.6 6.9-11.1.3-1.5 2.4-11.8 12.6-15.6.3-.1.5-.2.8-.3l.6 9.8v.8l.2 3.1c1.3 0 4.6-.3 8-.1 1.5 0 2.9.2 4.3.5 2.6.5 4.2 2.7 5 5.4.8 2.6.9 5.6-1.3 8.6 0 0 4.8 4.1 4.4 10 0-.1.4 5.2-4.8 9.3zm337.6-72.9c-.1.7-.1 1.4-.3 2.2-.3 1.5-.9 3.1-1.8 4.7-1.7 3.2-4.5 6.3-8 9.1s-7.6 5.5-12.1 8.1c-2.3 1.3-4.6 2.6-7 3.9-2.4 1.3-4.8 2.6-7.3 3.9-1.3.6-2.6 1.3-3.8 1.9l-1.9 1.1c-.6.3-1.3.7-1.9 1.2-2.4 1.7-4.3 4.1-5.9 6.7l-9 15.6c-1.5 2.6-3 5.2-4.4 7.9-.5.9-1 1.8-1.6 2.7-1.1-1.1-2.2-2.3-3.3-3.4-7.9-8.7-13.5-18.6-17-25.8-.8-1.6-1.4-3-2-4.2.3-.5.6-1.1.9-1.7.1-.1 6.6-13.5 12.1-23.6 3.1-5.6.9-10.5-1.1-15.3-.8-1.8-1.6-3.6-2.1-5.5-1.1-4 0-7.6 1.3-11.4.5-1.5.9-3 1.3-4.5.9-4.1 1.3-8.5 1.2-13.8v-.6c.4-.8 1.2-1.2 2.4-1.1.9 0 1.9.3 2.9.8 3.7 1.7 8 5.7 9.9 10.6 1.5 3.8 2.1 9.4-3.3 14.9l-.4.4.6.2s3 1 5.8 3.4c.1 0 .1-.1.2-.1.2-.1.3-.2.5-.3-.7-.6-1.4-1.1-2.1-1.6.8-.5 2.6-1.5 5.1-2 1.7-.4 3.8-.5 6.1-.1.3-.1.5-.2.8-.2.2-.1.4-.1.7-.2-.8-.2-1.5-.4-2.2-.5 3.3-1.3 6.7-2.7 10.2-4.3 1.8-.8 3.6-1.8 5.3-2.7 3.3-1.8 6.7-3.7 10.4-4.3 3.1-.5 8.1 1.2 9.5 3.8.6 1.1.5 2.3-.4 3.6-.2.4-.5.7-.9 1.1l-.4.4c.1 0 .1.1.2.2s.3.2.4.3c.1-.1.3-.2.4-.4.6-.6 1-1.1 1.2-1.7 1.9 1.2 5.9 3.9 6.4 7.5.2 1.5-.2 3-1.2 4.5-.3.4-.6.8-.9 1.1-.3.3-.6.6-.9 1v.4c0 .3-.1.6-.1.9.3-.3.5-.6.8-.8.3-.3.6-.6.8-.9.6-.7 1.1-1.3 1.4-2-.1.2-.1.3.1.4 0 0 .6.5 1.5 1.5s2.1 2.7 2.5 5.2c.5.4.4 1.1.4 1.8z" class="colorec4a3b svgShape"></path>
            <path fill="#8cb0dc" d="m288.1 510.5-8.4.2c-1.5 0-3.1.1-4.6.1l-4.6-.2-4.6-.2c-1.5-.1-3.1-.1-4.6-.2l-9.2-.9-2.3-.2-1.1-.2-1.2-.2-4.6-.7-4.6-.7-4.6-.8-4.6-.8-4.5-1c-2.9-.6-5.8-1.3-8.7-2l12-48.5c1.9.1 3.9.3 6 .5 9.4.7 21 1.9 33.7 3.5 1.2.2 2.4.3 3.6.5 4.2.6 8.6 1.2 12.9 1.9l-.6 1c-2 3.3-4.1 6.6-6 9.9l-2.9 5-2.8 5.1-1.4 2.6c-.4.9-.8 1.8-1.3 2.6l-2.5 5.3-.1.3.3.2c1 .6 2 1.2 3 1.9l2.9 2.1c1 .7 1.9 1.5 2.8 2.3.9.7 1.9 1.5 2.8 2.3 3.3 3.1 6.6 6.1 9.8 9.3z" class="colorafdc8c svgShape"></path>
            <path fill="#6d7d90" d="M206.5 144.1c-1.9-12.2-11.3-21.6-22.7-21.6-.8 0-1.7 0-2.4.2-.5.1-1.1.1-1.6.3 10.8 2.2 19 12.8 19 25.6s-8.2 23.5-19 25.6c.5.1 1 .2 1.6.3.8.1 1.6.2 2.4.2 9.2 0 17.2-6.2 20.8-15 1.4-3.4 2.2-7.1 2.2-11 .1-1.6 0-3.1-.3-4.6zm29.7-16.4c-.8 0-1.6 0-2.4.1-.5.1-1 .2-1.6.3 11.1 2.3 19.7 13.7 19.7 27.4s-8.5 25.2-19.7 27.4c.5.1 1 .2 1.6.3.8.1 1.6.1 2.4.1 13 0 23.7-12.5 23.7-27.8-.1-15.3-10.7-27.8-23.7-27.8z" class="color6d9077 svgShape"></path>
            <path fill="#c5c9cf" d="M181.4 122.7c-.8-.1-1.6-.2-2.5-.2-.5 0-1.1 0-1.6.1.8.1 1.7.2 2.5.4 10.8 2.2 19 12.8 19 25.6s-8.2 23.5-19 25.6c-.8.2-1.6.3-2.5.4.5 0 1 .1 1.6.1.8 0 1.7 0 2.5-.2C193 173.1 202 162 202 148.6c0-13.4-9-24.5-20.6-25.9z" class="colorcfc5cc svgShape"></path>
            <path fill="#ededed" d="M170.6 224.8c-15.1-.3-42.3.4-58.9 7.5-1.5.6-2.9 1.3-4.2 2.1-1.3.7-2.6 1.5-3.7 2.4-7.9 6.2-11.7 15.5-13 28.4h-.2L89.4 252c-.1-1.3-2.6-30.8-2.6-30.9-.1-.6.1-1.2.5-1.6.1-.1.4-.2.8-.5.3-.1.6-.1.9-.1.7.1 50.5 3.7 81.6 5.9z" class="colorededed svgShape"></path>
            <path fill="#c5c9cf" d="M233.7 127.8c-.8-.1-1.6-.1-2.5-.1-.5 0-1 0-1.6.1.8.1 1.7.2 2.5.4 11.1 2.3 19.7 13.7 19.7 27.4s-8.5 25.2-19.7 27.4c-.8.2-1.6.3-2.5.4.5 0 1 .1 1.6.1.8 0 1.7 0 2.5-.1 11.9-1.5 21.2-13.3 21.2-27.7 0-14.5-9.3-26.4-21.2-27.9z" class="colorcfc5cc svgShape"></path>
            <path fill="#0a0a0a" d="M99 235.2c2.6.3 4.7-1.8 4.7-4.4 0-2.5-1.9-4.4-4.3-4.4H99c-2.2.2-3.9 2.2-3.9 4.4s1.7 4.1 3.9 4.4z" class="color0a0a0a svgShape"></path>
            <path fill="#eff6ff" d="M108.6 233.9c1.3.1 2.3-.9 2.3-2.2 0-1.2-.9-2.2-2.1-2.2h-.2c-1.1.1-1.9 1.1-1.9 2.2 0 1.2.8 2.1 1.9 2.2z" class="colorfff svgShape"></path>
            <path fill="#285cb2" d="M252.7 12.2c-.9-.2-1.9-.4-2.8-.6h-.1c1-3.7-1.2-7.1-3.2-9.2 2.4.6 4.1 1.4 5.1 2.8 1.2 1.4 1.5 3.7 1 7z" class="colorb22828 svgShape"></path>
            <path fill="#bfdbfe" d="M107.5 303.2c.2.8.3 1.6.3 2.5v1.4c-.2 1.6-.9 3.1-1.9 4.3-1.8 2.2-4.3 3.6-7 4.3 9.3-3.2 8.8-10.8 8.1-14.2.2.6.4 1.1.5 1.7z" class="colord2d2d2 svgShape"></path>
            <path fill="#0d3d8c" d="M288.3 324.9c-3.8 0-6.9 3.1-6.9 6.9s3.1 6.9 6.9 6.9c3.8 0 6.9-3.1 6.9-6.9 0-3.8-3.1-6.9-6.9-6.9zm-1 9.7c-.5.5-1.2.5-1.7 0s-.5-1.2 0-1.7 1.2-.5 1.7 0c.5.4.5 1.2 0 1.7zm0-3.8c-.5.5-1.2.5-1.7 0s-.5-1.2 0-1.7 1.2-.5 1.7 0c.5.4.5 1.2 0 1.7zm3.8 3.8c-.5.5-1.2.5-1.7 0s-.5-1.2 0-1.7 1.2-.5 1.7 0c.5.4.5 1.2 0 1.7zm0-3.8c-.5.5-1.2.5-1.7 0s-.5-1.2 0-1.7 1.2-.5 1.7 0c.5.4.5 1.2 0 1.7z" class="color0d418c svgShape"></path>
            <path fill="#2c75ce" d="M293 91.1v.2c-.2 0-.3.1-.4.2-12.5-5.1-27.1-9.5-41.7-13 8.9-29.4 9.8-49.3 8.4-64 2.1.5 4.2 1.1 6.3 1.7l.2.1c7.8 2.2 16.3 4.6 24.6 7.8 5.6 15.1 10.5 39 2.6 67z" class="colorce332c svgShape"></path>
            <path fill="#6d7d90" d="M310 239.2c-10.2-43.7-4.3-109.2-.8-139.2.8.2 1.7.4 2.5.7 5.7 2.1 10.1 6.3 14.7 9.8v.2c0 .2.1.4.3.4h.2c-1.1 19.3-3.9 79.7-1.5 117.5-5.2 2.9-10.3 6.4-15.4 10.6zm26.2 95.8c-.3 3.7-.5 7.3-.9 11 0-.1-.1-.1-.2-.1-20.6-4.7-30.4-22.7-31.1-23.9 0-2.8-.2-5.5-.4-8.3-.2-2.8-.4-5.6-.4-8.4 0-4 .6-7.7 1.4-11.6l.6-3c1.6-9.3 5.2-22.4 13.8-32.4 2.7-3 5.4-5.5 8.3-7.4-3.2 7.2-19.3 32.4-13.3 55.5.1.1.2.3.3.4.2.2.4.4.5.6 4.1 4.9 7.7 8.1 11.8 10.9.2.1.4.2.5.4h.1c.9.6 1.7 1.1 2.6 1.6l.6.3c1.8 1 3.7 2 5.7 3l.1 11.4zM170.7 88.6c-20.3 9.2-24.2 27.2-35.8 38.2 6.3-21.6 11.2-36.5 11.3-36.8.1-.2 0-.4-.2-.4 2.6-.4 5.3-.7 8-.9 5.5-.5 11-.5 16.7-.1zm-7.4 359.5c5.6 2.1 10.2 4 13.9 5.6l-20.8 33.9c-2.1.4-24.6 4.4-48.4-2.5 4.3.2 15.5-1.3 16.7-1.4 9.5-1 17.3-4.4 23.7-11.6 3.8-4.1 6.8-8.9 9.6-13.8 1.8-3.4 3.6-6.8 5.3-10.2z" class="color6d9077 svgShape"></path>
            <path fill="#1851ad" d="M197.5 424.5c-.9-.1-1.7-.2-2.6-.3l-4.9-.6-4.9-.8c-1.6-.2-3.3-.6-4.9-.9l-2.4-.5-2.4-.6 22.1 3.7zm137.8-78c-.6 3.8-1 7.7-1.9 11.4-.4 1.9-.7 3.8-1.2 5.7l-1.5 5.6c-.5 1.9-1.1 3.7-1.7 5.5-.6 1.8-1.1 3.7-1.8 5.5l-2 5.4-2.2 5.4c-.7 1.8-1.5 3.6-2.3 5.3-.8 1.8-1.6 3.5-2.4 5.3-1.7 3.5-3.4 7-5.2 10.3-1.8 3.4-3.7 6.8-5.6 10.2-1.9 3.3-3.9 6.7-5.9 10-4 6.6-8.1 13.2-12.2 19.7l-5.1 8.1c-4.2-.7-8.3-1.3-12.4-1.8-.1 0-.3 0-.4-.1 13-20.9 25.5-42.7 34.8-65.4 2.6-6.4 5-12.9 6.9-19.5 1.4-4.8 3.8-10 3.3-15.1-.6-6.2-6.3-8.5-9.8-13.3 0 0-21.7 8.8-31.5-5.5 3.2 3.8 7.9 5.9 12.7 5.9.7 0 1.4 0 2.1-.1 6.3-.8 11-5.1 12.7-11.6.8-3.2 1.1-6.6 1.1-10 2.6 4.4 12.6 18.9 30.9 23.1h.1c.3.1.4.1.5 0z" class="color1871ad svgShape"></path>
            <path fill="#1851ad" d="m191.1 424.6.4-.1c-1.2 0-2.6-.2-4.1-.4h-.1c-14.7-2.4-40-13.2-40-13.2 3.8 5 10.3 9.4 15.7 12.4 3.5 2 7.9 3.9 8 8.4 0 1.6-6.7 16-7.3 15.7 5.6 2.1 10.3 4 14 5.6l17.2-28-3.8-.4z" class="color1871ad svgShape"></path>
            <path fill="#6d7d90" d="M278.2 501.3c-.9-.8-1.8-1.6-2.8-2.3-.9-.7-1.8-1.5-2.8-2.3l-2.9-2.1c-1-.6-2-1.2-3-1.9l-.3-.2.1-.3 2.5-5.3c.4-.9.8-1.8 1.3-2.6l1.4-2.6 2.8-5.1 2.9-5c1.9-3.4 4-6.6 6-9.9l.6-1c-4.4-.7-8.7-1.3-12.9-1.9-13.4 23.2-20 37.7-16.6 50.9.5 0 1 .1 1.5.3 1.8-.1 3.5 0 5.3.2 1.5.2 3.1.2 4.6.2l4.6.2 4.6.2c1.5 0 3.1-.1 4.6-.1l8.4-.2c-3.2-3.2-6.5-6.2-9.9-9.2z" class="color6d9077 svgShape"></path>
            <path fill="#93c5fd" d="M206.1 360.8c-.4.4-1.1.6-2.2.5l-48.5-3.1-4.6-.3-42.6-2.8-1-.1c-.7 0-1.5-.1-2.2-.1-.6 0-1.3-.1-1.9-.1-.9-.1-1.8-.1-2.7-.2-1 0-1.8-.1-2.2-.9-.2-.4-.2-.9-.3-1.3l-.7-8c89.2-10.7 89.2-118.5 89.2-118.5 5.2.4 8.4.6 8.4.6 1.2.1 2.3.5 2.8 1.2.4.4.5 1.1.6 1.8 0 .2 0 .3.1.4 0 0 8.2 128.2 8.3 128.8 0 .7 0 1.6-.5 2.1z" class="colorb7b7b7 svgShape"></path>
            <path fill="#2c75ce" d="M307.8 99.5c-6.4-1.5-12.4-.5-18.2 3.1-3.2 2-7 3.6-11.4 4.9-8.1 2.4-16.5 3.2-24.7 2.6-7.1-.6-14-2.3-20.5-5.2-6.3-2.8-12-5.1-17.4-7.1-17.5-6.4-34.4-9.8-50.1-10.2 29.8-11.3 67.2-10.3 80.4-9.5 22.9 5.2 46.1 12.6 61.9 21.4z" class="colorce332c svgShape"></path>
            <path fill="#1851ad" d="M269.2 395.4c-.4 2.1-1.7 2.4-3.4 1.6-1.4-.6-4.8-1.4-6.1-2-3.3-1.7-4.3-2.4-6.5-4.8-1.2-1.4-2-3.4-2.7-5.1-1.6-3.7-2.4-8.1-2.3-12.1.1-4.2 1.2-8.6 3.2-12.9 1-2.1 2.4-4.9 3.9-6.9v.3c0 .2-.5 1-.6 1.3-2.4 4.9-3.1 10.6-3.4 16-.5 8.3 4.4 11.9 11 15.3 2.5 1.5 7.7 4.6 6.9 9.3z" class="color1871ad svgShape"></path>
            <path fill="#6d7d90" d="M375 292.7c1 1.2 2.1 2.3 3.3 3.4-.8 1.4-1.7 2.9-2.5 4.3-.8 1.2-1.6 2.5-2.4 3.7l-1.2 1.8c-.4.6-.9 1.1-1.3 1.7-.9 1.1-1.8 2.3-2.7 3.4-.9 1-1.9 2.1-2.9 3.1-2 2-4.2 3.7-6.4 5.1-2.3 1.4-4.6 2.6-7.1 3.4-4.8 1.7-9.9 1.8-14.2.8-2.2-.5-4.1-1.3-6-2.2l-1.2-.6c-.1 0 28.5 6.9 44.6-27.9z" class="color6d9077 svgShape"></path>
            <path fill="#2c75ce" d="M375.4 185.3c3.7 1.7 8 5.7 9.9 10.6 1.5 3.8 2.1 9.4-3.3 14.9.3-.8 6.4-13.2-6.6-25.5zm13.1 29c-.7-.6-1.4-1.1-2.1-1.6.8-.5 2.6-1.5 5.1-2 2.6 2.6 6.4 15.1.4 20.3 0 0 4.2-9.1-3.9-16.4.2 0 .4-.2.5-.3zm10.6-4.1c-.8-.2-1.5-.4-2.2-.5 3.3-1.3 6.7-2.7 10.2-4.3 1.8-.8 3.6-1.8 5.3-2.7 3.3-1.8 6.7-3.7 10.4-4.3 3.1-.5 8.1 1.2 9.5 3.8.6 1.1.5 2.3-.4 3.6-.1-.3-1.1-5.4-9.8-5.3-2.5.6-8.2 4.2-13.5 6.6-3.8 1.8-4.8 2-8.6 3.8 0 0-.6-.2-1.6-.4.2-.2.5-.2.7-.3zm32.5-2.8c.6-.6 1-1.1 1.2-1.7 1.9 1.2 5.9 3.9 6.4 7.5.2 1.5-.2 3-1.2 4.5-.4-2.1-2.3-9.6-7.8-9.6l.5-.8c.1.1.3.2.4.3.3 0 .4-.1.5-.2zm11.9 19.2c-.1.7-.1 1.4-.3 2.2-.3 1.5-.9 3.1-1.8 4.7-1.7 3.2-4.5 6.3-8 9.1s-7.6 5.5-12.1 8.1c-2.3 1.3-4.6 2.6-7 3.9-2.4 1.3-4.8 2.6-7.3 3.9-1.3.6-2.6 1.3-3.8 1.9l-1.9 1.1c-.6.3-1.3.7-1.9 1.2-2.4 1.7-4.3 4.1-5.9 6.7l-9 15.6c-1.5 2.6-3 5.2-4.4 7.9-.5.9-1 1.8-1.6 2.7-1.1-1.1-2.2-2.3-3.3-3.4 2.4-3.9 10.2-17.5 12.3-22.5 4.2-9.7 13.4-13.1 23.7-18.1 12.1-5.9 25.3-13.2 28.4-21.4 0 0 2.3-7.4-2.8-9.6.3-.3.6-.6.8-.9.6-.7 1.1-1.3 1.4-2-.1.2-.1.3.1.4 0 0 .6.5 1.5 1.5s2.1 2.7 2.5 5.2c.5.4.4 1.1.4 1.8z" class="colorce332c svgShape"></path>
            <path fill="#dbeafe" d="M356 262.7c.6 1.2 1.2 2.6 1.9 4.1-11.5 13.4-17.1-1.1-17.1-1.1 2.2 1.4 4.5 2.3 6.8 2.3h.3c3-.1 5.7-1.9 8.1-5.3z" class="colorccfdaa svgShape"></path>
            <path fill="#76b3ff" d="M369.5 246.6c-4.1 9.4-7.8 15.6-11.1 19.6-.8-1.6-1.4-3-2-4.2.3-.5.6-1.1.9-1.7.1-.1 6.6-13.5 12.1-23.6 3.1-5.6.9-10.5-1.1-15.3-.8-1.8-1.6-3.6-2.1-5.5-1.1-4 0-7.6 1.3-11.4.5-1.5.9-3 1.3-4.5.9-4.1 1.3-8.5 1.2-13.8 9.2 9.2-1.9 23.6 1.9 31.2 3.6 6.9 6.7 11.5-2.4 29.2zM74.7 276c4.3-9.2 13.6-12.8 15.1-13.4-.1-.3-.2-.6-.2-.9-4.9 0-11.6 4.7-11.6 4.7.6-5.7 11-10.9 11-10.9 0-1.3-.2-2.4-.4-3.4-10.2 3.9-12.3 14.3-12.6 15.8-2.7 2.5-5.2 6.1-6.9 11.1-2.1 6.3-2 13.3 0 19.6 1.9 5.9 6.4 12.1 11.9 15.1 2.9 1.5 6.1 2.1 9.3 2.5.3 0 .6-.1.9-.1-19.1-4.9-22.8-26.7-16.5-40.1z" class="colorff7976 svgShape"></path>
            <path fill="#999999" d="M109.3 299.5c.7 1.2 1.2 2.4 1.5 3.7.2.8.3 1.6.3 2.5v1.4c-.2 1.6-.8 3.1-1.7 4.3-1.7 2.4-4.1 3.8-6.8 4.5-.9.3-2 .6-3.1.8l-.1-.2h-1.8c.8-.2 1.6-.4 2.3-.7 8.3-3.2 7.9-10.8 7.2-14.2-.2-1-.4-1.7-.4-1.7-.1 0-.2.1-.3.1-.1-.1-.1-.3-.2-.4v-.1c4.7-4.1 4.3-9.4 4.3-9.4.2-2.7-.6-5-1.6-6.8-.4-1.6-.8-2.6-.8-2.6-.2.1-.5.2-.7.2-.5-.6-.8-.9-.8-.9 2-3 1.8-6 1.1-8.6-.7-2.7-2.2-5-4.5-5.4h-.2l-.4-.4c1.3 0 2.6.2 3.9.5 2.3.5 3.7 2.7 4.5 5.4.7 2.6.8 5.6-1.1 8.6 0 0 4.3 4.1 3.9 10-.1 0 .2 5.3-4.5 9.4z" class="color999 svgShape"></path>
            <path fill="#1851ad" d="M327.2 249.2c-.3.7-.8 1.4-1.6 2-6.2 4.8-11.1 10.6-14.4 17.8-6.1 13.1-8.5 28.1-8.5 42.5 0 4.6.8 9.2.7 13.8-.1 4-.3 8.3-2.3 11.9-1.3 2.5-3.8 4-6.1 5.5 1.1-.7 2-2.5 2.6-3.6.7-1.3 1.3-2.7 1.6-4.1.8-3.4.7-7 .4-10.5-.5-5.4-.8-10.8-.9-16.2-.1-8.3 1.4-16.4 2.8-24.5 1.6-9 1.6-18.2 2.7-27.3.5-4.4 1.8-8.9 3.7-13 1.8-3.7 5-5.9 8.3-8.2 2.8-2 5.9-4.5 9.2-5.7.4 4.1.7 8.3 1.2 12.4.3 2.7 1.4 5.1.6 7.2zM219.3 363.7c-1.7 5-7 5.7-11.6 5.5-4.5-.2-9.1-.5-13.6-.7-3.9-.2-7.9-.4-11.9-.6-15.3-.9-30.6-1.9-45.8-3.2-2.2-.2-4.3-.4-6.5-.6-2.6-.2-5 .4-7.3-1.4-1.8-1.5-2.8-3.8-3.9-5.8l.5-.4 17.9 1.1c.1-.2.2-.4.4-.5l65.1 4.7c7.3.4 8.2-4.9 8.2-4.9l-1.4-26.5s.1 0 .1-.1c-.3-4.1-.5-8.6-.8-13.3v-.5c-.5-8.3-1.1-17.2-1.6-26.1 2.7 1.5 5.4 2.7 8.1 3.8.3 3.8.7 7.7 1 11.5.9 10.4 2 20.9 2.9 31.3.3 3.6.7 7.3.8 10.9 0 5.3 1 10.9-.6 15.8z" class="color1871ad svgShape"></path>
            <path fill="#2c75ce" d="M105.9 299.5c.8 1.2 1.3 2.4 1.6 3.7.2.8.3 1.6.3 2.5v1.4c-.2 1.6-.9 3.1-1.9 4.3-1.9 2.4-4.6 3.8-7.5 4.5-1.1.3-2.2.6-3.5.8l-.1-.2h-2c15.3-3.2 10.1-16.5 10.1-16.5-3.8 1.1-10.5 1.4-13.4 1.4 24.3-.8 14.9-20.5 14.9-20.5-4.5 1.5-20.3.6-20.3.6 34.4.6 14.9-15.3 14.2-15.8 1.5 0 2.9.2 4.3.5 2.6.5 4.2 2.7 5 5.4.8 2.6.9 5.6-1.3 8.6 0 0 4.8 4.1 4.4 10 0-.1.4 5.2-4.8 9.3z" class="colorce332c svgShape"></path>
            <path fill="#dbeafe" d="M132.2 136.3c-.6 3-7.6 38.6-11.4 81.2l-8.2-.6s.1-.1.1-.2c5-26.9 12.7-56.6 19.5-80.4zm-4 300.7c2.2.6 4.2 1.1 6.3 1.7-5.4 12.3-11.1 25.5-13.5 32.9 0 0-14.7 1-33.3 4.5-.2-.1-.5-.3-.7-.4 3-1.2 16-6.3 28.8-8.9h.2l.1-.2c.1-.2 4.8-12.1 12.1-29.6z" class="colorccfdaa svgShape"></path>
            <path fill="#60a5fa" d="M147.3 410.9s-6 12.8-12.5 27.2c-2-.6-4.1-1.2-6.3-1.7 3.6-8.7 7.9-18.8 12.5-29.4.7.5 1.4.9 2 1.4 1.4.8 2.8 1.6 4.3 2.5z" class="color63b7fc svgShape"></path>
            <path fill="#dbeafe" d="M227.7 454.4c1.9.1 3.9.3 6 .5-3.9 15.2-7.9 33.7-9.3 50-2.9-.6-5.8-1.3-8.7-2l12-48.5z" class="colorccfdaa svgShape"></path>
            <path fill="#60a5fa" d="M242.9 423.5s-4.4 13.1-9 30.6c-2.1-.2-4.1-.3-6-.5l7.1-29c2.3-.6 5-1.2 7.9-1.1zM151 384.8c5.3-13.5-.1-26.6-.1-26.6l-.2-.4 4.6.3c3.8 20.6-3.9 26.5-4.3 26.7zm5 29.6-3.3-1.5c-1.7-.8-3.4-1.7-5-2.7-1.4-.9-2.9-1.6-4.2-2.6-1.4-.9-2.8-1.8-4.1-2.8-1.3-1-2.7-2-3.9-3.1-1.3-1.1-2.5-2.1-3.7-3.3-1.2-1.1-2.4-2.3-3.5-3.5l-1.7-1.8-1.6-1.9c-2.1-2.5-4-5.3-5.8-8.1-1.7-2.8-3.3-5.7-4.7-8.7-1.4-3-2.6-6.1-3.6-9.2-1-3-1.7-6-2.3-9.1l5.9.4c.2.1.5.3.7.4.1-.2-.7 29.4 40.8 57.5zm132.7-69.9c-6 .2-11.7-3.1-14.7-8.6-5.6-10.1-3.4-24.8-.5-35.3 5.3-19.5 12.7-34.6 23.2-47.1-1 1.6-43.9 74.3-8 91z" class="color63b7fc svgShape"></path>
            <path fill="#76b3ff" d="M175.3 71.7c2.3-.8 5.6-1.2 9.7-1.3-8.5 2.5-51.7 15.6-66.3 25.9-.3.1-.6.3-.9.4-.8.4-1.7.7-2.5 1.1-2.9 1.2-5.9 2.4-8.3 4.1-1.3.9-2.3 1.7-3.4 2.6 6.3-7 24.2-20.9 71.7-32.8zm51.9-62.3c-.9 0-23.9-.2-39.9 13.1-11.9 9.9-24.8 28.1-30.6 53.5-2.1.6-4.1 1.3-6 1.9 6.4-23.2 14.9-46.2 33.8-58.8 11.2-7.2 25.3-10.5 42.7-9.7zm14.3-7.9c-1.8.7-5.9 2.8-6.5 7.8-1-.2-2.1-.3-3.2-.3.1-1 .5-4.5 2.7-6.4 1.3-1.1 3-1.5 5-1.3.7 0 1.4.1 2 .2z" class="colorff7976 svgShape"></path>
            <path d="M327.6 110.4c-.7 11.8-1.2 23.6-1.5 35.4-.2 5.9-.4 11.8-.5 17.7l-.2 8.9c-.1 3-.1 5.9-.1 8.9s-.1 5.9 0 8.9v8.9l.2 8.9c0 3 .2 5.9.3 8.8.1 3 .3 5.9.4 8.8.1 1.5.2 2.9.3 4.4l.4 4.4c.1 1.5.2 2.9.4 4.4l.6 4.4.3 2.2c.1.7.3 1.4.4 2.2l.9 4.3-.1-.2c1.3 2 2.7 4 4.2 5.9 1.5 1.9 3.2 3.6 5 5.2 1.8 1.6 3.8 2.9 5.9 3.7 1.1.4 2.2.6 3.3.6 1.1-.1 2.2-.3 3.2-.9 2-1.1 3.5-3 4.7-5l.9-1.5.8-1.6 1.6-3.3c1.1-2.2 2.2-4.4 3.4-6.5l3.4-6.5 1.7-3.3.9-1.6.2-.4.2-.4.4-.8c.9-2 1.1-4.4.6-6.7-.5-2.3-1.5-4.5-2.4-6.7-.5-1.1-1-2.3-1.4-3.4-.4-1.2-.8-2.4-1-3.7-.4-2.6.1-5.2.8-7.6.7-2.4 1.5-4.7 2.1-7l.7-3.6.4-3.6.2-3.6V185.6l.1-.2c.4-.9 1.4-1.6 2.4-1.8 1-.2 1.9-.1 2.7.2.8.2 1.6.6 2.4.9.7.4 1.5.8 2.1 1.3 1.4 1 2.6 2.1 3.7 3.3.6.6 1.1 1.3 1.6 1.9.5.7.9 1.4 1.3 2.1.4.7.8 1.5 1.1 2.3.2.4.3.8.4 1.2.1.4.3.8.3 1.2.2.8.3 1.7.4 2.5v1.3l-.1 1.3c-.1.8-.3 1.7-.6 2.5-.1.4-.3.8-.5 1.2-.2.4-.3.8-.5 1.1l-.6 1.1c-.2.3-.5.7-.7 1-.5.7-1.1 1.3-1.6 1.9l-.3-1.3c.6.2 1 .4 1.5.7.5.3 1 .5 1.4.8.5.3.9.6 1.4.9.5.3.9.7 1.3 1 .4.3.8.7 1.2 1.1.4.4.7.8 1.1 1.2.4.4.7.9 1 1.3l.5.7.4.7c.2.5.5 1 .6 1.5.1.5.3 1 .4 1.6l.2 1.6c.1.5 0 1.1 0 1.6s0 1.1-.1 1.6l-.3 1.6c-.1.5-.3 1-.5 1.5l-.5 1.5c0 .1-.1.1-.2.1s-.1-.1-.1-.2l.4-1.5c.1-.5.3-1 .4-1.5l.2-1.5c.1-.5.1-1 .1-1.5s0-1-.1-1.5l-.3-1.5c-.1-.5-.3-1-.5-1.5-.1-.5-.4-.9-.7-1.4l-.4-.7-.5-.6c-.3-.4-.6-.8-1-1.2-.4-.4-.7-.8-1.1-1.1-.4-.3-.8-.7-1.2-1-.4-.3-.8-.6-1.3-.9-.4-.3-.9-.5-1.3-.8-.4-.2-.9-.5-1.4-.7-.5-.2-1-.4-1.4-.5l-1.1-.3.8-.9c.5-.6 1.1-1.1 1.5-1.7.2-.3.5-.6.7-.9l.6-1c.2-.3.3-.7.5-1 .2-.3.3-.7.4-1.1.3-.7.4-1.4.5-2.2l.1-1.1v-1.1c-.1-.7-.1-1.5-.3-2.2-.1-.4-.2-.7-.3-1.1-.1-.4-.2-.7-.4-1.1-.3-.7-.6-1.4-1-2.1-.4-.7-.8-1.3-1.2-1.9-.5-.6-.9-1.2-1.5-1.8-1-1.1-2.2-2.2-3.4-3.1-.6-.4-1.3-.8-1.9-1.2-.7-.3-1.4-.6-2.1-.8-.7-.2-1.4-.3-2-.2-.6.1-1.1.4-1.3.9l.1-.4v3.7l-.2 3.7-.4 3.7-.7 3.6c-.6 2.4-1.4 4.8-2.1 7.1-.7 2.3-1.1 4.7-.8 6.9.1 1.1.5 2.3.9 3.4s.9 2.2 1.4 3.4c1 2.2 2 4.5 2.5 7 .6 2.5.4 5.2-.7 7.7l-.4.8-.2.5-.2.4-.8 1.6-1.7 3.2-3.4 6.5c-1.1 2.2-2.3 4.3-3.3 6.5l-1.6 3.3-.8 1.6c-.3.6-.6 1.1-.9 1.7-1.3 2.1-2.9 4.2-5.3 5.5-1.2.7-2.5 1-3.8 1.1-1.3.1-2.6-.2-3.9-.6-2.5-.9-4.5-2.4-6.4-4-1.9-1.6-3.6-3.5-5.1-5.4-1.6-1.9-3-3.9-4.3-6l-.1-.1v-.1l-.9-4.4c-.1-.7-.3-1.5-.4-2.2l-.3-2.2-.6-4.4c-.2-1.5-.3-3-.4-4.4l-.8-4.8c-.1-1.5-.2-3-.3-4.4-.2-3-.4-5.9-.4-8.9-.1-3-.2-5.9-.3-8.9l-.2-8.9v-17.8c0-3 0-5.9.1-8.9l.2-8.9c.1-5.9.3-11.8.5-17.7.4-11.8.9-23.6 1.5-35.4 0-.4.4-.7.8-.7.4.1.7.5.7.9z" fill="#000000" class="color000 svgShape"></path>
            <path d="M385.5 212s.6-.5 1.8-1c.6-.3 1.3-.6 2.1-.9.8-.3 1.8-.5 2.9-.7 1.1-.2 2.3-.2 3.5-.1 1.2.1 2.5.4 3.8.8 1.3.5 2.5 1.1 3.7 1.9 1.2.8 2.3 1.7 3.3 2.7.5.5 1 1 1.4 1.6.5.5.9 1.1 1.3 1.6.4.6.8 1.1 1.2 1.7.4.6.8 1.1 1.1 1.7.3.6.6 1.1 1 1.7.3.6.6 1.1.8 1.7.6 1.1 1 2.1 1.4 3.1.4 1 .7 1.9 1.1 2.7.3.8.5 1.5.7 2.1l.6 1.8c0 .1 0 .2-.1.2s-.2 0-.2-.1c0 0-.2-.7-.7-1.8-.2-.6-.5-1.3-.8-2-.3-.8-.7-1.7-1.1-2.6-.5-.9-.9-2-1.5-3-.3-.5-.6-1.1-.9-1.6-.3-.5-.7-1.1-1-1.6-.3-.6-.7-1.1-1.1-1.6-.4-.6-.8-1.1-1.2-1.6-.4-.5-.8-1.1-1.3-1.6-.4-.5-.9-1-1.4-1.5-1-1-2.1-1.8-3.2-2.5s-2.3-1.2-3.5-1.7c-1.2-.4-2.4-.6-3.6-.6-1.1-.1-2.2 0-3.2.2-2 .4-3.5 1-4.6 1.6-.5.3-.9.5-1.2.7-.3.2-.4.2-.4.3-.4.2-.8.1-1.1-.2 0-.8.1-1.2.4-1.4z" fill="#000000" class="color000 svgShape"></path>
            <path d="M394.3 209.4s.3-.1.7-.2c.5-.1 1.2-.3 2-.6.9-.3 1.9-.7 3.1-1.2 1.2-.5 2.6-1.1 4-1.8 1.5-.7 3.1-1.3 4.7-2.2 1.6-.8 3.3-1.8 5.1-2.8 1.8-1 3.7-1.9 5.8-2.6 1-.3 2.1-.6 3.3-.7 1.2-.1 2.3 0 3.5.2 2.2.5 4.4 1.4 6 3.2.8.9 1.3 2.2 1.2 3.4-.2 1.3-.8 2.3-1.5 3.1-1.4 1.6-3.1 2.8-4.6 3.8-1.5 1.1-3.1 2-4.5 2.8-2.8 1.6-5.3 2.8-7 3.6-1.7.8-2.7 1.2-2.7 1.2-.1.1-.3 0-.3-.1-.1-.1 0-.3.1-.3 0 0 1-.5 2.6-1.4 1.7-.9 4-2.2 6.8-3.9 1.4-.8 2.8-1.8 4.3-2.9 1.5-1.1 3-2.2 4.3-3.7.6-.7 1.1-1.5 1.2-2.4.1-.8-.3-1.6-.9-2.3-1.3-1.4-3.3-2.3-5.2-2.7-1-.2-2-.3-3-.2-1 .1-2 .4-3 .7-2 .6-3.8 1.5-5.6 2.5-1.8.9-3.5 1.9-5.1 2.8-1.7.9-3.3 1.5-4.8 2.2-1.5.6-2.9 1.2-4.1 1.7-1.2.5-2.3.9-3.2 1.2-.9.3-1.7.5-2.2.6-.5.1-.8.2-.8.2-.3.1-.6-.1-.7-.4 0-.4.2-.7.5-.8z" fill="#000000" class="color000 svgShape"></path>
            <path d="M433.2 204.6s.5.3 1.4.9c.9.6 2.1 1.6 3.4 3 .6.7 1.2 1.6 1.7 2.6s.7 2.2.7 3.5c-.1 1.2-.6 2.4-1.2 3.5-.3.5-.8 1-1.1 1.5l-1.2 1.3-1.3 1.3c-.4.4-.9.8-1.3 1.2-.4.4-.9.8-1.4 1.1-.5.4-.9.7-1.4 1.1-.9.6-1.8 1.3-2.7 1.8-.9.5-1.7 1.1-2.6 1.4l-2.2 1.1c-.7.3-1.3.5-1.8.7l-1.5.6c-.1 0-.2 0-.3-.1 0-.1 0-.2.1-.3 0 0 .5-.2 1.5-.7.5-.2 1.1-.5 1.7-.8.7-.3 1.4-.7 2.2-1.1.8-.4 1.6-.9 2.5-1.5.9-.5 1.7-1.2 2.6-1.9.5-.3.9-.7 1.3-1.1.4-.4.9-.7 1.3-1.2.4-.4.8-.8 1.3-1.2l1.2-1.3 1.2-1.3c.3-.5.7-.9 1-1.4.6-1 .9-2 1-3 0-1-.2-2-.6-2.8-.5-.8-1-1.6-1.6-2.2-1.2-1.3-2.4-2.1-3.2-2.7-.8-.5-1.4-.8-1.4-.8-.4-.2-.5-.7-.3-1 .1-.3.5-.5 1-.2-.1 0-.1 0 0 0z" fill="#000000" class="color000 svgShape"></path>
            <path d="M313.7 306.1s.5.6 1.5 1.6 2.4 2.5 4.3 4.4c1.9 1.8 4.3 4 7.3 6 3 2.1 6.6 4 11 5 4.3 1 9.2.8 14-.8 4.8-1.6 9.4-4.6 13.4-8.5 1-1 2-2 2.9-3.1.9-1.1 1.9-2.2 2.7-3.4 1.7-2.3 3.3-4.7 4.9-7.2 3.1-5 5.9-10.4 8.9-15.6 3-5.2 6-10.5 9-15.6 1.6-2.6 3.5-5.1 6-6.8 2.5-1.7 5.1-3 7.6-4.2 2.6-1.2 4.9-2.5 7.3-3.9 2.4-1.3 4.7-2.6 6.9-3.9 4.5-2.6 8.6-5.2 12-8 .9-.7 1.7-1.4 2.5-2.1.8-.7 1.5-1.5 2.1-2.2 1.3-1.5 2.4-3.1 3.2-4.7 1.6-3.1 2.2-6.3 1.7-8.7-.4-2.4-1.6-4-2.5-5l-1.1-1.1c-.3-.2-.4-.3-.4-.3-.3-.3-.3-.8-.1-1.1.3-.3.8-.3 1.1-.1 0 0 .2.1.4.4.3.2.7.6 1.2 1.2 1 1.1 2.4 3 2.9 5.8s-.1 6.3-1.8 9.7c-.9 1.7-2 3.4-3.4 5-.7.8-1.4 1.6-2.2 2.4-.8.8-1.6 1.5-2.5 2.2-3.5 2.9-7.7 5.6-12.2 8.2-2.3 1.3-4.6 2.6-7 3.9-2.4 1.3-4.9 2.7-7.4 3.9-2.5 1.2-5.1 2.5-7.4 4.1-2.3 1.6-4 3.9-5.6 6.3-3 5.1-6 10.3-9 15.6-3 5.2-5.8 10.6-9 15.6-1.6 2.5-3.2 5-5 7.4-.9 1.2-1.8 2.3-2.7 3.4-1 1.1-1.9 2.2-3 3.2-4.1 4-8.9 7.1-14 8.8-5 1.7-10.3 1.8-14.8.7s-8.2-3.3-11.2-5.5-5.3-4.4-7.2-6.4c-1.8-1.9-3.2-3.5-4.1-4.6-.9-1.1-1.4-1.7-1.4-1.7-.1-.1 0-.2 0-.2 0-.2.1-.2.2-.1z" fill="#000000" class="color000 svgShape"></path>
            <path d="M378.8 296.8c-.2 0-.4-.1-.5-.2-11.8-11.5-19.4-26.5-22.9-34.4-.2-.4 0-.8.4-1 .4-.2.8 0 1 .4 3.4 7.8 11 22.6 22.6 33.9.3.3.3.8 0 1.1-.2.2-.4.2-.6.2zm-90.6 48.8c-6.2 0-12.1-3.5-15.2-9.2-5.8-10.4-3.5-25.4-.6-36.1 6.9-25.5 17.3-43.4 33.7-58.1 6.4-5.8 12.9-10.4 19.4-13.9.4-.2.8-.1 1 .3.2.4.1.8-.3 1-6.4 3.4-12.8 8-19.1 13.7-16.1 14.5-26.4 32.2-33.2 57.4-2.8 10.5-5.1 25 .5 35 3.2 5.9 9.4 9.1 15.8 8.3 5.8-.7 10.2-4.8 11.7-10.8 1.6-6.2 1.1-13 .7-19.5-.2-2.8-.4-5.7-.4-8.4 0-4.1.7-8 1.4-11.9.2-1 .4-2 .5-3 1.6-9.4 5.3-22.8 14.1-32.9 3.1-3.6 6.3-6.3 9.8-8.4.4-.2.8-.1 1.1.3.2.4.1.8-.3 1.1-3.3 2-6.4 4.7-9.4 8.1-8.5 9.9-12.2 22.9-13.8 32.2-.2 1-.4 2-.5 3-.7 3.9-1.4 7.6-1.4 11.6 0 2.7.2 5.6.4 8.3.5 6.7.9 13.6-.7 20-1.7 6.6-6.6 11.1-13 11.9h-2.2zM112.3 217.5h-.1c-.4-.1-.7-.5-.6-.9 10.6-57.2 33.4-126.3 33.6-127 .1-.4.6-.6 1-.5.4.1.6.6.5 1-.2.7-23 69.7-33.6 126.8-.1.3-.4.6-.8.6z" fill="#000000" class="color000 svgShape"></path>
            <path d="M108.9 355.4c.6 3.3 1.4 6.4 2.4 9.6 1 3.1 2.2 6.2 3.6 9.2.7 1.5 1.4 3 2.2 4.4.8 1.4 1.6 2.9 2.5 4.3.9 1.4 1.7 2.8 2.7 4.1 1 1.3 1.9 2.7 3 3.9l1.6 1.9 1.7 1.8c.6.6 1.1 1.2 1.7 1.8l1.8 1.7c1.2 1.2 2.4 2.2 3.7 3.3 1.2 1.1 2.6 2.1 3.9 3.1.7.5 1.3 1 2 1.5l2.1 1.4c1.4 1 2.8 1.7 4.2 2.6 1.4.9 2.9 1.6 4.3 2.3 1.5.8 3 1.4 4.5 2.1 1.5.7 3.1 1.3 4.6 1.9 1.5.6 3.1 1.1 4.7 1.7 3.1 1 6.3 2 9.5 2.7l2.4.6 2.4.5c1.6.3 3.2.7 4.9.9l4.9.8 4.9.5c1.6.2 3.3.3 4.9.4 1.7.1 3.3.3 5 .3l5 .2c1.7.1 3.3 0 5 0 3.3 0 6.6-.1 9.9-.3 3.3-.1 6.6-.5 9.9-.7l1.1-.1-.3 1-19.4 78.6-.5-.9c3 .8 6 1.5 9 2.1 3 .7 6.1 1.2 9.1 1.8l4.6.8 4.6.7c1.5.2 3.1.4 4.6.6 1.5.2 3.1.4 4.6.5 1.5.2 3.1.4 4.6.5l4.6.4c1.5.1 3.1.2 4.6.3 1.5.1 3.1.2 4.6.2l4.6.1H282.1l2.3-.1 4.6-.2-.5 1.3c-3.4-3.3-7-6.6-10.6-9.8-.9-.8-1.8-1.6-2.7-2.3-.9-.8-1.9-1.5-2.8-2.2-.9-.7-1.9-1.4-2.9-2.1l-1.5-1-1.5-.9-.7-.4.3-.6 2.5-5.3c.4-.9.8-1.8 1.3-2.6l1.4-2.6 2.8-5.1 2.9-5c1.9-3.4 4-6.6 6-9.9l6.2-9.8 6.2-9.8c2-3.3 4.1-6.6 6.1-9.9 2-3.3 3.9-6.6 5.9-10 1.9-3.4 3.8-6.7 5.6-10.2l2.7-5.1 2.5-5.2c.9-1.7 1.6-3.5 2.4-5.3.8-1.8 1.6-3.5 2.3-5.3l2.2-5.4 2-5.4c.7-1.8 1.2-3.7 1.8-5.5l.9-2.8c.3-.9.6-1.8.8-2.8l1.5-5.6c.5-1.9.8-3.8 1.2-5.7.9-3.8 1.3-7.6 1.9-11.4.2-1.9.4-3.8.6-5.8l.3-5.8.1-5.8-.2-5.8c0-.3.2-.5.5-.5s.5.2.5.5l.2 5.8-.1 5.8-.3 5.8c-.2 1.9-.3 3.8-.6 5.8-.6 3.8-1 7.7-1.9 11.5-.4 1.9-.7 3.8-1.2 5.7l-1.5 5.6c-.2.9-.5 1.9-.8 2.8l-.9 2.8c-.6 1.9-1.1 3.7-1.8 5.5l-2 5.5-2.2 5.4c-.7 1.8-1.5 3.6-2.3 5.3-.8 1.8-1.6 3.6-2.4 5.3l-2.5 5.2c-.8 1.7-1.8 3.4-2.7 5.2-1.8 3.5-3.7 6.8-5.5 10.2-1.9 3.4-3.9 6.7-5.9 10l-6 9.9-6.1 9.8-6.1 9.9c-2 3.3-4.1 6.6-6 9.9l-2.9 5-2.7 5.1-1.4 2.5c-.4.9-.8 1.7-1.2 2.6l-2.5 5.2-.4-1c.5.3 1.1.6 1.6.9l1.5 1c1 .7 2 1.4 2.9 2.2 1 .7 1.9 1.5 2.8 2.3.9.8 1.9 1.6 2.8 2.3 3.7 3.2 7.2 6.4 10.6 9.8l1.3 1.2-1.7.1-4.7.2-2.3.1h-7l-4.7-.1c-1.6 0-3.1-.1-4.7-.2s-3.1-.1-4.7-.3l-4.6-.4c-1.6-.1-3.1-.3-4.6-.5-1.5-.2-3.1-.3-4.6-.6-1.5-.2-3.1-.4-4.6-.6l-4.6-.7-4.6-.8c-3.1-.6-6.1-1.1-9.2-1.8-3-.7-6.1-1.4-9.1-2.2l-.7-.2.2-.7 19.4-78.6.8.9c-3.3.2-6.6.5-10 .7-3.3.1-6.7.3-10 .3h-5l-5-.2c-1.7 0-3.3-.2-5-.3-1.7-.1-3.3-.2-5-.4l-5-.6-5-.8c-1.7-.2-3.3-.6-4.9-.9l-2.5-.5-2.4-.6c-3.3-.8-6.5-1.7-9.6-2.8-1.6-.6-3.2-1.1-4.7-1.7-1.5-.6-3.1-1.2-4.6-1.9-1.5-.7-3.1-1.4-4.5-2.2-1.5-.8-3-1.5-4.4-2.4-1.4-.9-2.9-1.7-4.3-2.6l-2.1-1.4c-.7-.5-1.4-1-2-1.5-1.3-1-2.7-2-3.9-3.1-1.3-1.1-2.6-2.2-3.7-3.4l-1.8-1.7c-.6-.6-1.1-1.2-1.7-1.8L126 393l-1.6-1.9c-1.1-1.3-2.1-2.6-3.1-4-1-1.3-1.9-2.8-2.8-4.2-.9-1.4-1.7-2.9-2.5-4.4-.8-1.5-1.6-3-2.2-4.5-1.4-3-2.6-6.2-3.6-9.4s-1.9-6.5-2.5-9.7c-.1-.4.2-.8.6-.9.2.7.6.9.6 1.4z" fill="#000000" class="color000 svgShape"></path>
            <path d="M284.5 461.3h-.1c-22.2-3.6-43.3-5.5-57-6.5-.4 0-.7-.4-.7-.8s.4-.7.8-.7c13.8 1 34.9 2.9 57.2 6.5.4.1.7.5.6.9-.1.3-.4.6-.8.6zm-146.9 28.9c-14.4 0-34.4-2.5-51.9-13.9l-1.2-.8 1.3-.6c.1-.1 14.7-6.2 29.3-9.2 1.4-3.4 11.6-29.2 24.9-59.8.2-.4.6-.6 1-.4.4.2.6.6.4 1-14.1 32.7-24.9 59.8-25 60.1l-.2.4-.4.1c-12 2.4-24.1 7-28.1 8.6 28.8 18.1 64.5 12.1 68.3 11.4l38.6-62.9c.2-.4.7-.5 1.1-.3.4.2.5.7.3 1.1l-38.9 63.4-.3.1c-.2.1-7.9 1.7-19.2 1.7z" fill="#000000" class="color000 svgShape"></path>
            <path d="M177.7 454.2c-.1 0-.2 0-.3-.1-9.7-4.2-26.2-10.6-49.6-16.9-.4-.1-.7-.5-.5-.9.1-.4.5-.6.9-.5 23.6 6.3 40.1 12.7 49.9 16.9.4.2.6.6.4 1-.2.4-.5.5-.8.5zm-43.3-326.1s-.1 0 0 0c-1.3-.1-32-1.9-36.5-11.8-1.2-2.5-.6-5.3 1.6-8.2l.1-.1c1.6-2 4-4.2 7.2-6.4 2.4-1.7 5.4-2.9 8.4-4.1.9-.4 1.7-.7 2.5-1.1 3.9-1.7 7.7-3.1 11.5-4.3 7.7-2.3 16.1-3.9 25-4.5 19-1.4 39.8 1.9 61.7 9.9 5.4 2 11.1 4.3 17.4 7.1 13.8 6.2 29.8 7.1 44.9 2.6 4.4-1.3 8.1-2.9 11.3-4.9 6.9-4.2 14.9-5 22.7-2.2.4.1.6.6.5 1-.1.4-.6.6-1 .5-4.2-1.5-12.7-3.3-21.4 2.1-3.3 2.1-7.1 3.7-11.7 5-15.5 4.6-31.8 3.6-46-2.7-6.3-2.8-12-5.1-17.3-7.1-21.7-7.9-42.3-11.2-61.1-9.8-8.8.7-17.1 2.2-24.6 4.5-3.7 1.1-7.4 2.5-11.3 4.2-.8.4-1.7.7-2.6 1.1-2.8 1.2-5.8 2.4-8.1 4-3 2.1-5.3 4.1-6.8 6l-.2.2c-1.9 2.4-2.3 4.6-1.4 6.6 4.2 9.1 34.9 10.9 35.2 10.9.4 0 .7.4.7.8s-.3.7-.7.7z" fill="#000000" class="color000 svgShape"></path>
            <path d="m327.3 111.7-.9-.7c-3.6-2.7-6.5-4.7-9.3-6.3C280.5 82 194.3 65.9 175.5 72.1c-9.5 2.4-17.8 4.8-25.1 7.3-42.7 14.4-49.5 29.2-49.6 29.4-.2.4-.6.6-1 .4-.4-.2-.6-.6-.4-1 .3-.7 7-15.6 50.1-30.1 6.4-23.5 15.1-46.9 34.4-59.7 18.7-12.4 45.5-13.5 82-3.2l.2.1c19.1 5.4 42.9 12.1 56.2 28.2 9 10.9 11.9 26.5 9.1 47.7-.7 5.5-1.8 11.2-3.3 17.3l-.8 3.2zM188 69.2c31.3 0 97.9 14.3 129.9 34.2 2.5 1.5 5.2 3.3 8.5 5.7l.3-1.1c1.5-6.1 2.5-11.7 3.3-17.2 2.8-20.8-.1-36-8.8-46.6-13-15.7-36.5-22.4-55.4-27.7l-.2-.1c-36-10.1-62.4-9.1-80.7 3-18.6 12.3-27.2 35-33.5 57.8 7-2.3 14.8-4.6 23.8-6.8 2.8-.8 7.3-1.2 12.8-1.2z" fill="#000000" class="color000 svgShape"></path>
            <path d="M293 93h-.2c-.4-.1-.6-.5-.5-.9 8.9-31.6 1.4-58.1-2.3-68-.1-.4.1-.8.5-1 .4-.1.8.1 1 .5 3.7 10.1 11.4 36.9 2.3 69-.1.2-.4.4-.8.4zm-40-79.6h-.1c-.4-.1-.7-.5-.6-.9.6-3.4.3-5.7-.9-7.2-1.8-2.4-5.7-3-11.9-3.7-2-.2-3.6.2-4.7 1.2-2.5 2.2-2.6 6.4-2.6 6.4 0 .4-.3.8-.8.8-.4 0-.8-.4-.8-.8 0-.2.1-5 3.1-7.6 1.5-1.3 3.5-1.9 5.9-1.6 6.6.8 10.8 1.4 13 4.3 1.4 1.9 1.8 4.5 1.1 8.3 0 .5-.3.8-.7.8zM335 347h-.2c-21.8-5-31.8-24.4-31.9-24.6-.2-.4 0-.8.3-1 .4-.2.8 0 1 .3.1.2 9.8 19 30.8 23.8.4.1.7.5.6.9.1.3-.2.6-.6.6zm-83.3-45.8c-13.5 0-30.1-2.2-45-10.4-.4-.2-.5-.7-.3-1 .2-.4.7-.5 1-.3 24.8 13.7 54.5 10.4 66.1 8.4.4-.1.8.2.9.6.1.4-.2.8-.6.9-4.9.8-12.8 1.8-22.1 1.8zm-100 56.9s.2.6.5 1.6c.1.5.3 1.1.5 1.8.1.4.2.7.3 1.1.1.4.2.8.3 1.3.2.9.4 1.9.5 2.9.1 1 .2 2.2.3 3.3 0 .3.1.6.1.9v3.6l-.1.9-.2 1.8c0 .6-.3 1.2-.4 1.8-.2.6-.3 1.2-.4 1.8-.4 1.1-.7 2.3-1.3 3.3-.3.5-.5 1-.7 1.5-.3.5-.6.9-.8 1.4-.3.5-.6.9-.9 1.3-.3.4-.6.8-.9 1.1-2.3 2.8-4.5 4.1-4.5 4.1-.1 0-.2 0-.2-.1s0-.2.1-.2c0 0 .5-.3 1.3-1 .4-.4.9-.8 1.4-1.3.2-.3.5-.5.8-.9.3-.3.5-.7.8-1 .3-.3.5-.7.8-1.1.3-.4.6-.8.8-1.3.2-.4.5-.9.8-1.4.2-.5.4-1 .7-1.5.5-1 .8-2.1 1.1-3.2.2-.6.2-1.1.4-1.7.1-.6.3-1.2.3-1.7l.2-1.8.1-.9V371c0-.3-.1-.6-.1-.8-.1-1.1-.2-2.2-.4-3.2s-.4-1.9-.6-2.8l-.3-1.2c-.1-.4-.2-.8-.4-1.1-.2-.7-.4-1.3-.6-1.8-.3-1-.5-1.6-.5-1.6-.1-.4.1-.8.5-1 .2-.1.6.1.7.6 0-.1 0-.1 0 0zm58.1-19.2s7.2.7 17.9 1.9c5.4.6 11.6 1.3 18.3 2.4 3.3.5 6.8 1.1 10.3 1.9.9.2 1.7.5 2.6.8.2.1.5.2.7.3.1.1.2.1.4.3l.2.2c.1.1.1.2.2.3l.1.2c0 .1 0-.1.1.2v.2c0 .1 0 .3-.1.5 0 .1-.1.2-.1.3l-.1.2c-.1.1-.1.3-.2.4-.3.4-.7.8-1 1.1l-.5.4-.5.5c-.6.6-1.3 1.3-1.8 2-2.3 2.7-4.2 5.7-5.3 9-.3.8-.6 1.6-.8 2.5l-.3 1.2-.2 1.3c-.1.9-.3 1.7-.4 2.6-.1.8-.1 1.7-.2 2.5-.2 1.6 0 3.3 0 4.9v.6l.1.6c.1.4.1.8.2 1.2.1.8.2 1.6.4 2.2.2.7.4 1.5.6 2.2.3.7.5 1.3.8 2 .3.6.6 1.3 1 1.8.2.3.4.6.5.9.2.3.4.5.6.8 1.6 2.1 3.5 3.7 5.2 4.8 1.8 1.2 3.6 1.8 5.1 2.3 1.5.5 2.7.7 3.5.9.8.1 1.3.2 1.3.2.1 0 .2.2.2.3 0 .1-.2.2-.3.2 0 0-.4-.1-1.3-.2-.8-.1-2.1-.3-3.6-.7-1.5-.4-3.4-1.1-5.3-2.2-1.9-1.2-3.9-2.8-5.7-5-.2-.3-.4-.6-.6-.8l-.6-.9c-.4-.6-.7-1.3-1.1-1.9-.4-.7-.6-1.4-.9-2.1-.3-.7-.4-1.5-.7-2.2-.2-.8-.3-1.6-.4-2.4-.1-.4-.1-.8-.2-1.2l-.1-.6v-.6c0-1.7-.3-3.3-.1-5.1.1-.9.1-1.7.2-2.6.1-.8.3-1.7.4-2.6l.2-1.3c.1-.5.2-.9.3-1.3.2-.9.5-1.7.8-2.6 1.2-3.4 3.1-6.6 5.5-9.4.6-.7 1.2-1.4 1.8-2l.5-.5c.2-.2.4-.3.5-.5.3-.3.6-.6.8-.9.1-.1.1-.1.1-.2l.1-.1s.1 0 0-.1v-.2c.1.3 0 .1 0 .1h-.1s-.1-.1-.2-.1c-.1-.1-.3-.2-.5-.2-.8-.3-1.6-.5-2.4-.8-3.4-.8-6.8-1.3-10.2-1.8-6.7-1-12.9-1.7-18.3-2.3-10.7-1.2-17.9-1.9-17.9-1.9-.4 0-.7-.4-.7-.8.4-.8.7-1.1 1.2-1.1zm35.5 56.8c-.2 0-.3-.1-.5-.2-5.9-5-8.4-11.5-8.1-20.7 0-.4.4-.8.8-.7.4 0 .8.4.7.8-.3 8.6 2 14.8 7.5 19.5.3.3.4.8.1 1.1 0 .1-.3.2-.5.2z" fill="#000000" class="color000 svgShape"></path>
            <path d="M238.4 362.7c-.1 0-.2 0-.3-.1-.4-.2-.6-.6-.4-1 1.2-3.1 2.7-5.4 4.7-7.4.3-.3.8-.3 1.1 0 .3.3.3.8 0 1.1-1.9 1.8-3.2 3.9-4.3 6.8-.2.4-.5.6-.8.6zm-34.1-.2h-.4l-96.6-6.3c-.8 0-1.5-.1-2.3-.1-.6 0-1.3-.1-1.9-.1-.9-.1-1.8-.1-2.7-.2-.9 0-2.5-.1-3.2-1.6-.2-.5-.3-1.1-.4-1.6l-3-36.1c0-.4.3-.8.7-.8.4 0 .8.3.8.7l3 36.1c.1.3.1.8.3 1.2.2.5.8.6 1.8.7.9 0 1.8.1 2.8.2.6 0 1.3.1 1.9.1.8 0 1.6.1 2.3.1l96.6 6.3c1 0 1.6-.1 1.9-.4.3-.3.4-.9.4-1.7 0-.6-8.3-128.8-8.3-128.8 0-.1 0-.2-.1-.4-.1-.6-.2-1.3-.5-1.6-.5-.6-1.5-1-2.6-1-.3 0-104.8-7.6-105.8-7.7-.6-.1-1.1.1-1.4.4-.3.3-.5.8-.4 1.3 0 .2 2.6 30.9 2.6 30.9l1.1 13.3c0 .4-.3.8-.7.8-.4 0-.8-.3-.8-.7l-1.1-13.3-2.6-30.9c-.1-1 .2-1.9.9-2.5.7-.6 1.6-.9 2.6-.8 4.3.3 105.7 7.6 105.8 7.7.7.1 2.5.3 3.6 1.6.6.7.8 1.6.9 2.4 0 .2.1.3.1.5 0 .1 8.2 128.3 8.3 128.9.1.8 0 2.1-.8 2.9-.9.3-1.9.5-2.8.5z" fill="#000000" class="color000 svgShape"></path>
            <path d="M206.5 361.9c-.3 0-.6-.2-.7-.5-.1-.4.1-.8.5-1 3.5-1.3 3.7-3.5 3.7-3.6-.1-1.2-8.1-129.6-8.1-130-.1-1.7-1.8-2.7-3.5-2.9l-101.8-7c-4.6 0-8.9 2.8-9 2.8-.4.2-.8.1-1.1-.2-.2-.4-.1-.8.2-1.1.2-.1 4.8-3.1 9.9-3.1l101.9 7c2.3.3 4.7 1.7 4.9 4.3 0 .2 7.8 124.7 8.1 130 0 .2-.2 3.4-4.7 5-.1.3-.2.3-.3.3zm24.8-177.4c-13.7 0-24.8-13-24.8-29s11.1-29 24.8-29 24.8 13 24.8 29-11.2 29-24.8 29zm0-56.4c-12.8 0-23.3 12.3-23.3 27.5 0 15.1 10.4 27.5 23.3 27.5 12.8 0 23.3-12.3 23.3-27.5-.1-15.2-10.5-27.5-23.3-27.5zM179 175.8c-13.3 0-24.1-12.2-24.1-27.2s10.8-27.2 24.1-27.2 24.1 12.2 24.1 27.2-10.8 27.2-24.1 27.2zm0-52.9c-12.5 0-22.6 11.5-22.6 25.6 0 14.1 10.1 25.6 22.6 25.6 12.5 0 22.6-11.5 22.6-25.6 0-14.1-10.2-25.6-22.6-25.6zm-14.5-16.7.4-1.4c1.2-4.7 16.8-11.2 18.6-12 .6-.3 1.3-.4 1.8-.4 4.7 0 5.3 8.1 5.3 8.5l.1.9-.9-.1c-.9-.1-1.8-.1-2.7-.1-10 0-21.1 4.1-21.2 4.1l-1.4.5zM185.3 94c-.4 0-.8.1-1.3.3-5.4 2.2-13.6 6.3-16.6 9.3 3.8-1.2 11.9-3.5 19.6-3.5h1.9c-.2-1.9-1-6.1-3.6-6.1zm76.8 30.2-1.2-.9c-3.8-2.7-22.9-15.2-23.1-15.3-.4-.2-.5-.7-.2-1.1.2-.4.7-.5 1.1-.2.2.1 15.4 10.1 21.4 14.2-.8-1.8-2.6-4.9-7.1-9.9-.3-.3-.3-.8.1-1.1.3-.3.8-.3 1.1.1 7.7 8.4 8.1 12.1 8.1 12.7l-.2 1.5z" fill="#000000" class="color000 svgShape"></path>
            <path d="M181.6 165.7s-.2-.3-.5-.9c-.1-.1-.1-.3-.2-.5-.1-.1-.2-.3-.3-.4-.1-.1-.2-.3-.3-.4l-.4-.4c-.2-.1-.3-.3-.5-.4-.2-.1-.4-.3-.5-.4-.1-.1-.2-.1-.3-.2l-.3-.2-.6-.3c-.2-.1-.4-.2-.6-.2-.2-.1-.4-.1-.6-.2-.4-.2-.9-.1-1.3-.2h.2-1.3c-.1 0-.2 0-.2.1h-.2c-.1 0-.2 0-.3.1-.2.1-.4.1-.6.2l-.6.3-.6.3-.6.3c-.2.1-.3.3-.5.4-.2.1-.3.3-.5.4-.1.2-.3.3-.4.4l-.4.4c-.1.1-.2.3-.3.4-.3.5-.6.8-.6.8s-.2-.3-.3-1c0-.2-.1-.4-.1-.6V162c0-.3.1-.5.2-.8l.3-.9c.2-.3.4-.6.5-.9.2-.3.4-.6.7-.9.3-.3.6-.6.9-.8.7-.4 1.4-.9 2.4-1.1l.7-.2c.3-.1.4 0 .5-.1h1.2c.9.1 1.8.2 2.5.6.8.3 1.5.8 2.1 1.3.3.3.6.6.8.9.2.3.5.6.6.9.2.3.3.6.5.9.1.3.2.6.2.9.1.3.1.6.1.9v.8c0 .2 0 .5-.1.7-.1.2-.1.3-.2.5-.1.6-.2 1-.2 1zm48.2 8.7s-.1-.4-.2-1c0-.2 0-.3-.1-.5s-.1-.3-.2-.5-.1-.3-.2-.5l-.3-.6-.3-.6c-.1-.2-.3-.4-.4-.5-.1-.1-.1-.2-.2-.3l-.2-.2c-.2-.2-.3-.3-.4-.5-.2-.1-.3-.3-.5-.4-.1-.2-.4-.2-.5-.4-.2-.1-.4-.3-.6-.3l-.3-.1-.1-.1h-.1c.1 0-.2-.1.2.1l-.9-.3-.2-.1c-.1 0-.2-.1-.2 0h-1.4c-.2 0-.4.1-.7.1-.2 0-.4 0-.7.1-.2 0-.4.1-.6.1-.2.1-.4.2-.6.2-.2.1-.4.1-.6.2-.2.1-.3.2-.5.3-.2.1-.3.2-.5.3-.1.1-.3.2-.4.3-.5.4-.8.6-.8.6v-1c0-.2 0-.4.1-.6 0-.2.1-.4.2-.6.1-.2.2-.5.3-.7.1-.3.3-.5.5-.7.2-.2.4-.5.6-.8.2-.2.5-.4.8-.7l.9-.6c.3-.2.7-.4 1.1-.5.8-.2 1.6-.4 2.6-.3h.7c.3 0 .4.1.5.1l1 .2c.4.1.1 0 .2.1h.1l.1.1.3.2.6.3c.4.2.7.5 1.1.8.7.5 1.2 1.2 1.6 1.9.2.3.3.7.5 1.1.1.4.3.7.3 1.1.1.4.1.7.1 1 0 .3 0 .7-.1 1 0 .3-.1.6-.1.9-.1.3-.2.5-.3.8l-.3.6c-.1.2-.2.3-.3.4-.3.2-.6.5-.6.5z" fill="#000000" class="color000 svgShape"></path>
            <path d="M165.6 186.3s1.7 1 4.9 2.4c1.6.7 3.5 1.6 5.8 2.5 2.3.9 4.8 1.8 7.7 2.8 1.4.5 2.9.9 4.4 1.4 1.6.4 3.2.9 4.8 1.3 3.3.8 6.9 1.5 10.6 2 .9.1 1.9.3 2.8.4.9.1 1.9.2 2.8.3 1 .1 1.9.2 2.9.2s1.9.1 2.9.1c3.9.2 7.9 0 11.8-.4 7.9-.8 15.7-2.6 22.6-5.4 3.4-1.4 6.6-3 9.5-4.9 2.8-1.8 5.3-3.9 7.3-6.1 2-2.2 3.4-4.4 4.4-6.6.5-1.1.9-2.1 1.2-3.1.2-1 .5-1.9.6-2.7.1-.4.1-.8.2-1.2 0-.4 0-.7.1-1.1 0-.3 0-.6.1-.9V165c0-.4.3-.8.8-.8.4 0 .8.3.8.8v2.3c0 .3 0 .6-.1 1 0 .3-.1.7-.1 1.1-.1.4-.1.8-.2 1.3-.1.9-.4 1.8-.7 2.9-.4 1-.7 2.1-1.3 3.2-1.1 2.2-2.7 4.6-4.8 6.8-2.1 2.2-4.6 4.3-7.6 6.2-2.9 1.8-6.2 3.5-9.7 4.8-7 2.7-14.9 4.5-22.9 5.2-4 .3-8 .5-11.9.3-1 0-2-.1-2.9-.1-1-.1-1.9-.2-2.9-.3-1-.1-1.9-.2-2.9-.3-.9-.1-1.9-.3-2.8-.4-3.7-.6-7.2-1.3-10.6-2.2-1.7-.4-3.3-.9-4.8-1.3-1.5-.5-3-.9-4.4-1.4-2.8-1-5.4-1.9-7.6-2.9-2.2-.9-4.2-1.8-5.8-2.5-3.3-1.4-5-2.4-5-2.4z" fill="#000000" class="color000 svgShape"></path>
            <path d="M269.8 162.9s.2 0 .4-.1h1.1c.2 0 .4.1.7.1.2.1.5.1.7.2.2.1.5.2.7.3.2.1.5.3.7.4.2.2.4.4.6.5.2.2.4.4.5.6.2.2.3.4.4.6l.3.6c.3.8.3 1.5.3 1.5s0 .1-.1.1c0 0-.3-.4-.9-.9l-.9-.9c-.3-.3-.8-.6-1.2-.9l-1.2-.9c-.4-.2-.8-.5-1.1-.7-.6-.4-1.1-.6-1.1-.6 0 .2 0 .2.1.1-.1 0-.1 0 0 0zM74.7 270h-.2c-.4-.1-.6-.6-.5-1 5.2-15.3 14.5-17.6 14.9-17.7.4-.1.8.2.9.6.1.4-.2.8-.6.9-.1 0-8.9 2.3-13.8 16.7-.1.3-.4.5-.7.5z" fill="#000000" class="color000 svgShape"></path>
            <path d="M93.6 317.2c-1.1 0-2.2-.1-3.3-.2-3.4-.5-6.7-1-9.6-2.6-5.3-2.9-10.1-9-12.2-15.5-2.1-6.5-2.1-13.8 0-20.1C74.4 261.4 89.8 261 90 261c.4 0 .8.3.8.8 0 .4-.3.8-.8.8-.6 0-14.5.4-20 16.7-2 5.9-2 12.9 0 19.1 2 6.2 6.5 12 11.5 14.6 2.7 1.5 5.9 2 9.1 2.4 6.3.9 11.8-.9 14.8-4.6.9-1.1 1.5-2.5 1.7-4 .4-2.2-.3-4.8-1.7-6.9-.2-.4-.1-.8.2-1.1.4-.2.8-.1 1.1.2 1.6 2.4 2.3 5.4 1.9 8-.3 1.8-1 3.4-2 4.7-2.9 3.6-7.6 5.5-13 5.5z" fill="#000000" class="color000 svgShape"></path>
            <path d="M106.8 279.6c.3.3.7.6 1 1 .3.4.7.7.9 1.2.3.4.6.8.8 1.2l.4.6.3.7c.2.4.4.9.6 1.4.2.5.3.9.4 1.4.1.5.2 1 .3 1.4.1.5.1 1 .1 1.5s0 1-.1 1.5c0 .5-.2 1-.3 1.5-.1.5-.3.9-.4 1.4-.1.5-.4.9-.6 1.4-.2.5-.5.9-.8 1.3l-.4.6-.5.6c-.3.4-.6.8-1 1.1l-1.1 1-.1.1h-.1c-.6.2-1.1.4-1.7.5-.6.1-1.2.2-1.7.3-1.2.1-2.3.3-3.4.3-1.1.1-2.3.1-3.4.1h-3.4c-4.6-.1-9.1-.5-13.6-1 4.5.2 9.1.3 13.6.1 1.1 0 2.3-.1 3.4-.2s2.2-.2 3.4-.3c1.1-.1 2.2-.3 3.3-.5l1.6-.4c.5-.1 1-.3 1.5-.4l-.2.1 1-.9c.4-.3.6-.6.9-1l.4-.5.4-.5c.2-.4.5-.7.7-1.1l.6-1.2c.1-.4.3-.8.4-1.2.1-.4.2-.8.2-1.3 0-.4.1-.9.1-1.3s0-.9-.1-1.3-.1-.9-.2-1.3-.2-.9-.4-1.3c-.1-.4-.3-.8-.5-1.2l-.3-.6-.3-.6c-.2-.4-.5-.8-.7-1.1-.2-.4-.5-.7-.8-1-.3-.3-.7-.6-1-1-.2-.2-.2-.6 0-.9.1-.4.5-.4.8-.2z" fill="#000000" class="color000 svgShape"></path>
            <path d="m78.9 281.1 7-.1 7-.1 6.9-.3c1.1-.1 2.3-.2 3.4-.4.6-.1 1.1-.2 1.6-.3.3-.1.5-.1.7-.2l.4-.2c.9-.9 1.3-2.2 1.5-3.6.1-1.4-.1-2.8-.5-4.1-.2-.7-.5-1.3-.9-1.9-.2-.3-.4-.6-.6-.8-.1-.1-.2-.3-.3-.4l-.4-.4c-.5-.5-1-.9-1.6-1.3-.6-.3-1.2-.6-1.9-.7-.7-.2-1.4-.2-2.1-.3-.7-.1-1.4-.1-2.2-.1-1.5 0-2.9 0-4.4.1-1.5.1-3 .2-4.4.3-1.5.1-3 .3-4.4.5 1.4-.3 2.9-.6 4.4-.9 1.5-.3 2.9-.5 4.4-.7.7-.1 1.5-.2 2.2-.2.7-.1 1.5-.1 2.3-.2h2.3c.8 0 1.5.1 2.3.2.8.1 1.6.4 2.3.8.7.4 1.3.9 1.9 1.4l.4.4c.2.2.3.3.4.5.3.3.5.6.7 1 .4.7.8 1.4 1 2.2.5 1.5.8 3.1.6 4.7-.1 1.6-.7 3.2-1.9 4.5v-.1c-.4.4-.7.5-1 .7l-.9.3-1.8.3c-1.2.1-2.4.2-3.5.3-2.3.1-4.7.1-7 .1s-4.7-.2-7-.3c-2.3-.2-4.6-.4-6.9-.7zm20.6-44.8h-.6c-2.8-.3-4.9-2.7-4.9-5.6 0-2.8 2.2-5.3 4.9-5.6 3.2-.3 6 2.3 6 5.6 0 3.1-2.4 5.6-5.4 5.6zm0-9.6h-.4c-2 .2-3.5 2-3.5 4 0 2.1 1.6 3.8 3.5 4 2.4.2 4.3-1.6 4.3-4 0-2.2-1.7-4-3.9-4zm9.3 8.4h-.3c-1.6-.2-2.9-1.6-2.9-3.3 0-1.7 1.3-3.1 2.9-3.3 1.9-.2 3.6 1.4 3.6 3.3-.1 1.8-1.5 3.3-3.3 3.3zm0-5.1h-.2c-.9.1-1.6.9-1.6 1.8s.7 1.7 1.6 1.8c1 .1 1.9-.7 1.9-1.8 0-1-.7-1.8-1.7-1.8z" fill="#000000" class="color000 svgShape"></path>
        </svg>
    </g>
</svg>