<svg id="SvgjsSvg1001" width="256" height="256" xmlns="http://www.w3.org/2000/svg" version="1.1" xmlns:xlink="http://www.w3.org/1999/xlink" xmlns:svgjs="http://svgjs.com/svgjs">
    <defs id="SvgjsDefs1002"></defs>
    <g id="SvgjsG1008">
        <svg xmlns="http://www.w3.org/2000/svg" viewBox="0 0 64 64" width="256" height="256">
            <path fill="#dbeafe" d="M57 3h-5a4 4 0 0 1-4 4h-6a4 4 0 0 1-4-4h-5a4 4 0 0 0-4 4v50a4 4 0 0 0 4 4h24a4 4 0 0 0 4-4V7a4 4 0 0 0-4-4z" class="colordadef0 svgShape"></path>
            <path fill="#93c5fd" d="M42 7h6a4 4 0 0 0 4-4H38a4 4 0 0 0 4 4z" class="color787878 svgShape"></path>
            <path fill="#60a5fa" d="M31 3H7a4 4 0 0 0-4 4v50a4 4 0 0 0 4 4h24a4 4 0 0 0 4-4V7a4 4 0 0 0-4-4z" class="color7ca6e6 svgShape"></path>
            <path fill="#3b82f6" d="M5.353 27.468 3.254 5.638A3.954 3.954 0 0 0 3 7v50a4 4 0 0 0 4 4h24c.71 0 1.366-.2 1.944-.524C17.89 56.243 6.863 43.178 5.353 27.468zM50 31l-8-8v4h-5v8h5v4z" class="color4a81d4 svgShape"></path>
            <path d="M57 2H35a1 1 0 0 0-1 1c0 .011.006.02.006.031A4.947 4.947 0 0 0 31 2H7C4.243 2 2 4.243 2 7v50c0 2.757 2.243 5 5 5h24a4.947 4.947 0 0 0 3.006-1.031c0 .011-.006.02-.006.031a1 1 0 0 0 1 1h22c2.757 0 5-2.243 5-5V7c0-2.757-2.243-5-5-5zm-6.184 2A2.996 2.996 0 0 1 48 6h-6a2.996 2.996 0 0 1-2.816-2h11.632zM34 57c0 1.654-1.346 3-3 3H7c-1.654 0-3-1.346-3-3V7c0-1.654 1.346-3 3-3h24c1.654 0 3 1.346 3 3v50zm26 0c0 1.654-1.346 3-3 3H35c-.011 0-.02.006-.031.006A4.947 4.947 0 0 0 36 57V7a4.947 4.947 0 0 0-1.031-3.006c.011 0 .02.006.031.006h2.101A5.01 5.01 0 0 0 42 8h6a5.01 5.01 0 0 0 4.899-4H57c1.654 0 3 1.346 3 3v50z" fill="#bfdbfe" class="color000 svgShape"></path>
            <path d="M46 56h-2a1 1 0 1 0 0 2h2a1 1 0 1 0 0-2zm10 0h-2a1 1 0 1 0 0 2h2a1 1 0 1 0 0-2zM30.4 17.2l-24 18a.999.999 0 1 0 1.2 1.6l24-18a.999.999 0 1 0-1.2-1.6zm12.307 5.093A1 1 0 0 0 41 23v3h-3a1 1 0 1 0 0 2h4a1 1 0 0 0 1-1v-1.586L48.586 31 43 36.586V35a1 1 0 0 0-1-1h-4a1 1 0 1 0 0 2h3v3a1 1 0 0 0 1.707.707l8-8a.999.999 0 0 0 0-1.414l-8-8zM10 9a1 1 0 0 0 1-1V7a1 1 0 1 0-2 0v1a1 1 0 0 0 1 1zm2 2h1a1 1 0 1 0 0-2h-1a1 1 0 1 0 0 2zm-2 0a1 1 0 0 0-1 1v1a1 1 0 1 0 2 0v-1a1 1 0 0 0-1-1zm-3 0h1a1 1 0 1 0 0-2H7a1 1 0 1 0 0 2zm23.4 16.2-24 18a.999.999 0 1 0 1.2 1.6l24-18a.999.999 0 1 0-1.2-1.6z" fill="#bfdbfe" class="color000 svgShape"></path>
        </svg>
    </g>
</svg>